chernihiv
1
   30.445284   51.105840
   30.459323   51.116909
   30.447105   51.142438
   30.448137   51.170319
   30.462697   51.190093
   30.479608   51.201657
   30.464114   51.217926
   30.464987   51.236743
   30.475896   51.247718
   30.496194   51.257738
   30.497676   51.271251
   30.506312   51.280675
   30.520140   51.287210
   30.543662   51.291411
   30.556160   51.298243
   30.550532   51.310154
   30.552875   51.320815
   30.593023   51.352635
   30.593058   51.368660
   30.603206   51.381786
   30.593028   51.396068
   30.566455   51.402037
   30.547134   51.418743
   30.535824   51.447707
   30.540032   51.459725
   30.549775   51.469287
   30.544768   51.487538
   30.530330   51.498604
   30.524554   51.517877
   30.506643   51.529892
   30.487038   51.555399
   30.483945   51.572679
   30.465087   51.589956
   30.463353   51.602273
   30.470050   51.615528
   30.465883   51.630870
   30.477158   51.655294
   30.473921   51.668332
   30.476880   51.678087
   30.492104   51.695263
   30.516572   51.703715
   30.521599   51.716111
   30.538058   51.729266
   30.561183   51.737088
   30.583054   51.738848
   30.570761   51.756743
   30.570731   51.770710
   30.585772   51.788996
   30.621162   51.802413
   30.612236   51.812958
   30.609176   51.824792
   30.619614   51.842661
   30.656988   51.858888
   30.670044   51.882591
   30.699621   51.899634
   30.708095   51.913581
   30.720400   51.923525
   30.745204   51.931038
   30.769593   51.929900
   30.762021   51.947983
   30.770720   51.963225
   30.792278   51.977286
   30.848107   51.998422
   30.860152   52.018380
   30.891120   52.033499
   30.895873   52.054126
   30.889222   52.068798
   30.890668   52.079789
   30.914245   52.105140
   30.926456   52.112542
   30.965278   52.117666
   30.983885   52.114708
   30.998225   52.107757
   31.062567   52.117431
   31.088273   52.117334
   31.123130   52.129113
   31.146363   52.129948
   31.172493   52.121008
   31.190311   52.102569
   31.214881   52.100069
   31.242611   52.092303
   31.253539   52.084167
   31.258819   52.072214
   31.266642   52.073835
   31.270182   52.078471
   31.271026   52.096662
   31.286557   52.118567
   31.297145   52.127066
   31.334054   52.135518
   31.337356   52.144377
   31.347390   52.153616
   31.383535   52.166763
   31.434149   52.170507
   31.475068   52.163409
   31.494513   52.148120
   31.521854   52.152267
   31.610845   52.141388
   31.667189   52.143689
   31.736834   52.130177
   31.768420   52.138824
   31.799976   52.138084
   31.818865   52.130840
   31.841375   52.136984
   31.879452   52.136604
   31.922420   52.126689
   31.980351   52.103291
   31.997757   52.088473
   32.003546   52.077209
   32.037640   52.074397
   32.066697   52.063944
   32.084177   52.070445
   32.101841   52.072753
   32.113474   52.086069
   32.128467   52.093611
   32.146435   52.098225
   32.181492   52.099673
   32.206529   52.111870
   32.239385   52.116771
   32.250615   52.121613
   32.262089   52.138725
   32.280124   52.146412
   32.284067   52.168968
   32.295414   52.187435
   32.282306   52.209826
   32.283024   52.231449
   32.312005   52.260756
   32.328175   52.269142
   32.320995   52.294457
   32.309096   52.312090
   32.309731   52.322916
   32.323537   52.346006
   32.362569   52.363234
   32.410232   52.364571
   32.426646   52.360793
   32.444057   52.352251
   32.462647   52.353984
   32.480421   52.350865
   32.518039   52.355079
   32.563163   52.352749
   32.580908   52.345929
   32.599012   52.331832
   32.629845   52.328104
   32.714369   52.286228
   32.748057   52.294048
   32.778518   52.290210
   32.795675   52.292496
   32.812898   52.303167
   32.833918   52.306396
   32.897540   52.299911
   32.911842   52.295048
   32.921728   52.287751
   32.940032   52.297163
   32.958355   52.300662
   32.972674   52.310634
   32.987838   52.314585
   33.002483   52.323324
   33.025583   52.347491
   33.037958   52.354259
   33.061685   52.357876
   33.089343   52.352264
   33.105341   52.365320
   33.126671   52.372230
   33.129879   52.383230
   33.138874   52.391950
   33.176334   52.405536
   33.209706   52.405171
   33.308699   52.381873
   33.328721   52.381755
   33.352435   52.393962
   33.371519   52.398178
   33.402549   52.396870
   33.431931   52.389022
   33.452409   52.375574
   33.471068   52.350977
   33.464590   52.324693
   33.445037   52.305497
   33.443691   52.295442
   33.430590   52.276443
   33.427722   52.259992
   33.411489   52.244090
   33.406826   52.222151
   33.387458   52.203967
   33.373800   52.196687
   33.366806   52.183090
   33.379947   52.164786
   33.443654   52.144475
   33.479321   52.113856
   33.509132   52.115740
   33.534796   52.105061
   33.543481   52.090466
   33.542304   52.032844
   33.535754   52.023091
   33.520122   52.014303
   33.503980   52.011298
   33.474460   52.011428
   33.438897   51.999352
   33.416819   51.999640
   33.388454   52.009663
   33.391534   52.002940
   33.421649   51.985775
   33.437601   51.967681
   33.438238   51.951351
   33.425973   51.936137
   33.397910   51.924743
   33.388679   51.913863
   33.375434   51.907016
   33.318466   51.902678
   33.302458   51.897376
   33.268903   51.892205
   33.242909   51.881336
   33.221333   51.877809
   33.206409   51.864408
   33.175671   51.854385
   33.174036   51.850284
   33.186974   51.833476
   33.189005   51.810466
   33.177993   51.796886
   33.153201   51.787517
   33.139716   51.768512
   33.140824   51.761033
   33.174238   51.742259
   33.187494   51.725363
   33.201655   51.718655
   33.212497   51.705851
   33.207355   51.672828
   33.190131   51.657091
   33.197244   51.645494
   33.197603   51.621867
   33.216252   51.609471
   33.241859   51.604698
   33.254885   51.598210
   33.264167   51.586576
   33.264597   51.575683
   33.256175   51.563569
   33.226651   51.545948
   33.236571   51.525116
   33.231465   51.495618
   33.218856   51.485213
   33.178650   51.470509
   33.176537   51.457709
   33.163562   51.446034
   33.160790   51.438370
   33.171197   51.431129
   33.177159   51.421411
   33.180107   51.390918
   33.167233   51.365754
   33.123983   51.340864
   33.111474   51.250907
   33.103400   51.238796
   33.081788   51.223690
   33.084974   51.206301
   33.081995   51.195760
   33.066222   51.183299
   33.047826   51.175580
   33.025530   51.172666
   33.018090   51.165448
   33.031884   51.154962
   33.035939   51.142413
   33.032241   51.132400
   33.013505   51.111282
   33.058299   51.106665
   33.077850   51.095779
   33.100520   51.087946
   33.110879   51.076503
   33.114174   51.059316
   33.125166   51.048401
   33.127630   51.033144
   33.146657   51.026950
   33.163299   51.014907
   33.173406   50.987810
   33.197206   50.989391
   33.216922   50.986669
   33.230889   50.980771
   33.240208   50.971962
   33.243464   50.961582
   33.240859   50.925129
   33.252741   50.908164
   33.253625   50.897483
   33.242817   50.880475
   33.226518   50.870197
   33.228055   50.845644
   33.222470   50.834344
   33.207932   50.821199
   33.212361   50.799866
   33.206864   50.785573
   33.216805   50.774132
   33.255160   50.760217
   33.273841   50.749383
   33.281699   50.739883
   33.282396   50.726554
   33.269958   50.712676
   33.237723   50.699046
   33.194291   50.692070
   33.187893   50.646580
   33.179178   50.636893
   33.160753   50.625841
   33.156919   50.616029
   33.167281   50.600274
   33.162748   50.585046
   33.149815   50.572653
   33.134515   50.566406
   33.117460   50.553516
   33.101598   50.535704
   33.107725   50.523437
   33.105265   50.510133
   33.058820   50.474100
   33.052029   50.455886
   33.032733   50.445814
   33.011664   50.443840
   32.997399   50.426381
   32.960670   50.407795
   32.956566   50.397638
   32.946963   50.389317
   32.914820   50.379316
   32.860529   50.352086
   32.842411   50.348187
   32.828213   50.330735
   32.815990   50.323593
   32.787825   50.319748
   32.719888   50.329234
   32.654687   50.333277
   32.586982   50.327680
   32.570423   50.329399
   32.538545   50.319283
   32.515189   50.319507
   32.495910   50.326119
   32.482380   50.337396
   32.454474   50.350468
   32.445775   50.359729
   32.442217   50.371161
   32.407340   50.380120
   32.385520   50.380510
   32.361315   50.387416
   32.348629   50.379908
   32.333440   50.376318
   32.323697   50.362054
   32.304053   50.351932
   32.290163   50.331521
   32.272582   50.322296
   32.248331   50.320113
   32.214855   50.323621
   32.199364   50.328455
   32.146914   50.321385
   32.126122   50.323567
   32.109454   50.331681
   32.100094   50.345160
   32.060628   50.349198
   32.043134   50.356339
   32.034299   50.365285
   32.031558   50.375219
   32.006061   50.391323
   31.998111   50.416112
   31.988980   50.423998
   31.983902   50.436847
   31.953514   50.442436
   31.937303   50.451481
   31.922155   50.477716
   31.921173   50.490869
   31.932926   50.505542
   31.955928   50.515623
   31.933410   50.519723
   31.919658   50.526248
   31.907896   50.544910
   31.881340   50.565807
   31.876986   50.576459
   31.848519   50.591382
   31.831193   50.581599
   31.822793   50.550859
   31.808422   50.538059
   31.785195   50.532388
   31.703541   50.534557
   31.688478   50.527896
   31.671818   50.506849
   31.643882   50.495079
   31.627342   50.493776
   31.590284   50.498106
   31.564859   50.491960
   31.530989   50.495604
   31.507471   50.493865
   31.484713   50.487839
   31.466287   50.476727
   31.445603   50.473230
   31.399241   50.480142
   31.386075   50.487040
   31.378584   50.495931
   31.360263   50.481436
   31.345823   50.475690
   31.328968   50.473919
   31.308533   50.477655
   31.293422   50.487079
   31.280548   50.507278
   31.235537   50.517731
   31.218095   50.528470
   31.211385   50.542661
   31.165234   50.551488
   31.127708   50.576756
   31.122419   50.589986
   31.124916   50.615884
   31.139157   50.628743
   31.159223   50.634247
   31.155791   50.644573
   31.159706   50.659856
   31.175654   50.677411
   31.156789   50.686049
   31.147831   50.700219
   31.134474   50.705818
   31.114320   50.721620
   31.092587   50.729856
   31.082219   50.738884
   31.031441   50.734255
   31.004012   50.736885
   30.953287   50.729914
   30.913833   50.734375
   30.891435   50.721405
   30.869560   50.717607
   30.834506   50.716878
   30.811521   50.722294
   30.792388   50.740227
   30.773038   50.747516
   30.732477   50.744613
   30.717294   50.748247
   30.704138   50.755526
   30.693313   50.772373
   30.692438   50.787019
   30.697337   50.796383
   30.691953   50.815651
   30.703800   50.833899
   30.727662   50.844320
   30.728846   50.858064
   30.702319   50.870732
   30.664466   50.877725
   30.648755   50.886390
   30.631442   50.911658
   30.619097   50.939857
   30.603011   50.956511
   30.604070   50.982325
   30.580703   50.986452
   30.564774   50.997301
   30.497182   50.992030
   30.477599   50.995682
   30.465255   51.002469
   30.457827   51.011663
   30.457412   51.029697
   30.449819   51.043190
   30.458093   51.064926
   30.444640   51.075850
   30.439362   51.087739
   30.445284   51.105840
END
END
