chernivtsi
1
   24.901765   47.996685
   24.903232   48.000057
   24.906221   48.002158
   24.906287   48.003452
   24.907398   48.005530
   24.910823   48.008951
   24.908376   48.010179
   24.906940   48.011728
   24.906200   48.014672
   24.905184   48.015942
   24.904608   48.017587
   24.905083   48.023778
   24.904694   48.026625
   24.905058   48.028155
   24.905894   48.029434
   24.907670   48.030801
   24.913412   48.033546
   24.914182   48.035443
   24.916077   48.037109
   24.917755   48.037907
   24.921600   48.038937
   24.925651   48.041972
   24.930880   48.044224
   24.932755   48.046495
   24.932428   48.048907
   24.933004   48.050198
   24.934121   48.051318
   24.939812   48.054524
   24.943609   48.056031
   24.944643   48.057191
   24.951514   48.062347
   24.953498   48.063442
   24.956041   48.067323
   24.958231   48.069874
   24.961621   48.072178
   24.964730   48.074841
   24.966467   48.075602
   24.968810   48.076115
   24.970795   48.077819
   24.975888   48.080033
   24.980989   48.081409
   24.983022   48.084794
   24.986775   48.087286
   24.988388   48.089092
   24.988526   48.089602
   24.984806   48.091304
   24.983082   48.092637
   24.982123   48.094587
   24.981968   48.096063
   24.979388   48.099147
   24.979087   48.101383
   24.975607   48.104157
   24.973119   48.108490
   24.972696   48.109796
   24.972782   48.111621
   24.974580   48.114597
   24.982958   48.120221
   24.988512   48.123510
   24.990863   48.124106
   24.999367   48.124632
   25.004733   48.124131
   25.008006   48.123174
   25.011188   48.121547
   25.014802   48.118306
   25.024375   48.115202
   25.029309   48.114462
   25.031557   48.114951
   25.032800   48.115557
   25.032914   48.116287
   25.030494   48.119133
   25.029690   48.120936
   25.029423   48.123215
   25.029751   48.125216
   25.031653   48.128510
   25.035226   48.131586
   25.037998   48.133008
   25.040952   48.133815
   25.048386   48.134839
   25.054152   48.134916
   25.059603   48.133752
   25.060947   48.134427
   25.061378   48.135693
   25.060861   48.137587
   25.061190   48.140034
   25.065265   48.145242
   25.062773   48.146993
   25.059042   48.151671
   25.058727   48.153560
   25.059198   48.156460
   25.059920   48.158081
   25.061277   48.159783
   25.062942   48.161113
   25.068413   48.163665
   25.072101   48.164464
   25.075455   48.164548
   25.078775   48.165156
   25.081405   48.165014
   25.078484   48.167712
   25.075820   48.171183
   25.075395   48.172972
   25.076117   48.177197
   25.076706   48.178878
   25.078150   48.180700
   25.081322   48.182697
   25.085139   48.185728
   25.087309   48.186984
   25.094653   48.189867
   25.096374   48.190278
   25.099390   48.190537
   25.106664   48.189593
   25.111330   48.189919
   25.115332   48.189321
   25.121393   48.186986
   25.127307   48.182596
   25.129052   48.182304
   25.131041   48.183294
   25.131547   48.183778
   25.131629   48.186100
   25.131184   48.190483
   25.132287   48.193190
   25.129562   48.194761
   25.124330   48.199152
   25.120704   48.201136
   25.116175   48.201935
   25.113306   48.203040
   25.109884   48.205517
   25.107606   48.209286
   25.107378   48.211415
   25.108982   48.215049
   25.110706   48.216523
   25.112284   48.217287
   25.105072   48.218862
   25.102868   48.219728
   25.100990   48.221007
   25.099647   48.223031
   25.099426   48.224573
   25.099727   48.226027
   25.101020   48.227852
   25.103691   48.229446
   25.105487   48.229962
   25.107375   48.230111
   25.115424   48.234229
   25.119666   48.235613
   25.120557   48.237362
   25.121683   48.238495
   25.127221   48.241432
   25.130332   48.242200
   25.135106   48.246167
   25.137552   48.248876
   25.141615   48.250631
   25.144976   48.251297
   25.148787   48.251507
   25.152573   48.252566
   25.155623   48.252853
   25.161662   48.252321
   25.170278   48.250404
   25.172992   48.251110
   25.176985   48.251462
   25.178403   48.253215
   25.180033   48.254386
   25.188459   48.258014
   25.189595   48.259998
   25.191811   48.261653
   25.191460   48.265983
   25.192442   48.268413
   25.195721   48.271101
   25.199492   48.272553
   25.199974   48.274388
   25.202054   48.278461
   25.204400   48.282101
   25.207589   48.283970
   25.210074   48.284593
   25.211795   48.286213
   25.214580   48.287339
   25.215914   48.288540
   25.218391   48.289821
   25.223565   48.293447
   25.226816   48.294407
   25.227733   48.297450
   25.227731   48.300287
   25.228802   48.301913
   25.231014   48.307658
   25.232654   48.310406
   25.235805   48.313099
   25.236760   48.315561
   25.238207   48.317700
   25.240090   48.318941
   25.245737   48.320719
   25.249635   48.320671
   25.253130   48.319697
   25.255550   48.322378
   25.259999   48.324535
   25.259523   48.325812
   25.259586   48.327130
   25.260214   48.328380
   25.261352   48.329455
   25.263492   48.330463
   25.267054   48.331271
   25.270714   48.331364
   25.271652   48.332603
   25.271928   48.334646
   25.273156   48.336145
   25.273298   48.339463
   25.276932   48.344683
   25.280777   48.347689
   25.283917   48.349164
   25.285763   48.349714
   25.290270   48.350322
   25.290661   48.352214
   25.291899   48.353933
   25.297540   48.358491
   25.300432   48.359909
   25.302111   48.361610
   25.304410   48.363240
   25.305430   48.365467
   25.307150   48.366817
   25.308417   48.369078
   25.310245   48.370506
   25.311929   48.371247
   25.314112   48.371685
   25.316395   48.372891
   25.320998   48.374175
   25.322604   48.375894
   25.324723   48.377003
   25.327361   48.377848
   25.333302   48.378785
   25.337608   48.380845
   25.339698   48.383099
   25.341664   48.384191
   25.345415   48.384759
   25.350600   48.386885
   25.354806   48.387990
   25.358162   48.388143
   25.362562   48.388946
   25.364243   48.388928
   25.369424   48.391571
   25.375136   48.395166
   25.379605   48.396606
   25.383889   48.397508
   25.389456   48.397750
   25.391416   48.397538
   25.396086   48.396145
   25.398880   48.396645
   25.401521   48.398608
   25.404340   48.399756
   25.407329   48.400207
   25.410490   48.400159
   25.412699   48.399804
   25.416558   48.398584
   25.418589   48.397459
   25.419831   48.398552
   25.422766   48.400228
   25.427125   48.401449
   25.429841   48.401487
   25.430710   48.403610
   25.432961   48.405202
   25.443400   48.407856
   25.446448   48.407831
   25.450619   48.407034
   25.453110   48.405955
   25.454665   48.404381
   25.462869   48.403922
   25.465459   48.403998
   25.467675   48.404550
   25.470856   48.404777
   25.473620   48.405808
   25.476100   48.406093
   25.477968   48.405894
   25.483836   48.404241
   25.484657   48.404249
   25.487793   48.406275
   25.491094   48.406926
   25.495158   48.406508
   25.497513   48.405768
   25.504625   48.405414
   25.513262   48.404430
   25.515684   48.403738
   25.517365   48.402826
   25.520808   48.402554
   25.522743   48.402061
   25.524753   48.400915
   25.525993   48.399635
   25.529056   48.398447
   25.532081   48.396378
   25.534654   48.396262
   25.537524   48.395356
   25.541989   48.392252
   25.543300   48.389691
   25.548030   48.389102
   25.552264   48.387383
   25.556602   48.386647
   25.559227   48.385532
   25.565561   48.387377
   25.567656   48.387511
   25.570846   48.387202
   25.574720   48.385430
   25.576638   48.383573
   25.577232   48.382203
   25.579629   48.384538
   25.581345   48.385245
   25.583906   48.385777
   25.588875   48.385595
   25.595892   48.383853
   25.605567   48.382720
   25.607284   48.383089
   25.609819   48.384494
   25.612497   48.385382
   25.610803   48.386620
   25.609214   48.388390
   25.608183   48.391078
   25.609040   48.393775
   25.611990   48.395892
   25.610640   48.398282
   25.610560   48.400610
   25.613095   48.407488
   25.608311   48.405799
   25.606300   48.405676
   25.602826   48.406137
   25.599739   48.407419
   25.596499   48.408161
   25.594625   48.409176
   25.592962   48.410716
   25.592106   48.412784
   25.592766   48.415446
   25.594584   48.417228
   25.598127   48.419139
   25.601741   48.425565
   25.599667   48.426774
   25.598335   48.428802
   25.598599   48.431010
   25.600854   48.433459
   25.598883   48.440432
   25.596901   48.443341
   25.596010   48.445954
   25.596552   48.448805
   25.599674   48.452529
   25.600209   48.453975
   25.598899   48.458176
   25.599953   48.461218
   25.599200   48.463209
   25.598089   48.463954
   25.594295   48.467892
   25.593246   48.469810
   25.591696   48.471564
   25.591262   48.473255
   25.592124   48.476192
   25.595041   48.480211
   25.594277   48.484340
   25.596071   48.490033
   25.593638   48.495346
   25.592681   48.501242
   25.599671   48.515758
   25.602367   48.527086
   25.601879   48.529196
   25.600121   48.530723
   25.599418   48.532017
   25.599639   48.534339
   25.597465   48.535399
   25.595790   48.536917
   25.593156   48.542375
   25.593187   48.543726
   25.594263   48.545865
   25.594454   48.547691
   25.596639   48.550325
   25.592263   48.555835
   25.591498   48.557557
   25.591794   48.559342
   25.593467   48.561271
   25.591539   48.563853
   25.591264   48.565970
   25.591815   48.567197
   25.594305   48.570152
   25.592173   48.572026
   25.589567   48.575681
   25.586973   48.582046
   25.581438   48.587747
   25.580753   48.589029
   25.580777   48.590839
   25.583279   48.597797
   25.584065   48.605325
   25.581604   48.620364
   25.582490   48.622690
   25.578784   48.627892
   25.578509   48.634326
   25.579028   48.636337
   25.580330   48.638024
   25.586193   48.641839
   25.593488   48.649214
   25.602999   48.656896
   25.606041   48.658691
   25.625858   48.668365
   25.629980   48.670707
   25.632830   48.671476
   25.634571   48.673323
   25.637469   48.674418
   25.639466   48.674572
   25.645990   48.673984
   25.655522   48.671588
   25.659169   48.671220
   25.665168   48.671121
   25.680465   48.669010
   25.684578   48.668838
   25.694337   48.669259
   25.703677   48.669152
   25.709183   48.668696
   25.714295   48.667356
   25.718208   48.665517
   25.722572   48.662337
   25.725724   48.659157
   25.727450   48.656900
   25.729860   48.652139
   25.731879   48.640874
   25.735723   48.637956
   25.737871   48.637801
   25.739073   48.638037
   25.740042   48.639465
   25.739955   48.644710
   25.740433   48.648314
   25.742665   48.653507
   25.744625   48.656789
   25.752963   48.667089
   25.756202   48.669610
   25.762260   48.673556
   25.767767   48.676680
   25.774252   48.679145
   25.780103   48.680246
   25.783176   48.680073
   25.787195   48.679261
   25.794820   48.676487
   25.801907   48.674794
   25.806038   48.673171
   25.812515   48.668961
   25.825574   48.655577
   25.832561   48.646336
   25.841148   48.638888
   25.845619   48.633199
   25.849406   48.631109
   25.855731   48.626770
   25.858816   48.624185
   25.861116   48.621653
   25.862736   48.617977
   25.863122   48.615657
   25.862864   48.613417
   25.860900   48.609451
   25.855154   48.603929
   25.854299   48.602634
   25.854215   48.601048
   25.863336   48.602175
   25.872018   48.604316
   25.876600   48.604283
   25.881990   48.602710
   25.887338   48.599932
   25.902528   48.592976
   25.906533   48.591835
   25.909772   48.591407
   25.914222   48.591338
   25.920958   48.591899
   25.925870   48.593040
   25.929599   48.594586
   25.936534   48.599235
   25.948032   48.610494
   25.950226   48.611639
   25.964166   48.621732
   25.968614   48.623974
   25.973541   48.625257
   25.979353   48.625492
   25.987925   48.624418
   25.993986   48.622733
   26.001500   48.619918
   26.011926   48.614794
   26.014705   48.614114
   26.017191   48.614192
   26.019654   48.616803
   26.022851   48.621234
   26.023149   48.622811
   26.022069   48.633836
   26.022624   48.639078
   26.023490   48.641230
   26.025656   48.644735
   26.028559   48.648615
   26.031920   48.651147
   26.034581   48.652255
   26.039482   48.653420
   26.046502   48.653578
   26.050889   48.652831
   26.057694   48.650688
   26.062191   48.648034
   26.063816   48.646535
   26.065750   48.643775
   26.068462   48.638438
   26.069122   48.635965
   26.069108   48.632349
   26.067623   48.628023
   26.065535   48.624376
   26.065203   48.622333
   26.066885   48.618393
   26.071098   48.613043
   26.072505   48.608893
   26.072598   48.607236
   26.071448   48.603601
   26.069611   48.601050
   26.065937   48.597900
   26.063258   48.596412
   26.062343   48.593567
   26.060971   48.591816
   26.058051   48.589525
   26.050975   48.586414
   26.062809   48.573353
   26.073810   48.567703
   26.080374   48.563313
   26.085973   48.558826
   26.088739   48.555818
   26.092457   48.550447
   26.095423   48.542792
   26.099658   48.542771
   26.102754   48.543218
   26.117042   48.550342
   26.120582   48.555761
   26.120830   48.558420
   26.119889   48.562185
   26.118552   48.565166
   26.116213   48.568527
   26.109130   48.572553
   26.105209   48.574316
   26.101713   48.576780
   26.099949   48.578633
   26.097860   48.582867
   26.097405   48.590087
   26.096384   48.591262
   26.091513   48.594596
   26.090225   48.596252
   26.089392   48.598473
   26.089183   48.602176
   26.090400   48.609389
   26.091529   48.612358
   26.094421   48.616141
   26.098090   48.619171
   26.101073   48.621031
   26.105120   48.622553
   26.112696   48.624270
   26.119747   48.624441
   26.125169   48.622898
   26.129453   48.620493
   26.146870   48.604449
   26.150957   48.599732
   26.152205   48.593330
   26.149254   48.571383
   26.150882   48.562364
   26.151262   48.556964
   26.153866   48.546279
   26.156216   48.542345
   26.158781   48.539420
   26.163624   48.536075
   26.166979   48.534302
   26.171518   48.532451
   26.179660   48.532049
   26.187547   48.530306
   26.191643   48.530096
   26.198360   48.530318
   26.203777   48.531634
   26.212154   48.532247
   26.228772   48.535770
   26.250542   48.542033
   26.261218   48.544057
   26.265582   48.544449
   26.269288   48.544378
   26.276559   48.543278
   26.278883   48.542635
   26.282152   48.541199
   26.284546   48.539427
   26.287208   48.536611
   26.300273   48.516047
   26.301453   48.514701
   26.303314   48.513671
   26.305379   48.513234
   26.317376   48.520041
   26.320821   48.521143
   26.324641   48.521331
   26.330763   48.520617
   26.343291   48.514602
   26.345195   48.513952
   26.354144   48.512036
   26.359931   48.514117
   26.362541   48.515614
   26.371907   48.524912
   26.379458   48.533968
   26.382811   48.536212
   26.389056   48.538964
   26.395138   48.540451
   26.404285   48.541784
   26.415086   48.541582
   26.425785   48.539927
   26.432297   48.539693
   26.434853   48.540199
   26.445900   48.544286
   26.467787   48.550167
   26.475427   48.551278
   26.479264   48.551380
   26.483591   48.550965
   26.488903   48.549790
   26.492813   48.548294
   26.496557   48.545913
   26.498560   48.543896
   26.505632   48.533082
   26.509576   48.522482
   26.515542   48.515362
   26.531613   48.499273
   26.539835   48.490432
   26.544510   48.484183
   26.551282   48.473797
   26.559371   48.465389
   26.560741   48.460575
   26.564838   48.459769
   26.570967   48.457755
   26.575669   48.457059
   26.584650   48.456189
   26.594777   48.455639
   26.600967   48.455785
   26.609695   48.457303
   26.614942   48.459523
   26.618534   48.463293
   26.619156   48.464778
   26.619233   48.465812
   26.618295   48.468579
   26.609625   48.482846
   26.604307   48.489740
   26.601086   48.495751
   26.600448   48.498071
   26.600227   48.502796
   26.601608   48.505773
   26.602828   48.507037
   26.605643   48.508956
   26.609327   48.510691
   26.614138   48.512335
   26.621322   48.513394
   26.625592   48.513338
   26.632972   48.511686
   26.636156   48.510464
   26.642040   48.506934
   26.657782   48.494374
   26.664737   48.491231
   26.670510   48.490089
   26.673575   48.489927
   26.696071   48.490388
   26.700908   48.491746
   26.703130   48.492719
   26.705133   48.493850
   26.706420   48.495834
   26.706578   48.498291
   26.705494   48.500471
   26.703504   48.503194
   26.699976   48.506399
   26.694394   48.509757
   26.681582   48.516373
   26.677971   48.518911
   26.675218   48.521482
   26.673714   48.523710
   26.672369   48.526764
   26.671363   48.532841
   26.669762   48.535769
   26.668436   48.536490
   26.664579   48.537104
   26.652851   48.536031
   26.641854   48.532620
   26.637073   48.531743
   26.627085   48.531985
   26.620773   48.533377
   26.618539   48.534460
   26.615407   48.536806
   26.613015   48.539610
   26.611673   48.541711
   26.611149   48.544212
   26.611453   48.548578
   26.612845   48.552625
   26.617481   48.557776
   26.620626   48.559824
   26.627673   48.563293
   26.631315   48.564644
   26.638579   48.566077
   26.642962   48.566503
   26.648070   48.566485
   26.663441   48.564336
   26.670154   48.561668
   26.679561   48.556459
   26.690310   48.547797
   26.706094   48.539051
   26.712413   48.537006
   26.718657   48.535658
   26.724299   48.537164
   26.729832   48.539457
   26.734074   48.542361
   26.736036   48.553071
   26.736303   48.556536
   26.734349   48.561361
   26.732050   48.564398
   26.730582   48.565673
   26.721156   48.569545
   26.715839   48.573763
   26.713756   48.577608
   26.712717   48.582416
   26.713746   48.586026
   26.715890   48.588781
   26.717122   48.589731
   26.721448   48.591386
   26.724944   48.591839
   26.728900   48.591779
   26.732472   48.591499
   26.739027   48.590122
   26.748116   48.586362
   26.753258   48.582761
   26.755019   48.580345
   26.756082   48.577731
   26.760751   48.563414
   26.761014   48.560299
   26.762676   48.556837
   26.766689   48.552185
   26.768013   48.551554
   26.771205   48.551237
   26.774674   48.551529
   26.779446   48.552644
   26.781447   48.554581
   26.787261   48.562700
   26.787793   48.567234
   26.787420   48.569215
   26.784893   48.572667
   26.778357   48.578851
   26.773901   48.584969
   26.771917   48.589305
   26.771647   48.592958
   26.772203   48.595292
   26.774173   48.599382
   26.775620   48.601025
   26.778624   48.603429
   26.788806   48.609970
   26.798184   48.613392
   26.808789   48.614952
   26.816993   48.614491
   26.823965   48.612470
   26.828957   48.608751
   26.829997   48.607617
   26.831540   48.604401
   26.832316   48.600934
   26.831452   48.596845
   26.827020   48.588612
   26.826389   48.585613
   26.826890   48.582582
   26.841870   48.565120
   26.846287   48.560673
   26.850143   48.557856
   26.856765   48.553756
   26.868712   48.548933
   26.877341   48.547151
   26.879074   48.547033
   26.885322   48.547737
   26.891823   48.550078
   26.897819   48.553157
   26.900951   48.556662
   26.911168   48.573138
   26.916419   48.577779
   26.920961   48.580606
   26.923249   48.581373
   26.930452   48.582549
   26.945951   48.580023
   26.951593   48.579767
   26.961514   48.580219
   26.963229   48.580567
   26.965514   48.582036
   26.967014   48.584355
   26.968848   48.589450
   26.971567   48.593339
   26.974488   48.594913
   26.980396   48.595547
   26.988586   48.595016
   26.990452   48.594398
   26.991949   48.593429
   26.995926   48.588722
   26.995997   48.583088
   26.997314   48.579491
   27.000446   48.577332
   27.011383   48.574956
   27.034730   48.570962
   27.050051   48.568946
   27.061432   48.566606
   27.069558   48.564399
   27.088909   48.561877
   27.102198   48.561615
   27.105340   48.561977
   27.113186   48.564248
   27.125553   48.570221
   27.128325   48.572692
   27.131316   48.576463
   27.137828   48.580425
   27.144842   48.582738
   27.157184   48.585761
   27.169919   48.587614
   27.174790   48.587818
   27.180311   48.587238
   27.189207   48.585089
   27.212720   48.576337
   27.230383   48.571533
   27.244343   48.572172
   27.248742   48.572826
   27.250957   48.574465
   27.253027   48.580733
   27.253216   48.582513
   27.252246   48.585714
   27.246796   48.593742
   27.238427   48.602642
   27.237428   48.607519
   27.237609   48.612003
   27.238032   48.613448
   27.241178   48.617514
   27.252915   48.626167
   27.254547   48.626813
   27.259617   48.627834
   27.267241   48.628116
   27.279292   48.626652
   27.285810   48.625125
   27.289394   48.623738
   27.295141   48.620075
   27.300723   48.615568
   27.305746   48.609970
   27.308902   48.607727
   27.312459   48.606724
   27.316764   48.606171
   27.322178   48.606328
   27.327890   48.607122
   27.329644   48.607720
   27.332768   48.610041
   27.334835   48.615184
   27.343553   48.628107
   27.346541   48.630906
   27.349394   48.632506
   27.353792   48.633818
   27.358335   48.634399
   27.366594   48.634198
   27.379491   48.632505
   27.388662   48.630866
   27.394586   48.629382
   27.418224   48.621706
   27.425859   48.618757
   27.430747   48.615070
   27.439438   48.612066
   27.443810   48.609466
   27.451686   48.603421
   27.459153   48.595304
   27.463132   48.591740
   27.464428   48.589184
   27.467836   48.585280
   27.471430   48.578954
   27.477681   48.564959
   27.480325   48.560813
   27.486032   48.546758
   27.489074   48.537327
   27.489803   48.525864
   27.488099   48.517341
   27.485335   48.508118
   27.492958   48.499447
   27.497789   48.492188
   27.503161   48.486790
   27.518420   48.476610
   27.522355   48.474755
   27.531195   48.473664
   27.533045   48.473166
   27.535024   48.471984
   27.536171   48.470382
   27.536373   48.469053
   27.535987   48.467741
   27.531337   48.461550
   27.529833   48.460714
   27.524320   48.458904
   27.508343   48.451566
   27.505412   48.450805
   27.502915   48.450690
   27.491828   48.453401
   27.477315   48.448599
   27.471644   48.445538
   27.468740   48.432737
   27.466226   48.427741
   27.455950   48.411627
   27.454706   48.410207
   27.453111   48.407058
   27.450989   48.405471
   27.448331   48.404650
   27.443412   48.404614
   27.440069   48.405027
   27.433599   48.406539
   27.431377   48.407430
   27.428554   48.406795
   27.424993   48.406868
   27.422242   48.407327
   27.417861   48.408753
   27.410964   48.406715
   27.406835   48.406154
   27.402690   48.406444
   27.397719   48.407948
   27.392199   48.406158
   27.388978   48.405443
   27.386990   48.405432
   27.384327   48.406093
   27.381555   48.406350
   27.378084   48.407875
   27.374839   48.410190
   27.372944   48.412009
   27.371969   48.413879
   27.370194   48.424639
   27.370709   48.427190
   27.369575   48.429002
   27.369573   48.430630
   27.368099   48.436841
   27.365030   48.437151
   27.359782   48.438826
   27.358307   48.437313
   27.356150   48.436334
   27.353601   48.435975
   27.350629   48.436147
   27.348060   48.436868
   27.345156   48.439045
   27.343982   48.439470
   27.341606   48.437406
   27.339902   48.436767
   27.337996   48.436482
   27.324497   48.438274
   27.321790   48.431678
   27.318725   48.427999
   27.320676   48.423725
   27.320514   48.421488
   27.319231   48.419908
   27.303795   48.407783
   27.293145   48.370334
   27.292241   48.369122
   27.290843   48.368144
   27.287277   48.367093
   27.284618   48.367165
   27.281160   48.368150
   27.263875   48.375051
   27.251578   48.371088
   27.242551   48.370420
   27.237779   48.368696
   27.235799   48.368468
   27.233806   48.368641
   27.231977   48.369200
   27.230475   48.370095
   27.211018   48.385747
   27.208230   48.385183
   27.199168   48.384615
   27.197308   48.385017
   27.193897   48.386447
   27.190807   48.388579
   27.173098   48.377636
   27.171203   48.376810
   27.163158   48.374500
   27.159770   48.374374
   27.152728   48.372286
   27.146772   48.371692
   27.142029   48.370285
   27.138744   48.369972
   27.136332   48.370374
   27.120775   48.375169
   27.118042   48.376822
   27.098465   48.396828
   27.094185   48.400006
   27.081857   48.410378
   27.080489   48.413135
   27.078733   48.429183
   27.075360   48.428700
   27.073822   48.427398
   27.071672   48.426471
   27.071129   48.422122
   27.070267   48.420101
   27.068302   48.418418
   27.064714   48.417108
   27.061944   48.416803
   27.058549   48.417141
   27.053973   48.418715
   27.050806   48.420367
   27.048006   48.420003
   27.045504   48.420286
   27.041684   48.419223
   27.035759   48.419039
   27.044791   48.414060
   27.046190   48.412708
   27.046796   48.411345
   27.046804   48.410077
   27.045499   48.407875
   27.049635   48.405524
   27.051036   48.404130
   27.051531   48.402912
   27.051869   48.396511
   27.052609   48.392708
   27.055629   48.390065
   27.056562   48.388467
   27.056541   48.386750
   27.053249   48.375350
   27.051396   48.371723
   27.049488   48.370480
   27.047663   48.369928
   27.045678   48.369760
   27.043706   48.369989
   27.037606   48.372222
   27.034900   48.373719
   27.030732   48.375380
   27.026135   48.378241
   27.024012   48.377498
   27.021369   48.377089
   27.015368   48.377468
   27.007698   48.376155
   27.007550   48.371468
   27.008808   48.364315
   27.008368   48.362600
   27.006528   48.360817
   27.003522   48.359796
   26.999775   48.356070
   26.998105   48.355342
   26.996190   48.354972
   26.993547   48.355087
   26.971262   48.359104
   26.946445   48.364372
   26.940168   48.365232
   26.940214   48.363547
   26.939596   48.362289
   26.938460   48.361204
   26.935447   48.359537
   26.933656   48.358984
   26.931703   48.358803
   26.929756   48.359007
   26.927979   48.359580
   26.890336   48.380078
   26.888954   48.381109
   26.887870   48.383285
   26.888625   48.387574
   26.891736   48.395896
   26.892635   48.397267
   26.886321   48.403081
   26.883987   48.407213
   26.876979   48.412332
   26.872523   48.414356
   26.870760   48.413468
   26.865940   48.412119
   26.853965   48.408973
   26.851568   48.408661
   26.826583   48.411499
   26.788355   48.414722
   26.779696   48.414164
   26.773504   48.404353
   26.770842   48.403019
   26.767573   48.402698
   26.763819   48.399499
   26.758025   48.395485
   26.756298   48.394772
   26.754333   48.394434
   26.751014   48.394774
   26.741983   48.398083
   26.733688   48.401661
   26.724045   48.406565
   26.723072   48.406319
   26.718586   48.404556
   26.744715   48.382741
   26.755656   48.371934
   26.758798   48.368371
   26.763615   48.365507
   26.766057   48.363520
   26.767131   48.362270
   26.768365   48.359209
   26.769239   48.358028
   26.778181   48.356006
   26.783683   48.353946
   26.793615   48.349213
   26.804004   48.355400
   26.807117   48.356182
   26.809777   48.356022
   26.811596   48.355451
   26.827862   48.348188
   26.830098   48.346523
   26.832597   48.338555
   26.833756   48.324832
   26.833041   48.322676
   26.831895   48.321585
   26.830374   48.320786
   26.831016   48.319661
   26.834301   48.318897
   26.836456   48.317295
   26.837698   48.314794
   26.837705   48.312400
   26.836851   48.310732
   26.835616   48.309696
   26.833378   48.308769
   26.830850   48.308486
   26.832362   48.304825
   26.832111   48.302587
   26.830761   48.301029
   26.827357   48.298812
   26.822442   48.292260
   26.820502   48.291234
   26.815209   48.289547
   26.797349   48.286883
   26.794097   48.286688
   26.791491   48.287176
   26.787306   48.289018
   26.779481   48.293625
   26.763646   48.298413
   26.761614   48.299583
   26.758364   48.304778
   26.754723   48.311956
   26.754743   48.316132
   26.748596   48.311887
   26.739775   48.308867
   26.736661   48.308394
   26.734758   48.308599
   26.733020   48.309157
   26.731587   48.310021
   26.730577   48.311121
   26.728617   48.315192
   26.728458   48.317016
   26.726872   48.318895
   26.703721   48.342745
   26.699787   48.345324
   26.696443   48.348274
   26.691622   48.353798
   26.691108   48.353602
   26.696481   48.345735
   26.702516   48.328226
   26.702678   48.326936
   26.702287   48.325668
   26.700970   48.324191
   26.698333   48.322977
   26.682479   48.321061
   26.682447   48.316374
   26.681048   48.314314
   26.679542   48.313393
   26.656229   48.302985
   26.656937   48.300683
   26.655951   48.296634
   26.654740   48.294904
   26.647308   48.287477
   26.625322   48.273415
   26.636571   48.261162
   26.636965   48.259407
   26.636407   48.256943
   26.637485   48.253916
   26.637692   48.252084
   26.637499   48.250671
   26.636714   48.249174
   26.636641   48.247152
   26.635998   48.245984
   26.633418   48.243697
   26.629846   48.242390
   26.629563   48.240720
   26.628513   48.239028
   26.626161   48.237321
   26.623986   48.236577
   26.615962   48.235600
   26.610688   48.236274
   26.606526   48.234129
   26.603062   48.233428
   26.599956   48.233343
   26.597510   48.233744
   26.592002   48.235525
   26.588751   48.237556
   26.586604   48.239996
   26.583912   48.239195
   26.580707   48.238913
   26.579741   48.238360
   26.579031   48.235427
   26.577655   48.232661
   26.576240   48.230948
   26.577963   48.228797
   26.579339   48.226011
   26.579752   48.223221
   26.579060   48.218889
   26.576915   48.216304
   26.574259   48.215143
   26.570287   48.214923
   26.568146   48.215216
   26.565470   48.216103
   26.562122   48.216242
   26.557787   48.217143
   26.556811   48.214879
   26.554116   48.212857
   26.547842   48.210655
   26.545713   48.210474
   26.542001   48.210656
   26.539186   48.207710
   26.536312   48.206301
   26.534301   48.205681
   26.531252   48.205355
   26.528024   48.205467
   26.526060   48.205885
   26.524325   48.206677
   26.520130   48.205389
   26.515893   48.205449
   26.514165   48.205985
   26.501961   48.211973
   26.495268   48.213411
   26.491463   48.211197
   26.487051   48.210311
   26.484425   48.209271
   26.482438   48.208967
   26.479144   48.209028
   26.477182   48.209408
   26.475479   48.210163
   26.472654   48.212340
   26.469358   48.211503
   26.469558   48.210145
   26.469062   48.208323
   26.466326   48.205287
   26.462834   48.203473
   26.460235   48.202577
   26.457644   48.201064
   26.452037   48.199593
   26.448664   48.199245
   26.441850   48.199740
   26.438224   48.196570
   26.434605   48.195381
   26.431976   48.195325
   26.426030   48.196447
   26.417126   48.190778
   26.408678   48.185861
   26.406960   48.185217
   26.402953   48.184690
   26.399551   48.185313
   26.391494   48.182972
   26.386747   48.182153
   26.382581   48.182131
   26.379321   48.182647
   26.377406   48.183327
   26.374573   48.184857
   26.372848   48.186599
   26.370924   48.184614
   26.368633   48.183077
   26.363434   48.180934
   26.358546   48.180307
   26.354713   48.180856
   26.353004   48.179742
   26.350499   48.178674
   26.346193   48.178035
   26.344340   48.178031
   26.340748   48.178565
   26.338407   48.178408
   26.335495   48.178718
   26.334799   48.176393
   26.340039   48.167729
   26.341470   48.162604
   26.341458   48.160939
   26.340186   48.157441
   26.332830   48.149800
   26.320966   48.145283
   26.315595   48.141066
   26.307911   48.134136
   26.303841   48.131182
   26.293722   48.116754
   26.291641   48.112370
   26.291214   48.106405
   26.289099   48.099806
   26.284137   48.093544
   26.281775   48.086109
   26.280707   48.084715
   26.280442   48.082687
   26.278614   48.079885
   26.274296   48.076658
   26.272024   48.073858
   26.270543   48.072933
   26.258821   48.068326
   26.235988   48.057791
   26.218630   48.049092
   26.216620   48.040793
   26.215741   48.032863
   26.214695   48.028285
   26.205361   48.006157
   26.199379   47.999290
   26.193890   47.994733
   26.187616   47.990698
   26.173036   47.986536
   26.162144   47.984189
   26.145661   47.981705
   26.138421   47.979755
   26.136408   47.979688
   26.134456   47.980023
   26.128420   47.982681
   26.120698   47.978143
   26.101864   47.973773
   26.098457   47.974058
   26.070502   47.981581
   26.060946   47.983364
   25.981215   47.971401
   25.952665   47.966411
   25.950171   47.966605
   25.941375   47.969073
   25.937312   47.971605
   25.930315   47.972370
   25.919458   47.972901
   25.916195   47.967599
   25.914294   47.963335
   25.912099   47.961312
   25.909859   47.960459
   25.892953   47.956732
   25.890419   47.956823
   25.877730   47.958956
   25.866438   47.963560
   25.860146   47.965666
   25.851703   47.964710
   25.839909   47.962845
   25.831278   47.960291
   25.826247   47.953755
   25.823704   47.951151
   25.822270   47.950248
   25.809837   47.945728
   25.803983   47.943227
   25.794370   47.940116
   25.775753   47.934955
   25.737136   47.937208
   25.734240   47.938111
   25.731090   47.940464
   25.726465   47.939514
   25.724363   47.939440
   25.723169   47.938108
   25.721634   47.937183
   25.719753   47.936612
   25.716698   47.936321
   25.706663   47.937035
   25.701525   47.939374
   25.696752   47.940699
   25.692661   47.939606
   25.690693   47.939537
   25.688746   47.939861
   25.686303   47.939420
   25.684391   47.939426
   25.678075   47.940473
   25.676167   47.941182
   25.667898   47.941950
   25.666166   47.942476
   25.664605   47.943360
   25.661888   47.943951
   25.657346   47.943879
   25.655053   47.944211
   25.649716   47.943931
   25.643724   47.944891
   25.627113   47.944307
   25.593524   47.933993
   25.543337   47.930902
   25.536201   47.930913
   25.534016   47.930481
   25.507029   47.928745
   25.496224   47.927752
   25.443755   47.921711
   25.348819   47.911441
   25.341506   47.909626
   25.332915   47.909188
   25.330841   47.909395
   25.326920   47.909020
   25.313333   47.909650
   25.273935   47.888754
   25.272096   47.888067
   25.266669   47.887792
   25.263508   47.888730
   25.260125   47.887561
   25.256541   47.887421
   25.251811   47.888701
   25.249635   47.889998
   25.246722   47.889251
   25.244014   47.889183
   25.241509   47.889800
   25.239004   47.891015
   25.234805   47.889487
   25.231431   47.881978
   25.229190   47.879547
   25.229715   47.876417
   25.230995   47.874282
   25.231287   47.873001
   25.230728   47.870920
   25.229212   47.868767
   25.228757   47.858650
   25.228158   47.856951
   25.227098   47.855848
   25.224903   47.854636
   25.211992   47.850442
   25.210915   47.848544
   25.209105   47.847077
   25.207241   47.846162
   25.208560   47.844752
   25.209084   47.843511
   25.208771   47.841438
   25.209198   47.840185
   25.209106   47.838578
   25.207724   47.836652
   25.205235   47.835385
   25.203647   47.831806
   25.201078   47.830084
   25.196894   47.829024
   25.194262   47.826474
   25.190273   47.824720
   25.188011   47.824283
   25.186864   47.823228
   25.187565   47.821039
   25.187425   47.819768
   25.185492   47.815166
   25.184175   47.813603
   25.183571   47.812115
   25.182034   47.810713
   25.175891   47.807227
   25.176674   47.805980
   25.177311   47.803259
   25.177726   47.795821
   25.177106   47.794524
   25.174408   47.791606
   25.173726   47.790353
   25.171286   47.787902
   25.169395   47.786827
   25.166847   47.786031
   25.161640   47.784997
   25.153807   47.784611
   25.149698   47.785224
   25.145637   47.782080
   25.140000   47.779534
   25.138387   47.777591
   25.134923   47.775634
   25.130366   47.771353
   25.123301   47.766348
   25.122730   47.763316
   25.123222   47.761823
   25.123007   47.756184
   25.121901   47.753251
   25.119948   47.751384
   25.118197   47.750662
   25.114007   47.749779
   25.106830   47.748777
   25.101976   47.745760
   25.099815   47.744944
   25.097984   47.744708
   25.092402   47.744748
   25.089654   47.742616
   25.085217   47.740954
   25.082756   47.740606
   25.078414   47.740801
   25.067051   47.736225
   25.065043   47.735957
   25.061201   47.736177
   25.059317   47.736734
   25.056858   47.738208
   25.055668   47.736617
   25.051953   47.733242
   25.050676   47.730690
   25.048931   47.729191
   25.048294   47.727543
   25.048145   47.725557
   25.047381   47.724345
   25.045155   47.722229
   25.041589   47.720989
   25.038508   47.720895
   25.028723   47.723018
   25.025164   47.724243
   25.022808   47.726101
   25.020511   47.725913
   25.015185   47.726479
   25.009253   47.728747
   25.008163   47.727849
   25.007778   47.725181
   25.005846   47.723348
   24.999289   47.720983
   24.995413   47.720548
   24.993311   47.720662
   24.990129   47.721418
   24.988452   47.722174
   24.985526   47.724341
   24.982006   47.724955
   24.947600   47.724703
   24.922131   47.722251
   24.920092   47.722548
   24.918286   47.723248
   24.916007   47.725267
   24.914479   47.728656
   24.913893   47.731029
   24.914576   47.733117
   24.916502   47.736334
   24.915933   47.739696
   24.916313   47.742075
   24.917592   47.744257
   24.919766   47.746104
   24.920977   47.747796
   24.921226   47.752264
   24.922784   47.754751
   24.925444   47.756727
   24.925225   47.758364
   24.925812   47.760044
   24.927294   47.761454
   24.929764   47.762461
   24.930444   47.763692
   24.932252   47.765450
   24.931585   47.767883
   24.932514   47.770403
   24.931671   47.772211
   24.931649   47.773555
   24.932217   47.774845
   24.933864   47.776748
   24.934812   47.779146
   24.934719   47.781860
   24.938282   47.789663
   24.938390   47.791955
   24.939914   47.794034
   24.940414   47.795825
   24.942966   47.799484
   24.945303   47.801705
   24.950124   47.803882
   24.950384   47.805900
   24.951319   47.807399
   24.953609   47.809299
   24.954985   47.811276
   24.957784   47.812837
   24.957740   47.814655
   24.958755   47.816323
   24.962755   47.819593
   24.966832   47.821352
   24.967028   47.823636
   24.970031   47.828275
   24.972491   47.829790
   24.975725   47.830519
   24.975621   47.831706
   24.976134   47.833242
   24.977614   47.834901
   24.979261   47.835958
   24.979832   47.839327
   24.980863   47.840572
   24.982393   47.841526
   24.982470   47.845442
   24.982921   47.846703
   24.984311   47.848154
   24.986499   47.849344
   24.987654   47.850690
   24.987776   47.852893
   24.983760   47.854747
   24.980897   47.855043
   24.977386   47.856244
   24.975940   47.857075
   24.974472   47.858948
   24.974301   47.861122
   24.975238   47.862846
   24.977267   47.864335
   24.970190   47.867572
   24.968245   47.870059
   24.966550   47.871419
   24.958493   47.872724
   24.954932   47.874032
   24.952214   47.875669
   24.950830   47.876914
   24.949480   47.879247
   24.949321   47.882845
   24.949916   47.884402
   24.949197   47.884953
   24.946935   47.885249
   24.945093   47.885959
   24.943360   47.887036
   24.942079   47.888591
   24.941475   47.890400
   24.941409   47.892624
   24.939594   47.893896
   24.938300   47.895738
   24.937873   47.899567
   24.938746   47.901199
   24.941567   47.903071
   24.942400   47.904595
   24.943978   47.906137
   24.947183   47.907593
   24.950500   47.907976
   24.951391   47.909513
   24.949860   47.911714
   24.949859   47.913487
   24.950365   47.914697
   24.949772   47.916517
   24.945660   47.917012
   24.941584   47.918893
   24.939842   47.920753
   24.939329   47.922155
   24.939409   47.923699
   24.937661   47.926700
   24.933897   47.928010
   24.931772   47.929904
   24.930902   47.931406
   24.928306   47.932715
   24.924847   47.933082
   24.921747   47.934208
   24.918215   47.937405
   24.915689   47.940475
   24.915134   47.942111
   24.912284   47.946579
   24.912010   47.949902
   24.913387   47.953252
   24.912253   47.954897
   24.911876   47.957273
   24.909670   47.961131
   24.909318   47.963094
   24.909878   47.965273
   24.908545   47.966510
   24.907948   47.967786
   24.907888   47.969434
   24.909119   47.971626
   24.909415   47.974380
   24.907599   47.976735
   24.906181   47.980478
   24.905708   47.985132
   24.904553   47.986425
   24.903594   47.988677
   24.903861   47.992171
   24.902191   47.994079
   24.901765   47.996685
END
END
