cherkasy
1
   29.599153   49.056724
   29.599529   49.058977
   29.600832   49.060502
   29.602917   49.061589
   29.606141   49.062091
   29.614898   49.060982
   29.619156   49.060010
   29.621139   49.058927
   29.625185   49.055327
   29.630348   49.057103
   29.627944   49.059127
   29.627476   49.060408
   29.627589   49.061723
   29.635051   49.077642
   29.643908   49.097964
   29.645161   49.099526
   29.646651   49.100423
   29.648472   49.100997
   29.651812   49.101116
   29.654299   49.100449
   29.657956   49.098307
   29.660086   49.098633
   29.662013   49.098538
   29.676809   49.095449
   29.673747   49.101954
   29.671198   49.111942
   29.671753   49.114066
   29.673742   49.115781
   29.675446   49.116444
   29.677306   49.116754
   29.680339   49.119341
   29.683081   49.120375
   29.721516   49.124522
   29.723024   49.125656
   29.725618   49.126525
   29.725419   49.127286
   29.718488   49.127168
   29.716566   49.127556
   29.714421   49.128604
   29.708071   49.136960
   29.705271   49.141400
   29.703016   49.155919
   29.703632   49.157200
   29.705285   49.158617
   29.707007   49.159341
   29.709649   49.159823
   29.709455   49.161695
   29.710885   49.167980
   29.709757   49.169471
   29.709499   49.170755
   29.710826   49.180166
   29.711591   49.181676
   29.715715   49.186479
   29.717801   49.187588
   29.719869   49.188042
   29.719666   49.194610
   29.719233   49.195965
   29.719105   49.199960
   29.707026   49.203294
   29.705083   49.204471
   29.704150   49.205624
   29.697249   49.224187
   29.697635   49.226852
   29.699460   49.228656
   29.701106   49.229392
   29.703425   49.229864
   29.707212   49.229679
   29.712840   49.227863
   29.715846   49.227380
   29.720158   49.225625
   29.723413   49.225902
   29.724070   49.227547
   29.725677   49.229055
   29.727415   49.229839
   29.730366   49.230561
   29.732832   49.232166
   29.735337   49.232813
   29.737360   49.232853
   29.739314   49.232505
   29.743806   49.230670
   29.746188   49.230098
   29.747681   49.230033
   29.752175   49.231215
   29.754208   49.231401
   29.756877   49.231026
   29.759114   49.229997
   29.760727   49.228638
   29.761682   49.227051
   29.761674   49.225345
   29.760593   49.223419
   29.759416   49.222349
   29.756593   49.220886
   29.752996   49.219750
   29.750404   49.215210
   29.748389   49.213671
   29.748698   49.210768
   29.747288   49.208634
   29.744087   49.207004
   29.739622   49.206076
   29.742854   49.203697
   29.763377   49.184665
   29.814618   49.191297
   29.817206   49.190935
   29.819840   49.189631
   29.823605   49.184301
   29.853847   49.192333
   29.857063   49.192898
   29.876966   49.191203
   29.876806   49.191834
   29.875116   49.193213
   29.870349   49.198837
   29.870108   49.201080
   29.871542   49.203122
   29.873667   49.204267
   29.876932   49.205161
   29.887220   49.207171
   29.887077   49.209397
   29.888606   49.211424
   29.900305   49.217639
   29.898444   49.219220
   29.897461   49.220858
   29.897505   49.222618
   29.898213   49.223858
   29.899942   49.225203
   29.915593   49.233283
   29.922573   49.242063
   29.924715   49.243971
   29.924522   49.245353
   29.925514   49.249423
   29.926173   49.250665
   29.927347   49.251730
   29.928939   49.252528
   29.930812   49.252991
   29.932809   49.253081
   29.935699   49.252766
   29.949306   49.254520
   29.950587   49.262023
   29.950727   49.265761
   29.950185   49.285194
   29.949824   49.286647
   29.944681   49.292938
   29.938301   49.299651
   29.937388   49.302209
   29.937575   49.303570
   29.940732   49.309607
   29.940231   49.312376
   29.941199   49.314480
   29.943000   49.315788
   29.945426   49.316544
   29.954235   49.316441
   29.957725   49.315405
   29.962009   49.312029
   29.980927   49.319723
   29.983084   49.319991
   30.001635   49.320133
   30.003761   49.329015
   30.005020   49.330674
   30.006577   49.331621
   30.011205   49.333443
   30.013810   49.333637
   30.016515   49.333154
   30.021371   49.337414
   30.024042   49.338614
   30.026601   49.338906
   30.029142   49.338555
   30.036393   49.336531
   30.038882   49.335042
   30.055860   49.330873
   30.071637   49.329765
   30.074412   49.328999
   30.077448   49.327441
   30.081191   49.326586
   30.083322   49.325604
   30.084964   49.323766
   30.085994   49.319512
   30.091817   49.315173
   30.092960   49.313480
   30.093081   49.312089
   30.092042   49.308615
   30.090779   49.306471
   30.091813   49.304607
   30.092134   49.302117
   30.091738   49.300771
   30.090309   49.298875
   30.093348   49.295575
   30.093589   49.291978
   30.095101   49.289223
   30.095264   49.287282
   30.098690   49.285740
   30.101007   49.284119
   30.105403   49.279295
   30.107441   49.277829
   30.110528   49.276902
   30.113218   49.282486
   30.114357   49.283596
   30.116330   49.284574
   30.116411   49.287534
   30.112797   49.291051
   30.112410   49.292399
   30.112721   49.293891
   30.101395   49.300428
   30.100298   49.302439
   30.100519   49.304148
   30.107022   49.311288
   30.108383   49.312321
   30.111479   49.313312
   30.115400   49.313253
   30.119141   49.315178
   30.123121   49.315580
   30.124700   49.317071
   30.126298   49.317835
   30.129971   49.332510
   30.130792   49.333747
   30.132131   49.334770
   30.134513   49.335648
   30.137103   49.335929
   30.143140   49.337910
   30.145843   49.339139
   30.149113   49.339484
   30.152249   49.338785
   30.154526   49.337205
   30.155364   49.335546
   30.155577   49.331453
   30.200133   49.332681
   30.202739   49.332421
   30.204490   49.331810
   30.206278   49.330538
   30.207065   49.329342
   30.207302   49.328049
   30.202542   49.303580
   30.201286   49.293216
   30.197537   49.278332
   30.211193   49.277182
   30.231010   49.276166
   30.235156   49.274987
   30.237080   49.275455
   30.239176   49.275524
   30.248735   49.273641
   30.252432   49.273724
   30.253546   49.274680
   30.255229   49.275482
   30.257198   49.275917
   30.259276   49.275946
   30.335015   49.263946
   30.368098   49.259607
   30.371401   49.258391
   30.373823   49.255824
   30.374091   49.254047
   30.372876   49.248466
   30.373728   49.248342
   30.377472   49.257263
   30.378910   49.259024
   30.381251   49.271362
   30.391456   49.305131
   30.392460   49.306254
   30.393910   49.307143
   30.396977   49.307914
   30.412884   49.307284
   30.407124   49.329691
   30.407198   49.331444
   30.407922   49.332674
   30.409663   49.334003
   30.412042   49.334798
   30.434568   49.337592
   30.430781   49.351185
   30.431235   49.353644
   30.432482   49.355185
   30.433954   49.356073
   30.435752   49.356645
   30.439589   49.356728
   30.442431   49.359921
   30.445869   49.361714
   30.447831   49.362181
   30.450711   49.362260
   30.453655   49.363003
   30.456644   49.362974
   30.471401   49.369318
   30.473380   49.369524
   30.475364   49.369348
   30.477188   49.368803
   30.478696   49.367937
   30.503278   49.344803
   30.518120   49.332872
   30.528693   49.334473
   30.539300   49.332409
   30.538680   49.336677
   30.539844   49.338761
   30.542178   49.340348
   30.543887   49.341002
   30.545942   49.342518
   30.547740   49.343114
   30.550120   49.343397
   30.550717   49.344945
   30.553373   49.348061
   30.555412   49.349533
   30.557217   49.351691
   30.560276   49.353756
   30.562486   49.355899
   30.567508   49.357827
   30.574385   49.358149
   30.577419   49.357798
   30.580403   49.356947
   30.582184   49.356030
   30.602034   49.373355
   30.603560   49.374177
   30.606023   49.374770
   30.607995   49.374790
   30.610485   49.374247
   30.640180   49.361057
   30.659027   49.364929
   30.661060   49.365005
   30.663039   49.364687
   30.664790   49.364002
   30.666158   49.363010
   30.667025   49.361799
   30.667306   49.360594
   30.670440   49.360686
   30.674717   49.359275
   30.678608   49.359563
   30.681595   49.358720
   30.706919   49.343297
   30.713499   49.342870
   30.717480   49.343129
   30.719504   49.342785
   30.728463   49.337995
   30.744806   49.348320
   30.746941   49.349237
   30.750080   49.349570
   30.776433   49.348296
   30.792826   49.356617
   30.798218   49.358340
   30.812590   49.358161
   30.815620   49.359483
   30.818202   49.359799
   30.826712   49.358267
   30.833562   49.355943
   30.835137   49.356838
   30.837624   49.357462
   30.841374   49.357192
   30.858253   49.358038
   30.860764   49.357727
   30.863968   49.356501
   30.866607   49.358310
   30.871566   49.359983
   30.874955   49.361830
   30.875259   49.363236
   30.876892   49.365568
   30.878856   49.366754
   30.880702   49.367270
   30.885752   49.367632
   30.896427   49.367441
   30.898552   49.367020
   30.905159   49.364894
   30.911573   49.378456
   30.913929   49.381104
   30.914868   49.383178
   30.916464   49.384653
   30.917985   49.385466
   30.919793   49.385965
   30.921893   49.386100
   30.920699   49.390602
   30.921719   49.393027
   30.923404   49.394424
   30.927725   49.396535
   30.926834   49.400420
   30.928697   49.404573
   30.924990   49.406150
   30.915220   49.413240
   30.914430   49.414470
   30.914220   49.415797
   30.914609   49.417107
   30.915562   49.418285
   30.917561   49.419477
   30.927284   49.422498
   30.934785   49.424337
   30.950664   49.427607
   30.955462   49.428251
   30.980932   49.427758
   30.989014   49.426849
   30.990829   49.426917
   30.997263   49.431650
   30.999669   49.432880
   30.998321   49.450810
   30.999002   49.452975
   31.004136   49.457575
   31.008288   49.460652
   31.010165   49.462688
   31.024167   49.474769
   31.026288   49.475820
   31.028855   49.476265
   31.031489   49.476038
   31.033456   49.475347
   31.035706   49.477239
   31.040965   49.479233
   31.042713   49.481150
   31.045463   49.482312
   31.047402   49.482553
   31.054782   49.482319
   31.056617   49.484320
   31.059719   49.486131
   31.062763   49.487066
   31.065866   49.488583
   31.070852   49.489893
   31.073520   49.491645
   31.079282   49.493455
   31.079454   49.495127
   31.080632   49.497015
   31.083227   49.499250
   31.085265   49.500231
   31.085899   49.502868
   31.086896   49.504548
   31.086865   49.505944
   31.085093   49.507889
   31.084483   49.510238
   31.085260   49.512729
   31.086503   49.514333
   31.085995   49.515739
   31.086135   49.517015
   31.086994   49.519483
   31.088830   49.522305
   31.091347   49.524535
   31.093023   49.525511
   31.093175   49.530028
   31.094475   49.532122
   31.095999   49.533264
   31.093259   49.536260
   31.092906   49.539426
   31.091516   49.540613
   31.090726   49.541910
   31.090851   49.544388
   31.092371   49.547750
   31.094880   49.551144
   31.097301   49.552658
   31.101104   49.553452
   31.102306   49.555431
   31.102107   49.557724
   31.103354   49.559679
   31.104754   49.560678
   31.106543   49.561358
   31.109971   49.561820
   31.111636   49.561757
   31.112779   49.563243
   31.114371   49.564314
   31.118710   49.565558
   31.120638   49.565830
   31.122603   49.565731
   31.125006   49.565042
   31.136055   49.558471
   31.137189   49.560136
   31.139082   49.561420
   31.141585   49.562121
   31.144057   49.562154
   31.144261   49.564997
   31.143745   49.566442
   31.141538   49.567286
   31.138022   49.567658
   31.136122   49.568188
   31.134118   49.569421
   31.133006   49.571070
   31.132964   49.572874
   31.133928   49.574507
   31.138709   49.577901
   31.126060   49.579715
   31.123379   49.581053
   31.121984   49.583065
   31.122030   49.584841
   31.126085   49.597064
   31.129000   49.601782
   31.128996   49.604927
   31.136053   49.615178
   31.149009   49.631376
   31.194228   49.675599
   31.189359   49.682477
   31.189056   49.684700
   31.190407   49.686748
   31.192622   49.687970
   31.195630   49.693528
   31.197381   49.694749
   31.200406   49.695931
   31.193553   49.697456
   31.191806   49.698199
   31.190149   49.699654
   31.189508   49.701878
   31.189958   49.703214
   31.197733   49.716415
   31.205274   49.731389
   31.207211   49.733331
   31.205451   49.734081
   31.204143   49.735064
   31.203316   49.736252
   31.203041   49.737546
   31.203340   49.738838
   31.204582   49.740372
   31.206045   49.741256
   31.207913   49.741843
   31.205028   49.747181
   31.199727   49.753466
   31.198289   49.755989
   31.198044   49.757303
   31.198630   49.759019
   31.200950   49.761486
   31.208351   49.775204
   31.185075   49.786973
   31.183509   49.788411
   31.182902   49.790135
   31.183618   49.792287
   31.213257   49.832226
   31.211653   49.834923
   31.207911   49.839664
   31.207042   49.841575
   31.205594   49.842747
   31.201621   49.847416
   31.201177   49.848678
   31.201475   49.850517
   31.200990   49.852211
   31.201253   49.853482
   31.202048   49.854653
   31.207218   49.857971
   31.210497   49.859262
   31.213411   49.859860
   31.222016   49.862994
   31.229943   49.866482
   31.245284   49.872390
   31.247343   49.872554
   31.249383   49.872308
   31.254581   49.870362
   31.259673   49.866658
   31.260939   49.865360
   31.282038   49.882227
   31.286565   49.886414
   31.288780   49.887316
   31.303658   49.891044
   31.303588   49.892392
   31.304115   49.893674
   31.305648   49.895123
   31.307292   49.895894
   31.333514   49.899379
   31.336104   49.899397
   31.345294   49.900575
   31.362922   49.900474
   31.366014   49.902376
   31.369823   49.902919
   31.372287   49.906682
   31.368480   49.910121
   31.366605   49.911187
   31.364751   49.912854
   31.359399   49.918753
   31.355282   49.922181
   31.351101   49.924444
   31.349191   49.925981
   31.346113   49.927125
   31.343581   49.928647
   31.341971   49.930157
   31.333756   49.931130
   31.330346   49.932192
   31.328441   49.933505
   31.326722   49.937305
   31.327598   49.941175
   31.327185   49.942382
   31.327340   49.945034
   31.328035   49.946268
   31.329240   49.947318
   31.333910   49.949542
   31.333105   49.950390
   31.330196   49.952126
   31.326770   49.953394
   31.323534   49.954110
   31.320894   49.955371
   31.317676   49.956213
   31.311995   49.958448
   31.304886   49.956930
   31.302940   49.955163
   31.299721   49.953676
   31.293740   49.949254
   31.291492   49.948225
   31.288811   49.947853
   31.286771   49.948046
   31.284910   49.948627
   31.283393   49.949544
   31.280495   49.952771
   31.280208   49.954049
   31.280482   49.955327
   31.281645   49.957766
   31.284566   49.961577
   31.289679   49.965658
   31.286464   49.966233
   31.284253   49.967076
   31.282175   49.968719
   31.281201   49.970502
   31.281030   49.972505
   31.282075   49.976715
   31.283395   49.979487
   31.285856   49.981797
   31.289073   49.983595
   31.292599   49.985029
   31.298065   49.986309
   31.308766   49.987101
   31.316477   49.986840
   31.324784   49.992240
   31.329164   49.993735
   31.333200   49.993973
   31.341704   49.992781
   31.351537   49.992559
   31.358952   49.994243
   31.382895   49.997377
   31.389915   49.996644
   31.397971   49.995218
   31.403433   49.993379
   31.411108   49.992124
   31.413217   49.993421
   31.416078   49.994107
   31.423589   49.994059
   31.427632   49.992620
   31.429588   49.991262
   31.432446   49.991343
   31.434908   49.990859
   31.441338   49.987514
   31.450779   49.977722
   31.451980   49.974220
   31.450694   49.970396
   31.449608   49.969377
   31.445215   49.966768
   31.440229   49.960011
   31.438273   49.954679
   31.437834   49.951237
   31.437791   49.950331
   31.439374   49.947823
   31.440105   49.945835
   31.439402   49.942662
   31.438333   49.941012
   31.431802   49.934758
   31.431368   49.917892
   31.439568   49.899799
   31.440788   49.893101
   31.449704   49.881358
   31.461924   49.881350
   31.464811   49.880284
   31.466958   49.877999
   31.471756   49.878011
   31.473650   49.877514
   31.475240   49.876675
   31.476851   49.874724
   31.481179   49.863563
   31.484534   49.862342
   31.488742   49.864935
   31.490731   49.865408
   31.494223   49.865619
   31.497299   49.865135
   31.501307   49.863196
   31.502856   49.861800
   31.503429   49.860557
   31.502602   49.855285
   31.503337   49.853993
   31.503505   49.855223
   31.504542   49.857140
   31.504638   49.859418
   31.505419   49.860670
   31.507262   49.861998
   31.511476   49.863404
   31.509820   49.864449
   31.508812   49.865609
   31.507962   49.869455
   31.509196   49.871525
   31.512872   49.874307
   31.516166   49.876182
   31.519497   49.877103
   31.522177   49.877105
   31.524077   49.876662
   31.525860   49.875817
   31.526717   49.876018
   31.527832   49.877439
   31.529340   49.878384
   31.533671   49.879694
   31.536247   49.881339
   31.541211   49.882670
   31.543928   49.882686
   31.545855   49.882240
   31.548363   49.880746
   31.549750   49.878749
   31.551863   49.879044
   31.553762   49.882947
   31.554908   49.883993
   31.557172   49.885108
   31.558627   49.889143
   31.559857   49.890237
   31.561541   49.891046
   31.561968   49.893252
   31.561539   49.895685
   31.562455   49.897753
   31.563680   49.898774
   31.565900   49.899702
   31.567827   49.899998
   31.572305   49.899988
   31.574406   49.902057
   31.574010   49.907117
   31.574787   49.908858
   31.576026   49.909954
   31.577706   49.910757
   31.581057   49.911261
   31.613473   49.910655
   31.616534   49.909889
   31.618709   49.908280
   31.619507   49.906192
   31.619587   49.896748
   31.621140   49.892309
   31.620692   49.890617
   31.619244   49.889109
   31.623347   49.882999
   31.624102   49.880518
   31.622170   49.861552
   31.669280   49.862084
   31.698134   49.856969
   31.709794   49.855595
   31.715532   49.859964
   31.734709   49.882530
   31.747155   49.896409
   31.749398   49.897497
   31.751415   49.897877
   31.766839   49.898142
   31.763162   49.918228
   31.764233   49.922083
   31.766238   49.923870
   31.777187   49.929747
   31.780568   49.930752
   31.789332   49.936313
   31.807017   49.960536
   31.806572   49.966837
   31.807161   49.968135
   31.808308   49.969260
   31.811163   49.970488
   31.813880   49.970719
   31.874697   49.967851
   31.891766   49.966744
   31.894695   49.965585
   31.896413   49.963642
   31.896865   49.960724
   31.896874   49.955297
   31.899789   49.954657
   31.902209   49.953125
   31.911220   49.962586
   31.908832   49.982715
   31.908537   49.984389
   31.906583   49.988112
   31.906553   49.989488
   31.907299   49.990984
   31.906204   49.992289
   31.905119   49.995187
   31.903251   50.005773
   31.903284   50.008441
   31.902535   50.010213
   31.898545   50.012352
   31.893811   50.017220
   31.893093   50.018962
   31.893730   50.021171
   31.895906   50.022905
   31.898675   50.023698
   31.899236   50.025499
   31.900718   50.026922
   31.905280   50.028802
   31.910967   50.032032
   31.925206   50.034762
   31.965854   50.048716
   31.968458   50.049047
   31.971059   50.048707
   31.973271   50.047745
   31.975944   50.045674
   31.977600   50.049023
   31.926195   50.055695
   31.923250   50.054129
   31.922157   50.051981
   31.919813   50.050520
   31.917361   50.049963
   31.909654   50.049259
   31.906234   50.049755
   31.903433   50.051287
   31.900066   50.052366
   31.898634   50.053251
   31.897422   50.054774
   31.897134   50.056053
   31.897408   50.057333
   31.900898   50.061982
   31.904547   50.101067
   31.905560   50.103153
   31.907945   50.104681
   31.965172   50.126633
   31.956047   50.135111
   31.949451   50.132526
   31.947542   50.132139
   31.944245   50.132333
   31.942470   50.132937
   31.941035   50.133851
   31.940059   50.134998
   31.927624   50.156958
   31.927311   50.159119
   31.928566   50.161128
   31.929964   50.162062
   31.931712   50.162693
   31.933662   50.162969
   31.935650   50.162865
   31.961528   50.157226
   31.974749   50.176679
   31.982855   50.186271
   31.989372   50.192259
   31.987367   50.192849
   31.985449   50.194013
   31.984329   50.195562
   31.984113   50.196844
   31.987035   50.203173
   31.988071   50.204266
   31.989533   50.205122
   32.015324   50.210551
   32.017307   50.210752
   32.019295   50.210569
   32.021117   50.210016
   32.022620   50.209142
   32.029455   50.203753
   32.031445   50.201154
   32.036229   50.197793
   32.046952   50.193220
   32.052503   50.192697
   32.081289   50.224571
   32.083366   50.225611
   32.086539   50.226081
   32.102252   50.224938
   32.103234   50.229663
   32.103984   50.230905
   32.106336   50.232488
   32.109549   50.233148
   32.120417   50.232663
   32.122228   50.232025
   32.130986   50.227477
   32.132254   50.225446
   32.132248   50.224120
   32.131658   50.222852
   32.120995   50.213301
   32.157929   50.192642
   32.164521   50.191660
   32.167670   50.190272
   32.168900   50.189100
   32.169635   50.187735
   32.170334   50.181743
   32.178204   50.174099
   32.181541   50.169335
   32.186030   50.168595
   32.188587   50.167533
   32.211931   50.163279
   32.215284   50.163426
   32.220303   50.162529
   32.223522   50.161305
   32.234215   50.159238
   32.236282   50.158387
   32.239468   50.157794
   32.241303   50.157102
   32.244131   50.156983
   32.254629   50.155028
   32.257126   50.153912
   32.262636   50.152824
   32.264986   50.151534
   32.268213   50.151701
   32.276780   50.150213
   32.279934   50.150355
   32.295377   50.147658
   32.298652   50.146353
   32.302336   50.145558
   32.304710   50.144016
   32.305629   50.142362
   32.310734   50.120568
   32.310376   50.118372
   32.308964   50.116861
   32.306778   50.115823
   32.304152   50.115417
   32.286243   50.116157
   32.260502   50.111701
   32.263112   50.109027
   32.267738   50.107878
   32.269872   50.106695
   32.271505   50.105174
   32.279674   50.101590
   32.282387   50.099485
   32.283435   50.097905
   32.283507   50.096182
   32.282594   50.094567
   32.281337   50.093568
   32.279484   50.092776
   32.270885   50.085382
   32.269333   50.082869
   32.278838   50.071827
   32.283872   50.066532
   32.310908   50.047183
   32.315885   50.043958
   32.319098   50.052472
   32.320763   50.055277
   32.328985   50.061654
   32.331959   50.062751
   32.335370   50.062775
   32.337848   50.062009
   32.342439   50.058533
   32.347949   50.055633
   32.351811   50.052065
   32.354913   50.050867
   32.356585   50.048992
   32.356734   50.046821
   32.356062   50.045585
   32.353880   50.043459
   32.352122   50.039804
   32.367190   50.037921
   32.369487   50.036930
   32.371240   50.035000
   32.375241   50.005583
   32.380765   50.004458
   32.382737   50.003283
   32.383685   50.002124
   32.385546   49.983624
   32.408909   49.974343
   32.432119   49.964139
   32.434068   49.962839
   32.435077   49.961139
   32.434982   49.959315
   32.433482   49.956450
   32.433349   49.953152
   32.430210   49.947267
   32.426613   49.937967
   32.429349   49.937236
   32.435498   49.934390
   32.436802   49.932825
   32.436987   49.930607
   32.434700   49.925619
   32.433256   49.924174
   32.431685   49.923384
   32.429837   49.922921
   32.426191   49.922983
   32.425796   49.917774
   32.421531   49.904276
   32.423108   49.902558
   32.426588   49.899796
   32.440323   49.890892
   32.441558   49.888902
   32.441255   49.886762
   32.440350   49.885609
   32.438444   49.884422
   32.418341   49.876017
   32.405387   49.871083
   32.401999   49.870894
   32.398887   49.871794
   32.391647   49.878289
   32.384064   49.874059
   32.398809   49.863425
   32.400076   49.862041
   32.415612   49.850607
   32.418387   49.845622
   32.421148   49.842239
   32.427728   49.837892
   32.428985   49.836371
   32.429281   49.834658
   32.442919   49.824360
   32.444255   49.822602
   32.454234   49.801674
   32.502377   49.809033
   32.504419   49.809139
   32.506419   49.808846
   32.509183   49.807554
   32.510500   49.805987
   32.510833   49.803080
   32.519815   49.778698
   32.524345   49.778774
   32.543923   49.778114
   32.556610   49.778131
   32.559124   49.777609
   32.561155   49.776505
   32.578545   49.755480
   32.579402   49.753802
   32.578958   49.750661
   32.575339   49.745253
   32.580663   49.705788
   32.667028   49.684657
   32.669630   49.683193
   32.670839   49.681041
   32.676534   49.679970
   32.680521   49.677908
   32.682943   49.674797
   32.683237   49.672405
   32.685133   49.671704
   32.686824   49.670400
   32.687655   49.668776
   32.687612   49.667376
   32.689240   49.665778
   32.691516   49.665001
   32.693815   49.663587
   32.697531   49.663948
   32.703161   49.663061
   32.704941   49.662452
   32.706454   49.661466
   32.708523   49.661545
   32.710458   49.661234
   32.712406   49.660617
   32.713935   49.659707
   32.715455   49.657364
   32.716170   49.653899
   32.715590   49.652103
   32.716439   49.650321
   32.716466   49.648916
   32.716037   49.647638
   32.715007   49.646414
   32.711460   49.644558
   32.712909   49.642766
   32.713681   49.640553
   32.713697   49.638705
   32.713228   49.637421
   32.714437   49.636329
   32.716645   49.635795
   32.719425   49.634488
   32.720587   49.633327
   32.721473   49.631096
   32.721139   49.629010
   32.719370   49.626782
   32.719868   49.624603
   32.721067   49.623372
   32.722987   49.619357
   32.722694   49.617671
   32.721229   49.615991
   32.722618   49.609855
   32.722279   49.608046
   32.721228   49.606667
   32.724041   49.603588
   32.728831   49.601140
   32.730781   49.601216
   32.733588   49.600652
   32.736571   49.600596
   32.739929   49.599420
   32.741392   49.598155
   32.742172   49.596693
   32.744719   49.595847
   32.746287   49.594917
   32.747931   49.593271
   32.748679   49.591638
   32.750871   49.590899
   32.752790   49.589471
   32.753899   49.587888
   32.754052   49.586210
   32.756467   49.584739
   32.760016   49.580161
   32.760280   49.578780
   32.759919   49.577177
   32.757598   49.574938
   32.758261   49.573290
   32.758177   49.572032
   32.759154   49.570667
   32.760068   49.568027
   32.760433   49.565708
   32.759844   49.563627
   32.760187   49.561289
   32.758565   49.559010
   32.760698   49.556898
   32.762679   49.552030
   32.762603   49.548070
   32.761494   49.546450
   32.759861   49.545285
   32.759874   49.544562
   32.762073   49.541878
   32.762409   49.539308
   32.762014   49.538078
   32.760721   49.536638
   32.758914   49.535400
   32.756232   49.534495
   32.757386   49.524150
   32.756798   49.521963
   32.754697   49.520224
   32.752590   49.519511
   32.744747   49.515639
   32.741667   49.513361
   32.738670   49.512403
   32.727214   49.505397
   32.726407   49.503110
   32.725396   49.501840
   32.721594   49.498874
   32.717598   49.496883
   32.713913   49.495917
   32.711621   49.495647
   32.682829   49.495502
   32.678601   49.489372
   32.677085   49.487939
   32.676576   49.484782
   32.677014   49.482885
   32.677004   49.479250
   32.677727   49.477965
   32.678009   49.475502
   32.675869   49.471824
   32.674269   49.470133
   32.674160   49.468020
   32.673532   49.466578
   32.673962   49.462060
   32.673423   49.460542
   32.674232   49.459202
   32.676368   49.457207
   32.679598   49.450933
   32.679725   49.446893
   32.678666   49.445362
   32.675059   49.442029
   32.673634   49.441197
   32.659667   49.437474
   32.664610   49.434499
   32.665516   49.433264
   32.665851   49.431922
   32.670101   49.430820
   32.672887   49.430556
   32.676458   49.430851
   32.679984   49.430466
   32.682716   49.429511
   32.685283   49.427437
   32.687177   49.423139
   32.688078   49.419098
   32.688328   49.415373
   32.687405   49.407841
   32.685694   49.404569
   32.684651   49.401453
   32.687358   49.397939
   32.690596   49.394886
   32.694981   49.389303
   32.695627   49.387988
   32.697857   49.387224
   32.701179   49.387375
   32.704567   49.388650
   32.707274   49.389266
   32.711575   49.389468
   32.715113   49.388904
   32.717320   49.388112
   32.719977   49.386616
   32.725605   49.382115
   32.729340   49.380492
   32.733411   49.377760
   32.738518   49.376974
   32.742794   49.374637
   32.743707   49.373410
   32.744085   49.371637
   32.743758   49.370265
   32.742515   49.368282
   32.742344   49.367044
   32.742872   49.365204
   32.742510   49.362451
   32.743757   49.360334
   32.745034   49.355422
   32.744670   49.352677
   32.742847   49.350275
   32.739863   49.348602
   32.736178   49.347884
   32.727822   49.347650
   32.720819   49.348863
   32.718324   49.349086
   32.715734   49.348886
   32.710524   49.349654
   32.708568   49.349684
   32.704764   49.349255
   32.702923   49.349336
   32.700459   49.348914
   32.695145   49.349124
   32.690053   49.347830
   32.687507   49.347604
   32.672480   49.348228
   32.668631   49.349290
   32.663891   49.351629
   32.657326   49.351596
   32.649331   49.352241
   32.639359   49.355506
   32.632519   49.359495
   32.625035   49.361611
   32.622505   49.363076
   32.618578   49.363968
   32.611466   49.366314
   32.603420   49.369506
   32.600789   49.370986
   32.592247   49.373509
   32.590605   49.373800
   32.582514   49.373738
   32.577397   49.374569
   32.571634   49.374999
   32.561522   49.378044
   32.558836   49.377081
   32.556340   49.376590
   32.551164   49.376297
   32.544537   49.377145
   32.540652   49.378174
   32.536757   49.379603
   32.533102   49.381634
   32.530358   49.382571
   32.527658   49.384892
   32.522979   49.387159
   32.521662   49.388593
   32.521122   49.390120
   32.519571   49.392217
   32.517444   49.399099
   32.515547   49.400675
   32.512475   49.401199
   32.511710   49.398027
   32.510189   49.396133
   32.506735   49.394201
   32.503777   49.393380
   32.499754   49.392746
   32.498919   49.391882
   32.498320   49.382024
   32.492342   49.372929
   32.491064   49.370011
   32.484360   49.363752
   32.485004   49.357834
   32.483512   49.353934
   32.481434   49.352264
   32.468850   49.347186
   32.468806   49.346146
   32.471689   49.345582
   32.478080   49.346440
   32.481927   49.345858
   32.484532   49.344604
   32.485981   49.342708
   32.486305   49.340552
   32.485522   49.338765
   32.480063   49.334306
   32.478171   49.333256
   32.476012   49.329098
   32.482192   49.325128
   32.500955   49.314906
   32.508649   49.311458
   32.516080   49.309593
   32.527325   49.308186
   32.529130   49.307714
   32.546391   49.300200
   32.565090   49.290179
   32.570313   49.286907
   32.581104   49.285016
   32.592967   49.282199
   32.598285   49.280594
   32.601041   49.279361
   32.603779   49.277139
   32.605566   49.274206
   32.608658   49.265210
   32.611238   49.259510
   32.615800   49.262027
   32.620853   49.263950
   32.624020   49.264660
   32.626629   49.264875
   32.636141   49.264350
   32.642452   49.262098
   32.646660   49.259057
   32.648645   49.256809
   32.651527   49.254669
   32.654947   49.252569
   32.657541   49.252023
   32.667379   49.254755
   32.673012   49.258671
   32.677554   49.260163
   32.681381   49.260338
   32.687584   49.259680
   32.690752   49.260229
   32.711405   49.262039
   32.715233   49.261794
   32.719209   49.260792
   32.724010   49.258154
   32.733271   49.258094
   32.737972   49.257208
   32.744492   49.253855
   32.747852   49.251261
   32.750865   49.248244
   32.756685   49.247953
   32.760336   49.246673
   32.763110   49.244687
   32.764338   49.243096
   32.764760   49.240263
   32.764184   49.237836
   32.773358   49.241631
   32.777102   49.242045
   32.788577   49.242181
   32.792507   49.242701
   32.795625   49.243478
   32.801439   49.246232
   32.804284   49.249503
   32.807413   49.251642
   32.809238   49.252348
   32.814312   49.253287
   32.820183   49.253389
   32.831778   49.251223
   32.835062   49.251686
   32.842293   49.253545
   32.848331   49.253792
   32.850736   49.253279
   32.859356   49.250192
   32.863754   49.248059
   32.865004   49.247062
   32.865912   49.245450
   32.865952   49.244158
   32.865433   49.242911
   32.845852   49.224051
   32.841792   49.221664
   32.838599   49.220682
   32.826007   49.215636
   32.822758   49.213120
   32.813636   49.207938
   32.811876   49.207277
   32.809847   49.206981
   32.789066   49.188407
   32.781204   49.184081
   32.777871   49.176597
   32.775961   49.173989
   32.775039   49.170004
   32.773924   49.168429
   32.771989   49.167247
   32.769069   49.166429
   32.767044   49.166143
   32.764234   49.166329
   32.764498   49.164071
   32.766064   49.161132
   32.766155   49.158433
   32.768967   49.155035
   32.769409   49.152231
   32.774462   49.148599
   32.780288   49.146139
   32.783744   49.146748
   32.785839   49.146679
   32.788554   49.147126
   32.790541   49.146990
   32.793457   49.145961
   32.798300   49.142495
   32.825165   49.139541
   32.830564   49.137894
   32.846185   49.135150
   32.857545   49.133734
   32.871528   49.132807
   32.876239   49.133176
   32.891865   49.130977
   32.894798   49.130040
   32.896119   49.129081
   32.896973   49.127916
   32.902467   49.110963
   32.903064   49.094953
   32.902804   49.093612
   32.901954   49.092382
   32.900588   49.091372
   32.898829   49.090672
   32.896148   49.090324
   32.882352   49.091210
   32.858958   49.085401
   32.845931   49.083614
   32.834621   49.077675
   32.835742   49.076451
   32.836205   49.075188
   32.837597   49.059774
   32.838664   49.057211
   32.843050   49.032681
   32.845688   49.032240
   32.847845   49.031172
   32.849210   49.029640
   32.849743   49.027712
   32.849584   49.024188
   32.848360   49.021876
   32.845637   49.019967
   32.845666   49.016966
   32.848617   49.016406
   32.851145   49.014871
   32.852143   49.013177
   32.851627   49.010217
   32.852387   49.008741
   32.854590   49.005424
   32.857308   49.003838
   32.859568   49.002971
   32.863665   49.003201
   32.869943   49.004485
   32.872462   49.004597
   32.875497   49.004035
   32.877906   49.002599
   32.879382   48.999662
   32.880826   48.992128
   32.879858   48.990065
   32.877546   48.988532
   32.875074   48.987928
   32.858527   48.987179
   32.851159   48.986389
   32.852266   48.980017
   32.851359   48.978362
   32.849001   48.976813
   32.846482   48.976219
   32.831022   48.974694
   32.828866   48.974252
   32.811413   48.972669
   32.808039   48.971806
   32.804249   48.971827
   32.804199   48.970169
   32.803116   48.968518
   32.801702   48.967535
   32.799255   48.966731
   32.781398   48.964776
   32.733637   48.960305
   32.730377   48.960738
   32.728708   48.961472
   32.727433   48.962491
   32.726526   48.964142
   32.724901   48.971151
   32.722708   48.972223
   32.699293   48.969865
   32.696569   48.969897
   32.693539   48.970900
   32.691878   48.972319
   32.690243   48.977789
   32.685421   48.977301
   32.683441   48.977408
   32.681028   48.978116
   32.679141   48.979429
   32.677429   48.979942
   32.679208   48.977847
   32.679403   48.974828
   32.680749   48.972445
   32.684034   48.970786
   32.685066   48.969692
   32.685587   48.968451
   32.685226   48.966332
   32.683001   48.963984
   32.685792   48.960128
   32.686631   48.958088
   32.686661   48.956731
   32.685370   48.954650
   32.682716   48.953234
   32.677071   48.952470
   32.675105   48.952744
   32.672879   48.953637
   32.671477   48.952476
   32.669112   48.951562
   32.661562   48.950821
   32.658153   48.949452
   32.654205   48.948822
   32.647528   48.949117
   32.645167   48.949592
   32.640674   48.949401
   32.638753   48.949807
   32.636836   48.950736
   32.625062   48.951229
   32.621711   48.950339
   32.611581   48.949082
   32.609620   48.949277
   32.607825   48.949832
   32.605619   48.951358
   32.601879   48.952862
   32.600585   48.953982
   32.598599   48.951831
   32.595663   48.950785
   32.593268   48.949202
   32.586634   48.947009
   32.581997   48.946286
   32.573520   48.947781
   32.571962   48.948615
   32.570628   48.949997
   32.570043   48.951216
   32.570050   48.952769
   32.566977   48.952782
   32.564999   48.953208
   32.553932   48.957605
   32.553302   48.956448
   32.552098   48.955368
   32.548985   48.954092
   32.550931   48.952114
   32.551478   48.949765
   32.553334   48.949138
   32.554821   48.948172
   32.557311   48.945104
   32.558369   48.943097
   32.558480   48.940893
   32.556635   48.938334
   32.554647   48.937255
   32.549430   48.935848
   32.541203   48.935177
   32.523798   48.934399
   32.520261   48.934450
   32.518290   48.934909
   32.515109   48.936225
   32.513210   48.937868
   32.512253   48.939560
   32.512380   48.941363
   32.513179   48.942615
   32.515372   48.944299
   32.514173   48.946403
   32.513936   48.947871
   32.512096   48.950286
   32.509874   48.951299
   32.506540   48.954072
   32.502965   48.958850
   32.502646   48.960133
   32.502895   48.961422
   32.506304   48.967340
   32.503922   48.969669
   32.503532   48.971885
   32.504424   48.973578
   32.506649   48.975108
   32.506693   48.976355
   32.507412   48.977752
   32.506463   48.980006
   32.502081   48.980840
   32.500376   48.981515
   32.499037   48.982483
   32.498024   48.984042
   32.495636   48.986073
   32.495033   48.988494
   32.496617   48.992200
   32.494907   48.993652
   32.493346   48.995726
   32.490598   48.997777
   32.489406   48.999841
   32.489663   49.002135
   32.491948   49.004514
   32.490894   49.007022
   32.487887   49.006283
   32.479826   49.001840
   32.477271   49.001136
   32.474501   49.001151
   32.472552   49.001637
   32.467696   49.004795
   32.464513   49.008598
   32.464321   49.009913
   32.464716   49.011209
   32.466955   49.013802
   32.462906   49.021446
   32.458884   49.030443
   32.458605   49.031762
   32.459018   49.033246
   32.456926   49.034180
   32.451837   49.034005
   32.448174   49.035075
   32.445913   49.036694
   32.444849   49.038269
   32.444323   49.040491
   32.443088   49.041068
   32.440620   49.036937
   32.438302   49.035419
   32.436482   49.034914
   32.434519   49.034770
   32.430571   49.035557
   32.428305   49.030783
   32.426843   49.028716
   32.423983   49.025975
   32.420616   49.023962
   32.417626   49.022950
   32.414219   49.022374
   32.399196   49.021655
   32.394777   49.021947
   32.392012   49.023135
   32.390879   49.024214
   32.390246   49.025562
   32.388276   49.026729
   32.381669   49.027356
   32.379305   49.027943
   32.376937   49.029304
   32.374765   49.031668
   32.372102   49.031802
   32.370308   49.032268
   32.365937   49.035095
   32.364459   49.036876
   32.363086   49.039428
   32.363043   49.040887
   32.363587   49.042510
   32.362937   49.043755
   32.362575   49.047219
   32.364018   49.049552
   32.367624   49.051704
   32.361001   49.066314
   32.354148   49.065032
   32.351501   49.065195
   32.349686   49.065747
   32.347432   49.067342
   32.345853   49.070291
   32.343920   49.070891
   32.342041   49.072152
   32.341040   49.073789
   32.340974   49.075189
   32.320494   49.076346
   32.319103   49.072577
   32.317879   49.071488
   32.316219   49.070686
   32.308834   49.069604
   32.304955   49.069943
   32.298175   49.068872
   32.294990   49.069416
   32.292584   49.070701
   32.291324   49.072309
   32.291170   49.074511
   32.288964   49.074733
   32.287160   49.075331
   32.284839   49.074620
   32.281076   49.074432
   32.276119   49.075438
   32.273144   49.075712
   32.269186   49.076757
   32.265624   49.075101
   32.264632   49.072864
   32.264611   49.072504
   32.267175   49.071958
   32.269482   49.070657
   32.270973   49.069151
   32.271649   49.067788
   32.271679   49.063760
   32.269529   49.061098
   32.269756   49.059639
   32.269373   49.058393
   32.267305   49.055892
   32.265717   49.055035
   32.263391   49.054332
   32.260452   49.054025
   32.257269   49.054329
   32.255001   49.053677
   32.251934   49.053538
   32.249261   49.053851
   32.246938   49.054850
   32.244900   49.055051
   32.241679   49.055945
   32.242738   49.051996
   32.242644   49.050759
   32.224891   48.986090
   32.223542   48.984058
   32.222070   48.983132
   32.219708   48.982320
   32.217134   48.982088
   32.214741   48.982396
   32.211178   48.983760
   32.209479   48.985502
   32.203773   48.987196
   32.201704   48.988158
   32.198080   48.987663
   32.195088   48.987898
   32.191797   48.989071
   32.189947   48.990544
   32.188917   48.990911
   32.187811   48.990229
   32.189105   48.988128
   32.189499   48.985099
   32.187159   48.980919
   32.185948   48.973228
   32.183607   48.970333
   32.182211   48.969264
   32.179705   48.968372
   32.172347   48.967449
   32.165572   48.967739
   32.163960   48.966399
   32.162246   48.965565
   32.158192   48.964549
   32.154872   48.964539
   32.144669   48.963680
   32.142728   48.963241
   32.140661   48.961096
   32.141734   48.955657
   32.145788   48.955407
   32.151598   48.953272
   32.159222   48.947278
   32.160430   48.945158
   32.160546   48.941844
   32.159100   48.938981
   32.159420   48.925225
   32.158220   48.921902
   32.158458   48.915849
   32.157034   48.913753
   32.153551   48.910927
   32.149402   48.908336
   32.146117   48.907753
   32.114577   48.907525
   32.112360   48.906873
   32.112163   48.901589
   32.111469   48.900344
   32.109753   48.898990
   32.108015   48.898316
   32.106055   48.898002
   32.097419   48.898532
   32.094885   48.899250
   32.092795   48.900787
   32.089755   48.900810
   32.086171   48.900351
   32.083491   48.900754
   32.081182   48.901770
   32.079543   48.903204
   32.078881   48.904945
   32.079570   48.907132
   32.081713   48.908807
   32.083308   48.910966
   32.084620   48.911865
   32.086564   48.912617
   32.086807   48.913217
   32.083970   48.912862
   32.081232   48.913170
   32.078902   48.914164
   32.076724   48.916140
   32.056139   48.912687
   32.053471   48.912599
   32.049863   48.911872
   32.047107   48.912008
   32.045215   48.912576
   32.043669   48.913490
   32.040208   48.917611
   32.037079   48.918458
   32.026816   48.924559
   32.022230   48.921815
   32.018759   48.916044
   32.016741   48.914548
   32.013856   48.913369
   32.012612   48.910869
   32.011046   48.909671
   32.009395   48.909004
   32.006881   48.908632
   32.003555   48.908720
   31.999511   48.909817
   31.997388   48.910701
   31.991103   48.908362
   31.968451   48.903432
   31.963536   48.901793
   31.961609   48.901589
   31.959672   48.901748
   31.956295   48.902944
   31.954288   48.902362
   31.951256   48.902161
   31.950295   48.899648
   31.947018   48.896350
   31.945016   48.895057
   31.942863   48.893048
   31.938997   48.891707
   31.937557   48.890500
   31.936748   48.887539
   31.935948   48.886235
   31.926608   48.877257
   31.923995   48.875961
   31.920767   48.875605
   31.918231   48.876059
   31.916139   48.877104
   31.906737   48.884069
   31.905442   48.886099
   31.905575   48.888287
   31.911564   48.897857
   31.911423   48.903308
   31.896514   48.907704
   31.894663   48.908010
   31.874605   48.914131
   31.870979   48.915531
   31.867998   48.917427
   31.850845   48.925323
   31.837146   48.931097
   31.834693   48.930025
   31.831471   48.929748
   31.827985   48.930660
   31.823457   48.931249
   31.821177   48.932157
   31.818907   48.932590
   31.816838   48.933596
   31.814296   48.935607
   31.811283   48.935948
   31.808959   48.936889
   31.807253   48.938237
   31.806453   48.939872
   31.805522   48.940343
   31.803467   48.938096
   31.799415   48.935433
   31.797513   48.934920
   31.773183   48.931020
   31.771074   48.929920
   31.763091   48.927451
   31.755359   48.922513
   31.752237   48.921591
   31.750171   48.921563
   31.748185   48.921940
   31.724134   48.929223
   31.709013   48.927855
   31.704089   48.927030
   31.705424   48.924862
   31.706124   48.921387
   31.705660   48.919861
   31.705725   48.917284
   31.702605   48.906218
   31.695678   48.894389
   31.694501   48.893290
   31.692884   48.892466
   31.690295   48.891919
   31.686940   48.892222
   31.680122   48.894122
   31.678665   48.894948
   31.677565   48.896075
   31.672709   48.895937
   31.668486   48.896622
   31.665618   48.895880
   31.661721   48.895803
   31.653641   48.897420
   31.647145   48.896087
   31.638810   48.895913
   31.636323   48.896627
   31.634449   48.897917
   31.632412   48.902114
   31.625145   48.901605
   31.623841   48.899997
   31.621857   48.898834
   31.611182   48.895453
   31.608048   48.895017
   31.606373   48.891968
   31.604634   48.890093
   31.602973   48.888931
   31.600729   48.888005
   31.597664   48.887195
   31.595256   48.887041
   31.590728   48.885978
   31.588571   48.885870
   31.587811   48.885434
   31.587353   48.883139
   31.586357   48.882001
   31.584985   48.881140
   31.586974   48.879459
   31.588802   48.875892
   31.588744   48.874265
   31.587466   48.871200
   31.584831   48.869052
   31.583151   48.868268
   31.581193   48.867846
   31.577770   48.867832
   31.568862   48.862679
   31.573041   48.859413
   31.573787   48.858138
   31.573919   48.856775
   31.573427   48.855448
   31.563299   48.839290
   31.565891   48.838505
   31.567362   48.837654
   31.568409   48.836566
   31.569004   48.834899
   31.568614   48.833207
   31.565361   48.827177
   31.563971   48.825649
   31.562393   48.824801
   31.534181   48.813774
   31.534963   48.803618
   31.534056   48.801929
   31.532223   48.800604
   31.530409   48.799977
   31.498711   48.792729
   31.471717   48.784758
   31.432593   48.763216
   31.441584   48.756494
   31.442695   48.754917
   31.442884   48.753616
   31.441938   48.751542
   31.429527   48.740034
   31.426800   48.738742
   31.423496   48.738390
   31.418683   48.739143
   31.415980   48.740579
   31.409040   48.735849
   31.405380   48.734184
   31.403050   48.733653
   31.400693   48.732000
   31.397378   48.730985
   31.394128   48.730444
   31.392227   48.730428
   31.391957   48.728143
   31.390375   48.725816
   31.388299   48.724516
   31.385482   48.723703
   31.379021   48.723267
   31.373381   48.724909
   31.367670   48.726025
   31.365707   48.727142
   31.363864   48.728985
   31.362633   48.731057
   31.362365   48.732770
   31.361396   48.733115
   31.361821   48.730630
   31.360272   48.726099
   31.358978   48.724564
   31.356892   48.723468
   31.353841   48.722778
   31.351892   48.722701
   31.349377   48.722857
   31.343991   48.723784
   31.339487   48.722982
   31.335675   48.721762
   31.332371   48.721274
   31.330236   48.721193
   31.326769   48.721742
   31.321813   48.723622
   31.319253   48.725859
   31.316743   48.726243
   31.314995   48.726982
   31.312913   48.729014
   31.312303   48.730383
   31.312323   48.731732
   31.310520   48.733710
   31.310038   48.735412
   31.310339   48.736699
   31.311933   48.738487
   31.312271   48.739706
   31.307614   48.743527
   31.305860   48.745741
   31.304886   48.748574
   31.304735   48.750479
   31.304945   48.751809
   31.306017   48.753473
   31.305538   48.754053
   31.302000   48.754438
   31.300088   48.754230
   31.293947   48.752563
   31.287906   48.752788
   31.282110   48.749745
   31.278631   48.748912
   31.274543   48.748982
   31.271798   48.747976
   31.268294   48.745390
   31.266045   48.744392
   31.262151   48.743940
   31.259949   48.744032
   31.257150   48.744566
   31.254856   48.745515
   31.250681   48.748845
   31.248708   48.751755
   31.248380   48.753582
   31.246356   48.755409
   31.245218   48.757533
   31.244861   48.759916
   31.245699   48.762064
   31.244626   48.762147
   31.239184   48.761786
   31.236367   48.760909
   31.232459   48.760474
   31.227777   48.760911
   31.222037   48.762621
   31.221864   48.757518
   31.221083   48.756052
   31.219716   48.754690
   31.215812   48.752907
   31.213891   48.752639
   31.211809   48.752760
   31.209416   48.751867
   31.206391   48.751228
   31.203754   48.751287
   31.201904   48.751762
   31.196407   48.754755
   31.194076   48.755623
   31.191609   48.755748
   31.188063   48.754924
   31.183905   48.754613
   31.179165   48.755384
   31.176440   48.756524
   31.169744   48.750387
   31.162907   48.740193
   31.156824   48.736371
   31.153008   48.735138
   31.150837   48.735062
   31.148141   48.735435
   31.145703   48.736286
   31.144153   48.737220
   31.142462   48.739694
   31.141623   48.740287
   31.140011   48.737791
   31.134582   48.733091
   31.132840   48.732434
   31.130883   48.732136
   31.128189   48.732086
   31.125758   48.732602
   31.125187   48.729337
   31.123918   48.726951
   31.122331   48.725505
   31.117070   48.723581
   31.113421   48.723159
   31.110635   48.723582
   31.108036   48.724673
   31.104441   48.725325
   31.100593   48.727009
   31.098637   48.728799
   31.098029   48.731309
   31.096592   48.732946
   31.096002   48.735071
   31.095717   48.735149
   31.096140   48.732036
   31.095784   48.730784
   31.094763   48.729448
   31.092212   48.727991
   31.087331   48.727149
   31.085126   48.727125
   31.082979   48.727482
   31.081132   48.728174
   31.076700   48.730748
   31.073141   48.731697
   31.070591   48.731736
   31.065682   48.732894
   31.062488   48.734873
   31.060786   48.737027
   31.059823   48.739971
   31.060612   48.742551
   31.058693   48.743361
   31.056845   48.744693
   31.054554   48.747004
   31.053715   48.748668
   31.051777   48.747746
   31.049811   48.747348
   31.047754   48.747350
   31.044113   48.747967
   31.040358   48.749255
   31.037600   48.751039
   31.036413   48.752566
   31.035004   48.755776
   31.030879   48.755647
   31.027189   48.756054
   31.023710   48.756973
   31.021679   48.757051
   31.019953   48.755829
   31.017409   48.754988
   31.011715   48.754557
   31.009918   48.753489
   31.007224   48.752731
   31.000920   48.752682
   30.999071   48.752981
   30.996932   48.753874
   30.990228   48.759380
   30.989083   48.759671
   30.975535   48.756797
   30.971032   48.756470
   30.968365   48.756805
   30.965188   48.756715
   30.963346   48.757121
   30.958437   48.759156
   30.955758   48.760746
   30.953550   48.762911
   30.953294   48.759612
   30.952257   48.757338
   30.949609   48.755285
   30.946269   48.754385
   30.942386   48.754678
   30.936995   48.756428
   30.932212   48.757206
   30.927454   48.756151
   30.921837   48.756031
   30.918360   48.755649
   30.914558   48.755953
   30.911880   48.756618
   30.909000   48.756917
   30.904216   48.757116
   30.902653   48.754244
   30.904506   48.749267
   30.904605   48.747847
   30.904103   48.745257
   30.902840   48.743655
   30.900425   48.741954
   30.898024   48.741097
   30.895614   48.740835
   30.889851   48.740835
   30.885040   48.739498
   30.881543   48.739341
   30.877710   48.740114
   30.874496   48.741662
   30.873199   48.742758
   30.871332   48.745295
   30.852633   48.746429
   30.849149   48.744224
   30.847291   48.743698
   30.845281   48.743549
   30.836061   48.745106
   30.832281   48.745040
   30.828829   48.745726
   30.827215   48.746558
   30.824097   48.749000
   30.823083   48.751101
   30.822512   48.754377
   30.817506   48.759456
   30.816535   48.761383
   30.814908   48.762996
   30.809590   48.754440
   30.807145   48.752941
   30.803914   48.752376
   30.801273   48.752695
   30.758700   48.763805
   30.757627   48.759377
   30.755846   48.757562
   30.752988   48.756497
   30.747251   48.756154
   30.735675   48.756167
   30.719127   48.756676
   30.698017   48.762516
   30.643553   48.748711
   30.642614   48.740179
   30.642001   48.737876
   30.641224   48.736682
   30.639451   48.735407
   30.636433   48.734573
   30.626310   48.734848
   30.615479   48.717409
   30.614018   48.715949
   30.611823   48.714962
   30.609223   48.714596
   30.607239   48.714765
   30.600606   48.716444
   30.591523   48.715702
   30.598995   48.709937
   30.605562   48.703072
   30.612979   48.702109
   30.614771   48.701569
   30.616660   48.700376
   30.617854   48.698379
   30.614968   48.684971
   30.613339   48.683016
   30.610725   48.681871
   30.608677   48.675695
   30.606035   48.670475
   30.606411   48.667139
   30.605587   48.665163
   30.605454   48.662528
   30.604906   48.661237
   30.603331   48.659786
   30.601026   48.658847
   30.555910   48.649585
   30.538133   48.628684
   30.543028   48.625738
   30.546054   48.625715
   30.549040   48.624683
   30.575489   48.609072
   30.577341   48.607284
   30.577770   48.605571
   30.576888   48.603488
   30.568347   48.596771
   30.570683   48.595866
   30.572680   48.594609
   30.573868   48.593588
   30.574571   48.592389
   30.574405   48.589592
   30.571498   48.581896
   30.574968   48.579965
   30.575817   48.578803
   30.576133   48.577530
   30.573179   48.566008
   30.572330   48.564769
   30.570959   48.563752
   30.568539   48.562895
   30.565803   48.562729
   30.546440   48.565411
   30.545048   48.563993
   30.542911   48.562997
   30.541019   48.562636
   30.537199   48.562601
   30.535322   48.561729
   30.533340   48.561329
   30.531267   48.561335
   30.514247   48.563089
   30.513373   48.561612
   30.512121   48.560620
   30.510494   48.559900
   30.507973   48.559461
   30.499724   48.560236
   30.497110   48.561552
   30.496105   48.562680
   30.495640   48.563911
   30.493760   48.564080
   30.493273   48.562575
   30.492255   48.561422
   30.490193   48.560280
   30.488292   48.559816
   30.483376   48.559787
   30.480372   48.560708
   30.477687   48.561145
   30.476030   48.560903
   30.472180   48.560978
   30.469698   48.561661
   30.468205   48.562558
   30.466948   48.564122
   30.466671   48.565536
   30.450506   48.578130
   30.408258   48.570163
   30.394096   48.541682
   30.393308   48.526424
   30.392414   48.524723
   30.390010   48.523136
   30.386742   48.522501
   30.358907   48.521644
   30.352445   48.521025
   30.342376   48.519343
   30.328452   48.517625
   30.320119   48.513040
   30.309808   48.507948
   30.261975   48.501773
   30.262986   48.488877
   30.262375   48.487199
   30.260853   48.485793
   30.258640   48.484864
   30.221630   48.475359
   30.219140   48.475333
   30.216617   48.475917
   30.209161   48.479479
   30.199706   48.483484
   30.163253   48.497968
   30.158181   48.495195
   30.157730   48.493692
   30.157862   48.492386
   30.162358   48.487339
   30.162694   48.485985
   30.162397   48.484627
   30.161494   48.483390
   30.159874   48.482232
   30.159631   48.480549
   30.158800   48.479357
   30.155598   48.477376
   30.154504   48.475208
   30.152378   48.473842
   30.150409   48.470248
   30.149075   48.469252
   30.147360   48.468553
   30.139970   48.466474
   30.137229   48.466154
   30.137173   48.464336
   30.136400   48.461892
   30.134965   48.459962
   30.132336   48.458684
   30.129145   48.458025
   30.126816   48.457906
   30.127586   48.453137
   30.126817   48.451442
   30.125118   48.450071
   30.123385   48.449384
   30.115754   48.447825
   30.110877   48.447459
   30.102374   48.448617
   30.090717   48.450900
   30.083337   48.454069
   30.081539   48.455238
   30.079244   48.457922
   30.077759   48.462285
   30.074984   48.462924
   30.071779   48.464515
   30.069658   48.464665
   30.066567   48.465624
   30.062377   48.468668
   30.057422   48.473746
   30.050544   48.476159
   30.047032   48.477945
   30.008703   48.474388
   30.009330   48.472402
   30.008558   48.470288
   30.006375   48.468654
   30.003285   48.467879
   29.970282   48.467319
   29.967170   48.467022
   29.958884   48.468545
   29.957148   48.469210
   29.955426   48.470553
   29.954611   48.472225
   29.954675   48.473545
   29.959836   48.492362
   29.960474   48.493611
   29.961633   48.494685
   29.963813   48.495693
   29.966411   48.496081
   29.974014   48.494932
   29.974632   48.496193
   29.975772   48.497276
   29.977932   48.498300
   29.979855   48.498669
   29.994911   48.497326
   29.997858   48.509342
   29.989437   48.509832
   29.987474   48.510285
   29.985806   48.511102
   29.983272   48.513529
   29.982276   48.515410
   29.982217   48.517126
   29.983134   48.518732
   29.988242   48.523143
   29.990862   48.524402
   29.993343   48.525053
   29.998805   48.525661
   30.002574   48.525066
   30.005257   48.524163
   30.011556   48.524749
   30.013362   48.533110
   30.012152   48.534485
   30.011878   48.536988
   30.011304   48.537314
   30.005943   48.537540
   30.004133   48.538113
   30.002254   48.539362
   30.001143   48.541424
   30.001377   48.543093
   30.000673   48.544645
   30.000599   48.546911
   29.998589   48.548141
   29.996815   48.550328
   29.996609   48.552607
   29.998486   48.556704
   29.996907   48.558789
   29.996457   48.560177
   29.997508   48.570252
   29.989318   48.575126
   29.987431   48.575544
   29.969968   48.579253
   29.959563   48.578314
   29.957608   48.578561
   29.952973   48.579969
   29.950512   48.581609
   29.942301   48.591013
   29.941057   48.593731
   29.940839   48.596950
   29.944371   48.601589
   29.942978   48.604987
   29.943032   48.606721
   29.944344   48.608549
   29.944780   48.610359
   29.945796   48.611546
   29.947302   48.612479
   29.949834   48.613190
   29.961336   48.614736
   29.981087   48.616804
   29.979866   48.619920
   29.979907   48.621273
   29.980555   48.622557
   29.981901   48.623750
   29.982350   48.628652
   29.983275   48.629844
   29.985403   48.631486
   29.977595   48.630649
   29.975637   48.630856
   29.973319   48.631683
   29.971357   48.633414
   29.969734   48.637385
   29.966436   48.638024
   29.963402   48.639475
   29.962171   48.640504
   29.961440   48.641721
   29.960628   48.645529
   29.957142   48.645779
   29.955419   48.646410
   29.954039   48.647337
   29.953116   48.648483
   29.951081   48.653702
   29.948400   48.653329
   29.943634   48.653216
   29.941163   48.653822
   29.939639   48.654657
   29.938287   48.656145
   29.936254   48.661377
   29.935947   48.664250
   29.936340   48.665844
   29.916613   48.667050
   29.913910   48.667599
   29.912231   48.668459
   29.870905   48.697407
   29.863536   48.695412
   29.860956   48.695071
   29.857767   48.695571
   29.855292   48.696985
   29.854213   48.698563
   29.854114   48.700292
   29.856927   48.705642
   29.855167   48.707148
   29.854532   48.709405
   29.851902   48.710259
   29.849824   48.711967
   29.849201   48.713674
   29.849614   48.715408
   29.861153   48.736150
   29.862115   48.737314
   29.864707   48.738696
   29.867310   48.739115
   29.869315   48.738980
   29.875780   48.737465
   29.872502   48.739919
   29.870309   48.742338
   29.867239   48.743025
   29.865262   48.744169
   29.853797   48.756144
   29.852757   48.758286
   29.853610   48.760730
   29.797967   48.769898
   29.795648   48.770815
   29.794047   48.772249
   29.793411   48.773978
   29.793852   48.775756
   29.790383   48.776282
   29.783839   48.779666
   29.780042   48.779461
   29.778325   48.778413
   29.776477   48.777862
   29.773117   48.777793
   29.770645   48.778505
   29.761919   48.782516
   29.760012   48.783841
   29.758988   48.786010
   29.754888   48.843328
   29.752454   48.843907
   29.739968   48.848780
   29.729622   48.850257
   29.727819   48.850835
   29.725952   48.852088
   29.724856   48.854149
   29.720598   48.884739
   29.719176   48.886139
   29.716753   48.886718
   29.714343   48.887866
   29.708111   48.892181
   29.706086   48.893221
   29.703713   48.895063
   29.702699   48.896748
   29.702650   48.898110
   29.703220   48.899420
   29.707301   48.904037
   29.709041   48.905334
   29.710766   48.905970
   29.712694   48.906258
   29.715308   48.906063
   29.718095   48.904953
   29.720122   48.905805
   29.709521   48.907314
   29.705487   48.908847
   29.699846   48.911528
   29.689002   48.907833
   29.686378   48.907674
   29.683284   48.908396
   29.681051   48.909978
   29.674680   48.918490
   29.672968   48.919298
   29.661446   48.923014
   29.660136   48.924066
   29.659360   48.925326
   29.659188   48.926681
   29.659915   48.928417
   29.656325   48.930138
   29.647572   48.933430
   29.645927   48.934763
   29.645258   48.935976
   29.645138   48.937265
   29.645576   48.938523
   29.652818   48.948089
   29.645577   48.958344
   29.645189   48.960043
   29.645793   48.961715
   29.686264   48.999489
   29.679008   49.002944
   29.677347   49.004398
   29.676752   49.005709
   29.676780   49.007076
   29.677429   49.008376
   29.678788   49.009649
   29.677211   49.010542
   29.675917   49.012054
   29.675583   49.013774
   29.676320   49.015524
   29.674912   49.017702
   29.673000   49.018146
   29.671582   49.017199
   29.667656   49.015636
   29.662200   49.012555
   29.658767   49.011461
   29.655186   49.009680
   29.651908   49.009396
   29.648590   49.010256
   29.642329   49.007726
   29.639755   49.007270
   29.637111   49.007491
   29.634306   49.008659
   29.624949   49.018151
   29.622488   49.018980
   29.620737   49.020362
   29.619944   49.022084
   29.619658   49.027208
   29.618475   49.028544
   29.616072   49.034194
   29.612975   49.037432
   29.608696   49.040534
   29.606563   49.044141
   29.605217   49.047538
   29.604130   49.048935
   29.603389   49.051334
   29.599907   49.054550
   29.599153   49.056724
END
END
