crimea
1
   32.195198   45.396942
   32.195415   45.410923
   32.197010   45.425170
   32.200068   45.439610
   32.204442   45.453560
   32.210023   45.466968
   32.217203   45.480659
   32.225530   45.493683
   32.235105   45.506275
   32.245884   45.518376
   32.258710   45.530685
   32.263573   45.539918
   32.271706   45.552649
   32.281476   45.565507
   32.292255   45.577596
   32.303916   45.588895
   32.317215   45.600083
   32.331279   45.610376
   32.346314   45.619971
   32.362249   45.628825
   32.379009   45.636896
   32.396517   45.644146
   32.414691   45.650544
   32.433043   45.655950
   32.452695   45.660665
   32.474746   45.664671
   32.482664   45.670452
   32.497698   45.680038
   32.513633   45.688882
   32.530027   45.696780
   32.547521   45.704041
   32.565682   45.710450
   32.585108   45.716152
   32.600891   45.729715
   32.614955   45.739984
   32.629990   45.749558
   32.645925   45.758391
   32.662685   45.766443
   32.680228   45.773689
   32.698425   45.779993
   32.708315   45.789523
   32.721051   45.800199
   32.735095   45.810471
   32.750444   45.820246
   32.769120   45.830386
   32.772108   45.831146
   32.869401   45.837590
   32.966736   45.878324
   33.536747   46.015851
   33.584109   46.062038
   33.566067   46.101159
   33.565770   46.102912
   33.566443   46.104612
   33.581714   46.121613
   33.583134   46.122727
   33.611213   46.138446
   33.615547   46.139822
   33.630443   46.143654
   33.629288   46.145542
   33.626104   46.157345
   33.613254   46.209081
   33.610911   46.209593
   33.609382   46.210407
   33.607871   46.211854
   33.607261   46.213150
   33.607225   46.214516
   33.607883   46.216493
   33.608927   46.217619
   33.610668   46.218582
   33.608879   46.225865
   33.609166   46.227603
   33.610362   46.229134
   33.611752   46.230006
   33.613438   46.230557
   33.617227   46.231093
   33.620187   46.232227
   33.622159   46.232384
   33.624620   46.231946
   33.646581   46.234101
   33.648433   46.233947
   33.650143   46.233420
   33.655581   46.230279
   33.665825   46.226476
   33.670395   46.224083
   33.671868   46.222704
   33.675974   46.215014
   33.691689   46.209039
   33.698809   46.207948
   33.702559   46.206863
   33.739318   46.190067
   33.747310   46.191759
   33.755763   46.196094
   33.770395   46.201869
   33.783929   46.205406
   33.795894   46.207483
   33.811575   46.208316
   33.851347   46.203778
   33.865691   46.197814
   33.901060   46.174350
   33.943506   46.158662
   33.975034   46.145062
   33.988876   46.138168
   34.001701   46.130305
   34.053009   46.113970
   34.061430   46.118418
   34.067121   46.120895
   34.072887   46.122056
   34.081529   46.122059
   34.119854   46.111473
   34.125231   46.109575
   34.132403   46.105782
   34.140668   46.099677
   34.149718   46.089855
   34.172239   46.078325
   34.175474   46.076957
   34.181873   46.073159
   34.186682   46.071113
   34.235614   46.060322
   34.248708   46.057737
   34.251643   46.057705
   34.263227   46.059269
   34.317962   46.072491
   34.320431   46.072723
   34.322838   46.072268
   34.336038   46.063788
   34.342276   46.061994
   34.351409   46.058330
   34.409737   46.012308
   34.413402   46.007464
   34.416785   46.000768
   34.417136   45.999541
   34.417022   45.996518
   34.419028   45.991623
   34.422839   45.987164
   34.428511   45.981365
   34.436397   45.974137
   34.447668   45.964914
   34.454738   45.960021
   34.463188   45.954733
   34.469730   45.951319
   34.478438   45.948388
   34.482895   45.947415
   34.487413   45.946958
   34.497188   45.947074
   34.499366   45.947733
   34.506945   45.951583
   34.517308   45.957948
   34.521965   45.961790
   34.538385   45.977907
   34.539055   45.980938
   34.541440   45.983811
   34.544556   45.986504
   34.548873   45.992937
   34.552722   45.995723
   34.558619   45.998531
   34.575666   46.000178
   34.586048   46.000081
   34.601939   45.998657
   34.608311   45.997391
   34.631752   45.990312
   34.658519   45.979258
   34.673937   45.971153
   34.706986   45.948677
   34.725666   45.934602
   34.757490   45.912742
   34.804124   45.904954
   34.806300   45.904095
   34.807535   45.903096
   34.808307   45.901886
   34.808550   45.900570
   34.805535   45.813629
   34.866352   45.798397
   34.879039   45.794468
   34.895497   45.788579
   34.914048   45.781120
   34.944472   45.769695
   34.949260   45.767613
   34.960306   45.761814
   34.974052   45.766457
   35.232397   45.796195
   35.234848   45.796139
   35.236567   45.795665
   35.244356   45.791802
   35.257728   45.784179
   35.270970   45.775561
   35.282800   45.766784
   35.294061   45.757262
   35.304407   45.747245
   35.314005   45.736517
   35.322175   45.725895
   35.329522   45.714654
   35.335939   45.702815
   35.340984   45.691278
   35.342893   45.685652
   35.350599   45.682306
   35.364989   45.675118
   35.378360   45.667479
   35.391304   45.659051
   35.403712   45.649826
   35.414693   45.640506
   35.425038   45.630469
   35.434635   45.619720
   35.442806   45.609076
   35.450152   45.597812
   35.456568   45.585950
   35.461613   45.574389
   35.465190   45.563555
   35.485135   45.556381
   35.500180   45.549868
   35.514585   45.542679
   35.528289   45.534844
   35.541233   45.526396
   35.553361   45.517371
   35.564621   45.507808
   35.572448   45.500199
   35.576024   45.510996
   35.581143   45.522867
   35.587358   45.534475
   35.594644   45.545770
   35.602968   45.556706
   35.612295   45.567234
   35.622586   45.577310
   35.633795   45.586891
   35.645874   45.595937
   35.658772   45.604408
   35.672434   45.612270
   35.686800   45.619488
   35.701810   45.626033
   35.717399   45.631875
   35.733500   45.636992
   35.750044   45.641361
   35.766961   45.644963
   35.783773   45.647727
   35.801621   45.649812
   35.819217   45.651037
   35.836889   45.651455
   35.854152   45.651083
   35.871754   45.649904
   35.889209   45.647922
   35.906441   45.645147
   35.923769   45.641497
   35.939945   45.637264
   35.956073   45.632190
   35.971693   45.626388
   35.982665   45.621648
   35.993137   45.623875
   36.009950   45.626640
   36.027389   45.628687
   36.045394   45.629951
   36.062654   45.630369
   36.070643   45.630206
   36.085280   45.636660
   36.100869   45.642502
   36.116969   45.647618
   36.134313   45.652117
   36.338837   45.676022
   36.584308   45.639616
   36.669343   45.631099
   36.671140   45.630722
   36.672706   45.629991
   36.674203   45.628579
   36.674822   45.626868
   36.687940   45.456859
   36.669828   45.359346
   36.669293   45.358040
   36.668235   45.356906
   36.627688   45.325130
   36.608912   45.307412
   36.600092   45.281869
   36.600555   45.252593
   36.599757   45.250351
   36.590835   45.241271
   36.559082   45.218662
   36.537081   45.197895
   36.540173   45.175723
   36.549141   45.134869
   36.574198   45.051702
   36.604482   44.969718
   36.615852   44.941927
   36.616104   44.940604
   36.615800   44.939287
   36.614966   44.938089
   36.604347   44.927267
   36.591321   44.916197
   36.577571   44.905996
   36.562227   44.896065
   36.546293   44.887099
   36.529899   44.879088
   36.512405   44.871721
   36.494242   44.865217
   36.475496   44.859606
   36.456252   44.854914
   36.436178   44.851094
   36.416206   44.848323
   36.396015   44.846525
   36.376133   44.845715
   36.364741   44.845793
   36.352460   44.840639
   36.334679   44.834280
   36.315525   44.828555
   36.296689   44.823971
   36.277038   44.820219
   36.257073   44.817426
   36.236885   44.815606
   36.216569   44.814767
   36.196219   44.814914
   36.175931   44.816045
   36.155800   44.818156
   36.135918   44.821237
   36.116379   44.825272
   36.103466   44.828628
   36.090611   44.823231
   36.072830   44.816870
   36.054083   44.811254
   36.034840   44.806558
   36.015189   44.802805
   35.994793   44.799962
   35.974601   44.798162
   35.954283   44.797344
   35.934369   44.797498
   35.924947   44.798018
   35.919864   44.796792
   35.900205   44.793058
   35.880234   44.790284
   35.860042   44.788485
   35.840160   44.787674
   35.819810   44.787821
   35.799089   44.788988
   35.778961   44.791121
   35.759508   44.794146
   35.739555   44.798280
   35.720461   44.803273
   35.702282   44.809043
   35.683933   44.815969
   35.666670   44.823611
   35.650526   44.831881
   35.633742   44.841851
   35.624795   44.831690
   35.612867   44.819997
   35.599842   44.808907
   35.586092   44.798686
   35.570748   44.788738
   35.555164   44.779938
   35.538420   44.771728
   35.520544   44.764199
   35.502764   44.757832
   35.484017   44.752210
   35.464773   44.747509
   35.445122   44.743752
   35.425156   44.740955
   35.413990   44.739942
   35.402660   44.734336
   35.395569   44.723102
   35.385998   44.710343
   35.375465   44.698331
   35.363563   44.686599
   35.350272   44.675239
   35.336521   44.664995
   35.321509   44.655225
   35.305594   44.646204
   35.288851   44.637975
   35.271356   44.630578
   35.262148   44.627261
   35.250694   44.620789
   35.233933   44.612574
   35.216806   44.605340
   35.198642   44.598806
   35.179895   44.593168
   35.160650   44.588455
   35.140999   44.584686
   35.120599   44.581832
   35.100842   44.580054
   35.080524   44.579212
   35.059735   44.579374
   35.039448   44.580531
   35.019750   44.582616
   34.999443   44.585786
   34.979911   44.589858
   34.961220   44.594752
   34.942638   44.600660
   34.928412   44.606036
   34.912818   44.603067
   34.893277   44.600334
   34.872651   44.598478
   34.852769   44.597665
   34.832418   44.597812
   34.809608   44.599204
   34.797289   44.594791
   34.778530   44.589173
   34.759275   44.584479
   34.738983   44.580642
   34.735287   44.577900
   34.720585   44.568331
   34.704671   44.559297
   34.687927   44.551056
   34.671138   44.544005
   34.661185   44.530545
   34.650437   44.518229
   34.638535   44.506462
   34.627992   44.497406
   34.626153   44.491471
   34.620571   44.477833
   34.613563   44.464204
   34.605268   44.450945
   34.595509   44.437850
   34.584736   44.425526
   34.572810   44.413752
   34.560075   44.402816
   34.546036   44.392293
   34.530694   44.382275
   34.515110   44.373414
   34.498367   44.365147
   34.480453   44.357552
   34.461779   44.350924
   34.451626   44.343333
   34.436924   44.333726
   34.420660   44.324471
   34.404266   44.316382
   34.386772   44.308944
   34.368608   44.302376
   34.359275   44.299549
   34.350515   44.290888
   34.337779   44.279928
   34.323741   44.269384
   34.308730   44.259547
   34.292466   44.250280
   34.276072   44.242181
   34.258578   44.234733
   34.240414   44.228157
   34.221665   44.222483
   34.201999   44.217647
   34.182766   44.213947
   34.162796   44.211124
   34.142604   44.209285
   34.121843   44.208430
   34.101929   44.208585
   34.094262   44.209011
   34.087721   44.206241
   34.069543   44.199681
   34.050781   44.194024
   34.031525   44.189297
   34.011863   44.185524
   33.991887   44.182721
   33.971690   44.180902
   33.951368   44.180075
   33.931014   44.180245
   33.910724   44.181410
   33.890592   44.183566
   33.871140   44.186624
   33.856871   44.189600
   33.836361   44.185595
   33.815956   44.182721
   33.796199   44.180930
   33.775878   44.180082
   33.755084   44.180245
   33.734794   44.181410
   33.714662   44.183566
   33.694601   44.186742
   33.692419   44.187617
   33.690628   44.189429
   33.690224   44.190734
   33.690376   44.192066
   33.755568   44.390383
   33.756971   44.392565
   33.758372   44.393646
   33.763665   44.396396
   33.767356   44.397258
   33.773642   44.398068
   33.778506   44.399486
   33.777986   44.401187
   33.775578   44.404217
   33.775209   44.405929
   33.775773   44.407613
   33.776765   44.408709
   33.778156   44.409559
   33.779832   44.410094
   33.785130   44.410466
   33.791309   44.410281
   33.795467   44.409796
   33.797990   44.408892
   33.799832   44.409294
   33.801943   44.410473
   33.806521   44.411816
   33.811030   44.413994
   33.814508   44.414838
   33.825007   44.416177
   33.827532   44.415672
   33.829653   44.414558
   33.840625   44.419783
   33.844375   44.421264
   33.849443   44.422413
   33.851670   44.422613
   33.854836   44.423846
   33.858078   44.424368
   33.866537   44.424025
   33.870691   44.423451
   33.874862   44.423946
   33.877734   44.425080
   33.881884   44.425533
   33.883692   44.425537
   33.886759   44.425039
   33.897922   44.425995
   33.901055   44.425466
   33.905467   44.423451
   33.908984   44.423413
   33.916904   44.424253
   33.908802   44.437319
   33.904049   44.445903
   33.894130   44.461225
   33.891807   44.465665
   33.891169   44.467661
   33.887582   44.471515
   33.887150   44.473742
   33.888466   44.476764
   33.885703   44.477329
   33.882627   44.478856
   33.868917   44.489644
   33.863260   44.495398
   33.861971   44.497162
   33.860939   44.499677
   33.860782   44.502232
   33.857771   44.502622
   33.855648   44.503704
   33.854496   44.504713
   33.848351   44.512356
   33.845093   44.514319
   33.841918   44.515458
   33.839973   44.517068
   33.839203   44.519702
   33.840028   44.521892
   33.841222   44.522969
   33.844145   44.524347
   33.846266   44.525745
   33.841522   44.525523
   33.838159   44.525873
   33.836030   44.526816
   33.834299   44.528622
   33.833794   44.530010
   33.834196   44.534615
   33.833667   44.536550
   33.829416   44.538347
   33.828215   44.539405
   33.827511   44.540668
   33.827661   44.543710
   33.829753   44.546964
   33.827762   44.549227
   33.825062   44.553341
   33.821271   44.561916
   33.820733   44.569389
   33.819580   44.570485
   33.817741   44.572067
   33.816730   44.571036
   33.814618   44.569886
   33.812914   44.569409
   33.811089   44.569295
   33.808226   44.569746
   33.805895   44.570801
   33.803001   44.571215
   33.800620   44.572566
   33.797840   44.576110
   33.794929   44.575778
   33.792057   44.576360
   33.790229   44.577459
   33.787155   44.580925
   33.784101   44.581711
   33.782183   44.582875
   33.781052   44.584474
   33.780504   44.587602
   33.778223   44.590325
   33.775616   44.596120
   33.774997   44.600071
   33.775822   44.603449
   33.776540   44.604805
   33.776100   44.607358
   33.766649   44.604703
   33.761972   44.604112
   33.755511   44.604134
   33.751525   44.603551
   33.745999   44.601739
   33.739061   44.597100
   33.736703   44.596463
   33.734181   44.596523
   33.731890   44.597272
   33.723678   44.601883
   33.722731   44.603068
   33.721332   44.606645
   33.716317   44.612588
   33.710385   44.618690
   33.709913   44.620042
   33.710045   44.621433
   33.711411   44.625653
   33.713370   44.629438
   33.711452   44.630823
   33.710506   44.632859
   33.711388   44.638341
   33.711998   44.639649
   33.713136   44.640766
   33.715137   44.641803
   33.719775   44.642602
   33.720439   44.642939
   33.722794   44.647446
   33.725309   44.650117
   33.743626   44.663548
   33.746460   44.666179
   33.746220   44.668979
   33.747452   44.674774
   33.749689   44.678207
   33.753534   44.680147
   33.760284   44.684451
   33.762962   44.685729
   33.768237   44.690166
   33.765119   44.692979
   33.763297   44.693204
   33.761629   44.693798
   33.759462   44.695677
   33.753549   44.694436
   33.751147   44.694287
   33.748839   44.694780
   33.742913   44.697191
   33.733909   44.701962
   33.730391   44.704356
   33.723382   44.711614
   33.721537   44.711375
   33.720786   44.705054
   33.719836   44.703378
   33.718552   44.702369
   33.715674   44.701421
   33.705211   44.700393
   33.702136   44.700907
   33.700597   44.701706
   33.699459   44.702792
   33.698737   44.704516
   33.698908   44.709532
   33.698149   44.710068
   33.691520   44.708086
   33.674394   44.705486
   33.670837   44.705221
   33.668995   44.705406
   33.664980   44.706515
   33.657524   44.709619
   33.637739   44.708348
   33.623408   44.708494
   33.615858   44.707457
   33.613995   44.707711
   33.612321   44.708342
   33.610335   44.710066
   33.609743   44.711803
   33.609310   44.719841
   33.608818   44.721048
   33.608500   44.725709
   33.606884   44.726612
   33.605653   44.727877
   33.604189   44.732938
   33.604431   44.738162
   33.605620   44.740486
   33.607526   44.742009
   33.607045   44.747151
   33.607365   44.750487
   33.607965   44.751793
   33.609566   44.753223
   33.611834   44.754089
   33.629072   44.756038
   33.632910   44.757073
   33.642068   44.760508
   33.667187   44.769170
   33.675542   44.772529
   33.673370   44.777799
   33.671527   44.783796
   33.664960   44.788519
   33.661141   44.790750
   33.656313   44.792344
   33.636656   44.797239
   33.618580   44.802294
   33.603450   44.805720
   33.599534   44.805423
   33.587455   44.803361
   33.584997   44.803480
   33.583296   44.804001
   33.581490   44.805189
   33.575330   44.811196
   33.571980   44.815692
   33.566057   44.824951
   33.562466   44.832290
   33.561455   44.835699
   33.560612   44.836041
   33.558816   44.835620
   33.556045   44.835471
   33.551197   44.836262
   33.293730   44.935930
   33.270952   44.935978
   33.250233   44.937142
   33.230535   44.939213
   33.210654   44.942287
   33.190703   44.946410
   33.171609   44.951390
   33.153430   44.957145
   33.139674   44.962312
   33.131219   44.965000
   33.113261   44.971771
   33.096359   44.979221
   33.085124   44.984948
   33.080236   44.985969
   33.061142   44.990945
   33.042573   44.996831
   33.024615   45.003599
   33.007352   45.011217
   32.991209   45.019459
   32.975554   45.028649
   32.960519   45.038791
   32.947086   45.049178
   32.940888   45.054664
   32.932345   45.058437
   32.915857   45.066862
   32.900547   45.075855
   32.885817   45.085769
   32.872079   45.096367
   32.859136   45.107849
   32.847830   45.119418
   32.837433   45.131761
   32.828247   45.144584
   32.818480   45.141121
   32.800128   45.135666
   32.782859   45.131474
   32.769384   45.126691
   32.751032   45.121234
   32.731790   45.116564
   32.712141   45.112831
   32.691749   45.110004
   32.671559   45.108214
   32.651244   45.107401
   32.630897   45.107568
   32.611044   45.108680
   32.590915   45.110779
   32.571035   45.113844
   32.551498   45.117858
   32.532395   45.122803
   32.513814   45.128657
   32.495843   45.135390
   32.485758   45.139810
   32.474234   45.140466
   32.454109   45.142585
   32.434656   45.145593
   32.415119   45.149605
   32.395614   45.154663
   32.377045   45.160532
   32.359087   45.167280
   32.341824   45.174876
   32.325337   45.183283
   32.309701   45.192463
   32.294991   45.202372
   32.281274   45.212963
   32.268614   45.224188
   32.257071   45.235993
   32.246910   45.248052
   32.237731   45.260840
   32.229812   45.274036
   32.223191   45.287579
   32.217798   45.301708
   32.213889   45.315758
   32.211393   45.329650
   32.210971   45.334627
   32.208060   45.340621
   32.202897   45.354138
   32.198958   45.368171
   32.196391   45.382357
   32.195198   45.396942
END
END
