dnipropetrovsk
1
   32.953358   47.597781
   32.955344   47.600223
   32.963893   47.605081
   32.964755   47.606817
   32.967229   47.608700
   32.970853   47.609640
   32.973801   47.609457
   32.976782   47.610694
   32.980732   47.611042
   32.980226   47.613984
   32.981387   47.616190
   32.983032   47.618036
   32.984807   47.619371
   32.986449   47.620118
   32.989088   47.620651
   32.987481   47.622663
   32.986924   47.624230
   32.987405   47.629833
   32.974265   47.683417
   32.965622   47.721998
   32.965618   47.723320
   32.966184   47.724587
   32.968245   47.726287
   32.970610   47.727049
   33.001060   47.730260
   33.000813   47.732357
   33.001484   47.734017
   33.003032   47.735390
   33.005849   47.736404
   33.064324   47.742688
   33.061225   47.756358
   33.056165   47.755533
   33.053544   47.755593
   33.050638   47.756591
   33.048771   47.758387
   33.045367   47.771254
   33.043161   47.782064
   33.044186   47.784213
   33.046632   47.785762
   33.048540   47.786235
   33.057634   47.787353
   33.053265   47.799980
   33.053372   47.801617
   33.054846   47.804689
   33.052909   47.811787
   33.051432   47.813354
   33.050914   47.814560
   33.051539   47.819046
   33.048158   47.831866
   33.048692   47.833573
   33.049709   47.834693
   33.051162   47.835572
   33.053545   47.836238
   33.052465   47.850220
   33.054237   47.859975
   33.055742   47.861964
   33.057864   47.863052
   33.067506   47.864266
   33.063180   47.882261
   33.063362   47.883627
   33.064147   47.884893
   33.065999   47.886228
   33.067826   47.886845
   33.078855   47.888473
   33.072789   47.914994
   33.060181   47.913120
   33.051094   47.911291
   33.014779   47.905904
   33.012001   47.906078
   33.001462   47.909082
   32.999699   47.909823
   32.998357   47.910889
   32.994818   47.916409
   32.993154   47.920417
   32.991915   47.921866
   32.991186   47.924781
   32.986061   47.934524
   32.986591   47.936699
   32.987639   47.937829
   32.989133   47.938707
   32.991590   47.939355
   33.000098   47.940384
   32.995653   47.962880
   32.993645   47.962995
   32.991223   47.963748
   32.989426   47.965070
   32.988535   47.966756
   32.987752   47.980674
   32.987861   47.984817
   32.988686   47.986528
   32.989928   47.987595
   32.994246   47.989860
   32.998584   47.991267
   33.000598   47.992774
   33.003038   47.993523
   33.005715   47.993749
   33.009012   47.993216
   33.013635   47.991345
   33.014516   47.993497
   33.015877   47.994901
   33.016371   47.996426
   33.017574   47.997978
   33.016914   47.999932
   33.016925   48.001442
   33.017442   48.002772
   33.018764   48.004194
   33.016889   48.006729
   33.015213   48.012919
   33.015483   48.014633
   33.016307   48.015806
   33.018109   48.017036
   33.019843   48.017611
   33.025189   48.018433
   33.027363   48.020169
   33.025486   48.027788
   33.025056   48.031650
   33.025646   48.032886
   33.026736   48.033959
   33.028235   48.034781
   33.030627   48.035368
   33.032762   48.037327
   33.035910   48.038250
   33.063714   48.041158
   33.093696   48.044749
   33.097997   48.045553
   33.097237   48.047586
   33.097692   48.051186
   33.096358   48.054708
   33.096299   48.056048
   33.097061   48.058692
   33.099207   48.060917
   33.098599   48.062649
   33.098753   48.064706
   33.099902   48.066815
   33.101031   48.067957
   33.103226   48.069032
   33.108886   48.070130
   33.111523   48.069824
   33.113544   48.068992
   33.115892   48.068992
   33.117811   48.068563
   33.119914   48.067441
   33.121026   48.066175
   33.137011   48.067879
   33.134916   48.076196
   33.135461   48.078334
   33.136941   48.079766
   33.138525   48.080534
   33.143517   48.081864
   33.146582   48.081990
   33.146463   48.083867
   33.147095   48.085201
   33.148934   48.086771
   33.150948   48.087722
   33.167086   48.089584
   33.168941   48.090723
   33.171469   48.091343
   33.217404   48.096003
   33.215967   48.102576
   33.187681   48.099718
   33.183524   48.100122
   33.181088   48.100843
   33.179258   48.102140
   33.178460   48.103371
   33.174943   48.117808
   33.175105   48.119123
   33.175986   48.120586
   33.177217   48.121628
   33.179456   48.122562
   33.211492   48.125922
   33.213056   48.127410
   33.215269   48.128337
   33.224944   48.129533
   33.221533   48.144241
   33.217443   48.143872
   33.214832   48.144143
   33.212110   48.145382
   33.210585   48.147335
   33.205977   48.169705
   33.206658   48.171865
   33.208784   48.173552
   33.211849   48.174364
   33.241977   48.177001
   33.245217   48.176753
   33.247905   48.175516
   33.249415   48.173580
   33.253031   48.156526
   33.271549   48.158323
   33.274983   48.157654
   33.277038   48.156497
   33.278406   48.154453
   33.282393   48.138894
   33.282257   48.137594
   33.281575   48.136374
   33.279256   48.134732
   33.283213   48.107201
   33.288358   48.106685
   33.290929   48.109751
   33.291115   48.111456
   33.291743   48.112759
   33.292924   48.113876
   33.295065   48.114871
   33.294958   48.119129
   33.296036   48.121114
   33.297257   48.122117
   33.299444   48.123019
   33.301990   48.123545
   33.305053   48.123532
   33.302960   48.124262
   33.301217   48.125612
   33.297623   48.131471
   33.288929   48.144076
   33.286533   48.146073
   33.285174   48.147711
   33.284650   48.149024
   33.284732   48.150383
   33.285413   48.151663
   33.287138   48.153052
   33.290834   48.154397
   33.309047   48.156119
   33.308812   48.158142
   33.309492   48.159812
   33.311565   48.161463
   33.313906   48.162197
   33.330930   48.162882
   33.351980   48.163258
   33.355256   48.166592
   33.357259   48.167474
   33.359170   48.167900
   33.362049   48.167919
   33.364450   48.167512
   33.373580   48.167024
   33.376338   48.168938
   33.378916   48.169692
   33.390714   48.170486
   33.424037   48.173882
   33.421668   48.184616
   33.423809   48.190298
   33.424719   48.191426
   33.426066   48.192339
   33.428973   48.193189
   33.471042   48.198158
   33.470703   48.200033
   33.471046   48.201331
   33.471933   48.202508
   33.473289   48.203463
   33.475622   48.204256
   33.485752   48.205492
   33.478880   48.212073
   33.478056   48.213728
   33.478228   48.215470
   33.479372   48.217037
   33.481896   48.218403
   33.483773   48.218780
   33.486256   48.218711
   33.492001   48.220156
   33.494041   48.232807
   33.495032   48.234402
   33.496326   48.235370
   33.498585   48.236205
   33.501146   48.236411
   33.515860   48.234565
   33.517908   48.233529
   33.519231   48.232056
   33.519639   48.230359
   33.519231   48.228067
   33.521731   48.228987
   33.523647   48.229339
   33.525633   48.229302
   33.527434   48.228904
   33.529187   48.229782
   33.529946   48.231409
   33.531742   48.233175
   33.538507   48.236717
   33.534495   48.247728
   33.532316   48.248099
   33.530617   48.248828
   33.529315   48.249860
   33.528527   48.251103
   33.523778   48.271739
   33.510992   48.273155
   33.508463   48.274511
   33.506828   48.276070
   33.506223   48.277267
   33.506223   48.278947
   33.507491   48.281171
   33.507720   48.283024
   33.508528   48.284339
   33.509904   48.285524
   33.508500   48.287348
   33.506429   48.287848
   33.504396   48.289026
   33.503413   48.290210
   33.502995   48.291989
   33.510243   48.326397
   33.506428   48.327660
   33.504600   48.327012
   33.498077   48.325961
   33.477948   48.324126
   33.472015   48.324601
   33.469584   48.325347
   33.467458   48.327065
   33.466536   48.330140
   33.470197   48.344864
   33.460968   48.345003
   33.457844   48.345814
   33.456393   48.346758
   33.455424   48.347948
   33.454039   48.352370
   33.453001   48.357388
   33.453582   48.359452
   33.463225   48.367104
   33.461828   48.368391
   33.461242   48.369644
   33.461555   48.377717
   33.460816   48.378860
   33.460575   48.380158
   33.460799   48.382940
   33.461741   48.384415
   33.461748   48.388622
   33.462515   48.390325
   33.464202   48.391698
   33.467198   48.392635
   33.478064   48.392662
   33.478501   48.394657
   33.480348   48.396497
   33.482638   48.397402
   33.486717   48.397849
   33.489424   48.399338
   33.489230   48.400163
   33.485869   48.399997
   33.482798   48.400691
   33.480563   48.402263
   33.479733   48.403915
   33.481564   48.424716
   33.482120   48.439198
   33.481459   48.440670
   33.462773   48.533086
   33.463156   48.535317
   33.464600   48.536839
   33.466817   48.537862
   33.470105   48.538573
   33.466080   48.543498
   33.465759   48.545262
   33.466204   48.546565
   33.467197   48.547723
   33.469219   48.548873
   33.476651   48.550723
   33.475165   48.558110
   33.475779   48.559791
   33.477292   48.561195
   33.478886   48.561940
   33.480731   48.562349
   33.503378   48.564959
   33.502737   48.567896
   33.503103   48.569632
   33.504886   48.571459
   33.507740   48.572514
   33.584775   48.580924
   33.588581   48.580189
   33.590128   48.579302
   33.591209   48.578147
   33.595338   48.565444
   33.614952   48.569533
   33.606880   48.589020
   33.603112   48.596710
   33.602517   48.599146
   33.602676   48.600494
   33.603423   48.601751
   33.605211   48.603092
   33.607637   48.603860
   33.625601   48.606735
   33.628191   48.606475
   33.630439   48.605573
   33.632005   48.604167
   33.632598   48.602827
   33.649208   48.604250
   33.651825   48.604130
   33.654176   48.603351
   33.655548   48.602402
   33.656636   48.600803
   33.657509   48.596635
   33.659647   48.596063
   33.661119   48.595237
   33.662404   48.593984
   33.662979   48.592659
   33.696449   48.609407
   33.710856   48.615236
   33.712453   48.615704
   33.718551   48.616533
   33.723590   48.618685
   33.730005   48.619701
   33.734480   48.621496
   33.736537   48.621712
   33.739009   48.621464
   33.742109   48.623175
   33.748623   48.625299
   33.751168   48.627049
   33.756301   48.628339
   33.752910   48.642695
   33.753683   48.645118
   33.752928   48.646230
   33.750876   48.651856
   33.749562   48.656832
   33.750208   48.659115
   33.752120   48.660814
   33.755454   48.661899
   33.795625   48.666635
   33.797925   48.681925
   33.757308   48.677061
   33.750279   48.676644
   33.748310   48.676853
   33.744874   48.678347
   33.743383   48.679842
   33.740814   48.688371
   33.730428   48.687609
   33.728386   48.687806
   33.726529   48.688407
   33.703592   48.702742
   33.702096   48.704081
   33.679251   48.718563
   33.649661   48.716597
   33.647837   48.717003
   33.645807   48.718044
   33.644748   48.719119
   33.644157   48.720464
   33.633353   48.719725
   33.626260   48.721592
   33.616447   48.723316
   33.614157   48.724266
   33.612362   48.726164
   33.603222   48.745646
   33.594476   48.743760
   33.592532   48.743664
   33.590029   48.744118
   33.588423   48.744859
   33.587200   48.745876
   33.585320   48.749181
   33.583253   48.749539
   33.581115   48.750528
   33.578610   48.753527
   33.578355   48.754905
   33.578956   48.757671
   33.574976   48.765586
   33.572608   48.775457
   33.571419   48.777883
   33.571238   48.779949
   33.571672   48.781769
   33.573531   48.783643
   33.575729   48.784654
   33.579397   48.785342
   33.576394   48.796664
   33.576564   48.798003
   33.577313   48.799250
   33.579093   48.800580
   33.581503   48.801345
   33.602761   48.803350
   33.605853   48.802732
   33.607793   48.801582
   33.608944   48.800027
   33.609708   48.797181
   33.615773   48.797883
   33.618954   48.797537
   33.620616   48.796860
   33.621921   48.795893
   33.623271   48.793173
   33.652481   48.796737
   33.658372   48.806306
   33.661137   48.808684
   33.661888   48.810254
   33.664808   48.813199
   33.667432   48.816650
   33.671057   48.818818
   33.677854   48.819741
   33.686115   48.818857
   33.689770   48.817507
   33.691588   48.816052
   33.692330   48.814906
   33.694502   48.816877
   33.697548   48.817764
   33.701115   48.817500
   33.705387   48.818394
   33.716101   48.818217
   33.718042   48.817852
   33.719734   48.817119
   33.721351   48.815688
   33.721982   48.814129
   33.724690   48.813230
   33.726654   48.811443
   33.729353   48.801653
   33.730862   48.794323
   33.733808   48.794526
   33.736732   48.794046
   33.739273   48.794261
   33.743599   48.798032
   33.745681   48.799140
   33.755300   48.800485
   33.756761   48.801546
   33.759045   48.802325
   33.769491   48.803631
   33.772684   48.803300
   33.775281   48.802013
   33.776523   48.800487
   33.777609   48.797160
   33.785950   48.798065
   33.785433   48.800294
   33.785771   48.802036
   33.787074   48.803559
   33.789145   48.804636
   33.810222   48.807277
   33.812236   48.807307
   33.814174   48.806937
   33.816773   48.805536
   33.817925   48.803916
   33.821927   48.793113
   33.822340   48.789643
   33.824930   48.779678
   33.830976   48.778509
   33.832713   48.777836
   33.834429   48.776466
   33.835479   48.774015
   33.845236   48.774872
   33.846391   48.778742
   33.843773   48.789099
   33.843636   48.791800
   33.841088   48.801829
   33.841147   48.803549
   33.842548   48.805476
   33.845260   48.806790
   33.854902   48.836433
   33.856328   48.839041
   33.857816   48.840579
   33.862249   48.842679
   33.867894   48.843743
   33.875499   48.865413
   33.878972   48.877675
   33.881271   48.881917
   33.882537   48.885324
   33.887196   48.902750
   33.889049   48.904783
   33.890476   48.905671
   33.892852   48.906364
   33.895442   48.906407
   33.897296   48.906005
   33.898901   48.905266
   33.907071   48.897905
   33.924947   48.886486
   33.928792   48.884563
   33.938099   48.883266
   33.946351   48.883194
   33.950854   48.882306
   33.984026   48.870101
   33.989518   48.869586
   33.993676   48.869930
   34.000365   48.871243
   34.011055   48.871514
   34.019245   48.870415
   34.024837   48.868668
   34.032650   48.863813
   34.037068   48.859910
   34.037757   48.858198
   34.038642   48.849270
   34.040197   48.846734
   34.045701   48.843791
   34.049215   48.842463
   34.056138   48.841114
   34.061032   48.839196
   34.069020   48.832691
   34.076235   48.828639
   34.077942   48.828007
   34.079786   48.827588
   34.082455   48.827490
   34.085286   48.827767
   34.093094   48.829467
   34.106887   48.830283
   34.113648   48.829394
   34.123860   48.826115
   34.127276   48.824044
   34.130979   48.820329
   34.132380   48.817839
   34.133355   48.814408
   34.133524   48.811480
   34.130645   48.804932
   34.128880   48.799424
   34.128341   48.793295
   34.129818   48.789798
   34.131596   48.787602
   34.135908   48.785296
   34.144285   48.781800
   34.151254   48.779662
   34.155348   48.779725
   34.170963   48.782573
   34.179143   48.781678
   34.193120   48.774520
   34.196175   48.772564
   34.202189   48.766242
   34.204882   48.764440
   34.219543   48.764081
   34.224363   48.763571
   34.230102   48.762277
   34.234148   48.760996
   34.237504   48.759753
   34.243548   48.755803
   34.252144   48.748572
   34.259878   48.747614
   34.269432   48.748995
   34.276226   48.749622
   34.288023   48.748288
   34.290588   48.747462
   34.300442   48.742335
   34.301839   48.741349
   34.302687   48.740218
   34.304717   48.740463
   34.303069   48.741536
   34.301895   48.743031
   34.301318   48.744431
   34.301294   48.746169
   34.302939   48.748577
   34.306148   48.750294
   34.306293   48.751700
   34.307330   48.753356
   34.305034   48.755404
   34.304157   48.756688
   34.303973   48.759107
   34.303048   48.760455
   34.302126   48.763911
   34.302088   48.765582
   34.302688   48.767042
   34.304615   48.768905
   34.307827   48.770387
   34.315789   48.771625
   34.316555   48.773967
   34.318840   48.776312
   34.323111   48.778908
   34.328757   48.781034
   34.331009   48.783082
   34.324500   48.786221
   34.318990   48.781743
   34.315473   48.780515
   34.297520   48.780032
   34.294417   48.780739
   34.292527   48.781966
   34.291651   48.783155
   34.291328   48.784463
   34.290410   48.820657
   34.290663   48.821964
   34.291469   48.823167
   34.292758   48.824163
   34.295668   48.825145
   34.318387   48.825592
   34.316832   48.827136
   34.316341   48.828834
   34.318627   48.844738
   34.319715   48.846794
   34.321552   48.848040
   34.323958   48.848725
   34.331616   48.848873
   34.338009   48.848148
   34.341503   48.846717
   34.343373   48.848324
   34.343856   48.850175
   34.343747   48.851711
   34.335040   48.851661
   34.332621   48.852276
   34.330725   48.853456
   34.329818   48.854609
   34.329439   48.855887
   34.330333   48.869165
   34.302519   48.880954
   34.301009   48.881828
   34.299709   48.883377
   34.299399   48.885142
   34.300129   48.886850
   34.302233   48.888756
   34.295440   48.892556
   34.293947   48.894052
   34.293447   48.895303
   34.299848   48.921451
   34.305731   48.942232
   34.323071   48.960743
   34.327301   48.964366
   34.332516   48.969764
   34.333584   48.971942
   34.343988   48.982684
   34.339007   48.985167
   34.337724   48.986217
   34.336784   48.988374
   34.337381   48.990408
   34.321416   48.995208
   34.320060   48.996196
   34.319197   48.997407
   34.319036   48.999626
   34.325646   49.010380
   34.326788   49.011604
   34.339953   49.019749
   34.342388   49.020524
   34.345520   49.020703
   34.345629   49.022363
   34.346726   49.023974
   34.355584   49.029546
   34.354033   49.031760
   34.353636   49.033089
   34.354046   49.034868
   34.355460   49.036400
   34.357654   49.037440
   34.367737   49.040422
   34.386389   49.045507
   34.384009   49.048814
   34.383588   49.050561
   34.384508   49.052678
   34.386811   49.054252
   34.407304   49.058016
   34.405152   49.062813
   34.403564   49.067860
   34.398700   49.072481
   34.397870   49.074064
   34.398190   49.076545
   34.400141   49.078814
   34.398917   49.083719
   34.395215   49.093687
   34.395551   49.095017
   34.396458   49.096221
   34.398375   49.097462
   34.400138   49.098115
   34.402110   49.098390
   34.404761   49.098133
   34.414800   49.094941
   34.463497   49.070609
   34.470735   49.077059
   34.472982   49.077914
   34.476189   49.078093
   34.479155   49.077257
   34.499015   49.067376
   34.502310   49.070597
   34.506521   49.072540
   34.509007   49.074596
   34.513176   49.076232
   34.516507   49.076459
   34.518440   49.076059
   34.520109   49.075294
   34.536321   49.065165
   34.540300   49.062856
   34.543356   49.061520
   34.545203   49.060178
   34.548892   49.059705
   34.554931   49.060786
   34.556744   49.060829
   34.559842   49.062630
   34.563016   49.063162
   34.564231   49.063823
   34.563015   49.065290
   34.562750   49.067317
   34.558382   49.070346
   34.557529   49.071487
   34.557190   49.073169
   34.559190   49.077527
   34.560146   49.078727
   34.559432   49.081187
   34.559995   49.083958
   34.562307   49.086475
   34.562201   49.088324
   34.563150   49.090352
   34.566120   49.092771
   34.565556   49.095637
   34.566702   49.097767
   34.571692   49.101055
   34.575222   49.101925
   34.577984   49.101815
   34.579823   49.101343
   34.583756   49.099050
   34.583713   49.100010
   34.582268   49.102907
   34.582160   49.105098
   34.582906   49.107113
   34.584042   49.108302
   34.584322   49.113006
   34.585891   49.114997
   34.588068   49.116066
   34.591233   49.116471
   34.594220   49.117505
   34.596932   49.117546
   34.600699   49.116798
   34.603129   49.118665
   34.615287   49.123495
   34.616661   49.124774
   34.617920   49.126718
   34.621136   49.128635
   34.625085   49.129571
   34.631984   49.130283
   34.637436   49.132107
   34.638679   49.133279
   34.640318   49.134146
   34.645876   49.135839
   34.649239   49.136078
   34.651790   49.135454
   34.654231   49.134134
   34.656838   49.131079
   34.658094   49.128895
   34.660088   49.128249
   34.664000   49.126007
   34.666009   49.123963
   34.674085   49.125018
   34.672537   49.129288
   34.673188   49.131422
   34.674302   49.132867
   34.677421   49.135018
   34.679304   49.135717
   34.682513   49.136157
   34.684412   49.137039
   34.687082   49.137543
   34.688624   49.138815
   34.690235   49.139588
   34.694263   49.140130
   34.698278   49.139290
   34.699929   49.138383
   34.701193   49.137209
   34.702941   49.134221
   34.704270   49.134255
   34.711042   49.136884
   34.714912   49.139610
   34.717892   49.140814
   34.721411   49.141261
   34.726582   49.140734
   34.730536   49.143469
   34.733808   49.147055
   34.736946   49.148638
   34.741986   49.149345
   34.744353   49.149115
   34.746283   49.148565
   34.748807   49.150178
   34.756382   49.151509
   34.758725   49.152768
   34.758772   49.153339
   34.755451   49.155507
   34.754095   49.157557
   34.753021   49.161241
   34.751047   49.164472
   34.750718   49.166535
   34.751083   49.167995
   34.752604   49.170661
   34.754707   49.172157
   34.756405   49.172750
   34.759345   49.173107
   34.760680   49.174260
   34.762857   49.175163
   34.767506   49.175527
   34.768068   49.175939
   34.768240   49.177374
   34.769005   49.178623
   34.771371   49.180198
   34.773240   49.180703
   34.777159   49.180990
   34.778279   49.182304
   34.779712   49.183209
   34.783814   49.184225
   34.785750   49.184200
   34.788260   49.183640
   34.791415   49.181723
   34.796818   49.183513
   34.804397   49.183633
   34.806891   49.183167
   34.808487   49.182421
   34.810335   49.180910
   34.811053   49.179698
   34.812981   49.178971
   34.815078   49.177398
   34.815800   49.178875
   34.814715   49.180353
   34.812736   49.185069
   34.812564   49.186370
   34.813204   49.188053
   34.815598   49.190218
   34.822463   49.192841
   34.826700   49.192809
   34.829257   49.193574
   34.836379   49.194292
   34.839539   49.195155
   34.842917   49.195045
   34.845949   49.195759
   34.854079   49.194906
   34.857990   49.195084
   34.860931   49.194330
   34.862824   49.193119
   34.863888   49.191516
   34.864056   49.189801
   34.863538   49.187791
   34.867754   49.186518
   34.881269   49.184757
   34.883511   49.183956
   34.885337   49.182437
   34.888453   49.182880
   34.892081   49.182780
   34.894021   49.182390
   34.896879   49.183045
   34.898922   49.183165
   34.903555   49.182479
   34.905448   49.181872
   34.907050   49.180957
   34.908279   49.179604
   34.908778   49.178231
   34.907625   49.173573
   34.904013   49.168542
   34.900387   49.165598
   34.894841   49.163550
   34.891201   49.162951
   34.880802   49.163582
   34.878434   49.164407
   34.876622   49.165930
   34.876018   49.165701
   34.877128   49.163480
   34.890856   49.159994
   34.893721   49.158030
   34.894954   49.156161
   34.898512   49.154712
   34.900195   49.155557
   34.902028   49.158607
   34.903967   49.159998
   34.905685   49.160730
   34.907650   49.161086
   34.909684   49.161033
   34.913567   49.159798
   34.914151   49.159859
   34.914391   49.165370
   34.915394   49.170657
   34.915716   49.176564
   34.919187   49.182854
   34.922030   49.185381
   34.923698   49.187557
   34.926929   49.189441
   34.929327   49.190127
   34.932572   49.190054
   34.935488   49.188906
   34.938789   49.192463
   34.939271   49.194512
   34.940661   49.195939
   34.945752   49.198070
   34.948970   49.198455
   34.951504   49.197997
   34.953625   49.196896
   34.956104   49.196162
   34.958885   49.196546
   34.961470   49.196181
   34.963566   49.195301
   34.965053   49.194135
   34.967698   49.193110
   34.969934   49.190926
   34.970658   49.188914
   34.970468   49.187073
   34.976081   49.186327
   34.981617   49.184396
   34.983162   49.183065
   34.984341   49.180521
   34.986956   49.178173
   34.989160   49.177660
   34.991218   49.176463
   34.993427   49.172993
   34.995819   49.173076
   34.997748   49.172706
   35.003536   49.169501
   35.010082   49.163936
   35.012667   49.162310
   35.014722   49.159900
   35.015091   49.157750
   35.017278   49.157129
   35.019308   49.155757
   35.024757   49.157047
   35.031288   49.157793
   35.038617   49.159796
   35.039469   49.162255
   35.043025   49.166355
   35.042236   49.168260
   35.042396   49.169874
   35.041248   49.172616
   35.041184   49.174500
   35.041636   49.175820
   35.043710   49.178335
   35.045503   49.179614
   35.050578   49.181183
   35.052512   49.181498
   35.057700   49.180836
   35.061336   49.180812
   35.064029   49.180353
   35.066519   49.179016
   35.068283   49.176783
   35.073382   49.174992
   35.078117   49.174344
   35.080801   49.173034
   35.081838   49.171883
   35.082356   49.170131
   35.081781   49.167910
   35.080881   49.166671
   35.083012   49.166202
   35.085065   49.165077
   35.086816   49.163035
   35.087777   49.160935
   35.087759   49.159629
   35.085846   49.154144
   35.087353   49.154748
   35.088576   49.157054
   35.092444   49.159697
   35.094323   49.160224
   35.096637   49.160381
   35.098689   49.161392
   35.103980   49.162764
   35.106574   49.162822
   35.108588   49.162374
   35.110746   49.163334
   35.113623   49.164057
   35.114731   49.165931
   35.116407   49.167211
   35.118223   49.168103
   35.121064   49.168873
   35.124082   49.168950
   35.126662   49.168439
   35.128739   49.167294
   35.130135   49.165733
   35.132922   49.165049
   35.134928   49.164051
   35.139303   49.163126
   35.141088   49.162251
   35.142760   49.160827
   35.143716   49.158923
   35.143676   49.157171
   35.142647   49.155389
   35.145298   49.154720
   35.146824   49.155084
   35.148055   49.157288
   35.152335   49.161892
   35.154640   49.163510
   35.157516   49.164804
   35.163522   49.166021
   35.172854   49.166290
   35.175592   49.165980
   35.178483   49.164912
   35.183684   49.166875
   35.186273   49.167347
   35.188285   49.167233
   35.191261   49.166571
   35.193403   49.165301
   35.195368   49.164698
   35.200011   49.162337
   35.203061   49.159936
   35.208590   49.159190
   35.211283   49.158215
   35.212650   49.157235
   35.214635   49.155028
   35.216663   49.151764
   35.216517   49.149537
   35.215988   49.148261
   35.214205   49.146579
   35.212693   49.145707
   35.210866   49.145169
   35.208885   49.145012
   35.199253   49.145702
   35.197119   49.144492
   35.197242   49.143316
   35.199545   49.142910
   35.202014   49.142069
   35.208063   49.138935
   35.219800   49.134521
   35.231815   49.130534
   35.234144   49.128925
   35.234988   49.127216
   35.234770   49.125422
   35.233619   49.123499
   35.232253   49.122366
   35.228807   49.120458
   35.226035   49.119793
   35.222226   49.119685
   35.220202   49.119957
   35.218594   49.120534
   35.216813   49.120568
   35.216231   49.118926
   35.214224   49.115678
   35.212126   49.114074
   35.210413   49.113491
   35.208525   49.113254
   35.206613   49.113384
   35.203257   49.114154
   35.200759   49.114032
   35.200257   49.113444
   35.205669   49.113366
   35.220151   49.111409
   35.223981   49.109947
   35.226952   49.108000
   35.230837   49.111834
   35.230416   49.113483
   35.231202   49.115783
   35.232504   49.117076
   35.234542   49.118145
   35.237030   49.118622
   35.244002   49.118490
   35.246827   49.117761
   35.249127   49.116324
   35.254722   49.117853
   35.259348   49.117796
   35.261930   49.116987
   35.264341   49.115303
   35.265628   49.112868
   35.265438   49.110281
   35.267872   49.109948
   35.270760   49.109051
   35.273176   49.107685
   35.274387   49.106556
   35.275125   49.105252
   35.275973   49.099995
   35.278095   49.100659
   35.281082   49.100920
   35.285677   49.100081
   35.287572   49.099225
   35.293867   49.099486
   35.296265   49.098991
   35.297969   49.098298
   35.300626   49.095716
   35.303454   49.096570
   35.306099   49.096812
   35.308062   49.096529
   35.311036   49.095581
   35.313209   49.094147
   35.314466   49.091821
   35.316514   49.090071
   35.319638   49.081721
   35.319253   49.076537
   35.318053   49.074348
   35.316314   49.072855
   35.318710   49.072606
   35.320959   49.071721
   35.322700   49.070568
   35.324433   49.068366
   35.325208   49.067939
   35.327424   49.068066
   35.329315   49.067817
   35.332698   49.066335
   35.336198   49.065866
   35.338571   49.065038
   35.341102   49.063177
   35.341969   49.060917
   35.345262   49.060252
   35.347748   49.058940
   35.350508   49.055869
   35.351066   49.054179
   35.350474   49.051079
   35.348716   49.048938
   35.353443   49.046628
   35.354684   49.045625
   35.359242   49.046174
   35.362164   49.046134
   35.365874   49.045518
   35.369098   49.044415
   35.371330   49.042817
   35.372268   49.040396
   35.376801   49.037940
   35.379612   49.037845
   35.382000   49.037049
   35.387671   49.033452
   35.389225   49.032046
   35.393499   49.033286
   35.395610   49.034281
   35.398769   49.035004
   35.402671   49.034869
   35.405086   49.034169
   35.407303   49.032442
   35.409282   49.031799
   35.410809   49.030906
   35.412406   49.028972
   35.413039   49.026989
   35.412941   49.025649
   35.412261   49.024386
   35.410890   49.023143
   35.412126   49.020309
   35.411945   49.018200
   35.414064   49.019002
   35.416003   49.019244
   35.417964   49.019100
   35.420829   49.018243
   35.424021   49.018507
   35.426825   49.017919
   35.429602   49.018370
   35.431612   49.018312
   35.435385   49.017362
   35.438344   49.016074
   35.442784   49.014800
   35.444866   49.013166
   35.445734   49.011057
   35.445349   49.009145
   35.443359   49.006658
   35.445024   49.005556
   35.447371   49.005545
   35.450425   49.004899
   35.453582   49.003014
   35.458711   49.002667
   35.461031   49.002120
   35.462912   49.001271
   35.464759   48.999758
   35.466825   48.996783
   35.466998   48.995089
   35.465915   48.993089
   35.470962   48.992442
   35.473284   48.991552
   35.476011   48.988970
   35.479055   48.987005
   35.480341   48.984805
   35.484099   48.985797
   35.486605   48.985850
   35.491098   48.984621
   35.494385   48.982486
   35.497157   48.982737
   35.499285   48.982464
   35.501965   48.984032
   35.502756   48.986026
   35.504468   48.987474
   35.507434   48.988549
   35.510621   48.988744
   35.512556   48.988442
   35.514798   48.987548
   35.517913   48.984747
   35.523442   48.983717
   35.525509   48.985526
   35.528622   48.986578
   35.531886   48.986952
   35.540266   48.986252
   35.542965   48.985420
   35.544349   48.984595
   35.546142   48.982887
   35.546927   48.981385
   35.550198   48.980597
   35.552384   48.980515
   35.554729   48.981459
   35.557984   48.981957
   35.560572   48.981790
   35.562649   48.981090
   35.566289   48.982482
   35.569871   48.983060
   35.572443   48.982847
   35.574962   48.982001
   35.577657   48.984413
   35.577022   48.986903
   35.578251   48.989391
   35.580588   48.990928
   35.583585   48.991700
   35.587330   48.991564
   35.590264   48.990510
   35.591903   48.991073
   35.594809   48.991423
   35.598446   48.990974
   35.600663   48.990066
   35.602211   48.988800
   35.603824   48.986007
   35.607060   48.986649
   35.613394   48.986304
   35.617957   48.987279
   35.624783   48.987747
   35.627694   48.987654
   35.630746   48.986871
   35.632665   48.985892
   35.634271   48.984333
   35.635150   48.982578
   35.634992   48.979684
   35.633929   48.977982
   35.632566   48.976777
   35.631688   48.972372
   35.632419   48.971382
   35.637576   48.971273
   35.640250   48.973618
   35.642655   48.976519
   35.645449   48.977906
   35.647390   48.978337
   35.650513   48.978543
   35.655402   48.978019
   35.660053   48.979044
   35.662108   48.978897
   35.664000   48.978341
   35.665950   48.977413
   35.667468   48.975989
   35.669880   48.976488
   35.673819   48.976811
   35.678653   48.976026
   35.681528   48.976505
   35.686603   48.976008
   35.689075   48.975217
   35.691196   48.973648
   35.697476   48.971594
   35.700780   48.969618
   35.703109   48.965830
   35.703069   48.963308
   35.701750   48.960058
   35.700478   48.958418
   35.701594   48.956728
   35.702254   48.954616
   35.702148   48.952532
   35.705023   48.951079
   35.707759   48.952091
   35.708446   48.953049
   35.706238   48.954799
   35.705360   48.956062
   35.705029   48.957676
   35.705384   48.959020
   35.706772   48.960646
   35.709529   48.962595
   35.710785   48.964809
   35.713957   48.967545
   35.716075   48.968807
   35.719196   48.970090
   35.722714   48.970970
   35.725460   48.971001
   35.728593   48.970168
   35.731284   48.971140
   35.733970   48.971264
   35.737811   48.970449
   35.740761   48.969103
   35.744762   48.965432
   35.745699   48.961619
   35.745299   48.960334
   35.744145   48.958983
   35.746291   48.955863
   35.746524   48.953159
   35.750468   48.952412
   35.751140   48.954527
   35.753535   48.957667
   35.756444   48.959239
   35.759059   48.959933
   35.764308   48.959535
   35.771854   48.957061
   35.773594   48.956231
   35.776369   48.954008
   35.777842   48.956805
   35.780091   48.958446
   35.783236   48.959169
   35.788601   48.959168
   35.792813   48.958198
   35.795610   48.956856
   35.797293   48.955372
   35.798275   48.953566
   35.798333   48.951133
   35.798016   48.949862
   35.796980   48.948420
   35.798400   48.948157
   35.801390   48.948186
   35.803212   48.947743
   35.805209   48.946652
   35.806504   48.945004
   35.809005   48.946125
   35.810810   48.946501
   35.814704   48.946837
   35.817648   48.946302
   35.822081   48.949913
   35.823221   48.951838
   35.824514   48.953124
   35.826072   48.954006
   35.829108   48.954818
   35.831027   48.954958
   35.833528   48.954572
   35.835163   48.953885
   35.837515   48.952279
   35.839896   48.951906
   35.842640   48.952659
   35.844646   48.952784
   35.846619   48.952506
   35.848803   48.951623
   35.847813   48.957257
   35.848210   48.958533
   35.849756   48.960523
   35.851262   48.961488
   35.853136   48.962099
   35.873169   48.966222
   35.877551   48.976821
   35.878901   48.978279
   35.880964   48.979295
   35.883443   48.979724
   35.886558   48.979504
   35.897040   48.976850
   35.899087   48.976858
   35.903881   48.977604
   35.905673   48.977565
   35.911634   48.976522
   35.915150   48.975132
   35.919490   48.977803
   35.922238   48.978551
   35.924098   48.978734
   35.923939   48.980075
   35.924612   48.981750
   35.926348   48.983638
   35.927847   48.984604
   35.929865   48.987628
   35.931388   48.989019
   35.931347   48.989445
   35.928744   48.991826
   35.928124   48.993108
   35.928095   48.994455
   35.929086   48.996943
   35.930992   48.998583
   35.932242   49.000879
   35.934190   49.002372
   35.937192   49.003276
   35.940089   49.003536
   35.942020   49.003323
   35.944301   49.002483
   35.954328   48.996867
   35.962735   48.991311
   35.982774   48.979240
   35.984065   48.978183
   35.992492   48.973615
   35.995384   48.971542
   35.996197   48.970367
   35.996479   48.969086
   35.995707   48.966625
   35.987367   48.960272
   36.007605   48.949956
   36.009335   48.948651
   36.010261   48.946566
   36.009841   48.944400
   36.005187   48.940179
   36.043569   48.920982
   36.046285   48.919959
   36.048816   48.918325
   36.049845   48.917236
   36.050426   48.915137
   36.050048   48.913873
   36.049154   48.912732
   36.021107   48.888746
   36.044249   48.877091
   36.045940   48.875781
   36.046771   48.874140
   36.046621   48.872411
   36.045872   48.871209
   36.028718   48.855615
   36.043448   48.848292
   36.053225   48.848680
   36.056376   48.848071
   36.058681   48.846699
   36.067561   48.843365
   36.072484   48.840771
   36.074726   48.838837
   36.079585   48.836894
   36.080993   48.835966
   36.081940   48.834805
   36.082690   48.832891
   36.082689   48.829184
   36.082071   48.827908
   36.080922   48.826809
   36.079341   48.825984
   36.077358   48.825481
   36.076717   48.822905
   36.077129   48.818058
   36.074249   48.813108
   36.075670   48.812631
   36.077280   48.812555
   36.082874   48.813244
   36.086870   48.812756
   36.092883   48.813325
   36.097501   48.812765
   36.101278   48.811921
   36.103396   48.813081
   36.105922   48.813575
   36.123674   48.813050
   36.126279   48.812661
   36.127972   48.811938
   36.129306   48.810875
   36.132046   48.810429
   36.134516   48.809171
   36.136244   48.807495
   36.140633   48.804595
   36.164209   48.787274
   36.165306   48.786184
   36.165966   48.784051
   36.165363   48.782350
   36.163842   48.780929
   36.161197   48.779536
   36.166107   48.768902
   36.166169   48.767566
   36.165646   48.766276
   36.164125   48.764821
   36.161884   48.763871
   36.151968   48.763207
   36.160801   48.755617
   36.167207   48.751667
   36.168353   48.750061
   36.168485   48.748283
   36.165793   48.744049
   36.151628   48.725599
   36.204604   48.699304
   36.213658   48.694358
   36.257419   48.673091
   36.262601   48.671751
   36.264911   48.670509
   36.269728   48.671185
   36.272822   48.670725
   36.275380   48.669254
   36.281108   48.666725
   36.285945   48.663998
   36.287058   48.662970
   36.289197   48.659094
   36.289294   48.657673
   36.288723   48.655777
   36.287208   48.653329
   36.285610   48.651984
   36.283979   48.651293
   36.281752   48.650918
   36.275116   48.647407
   36.273798   48.645438
   36.273766   48.644784
   36.274784   48.643265
   36.275305   48.640820
   36.275064   48.636478
   36.274360   48.635270
   36.273040   48.634109
   36.272349   48.632372
   36.270233   48.630449
   36.270042   48.628767
   36.268923   48.626188
   36.266763   48.624130
   36.265733   48.621751
   36.263988   48.620394
   36.267072   48.618556
   36.269273   48.616248
   36.270357   48.614216
   36.273761   48.613054
   36.278114   48.612515
   36.280469   48.611711
   36.284972   48.609275
   36.323351   48.590921
   36.325494   48.589226
   36.326169   48.587500
   36.325795   48.585733
   36.324855   48.584548
   36.280850   48.544721
   36.294928   48.537595
   36.318523   48.558322
   36.320484   48.559482
   36.322956   48.560055
   36.325568   48.559956
   36.327928   48.559199
   36.350585   48.547864
   36.359213   48.543189
   36.382583   48.563875
   36.376657   48.566992
   36.375424   48.568056
   36.374561   48.570209
   36.375339   48.572377
   36.408617   48.605246
   36.431693   48.626151
   36.424070   48.627590
   36.414775   48.630718
   36.413188   48.632183
   36.412585   48.633946
   36.413063   48.635728
   36.414764   48.637631
   36.417050   48.639074
   36.420696   48.639670
   36.429294   48.639146
   36.444251   48.637303
   36.477658   48.666487
   36.479659   48.667611
   36.482802   48.668170
   36.485372   48.667860
   36.487077   48.667208
   36.560719   48.627767
   36.563042   48.627411
   36.565939   48.626250
   36.567282   48.625187
   36.568078   48.623900
   36.568461   48.622491
   36.568184   48.621003
   36.579940   48.620268
   36.583003   48.619288
   36.584352   48.618254
   36.585177   48.616996
   36.586341   48.612297
   36.589923   48.612553
   36.593056   48.611906
   36.595364   48.610347
   36.596403   48.607939
   36.647898   48.613338
   36.647324   48.616905
   36.647878   48.618187
   36.648966   48.619305
   36.650495   48.620161
   36.652329   48.620682
   36.666321   48.622156
   36.665725   48.625033
   36.666351   48.626794
   36.668485   48.628537
   36.670941   48.629293
   36.702496   48.632330
   36.705127   48.632079
   36.707410   48.631168
   36.708991   48.629736
   36.709747   48.627588
   36.729859   48.629814
   36.738799   48.630471
   36.741354   48.630165
   36.743999   48.628920
   36.745477   48.626994
   36.750987   48.601770
   36.778410   48.604940
   36.781719   48.604529
   36.783413   48.603776
   36.784696   48.602719
   36.785450   48.601455
   36.793524   48.571949
   36.823909   48.574560
   36.825820   48.574395
   36.827583   48.573875
   36.829056   48.573043
   36.830335   48.571614
   36.858289   48.573664
   36.861436   48.573392
   36.863517   48.572637
   36.865265   48.571245
   36.866889   48.566756
   36.872732   48.561250
   36.874009   48.556398
   36.875292   48.555012
   36.882826   48.555565
   36.885986   48.555077
   36.888039   48.554004
   36.889332   48.552490
   36.890573   48.546866
   36.902569   48.547814
   36.905588   48.546965
   36.906981   48.546025
   36.907907   48.544855
   36.910702   48.531246
   36.913332   48.521110
   36.913150   48.519770
   36.912014   48.518150
   36.910590   48.517201
   36.908167   48.516447
   36.892871   48.515022
   36.887751   48.515100
   36.884557   48.516219
   36.857836   48.513907
   36.863836   48.487838
   36.863500   48.485662
   36.861680   48.483846
   36.858800   48.482815
   36.837293   48.480773
   36.842603   48.448897
   36.842930   48.448078
   36.846593   48.448156
   36.849016   48.447516
   36.850897   48.446309
   36.851780   48.445137
   36.854866   48.429673
   36.858110   48.424771
   36.858122   48.423456
   36.857109   48.420401
   36.857893   48.419015
   36.858202   48.416874
   36.857271   48.414731
   36.855652   48.413040
   36.854125   48.412143
   36.851607   48.411492
   36.848908   48.411555
   36.845714   48.412316
   36.841297   48.414958
   36.839321   48.413651
   36.841234   48.411800
   36.841662   48.409534
   36.842820   48.407312
   36.842600   48.405614
   36.840957   48.402975
   36.839089   48.401687
   36.836620   48.400987
   36.828214   48.400831
   36.831952   48.384318
   36.834529   48.368774
   36.833922   48.367504
   36.832789   48.366408
   36.829610   48.365139
   36.827908   48.363654
   36.825800   48.362520
   36.823250   48.361669
   36.820341   48.361416
   36.823146   48.349192
   36.823151   48.347834
   36.822229   48.346138
   36.820923   48.345100
   36.819215   48.344369
   36.816648   48.343962
   36.819386   48.330148
   36.819831   48.328277
   36.820882   48.326417
   36.822686   48.317670
   36.872060   48.321422
   36.875469   48.320409
   36.877486   48.318606
   36.879406   48.310796
   36.913067   48.313613
   36.916003   48.312804
   36.917747   48.311559
   36.918786   48.309792
   36.920114   48.305735
   36.929829   48.260917
   36.943577   48.193781
   36.942934   48.192081
   36.941839   48.190985
   36.940319   48.190147
   36.938503   48.189638
   36.935243   48.189626
   36.930636   48.190936
   36.928760   48.190462
   36.925234   48.190186
   36.921778   48.189353
   36.919704   48.189299
   36.915959   48.189832
   36.914496   48.189396
   36.913120   48.188469
   36.911707   48.186035
   36.908691   48.184260
   36.906196   48.183491
   36.904135   48.183391
   36.902299   48.183653
   36.900749   48.183082
   36.900301   48.182348
   36.900979   48.180494
   36.900608   48.178775
   36.899370   48.177112
   36.897481   48.175821
   36.892145   48.173467
   36.889204   48.172836
   36.885550   48.172918
   36.881822   48.174077
   36.895996   48.111180
   36.903017   48.078272
   36.902733   48.076153
   36.888496   48.062245
   36.888283   48.060434
   36.886590   48.058503
   36.884358   48.057503
   36.882396   48.057183
   36.874963   48.057648
   36.873693   48.050548
   36.872660   48.048946
   36.871329   48.047983
   36.869023   48.047172
   36.864255   48.047149
   36.863094   48.039687
   36.860510   48.032512
   36.859379   48.031464
   36.857852   48.030673
   36.854343   48.030080
   36.845979   48.031386
   36.844315   48.031947
   36.842145   48.033254
   36.840108   48.032171
   36.835132   48.030701
   36.831744   48.030753
   36.829300   48.031527
   36.827395   48.031337
   36.824337   48.031693
   36.821706   48.032719
   36.819516   48.034424
   36.816842   48.035821
   36.811675   48.036016
   36.808590   48.036887
   36.806435   48.038233
   36.803471   48.041012
   36.802067   48.043266
   36.798945   48.044932
   36.797418   48.044363
   36.794793   48.043919
   36.791207   48.044113
   36.789334   48.044587
   36.785403   48.042750
   36.782195   48.042372
   36.780274   48.042654
   36.778557   48.043295
   36.776133   48.042791
   36.774043   48.042703
   36.770933   48.043104
   36.767212   48.044901
   36.766160   48.045992
   36.765521   48.047452
   36.764488   48.048267
   36.760990   48.047268
   36.757606   48.045417
   36.753690   48.044863
   36.749300   48.044984
   36.746109   48.045791
   36.742479   48.045960
   36.740643   48.046357
   36.739051   48.047086
   36.737591   48.048307
   36.736835   48.049552
   36.735077   48.051127
   36.734360   48.052806
   36.734515   48.054590
   36.735659   48.056712
   36.735437   48.058854
   36.736764   48.061272
   36.734141   48.062541
   36.732663   48.064018
   36.726911   48.065215
   36.721386   48.068196
   36.719649   48.070459
   36.717608   48.076481
   36.715032   48.075570
   36.711515   48.075288
   36.709625   48.075357
   36.706210   48.076017
   36.704355   48.076604
   36.702538   48.077729
   36.700658   48.077859
   36.696919   48.078852
   36.694235   48.080110
   36.692709   48.081473
   36.691184   48.081941
   36.688530   48.082003
   36.684721   48.081217
   36.680321   48.081850
   36.677494   48.083186
   36.673610   48.086131
   36.671227   48.086176
   36.668297   48.084126
   36.664760   48.083120
   36.662387   48.083126
   36.660599   48.083485
   36.658583   48.084333
   36.656858   48.085777
   36.654791   48.084524
   36.651132   48.083531
   36.647765   48.083595
   36.646068   48.083045
   36.644047   48.082834
   36.641456   48.083064
   36.639474   48.083705
   36.637567   48.081754
   36.634489   48.079816
   36.631457   48.079061
   36.628352   48.079077
   36.626142   48.078016
   36.623543   48.077549
   36.621041   48.077638
   36.618746   48.078236
   36.617237   48.079030
   36.613257   48.082241
   36.609463   48.082796
   36.607282   48.081521
   36.604079   48.080427
   36.602127   48.080196
   36.598032   48.078391
   36.596082   48.077938
   36.593939   48.077879
   36.593499   48.077028
   36.593487   48.074127
   36.591784   48.072061
   36.592748   48.070162
   36.592816   48.067701
   36.593814   48.065813
   36.593838   48.064152
   36.592470   48.061978
   36.589603   48.060320
   36.593221   48.055079
   36.593984   48.052940
   36.593945   48.051605
   36.592615   48.049582
   36.587098   48.045937
   36.582745   48.041036
   36.589273   48.035096
   36.592858   48.031118
   36.595602   48.024280
   36.597332   48.022152
   36.597657   48.020547
   36.596926   48.017979
   36.595300   48.016465
   36.592480   48.015319
   36.589803   48.013580
   36.587194   48.012578
   36.584042   48.011981
   36.585470   48.011195
   36.588025   48.008994
   36.592850   48.002808
   36.593495   48.001206
   36.593032   47.998378
   36.591304   47.996491
   36.589423   47.995388
   36.587570   47.994831
   36.583759   47.994822
   36.590812   47.961908
   36.628288   47.966335
   36.630887   47.966130
   36.633656   47.964978
   36.634807   47.963908
   36.635449   47.962662
   36.646868   47.921181
   36.646863   47.919408
   36.645440   47.917415
   36.643956   47.916526
   36.642149   47.915965
   36.618471   47.912963
   36.616254   47.913095
   36.598025   47.916267
   36.599172   47.910200
   36.597937   47.908153
   36.595402   47.906742
   36.575915   47.904559
   36.549797   47.902166
   36.554869   47.882513
   36.576828   47.884689
   36.578742   47.884449
   36.580474   47.883853
   36.582577   47.882215
   36.585449   47.872687
   36.591412   47.848220
   36.591365   47.846419
   36.589853   47.844418
   36.587092   47.843149
   36.528617   47.833103
   36.529594   47.829123
   36.529430   47.827776
   36.527883   47.825792
   36.525107   47.824548
   36.476267   47.819680
   36.469466   47.819476
   36.448366   47.819588
   36.442557   47.820372
   36.435509   47.822315
   36.431644   47.822520
   36.422173   47.824176
   36.417371   47.823279
   36.410803   47.823184
   36.405966   47.824297
   36.402117   47.825554
   36.397273   47.826310
   36.382663   47.825544
   36.375482   47.825541
   36.372450   47.826477
   36.370745   47.827864
   36.368762   47.833723
   36.334378   47.834671
   36.336790   47.832367
   36.337258   47.831019
   36.337121   47.829731
   36.338692   47.827829
   36.339238   47.826197
   36.339042   47.824946
   36.338067   47.823336
   36.339283   47.821477
   36.339258   47.819735
   36.337860   47.817776
   36.335852   47.816668
   36.334013   47.816220
   36.299326   47.811431
   36.296153   47.811712
   36.293772   47.812771
   36.275301   47.810838
   36.273296   47.811074
   36.271488   47.811699
   36.269340   47.813438
   36.267284   47.821969
   36.262117   47.828636
   36.197236   47.828028
   36.195251   47.828298
   36.193475   47.828951
   36.189177   47.832128
   36.186397   47.832872
   36.184238   47.834270
   36.182399   47.836528
   36.181952   47.837798
   36.181493   47.841560
   36.181778   47.842827
   36.186150   47.847394
   36.187971   47.850404
   36.189460   47.854249
   36.184896   47.853628
   36.185522   47.850492
   36.184911   47.848769
   36.182848   47.847049
   36.180469   47.846278
   36.133529   47.841341
   36.120713   47.839716
   36.116793   47.839667
   36.102756   47.838125
   36.099447   47.838316
   36.097672   47.838941
   36.096248   47.839887
   36.095109   47.841502
   36.094220   47.845479
   36.079820   47.844277
   36.072957   47.844333
   36.069957   47.845046
   36.068121   47.846237
   36.067077   47.847799
   36.062960   47.863348
   36.054884   47.864131
   36.052720   47.865114
   36.051275   47.866575
   36.047438   47.879123
   36.047604   47.881323
   36.049300   47.883209
   36.052126   47.884335
   36.077846   47.887713
   36.082995   47.887494
   36.085668   47.886345
   36.087261   47.884504
   36.092563   47.866435
   36.110330   47.868482
   36.110383   47.872061
   36.113907   47.878584
   36.114809   47.879710
   36.116479   47.880778
   36.122658   47.890211
   36.115838   47.899365
   36.115770   47.900713
   36.116298   47.902014
   36.118555   47.903865
   36.104324   47.922557
   36.103713   47.923803
   36.103940   47.925969
   36.105203   47.927494
   36.106668   47.928363
   36.110613   47.929771
   36.106329   47.935246
   36.087922   47.926224
   36.086068   47.925838
   36.084126   47.925822
   36.081130   47.926605
   36.079015   47.928228
   36.077712   47.930910
   36.068795   47.958804
   36.053793   47.954287
   36.051860   47.954050
   36.049908   47.954196
   36.047558   47.954960
   36.045817   47.956264
   36.041582   47.964010
   36.041202   47.965743
   36.041584   47.967036
   36.042763   47.968491
   36.044145   47.969427
   36.062544   47.974629
   36.059602   47.981122
   36.055924   47.997273
   36.039796   47.999569
   36.037999   48.000114
   36.036512   48.000982
   36.035229   48.002515
   36.027728   48.018186
   36.027790   48.019524
   36.028434   48.020792
   36.029604   48.021878
   36.031198   48.022686
   36.057252   48.028210
   36.049602   48.044841
   36.049374   48.046578
   36.050300   48.048416
   36.048014   48.053409
   35.991971   48.041622
   35.977117   48.038824
   35.973881   48.038755
   35.971491   48.039440
   35.970052   48.040326
   35.969051   48.041451
   35.968568   48.043595
   35.971104   48.051980
   35.972095   48.053759
   35.973279   48.054797
   35.970671   48.055232
   35.968035   48.056288
   35.966690   48.057163
   35.965426   48.058644
   35.964867   48.061909
   35.967045   48.066116
   35.963263   48.070660
   35.962653   48.072736
   35.963259   48.075206
   35.964521   48.076778
   35.966016   48.077767
   35.969486   48.079122
   35.971526   48.080726
   35.974044   48.082034
   35.971634   48.082955
   35.969288   48.084711
   35.968084   48.086957
   35.968077   48.089146
   35.966675   48.089788
   35.962381   48.088397
   35.922312   48.077685
   35.911508   48.075831
   35.818345   48.061710
   35.814998   48.061775
   35.812110   48.062910
   35.810391   48.064835
   35.801622   48.093702
   35.797461   48.092197
   35.792186   48.090966
   35.783205   48.089645
   35.781252   48.089829
   35.778029   48.090677
   35.773881   48.092344
   35.761431   48.093311
   35.759566   48.092389
   35.756956   48.091927
   35.742807   48.091225
   35.740915   48.091409
   35.739176   48.091942
   35.736986   48.093476
   35.723078   48.109517
   35.701396   48.133604
   35.699480   48.132594
   35.683834   48.126595
   35.556763   48.079926
   35.527021   48.070511
   35.525155   48.070130
   35.523204   48.070122
   35.521331   48.070488
   35.519693   48.071197
   35.517840   48.072971
   35.512877   48.091247
   35.508713   48.092506
   35.504238   48.091900
   35.500768   48.092167
   35.495761   48.091519
   35.492809   48.091695
   35.486976   48.090537
   35.484361   48.090521
   35.481027   48.091126
   35.475485   48.093101
   35.471938   48.093460
   35.468637   48.095153
   35.466359   48.095731
   35.462075   48.096198
   35.458197   48.097262
   35.455628   48.097311
   35.453169   48.098011
   35.449059   48.098563
   35.445824   48.097678
   35.422096   48.095699
   35.419452   48.095830
   35.417087   48.096633
   35.415366   48.097984
   35.414662   48.099234
   35.413950   48.103219
   35.411733   48.105985
   35.402437   48.107391
   35.400657   48.108024
   35.398572   48.109280
   35.391761   48.109972
   35.382788   48.114150
   35.378748   48.113590
   35.376847   48.113634
   35.374336   48.114306
   35.366694   48.114938
   35.362889   48.116574
   35.359330   48.116737
   35.356384   48.116313
   35.352350   48.116614
   35.349298   48.117497
   35.344837   48.118254
   35.342934   48.118936
   35.337854   48.118927
   35.335897   48.119256
   35.332768   48.120683
   35.328091   48.124626
   35.317351   48.128466
   35.299578   48.137877
   35.293243   48.139939
   35.284350   48.140400
   35.279693   48.140200
   35.271596   48.138979
   35.266656   48.137148
   35.264230   48.135912
   35.262081   48.134314
   35.256505   48.131892
   35.249902   48.130631
   35.242455   48.130172
   35.237974   48.130519
   35.234347   48.131535
   35.229132   48.134016
   35.222746   48.135947
   35.219170   48.138179
   35.210913   48.135686
   35.197493   48.135798
   35.182234   48.127128
   35.180182   48.126651
   35.172142   48.125712
   35.164464   48.124269
   35.153870   48.124075
   35.114505   48.126723
   35.103533   48.127194
   35.101792   48.126811
   35.097963   48.125208
   35.093276   48.121407
   35.086784   48.119072
   35.080142   48.118112
   35.065714   48.117954
   35.062025   48.116857
   35.050386   48.105687
   35.047716   48.102509
   35.046547   48.098495
   35.044720   48.096135
   35.043378   48.095052
   35.040945   48.094132
   35.036743   48.093555
   35.027679   48.093487
   35.023720   48.092537
   35.021108   48.092385
   35.018252   48.090924
   35.016423   48.090385
   35.012514   48.090269
   35.010392   48.089728
   35.007063   48.089630
   35.004411   48.089117
   34.999463   48.087815
   34.993367   48.085174
   34.990779   48.084680
   34.987478   48.085068
   34.984863   48.086471
   34.983151   48.088287
   34.982124   48.091641
   34.929661   48.085804
   34.927104   48.086162
   34.924545   48.087439
   34.915823   48.086474
   34.913243   48.086524
   34.910363   48.087483
   34.909076   48.088457
   34.908256   48.089635
   34.903652   48.104071
   34.904442   48.106180
   34.905314   48.115195
   34.906234   48.116367
   34.908168   48.117560
   34.912211   48.118334
   34.910316   48.125473
   34.880412   48.122634
   34.877992   48.123182
   34.876049   48.124294
   34.875076   48.125403
   34.873363   48.129134
   34.862970   48.128784
   34.875567   48.076812
   34.882402   48.054173
   34.882000   48.052901
   34.880662   48.051423
   34.879164   48.050596
   34.877377   48.050089
   34.847077   48.046783
   34.849713   48.035712
   34.852529   48.018924
   34.857465   48.019664
   34.859489   48.019635
   34.861996   48.018977
   34.864272   48.017328
   34.870927   48.002938
   34.875054   47.987480
   34.904588   47.990237
   34.906509   47.990109
   34.908296   47.989622
   34.910594   47.988133
   34.911527   47.986531
   34.919138   47.958601
   34.918924   47.956405
   34.916938   47.954390
   34.920203   47.942139
   34.925402   47.935066
   34.925788   47.932895
   34.925260   47.931624
   34.924206   47.930509
   34.922716   47.929645
   34.920918   47.929107
   34.880856   47.924387
   34.877611   47.925007
   34.876028   47.925867
   34.874901   47.927005
   34.871395   47.936539
   34.856723   47.934287
   34.858431   47.920878
   34.857851   47.919134
   34.855798   47.917385
   34.852749   47.916504
   34.809909   47.911908
   34.821750   47.871172
   34.826148   47.872968
   34.834908   47.874170
   34.839809   47.876603
   34.845888   47.880541
   34.855079   47.884643
   34.857687   47.885070
   34.862689   47.884881
   34.865802   47.884049
   34.867899   47.883101
   34.869399   47.882131
   34.870386   47.880901
   34.876562   47.855005
   34.897371   47.857337
   34.899325   47.857115
   34.901098   47.856523
   34.902539   47.855611
   34.903522   47.854458
   34.910026   47.830382
   34.909804   47.828206
   34.908935   47.827024
   34.907594   47.826060
   34.886333   47.816527
   34.899117   47.765660
   34.956692   47.774079
   34.959258   47.773955
   34.961568   47.773197
   34.963287   47.771915
   34.964035   47.770720
   34.971679   47.740134
   34.971107   47.738384
   34.969056   47.736627
   34.966658   47.735834
   34.962324   47.735344
   34.964219   47.726964
   34.962965   47.724866
   34.961524   47.723900
   34.959800   47.723288
   34.962674   47.713185
   34.962458   47.710930
   34.960641   47.709026
   34.957676   47.707949
   34.937724   47.707289
   34.944970   47.677769
   34.944657   47.675993
   34.943341   47.674437
   34.941815   47.673563
   34.939972   47.673028
   34.913454   47.670140
   34.916727   47.656543
   34.919691   47.647172
   34.920362   47.642380
   34.921583   47.638897
   34.933904   47.640141
   34.935815   47.639788
   34.937491   47.639079
   34.938787   47.638074
   34.939591   47.636861
   34.948824   47.601346
   34.948676   47.600016
   34.947956   47.598773
   34.946726   47.597724
   34.944774   47.596820
   34.945453   47.594643
   34.944963   47.592944
   34.941163   47.588869
   34.942318   47.584465
   34.945938   47.582243
   34.951843   47.576365
   34.954803   47.575789
   34.956558   47.575112
   34.962887   47.570701
   34.964832   47.567476
   34.965050   47.565698
   34.966039   47.563761
   34.967504   47.562019
   34.972180   47.550766
   34.972031   47.547524
   34.971482   47.546035
   34.967680   47.540299
   34.963409   47.535541
   34.957308   47.530533
   34.940805   47.522919
   34.931301   47.520420
   34.900982   47.513794
   34.876901   47.510502
   34.860757   47.510639
   34.855784   47.511579
   34.837265   47.517039
   34.813910   47.526790
   34.794937   47.532516
   34.788667   47.532629
   34.784883   47.533318
   34.740620   47.533883
   34.733811   47.534533
   34.715799   47.539144
   34.705424   47.541427
   34.667604   47.551339
   34.643875   47.555292
   34.628582   47.556527
   34.601306   47.557642
   34.588358   47.557818
   34.573443   47.557131
   34.560088   47.554880
   34.558015   47.554754
   34.530626   47.549466
   34.516340   47.544368
   34.502000   47.539698
   34.489687   47.533478
   34.481440   47.530290
   34.470733   47.527772
   34.461333   47.526965
   34.424826   47.525672
   34.346846   47.517431
   34.301693   47.514688
   34.279165   47.507683
   34.271718   47.505014
   34.255215   47.496982
   34.236951   47.490281
   34.221471   47.486455
   34.208975   47.483861
   34.141052   47.472853
   34.075678   47.466177
   34.062249   47.464098
   34.038645   47.460143
   34.004301   47.452138
   34.002327   47.452143
   34.000440   47.452531
   33.995355   47.454958
   33.993723   47.454843
   33.987474   47.453373
   33.984478   47.453513
   33.980853   47.454479
   33.977812   47.454759
   33.955361   47.452966
   33.952626   47.453266
   33.948967   47.454574
   33.946342   47.456816
   33.945293   47.458839
   33.944603   47.461289
   33.940400   47.499394
   33.939774   47.500880
   33.935714   47.506782
   33.934540   47.511737
   33.932689   47.511624
   33.929006   47.510461
   33.919466   47.508709
   33.913119   47.508289
   33.907660   47.507308
   33.884144   47.505271
   33.810245   47.497958
   33.644078   47.480014
   33.642100   47.480118
   33.639694   47.480842
   33.638264   47.481763
   33.637092   47.483346
   33.630489   47.508759
   33.611306   47.506636
   33.611754   47.504352
   33.611367   47.502635
   33.610043   47.501143
   33.607379   47.499921
   33.588904   47.497789
   33.586939   47.497892
   33.585102   47.498372
   33.583120   47.499520
   33.581941   47.501088
   33.575857   47.524149
   33.573023   47.524581
   33.570946   47.525608
   33.569596   47.527082
   33.569219   47.529221
   33.570020   47.530865
   33.576138   47.536843
   33.577337   47.539216
   33.582942   47.544649
   33.584984   47.545899
   33.581918   47.557901
   33.582061   47.559216
   33.582764   47.560448
   33.584463   47.561782
   33.586791   47.562582
   33.601506   47.564414
   33.599983   47.570012
   33.594370   47.569187
   33.591202   47.569189
   33.588781   47.569789
   33.586512   47.571314
   33.585624   47.572937
   33.582675   47.583775
   33.579465   47.584767
   33.577558   47.586522
   33.574972   47.594946
   33.511079   47.587023
   33.481683   47.583653
   33.492831   47.544285
   33.492700   47.542970
   33.492008   47.541736
   33.490815   47.540688
   33.489222   47.539915
   33.487363   47.539483
   33.332779   47.519462
   33.336174   47.512231
   33.354557   47.496048
   33.355553   47.493974
   33.355223   47.492239
   33.353936   47.490718
   33.351884   47.489637
   33.335953   47.484195
   33.328840   47.482411
   33.316505   47.478358
   33.313849   47.478075
   33.310642   47.478724
   33.302882   47.482686
   33.301571   47.483675
   33.300743   47.484876
   33.300506   47.486628
   33.301628   47.488686
   33.303495   47.489924
   33.308101   47.491581
   33.307310   47.493534
   33.305089   47.496631
   33.304461   47.498344
   33.302887   47.498597
   33.299046   47.498479
   33.296358   47.498855
   33.292938   47.500056
   33.290384   47.501362
   33.281631   47.506870
   33.274371   47.513366
   33.272782   47.515431
   33.272027   47.517715
   33.272041   47.520452
   33.272615   47.521868
   33.273778   47.523364
   33.276684   47.525597
   33.280543   47.527797
   33.280966   47.528991
   33.281961   47.534156
   33.281244   47.540629
   33.278070   47.541553
   33.275950   47.541769
   33.273381   47.540307
   33.269762   47.539078
   33.265761   47.537027
   33.263224   47.534340
   33.259881   47.532254
   33.256199   47.530713
   33.251963   47.529425
   33.247961   47.527340
   33.242977   47.525896
   33.240339   47.525669
   33.238470   47.525849
   33.236155   47.525207
   33.231968   47.524766
   33.229520   47.525099
   33.227017   47.525994
   33.224586   47.525807
   33.221185   47.526167
   33.217982   47.526737
   33.213067   47.528415
   33.209684   47.530823
   33.208316   47.533419
   33.208924   47.536091
   33.211147   47.538201
   33.215206   47.540789
   33.215024   47.542875
   33.213504   47.544170
   33.211691   47.546607
   33.211391   47.548384
   33.211967   47.550120
   33.213196   47.551566
   33.215398   47.552999
   33.219947   47.554905
   33.223941   47.557060
   33.226659   47.559893
   33.229691   47.564701
   33.230783   47.568220
   33.230872   47.570318
   33.228851   47.569434
   33.218800   47.567227
   33.214191   47.565847
   33.208795   47.564947
   33.203556   47.564703
   33.198748   47.564890
   33.194115   47.565716
   33.188881   47.567614
   33.185452   47.567909
   33.183176   47.566025
   33.179349   47.563695
   33.173478   47.562291
   33.170946   47.562199
   33.167320   47.562953
   33.165260   47.563918
   33.163970   47.564139
   33.091291   47.574406
   33.089437   47.574866
   33.087034   47.576355
   33.085959   47.578427
   33.087560   47.592247
   32.960719   47.585430
   32.958268   47.585936
   32.956714   47.586701
   32.954044   47.589576
   32.952848   47.592791
   32.952945   47.596628
   32.953358   47.597781
END
END
