donetsk
1
   36.541050   47.910495
   36.584789   47.914612
   36.583147   47.920676
   36.583212   47.921969
   36.583817   47.923196
   36.584913   47.924258
   36.586409   47.925068
   36.588184   47.925558
   36.596507   47.925851
   36.618179   47.922105
   36.632344   47.923904
   36.623456   47.956597
   36.585640   47.952131
   36.582998   47.952356
   36.581218   47.952973
   36.579411   47.954292
   36.578638   47.955538
   36.571007   47.990216
   36.570255   47.995173
   36.569398   47.997363
   36.569903   47.999105
   36.572109   48.001493
   36.574596   48.003162
   36.576558   48.003955
   36.575885   48.004779
   36.574087   48.005717
   36.572047   48.005507
   36.570050   48.005718
   36.565117   48.007492
   36.562958   48.009168
   36.562241   48.011335
   36.562487   48.013091
   36.563206   48.014426
   36.564171   48.015575
   36.565586   48.016487
   36.567943   48.017528
   36.572480   48.018680
   36.574877   48.019723
   36.581839   48.020929
   36.582707   48.021568
   36.580560   48.027158
   36.578154   48.029992
   36.573218   48.034574
   36.568912   48.036942
   36.567577   48.038466
   36.567181   48.039708
   36.567336   48.041478
   36.568180   48.042963
   36.571088   48.045563
   36.575874   48.050937
   36.579352   48.053731
   36.577522   48.055896
   36.575081   48.056732
   36.573037   48.058291
   36.571342   48.061315
   36.571834   48.063851
   36.572987   48.065455
   36.575672   48.067099
   36.579329   48.067750
   36.579385   48.068541
   36.578143   48.070818
   36.578278   48.073148
   36.575045   48.075325
   36.573441   48.077727
   36.573728   48.080750
   36.575365   48.082668
   36.577861   48.084027
   36.580052   48.084575
   36.582047   48.086297
   36.584224   48.087129
   36.587530   48.087472
   36.591126   48.086898
   36.592923   48.086945
   36.593744   48.087312
   36.593396   48.089782
   36.594420   48.091920
   36.596904   48.093918
   36.600851   48.095374
   36.605340   48.095188
   36.612591   48.093736
   36.614866   48.092781
   36.616644   48.091052
   36.620136   48.090394
   36.622085   48.089511
   36.623245   48.091393
   36.624607   48.092424
   36.626867   48.093307
   36.629425   48.093699
   36.629703   48.095458
   36.630403   48.096746
   36.634271   48.099398
   36.636150   48.099942
   36.639420   48.100159
   36.642795   48.101236
   36.644823   48.101355
   36.647236   48.103299
   36.649314   48.104198
   36.652685   48.104713
   36.654677   48.104647
   36.660534   48.102775
   36.663292   48.101072
   36.664287   48.099827
   36.664741   48.098217
   36.664699   48.096876
   36.664020   48.095537
   36.665374   48.094965
   36.669584   48.095512
   36.678220   48.094876
   36.682700   48.093430
   36.685542   48.090908
   36.688974   48.091173
   36.693178   48.090956
   36.695769   48.090464
   36.701128   48.088749
   36.703582   48.086820
   36.705869   48.086798
   36.708723   48.086313
   36.709824   48.087519
   36.711909   48.088712
   36.715768   48.089511
   36.719488   48.089264
   36.723083   48.088104
   36.726519   48.085914
   36.727939   48.083882
   36.729801   48.083060
   36.731714   48.081355
   36.732336   48.079703
   36.731875   48.077304
   36.732650   48.075605
   36.732422   48.073725
   36.734834   48.072979
   36.739492   48.073149
   36.743468   48.072435
   36.745764   48.070909
   36.746685   48.069163
   36.750886   48.068004
   36.753011   48.066276
   36.754723   48.063140
   36.754690   48.060357
   36.753170   48.058181
   36.751280   48.056838
   36.749571   48.056113
   36.749115   48.055073
   36.751845   48.054570
   36.753091   48.055451
   36.754946   48.056147
   36.756088   48.057672
   36.758593   48.059214
   36.760394   48.059815
   36.763724   48.060344
   36.766194   48.060075
   36.769171   48.058946
   36.770651   48.057916
   36.771965   48.055941
   36.776936   48.053339
   36.779717   48.053427
   36.782051   48.055097
   36.783856   48.055640
   36.785816   48.055804
   36.789895   48.055411
   36.791529   48.054735
   36.793212   48.053547
   36.795201   48.055483
   36.797781   48.056758
   36.802335   48.057466
   36.804960   48.057420
   36.808289   48.056415
   36.810883   48.054421
   36.811873   48.052440
   36.811516   48.050232
   36.813355   48.048894
   36.815591   48.045158
   36.817717   48.045020
   36.822652   48.044011
   36.829234   48.040743
   36.833428   48.040379
   36.837087   48.042303
   36.840228   48.042828
   36.845866   48.042739
   36.847699   48.042301
   36.849782   48.041274
   36.852029   48.053837
   36.853484   48.055299
   36.855657   48.056275
   36.858217   48.056617
   36.861202   48.056441
   36.862484   48.063606
   36.863523   48.065218
   36.865395   48.066440
   36.867817   48.067090
   36.876625   48.066626
   36.889306   48.078732
   36.882612   48.110148
   36.866799   48.179587
   36.866004   48.184056
   36.866252   48.185392
   36.867072   48.186620
   36.868391   48.187630
   36.870094   48.188334
   36.872028   48.188669
   36.874022   48.188604
   36.877566   48.187897
   36.880216   48.186875
   36.882357   48.187255
   36.885172   48.187285
   36.886329   48.189391
   36.886331   48.191535
   36.887100   48.193125
   36.888743   48.194567
   36.891095   48.195456
   36.894607   48.195897
   36.897993   48.195342
   36.899773   48.196686
   36.902581   48.197652
   36.905002   48.197861
   36.907694   48.197417
   36.912692   48.198751
   36.915081   48.199013
   36.919847   48.198519
   36.924896   48.199260
   36.926753   48.200038
   36.928695   48.200414
   36.921209   48.236732
   36.920409   48.238529
   36.916506   48.259633
   36.906663   48.304101
   36.874810   48.301107
   36.872159   48.301167
   36.869750   48.301916
   36.867644   48.303633
   36.865575   48.311884
   36.817761   48.308127
   36.815169   48.308246
   36.813377   48.308770
   36.811476   48.309965
   36.810392   48.311557
   36.807933   48.323321
   36.807111   48.324589
   36.805905   48.329520
   36.802088   48.347547
   36.802602   48.349664
   36.804028   48.351092
   36.806142   48.352057
   36.808778   48.352451
   36.805611   48.367987
   36.805698   48.369321
   36.806359   48.370580
   36.808559   48.372220
   36.810993   48.372896
   36.812971   48.372957
   36.816191   48.372514
   36.819267   48.371171
   36.820559   48.372179
   36.818622   48.383064
   36.813841   48.404901
   36.814227   48.406650
   36.815577   48.408165
   36.817686   48.409215
   36.820318   48.409643
   36.819088   48.410666
   36.818204   48.412175
   36.817758   48.414216
   36.818203   48.416135
   36.819096   48.417325
   36.820466   48.418288
   36.822962   48.419102
   36.827507   48.421497
   36.830433   48.422008
   36.831636   48.423300
   36.833249   48.424190
   36.836480   48.424928
   36.838573   48.424880
   36.841243   48.425302
   36.843226   48.425131
   36.841644   48.427855
   36.839564   48.438729
   36.836473   48.438593
   36.833900   48.439120
   36.831841   48.440287
   36.830405   48.442405
   36.823178   48.484136
   36.823585   48.486278
   36.825419   48.488049
   36.828260   48.489045
   36.849567   48.491012
   36.843662   48.517290
   36.844071   48.519456
   36.845464   48.520936
   36.847587   48.521948
   36.849469   48.522304
   36.887886   48.525628
   36.891037   48.525391
   36.893647   48.524224
   36.898881   48.524703
   36.897384   48.529912
   36.895877   48.538234
   36.884394   48.537228
   36.882458   48.537499
   36.880216   48.538426
   36.878980   48.539468
   36.878247   48.540707
   36.877157   48.546050
   36.870512   48.545756
   36.868001   48.546470
   36.866511   48.547419
   36.861202   48.553299
   36.860185   48.557603
   36.854745   48.562635
   36.853907   48.564242
   36.824881   48.562135
   36.822987   48.562302
   36.821239   48.562822
   36.819780   48.563653
   36.818512   48.565078
   36.789196   48.562394
   36.787075   48.562418
   36.785072   48.562888
   36.782805   48.564111
   36.781580   48.565697
   36.773497   48.595222
   36.745947   48.591929
   36.742651   48.592294
   36.740947   48.593023
   36.739642   48.594061
   36.738720   48.595760
   36.728237   48.642786
   36.725588   48.643503
   36.722748   48.645183
   36.721538   48.646718
   36.720986   48.648873
   36.718851   48.650170
   36.716811   48.652091
   36.716093   48.653241
   36.715784   48.655226
   36.716082   48.656482
   36.716887   48.657632
   36.718543   48.658799
   36.715974   48.660576
   36.714501   48.662913
   36.714208   48.664625
   36.714885   48.666286
   36.716978   48.668557
   36.713597   48.669644
   36.711743   48.671004
   36.710417   48.674006
   36.710604   48.675764
   36.709307   48.676939
   36.708232   48.679247
   36.708778   48.681431
   36.709950   48.683015
   36.711466   48.684059
   36.712384   48.685625
   36.710016   48.686550
   36.706901   48.688943
   36.705899   48.690048
   36.705170   48.692034
   36.705234   48.693362
   36.705869   48.694621
   36.707018   48.695700
   36.708582   48.696508
   36.712117   48.697362
   36.715902   48.698751
   36.718552   48.698903
   36.720718   48.698594
   36.724849   48.699095
   36.728025   48.703605
   36.719852   48.712640
   36.706248   48.742315
   36.705980   48.744080
   36.706458   48.745376
   36.707920   48.746851
   36.709712   48.747707
   36.703599   48.763857
   36.689212   48.766144
   36.686369   48.767387
   36.684980   48.768965
   36.682836   48.775050
   36.682746   48.776803
   36.683338   48.778061
   36.684909   48.779459
   36.697161   48.786810
   36.715288   48.808663
   36.717760   48.810114
   36.720957   48.810602
   36.729093   48.809454
   36.735420   48.809280
   36.743453   48.807310
   36.747433   48.805967
   36.749591   48.805724
   36.758806   48.803577
   36.763302   48.802119
   36.765847   48.801703
   36.767638   48.801744
   36.780240   48.804419
   36.782086   48.805130
   36.788855   48.806352
   36.790801   48.806497
   36.793335   48.806094
   36.794979   48.805378
   36.796696   48.804117
   36.797625   48.802518
   36.797700   48.801227
   36.791554   48.790681
   36.795414   48.789670
   36.797352   48.788500
   36.798619   48.786490
   36.798268   48.784189
   36.819586   48.781648
   36.822029   48.780302
   36.825167   48.776203
   36.831537   48.776676
   36.829051   48.782429
   36.829137   48.783749
   36.829785   48.784996
   36.831422   48.786363
   36.833092   48.787053
   36.836053   48.787624
   36.839290   48.787608
   36.848271   48.802535
   36.849870   48.803889
   36.852727   48.804855
   36.881123   48.804012
   36.921449   48.802302
   36.923892   48.801804
   36.925883   48.800726
   36.927132   48.799224
   36.927543   48.797723
   36.930279   48.797285
   36.937419   48.798963
   36.941488   48.799149
   36.943600   48.799957
   36.945482   48.800199
   36.953913   48.799710
   36.967745   48.798149
   36.972596   48.796697
   36.980164   48.793377
   36.982561   48.791039
   36.983727   48.789247
   36.986781   48.787249
   36.990656   48.783434
   36.992715   48.779193
   36.993855   48.778205
   36.996609   48.777231
   37.003869   48.773022
   37.005380   48.771692
   37.006604   48.769778
   37.011318   48.769119
   37.014486   48.767837
   37.016330   48.766720
   37.016382   48.772233
   37.013847   48.773646
   36.990709   48.783852
   36.989346   48.784857
   36.988488   48.786089
   36.988256   48.787892
   36.989091   48.789611
   36.999157   48.799196
   37.001545   48.805567
   37.003295   48.806921
   37.005688   48.807710
   37.007681   48.807851
   37.013323   48.807317
   37.017599   48.819665
   37.019048   48.821101
   37.021803   48.822211
   37.025006   48.822330
   37.033227   48.821270
   37.035651   48.820575
   37.040360   48.820248
   37.044699   48.819467
   37.060905   48.818586
   37.062477   48.820518
   37.065220   48.821720
   37.074178   48.822125
   37.083908   48.838773
   37.092902   48.852929
   37.095086   48.854552
   37.098144   48.855292
   37.100741   48.855123
   37.111046   48.853037
   37.133693   48.847382
   37.136081   48.848298
   37.139238   48.848448
   37.149184   48.845936
   37.151423   48.844418
   37.152374   48.842375
   37.150636   48.836950
   37.153831   48.836557
   37.156377   48.835236
   37.161897   48.828258
   37.167348   48.827074
   37.186200   48.821435
   37.188374   48.848412
   37.183717   48.869161
   37.184489   48.874146
   37.185501   48.875874
   37.186618   48.882164
   37.188240   48.884681
   37.189513   48.885726
   37.191187   48.886470
   37.193517   48.886974
   37.196021   48.886971
   37.198266   48.888373
   37.204644   48.889967
   37.207110   48.890863
   37.208315   48.891716
   37.208663   48.893929
   37.211745   48.898365
   37.213145   48.899503
   37.213663   48.901605
   37.216592   48.905138
   37.215966   48.908807
   37.216506   48.910520
   37.217970   48.911966
   37.220139   48.912928
   37.224252   48.913386
   37.239902   48.911590
   37.241990   48.912740
   37.245239   48.913255
   37.260827   48.911713
   37.262995   48.923934
   37.263809   48.925097
   37.265075   48.926058
   37.267899   48.927012
   37.284005   48.927490
   37.299874   48.927413
   37.302432   48.926865
   37.304802   48.925360
   37.309817   48.926851
   37.312755   48.927370
   37.322729   48.926665
   37.324206   48.931188
   37.322527   48.932069
   37.321173   48.933410
   37.316856   48.933850
   37.311921   48.935516
   37.309035   48.937538
   37.306282   48.938648
   37.303731   48.940866
   37.301706   48.943740
   37.300703   48.946201
   37.300561   48.947649
   37.301183   48.949393
   37.305425   48.954260
   37.303904   48.956675
   37.301009   48.957484
   37.299236   48.958783
   37.297678   48.962232
   37.295792   48.962481
   37.293138   48.963318
   37.289848   48.965649
   37.287996   48.968967
   37.288370   48.972274
   37.289688   48.974211
   37.291175   48.975391
   37.291497   48.976733
   37.292886   48.978441
   37.295097   48.979863
   37.296985   48.980466
   37.298807   48.982231
   37.304382   48.984788
   37.303571   48.985902
   37.303240   48.987216
   37.303875   48.990107
   37.304567   48.991449
   37.306681   48.993257
   37.308688   48.994174
   37.316019   48.995819
   37.322914   48.995933
   37.326879   48.997053
   37.330037   48.998382
   37.333724   48.999143
   37.338434   49.005716
   37.341042   49.007417
   37.343794   49.008003
   37.346474   49.007799
   37.352774   49.005921
   37.355318   49.004543
   37.362634   49.002743
   37.364364   49.001968
   37.364050   49.004615
   37.365472   49.017447
   37.369180   49.028038
   37.370625   49.029479
   37.373381   49.030595
   37.375946   49.030778
   37.379883   49.030302
   37.378695   49.033653
   37.378525   49.036373
   37.379240   49.038144
   37.380563   49.039457
   37.377773   49.043365
   37.377239   49.046704
   37.377721   49.048638
   37.379591   49.050923
   37.381888   49.052248
   37.388649   49.054245
   37.393090   49.055044
   37.404202   49.056091
   37.408093   49.058897
   37.409637   49.061644
   37.412059   49.064223
   37.413962   49.065348
   37.416349   49.065917
   37.420700   49.065989
   37.430606   49.064585
   37.433514   49.065032
   37.436385   49.066079
   37.438941   49.066333
   37.442025   49.065712
   37.444300   49.064219
   37.447422   49.065672
   37.450703   49.065838
   37.452589   49.065414
   37.454207   49.064637
   37.456383   49.062633
   37.456990   49.061616
   37.460002   49.062198
   37.471980   49.062012
   37.474480   49.062696
   37.477345   49.062742
   37.485877   49.066459
   37.487444   49.068542
   37.492720   49.071795
   37.495863   49.072849
   37.499200   49.073559
   37.500085   49.077897
   37.499546   49.079482
   37.495461   49.083088
   37.492013   49.087016
   37.491408   49.089087
   37.488902   49.089719
   37.487336   49.090528
   37.485915   49.092015
   37.485462   49.093897
   37.480554   49.097016
   37.479470   49.098159
   37.478938   49.099468
   37.479161   49.101266
   37.482426   49.104834
   37.485588   49.106479
   37.487224   49.106960
   37.544022   49.116477
   37.574113   49.127561
   37.569361   49.130802
   37.568479   49.130800
   37.565636   49.129766
   37.563743   49.129513
   37.559422   49.129865
   37.557587   49.130372
   37.555261   49.131936
   37.554333   49.133943
   37.550667   49.136435
   37.548543   49.137024
   37.545803   49.138420
   37.543085   49.138744
   37.541378   49.139320
   37.536766   49.141773
   37.534770   49.143872
   37.534226   49.145627
   37.534511   49.146962
   37.535767   49.148542
   37.537258   49.149441
   37.540751   49.150233
   37.543931   49.150189
   37.546249   49.151598
   37.548613   49.152365
   37.551233   49.152461
   37.553810   49.151865
   37.553033   49.153170
   37.550160   49.161583
   37.548657   49.163700
   37.547526   49.164212
   37.544038   49.164603
   37.535920   49.167144
   37.532822   49.169097
   37.529113   49.170689
   37.525118   49.171473
   37.520460   49.171975
   37.513235   49.174166
   37.509307   49.174465
   37.505636   49.175670
   37.504283   49.176578
   37.503364   49.177706
   37.502962   49.179882
   37.501044   49.180803
   37.499566   49.182383
   37.497639   49.183410
   37.496522   49.184518
   37.495812   49.186346
   37.495958   49.188181
   37.496778   49.189448
   37.501880   49.193853
   37.506880   49.201183
   37.508077   49.202384
   37.525279   49.210743
   37.543672   49.216393
   37.555486   49.230613
   37.557286   49.231807
   37.564753   49.235164
   37.567900   49.235907
   37.578669   49.235822
   37.596581   49.234618
   37.614332   49.237658
   37.713175   49.224416
   37.745878   49.217667
   37.748150   49.217523
   37.761809   49.214348
   37.791537   49.208253
   37.792022   49.210412
   37.793439   49.211941
   37.796258   49.213135
   37.798915   49.213332
   37.806560   49.212355
   37.809332   49.211514
   37.812736   49.211136
   37.826020   49.210881
   37.827840   49.210422
   37.829821   49.209302
   37.830810   49.208173
   37.831279   49.206885
   37.837911   49.206487
   37.838842   49.207671
   37.840707   49.208824
   37.844200   49.223628
   37.845182   49.224824
   37.847200   49.226001
   37.848525   49.228519
   37.855857   49.235516
   37.857931   49.236575
   37.859795   49.236973
   37.873442   49.238462
   37.876125   49.238387
   37.877989   49.237865
   37.879539   49.236992
   37.881058   49.234984
   37.880266   49.226003
   37.883657   49.225473
   37.892097   49.223434
   37.894315   49.222542
   37.895557   49.221535
   37.896320   49.220331
   37.896434   49.217107
   37.915904   49.219816
   37.921491   49.221615
   37.924805   49.223225
   37.931107   49.225010
   37.933643   49.225299
   37.936154   49.224924
   37.938270   49.223938
   37.943219   49.219820
   37.947517   49.217172
   37.948848   49.215702
   37.949254   49.214436
   37.948943   49.212727
   37.948096   49.211565
   37.946795   49.210613
   37.940002   49.208168
   37.938036   49.207975
   37.936159   49.208164
   37.934703   49.206738
   37.931285   49.205179
   37.941254   49.193137
   37.941526   49.190969
   37.940266   49.188966
   37.938883   49.188041
   37.937164   49.187423
   37.917187   49.182600
   37.914382   49.181058
   37.912755   49.180522
   37.910963   49.178281
   37.909584   49.177164
   37.902880   49.174014
   37.908257   49.169196
   37.909236   49.167071
   37.909044   49.165733
   37.908102   49.164017
   37.903630   49.161048
   37.908444   49.157723
   37.919450   49.153373
   37.923168   49.150822
   37.930031   49.147610
   37.945443   49.143695
   37.953147   49.146993
   37.955717   49.147354
   37.957672   49.147168
   37.961139   49.145862
   37.962951   49.144671
   37.965998   49.139854
   37.978930   49.138419
   37.980973   49.137455
   37.984136   49.134980
   38.033965   49.131528
   38.034912   49.142580
   38.037027   49.151221
   38.038334   49.153259
   38.040328   49.154430
   38.043501   49.155022
   38.052219   49.154557
   38.067579   49.151256
   38.080213   49.152616
   38.082270   49.152621
   38.085121   49.151912
   38.087056   49.150685
   38.088245   49.148603
   38.090586   49.134637
   38.082101   49.112427
   38.074221   49.094976
   38.070255   49.071679
   38.069959   49.067303
   38.068747   49.062095
   38.067126   49.060124
   38.062173   49.057599
   38.079125   49.041207
   38.090690   49.021051
   38.092734   49.018621
   38.104204   49.000652
   38.105212   48.994058
   38.105036   48.991487
   38.104323   48.990237
   38.103099   48.989183
   38.100231   48.988100
   38.095571   48.987336
   38.080865   48.987489
   38.066800   48.984807
   38.060453   48.983344
   38.057630   48.982402
   38.057830   48.981815
   38.063011   48.978559
   38.063938   48.977418
   38.064346   48.976145
   38.064199   48.974847
   38.063510   48.973632
   38.059347   48.970181
   38.060409   48.964663
   38.060021   48.963362
   38.059089   48.962193
   38.057694   48.961256
   38.055957   48.960634
   38.054026   48.960378
   38.052068   48.960511
   38.031583   48.967837
   38.017552   48.951715
   38.017637   48.950432
   38.017175   48.949173
   38.015196   48.947373
   38.018975   48.946623
   38.021900   48.944985
   38.023137   48.943496
   38.023546   48.941666
   38.024436   48.940350
   38.025961   48.939336
   38.026817   48.938252
   38.033008   48.939763
   38.037524   48.939608
   38.040550   48.938627
   38.046907   48.942131
   38.051107   48.943730
   38.053232   48.944094
   38.055715   48.944144
   38.058183   48.943782
   38.064224   48.941526
   38.073219   48.942672
   38.079606   48.943921
   38.086601   48.944216
   38.092666   48.943949
   38.094908   48.943514
   38.096986   48.942539
   38.098886   48.941037
   38.100512   48.938617
   38.108751   48.937310
   38.114695   48.936823
   38.118798   48.935440
   38.120200   48.934658
   38.121999   48.932982
   38.122846   48.931030
   38.128353   48.930969
   38.130441   48.930642
   38.132689   48.929870
   38.134200   48.933157
   38.136402   48.935280
   38.138816   48.936643
   38.141440   48.937353
   38.148030   48.936988
   38.153780   48.935408
   38.160685   48.935038
   38.167943   48.935944
   38.181498   48.933722
   38.186831   48.933624
   38.190339   48.932812
   38.195522   48.932343
   38.201220   48.933257
   38.209127   48.935009
   38.216843   48.937711
   38.220628   48.938710
   38.225646   48.940981
   38.228193   48.941264
   38.231289   48.940682
   38.233628   48.939194
   38.234433   48.938003
   38.234698   48.936706
   38.235392   48.922459
   38.235083   48.888292
   38.235706   48.878469
   38.235813   48.858892
   38.235363   48.857059
   38.233387   48.855013
   38.233344   48.851685
   38.231696   48.849175
   38.231604   48.847639
   38.230549   48.844637
   38.258674   48.847232
   38.261239   48.847194
   38.263045   48.846737
   38.264584   48.845953
   38.266546   48.843872
   38.273456   48.838527
   38.277306   48.833843
   38.278331   48.829778
   38.313502   48.833004
   38.315473   48.832856
   38.317293   48.832326
   38.318803   48.831460
   38.319872   48.830334
   38.322543   48.818818
   38.323332   48.813106
   38.324709   48.809125
   38.324555   48.806664
   38.323758   48.804911
   38.321476   48.802527
   38.318199   48.801317
   38.286392   48.798514
   38.285273   48.798188
   38.289787   48.774033
   38.289742   48.772709
   38.288433   48.770702
   38.286463   48.769547
   38.284635   48.769064
   38.280355   48.768671
   38.271591   48.752342
   38.280983   48.746689
   38.287659   48.741462
   38.298009   48.741695
   38.304800   48.740522
   38.318918   48.739201
   38.324712   48.736570
   38.328456   48.731978
   38.329823   48.728843
   38.331813   48.714453
   38.331559   48.712733
   38.330368   48.711204
   38.327837   48.709893
   38.317474   48.708817
   38.320068   48.707247
   38.321281   48.705267
   38.320818   48.695599
   38.319297   48.692611
   38.317662   48.690722
   38.319509   48.689535
   38.320402   48.688347
   38.321842   48.685361
   38.321772   48.683167
   38.320605   48.681590
   38.318633   48.680433
   38.316802   48.679951
   38.313090   48.679608
   38.308601   48.677848
   38.305398   48.677690
   38.302077   48.678749
   38.297045   48.678502
   38.291250   48.677541
   38.293528   48.664848
   38.293276   48.663543
   38.292478   48.662343
   38.290687   48.661077
   38.288318   48.660364
   38.277931   48.660067
   38.275156   48.659238
   38.271989   48.659177
   38.272595   48.656720
   38.272294   48.655004
   38.271061   48.653490
   38.269076   48.652397
   38.267265   48.651954
   38.264781   48.651908
   38.263081   48.651112
   38.261243   48.650721
   38.252917   48.650357
   38.249715   48.650995
   38.248158   48.651860
   38.247016   48.653064
   38.245943   48.652992
   38.244661   48.652834
   38.243232   48.651570
   38.241562   48.650817
   38.235271   48.648851
   38.233134   48.648595
   38.234650   48.639553
   38.234757   48.639044
   38.254193   48.640902
   38.264078   48.641523
   38.265971   48.641218
   38.267654   48.640559
   38.268986   48.639601
   38.269855   48.638427
   38.278215   48.590902
   38.279029   48.588320
   38.279062   48.584333
   38.285906   48.546483
   38.285755   48.545099
   38.284778   48.543581
   38.285490   48.541138
   38.287441   48.540742
   38.289109   48.539979
   38.297283   48.533771
   38.325901   48.510961
   38.327235   48.508953
   38.327007   48.506759
   38.325271   48.504896
   38.322437   48.503806
   38.318703   48.503546
   38.322110   48.501321
   38.323230   48.499239
   38.322974   48.497469
   38.320693   48.494062
   38.316991   48.490121
   38.315682   48.489186
   38.313433   48.488394
   38.309895   48.488342
   38.309123   48.488051
   38.309480   48.485364
   38.308777   48.483105
   38.309959   48.479016
   38.311887   48.475886
   38.311686   48.474175
   38.310872   48.472949
   38.322704   48.468351
   38.324484   48.467086
   38.325423   48.465460
   38.325485   48.464149
   38.324986   48.462881
   38.319711   48.456557
   38.340969   48.444131
   38.342951   48.443391
   38.347504   48.445079
   38.352553   48.445961
   38.354923   48.445857
   38.357096   48.446860
   38.361275   48.447794
   38.370446   48.447448
   38.375240   48.446579
   38.379461   48.444866
   38.381099   48.443476
   38.384898   48.434761
   38.394748   48.437289
   38.393991   48.439411
   38.394295   48.441163
   38.395569   48.442703
   38.397619   48.443797
   38.410657   48.446390
   38.415006   48.447927
   38.429675   48.451899
   38.433931   48.452160
   38.435819   48.451826
   38.437485   48.451138
   38.439274   48.449616
   38.440019   48.447892
   38.440341   48.444398
   38.440018   48.442357
   38.441293   48.437748
   38.441015   48.436457
   38.439902   48.434775
   38.440125   48.432871
   38.441663   48.429921
   38.442866   48.424755
   38.445305   48.421628
   38.445783   48.420342
   38.446083   48.417161
   38.444966   48.414571
   38.445715   48.413302
   38.445914   48.412013
   38.445286   48.410188
   38.445246   48.407025
   38.443998   48.405021
   38.444887   48.399326
   38.443724   48.396193
   38.445034   48.393786
   38.447359   48.391672
   38.451102   48.385388
   38.454266   48.385631
   38.461107   48.384162
   38.470025   48.383566
   38.471838   48.383106
   38.473380   48.382315
   38.475013   48.380452
   38.478353   48.373825
   38.478788   48.371983
   38.480756   48.371484
   38.483850   48.370020
   38.486405   48.369381
   38.489524   48.367748
   38.493101   48.363523
   38.493545   48.362212
   38.493397   48.360870
   38.492310   48.359239
   38.490921   48.358274
   38.488332   48.356973
   38.486478   48.356444
   38.484474   48.356310
   38.482120   48.356694
   38.480188   48.356478
   38.479941   48.354758
   38.478450   48.352995
   38.478136   48.351937
   38.478701   48.350493
   38.478424   48.348748
   38.477576   48.347559
   38.476255   48.346585
   38.472316   48.344901
   38.469753   48.344562
   38.467609   48.344808
   38.462986   48.343275
   38.462943   48.341748
   38.462330   48.340528
   38.460773   48.339176
   38.459173   48.338473
   38.448695   48.337229
   38.446291   48.336435
   38.440993   48.335853
   38.442907   48.327312
   38.444636   48.326277
   38.445817   48.324727
   38.446793   48.319272
   38.447665   48.317521
   38.447840   48.316191
   38.447172   48.314474
   38.446050   48.313373
   38.444501   48.312542
   38.440059   48.311280
   38.438674   48.310200
   38.436554   48.307122
   38.434513   48.305780
   38.436169   48.303884
   38.438064   48.302825
   38.439364   48.301466
   38.440263   48.299592
   38.440484   48.297471
   38.440134   48.295488
   38.439472   48.294394
   38.437897   48.292889
   38.435717   48.291822
   38.436172   48.290500
   38.436056   48.289146
   38.435350   48.287876
   38.434195   48.286830
   38.435086   48.284477
   38.434706   48.282604
   38.567588   48.274578
   38.571800   48.273842
   38.574273   48.272551
   38.576028   48.272220
   38.579171   48.271013
   38.580900   48.269816
   38.581773   48.268514
   38.587248   48.265556
   38.593442   48.260594
   38.594998   48.258034
   38.595257   48.256006
   38.597593   48.253098
   38.597859   48.251261
   38.596492   48.248281
   38.596214   48.244816
   38.595212   48.242113
   38.596281   48.239975
   38.595528   48.237507
   38.596470   48.236315
   38.597007   48.234519
   38.595782   48.230682
   38.595739   48.229100
   38.598450   48.226792
   38.599166   48.224606
   38.601132   48.222299
   38.602521   48.219064
   38.604127   48.217356
   38.608314   48.215425
   38.609745   48.214135
   38.610512   48.212789
   38.612978   48.211595
   38.614666   48.209229
   38.618245   48.207378
   38.619914   48.205368
   38.619868   48.202640
   38.617940   48.200312
   38.617391   48.198351
   38.617064   48.195328
   38.618220   48.193140
   38.618393   48.191412
   38.617983   48.189969
   38.616438   48.187761
   38.614428   48.186228
   38.612642   48.185465
   38.609719   48.184829
   38.607923   48.182744
   38.607227   48.180824
   38.606383   48.179821
   38.608342   48.177862
   38.609333   48.175264
   38.611897   48.174553
   38.617176   48.173674
   38.636503   48.167745
   38.639733   48.168507
   38.645055   48.168884
   38.668749   48.169323
   38.671345   48.169037
   38.674707   48.167542
   38.676136   48.166529
   38.678412   48.162645
   38.677994   48.160507
   38.672773   48.153497
   38.676577   48.152729
   38.682146   48.150775
   38.685343   48.151759
   38.688632   48.151666
   38.691119   48.151069
   38.693161   48.150087
   38.704086   48.147898
   38.718581   48.145919
   38.720491   48.145346
   38.725156   48.142836
   38.730908   48.141138
   38.735445   48.140426
   38.739397   48.138973
   38.746910   48.139017
   38.752236   48.138153
   38.757120   48.136336
   38.758280   48.136156
   38.761994   48.136788
   38.767682   48.136603
   38.770106   48.135900
   38.774946   48.133421
   38.776344   48.134030
   38.779080   48.134633
   38.782349   48.134425
   38.784617   48.133626
   38.786511   48.132206
   38.787373   48.131103
   38.787968   48.129128
   38.790476   48.128863
   38.793483   48.127863
   38.795763   48.126382
   38.798809   48.125415
   38.801586   48.123173
   38.806072   48.123020
   38.808626   48.123602
   38.812259   48.123467
   38.815486   48.122372
   38.817019   48.121305
   38.823537   48.120238
   38.825940   48.118787
   38.826957   48.117180
   38.826848   48.115006
   38.823911   48.108049
   38.815074   48.090663
   38.822539   48.087290
   38.824023   48.085318
   38.823943   48.083107
   38.823136   48.081887
   38.819094   48.078428
   38.816463   48.077133
   38.812850   48.074458
   38.809634   48.073555
   38.814945   48.071669
   38.818691   48.076947
   38.823983   48.081056
   38.826726   48.082122
   38.829697   48.082254
   38.832174   48.081755
   38.834187   48.080660
   38.835680   48.078843
   38.835924   48.076724
   38.834874   48.074086
   38.835570   48.072665
   38.835411   48.070800
   38.836452   48.068738
   38.835716   48.066269
   38.836853   48.064794
   38.837186   48.063495
   38.836245   48.061079
   38.837335   48.060103
   38.838038   48.058823
   38.837874   48.056568
   38.836192   48.054486
   38.834221   48.053399
   38.831153   48.052857
   38.828209   48.053282
   38.827930   48.050917
   38.827302   48.049637
   38.825655   48.048230
   38.823458   48.047311
   38.825481   48.046580
   38.826797   48.045647
   38.831929   48.039515
   38.832285   48.037811
   38.831912   48.036541
   38.831021   48.035394
   38.829496   48.034365
   38.830361   48.033168
   38.857598   48.024298
   38.864488   48.019175
   38.922431   48.017164
   38.983237   48.013762
   38.996590   48.013840
   39.005408   48.013017
   39.016470   48.012795
   39.025643   48.012084
   39.040271   48.011454
   39.042862   48.010980
   39.044969   48.009858
   39.046421   48.007827
   39.047263   48.000349
   39.050179   47.988985
   39.049033   47.977332
   39.046541   47.960744
   39.049133   47.960239
   39.051064   47.959225
   39.054192   47.959216
   39.057001   47.958350
   39.058410   47.957386
   39.059367   47.956186
   39.060096   47.953263
   39.062954   47.955145
   39.064737   47.955675
   39.067217   47.955811
   39.068796   47.956748
   39.070522   47.957274
   39.074487   47.957430
   39.076947   47.956936
   39.078510   47.956172
   39.080832   47.954221
   39.082186   47.952117
   39.083721   47.951510
   39.085087   47.950529
   39.086212   47.948792
   39.086656   47.946874
   39.089206   47.945281
   39.092508   47.945455
   39.095503   47.944589
   39.097236   47.943267
   39.098143   47.941156
   39.096860   47.937233
   39.072204   47.895687
   39.081030   47.870375
   39.080936   47.868656
   39.080240   47.867451
   39.079066   47.866428
   39.077511   47.865671
   39.074427   47.865157
   38.954826   47.864878
   38.950749   47.865294
   38.940881   47.868566
   38.914209   47.870031
   38.910796   47.868479
   38.907246   47.867915
   38.903272   47.867826
   38.899624   47.868105
   38.895478   47.869156
   38.892793   47.868568
   38.890880   47.868562
   38.885304   47.869732
   38.883578   47.865154
   38.881883   47.863804
   38.880176   47.863139
   38.878255   47.862837
   38.849662   47.861265
   38.849405   47.850957
   38.848214   47.848861
   38.845676   47.847408
   38.843087   47.846959
   38.839995   47.847038
   38.837715   47.845867
   38.834801   47.845188
   38.832998   47.844232
   38.833026   47.842484
   38.832521   47.841118
   38.833345   47.838821
   38.832900   47.836077
   38.834900   47.833580
   38.835156   47.831662
   38.837759   47.830219
   38.838668   47.829043
   38.839068   47.827648
   38.838534   47.824163
   38.837655   47.822743
   38.835815   47.821190
   38.835504   47.814900
   38.834350   47.812881
   38.831937   47.811455
   38.829465   47.810967
   38.796213   47.811058
   38.796572   47.802114
   38.797194   47.800260
   38.797070   47.795489
   38.796110   47.793822
   38.792784   47.790854
   38.790928   47.789907
   38.790994   47.789350
   38.794221   47.789105
   38.796008   47.788653
   38.799025   47.786620
   38.799800   47.785020
   38.799785   47.783497
   38.799411   47.782252
   38.798165   47.780808
   38.800513   47.779834
   38.801975   47.778455
   38.802674   47.776907
   38.803140   47.772986
   38.802431   47.771378
   38.801076   47.770169
   38.801153   47.768814
   38.800363   47.767143
   38.798691   47.765801
   38.796305   47.764762
   38.795976   47.737058
   38.795654   47.735708
   38.794330   47.734125
   38.792188   47.733021
   38.789110   47.732506
   38.783967   47.732425
   38.782980   47.732010
   38.783213   47.730525
   38.782510   47.727997
   38.781194   47.726531
   38.778872   47.725236
   38.779188   47.723421
   38.778592   47.721828
   38.779574   47.719458
   38.779312   47.685056
   38.778778   47.683311
   38.776788   47.681543
   38.775068   47.680872
   38.773131   47.680570
   38.755372   47.680795
   38.752988   47.680053
   38.750689   47.679948
   38.748108   47.677458
   38.745852   47.676423
   38.741085   47.675740
   38.735016   47.675698
   38.733227   47.676072
   38.731435   47.676852
   38.729172   47.678790
   38.728502   47.680914
   38.729288   47.684213
   38.728065   47.685328
   38.725441   47.686718
   38.723388   47.689482
   38.723183   47.691770
   38.724220   47.694251
   38.672439   47.694283
   38.672862   47.678382
   38.672623   47.670158
   38.672139   47.668252
   38.671313   47.667061
   38.668938   47.665585
   38.666466   47.665057
   38.636394   47.664735
   38.636428   47.653604
   38.635631   47.651456
   38.633419   47.649820
   38.630126   47.649084
   38.626592   47.645718
   38.623540   47.644095
   38.621655   47.641705
   38.619032   47.640388
   38.616457   47.640041
   38.463396   47.639686
   38.463318   47.616563
   38.462199   47.614481
   38.460856   47.613496
   38.459145   47.612819
   38.456553   47.612493
   38.406609   47.612365
   38.401261   47.612594
   38.357434   47.612242
   38.357718   47.579119
   38.357569   47.575700
   38.356780   47.574050
   38.354608   47.572465
   38.351593   47.571739
   38.317777   47.571592
   38.318095   47.553114
   38.317187   47.550997
   38.314873   47.548658
   38.312500   47.542649
   38.310871   47.541248
   38.307924   47.540263
   38.291723   47.540022
   38.291761   47.523861
   38.292175   47.521827
   38.291634   47.517962
   38.291774   47.511793
   38.296180   47.510745
   38.298423   47.509120
   38.300209   47.504945
   38.300527   47.502111
   38.299913   47.499954
   38.297834   47.497575
   38.298466   47.495888
   38.297894   47.493208
   38.298605   47.491531
   38.298538   47.489597
   38.297423   47.487930
   38.294919   47.486264
   38.293623   47.484800
   38.294657   47.482500
   38.294893   47.480516
   38.296784   47.480342
   38.299284   47.479488
   38.302928   47.479601
   38.305381   47.479079
   38.306929   47.478297
   38.308081   47.477249
   38.308929   47.475046
   38.309612   47.437263
   38.309314   47.429520
   38.310059   47.407459
   38.309280   47.398295
   38.309204   47.390723
   38.307823   47.388759
   38.306385   47.387874
   38.304631   47.387304
   38.293556   47.387028
   38.293679   47.373171
   38.292609   47.371100
   38.290781   47.369843
   38.289016   47.369265
   38.287077   47.369056
   38.260525   47.368849
   38.259154   47.367456
   38.256390   47.365861
   38.253717   47.363267
   38.254070   47.361755
   38.255515   47.359864
   38.255985   47.356723
   38.255108   47.354268
   38.252770   47.352347
   38.252598   47.350129
   38.251673   47.348322
   38.249546   47.346420
   38.243120   47.342473
   38.241379   47.341822
   38.237667   47.341118
   38.237011   47.337797
   38.236314   47.336635
   38.234296   47.335053
   38.231508   47.333991
   38.233193   47.331894
   38.233593   47.329679
   38.233059   47.328313
   38.231599   47.326518
   38.230203   47.325668
   38.227629   47.324836
   38.227945   47.310029
   38.234976   47.310119
   38.240730   47.310549
   38.286600   47.310815
   38.301167   47.310575
   38.332453   47.310904
   38.337252   47.310726
   38.339177   47.310325
   38.340839   47.309557
   38.342088   47.308491
   38.342966   47.306320
   38.342656   47.304606
   38.341040   47.301434
   38.338991   47.299252
   38.339900   47.298116
   38.340297   47.296772
   38.339806   47.292082
   38.338965   47.290362
   38.336452   47.288019
   38.334714   47.284178
   38.332338   47.281913
   38.333462   47.279747
   38.336219   47.278053
   38.337416   47.275988
   38.339043   47.274352
   38.340408   47.269166
   38.339795   47.267573
   38.338070   47.265760
   38.338451   47.264090
   38.338121   47.262457
   38.335805   47.259003
   38.329662   47.253712
   38.327678   47.252633
   38.324600   47.252107
   38.294886   47.251923
   38.295101   47.238324
   38.294380   47.236637
   38.292241   47.234993
   38.290486   47.234407
   38.288555   47.234187
   38.264351   47.233857
   38.262040   47.231812
   38.257694   47.229853
   38.252274   47.229016
   38.247134   47.228961
   38.242169   47.227738
   38.244616   47.225717
   38.246500   47.223040
   38.246999   47.221548
   38.248799   47.219701
   38.249467   47.216965
   38.248338   47.213386
   38.248530   47.211962
   38.247553   47.208786
   38.245043   47.206117
   38.242776   47.204793
   38.242090   47.203729
   38.242918   47.196056
   38.242966   47.182165
   38.243459   47.179127
   38.243135   47.177211
   38.243423   47.143732
   38.243129   47.139369
   38.238373   47.128265
   38.235796   47.125392
   38.235208   47.122893
   38.236056   47.121282
   38.344057   46.982858
   38.344721   46.981558
   38.344775   46.980184
   38.344215   46.978862
   38.343091   46.977714
   38.145351   46.857638
   38.143257   46.856774
   37.870938   46.840226
   37.622949   46.825521
   37.441184   46.712011
   37.432087   46.708128
   37.416871   46.702526
   37.400757   46.697483
   37.384196   46.693173
   37.367258   46.689614
   37.350016   46.686823
   37.332544   46.684811
   37.314918   46.683587
   37.297212   46.683157
   37.279503   46.683521
   37.261866   46.684680
   37.244378   46.686627
   37.227114   46.689354
   37.209727   46.692947
   37.193142   46.697214
   37.177001   46.702216
   37.165530   46.706401
   37.163525   46.707519
   37.162522   46.708653
   37.056437   46.881948
   37.027833   46.915178
   37.025698   46.917442
   37.015898   46.925334
   37.015045   46.926499
   37.014718   46.927780
   37.014944   46.929071
   37.015706   46.930265
   37.016940   46.931264
   37.027480   46.937647
   37.058465   46.954966
   37.077309   46.966090
   37.088554   46.972098
   37.091623   46.972865
   37.093597   46.972812
   37.095464   46.972374
   37.097506   46.971259
   37.103559   46.966346
   37.130331   46.981707
   37.085386   47.003807
   37.083599   47.005121
   37.082703   47.006798
   37.082838   47.008578
   37.083981   47.010185
   37.116160   47.038978
   37.097954   47.052963
   37.089913   47.048329
   37.085613   47.044066
   37.082695   47.043068
   37.079423   47.043120
   37.019722   47.063330
   36.990310   47.072894
   36.980855   47.076477
   36.979091   47.078339
   36.978764   47.080099
   36.979794   47.082197
   36.982049   47.083877
   36.985011   47.084922
   36.989846   47.085497
   36.992244   47.086686
   36.996504   47.087904
   36.999812   47.088036
   37.003853   47.088902
   37.002098   47.091217
   37.002172   47.093848
   37.000423   47.094697
   36.997715   47.096768
   36.995830   47.099118
   36.995314   47.100822
   36.995579   47.102118
   36.997188   47.104734
   36.999269   47.106281
   37.001400   47.106996
   37.003000   47.108773
   36.996971   47.109962
   36.995345   47.110770
   36.994150   47.111866
   36.992899   47.115428
   36.993450   47.118421
   36.994051   47.119559
   36.990716   47.119382
   36.988770   47.119693
   36.987021   47.120352
   36.983976   47.119891
   36.981408   47.120113
   36.979156   47.120974
   36.974954   47.123539
   36.972720   47.125704
   36.972282   47.127061
   36.972486   47.128470
   36.970736   47.130326
   36.968931   47.130589
   36.967184   47.131239
   36.964176   47.133896
   36.963608   47.136447
   36.964850   47.139203
   36.961453   47.140523
   36.958727   47.141980
   36.957383   47.143483
   36.956987   47.144836
   36.952828   47.145192
   36.950042   47.146224
   36.947726   47.148645
   36.947427   47.150775
   36.945222   47.152049
   36.944252   47.153144
   36.940138   47.152785
   36.936951   47.153425
   36.933046   47.156092
   36.931819   47.158021
   36.926241   47.155923
   36.924206   47.155781
   36.920468   47.156246
   36.918205   47.157190
   36.916549   47.158521
   36.915866   47.159743
   36.915754   47.161407
   36.909832   47.160642
   36.906646   47.161004
   36.903423   47.162446
   36.901166   47.165044
   36.898923   47.165890
   36.896710   47.167606
   36.893618   47.166623
   36.890789   47.166143
   36.888838   47.166139
   36.886267   47.166563
   36.884043   47.167442
   36.880716   47.170152
   36.878847   47.170483
   36.874626   47.172107
   36.873032   47.173210
   36.871592   47.174923
   36.870487   47.177680
   36.868637   47.178557
   36.866353   47.180397
   36.863342   47.180728
   36.860365   47.181882
   36.858534   47.183120
   36.857412   47.184781
   36.853652   47.186861
   36.852770   47.188061
   36.852374   47.189848
   36.849599   47.193193
   36.849324   47.194845
   36.849664   47.196231
   36.848446   47.197651
   36.848070   47.198965
   36.848280   47.200295
   36.849434   47.201895
   36.851413   47.203071
   36.853259   47.203562
   36.886603   47.204531
   36.887802   47.207493
   36.888767   47.208665
   36.890757   47.209835
   36.893263   47.210396
   36.931807   47.211457
   36.934829   47.210622
   36.936596   47.209314
   36.937484   47.207650
   36.937691   47.205317
   36.954709   47.205915
   36.950193   47.223872
   36.947605   47.223943
   36.945247   47.224671
   36.943475   47.225949
   36.942555   47.227584
   36.935237   47.256663
   36.931181   47.277143
   36.929729   47.286520
   36.928309   47.292351
   36.922273   47.306938
   36.919396   47.318719
   36.919374   47.320012
   36.919896   47.321257
   36.920920   47.322352
   36.922361   47.323206
   36.925359   47.323917
   36.943564   47.325137
   36.946224   47.324954
   36.948567   47.324084
   36.950220   47.322667
   36.952208   47.315834
   37.025968   47.319295
   37.027921   47.319198
   37.030303   47.318489
   37.031726   47.317581
   37.033429   47.315527
   37.034175   47.313921
   37.037469   47.312871
   37.039387   47.311676
   37.041899   47.307006
   37.059739   47.313059
   37.073863   47.316919
   37.074237   47.319010
   37.076424   47.321174
   37.076769   47.323071
   37.078027   47.324666
   37.079529   47.325573
   37.086322   47.327976
   37.085641   47.329388
   37.085625   47.330690
   37.086160   47.331940
   37.087646   47.333351
   37.114154   47.342689
   37.099964   47.375112
   37.100150   47.377303
   37.101397   47.378850
   37.103427   47.379959
   37.105280   47.380398
   37.144766   47.385546
   37.146765   47.385602
   37.149299   47.385058
   37.150883   47.384233
   37.152305   47.382717
   37.166288   47.348009
   37.195210   47.358001
   37.188222   47.371904
   37.187869   47.373251
   37.188130   47.374608
   37.211748   47.414343
   37.223404   47.434706
   37.225929   47.439748
   37.226979   47.440829
   37.228440   47.441665
   37.230192   47.442189
   37.232600   47.442336
   37.239427   47.454877
   37.235334   47.456210
   37.234006   47.457183
   37.233152   47.458374
   37.232960   47.460560
   37.234870   47.464008
   37.223575   47.464171
   37.217887   47.464940
   37.216774   47.463710
   37.215301   47.462849
   37.213523   47.462310
   37.211590   47.462139
   37.206291   47.462601
   37.204585   47.463145
   37.202878   47.464245
   37.189555   47.464635
   37.187626   47.464907
   37.185898   47.465545
   37.184519   47.466494
   37.183609   47.467672
   37.183245   47.468978
   37.183742   47.472512
   37.186815   47.476677
   37.182882   47.477827
   37.175485   47.467711
   37.162964   47.452056
   37.161024   47.450930
   37.158601   47.450377
   37.156676   47.450390
   37.154269   47.450974
   37.148439   47.453347
   37.127728   47.463276
   37.124646   47.464220
   37.121840   47.466182
   37.120710   47.468497
   37.084766   47.489829
   37.081567   47.487824
   37.079759   47.487341
   37.077822   47.487228
   37.074748   47.487874
   37.071944   47.489040
   37.069272   47.490644
   37.020634   47.545913
   37.005468   47.535171
   37.002360   47.534371
   36.999064   47.534676
   36.997337   47.535370
   36.995993   47.536378
   36.978682   47.554123
   36.969289   47.549219
   36.967368   47.548903
   36.965393   47.548978
   36.962446   47.549941
   36.943115   47.569247
   36.897386   47.541272
   36.895598   47.540639
   36.893611   47.540394
   36.890350   47.540890
   36.888712   47.541687
   36.887500   47.542777
   36.827513   47.618111
   36.766056   47.596368
   36.762035   47.596108
   36.760216   47.596499
   36.758635   47.597220
   36.756861   47.598985
   36.755455   47.602660
   36.747625   47.602084
   36.745103   47.602551
   36.743492   47.603312
   36.742278   47.604355
   36.741450   47.606028
   36.738604   47.621172
   36.739004   47.623375
   36.740426   47.624878
   36.743221   47.626050
   36.758527   47.627484
   36.758412   47.629207
   36.725350   47.626571
   36.722841   47.626858
   36.720671   47.627754
   36.719457   47.628751
   36.718577   47.630361
   36.711674   47.658036
   36.711871   47.660196
   36.712710   47.661374
   36.714012   47.662340
   36.716906   47.663275
   36.745422   47.665432
   36.745661   47.666888
   36.746784   47.668401
   36.749049   47.670247
   36.751415   47.671142
   36.769367   47.672428
   36.771394   47.673556
   36.773782   47.674131
   36.773434   47.676271
   36.774668   47.678925
   36.713453   47.674348
   36.710228   47.674878
   36.707775   47.676387
   36.706783   47.678056
   36.704723   47.685641
   36.694502   47.727301
   36.686759   47.726433
   36.684166   47.726485
   36.682347   47.726962
   36.680808   47.727771
   36.679206   47.729664
   36.671986   47.757376
   36.672051   47.759084
   36.673044   47.760646
   36.665868   47.788298
   36.596627   47.779691
   36.586032   47.780214
   36.584221   47.780761
   36.582323   47.781996
   36.581172   47.784071
   36.580944   47.795585
   36.581998   47.817543
   36.583131   47.819194
   36.585740   47.820622
   36.593821   47.821514
   36.601645   47.840412
   36.599860   47.845240
   36.585198   47.842883
   36.583266   47.842989
   36.581460   47.843464
   36.579129   47.844953
   36.578179   47.846569
   36.576175   47.853823
   36.571132   47.875035
   36.549061   47.872849
   36.545973   47.873458
   36.543661   47.874967
   36.542737   47.876593
   36.535263   47.905689
   36.535608   47.907480
   36.536965   47.909037
   36.539117   47.910112
   36.541050   47.910495
END
END
