ivano-frankivsk
1
   23.541432   48.727912
   23.541718   48.731557
   23.542978   48.734585
   23.542415   48.736887
   23.542750   48.739169
   23.544642   48.742553
   23.547890   48.746490
   23.547458   48.748677
   23.549902   48.756740
   23.549524   48.758270
   23.549874   48.759645
   23.551431   48.761515
   23.553781   48.762660
   23.555508   48.766215
   23.557780   48.767637
   23.560062   48.769650
   23.561749   48.774424
   23.562838   48.775998
   23.564139   48.776957
   23.568559   48.778925
   23.569702   48.779767
   23.569476   48.781970
   23.570542   48.783860
   23.568411   48.785582
   23.567067   48.787712
   23.565973   48.790931
   23.563070   48.794253
   23.562326   48.800110
   23.562758   48.802254
   23.560008   48.804341
   23.551919   48.811958
   23.550773   48.814168
   23.551110   48.816740
   23.547457   48.818512
   23.546179   48.819542
   23.545278   48.821213
   23.545414   48.822985
   23.546282   48.824396
   23.547528   48.825408
   23.558617   48.831083
   23.559422   48.834280
   23.562172   48.838496
   23.560041   48.840550
   23.559643   48.841877
   23.559853   48.843223
   23.561479   48.845185
   23.565541   48.847580
   23.564673   48.848818
   23.561559   48.851624
   23.560793   48.852904
   23.560593   48.854200
   23.561501   48.856273
   23.563788   48.857843
   23.564551   48.859229
   23.564906   48.862395
   23.565537   48.863670
   23.568386   48.865750
   23.570971   48.870038
   23.573845   48.871848
   23.577911   48.875309
   23.580747   48.876315
   23.584307   48.876538
   23.589806   48.879362
   23.586823   48.880337
   23.582939   48.880152
   23.578662   48.880985
   23.571302   48.885417
   23.569548   48.887745
   23.569053   48.889670
   23.567365   48.891578
   23.566449   48.893342
   23.565635   48.895616
   23.565801   48.896992
   23.561843   48.899940
   23.559598   48.905123
   23.555686   48.908363
   23.554770   48.909955
   23.554966   48.912074
   23.557197   48.915579
   23.559393   48.920474
   23.561492   48.923524
   23.561688   48.925709
   23.563406   48.928190
   23.566056   48.933322
   23.566965   48.934492
   23.569299   48.936293
   23.573079   48.943207
   23.577317   48.947685
   23.578760   48.954001
   23.576249   48.955628
   23.574868   48.957038
   23.573200   48.959900
   23.572705   48.961648
   23.566031   48.963659
   23.563357   48.964959
   23.561401   48.966468
   23.559524   48.970522
   23.559214   48.975739
   23.560006   48.977041
   23.562240   48.979019
   23.566989   48.981593
   23.571590   48.983146
   23.577469   48.988513
   23.581969   48.990994
   23.589519   48.999557
   23.593978   49.003027
   23.597619   49.004846
   23.601227   49.005449
   23.607803   49.008687
   23.613252   49.012509
   23.615879   49.015108
   23.615241   49.018671
   23.613499   49.021793
   23.613548   49.023472
   23.615788   49.027417
   23.617586   49.028855
   23.626069   49.031375
   23.629884   49.034287
   23.633460   49.035762
   23.636022   49.036106
   23.639187   49.035602
   23.645888   49.033083
   23.647393   49.031635
   23.648178   49.030001
   23.648260   49.028496
   23.648810   49.028229
   23.650613   49.029469
   23.653491   49.030787
   23.656157   49.031216
   23.658286   49.031038
   23.664749   49.036054
   23.666344   49.037727
   23.666127   49.040524
   23.667018   49.042622
   23.668239   49.043798
   23.671710   49.045488
   23.672467   49.046150
   23.671559   49.047527
   23.671046   49.049554
   23.671147   49.051616
   23.671958   49.053423
   23.672322   49.057432
   23.675854   49.064833
   23.676882   49.065928
   23.679403   49.067402
   23.675586   49.068304
   23.672964   49.070063
   23.670673   49.074322
   23.670622   49.076637
   23.671643   49.078355
   23.675818   49.081535
   23.677773   49.083780
   23.677909   49.084140
   23.676601   49.086245
   23.676936   49.088466
   23.683679   49.095972
   23.684502   49.098106
   23.685622   49.099276
   23.688902   49.100943
   23.691449   49.101412
   23.693518   49.103938
   23.696280   49.105315
   23.700391   49.105606
   23.703919   49.104771
   23.708597   49.106567
   23.711133   49.107032
   23.713744   49.106823
   23.716041   49.105972
   23.717993   49.104146
   23.721803   49.101819
   23.722859   49.100533
   23.727691   49.103335
   23.730310   49.104346
   23.730625   49.107131
   23.731683   49.110168
   23.734012   49.113233
   23.735575   49.114113
   23.738342   49.114988
   23.741016   49.116439
   23.747816   49.117136
   23.748389   49.117854
   23.748141   49.120858
   23.748473   49.122253
   23.750112   49.124202
   23.751713   49.125030
   23.756847   49.126456
   23.760647   49.126866
   23.765609   49.126575
   23.767614   49.126086
   23.769508   49.125301
   23.772280   49.123252
   23.776164   49.121299
   23.778712   49.123207
   23.781507   49.124302
   23.784107   49.124599
   23.787274   49.124019
   23.791277   49.121491
   23.793698   49.118887
   23.799357   49.115689
   23.802639   49.111812
   23.804670   49.112930
   23.811048   49.114676
   23.813714   49.114696
   23.815739   49.114212
   23.817884   49.114425
   23.821776   49.114075
   23.822963   49.116005
   23.824874   49.117248
   23.827358   49.117906
   23.830196   49.118033
   23.833550   49.117532
   23.871997   49.114410
   23.882110   49.112731
   23.884542   49.111951
   23.885960   49.110984
   23.887067   49.109346
   23.887152   49.107671
   23.899577   49.106124
   23.903024   49.105012
   23.904423   49.107715
   23.908588   49.112369
   23.918868   49.117999
   23.922957   49.119883
   23.924339   49.121028
   23.926402   49.123952
   23.927598   49.124957
   23.937430   49.128522
   23.943418   49.131255
   23.953552   49.134056
   23.956145   49.134243
   23.958465   49.133839
   23.963847   49.140446
   23.965143   49.141405
   23.966795   49.142083
   23.969313   49.142455
   23.971240   49.142308
   23.980972   49.139288
   23.983324   49.139561
   23.985236   49.139370
   23.991696   49.137220
   24.003644   49.134791
   24.007594   49.133654
   24.017857   49.128755
   24.020093   49.126325
   24.020704   49.123055
   24.027481   49.127089
   24.031655   49.128587
   24.033906   49.131136
   24.036762   49.133110
   24.037856   49.134871
   24.040013   49.136192
   24.041757   49.139484
   24.045463   49.143176
   24.048524   49.145010
   24.050248   49.145595
   24.050549   49.147074
   24.051552   49.148672
   24.054556   49.150785
   24.056414   49.151393
   24.058461   49.151602
   24.069703   49.150823
   24.073008   49.150833
   24.077057   49.151260
   24.079328   49.152714
   24.082109   49.153322
   24.086556   49.153165
   24.091033   49.151582
   24.095593   49.150944
   24.098388   49.150055
   24.102540   49.149608
   24.105664   49.148416
   24.109234   49.145452
   24.110291   49.144989
   24.114484   49.146271
   24.117090   49.146554
   24.119652   49.146287
   24.123875   49.144754
   24.127121   49.145880
   24.134768   49.147265
   24.140766   49.146994
   24.143256   49.146426
   24.145178   49.145660
   24.148544   49.143502
   24.152613   49.135424
   24.155266   49.133063
   24.156280   49.132709
   24.156984   49.135509
   24.158908   49.137596
   24.159745   49.139628
   24.166370   49.146839
   24.168929   49.148224
   24.172167   49.148645
   24.175514   49.147928
   24.183973   49.147371
   24.188801   49.145504
   24.192055   49.144863
   24.195114   49.143456
   24.200679   49.147394
   24.200571   49.149134
   24.201809   49.151122
   24.203717   49.152294
   24.205509   49.152811
   24.212692   49.152820
   24.216868   49.151601
   24.221177   49.149701
   24.231978   49.148918
   24.235945   49.150815
   24.236744   49.152204
   24.238561   49.153543
   24.241021   49.154304
   24.244370   49.154472
   24.246969   49.156365
   24.253052   49.159478
   24.256235   49.160589
   24.259393   49.162762
   24.270324   49.168650
   24.278872   49.172464
   24.283876   49.173197
   24.291798   49.173000
   24.293902   49.173710
   24.299507   49.174143
   24.305630   49.175312
   24.310231   49.177461
   24.314514   49.178712
   24.317289   49.178935
   24.326474   49.182677
   24.331153   49.184224
   24.335236   49.184850
   24.344421   49.185530
   24.347611   49.185252
   24.349023   49.185737
   24.351689   49.188902
   24.353847   49.189933
   24.374336   49.193175
   24.384143   49.193856
   24.386083   49.193684
   24.387869   49.193151
   24.390112   49.191596
   24.391018   49.189515
   24.395607   49.184791
   24.402467   49.181326
   24.405544   49.178866
   24.413661   49.176088
   24.417578   49.173977
   24.421551   49.174623
   24.424722   49.175886
   24.427744   49.176582
   24.427402   49.178798
   24.429028   49.182041
   24.426263   49.186521
   24.424975   49.189749
   24.424899   49.190944
   24.425471   49.192554
   24.428597   49.197260
   24.430443   49.198928
   24.429061   49.201607
   24.427969   49.205755
   24.427999   49.212159
   24.429365   49.214474
   24.427498   49.217474
   24.427195   49.219121
   24.427887   49.221918
   24.428645   49.223151
   24.433537   49.226894
   24.431928   49.227401
   24.429123   49.227482
   24.420379   49.226014
   24.416576   49.225733
   24.407880   49.223846
   24.396330   49.223846
   24.387369   49.223097
   24.382187   49.224224
   24.376259   49.226001
   24.370429   49.226970
   24.365779   49.227144
   24.356797   49.228726
   24.354211   49.229572
   24.345241   49.234037
   24.340901   49.237390
   24.335678   49.240390
   24.334473   49.241927
   24.334322   49.244083
   24.334974   49.245312
   24.336127   49.246367
   24.337684   49.247159
   24.339812   49.247668
   24.339802   49.250637
   24.341169   49.255725
   24.342230   49.257372
   24.343953   49.258514
   24.343638   49.260541
   24.344686   49.262959
   24.346013   49.264528
   24.347559   49.265408
   24.349429   49.265945
   24.351870   49.266065
   24.352224   49.270845
   24.356063   49.277109
   24.354193   49.277891
   24.352616   49.279269
   24.352013   49.280508
   24.351718   49.282924
   24.339451   49.286496
   24.334788   49.283602
   24.328024   49.282049
   24.323508   49.279293
   24.316836   49.276239
   24.315371   49.274792
   24.313257   49.273750
   24.308427   49.272846
   24.306282   49.272717
   24.302518   49.273217
   24.300319   49.274129
   24.298793   49.275522
   24.294985   49.282029
   24.292829   49.286742
   24.292327   49.289160
   24.291986   49.295676
   24.292472   49.300890
   24.295256   49.317256
   24.296296   49.318852
   24.297634   49.319812
   24.299951   49.320623
   24.302556   49.320793
   24.305660   49.320062
   24.338009   49.315554
   24.340561   49.316670
   24.343236   49.316942
   24.348350   49.321022
   24.349601   49.322636
   24.353840   49.325535
   24.356034   49.326529
   24.358634   49.326889
   24.361244   49.326561
   24.362966   49.325888
   24.376818   49.316735
   24.379728   49.322329
   24.383015   49.325420
   24.386518   49.331277
   24.387188   49.334625
   24.388693   49.336143
   24.390728   49.337146
   24.388856   49.338223
   24.387887   49.339316
   24.386923   49.341405
   24.386812   49.343023
   24.389481   49.348687
   24.389575   49.353951
   24.391610   49.359192
   24.393562   49.361309
   24.394251   49.363700
   24.397643   49.367773
   24.400365   49.370229
   24.403226   49.371200
   24.406878   49.371104
   24.409252   49.371970
   24.412907   49.372408
   24.414544   49.374570
   24.416756   49.375938
   24.415724   49.377753
   24.415963   49.379724
   24.414247   49.380930
   24.413206   49.382802
   24.406437   49.386119
   24.403139   49.388610
   24.400479   49.388635
   24.385032   49.390677
   24.383187   49.391263
   24.381686   49.392187
   24.380666   49.393365
   24.380207   49.395146
   24.382314   49.401460
   24.382457   49.402988
   24.381382   49.405588
   24.381330   49.407203
   24.379531   49.407934
   24.372508   49.409457
   24.370968   49.410245
   24.369826   49.411290
   24.369078   49.412935
   24.367054   49.425486
   24.358921   49.426236
   24.356442   49.426804
   24.354094   49.428313
   24.353300   49.429512
   24.353056   49.430813
   24.353383   49.432105
   24.354956   49.434569
   24.356968   49.436313
   24.359329   49.437119
   24.363838   49.437453
   24.366957   49.438890
   24.380494   49.446398
   24.382914   49.446939
   24.404393   49.448893
   24.406232   49.459059
   24.409906   49.470369
   24.407053   49.472201
   24.400988   49.480608
   24.394909   49.493665
   24.394704   49.495880
   24.396282   49.498442
   24.399480   49.500971
   24.402396   49.502287
   24.404474   49.502727
   24.406625   49.506640
   24.408399   49.508044
   24.410204   49.508723
   24.413615   49.509180
   24.422053   49.511650
   24.428114   49.512752
   24.430602   49.513587
   24.430511   49.515103
   24.431079   49.516405
   24.432203   49.517537
   24.434393   49.518721
   24.433339   49.522927
   24.431018   49.526216
   24.430267   49.529514
   24.428406   49.532677
   24.427604   49.535312
   24.427807   49.537562
   24.429752   49.540063
   24.434292   49.542750
   24.436599   49.543713
   24.438439   49.545346
   24.441654   49.546334
   24.444767   49.548577
   24.447541   49.549594
   24.450656   49.549721
   24.453333   49.549117
   24.455929   49.547546
   24.457185   49.545449
   24.474825   49.548050
   24.476351   49.550217
   24.477811   49.551069
   24.479573   49.551611
   24.482397   49.551766
   24.485132   49.552284
   24.488454   49.552207
   24.490333   49.551855
   24.491984   49.551162
   24.493271   49.550186
   24.494088   49.549007
   24.494368   49.547274
   24.496152   49.545796
   24.498510   49.545544
   24.501679   49.544376
   24.503192   49.543349
   24.504699   49.541615
   24.505324   49.539174
   24.504331   49.536650
   24.501177   49.533936
   24.498068   49.532350
   24.499039   49.531406
   24.500821   49.528395
   24.501058   49.526971
   24.500725   49.524965
   24.506550   49.522202
   24.509557   49.519382
   24.514693   49.520905
   24.523911   49.522565
   24.527514   49.522793
   24.531458   49.523671
   24.534106   49.523721
   24.535288   49.524283
   24.535385   49.525500
   24.536073   49.526779
   24.538367   49.528433
   24.566910   49.538279
   24.568853   49.538618
   24.571515   49.538461
   24.579736   49.535089
   24.581090   49.533673
   24.581656   49.531781
   24.583096   49.529968
   24.585514   49.528811
   24.593623   49.522848
   24.604375   49.519059
   24.606729   49.517371
   24.610498   49.515813
   24.613206   49.514003
   24.613674   49.513936
   24.617273   49.515205
   24.620324   49.515409
   24.622426   49.515136
   24.625429   49.513998
   24.627275   49.512860
   24.630829   49.508883
   24.635910   49.505968
   24.638247   49.503142
   24.641793   49.501705
   24.643341   49.501514
   24.646457   49.503110
   24.648672   49.506639
   24.651660   49.508846
   24.653940   49.509720
   24.656548   49.509953
   24.658486   49.509683
   24.660224   49.509054
   24.665555   49.505784
   24.675359   49.503035
   24.678753   49.501460
   24.683145   49.502658
   24.686338   49.502634
   24.695096   49.499366
   24.698602   49.498384
   24.700673   49.499410
   24.703159   49.499977
   24.704908   49.500043
   24.708820   49.499553
   24.712842   49.500403
   24.717174   49.500653
   24.719665   49.500061
   24.721579   49.498922
   24.723331   49.499091
   24.725456   49.498892
   24.730030   49.497429
   24.734048   49.494675
   24.735173   49.492957
   24.735844   49.490433
   24.735865   49.485213
   24.734746   49.483009
   24.738682   49.479437
   24.739892   49.477176
   24.743908   49.473737
   24.745383   49.471822
   24.748170   49.470387
   24.751408   49.467060
   24.752733   49.463857
   24.751847   49.461319
   24.754522   49.458265
   24.755050   49.456122
   24.757876   49.452615
   24.758164   49.450786
   24.760761   49.448719
   24.765600   49.445836
   24.769417   49.442776
   24.770373   49.441621
   24.770781   49.439750
   24.772042   49.437623
   24.776006   49.434667
   24.777696   49.432481
   24.778000   49.431170
   24.777576   49.428675
   24.776019   49.425968
   24.774699   49.424724
   24.776621   49.422379
   24.781129   49.413599
   24.781146   49.409923
   24.780050   49.407574
   24.780939   49.404902
   24.781391   49.401507
   24.779989   49.395046
   24.781033   49.393321
   24.781049   49.391765
   24.784150   49.387282
   24.784711   49.384937
   24.791534   49.386242
   24.795939   49.386561
   24.798574   49.387620
   24.800307   49.389178
   24.804107   49.391061
   24.809159   49.392803
   24.812892   49.393225
   24.818743   49.392318
   24.821293   49.391244
   24.823541   49.389849
   24.826414   49.390527
   24.829659   49.390299
   24.833144   49.388817
   24.834876   49.387565
   24.835934   49.385874
   24.836552   49.382793
   24.836279   49.380829
   24.835542   49.379578
   24.838372   49.374193
   24.838441   49.372558
   24.837843   49.370973
   24.838632   49.367890
   24.840173   49.364690
   24.841776   49.362456
   24.843371   49.360987
   24.845408   49.360601
   24.847129   49.359842
   24.849017   49.357894
   24.851157   49.357614
   24.853988   49.356707
   24.856541   49.354914
   24.860625   49.353117
   24.864261   49.350450
   24.865638   49.348640
   24.866081   49.347287
   24.865887   49.345909
   24.865075   49.344634
   24.860664   49.341129
   24.858819   49.340523
   24.856787   49.340311
   24.852934   49.340886
   24.850471   49.339723
   24.848141   49.339264
   24.846294   49.337681
   24.844595   49.336904
   24.840621   49.336418
   24.839481   49.333914
   24.837773   49.324597
   24.835374   49.320409
   24.835337   49.312159
   24.836531   49.309075
   24.838366   49.307203
   24.838958   49.305510
   24.838665   49.303761
   24.836964   49.301464
   24.835133   49.288926
   24.843667   49.287122
   24.845749   49.286058
   24.846824   49.284957
   24.850322   49.272951
   24.850799   49.269872
   24.850638   49.265691
   24.855258   49.264428
   24.863615   49.261504
   24.865403   49.262120
   24.869550   49.262695
   24.872224   49.262383
   24.874994   49.261462
   24.878445   49.259576
   24.886482   49.256675
   24.889411   49.255018
   24.892757   49.253801
   24.894362   49.252818
   24.897917   49.251364
   24.905826   49.246432
   24.913097   49.243953
   24.918775   49.243085
   24.927276   49.242937
   24.930285   49.242285
   24.936492   49.239697
   24.938246   49.238630
   24.939634   49.236934
   24.940694   49.233368
   24.940137   49.228534
   24.939390   49.227353
   24.938175   49.226358
   24.926577   49.222439
   24.923064   49.220421
   24.917231   49.218594
   24.904193   49.211747
   24.894305   49.197562
   24.892334   49.195444
   24.863945   49.176209
   24.864151   49.174900
   24.863441   49.170642
   24.864274   49.166195
   24.866083   49.166444
   24.868102   49.166330
   24.869982   49.165825
   24.871554   49.164975
   24.889081   49.147023
   24.898618   49.141759
   24.905363   49.133074
   24.919190   49.132105
   24.928940   49.131920
   24.938516   49.131076
   24.946191   49.130758
   24.950795   49.130139
   24.952312   49.131153
   24.954031   49.131791
   24.955953   49.132075
   24.957918   49.131982
   24.960319   49.131287
   24.974943   49.124407
   24.989152   49.120522
   24.991040   49.119270
   24.992059   49.117632
   24.992079   49.115638
   24.990410   49.113409
   24.990310   49.111119
   24.989440   49.109881
   24.987763   49.108601
   24.987642   49.106691
   24.987017   49.105400
   24.985845   49.104290
   24.984187   49.103447
   24.983498   49.101738
   24.983547   49.098999
   24.982363   49.097326
   24.985545   49.094502
   24.986257   49.092606
   24.994573   49.089736
   24.996492   49.088357
   24.997456   49.086780
   24.997819   49.085359
   24.997565   49.083389
   24.996070   49.080150
   24.997934   49.078356
   24.998819   49.075586
   24.997805   49.070061
   24.996168   49.068098
   24.993949   49.067060
   24.991297   49.066680
   24.982013   49.066733
   24.974206   49.067499
   24.964410   49.067684
   24.962583   49.068099
   24.961006   49.068839
   24.959004   49.071104
   24.956678   49.070871
   24.954065   49.071257
   24.948456   49.074309
   24.945890   49.073244
   24.942622   49.073052
   24.940730   49.073443
   24.939088   49.074179
   24.936954   49.076176
   24.935192   49.076191
   24.932892   49.075464
   24.930932   49.075321
   24.927792   49.075917
   24.924875   49.077576
   24.921834   49.076849
   24.918900   49.077080
   24.914208   49.074289
   24.913632   49.072885
   24.913265   49.065490
   24.911602   49.062289
   24.911936   49.060941
   24.911458   49.058849
   24.911647   49.057275
   24.910943   49.055399
   24.913737   49.055174
   24.915971   49.054319
   24.917566   49.052974
   24.918998   49.050656
   24.921564   49.047664
   24.926511   49.044372
   24.929085   49.042920
   24.931564   49.042172
   24.936896   49.039580
   24.943053   49.034189
   24.949343   49.031023
   24.954139   49.027820
   24.960227   49.025401
   24.964437   49.023178
   24.966571   49.021085
   24.968403   49.017611
   24.972586   49.015678
   24.974380   49.014510
   24.977633   49.010892
   24.979103   49.007022
   24.979090   49.003207
   24.978476   49.001195
   24.992796   49.005431
   25.003744   49.009811
   25.005792   49.011315
   25.014059   49.015283
   25.015859   49.015760
   25.017788   49.015881
   25.020292   49.015476
   25.027521   49.012699
   25.033409   49.008960
   25.036654   49.007388
   25.040403   49.004411
   25.045686   49.001912
   25.049643   49.001261
   25.051925   49.000428
   25.054128   48.998786
   25.055232   48.996729
   25.056863   48.995917
   25.061616   48.994828
   25.065178   48.994750
   25.068344   48.994217
   25.078294   48.991419
   25.080287   48.990617
   25.080248   48.993211
   25.080960   48.994897
   25.082910   48.996596
   25.085846   48.997662
   25.104606   48.999597
   25.108327   49.000839
   25.110721   49.001112
   25.113439   49.000916
   25.122003   48.998999
   25.124689   48.997681
   25.125723   48.996531
   25.126205   48.995230
   25.126092   48.993893
   25.125326   48.992247
   25.119798   48.986355
   25.118174   48.985512
   25.115472   48.984707
   25.114599   48.983608
   25.113458   48.979976
   25.115259   48.974581
   25.117190   48.971536
   25.119067   48.966772
   25.119044   48.964478
   25.123280   48.962588
   25.127473   48.961870
   25.130160   48.960983
   25.132756   48.959876
   25.134562   48.958692
   25.138230   48.958706
   25.141098   48.957630
   25.142628   48.956197
   25.144617   48.952327
   25.148492   48.950418
   25.151780   48.947940
   25.153467   48.945935
   25.154226   48.944043
   25.153922   48.941374
   25.152967   48.939608
   25.150844   48.937309
   25.144486   48.932285
   25.135252   48.927657
   25.125506   48.924400
   25.125085   48.923192
   25.125990   48.919262
   25.129584   48.914565
   25.132525   48.907836
   25.138961   48.897751
   25.142372   48.891163
   25.143351   48.884177
   25.144966   48.878895
   25.144527   48.876137
   25.142774   48.873346
   25.143784   48.872569
   25.147779   48.872956
   25.151869   48.872709
   25.156555   48.871537
   25.161081   48.869991
   25.163344   48.871370
   25.164645   48.872633
   25.165551   48.873904
   25.166527   48.876564
   25.166492   48.883600
   25.163341   48.885586
   25.160474   48.889001
   25.159951   48.890282
   25.159997   48.892783
   25.161468   48.895819
   25.163818   48.897616
   25.164488   48.899631
   25.166664   48.901634
   25.171966   48.904518
   25.175270   48.905413
   25.187451   48.912715
   25.190883   48.915296
   25.186640   48.918161
   25.185048   48.920251
   25.183478   48.923270
   25.182980   48.925227
   25.183180   48.926690
   25.184033   48.928418
   25.186008   48.930274
   25.187578   48.931055
   25.191004   48.931959
   25.195638   48.931866
   25.199360   48.930795
   25.202333   48.929371
   25.209811   48.926748
   25.214219   48.930413
   25.220276   48.934187
   25.223292   48.935515
   25.227366   48.936616
   25.230050   48.937003
   25.235299   48.936684
   25.238782   48.935374
   25.240888   48.933888
   25.242834   48.931824
   25.243748   48.929902
   25.245033   48.923929
   25.244972   48.921321
   25.243567   48.917119
   25.237831   48.911046
   25.236279   48.908537
   25.237938   48.896970
   25.237141   48.891893
   25.237319   48.888509
   25.235460   48.881065
   25.231384   48.873175
   25.226285   48.864885
   25.219381   48.856436
   25.215909   48.849900
   25.217436   48.849814
   25.221203   48.850362
   25.223138   48.851491
   25.225171   48.856121
   25.226935   48.861682
   25.228717   48.865317
   25.230483   48.867478
   25.233334   48.869274
   25.236314   48.870366
   25.239243   48.871058
   25.243400   48.871380
   25.248647   48.870980
   25.260531   48.871202
   25.267603   48.870732
   25.275597   48.869474
   25.286175   48.866651
   25.289058   48.865195
   25.291320   48.862354
   25.292141   48.859826
   25.293577   48.857932
   25.294945   48.855121
   25.295445   48.853006
   25.295436   48.849483
   25.295929   48.848854
   25.297233   48.848565
   25.299758   48.848345
   25.302237   48.848738
   25.310719   48.851003
   25.317659   48.851848
   25.321245   48.851684
   25.324295   48.851022
   25.327388   48.849724
   25.329113   48.848580
   25.328333   48.851140
   25.328368   48.852426
   25.329704   48.854465
   25.330153   48.856451
   25.332115   48.858274
   25.334492   48.859135
   25.337170   48.859313
   25.341419   48.861655
   25.347462   48.863319
   25.354847   48.864120
   25.362906   48.863272
   25.369305   48.862959
   25.376437   48.860379
   25.390475   48.856442
   25.396544   48.855130
   25.405533   48.852111
   25.417673   48.849233
   25.427222   48.847626
   25.430762   48.847947
   25.432050   48.848598
   25.431267   48.850481
   25.429400   48.852973
   25.424103   48.858565
   25.421554   48.862042
   25.420309   48.866670
   25.420750   48.869549
   25.422095   48.871538
   25.424734   48.873524
   25.429507   48.875535
   25.435133   48.876618
   25.439687   48.876344
   25.443801   48.875125
   25.447358   48.873460
   25.452291   48.872402
   25.455808   48.871022
   25.463309   48.866474
   25.468997   48.864342
   25.473863   48.860841
   25.475757   48.858535
   25.476232   48.856898
   25.476047   48.854452
   25.473533   48.850808
   25.464332   48.842699
   25.456957   48.837811
   25.458738   48.835163
   25.459612   48.834517
   25.466377   48.832108
   25.472784   48.830682
   25.477942   48.828610
   25.483113   48.827386
   25.487439   48.825642
   25.492177   48.822933
   25.496569   48.819852
   25.502320   48.813900
   25.507055   48.811236
   25.512089   48.809856
   25.516642   48.809441
   25.524809   48.807689
   25.527464   48.807382
   25.531245   48.807296
   25.537412   48.807829
   25.543136   48.807655
   25.546797   48.806822
   25.555891   48.803447
   25.564985   48.799130
   25.569545   48.796431
   25.579192   48.788379
   25.583451   48.785516
   25.591421   48.778867
   25.595393   48.776206
   25.601203   48.771368
   25.603661   48.769772
   25.606546   48.768433
   25.621535   48.763288
   25.639692   48.755200
   25.642971   48.753199
   25.646219   48.750613
   25.647922   48.747174
   25.647755   48.743897
   25.646265   48.740807
   25.642560   48.736620
   25.640416   48.735124
   25.637081   48.733464
   25.629362   48.731082
   25.621058   48.727506
   25.618292   48.726077
   25.616970   48.725112
   25.616629   48.724348
   25.617129   48.722225
   25.618741   48.720687
   25.624221   48.720233
   25.639278   48.717883
   25.646388   48.716314
   25.650357   48.714929
   25.654891   48.712405
   25.657336   48.709894
   25.659024   48.707534
   25.659888   48.704534
   25.659299   48.701046
   25.657324   48.696985
   25.655224   48.694542
   25.651810   48.691641
   25.647758   48.688829
   25.639591   48.685144
   25.631407   48.682172
   25.628861   48.680363
   25.627720   48.679075
   25.630015   48.677425
   25.632533   48.676448
   25.638335   48.674848
   25.642061   48.674164
   25.644176   48.673159
   25.645301   48.672096
   25.645925   48.670865
   25.646545   48.668311
   25.646214   48.666616
   25.645352   48.665465
   25.643518   48.664267
   25.636450   48.662514
   25.612348   48.650338
   25.604333   48.643788
   25.596604   48.635952
   25.592193   48.633270
   25.593021   48.628723
   25.596484   48.623914
   25.596565   48.621907
   25.595376   48.619447
   25.597620   48.605593
   25.596686   48.596346
   25.594630   48.590831
   25.599556   48.585558
   25.602146   48.579127
   25.604194   48.576401
   25.606738   48.574119
   25.608500   48.571577
   25.608638   48.570308
   25.608133   48.568269
   25.605754   48.565236
   25.607551   48.560933
   25.607198   48.559133
   25.606062   48.557776
   25.609912   48.553224
   25.610586   48.550719
   25.609987   48.548097
   25.607980   48.545267
   25.607054   48.542863
   25.607297   48.542388
   25.610453   48.541016
   25.612841   48.538415
   25.613777   48.535870
   25.613550   48.533844
   25.615050   48.532226
   25.615755   48.530573
   25.615915   48.526312
   25.612867   48.513632
   25.606393   48.500292
   25.606953   48.497152
   25.609885   48.490271
   25.608074   48.483672
   25.608973   48.480117
   25.608935   48.478603
   25.605722   48.473347
   25.606346   48.472177
   25.608732   48.469808
   25.611868   48.467988
   25.612874   48.466365
   25.612825   48.464055
   25.613716   48.460630
   25.613081   48.457682
   25.614019   48.454220
   25.613554   48.450415
   25.612523   48.448413
   25.610125   48.446546
   25.612068   48.443474
   25.612326   48.441800
   25.613343   48.439555
   25.613551   48.437130
   25.615308   48.433896
   25.615178   48.432167
   25.614113   48.430434
   25.616310   48.427696
   25.616786   48.426391
   25.616666   48.425051
   25.615014   48.421594
   25.612785   48.419731
   25.611688   48.417572
   25.615691   48.418645
   25.618447   48.418708
   25.621587   48.418240
   25.624819   48.416832
   25.627172   48.414198
   25.627642   48.411662
   25.626557   48.408857
   25.626608   48.406145
   25.624186   48.400127
   25.626561   48.398241
   25.627699   48.396114
   25.627403   48.393083
   25.626304   48.391326
   25.624774   48.390152
   25.626213   48.388797
   25.626920   48.387547
   25.628560   48.379132
   25.628433   48.377801
   25.627728   48.376552
   25.626506   48.375495
   25.624873   48.374720
   25.622971   48.374296
   25.619657   48.374452
   25.615776   48.376025
   25.612780   48.374766
   25.607499   48.373653
   25.605521   48.373562
   25.592883   48.375021
   25.589927   48.375697
   25.587766   48.374356
   25.585179   48.373643
   25.573065   48.373048
   25.568303   48.374349
   25.565569   48.376330
   25.562594   48.375459
   25.559020   48.375452
   25.553587   48.377018
   25.551142   48.378260
   25.545730   48.378767
   25.544003   48.379501
   25.542663   48.380568
   25.539194   48.380487
   25.534973   48.381637
   25.532975   48.382603
   25.529993   48.385114
   25.528915   48.387322
   25.525218   48.388226
   25.520649   48.391270
   25.517764   48.392024
   25.514734   48.393916
   25.512035   48.394347
   25.508815   48.395772
   25.502920   48.396432
   25.493661   48.396974
   25.491738   48.395914
   25.487383   48.394854
   25.484289   48.395103
   25.480382   48.394914
   25.478470   48.395362
   25.476415   48.396479
   25.474027   48.395928
   25.470864   48.395688
   25.468826   48.395120
   25.462681   48.394555
   25.457579   48.395255
   25.450140   48.395328
   25.447298   48.395823
   25.444890   48.396798
   25.442274   48.392037
   25.440511   48.390771
   25.438164   48.390036
   25.431721   48.390038
   25.428922   48.390724
   25.427471   48.389348
   25.425280   48.388398
   25.421960   48.387751
   25.418425   48.387573
   25.414657   48.388285
   25.409163   48.390749
   25.407168   48.389168
   25.405458   48.388348
   25.396307   48.386809
   25.391789   48.387188
   25.387928   48.388715
   25.384839   48.388258
   25.382796   48.387644
   25.378609   48.384863
   25.373935   48.382590
   25.369420   48.379915
   25.366807   48.379298
   25.364721   48.379323
   25.362965   48.379682
   25.359832   48.378959
   25.356697   48.378785
   25.349114   48.375893
   25.346769   48.374136
   25.340055   48.370906
   25.337956   48.370244
   25.332786   48.369428
   25.328942   48.366650
   25.323298   48.365031
   25.319914   48.363462
   25.318451   48.361069
   25.316085   48.358534
   25.312810   48.355974
   25.310821   48.353444
   25.309514   48.352556
   25.307274   48.351706
   25.304581   48.349849
   25.304237   48.347391
   25.301986   48.344845
   25.299545   48.343657
   25.298051   48.342235
   25.296380   48.341423
   25.293324   48.340879
   25.290151   48.341058
   25.288369   48.339662
   25.286647   48.337289
   25.286569   48.334149
   25.285434   48.331010
   25.283204   48.327620
   25.281922   48.326206
   25.279519   48.324471
   25.276113   48.322807
   25.273217   48.322291
   25.272504   48.319797
   25.271123   48.318280
   25.265314   48.315618
   25.261851   48.312129
   25.258789   48.310228
   25.256864   48.309789
   25.253833   48.309678
   25.248915   48.310778
   25.246704   48.307517
   25.244484   48.305874
   25.243960   48.304938
   25.241239   48.298216
   25.241334   48.295946
   25.239227   48.289893
   25.236933   48.287806
   25.233742   48.286271
   25.231059   48.285419
   25.225740   48.282205
   25.224378   48.280891
   25.222321   48.279692
   25.221493   48.278432
   25.219435   48.276817
   25.215543   48.275464
   25.214889   48.273692
   25.213075   48.271799
   25.213093   48.269689
   25.212271   48.267547
   25.210994   48.266143
   25.209623   48.265311
   25.207090   48.264374
   25.205135   48.264044
   25.206035   48.261745
   25.205711   48.259816
   25.202850   48.256092
   25.201174   48.254831
   25.200039   48.253156
   25.197769   48.251393
   25.189245   48.247604
   25.187854   48.245736
   25.185699   48.243906
   25.181507   48.242455
   25.176748   48.242405
   25.173000   48.241411
   25.169775   48.241251
   25.165514   48.241877
   25.158384   48.243535
   25.156004   48.243727
   25.151585   48.242593
   25.147485   48.242383
   25.145996   48.240771
   25.140068   48.235876
   25.137571   48.234538
   25.133145   48.233092
   25.132600   48.230385
   25.130232   48.228294
   25.127817   48.227328
   25.122729   48.226535
   25.119825   48.224964
   25.121777   48.224064
   25.123207   48.222961
   25.125938   48.219137
   25.126705   48.216906
   25.126623   48.215069
   25.125232   48.212705
   25.123979   48.211605
   25.121591   48.210288
   25.126039   48.209682
   25.129105   48.208501
   25.134317   48.205284
   25.139432   48.200991
   25.144839   48.198024
   25.146337   48.196209
   25.146619   48.193919
   25.144807   48.189699
   25.145174   48.184123
   25.144785   48.181662
   25.143336   48.179135
   25.141094   48.177197
   25.136302   48.174534
   25.132751   48.173593
   25.127983   48.173217
   25.123896   48.173779
   25.119301   48.175209
   25.112552   48.180045
   25.110516   48.180799
   25.105799   48.180548
   25.099611   48.181264
   25.094737   48.179335
   25.089448   48.175414
   25.089116   48.173550
   25.092112   48.170646
   25.097058   48.168986
   25.099144   48.167337
   25.100325   48.165550
   25.100706   48.164026
   25.100402   48.161878
   25.099529   48.160275
   25.096057   48.157266
   25.091760   48.155679
   25.087072   48.155440
   25.079878   48.155994
   25.077214   48.155528
   25.074470   48.155500
   25.072504   48.154602
   25.074134   48.152083
   25.076309   48.150776
   25.077478   48.149615
   25.078400   48.148139
   25.078875   48.146315
   25.078680   48.143699
   25.077959   48.141858
   25.074556   48.137813
   25.075042   48.135080
   25.073036   48.130250
   25.069327   48.127145
   25.064965   48.125391
   25.061887   48.124657
   25.057332   48.124581
   25.052426   48.125886
   25.050309   48.125874
   25.044743   48.125086
   25.043111   48.123605
   25.043051   48.122627
   25.045261   48.120272
   25.046178   48.118568
   25.046564   48.116552
   25.046256   48.113200
   25.045595   48.111904
   25.044136   48.110373
   25.042055   48.108894
   25.038605   48.107205
   25.034547   48.105930
   25.029467   48.105349
   25.024439   48.105824
   25.020179   48.106592
   25.006714   48.110952
   25.004016   48.112545
   25.001688   48.115080
   24.998633   48.115571
   24.994767   48.115178
   24.986757   48.110053
   24.987665   48.108506
   24.991772   48.105882
   24.992882   48.104679
   24.993460   48.102652
   24.993233   48.101096
   24.994907   48.099110
   24.995513   48.097660
   24.997414   48.097135
   24.999689   48.096026
   25.001908   48.093900
   25.002496   48.092154
   25.002402   48.090200
   25.001117   48.085839
   24.997380   48.081615
   24.994289   48.079584
   24.993095   48.077070
   24.991405   48.075295
   24.989829   48.074329
   24.984258   48.072458
   24.983833   48.070241
   24.981890   48.068135
   24.977610   48.066520
   24.974917   48.066356
   24.972429   48.066685
   24.969465   48.064789
   24.963949   48.057407
   24.961201   48.055968
   24.953113   48.049517
   24.948797   48.047575
   24.949132   48.045580
   24.948296   48.043437
   24.946752   48.042030
   24.943679   48.040307
   24.941995   48.038381
   24.934597   48.035116
   24.932918   48.033642
   24.929319   48.031407
   24.928552   48.029224
   24.926538   48.027416
   24.923609   48.026334
   24.919991   48.025595
   24.918599   48.024577
   24.918235   48.019015
   24.919768   48.017213
   24.923409   48.015587
   24.924913   48.014482
   24.926243   48.012578
   24.927292   48.009785
   24.926745   48.007662
   24.925580   48.006149
   24.922833   48.003954
   24.921456   48.003276
   24.920340   48.002139
   24.920680   48.000256
   24.919876   47.998003
   24.918704   47.996844
   24.916745   47.995861
   24.917549   47.993790
   24.917602   47.991674
   24.917105   47.990179
   24.919132   47.987537
   24.919486   47.982325
   24.920553   47.979707
   24.922290   47.978318
   24.923329   47.976345
   24.923643   47.973777
   24.923010   47.971933
   24.923091   47.970401
   24.925662   47.969885
   24.927690   47.969023
   24.929227   47.967802
   24.930122   47.966213
   24.929564   47.962142
   24.928680   47.960949
   24.926991   47.959660
   24.931415   47.958449
   24.933487   47.957496
   24.935039   47.956097
   24.935957   47.954214
   24.935975   47.952916
   24.935437   47.951668
   24.933147   47.949644
   24.929419   47.948199
   24.925826   47.948071
   24.928490   47.945641
   24.928988   47.943001
   24.930385   47.941749
   24.933823   47.941643
   24.936219   47.940982
   24.938473   47.939322
   24.942344   47.937263
   24.943733   47.935244
   24.945736   47.934782
   24.948643   47.933423
   24.951173   47.931094
   24.951821   47.929080
   24.951656   47.927721
   24.952264   47.926874
   24.955133   47.926397
   24.958332   47.924621
   24.961101   47.923586
   24.962901   47.922262
   24.963663   47.921019
   24.964100   47.918964
   24.963678   47.917026
   24.964057   47.915662
   24.966016   47.913948
   24.966911   47.912090
   24.966767   47.907107
   24.968015   47.905098
   24.967727   47.902683
   24.965942   47.900370
   24.963354   47.898836
   24.960776   47.898292
   24.953992   47.897898
   24.955777   47.895808
   24.955834   47.893215
   24.958161   47.892076
   24.962856   47.887966
   24.963615   47.885059
   24.963378   47.882624
   24.962845   47.881436
   24.963189   47.881271
   24.965850   47.882085
   24.968411   47.882134
   24.974475   47.880699
   24.976761   47.879707
   24.978547   47.877860
   24.979043   47.876290
   24.980967   47.874865
   24.981835   47.873275
   24.982988   47.872676
   24.988415   47.871726
   24.989969   47.870964
   24.991138   47.869943
   24.993182   47.867019
   24.993642   47.865754
   24.993383   47.864032
   24.992131   47.862304
   24.992801   47.862069
   24.996617   47.862273
   24.998553   47.862042
   25.000309   47.861452
   25.002304   47.860213
   25.003991   47.857924
   25.004168   47.854884
   25.003373   47.852153
   25.002545   47.850950
   25.001253   47.849972
   25.000515   47.847525
   24.996429   47.843185
   24.995932   47.842192
   24.995734   47.839298
   24.992807   47.835635
   24.993380   47.833952
   24.993084   47.832222
   24.991658   47.830516
   24.990759   47.827476
   24.988121   47.824030
   24.985255   47.821832
   24.981760   47.821041
   24.981340   47.818730
   24.979191   47.816213
   24.976193   47.814562
   24.971855   47.812760
   24.971926   47.810847
   24.971509   47.809568
   24.970134   47.808086
   24.967852   47.806705
   24.967741   47.805074
   24.966661   47.803482
   24.964125   47.802048
   24.963619   47.799897
   24.962531   47.798252
   24.960602   47.797007
   24.955684   47.795352
   24.954059   47.793578
   24.954054   47.791512
   24.952040   47.789143
   24.951601   47.786895
   24.950214   47.785039
   24.949010   47.781691
   24.948747   47.778188
   24.946129   47.772853
   24.946710   47.769408
   24.946199   47.767569
   24.946423   47.764431
   24.946064   47.763098
   24.943462   47.759862
   24.943166   47.758479
   24.941380   47.756503
   24.940430   47.754241
   24.934829   47.749818
   24.934327   47.744933
   24.932288   47.741970
   24.929798   47.739983
   24.930569   47.736995
   24.930565   47.734855
   24.929905   47.733204
   24.927756   47.730861
   24.929332   47.726828
   24.929077   47.725538
   24.928279   47.724350
   24.926493   47.723091
   24.924127   47.722370
   24.902255   47.720283
   24.881401   47.719996
   24.879580   47.720516
   24.878062   47.721363
   24.876537   47.723295
   24.876420   47.725045
   24.879070   47.732611
   24.877074   47.734530
   24.874592   47.737980
   24.873507   47.743042
   24.873552   47.744683
   24.871622   47.746539
   24.870793   47.748146
   24.871100   47.750852
   24.850071   47.762830
   24.848527   47.765115
   24.848495   47.768464
   24.846558   47.769809
   24.845483   47.771685
   24.832945   47.775732
   24.831311   47.776571
   24.829859   47.778119
   24.828946   47.782059
   24.830634   47.786927
   24.829961   47.792263
   24.829233   47.793586
   24.827923   47.794800
   24.821739   47.798799
   24.816347   47.803251
   24.814978   47.805215
   24.814980   47.806952
   24.816777   47.811015
   24.816354   47.813613
   24.818778   47.817278
   24.808720   47.818563
   24.804827   47.817934
   24.799987   47.818418
   24.798152   47.818819
   24.795097   47.820054
   24.793640   47.820247
   24.790339   47.820299
   24.784710   47.818924
   24.782733   47.818973
   24.780861   47.819399
   24.779251   47.820164
   24.777745   47.821598
   24.772096   47.830172
   24.771643   47.832998
   24.767792   47.833389
   24.765009   47.834384
   24.763686   47.833905
   24.758799   47.827602
   24.757623   47.826554
   24.754835   47.825434
   24.752235   47.825246
   24.750320   47.825544
   24.748613   47.826193
   24.741917   47.831216
   24.736094   47.833702
   24.734594   47.835066
   24.733090   47.837817
   24.729993   47.836657
   24.725838   47.836579
   24.723633   47.835272
   24.720428   47.834649
   24.714291   47.835532
   24.704817   47.835499
   24.701693   47.836480
   24.699239   47.838688
   24.697544   47.841997
   24.697630   47.849152
   24.690119   47.851661
   24.685886   47.851825
   24.683294   47.852468
   24.678530   47.854944
   24.675514   47.857764
   24.671104   47.858974
   24.668253   47.860111
   24.664714   47.863339
   24.663256   47.867816
   24.660954   47.870218
   24.660669   47.872560
   24.659181   47.874549
   24.658957   47.876674
   24.661418   47.881557
   24.660422   47.884916
   24.660737   47.886867
   24.664634   47.891373
   24.666596   47.894745
   24.664184   47.896469
   24.662266   47.898601
   24.661543   47.900237
   24.658549   47.902332
   24.656349   47.904636
   24.649258   47.906744
   24.646881   47.908262
   24.645856   47.910344
   24.646006   47.911663
   24.646906   47.913567
   24.645882   47.916069
   24.632047   47.920456
   24.630448   47.921190
   24.629226   47.922195
   24.628481   47.923388
   24.628274   47.924673
   24.629423   47.927288
   24.629433   47.928531
   24.627824   47.929929
   24.624437   47.931571
   24.623065   47.933640
   24.623173   47.935454
   24.624825   47.938693
   24.623863   47.940255
   24.623358   47.943619
   24.622393   47.945747
   24.620888   47.946869
   24.615452   47.946237
   24.612072   47.946637
   24.608328   47.943942
   24.606597   47.942105
   24.604983   47.941281
   24.603074   47.940812
   24.600369   47.940804
   24.593724   47.942230
   24.590494   47.944232
   24.589319   47.945819
   24.589270   47.948021
   24.590721   47.949919
   24.589278   47.952393
   24.578715   47.957962
   24.576337   47.961593
   24.575915   47.963035
   24.573303   47.963231
   24.568525   47.964454
   24.564401   47.964060
   24.561097   47.964431
   24.558254   47.965551
   24.556768   47.967013
   24.556266   47.969185
   24.557760   47.972136
   24.557604   47.977967
   24.559704   47.982194
   24.559134   47.984310
   24.559360   47.988509
   24.560648   47.991681
   24.560301   47.993578
   24.561231   47.995726
   24.561143   47.997554
   24.562088   47.999184
   24.564598   48.000868
   24.563797   48.003572
   24.563866   48.004857
   24.564589   48.006923
   24.566331   48.008892
   24.566677   48.009855
   24.566551   48.012492
   24.568313   48.016132
   24.574911   48.023489
   24.580356   48.026839
   24.583162   48.028175
   24.585781   48.031379
   24.587150   48.034175
   24.590481   48.037281
   24.596692   48.040641
   24.598541   48.041252
   24.600582   48.041466
   24.607592   48.041328
   24.610583   48.044401
   24.616806   48.047724
   24.619466   48.049612
   24.618992   48.051570
   24.614894   48.057494
   24.614501   48.058739
   24.614807   48.060404
   24.613979   48.061822
   24.610595   48.063588
   24.608455   48.065743
   24.605296   48.067936
   24.604328   48.069045
   24.603366   48.071443
   24.601357   48.072521
   24.598590   48.074696
   24.597746   48.076348
   24.597610   48.078241
   24.595155   48.080538
   24.593892   48.082999
   24.591168   48.085213
   24.590520   48.086576
   24.585781   48.087355
   24.580781   48.089828
   24.577538   48.092388
   24.575698   48.094646
   24.572604   48.096533
   24.570818   48.098529
   24.566942   48.099922
   24.556793   48.100982
   24.554072   48.102159
   24.551512   48.105142
   24.550542   48.107323
   24.550423   48.109033
   24.551582   48.111822
   24.550152   48.113617
   24.546810   48.115102
   24.541678   48.115610
   24.536504   48.117019
   24.533331   48.118314
   24.527636   48.119348
   24.525573   48.120330
   24.524195   48.121747
   24.523336   48.124200
   24.523796   48.125875
   24.525938   48.128762
   24.525185   48.130044
   24.524682   48.132817
   24.521753   48.134214
   24.519257   48.136683
   24.516897   48.141195
   24.509382   48.145567
   24.499309   48.149148
   24.497323   48.150863
   24.494932   48.156681
   24.493371   48.158982
   24.493142   48.160299
   24.493498   48.161604
   24.496030   48.164933
   24.497991   48.166386
   24.499566   48.169476
   24.500974   48.171070
   24.507680   48.175526
   24.510688   48.176587
   24.510784   48.177281
   24.504690   48.183590
   24.503887   48.186221
   24.504412   48.188340
   24.505427   48.189448
   24.506873   48.190319
   24.512467   48.191983
   24.515702   48.194573
   24.516851   48.196028
   24.514562   48.198617
   24.514043   48.200711
   24.514314   48.201980
   24.515901   48.203824
   24.519174   48.205491
   24.522396   48.211958
   24.524095   48.214173
   24.527571   48.216305
   24.531252   48.217637
   24.534209   48.218200
   24.535926   48.218222
   24.532457   48.223112
   24.527366   48.225589
   24.523255   48.229119
   24.517297   48.232480
   24.509376   48.234374
   24.503809   48.235380
   24.498083   48.237455
   24.493049   48.237938
   24.489633   48.238670
   24.486185   48.238456
   24.482747   48.239019
   24.480615   48.239890
   24.479073   48.241206
   24.477226   48.244261
   24.476801   48.247833
   24.478574   48.253129
   24.480390   48.255068
   24.479764   48.256307
   24.479714   48.257682
   24.481655   48.262668
   24.481285   48.265385
   24.479940   48.268050
   24.479825   48.269384
   24.480754   48.271706
   24.482671   48.273471
   24.482746   48.274329
   24.481938   48.276825
   24.480153   48.278279
   24.475748   48.278099
   24.472085   48.278982
   24.470232   48.280226
   24.468747   48.282318
   24.465986   48.283461
   24.463315   48.286131
   24.460483   48.287089
   24.459203   48.287838
   24.456227   48.288546
   24.454602   48.289441
   24.453182   48.290737
   24.452296   48.292299
   24.452227   48.294494
   24.447756   48.295345
   24.443435   48.297619
   24.439845   48.299957
   24.437729   48.302708
   24.435410   48.303559
   24.434066   48.304581
   24.433238   48.305823
   24.432652   48.308494
   24.430059   48.308583
   24.428157   48.309114
   24.423637   48.311833
   24.421617   48.314189
   24.421358   48.316293
   24.417855   48.319199
   24.413190   48.321388
   24.410463   48.323480
   24.409550   48.324800
   24.408897   48.327374
   24.404553   48.328088
   24.400720   48.329372
   24.398859   48.329046
   24.396898   48.329086
   24.390205   48.330700
   24.387597   48.332103
   24.386244   48.333569
   24.384509   48.337670
   24.381054   48.338977
   24.379419   48.340733
   24.376507   48.341453
   24.369817   48.345050
   24.362951   48.344862
   24.360919   48.345047
   24.359062   48.345626
   24.356189   48.347137
   24.353781   48.347822
   24.352300   48.348710
   24.349171   48.351318
   24.348122   48.354311
   24.345329   48.356839
   24.344375   48.358633
   24.344250   48.361715
   24.345044   48.363875
   24.344768   48.365146
   24.345087   48.366653
   24.347021   48.369896
   24.347694   48.372013
   24.348691   48.373097
   24.350447   48.374171
   24.347144   48.376869
   24.343549   48.376885
   24.341013   48.377541
   24.338711   48.379193
   24.337919   48.380951
   24.336768   48.381601
   24.333655   48.381935
   24.331775   48.382464
   24.329159   48.384320
   24.323161   48.384267
   24.316239   48.385463
   24.313210   48.387097
   24.311457   48.389028
   24.309163   48.389512
   24.301712   48.392501
   24.298663   48.392796
   24.296356   48.393414
   24.291827   48.393576
   24.290754   48.392995
   24.288646   48.390848
   24.291780   48.387582
   24.293111   48.385367
   24.295262   48.382991
   24.295822   48.380768
   24.295306   48.378927
   24.292206   48.376203
   24.289037   48.374865
   24.288365   48.372675
   24.286003   48.370654
   24.284537   48.369833
   24.280692   48.368528
   24.281542   48.366715
   24.281274   48.365003
   24.278997   48.362191
   24.274871   48.359828
   24.275165   48.357960
   24.273956   48.354854
   24.270613   48.351605
   24.267202   48.350075
   24.264669   48.347332
   24.262541   48.346056
   24.260766   48.345484
   24.258528   48.345154
   24.256496   48.345216
   24.250613   48.346538
   24.248496   48.347793
   24.247281   48.349346
   24.243761   48.352281
   24.243026   48.353371
   24.239959   48.354013
   24.231795   48.352344
   24.229452   48.351585
   24.225216   48.351540
   24.223267   48.351947
   24.221192   48.352894
   24.218210   48.353724
   24.213150   48.356244
   24.207856   48.359755
   24.205935   48.359182
   24.202740   48.358936
   24.198161   48.359297
   24.193464   48.360603
   24.191202   48.361593
   24.186973   48.359796
   24.182645   48.359413
   24.177336   48.360308
   24.173817   48.362162
   24.172300   48.363913
   24.171592   48.366852
   24.172161   48.368519
   24.173918   48.370873
   24.169001   48.371685
   24.164731   48.373331
   24.162425   48.375245
   24.161830   48.377181
   24.159660   48.380178
   24.156543   48.380561
   24.152304   48.382248
   24.147755   48.385513
   24.145578   48.387625
   24.142832   48.394475
   24.143134   48.397406
   24.145074   48.400287
   24.136069   48.405905
   24.134973   48.407116
   24.134368   48.408979
   24.136557   48.418548
   24.137414   48.420109
   24.136704   48.422726
   24.137263   48.424513
   24.137017   48.426295
   24.137713   48.428595
   24.137712   48.430548
   24.138283   48.432124
   24.136548   48.432467
   24.133180   48.432367
   24.131283   48.432813
   24.129213   48.433941
   24.126323   48.436672
   24.123851   48.440281
   24.123486   48.442050
   24.122442   48.444129
   24.122626   48.446256
   24.123828   48.447770
   24.121089   48.449475
   24.120007   48.451056
   24.119902   48.452792
   24.121159   48.454993
   24.120716   48.457265
   24.119676   48.458622
   24.119314   48.460107
   24.119388   48.462378
   24.118661   48.467492
   24.119498   48.470262
   24.121068   48.472620
   24.123651   48.474162
   24.124884   48.475588
   24.131287   48.480680
   24.130242   48.481707
   24.122937   48.485852
   24.120567   48.488460
   24.116544   48.489822
   24.111401   48.492716
   24.108625   48.495524
   24.107816   48.498098
   24.108919   48.501797
   24.110136   48.502948
   24.112191   48.503988
   24.112694   48.506070
   24.115431   48.508588
   24.115987   48.513064
   24.116833   48.515008
   24.122608   48.519716
   24.125866   48.524778
   24.124641   48.526994
   24.120862   48.529514
   24.116420   48.529302
   24.114674   48.529495
   24.113668   48.528743
   24.112085   48.526378
   24.109318   48.524684
   24.107857   48.522752
   24.106298   48.521757
   24.104112   48.520934
   24.098924   48.520072
   24.095086   48.520197
   24.094577   48.518336
   24.093200   48.516785
   24.088615   48.514444
   24.085136   48.513334
   24.083360   48.510538
   24.081817   48.509325
   24.080143   48.508535
   24.077287   48.507977
   24.074138   48.508303
   24.071547   48.509226
   24.066938   48.512141
   24.063272   48.510513
   24.059416   48.509399
   24.056275   48.509118
   24.052144   48.507760
   24.049911   48.507403
   24.048239   48.506333
   24.046369   48.504205
   24.045551   48.502229
   24.044533   48.501147
   24.041468   48.499754
   24.039423   48.498056
   24.036930   48.497057
   24.032171   48.496189
   24.027702   48.496766
   24.023245   48.498296
   24.019438   48.500246
   24.016579   48.500299
   24.009994   48.498927
   24.007829   48.498752
   24.004810   48.499100
   24.002204   48.500140
   24.001466   48.499830
   24.000672   48.499391
   23.999530   48.496586
   23.996611   48.493968
   23.996519   48.491569
   23.995354   48.489901
   23.994813   48.488215
   23.989267   48.482300
   23.988580   48.479977
   23.987391   48.478044
   23.984647   48.476122
   23.981226   48.475270
   23.981931   48.474335
   23.985684   48.471876
   23.986784   48.470397
   23.987483   48.465965
   23.986730   48.463730
   23.984638   48.461599
   23.982282   48.460188
   23.980342   48.459333
   23.975899   48.458220
   23.973476   48.456525
   23.969278   48.454499
   23.964376   48.453423
   23.961603   48.453450
   23.956524   48.454613
   23.954252   48.454730
   23.948708   48.455686
   23.943480   48.457986
   23.938662   48.457883
   23.934848   48.459335
   23.930617   48.460063
   23.925689   48.460501
   23.922756   48.461013
   23.921003   48.461634
   23.917787   48.463240
   23.915176   48.465389
   23.912355   48.466208
   23.909972   48.467496
   23.906409   48.470499
   23.903690   48.474371
   23.901538   48.480854
   23.901677   48.483927
   23.902905   48.487241
   23.904180   48.488365
   23.906472   48.489436
   23.907659   48.491407
   23.911632   48.494272
   23.910848   48.499109
   23.911202   48.502396
   23.909901   48.504152
   23.909564   48.505533
   23.910418   48.508695
   23.913187   48.512099
   23.917111   48.514394
   23.914940   48.516159
   23.913034   48.519393
   23.913000   48.522029
   23.911635   48.523350
   23.910869   48.524944
   23.910797   48.526543
   23.911369   48.528202
   23.909636   48.529200
   23.908336   48.530675
   23.907528   48.532493
   23.907689   48.534680
   23.909381   48.537408
   23.911009   48.538661
   23.911825   48.543067
   23.912753   48.544768
   23.915230   48.546847
   23.919194   48.549138
   23.914806   48.549762
   23.909063   48.551545
   23.907255   48.552812
   23.905536   48.555661
   23.901438   48.553857
   23.897671   48.551500
   23.895931   48.550794
   23.891543   48.549769
   23.889428   48.549752
   23.886904   48.550148
   23.884004   48.549054
   23.881454   48.548709
   23.878896   48.549024
   23.875699   48.549887
   23.874021   48.550700
   23.870580   48.551345
   23.868283   48.550365
   23.865093   48.549672
   23.860131   48.549741
   23.849964   48.552551
   23.846466   48.554142
   23.842126   48.555540
   23.839446   48.557350
   23.835312   48.560945
   23.830668   48.562577
   23.828190   48.563956
   23.826414   48.565401
   23.825567   48.567050
   23.825587   48.568361
   23.826085   48.570024
   23.828003   48.572628
   23.827762   48.572952
   23.824384   48.573918
   23.820730   48.572957
   23.815136   48.572913
   23.812080   48.573837
   23.809862   48.575337
   23.807217   48.576369
   23.803873   48.576062
   23.800681   48.576640
   23.799101   48.577454
   23.797945   48.578537
   23.795978   48.583265
   23.793383   48.583939
   23.790517   48.585427
   23.786752   48.588865
   23.785554   48.590392
   23.784529   48.592232
   23.784339   48.594659
   23.785270   48.596976
   23.786758   48.598489
   23.784691   48.599871
   23.780356   48.604072
   23.779795   48.606305
   23.780283   48.607943
   23.779558   48.610570
   23.779969   48.612485
   23.781794   48.615527
   23.783529   48.616935
   23.787096   48.618467
   23.787600   48.620305
   23.788358   48.621403
   23.787997   48.624685
   23.788662   48.626473
   23.787612   48.628224
   23.787406   48.629504
   23.787763   48.631148
   23.788879   48.632525
   23.787784   48.634387
   23.784873   48.636480
   23.781538   48.636785
   23.778444   48.637981
   23.774860   48.636628
   23.770672   48.636552
   23.765396   48.638414
   23.762770   48.640567
   23.758232   48.639546
   23.754879   48.639285
   23.752238   48.639747
   23.748591   48.641372
   23.747122   48.641371
   23.745093   48.639460
   23.741631   48.637481
   23.739895   48.635838
   23.737658   48.634626
   23.734222   48.633599
   23.729632   48.633547
   23.725549   48.632821
   23.719525   48.633832
   23.716962   48.633265
   23.714819   48.633183
   23.710873   48.633913
   23.708485   48.633561
   23.706491   48.633699
   23.700154   48.635209
   23.698595   48.636027
   23.696970   48.637970
   23.694353   48.639705
   23.685327   48.642555
   23.681912   48.644465
   23.678038   48.648257
   23.676248   48.651529
   23.675883   48.652998
   23.674010   48.655190
   23.670332   48.658288
   23.668819   48.661045
   23.667231   48.661746
   23.663940   48.662163
   23.659081   48.664139
   23.656423   48.666860
   23.655884   48.669103
   23.653757   48.669676
   23.651128   48.671034
   23.648821   48.673782
   23.646338   48.675438
   23.642375   48.676489
   23.640551   48.677410
   23.639162   48.678649
   23.634090   48.680300
   23.631980   48.681436
   23.630932   48.682602
   23.630428   48.684376
   23.632442   48.689553
   23.630856   48.690669
   23.629786   48.691972
   23.629001   48.694029
   23.629338   48.695612
   23.630634   48.697423
   23.628932   48.698389
   23.626312   48.700559
   23.624008   48.701493
   23.621306   48.701095
   23.619408   48.701178
   23.616612   48.699754
   23.613496   48.699305
   23.608847   48.699849
   23.605876   48.701051
   23.601529   48.700541
   23.597308   48.700766
   23.595329   48.701226
   23.591866   48.703055
   23.590142   48.704871
   23.589667   48.706287
   23.589761   48.708074
   23.587422   48.710440
   23.586674   48.713836
   23.584198   48.713916
   23.582284   48.714312
   23.576626   48.717314
   23.573567   48.718357
   23.571919   48.719334
   23.569146   48.720132
   23.564214   48.719843
   23.559509   48.720498
   23.554530   48.719612
   23.552021   48.719502
   23.549884   48.719792
   23.546772   48.720810
   23.544334   48.721251
   23.542159   48.722264
   23.540522   48.724173
   23.540320   48.725932
   23.541432   48.727912
END
END
