kharkiv
1
   34.851378   49.990199
   34.858543   49.994382
   34.875064   50.008870
   34.896871   50.034933
   34.908099   50.042329
   34.910333   50.044619
   34.913344   50.046402
   34.928411   50.057013
   34.931677   50.063559
   34.932660   50.064645
   34.956492   50.075899
   34.955942   50.078001
   34.952718   50.079022
   34.951400   50.080016
   34.950576   50.081215
   34.949372   50.089781
   34.946806   50.090440
   34.944716   50.091755
   34.937548   50.091188
   34.934832   50.091501
   34.932518   50.092481
   34.930738   50.094398
   34.928319   50.110202
   34.927336   50.126265
   34.925857   50.134641
   34.933637   50.153289
   34.935319   50.155288
   34.936986   50.156134
   34.938966   50.156613
   34.961128   50.159577
   34.963389   50.160791
   34.966213   50.161679
   34.955378   50.183596
   34.955236   50.184950
   34.955716   50.186271
   34.956774   50.187439
   34.958317   50.188350
   34.960880   50.189026
   34.964370   50.189219
   34.978057   50.186742
   34.992934   50.188048
   35.003074   50.186878
   35.004424   50.187903
   35.006200   50.188628
   35.009627   50.188976
   35.013436   50.188483
   35.022282   50.186361
   35.034640   50.184570
   35.036436   50.183993
   35.037905   50.183105
   35.039308   50.181145
   35.039315   50.179408
   35.038175   50.177654
   35.039105   50.173310
   35.038352   50.170491
   35.041270   50.174568
   35.049110   50.183943
   35.053389   50.188327
   35.056054   50.189673
   35.059818   50.190003
   35.061753   50.190931
   35.063260   50.195234
   35.062974   50.196871
   35.063433   50.198192
   35.064932   50.199705
   35.067269   50.201009
   35.064348   50.203339
   35.063295   50.204990
   35.063305   50.206779
   35.064795   50.208784
   35.066942   50.209897
   35.087016   50.216566
   35.102468   50.218703
   35.123489   50.230072
   35.142764   50.245107
   35.144902   50.246225
   35.147536   50.246714
   35.150898   50.246338
   35.164451   50.241325
   35.188667   50.234122
   35.192141   50.240720
   35.194046   50.241951
   35.197192   50.242684
   35.201597   50.242472
   35.204160   50.241769
   35.206093   50.240465
   35.207152   50.238389
   35.229612   50.233817
   35.231585   50.238684
   35.233375   50.240030
   35.235168   50.240683
   35.238548   50.240933
   35.252203   50.239720
   35.252357   50.243900
   35.252924   50.245616
   35.255183   50.249414
   35.253526   50.256843
   35.254526   50.261224
   35.256361   50.263993
   35.258481   50.265383
   35.259553   50.267160
   35.261733   50.268789
   35.264133   50.269623
   35.266841   50.269790
   35.279043   50.268962
   35.297895   50.267124
   35.311980   50.274492
   35.313750   50.275063
   35.317314   50.275613
   35.292277   50.285937
   35.290901   50.286864
   35.289982   50.288006
   35.289648   50.290132
   35.291121   50.292498
   35.312661   50.311308
   35.311967   50.312473
   35.311803   50.313809
   35.312246   50.315118
   35.313258   50.316285
   35.314750   50.317207
   35.327835   50.322944
   35.331115   50.323120
   35.333598   50.322531
   35.350219   50.314538
   35.377347   50.302210
   35.378132   50.305015
   35.373962   50.309419
   35.373258   50.311084
   35.372163   50.320638
   35.372518   50.321968
   35.373890   50.323524
   35.376082   50.324609
   35.378747   50.325052
   35.396436   50.323401
   35.403548   50.324583
   35.404928   50.325825
   35.406503   50.326657
   35.407530   50.327927
   35.407986   50.329773
   35.408920   50.330947
   35.410781   50.332507
   35.413021   50.333709
   35.413807   50.334900
   35.416470   50.337207
   35.421195   50.339317
   35.423161   50.339567
   35.425154   50.339439
   35.428090   50.338431
   35.431242   50.335848
   35.442673   50.324205
   35.444116   50.320950
   35.460959   50.319364
   35.463394   50.318713
   35.465281   50.317516
   35.466348   50.315947
   35.466514   50.314661
   35.465844   50.311728
   35.494666   50.298852
   35.500164   50.303494
   35.502598   50.304234
   35.505280   50.304315
   35.508371   50.303481
   35.521970   50.296930
   35.524191   50.298464
   35.525129   50.300472
   35.526677   50.301723
   35.509827   50.315081
   35.509130   50.316322
   35.509105   50.318080
   35.509768   50.319330
   35.511452   50.320702
   35.514466   50.321665
   35.528468   50.322724
   35.558537   50.325752
   35.562802   50.325496
   35.571186   50.324414
   35.583244   50.330621
   35.589478   50.334720
   35.592392   50.335665
   35.594349   50.335770
   35.596273   50.335513
   35.601959   50.333414
   35.613187   50.330628
   35.619131   50.330391
   35.633490   50.328453
   35.636011   50.327003
   35.637191   50.324949
   35.636752   50.322775
   35.634340   50.320738
   35.641011   50.318691
   35.642469   50.317783
   35.643578   50.316418
   35.646034   50.315762
   35.648063   50.316658
   35.650175   50.317092
   35.653575   50.327745
   35.655092   50.329762
   35.657271   50.330872
   35.659942   50.331338
   35.669961   50.330507
   35.671847   50.333364
   35.673664   50.334642
   35.675971   50.335354
   35.676675   50.336957
   35.678122   50.338316
   35.652186   50.342474
   35.649168   50.343525
   35.647288   50.345390
   35.646912   50.346716
   35.647152   50.348055
   35.647986   50.349289
   35.653022   50.354295
   35.655347   50.355327
   35.672162   50.359545
   35.735629   50.359146
   35.751528   50.371467
   35.769923   50.382480
   35.772107   50.383491
   35.786535   50.392501
   35.792917   50.396998
   35.796512   50.400079
   35.799196   50.404774
   35.799062   50.406465
   35.794160   50.407325
   35.791790   50.408189
   35.790449   50.409195
   35.788913   50.411185
   35.786802   50.412667
   35.786026   50.413978
   35.785800   50.415546
   35.786189   50.417082
   35.787400   50.418613
   35.827957   50.437545
   35.830427   50.438263
   35.832455   50.438363
   35.834440   50.438075
   35.837197   50.436813
   35.838536   50.435280
   35.840153   50.430731
   35.853165   50.433830
   35.855875   50.433930
   35.858436   50.433345
   35.869782   50.428966
   35.878724   50.436802
   35.883883   50.441939
   35.885957   50.443077
   35.887868   50.443539
   35.890577   50.443558
   35.893325   50.442787
   35.896969   50.443356
   35.900779   50.443292
   35.903067   50.442813
   35.907770   50.442398
   35.910613   50.441625
   35.914159   50.439810
   35.914977   50.439818
   35.918132   50.441267
   35.920474   50.441619
   35.922579   50.441581
   35.924569   50.441132
   35.926904   50.440051
   35.931070   50.438711
   35.933368   50.437201
   35.937474   50.438250
   35.944338   50.438291
   35.949136   50.439454
   35.952337   50.439565
   35.955302   50.438865
   35.961840   50.440256
   35.965846   50.440355
   35.968971   50.441623
   35.971207   50.443832
   35.974309   50.445111
   35.976155   50.445401
   35.985342   50.445718
   35.989088   50.446427
   35.992019   50.447391
   35.995799   50.447718
   35.999719   50.449574
   36.002255   50.450227
   36.007684   50.450484
   36.014208   50.449978
   36.021632   50.450419
   36.026892   50.451819
   36.031808   50.452018
   36.035429   50.454033
   36.037898   50.454616
   36.040523   50.454559
   36.044329   50.453539
   36.047814   50.454304
   36.051250   50.454262
   36.054909   50.455073
   36.065624   50.455759
   36.069479   50.455564
   36.071457   50.455125
   36.073615   50.453985
   36.074985   50.452190
   36.081542   50.452845
   36.086343   50.453008
   36.088332   50.452765
   36.090128   50.452158
   36.096553   50.448601
   36.113310   50.444004
   36.118867   50.442838
   36.136638   50.442054
   36.152263   50.438712
   36.163923   50.435524
   36.165570   50.434720
   36.166783   50.433636
   36.175231   50.414236
   36.176795   50.411050
   36.178518   50.408908
   36.181857   50.410588
   36.183757   50.410908
   36.185719   50.410868
   36.187585   50.410471
   36.193413   50.408152
   36.196085   50.407750
   36.198264   50.406732
   36.199946   50.404722
   36.202563   50.403455
   36.211245   50.396867
   36.216391   50.388980
   36.226568   50.380669
   36.236896   50.373904
   36.237951   50.372252
   36.239850   50.365990
   36.245946   50.362170
   36.257722   50.359563
   36.260273   50.358556
   36.278441   50.346261
   36.289456   50.338217
   36.290722   50.336164
   36.290344   50.333965
   36.284181   50.328411
   36.283418   50.327204
   36.285119   50.326465
   36.286435   50.325411
   36.287392   50.323247
   36.287140   50.321897
   36.284051   50.316685
   36.292269   50.307268
   36.292821   50.305947
   36.292906   50.303555
   36.296394   50.304175
   36.300714   50.304008
   36.303155   50.303287
   36.304995   50.302015
   36.305809   50.300812
   36.306059   50.299507
   36.305195   50.295676
   36.330252   50.293925
   36.355805   50.292906
   36.361239   50.291803
   36.362136   50.291878
   36.371059   50.294848
   36.368789   50.299814
   36.369197   50.301522
   36.371027   50.303315
   36.396790   50.311737
   36.401966   50.314153
   36.408311   50.319141
   36.418153   50.330481
   36.419896   50.331806
   36.431541   50.334985
   36.433518   50.335161
   36.435489   50.334961
   36.438325   50.333856
   36.440054   50.332019
   36.445447   50.315939
   36.473235   50.317630
   36.490790   50.315638
   36.492432   50.314918
   36.493696   50.313925
   36.496778   50.308793
   36.497668   50.308135
   36.500934   50.307206
   36.503837   50.305459
   36.505008   50.304324
   36.505738   50.302554
   36.512921   50.299941
   36.514894   50.299627
   36.518269   50.298520
   36.527792   50.298041
   36.529680   50.297642
   36.531317   50.296910
   36.532883   50.295525
   36.533542   50.293857
   36.533378   50.292567
   36.531963   50.289489
   36.538277   50.288883
   36.550851   50.286326
   36.554234   50.286525
   36.557579   50.288300
   36.566061   50.290084
   36.582250   50.290863
   36.586931   50.290413
   36.589270   50.289551
   36.593609   50.285450
   36.595069   50.282442
   36.598070   50.281382
   36.599678   50.279981
   36.600351   50.278287
   36.600343   50.274270
   36.596506   50.268214
   36.584583   50.259173
   36.584557   50.257860
   36.583966   50.256625
   36.579075   50.252213
   36.577542   50.251383
   36.575711   50.250871
   36.573069   50.250753
   36.570573   50.251284
   36.569827   50.250736
   36.573753   50.247874
   36.580282   50.246134
   36.581953   50.245370
   36.583518   50.243925
   36.584110   50.242137
   36.587354   50.240282
   36.598758   50.235835
   36.600106   50.234750
   36.601283   50.232980
   36.609994   50.229952
   36.611581   50.230871
   36.614022   50.231506
   36.618821   50.231580
   36.621027   50.231342
   36.642551   50.226566
   36.649199   50.222982
   36.659125   50.225541
   36.673155   50.239498
   36.677249   50.250774
   36.676280   50.256607
   36.676466   50.258215
   36.682530   50.269239
   36.684532   50.270881
   36.689954   50.273163
   36.694078   50.273902
   36.696154   50.273901
   36.698136   50.273500
   36.700842   50.271971
   36.706514   50.275043
   36.716578   50.281298
   36.719080   50.281813
   36.726878   50.281934
   36.736641   50.286798
   36.738709   50.287347
   36.741270   50.287533
   36.741610   50.288824
   36.742505   50.289999
   36.745732   50.291895
   36.753407   50.294484
   36.758303   50.294523
   36.760041   50.297345
   36.761559   50.303261
   36.762905   50.304743
   36.765002   50.305788
   36.773659   50.307417
   36.779294   50.307552
   36.785246   50.309306
   36.796708   50.310412
   36.799836   50.313033
   36.808187   50.316116
   36.818814   50.317843
   36.829998   50.317748
   36.847557   50.331003
   36.866971   50.340220
   36.877402   50.341666
   36.884854   50.342346
   36.913504   50.350863
   36.936979   50.354786
   36.960164   50.353798
   37.038336   50.353218
   37.041390   50.352535
   37.046720   50.349863
   37.058776   50.351524
   37.070240   50.351145
   37.080526   50.352292
   37.096605   50.354885
   37.094973   50.357139
   37.094818   50.358471
   37.095266   50.359774
   37.097223   50.361580
   37.098957   50.362289
   37.100933   50.362638
   37.139708   50.365492
   37.142816   50.364837
   37.150671   50.361004
   37.157961   50.363172
   37.160104   50.363336
   37.173186   50.366187
   37.176096   50.366575
   37.181517   50.368638
   37.183889   50.369165
   37.195626   50.373734
   37.205078   50.376731
   37.215512   50.378855
   37.216174   50.381211
   37.218260   50.382861
   37.252852   50.396597
   37.255452   50.397038
   37.258376   50.396732
   37.261656   50.398095
   37.270896   50.400460
   37.273148   50.400783
   37.288323   50.404930
   37.293629   50.408604
   37.302258   50.423622
   37.303124   50.427043
   37.305499   50.429744
   37.315761   50.436485
   37.326791   50.440286
   37.332097   50.441453
   37.352667   50.441851
   37.369184   50.438541
   37.378901   50.437053
   37.396073   50.435609
   37.402608   50.436692
   37.411831   50.437568
   37.417657   50.438739
   37.424335   50.443585
   37.426366   50.445989
   37.428859   50.447519
   37.440587   50.451154
   37.451170   50.453603
   37.465985   50.457605
   37.468018   50.458668
   37.471859   50.462549
   37.473995   50.463569
   37.475898   50.463947
   37.477888   50.463956
   37.492646   50.461674
   37.494438   50.461071
   37.496108   50.459972
   37.497092   50.458828
   37.497550   50.457109
   37.491538   50.444643
   37.491824   50.431334
   37.491334   50.429600
   37.489369   50.427817
   37.486349   50.426848
   37.471159   50.426606
   37.470102   50.422950
   37.471061   50.419607
   37.470007   50.417446
   37.472412   50.411024
   37.473081   50.406911
   37.473511   50.380756
   37.477452   50.376623
   37.477823   50.374725
   37.477612   50.371730
   37.478061   50.370984
   37.482623   50.368479
   37.489683   50.360480
   37.508122   50.356321
   37.510501   50.355404
   37.512143   50.353953
   37.514721   50.349191
   37.525534   50.340175
   37.557296   50.333972
   37.559831   50.333067
   37.561236   50.331985
   37.577517   50.314471
   37.580942   50.317469
   37.584868   50.318843
   37.594248   50.320619
   37.609035   50.320869
   37.618749   50.319846
   37.632692   50.317774
   37.639093   50.315396
   37.642161   50.312522
   37.644419   50.305627
   37.644968   50.303122
   37.644754   50.301758
   37.643521   50.300123
   37.634759   50.294090
   37.633222   50.291838
   37.634265   50.262162
   37.632562   50.245135
   37.633742   50.240123
   37.633229   50.238830
   37.621699   50.221102
   37.621318   50.219716
   37.621713   50.218022
   37.626832   50.214810
   37.629227   50.210919
   37.632903   50.207231
   37.635907   50.204539
   37.643003   50.199196
   37.649847   50.192677
   37.650387   50.191412
   37.650347   50.190099
   37.647379   50.183579
   37.646423   50.180070
   37.647272   50.178880
   37.649436   50.178501
   37.651146   50.177784
   37.658420   50.172708
   37.661011   50.168960
   37.661491   50.167609
   37.666495   50.163951
   37.669266   50.162378
   37.671422   50.160304
   37.674771   50.155520
   37.684095   50.152351
   37.689838   50.149123
   37.691583   50.147206
   37.694779   50.146385
   37.699595   50.143407
   37.706581   50.140572
   37.708639   50.138963
   37.713299   50.137754
   37.715853   50.136299
   37.716934   50.134669
   37.717062   50.133336
   37.714404   50.128489
   37.731526   50.109846
   37.738127   50.106081
   37.749216   50.096811
   37.759298   50.083823
   37.796211   50.088681
   37.798355   50.088742
   37.800424   50.088372
   37.802221   50.087608
   37.828891   50.071934
   37.854901   50.062796
   37.867041   50.058938
   37.888336   50.056034
   37.890623   50.055933
   37.896724   50.054586
   37.907452   50.050037
   37.930751   50.037544
   37.932571   50.036007
   37.933631   50.034485
   37.936618   50.028716
   37.943094   50.020025
   37.944436   50.017141
   37.957411   49.999952
   37.960069   49.997069
   37.969875   49.982886
   37.982180   49.981073
   37.984691   49.980337
   37.999553   49.970044
   38.002113   49.971429
   38.004783   49.971935
   38.007543   49.971716
   38.009949   49.970807
   38.022791   49.959754
   38.035626   49.949588
   38.050502   49.934793
   38.051268   49.933135
   38.051180   49.931834
   38.050528   49.930603
   38.048880   49.929246
   38.030595   49.923722
   38.031848   49.919329
   38.031831   49.917643
   38.031312   49.916351
   38.030038   49.915074
   38.029082   49.911267
   38.038476   49.903113
   38.039454   49.901934
   38.039859   49.900515
   38.044933   49.896228
   38.047841   49.891277
   38.052200   49.885166
   38.065199   49.874490
   38.073202   49.867323
   38.098546   49.849199
   38.100202   49.847304
   38.100460   49.845998
   38.100131   49.844698
   38.097737   49.842307
   38.083709   49.834082
   38.081320   49.833091
   38.075539   49.831657
   38.067932   49.831527
   38.054304   49.832747
   38.047916   49.834366
   38.042985   49.834448
   38.026378   49.833404
   38.017657   49.814373
   38.035215   49.805228
   38.039939   49.801980
   38.044027   49.798546
   38.047345   49.797567
   38.050154   49.797465
   38.057299   49.795752
   38.060123   49.794472
   38.061478   49.792902
   38.061786   49.791111
   38.058924   49.781723
   38.056843   49.779914
   38.054363   49.779088
   38.043669   49.778448
   38.042697   49.776314
   38.040971   49.774955
   38.030506   49.771528
   38.029820   49.770181
   38.028639   49.769117
   38.016907   49.762657
   38.016099   49.756692
   38.015541   49.755464
   38.014477   49.754387
   38.011842   49.752860
   38.001508   49.749077
   37.992874   49.748401
   37.989603   49.747755
   37.986212   49.748222
   37.980369   49.750469
   37.977071   49.752492
   37.975611   49.754659
   37.974829   49.757591
   37.966949   49.745426
   37.958514   49.731077
   37.965517   49.720959
   37.975500   49.714334
   37.987428   49.719669
   37.990772   49.720229
   37.993488   49.719866
   37.998565   49.718066
   38.003460   49.718098
   38.009665   49.718731
   38.011545   49.718648
   38.019379   49.717092
   38.022129   49.715739
   38.023168   49.714563
   38.023844   49.712419
   38.024500   49.706570
   38.024150   49.704785
   38.023196   49.703583
   38.021740   49.702618
   38.013386   49.699937
   38.015823   49.699653
   38.017648   49.698984
   38.019085   49.697989
   38.020000   49.696760
   38.020285   49.688060
   38.021231   49.686141
   38.021410   49.681712
   38.023793   49.681175
   38.025816   49.680037
   38.027183   49.678058
   38.027068   49.676114
   38.030170   49.673310
   38.033974   49.672187
   38.035983   49.671164
   38.038316   49.668717
   38.038961   49.666804
   38.051406   49.660362
   38.052383   49.659155
   38.052763   49.657812
   38.051892   49.655332
   38.050217   49.653940
   38.047851   49.653074
   38.035131   49.650378
   37.999726   49.643802
   37.995046   49.640494
   37.996896   49.636719
   37.998648   49.634332
   38.000553   49.633069
   38.002007   49.631199
   38.002703   49.628670
   38.002228   49.626982
   37.999858   49.624860
   37.997600   49.623817
   37.984991   49.621935
   37.981346   49.618679
   37.981721   49.611108
   37.981224   49.609855
   37.980204   49.608746
   37.978180   49.607643
   37.975670   49.607113
   37.962037   49.607654
   37.950778   49.606898
   37.950375   49.601892
   37.948802   49.592728
   37.947942   49.591570
   37.946090   49.590358
   37.943645   49.589534
   37.941252   49.589354
   37.943790   49.585702
   37.951260   49.580218
   37.956008   49.577634
   37.958769   49.574922
   37.959846   49.571450
   37.959692   49.568944
   37.958668   49.566736
   37.957165   49.565317
   37.954957   49.564369
   37.952366   49.564029
   37.943842   49.564985
   37.930960   49.565463
   37.929981   49.564047
   37.928583   49.563066
   37.926807   49.562395
   37.924120   49.562080
   37.914990   49.563844
   37.907898   49.566491
   37.904631   49.566969
   37.895693   49.553389
   37.928254   49.552336
   37.930155   49.551969
   37.931819   49.551265
   37.933110   49.550284
   37.933923   49.549103
   37.934152   49.547390
   37.933325   49.542219
   37.932426   49.540002
   37.922667   49.531025
   37.898466   49.521041
   37.890321   49.515450
   37.887976   49.514575
   37.885296   49.514351
   37.852798   49.515815
   37.852295   49.513633
   37.849349   49.507926
   37.850666   49.504376
   37.851999   49.502539
   37.852259   49.500816
   37.851171   49.498184
   37.848251   49.494652
   37.852340   49.493023
   37.856146   49.490668
   37.857265   49.489500
   37.857829   49.487706
   37.854025   49.462938
   37.854510   49.460703
   37.853014   49.456526
   37.851865   49.450147
   37.875780   49.451271
   37.879084   49.450657
   37.881144   49.449460
   37.882125   49.448267
   37.882520   49.446937
   37.881942   49.440108
   37.883708   49.439547
   37.885203   49.438650
   37.886235   49.437508
   37.886716   49.436220
   37.884746   49.420079
   37.886280   49.418918
   37.887131   49.417566
   37.901977   49.406058
   37.903155   49.404023
   37.902470   49.397042
   37.896169   49.365565
   37.893658   49.357272
   37.892068   49.349906
   37.893499   49.344977
   37.893350   49.341147
   37.892087   49.339065
   37.889886   49.337786
   37.889241   49.335970
   37.886594   49.331744
   37.886270   49.329760
   37.884889   49.328224
   37.888793   49.322554
   37.889901   49.319791
   37.891098   49.318034
   37.891236   49.316466
   37.903138   49.315228
   37.917960   49.312968
   37.924520   49.312891
   37.946500   49.308265
   37.950396   49.307987
   37.953290   49.306929
   37.954849   49.305520
   37.955416   49.304267
   37.954893   49.299495
   37.959286   49.293219
   37.964734   49.287021
   37.965345   49.285262
   37.964854   49.283487
   37.962825   49.281672
   37.955191   49.278442
   37.938906   49.275881
   37.928510   49.275674
   37.916855   49.273587
   37.908641   49.269474
   37.917986   49.261519
   37.918710   49.259326
   37.917728   49.257175
   37.916405   49.256130
   37.914667   49.255388
   37.909102   49.254714
   37.904561   49.253644
   37.904722   49.252187
   37.904258   49.250931
   37.902833   49.249485
   37.901274   49.248688
   37.898064   49.247908
   37.892333   49.247416
   37.889192   49.246083
   37.884859   49.244830
   37.876141   49.243145
   37.881185   49.235225
   37.881444   49.233900
   37.880852   49.232166
   37.879283   49.230714
   37.876977   49.229769
   37.864863   49.228358
   37.862436   49.226113
   37.860587   49.224227
   37.859303   49.221429
   37.856767   49.218829
   37.853114   49.203326
   37.852126   49.202138
   37.850456   49.201113
   37.849815   49.199456
   37.848684   49.198326
   37.847091   49.197463
   37.845180   49.196946
   37.843120   49.196820
   37.834806   49.197651
   37.823423   49.198206
   37.821459   49.198632
   37.819775   49.199418
   37.818522   49.200494
   37.817751   49.202024
   37.811474   49.202116
   37.804594   49.202867
   37.803910   49.200530
   37.802387   49.199070
   37.799478   49.197956
   37.796109   49.197869
   37.757728   49.205716
   37.745696   49.208463
   37.743551   49.208671
   37.710140   49.215593
   37.614543   49.228490
   37.597706   49.225527
   37.578155   49.226780
   37.570582   49.226856
   37.566312   49.224936
   37.554549   49.210737
   37.553209   49.209598
   37.551391   49.208791
   37.532346   49.202972
   37.518538   49.196327
   37.513974   49.189636
   37.512041   49.187780
   37.512475   49.187334
   37.515083   49.186362
   37.517460   49.184593
   37.519136   49.182787
   37.521456   49.181762
   37.524679   49.180634
   37.528874   49.180268
   37.531294   49.180363
   37.533261   49.180013
   37.537411   49.178489
   37.539470   49.176997
   37.542418   49.175817
   37.544011   49.174597
   37.548172   49.173308
   37.550556   49.173126
   37.554037   49.172199
   37.559182   49.169628
   37.563156   49.164435
   37.566117   49.155764
   37.571121   49.148579
   37.571214   49.146762
   37.569984   49.143778
   37.570769   49.142693
   37.571395   49.140459
   37.574075   49.140043
   37.575842   49.139326
   37.587820   49.131121
   37.590942   49.128222
   37.591657   49.127013
   37.591744   49.125290
   37.590837   49.123672
   37.588518   49.122148
   37.580713   49.119644
   37.548761   49.107951
   37.496993   49.099111
   37.498219   49.098210
   37.499152   49.096912
   37.504242   49.095152
   37.506491   49.093570
   37.507199   49.092352
   37.507346   49.091053
   37.506161   49.088820
   37.512332   49.082884
   37.513806   49.078182
   37.512871   49.073259
   37.512721   49.069424
   37.511724   49.067743
   37.509800   49.066449
   37.500616   49.064347
   37.498605   49.063107
   37.497630   49.061000
   37.496126   49.059508
   37.493854   49.058511
   37.491720   49.058183
   37.487984   49.056559
   37.486701   49.054906
   37.484762   49.053780
   37.482962   49.053287
   37.479202   49.052944
   37.471623   49.051118
   37.468928   49.051342
   37.467108   49.051949
   37.465575   49.052934
   37.463915   49.053000
   37.461685   49.052007
   37.459242   49.051610
   37.454454   49.049284
   37.451115   49.048912
   37.449121   49.049211
   37.446629   49.050151
   37.445033   49.051076
   37.443332   49.052979
   37.439723   49.053497
   37.435740   49.055834
   37.433780   49.055301
   37.431159   49.055219
   37.421418   49.056731
   37.419415   49.053621
   37.416146   49.051521
   37.414649   49.049642
   37.411863   49.048145
   37.408585   49.047244
   37.395501   49.046134
   37.391470   49.045218
   37.395180   49.040249
   37.395608   49.038988
   37.395075   49.036878
   37.392558   49.034456
   37.392872   49.033377
   37.396630   49.031176
   37.397727   49.030130
   37.398420   49.028505
   37.398798   49.024560
   37.398285   49.023286
   37.397232   49.022163
   37.395727   49.021285
   37.393899   49.020727
   37.386061   49.020059
   37.380776   49.020980
   37.379033   49.016264
   37.377674   49.003953
   37.380127   48.996413
   37.379725   48.994659
   37.378756   48.993484
   37.376734   48.992299
   37.373894   48.991400
   37.373382   48.990035
   37.372340   48.988848
   37.369569   48.987486
   37.366834   48.987142
   37.356777   48.987311
   37.353693   48.988319
   37.351735   48.990172
   37.351318   48.991958
   37.352131   48.995608
   37.347450   48.997104
   37.345529   48.994082
   37.343916   48.992817
   37.339923   48.991030
   37.335668   48.990084
   37.333474   48.989108
   37.329236   48.987886
   37.330295   48.986571
   37.331390   48.983719
   37.331514   48.982402
   37.331050   48.981118
   37.330037   48.979976
   37.327989   48.978839
   37.323716   48.978162
   37.323320   48.976022
   37.321449   48.974244
   37.319168   48.973359
   37.314845   48.972682
   37.311632   48.973145
   37.308847   48.974514
   37.306869   48.972738
   37.309273   48.972755
   37.311755   48.972147
   37.317019   48.968372
   37.317656   48.967097
   37.317693   48.965757
   37.316611   48.963732
   37.315488   48.962608
   37.316763   48.961293
   37.320516   48.961365
   37.324233   48.960473
   37.326272   48.959332
   37.327646   48.957340
   37.327037   48.952669
   37.325935   48.950941
   37.323596   48.949148
   37.321976   48.948388
   37.315081   48.947285
   37.314709   48.946862
   37.315176   48.946212
   37.317246   48.945817
   37.318907   48.945096
   37.321260   48.942792
   37.324956   48.942129
   37.329322   48.941886
   37.331878   48.941197
   37.333409   48.940279
   37.334478   48.939059
   37.337625   48.937635
   37.338896   48.936058
   37.339026   48.933840
   37.335043   48.920999
   37.333889   48.919443
   37.331013   48.917923
   37.327761   48.917276
   37.314281   48.918287
   37.308482   48.916353
   37.306668   48.916083
   37.304331   48.915234
   37.302230   48.915001
   37.298405   48.915052
   37.295818   48.915609
   37.293761   48.916774
   37.292533   48.918416
   37.275673   48.918232
   37.273339   48.905418
   37.272630   48.904204
   37.270923   48.902883
   37.268581   48.902076
   37.265946   48.901901
   37.250031   48.903769
   37.247866   48.902523
   37.244619   48.901947
   37.230891   48.903451
   37.229746   48.901526
   37.227640   48.899787
   37.226748   48.898360
   37.226035   48.895748
   37.222153   48.891684
   37.222528   48.889044
   37.221251   48.886967
   37.217825   48.885213
   37.215590   48.883527
   37.212422   48.882531
   37.208310   48.880455
   37.205712   48.879788
   37.201603   48.877514
   37.199547   48.876941
   37.200545   48.875036
   37.200660   48.872817
   37.199735   48.871243
   37.197669   48.869790
   37.197474   48.868797
   37.202022   48.848291
   37.199079   48.814256
   37.198204   48.812336
   37.195961   48.810721
   37.192822   48.809977
   37.189514   48.810278
   37.162107   48.818718
   37.153840   48.820559
   37.151377   48.822083
   37.146800   48.827971
   37.142652   48.828047
   37.140536   48.827399
   37.137801   48.827269
   37.135202   48.827842
   37.133148   48.829027
   37.131958   48.830639
   37.131820   48.832427
   37.134821   48.837656
   37.102859   48.845236
   37.096633   48.835498
   37.086423   48.817984
   37.084145   48.815202
   37.082835   48.814241
   37.079913   48.813288
   37.072842   48.813042
   37.071979   48.811595
   37.070701   48.810575
   37.069026   48.809839
   37.066427   48.809403
   37.042963   48.810485
   37.037848   48.811339
   37.032556   48.811706
   37.029162   48.812591
   37.026729   48.805638
   37.025456   48.800563
   37.024625   48.799314
   37.022708   48.798005
   37.019468   48.797221
   37.017383   48.797286
   37.012795   48.798223
   37.011482   48.795137
   37.004597   48.788571
   37.027775   48.778140
   37.029085   48.777049
   37.029827   48.775751
   37.030328   48.771545
   37.045147   48.770504
   37.047554   48.769656
   37.049557   48.767857
   37.050029   48.766550
   37.049891   48.765211
   37.042277   48.744488
   37.041323   48.743320
   37.039892   48.742383
   37.038106   48.741756
   37.036119   48.741493
   37.033758   48.741623
   37.031348   48.742343
   37.029017   48.743860
   37.025285   48.747212
   37.021937   48.748312
   37.014839   48.752297
   37.013326   48.753688
   37.011129   48.757625
   37.009059   48.759012
   37.006520   48.760329
   37.000028   48.761126
   36.996565   48.762512
   36.995152   48.763906
   36.993988   48.766247
   36.988836   48.768901
   36.987358   48.770197
   36.983907   48.771517
   36.982326   48.773131
   36.980540   48.774279
   36.979451   48.775823
   36.978711   48.778964
   36.977241   48.779854
   36.974826   48.782389
   36.972038   48.784153
   36.969887   48.786960
   36.965978   48.788630
   36.962954   48.789531
   36.953742   48.790556
   36.948456   48.790840
   36.945775   48.790217
   36.940321   48.790070
   36.933342   48.788160
   36.930638   48.788011
   36.923588   48.788993
   36.918198   48.790713
   36.916088   48.791797
   36.914725   48.793424
   36.858824   48.795711
   36.846681   48.775674
   36.847060   48.774444
   36.846855   48.773072
   36.845532   48.770723
   36.844351   48.769605
   36.842714   48.768766
   36.840769   48.768282
   36.820700   48.766850
   36.818168   48.767303
   36.816076   48.768338
   36.811982   48.773502
   36.787172   48.776425
   36.785269   48.776898
   36.783659   48.777712
   36.782480   48.778796
   36.781750   48.780497
   36.781895   48.781823
   36.782669   48.783185
   36.780400   48.783944
   36.778951   48.784924
   36.778015   48.786141
   36.777049   48.788943
   36.777162   48.791153
   36.779306   48.794723
   36.770764   48.792924
   36.768075   48.792652
   36.764110   48.792702
   36.758820   48.793570
   36.753439   48.794955
   36.752051   48.795562
   36.747298   48.796670
   36.744682   48.796977
   36.732918   48.800264
   36.730603   48.800213
   36.724376   48.800890
   36.708163   48.781362
   36.697013   48.774522
   36.697121   48.774212
   36.711923   48.771665
   36.714173   48.770543
   36.715625   48.769010
   36.724602   48.745276
   36.724567   48.743919
   36.723918   48.742630
   36.722712   48.741525
   36.721211   48.740764
   36.732464   48.716172
   36.741598   48.706213
   36.742503   48.704572
   36.742200   48.702409
   36.735304   48.692708
   36.734225   48.690399
   36.732853   48.689376
   36.731077   48.688666
   36.728477   48.688049
   36.726374   48.687987
   36.726310   48.686773
   36.727956   48.684533
   36.728146   48.682338
   36.726894   48.680312
   36.724673   48.678898
   36.725413   48.676821
   36.727645   48.675362
   36.729090   48.673542
   36.731356   48.672108
   36.733510   48.669179
   36.734049   48.667852
   36.733968   48.666342
   36.732678   48.664130
   36.735546   48.662467
   36.737623   48.658667
   36.737396   48.655526
   36.736435   48.654296
   36.734956   48.653246
   36.735959   48.650919
   36.739218   48.649642
   36.740395   48.648523
   36.741010   48.647226
   36.745832   48.626171
   36.745415   48.624389
   36.743966   48.622855
   36.742334   48.622016
   36.740394   48.621531
   36.704312   48.617969
   36.701633   48.618240
   36.699319   48.619160
   36.697722   48.620589
   36.696988   48.622613
   36.680490   48.621017
   36.681007   48.617799
   36.680445   48.616517
   36.679334   48.615398
   36.677771   48.614538
   36.675891   48.614014
   36.661955   48.612545
   36.662511   48.609755
   36.661932   48.608086
   36.659822   48.606277
   36.657436   48.605276
   36.591798   48.598297
   36.589063   48.598367
   36.586582   48.599123
   36.585126   48.600073
   36.584160   48.601260
   36.583668   48.602900
   36.579052   48.602801
   36.577182   48.603303
   36.575182   48.604476
   36.574017   48.606057
   36.572640   48.611649
   36.561983   48.612151
   36.558883   48.613006
   36.556766   48.614713
   36.554579   48.619492
   36.484075   48.657233
   36.454154   48.630988
   36.451463   48.629065
   36.449561   48.628272
   36.448655   48.626249
   36.440539   48.618802
   36.446425   48.619335
   36.448429   48.618986
   36.450689   48.617954
   36.452152   48.616429
   36.452751   48.614560
   36.452767   48.613196
   36.451825   48.611490
   36.448130   48.609226
   36.440246   48.607580
   36.437791   48.607484
   36.431117   48.608000
   36.428816   48.608444
   36.427022   48.606819
   36.426116   48.605349
   36.423221   48.603286
   36.419887   48.600114
   36.390532   48.571252
   36.396743   48.567985
   36.397999   48.566894
   36.398824   48.564701
   36.397921   48.562520
   36.387422   48.552828
   36.360277   48.529226
   36.357462   48.528018
   36.355464   48.527768
   36.353441   48.527907
   36.351003   48.528674
   36.345042   48.531629
   36.343198   48.533448
   36.342807   48.535182
   36.343455   48.536882
   36.345557   48.538894
   36.325250   48.549194
   36.301467   48.528200
   36.299968   48.527360
   36.298165   48.526831
   36.296208   48.526655
   36.294253   48.526846
   36.291926   48.527643
   36.277706   48.535046
   36.266710   48.540360
   36.264835   48.542169
   36.264479   48.544341
   36.265723   48.546368
   36.309782   48.586244
   36.272941   48.603960
   36.267417   48.604979
   36.261703   48.607173
   36.259541   48.608615
   36.257162   48.611186
   36.255492   48.612230
   36.254329   48.613816
   36.246099   48.617503
   36.244658   48.619003
   36.244222   48.620304
   36.244796   48.622431
   36.244248   48.623732
   36.244285   48.625668
   36.245858   48.628069
   36.247216   48.629081
   36.249616   48.629943
   36.251652   48.630151
   36.255633   48.629879
   36.255202   48.631295
   36.255686   48.633116
   36.257685   48.635265
   36.259355   48.636407
   36.258072   48.638156
   36.257818   48.639983
   36.258510   48.641579
   36.259851   48.642863
   36.259810   48.644875
   36.259036   48.647924
   36.260944   48.651869
   36.262735   48.653325
   36.266373   48.654370
   36.274204   48.658524
   36.271988   48.659641
   36.268533   48.658609
   36.266488   48.658572
   36.264516   48.658927
   36.259804   48.661018
   36.255378   48.663916
   36.250062   48.665440
   36.205498   48.687095
   36.196224   48.692151
   36.155911   48.711960
   36.137365   48.721706
   36.136160   48.723750
   36.136569   48.725925
   36.153373   48.747860
   36.150329   48.749779
   36.136691   48.761172
   36.133738   48.764113
   36.133212   48.766339
   36.134395   48.768454
   36.136994   48.769935
   36.145525   48.771885
   36.150512   48.772208
   36.146273   48.780900
   36.146886   48.782988
   36.149164   48.784802
   36.126516   48.801119
   36.123867   48.800626
   36.120509   48.801003
   36.117832   48.802379
   36.116549   48.804220
   36.110901   48.804516
   36.106636   48.802209
   36.104760   48.801696
   36.102736   48.801560
   36.100110   48.801982
   36.098355   48.802749
   36.094913   48.803225
   36.091796   48.803357
   36.088650   48.803065
   36.083710   48.803925
   36.078990   48.803330
   36.076502   48.803390
   36.073708   48.803069
   36.067716   48.803953
   36.064231   48.803782
   36.061142   48.804638
   36.059208   48.805908
   36.058088   48.808014
   36.058221   48.809358
   36.058873   48.810510
   36.058799   48.813034
   36.059572   48.814786
   36.061540   48.816478
   36.062333   48.818464
   36.063454   48.819859
   36.062154   48.822174
   36.062304   48.824096
   36.063542   48.826074
   36.064026   48.828476
   36.066898   48.831390
   36.064868   48.832441
   36.062760   48.834345
   36.059519   48.836036
   36.050242   48.839512
   36.041142   48.839155
   36.037789   48.839816
   36.014572   48.851354
   36.013005   48.852756
   36.012428   48.854004
   36.012547   48.855737
   36.013293   48.856947
   36.030615   48.872694
   36.007263   48.884339
   36.005175   48.886548
   36.004807   48.887843
   36.005026   48.889152
   36.006192   48.890728
   36.022604   48.904984
   36.034110   48.914375
   35.991317   48.935790
   35.989901   48.936752
   35.988673   48.938809
   35.988871   48.940578
   35.989700   48.941797
   35.994040   48.945447
   35.972617   48.956393
   35.971383   48.957416
   35.970646   48.958625
   35.970537   48.960355
   35.971431   48.961984
   35.980247   48.968554
   35.973088   48.972463
   35.971859   48.973574
   35.953472   48.984650
   35.944982   48.990245
   35.945222   48.986233
   35.944596   48.984902
   35.943052   48.983534
   35.945709   48.982186
   35.948600   48.979349
   35.949329   48.978124
   35.949488   48.976813
   35.948566   48.974728
   35.946252   48.972987
   35.946334   48.971542
   35.945831   48.970335
   35.944523   48.968766
   35.943145   48.967787
   35.940084   48.966859
   35.935195   48.966748
   35.931811   48.967683
   35.927770   48.969819
   35.926581   48.969771
   35.925177   48.968939
   35.924676   48.967543
   35.923635   48.966408
   35.921001   48.964905
   35.916216   48.963806
   35.914087   48.963708
   35.912014   48.964038
   35.908302   48.965416
   35.906626   48.966731
   35.905678   48.968227
   35.904877   48.968366
   35.900892   48.967571
   35.896649   48.967448
   35.888611   48.969309
   35.885734   48.961485
   35.884893   48.960260
   35.883538   48.959250
   35.881143   48.958388
   35.862043   48.954457
   35.863793   48.945004
   35.863162   48.943368
   35.861500   48.941776
   35.859332   48.940860
   35.854736   48.940173
   35.849322   48.940701
   35.844879   48.941989
   35.843109   48.942933
   35.841075   48.942501
   35.837786   48.942371
   35.833655   48.942580
   35.831287   48.943100
   35.824631   48.936839
   35.821498   48.935665
   35.819071   48.935398
   35.821952   48.930238
   35.821722   48.928457
   35.820011   48.926325
   35.818483   48.925416
   35.815392   48.924664
   35.812770   48.923440
   35.807896   48.922667
   35.799819   48.923044
   35.795614   48.924308
   35.792085   48.926875
   35.788813   48.930291
   35.786133   48.931906
   35.785048   48.933468
   35.784291   48.937561
   35.785105   48.940213
   35.786784   48.941852
   35.784885   48.942924
   35.782964   48.944933
   35.779814   48.944158
   35.773307   48.944264
   35.770860   48.945103
   35.766532   48.947664
   35.765131   48.946008
   35.762353   48.944238
   35.758083   48.942900
   35.752495   48.942152
   35.749975   48.942410
   35.744801   48.944172
   35.737968   48.945067
   35.734899   48.946590
   35.731819   48.950611
   35.731406   48.952389
   35.732160   48.954220
   35.730883   48.955247
   35.729758   48.957021
   35.729514   48.959491
   35.726379   48.959694
   35.723561   48.960548
   35.723458   48.958334
   35.721900   48.956524
   35.722900   48.954597
   35.722698   48.952428
   35.720284   48.948224
   35.717594   48.945767
   35.712601   48.943345
   35.706083   48.941501
   35.703633   48.941139
   35.701598   48.939443
   35.699793   48.938688
   35.696054   48.938235
   35.693443   48.938554
   35.687717   48.941299
   35.685908   48.942681
   35.685018   48.944006
   35.684715   48.946639
   35.683400   48.949239
   35.683439   48.950959
   35.684081   48.952164
   35.685735   48.953829
   35.687643   48.954727
   35.686281   48.956336
   35.685863   48.958854
   35.689102   48.964196
   35.686254   48.965159
   35.683425   48.965690
   35.681366   48.966646
   35.676335   48.966445
   35.674335   48.966874
   35.672739   48.967607
   35.667809   48.964272
   35.665255   48.963657
   35.662536   48.963731
   35.660070   48.964483
   35.657742   48.966085
   35.656633   48.967230
   35.656071   48.968767
   35.652272   48.969203
   35.652250   48.967375
   35.650893   48.964666
   35.648987   48.963345
   35.645886   48.962271
   35.643971   48.962039
   35.634968   48.962095
   35.626376   48.962868
   35.623913   48.963739
   35.622285   48.964722
   35.618176   48.970192
   35.617798   48.972160
   35.618976   48.977898
   35.614261   48.977212
   35.608933   48.977522
   35.606142   48.976668
   35.602042   48.976570
   35.597683   48.977420
   35.594791   48.978629
   35.592240   48.980260
   35.591189   48.980158
   35.589697   48.978916
   35.586898   48.977521
   35.585682   48.975814
   35.585044   48.974019
   35.582827   48.971621
   35.579964   48.970315
   35.577703   48.969671
   35.572976   48.969037
   35.570373   48.969351
   35.567246   48.970533
   35.563875   48.969334
   35.559230   48.969319
   35.557258   48.969895
   35.554669   48.971440
   35.546818   48.971813
   35.539511   48.973604
   35.536200   48.975090
   35.533211   48.973525
   35.529949   48.973193
   35.510241   48.976793
   35.504936   48.973964
   35.501625   48.973070
   35.498493   48.973065
   35.496952   48.972206
   35.493820   48.971194
   35.492360   48.969841
   35.490282   48.968850
   35.486957   48.968053
   35.483577   48.968249
   35.480498   48.969275
   35.478147   48.970963
   35.476991   48.973058
   35.476824   48.974614
   35.474561   48.975037
   35.471390   48.976390
   35.468403   48.978431
   35.467096   48.980032
   35.466743   48.982314
   35.464739   48.983813
   35.460440   48.983307
   35.458466   48.983376
   35.455577   48.983944
   35.453241   48.984986
   35.450441   48.987328
   35.449332   48.989296
   35.449221   48.991183
   35.450437   48.993156
   35.448127   48.993316
   35.446319   48.993844
   35.444814   48.994684
   35.443407   48.996229
   35.439670   48.996817
   35.431217   49.001254
   35.428576   49.004021
   35.428248   49.006275
   35.424241   49.006471
   35.422421   49.007127
   35.420573   49.008315
   35.416653   49.008884
   35.412324   49.007879
   35.407929   49.008150
   35.404546   49.009405
   35.398477   49.012819
   35.394226   49.016522
   35.393159   49.018316
   35.393341   49.020553
   35.394413   49.022072
   35.395658   49.022991
   35.395750   49.023933
   35.388922   49.022265
   35.385727   49.022282
   35.383627   49.022637
   35.379103   49.024983
   35.376619   49.027948
   35.374080   49.027854
   35.371566   49.028401
   35.369989   49.029196
   35.365772   49.032406
   35.361170   49.034116
   35.359639   49.035565
   35.359102   49.036924
   35.357322   49.036464
   35.355179   49.036354
   35.350855   49.036596
   35.348286   49.037262
   35.344742   49.039124
   35.343559   49.040119
   35.337765   49.042024
   35.332547   49.046319
   35.331263   49.048119
   35.331005   49.049824
   35.331868   49.052123
   35.333398   49.053560
   35.330331   49.055506
   35.328925   49.057120
   35.324955   49.057915
   35.322309   49.057893
   35.319661   49.058420
   35.317572   49.059436
   35.314481   49.062076
   35.311031   49.062195
   35.308453   49.062962
   35.306901   49.063869
   35.303935   49.064645
   35.299589   49.065119
   35.297173   49.066070
   35.295856   49.067156
   35.295043   49.068497
   35.294712   49.069790
   35.294963   49.071090
   35.296167   49.072883
   35.299925   49.076319
   35.301442   49.078674
   35.303412   49.079862
   35.305706   49.080511
   35.304195   49.084833
   35.300933   49.084497
   35.298233   49.084865
   35.295961   49.085751
   35.293354   49.087698
   35.289810   49.089107
   35.287288   49.087223
   35.284224   49.086307
   35.281146   49.086392
   35.279328   49.086043
   35.276293   49.085965
   35.271876   49.087074
   35.270464   49.087959
   35.269283   49.089283
   35.264355   49.092501
   35.263005   49.094043
   35.261671   49.097367
   35.262245   49.099877
   35.262009   49.101382
   35.258172   49.101573
   35.254148   49.103012
   35.252304   49.104781
   35.251437   49.107383
   35.246462   49.107132
   35.243086   49.107774
   35.239478   49.104144
   35.237603   49.100948
   35.235031   49.098154
   35.232311   49.096755
   35.229836   49.096195
   35.227186   49.096066
   35.221315   49.096907
   35.219070   49.097788
   35.216746   49.099505
   35.215055   49.102884
   35.204155   49.104356
   35.201273   49.104393
   35.197413   49.103584
   35.194281   49.103731
   35.191504   49.104344
   35.185594   49.106909
   35.183504   49.108920
   35.182716   49.111264
   35.182949   49.113517
   35.185281   49.117746
   35.186663   49.118727
   35.190015   49.119760
   35.194642   49.122287
   35.197700   49.122937
   35.203621   49.123242
   35.204747   49.126353
   35.206324   49.127699
   35.208051   49.128532
   35.199845   49.131682
   35.196851   49.132329
   35.194070   49.133879
   35.190802   49.133369
   35.187395   49.133767
   35.185150   49.134837
   35.183522   49.136287
   35.182924   49.137535
   35.182865   49.139238
   35.181704   49.141148
   35.181626   49.145685
   35.182639   49.147406
   35.183007   49.149024
   35.184643   49.150845
   35.187863   49.152342
   35.191674   49.153242
   35.192948   49.153815
   35.189249   49.156440
   35.186202   49.156902
   35.184450   49.156057
   35.179490   49.154634
   35.176829   49.154335
   35.173588   49.154922
   35.169548   49.157147
   35.165626   49.157042
   35.163811   49.156657
   35.164224   49.155021
   35.163606   49.153235
   35.159133   49.149715
   35.151363   49.146452
   35.147390   49.145734
   35.144310   49.145542
   35.141693   49.145795
   35.132377   49.148288
   35.128050   49.149920
   35.125043   49.152184
   35.124142   49.154588
   35.121058   49.156372
   35.117011   49.155241
   35.114291   49.153540
   35.111071   49.152550
   35.106262   49.152143
   35.103950   49.152377
   35.102803   49.152065
   35.101203   49.150618
   35.099252   49.149784
   35.097863   49.148094
   35.096045   49.147007
   35.097399   49.145724
   35.098401   49.143533
   35.098256   49.141750
   35.097064   49.140143
   35.095591   49.139205
   35.090680   49.137255
   35.085783   49.136851
   35.081087   49.137405
   35.077713   49.138750
   35.072429   49.144813
   35.070281   49.146233
   35.068999   49.148281
   35.068966   49.151094
   35.067886   49.153616
   35.068157   49.155481
   35.066357   49.156560
   35.065400   49.157693
   35.062537   49.164590
   35.062648   49.166412
   35.063853   49.168058
   35.057292   49.170337
   35.056340   49.170347
   35.056153   49.169293
   35.057188   49.166641
   35.056749   49.164552
   35.055691   49.162617
   35.052294   49.158941
   35.050967   49.155110
   35.048971   49.152735
   35.047623   49.151782
   35.045291   49.150970
   35.041592   49.150744
   35.034989   49.149081
   35.028176   49.148227
   35.025163   49.147311
   35.019212   49.146333
   35.017132   49.146278
   35.015120   49.146629
   35.013359   49.147353
   35.012007   49.148386
   35.011186   49.149635
   35.006287   49.161917
   34.983361   49.223482
   34.973811   49.248023
   34.973441   49.250204
   34.973792   49.251606
   34.985715   49.275128
   34.986088   49.276576
   34.992827   49.290107
   34.994130   49.291715
   34.999984   49.303790
   35.001471   49.305233
   35.003078   49.306014
   35.004961   49.306463
   35.007044   49.306534
   35.007836   49.307848
   35.014319   49.315025
   35.012447   49.316878
   35.012073   49.318148
   35.012265   49.319435
   35.018567   49.328316
   35.033424   49.335822
   35.036679   49.336354
   35.039936   49.335826
   35.080789   49.321575
   35.082180   49.320563
   35.083047   49.319326
   35.084161   49.312943
   35.087921   49.308355
   35.091416   49.305909
   35.096812   49.306656
   35.098864   49.306361
   35.101717   49.305394
   35.105984   49.305676
   35.108775   49.305364
   35.112621   49.306432
   35.118077   49.306983
   35.125531   49.307232
   35.171338   49.300303
   35.210272   49.300159
   35.211396   49.301352
   35.212889   49.302240
   35.214711   49.302810
   35.216708   49.303012
   35.242367   49.301531
   35.245247   49.300930
   35.266433   49.292844
   35.268425   49.291700
   35.269627   49.290109
   35.272105   49.292026
   35.272728   49.293629
   35.273838   49.294732
   35.275982   49.295791
   35.279238   49.296440
   35.280641   49.297497
   35.272313   49.317407
   35.272365   49.319145
   35.273067   49.320369
   35.301015   49.342311
   35.311427   49.349996
   35.331701   49.366203
   35.333204   49.367818
   35.339491   49.372506
   35.365323   49.395812
   35.344966   49.400756
   35.342400   49.402154
   35.341136   49.404174
   35.341271   49.405922
   35.345357   49.416582
   35.347361   49.420329
   35.355292   49.441933
   35.352508   49.442111
   35.350145   49.442696
   35.343523   49.446454
   35.312883   49.451351
   35.310267   49.452718
   35.309083   49.454295
   35.309028   49.456481
   35.314611   49.472200
   35.315803   49.474082
   35.323060   49.492431
   35.320938   49.494283
   35.320480   49.496458
   35.325309   49.506692
   35.326406   49.507845
   35.327978   49.508734
   35.329883   49.509278
   35.332643   49.509389
   35.456649   49.489151
   35.459160   49.490947
   35.462444   49.491623
   35.476487   49.489527
   35.482091   49.502588
   35.483534   49.507380
   35.479379   49.512669
   35.447467   49.517672
   35.444479   49.518989
   35.436942   49.520761
   35.426443   49.522374
   35.424099   49.523255
   35.422450   49.524655
   35.421736   49.526804
   35.425116   49.536671
   35.420956   49.537649
   35.419479   49.538583
   35.418487   49.539759
   35.418063   49.541522
   35.419080   49.546321
   35.410891   49.547798
   35.407139   49.547645
   35.402704   49.549031
   35.401374   49.550028
   35.398496   49.553706
   35.398039   49.554953
   35.398015   49.557166
   35.399822   49.561387
   35.401036   49.562811
   35.403298   49.564154
   35.408042   49.565880
   35.468560   49.569940
   35.470958   49.571839
   35.476779   49.573967
   35.458202   49.601392
   35.445898   49.628770
   35.439691   49.635979
   35.437979   49.638828
   35.435719   49.641149
   35.420271   49.653177
   35.419159   49.654431
   35.416951   49.663452
   35.417360   49.665224
   35.418419   49.666462
   35.396939   49.665644
   35.395851   49.664565
   35.394335   49.663728
   35.391212   49.663056
   35.345060   49.660665
   35.342999   49.660759
   35.340491   49.661488
   35.338614   49.662796
   35.332835   49.668925
   35.325566   49.678222
   35.318003   49.679769
   35.299240   49.682358
   35.285745   49.681337
   35.280913   49.681528
   35.278666   49.680619
   35.276638   49.680336
   35.262566   49.680762
   35.259616   49.681749
   35.257677   49.683577
   35.253355   49.684841
   35.243849   49.688978
   35.240135   49.689623
   35.237801   49.691101
   35.236725   49.692885
   35.236873   49.694975
   35.244870   49.705457
   35.240353   49.706119
   35.237777   49.707520
   35.236510   49.709546
   35.236521   49.710881
   35.235809   49.712651
   35.236015   49.714006
   35.236829   49.715259
   35.238725   49.716578
   35.247197   49.719712
   35.249185   49.720066
   35.251244   49.720024
   35.253193   49.719589
   35.254944   49.718741
   35.256387   49.719820
   35.253490   49.729451
   35.231294   49.731705
   35.221622   49.732206
   35.218663   49.733103
   35.214070   49.736476
   35.201664   49.744528
   35.200940   49.745762
   35.200795   49.747080
   35.201239   49.748369
   35.202534   49.749747
   35.202593   49.751575
   35.199877   49.753617
   35.198541   49.755845
   35.198347   49.759139
   35.199529   49.764645
   35.200528   49.766141
   35.202428   49.767695
   35.202907   49.769206
   35.204058   49.770844
   35.200685   49.776575
   35.200517   49.778647
   35.199086   49.781651
   35.199509   49.783496
   35.202711   49.787768
   35.196363   49.791304
   35.194723   49.792647
   35.193531   49.795037
   35.193438   49.796360
   35.194021   49.797760
   35.192877   49.799326
   35.192736   49.801113
   35.193339   49.802400
   35.194497   49.803515
   35.196105   49.804357
   35.199105   49.805118
   35.200137   49.806533
   35.201954   49.807753
   35.207160   49.809676
   35.210494   49.810041
   35.209132   49.813331
   35.208546   49.821474
   35.209459   49.823972
   35.211627   49.827599
   35.209033   49.829115
   35.206683   49.829781
   35.202817   49.830303
   35.200872   49.831045
   35.196200   49.831093
   35.193562   49.831645
   35.191919   49.832480
   35.190455   49.834014
   35.190029   49.835799
   35.190613   49.837406
   35.164980   49.843667
   35.162108   49.845358
   35.158655   49.850030
   35.141223   49.854530
   35.134228   49.851023
   35.127288   49.848693
   35.121173   49.847034
   35.119099   49.846834
   35.115744   49.847412
   35.102651   49.853384
   35.093326   49.854712
   35.085100   49.855459
   35.074063   49.853518
   35.068646   49.853784
   35.064757   49.854619
   35.061050   49.856259
   35.059024   49.858042
   35.058302   49.859236
   35.053606   49.861940
   35.046148   49.865027
   35.044358   49.866791
   35.041940   49.867916
   35.040584   49.869381
   35.039611   49.872519
   35.040621   49.874676
   35.043102   49.876246
   35.048005   49.877157
   35.047185   49.880186
   35.047462   49.881888
   35.036201   49.882629
   35.024382   49.875402
   35.018544   49.872414
   35.016791   49.871766
   35.014153   49.871461
   35.010931   49.872026
   34.995045   49.877760
   34.983651   49.883042
   34.980235   49.884191
   34.973924   49.881319
   34.972031   49.880842
   34.970006   49.880743
   34.967404   49.881210
   34.957778   49.885140
   34.952902   49.887658
   34.940376   49.895359
   34.933668   49.900957
   34.930183   49.904373
   34.908644   49.929987
   34.894087   49.927644
   34.891991   49.927656
   34.889996   49.928076
   34.887806   49.929200
   34.873762   49.940033
   34.869609   49.940832
   34.865051   49.943698
   34.862945   49.943876
   34.856899   49.945426
   34.855148   49.946089
   34.853765   49.947054
   34.852580   49.949100
   34.853005   49.951270
   34.857373   49.956887
   34.859579   49.958289
   34.858430   49.962556
   34.849449   49.986392
   34.849851   49.988660
   34.851378   49.990199
END
END
