kherson
1
   31.159185   46.414205
   31.382198   46.412097
   31.504341   46.385080
   31.533095   46.386080
   31.543605   46.386173
   31.673755   46.362017
   31.767667   46.355906
   31.770586   46.354958
   31.777929   46.349880
   31.793536   46.352973
   31.803074   46.361701
   31.804355   46.371564
   31.801133   46.402780
   31.799069   46.430764
   31.802439   46.443762
   31.797970   46.478774
   31.798192   46.480403
   31.808038   46.494377
   31.815422   46.499396
   31.824734   46.502627
   31.830151   46.504065
   31.832679   46.504057
   31.841343   46.502244
   31.842638   46.503118
   31.852476   46.517457
   31.856488   46.525934
   31.920997   46.583358
   31.923561   46.653000
   31.924434   46.655147
   31.926681   46.656743
   31.929110   46.657357
   31.981515   46.659228
   31.981019   46.665045
   31.982049   46.666699
   31.984499   46.668165
   31.986361   46.668581
   32.017912   46.672140
   32.014316   46.675452
   32.013613   46.677598
   32.013937   46.678908
   32.014797   46.680096
   32.016119   46.681060
   32.017787   46.681716
   32.070315   46.688134
   32.073473   46.687975
   32.076001   46.686905
   32.079396   46.687278
   32.070347   46.724647
   32.060201   46.723482
   32.057160   46.724275
   32.055366   46.725587
   32.054457   46.727280
   32.050697   46.743945
   32.050686   46.745289
   32.051550   46.746971
   32.053288   46.748291
   32.055627   46.749042
   32.108181   46.756960
   32.110786   46.756793
   32.113569   46.755620
   32.114982   46.754095
   32.115873   46.750992
   32.116705   46.750307
   32.164073   46.756014
   32.162489   46.764147
   32.163741   46.766228
   32.165701   46.767425
   32.167534   46.767918
   32.211161   46.774705
   32.203270   46.804921
   32.203209   46.806246
   32.203706   46.807527
   32.205155   46.808976
   32.207901   46.810075
   32.227383   46.812572
   32.242798   46.820424
   32.234746   46.827250
   32.225393   46.836690
   32.223009   46.840434
   32.220713   46.845103
   32.221221   46.847232
   32.222203   46.848344
   32.223602   46.849215
   32.225302   46.849774
   32.227161   46.849975
   32.229025   46.849800
   32.230740   46.849264
   32.273061   46.830541
   32.277744   46.827944
   32.284369   46.824996
   32.314816   46.811865
   32.329346   46.804961
   32.342663   46.800157
   32.365331   46.802789
   32.358803   46.828923
   32.359114   46.830675
   32.360369   46.832211
   32.362377   46.833297
   32.364197   46.833714
   32.408922   46.839101
   32.411017   46.839707
   32.418289   46.840835
   32.421491   46.840679
   32.441799   46.843363
   32.451710   46.844336
   32.463427   46.844952
   32.465316   46.844728
   32.467030   46.844133
   32.468421   46.843220
   32.469369   46.842066
   32.474669   46.821650
   32.497676   46.823867
   32.523963   46.827009
   32.519395   46.845892
   32.518629   46.847647
   32.518751   46.849389
   32.520211   46.851310
   32.522797   46.852539
   32.533956   46.853911
   32.530617   46.871068
   32.529670   46.873005
   32.528680   46.878460
   32.527358   46.880700
   32.527444   46.882518
   32.529073   46.884764
   32.531622   46.886184
   32.543095   46.887621
   32.545580   46.887606
   32.547340   46.887169
   32.549635   46.885873
   32.550823   46.884778
   32.551573   46.883032
   32.552048   46.874741
   32.569887   46.877068
   32.571754   46.877001
   32.573518   46.876571
   32.575461   46.875496
   32.577540   46.873317
   32.578577   46.867649
   32.581532   46.866748
   32.583192   46.865409
   32.583882   46.864156
   32.585628   46.863941
   32.587377   46.863333
   32.589134   46.862274
   32.590278   46.861112
   32.611470   46.863302
   32.613414   46.863018
   32.615144   46.862341
   32.617286   46.860274
   32.619782   46.859201
   32.638637   46.860954
   32.686761   46.866537
   32.689279   46.866500
   32.691050   46.866038
   32.693348   46.864559
   32.694296   46.862944
   32.703566   46.826297
   32.705027   46.826992
   32.706866   46.827405
   32.726386   46.829869
   32.744377   46.831528
   32.746996   46.831401
   32.749984   46.830266
   32.764394   46.831810
   32.766917   46.831387
   32.769103   46.830231
   32.769228   46.831663
   32.770286   46.833298
   32.772299   46.834770
   32.774110   46.835429
   32.807445   46.838418
   32.807137   46.840651
   32.807933   46.842354
   32.809622   46.843710
   32.811938   46.844506
   32.842412   46.847970
   32.869564   46.851446
   32.872003   46.851437
   32.941536   46.861475
   32.940974   46.863587
   32.920163   46.861624
   32.917706   46.861882
   32.916053   46.862485
   32.914358   46.863744
   32.913604   46.864928
   32.910691   46.877982
   32.902191   46.876753
   32.876583   46.874168
   32.856563   46.872507
   32.853927   46.872857
   32.846980   46.874871
   32.842010   46.876835
   32.835465   46.878537
   32.832828   46.879687
   32.831483   46.880672
   32.829806   46.883198
   32.829504   46.884549
   32.830315   46.886742
   32.834828   46.891303
   32.835348   46.892519
   32.833371   46.894124
   32.832663   46.896214
   32.832966   46.897608
   32.835687   46.902156
   32.837719   46.903746
   32.839967   46.904440
   32.850680   46.905471
   32.918658   46.913914
   32.916239   46.923799
   32.915191   46.926452
   32.915381   46.927758
   32.916104   46.928971
   32.918311   46.930517
   32.926520   46.932190
   32.943193   46.934163
   32.947057   46.933871
   32.972271   46.937281
   32.970541   46.943780
   32.949755   46.941488
   32.947804   46.941731
   32.945534   46.942660
   32.944285   46.943727
   32.943475   46.945097
   32.935561   46.972423
   32.928020   46.984424
   32.927445   46.986192
   32.927702   46.987544
   32.928530   46.988781
   32.940508   47.001303
   32.944423   47.005857
   32.946301   47.007053
   32.948697   47.007659
   32.950616   47.007667
   32.953023   47.007081
   33.014680   46.981120
   33.019825   46.978266
   33.038740   46.998588
   33.062553   47.024964
   33.063925   47.025899
   33.065630   47.026517
   33.067521   47.026763
   33.069721   47.026554
   33.083780   47.043809
   33.085069   47.044760
   33.086697   47.045417
   33.088528   47.045724
   33.090775   47.045594
   33.146811   47.115663
   33.107611   47.130477
   33.090862   47.109381
   33.106763   47.103284
   33.108041   47.102291
   33.108846   47.101084
   33.109110   47.099767
   33.108809   47.098454
   33.078694   47.060230
   33.077087   47.058895
   33.075466   47.058226
   33.073636   47.057905
   33.071750   47.057961
   33.054196   47.064039
   33.032600   47.037451
   33.030926   47.036103
   33.027998   47.035209
   33.026067   47.035184
   33.023635   47.035755
   32.998033   47.046661
   32.994356   47.049209
   32.984944   47.052861
   32.955413   47.065350
   32.952627   47.066057
   32.924337   47.077789
   32.922875   47.078701
   32.919957   47.081873
   32.914323   47.082967
   32.911594   47.084358
   32.909212   47.086480
   32.904448   47.091900
   32.903388   47.095391
   32.903451   47.096994
   32.904708   47.100992
   32.905697   47.102913
   32.907903   47.105408
   32.906449   47.109795
   32.906044   47.113082
   32.901034   47.118480
   32.900413   47.119746
   32.900354   47.121083
   32.901151   47.122774
   32.903088   47.124261
   32.904191   47.127467
   32.905624   47.129191
   32.911746   47.133393
   32.913062   47.134689
   32.913220   47.135160
   32.911819   47.137850
   32.910952   47.140608
   32.910934   47.142734
   32.911735   47.144980
   32.913182   47.147107
   32.915838   47.149598
   32.918797   47.150967
   32.923818   47.152130
   32.927059   47.153410
   32.942636   47.166095
   32.944562   47.168800
   32.951360   47.181000
   32.954479   47.185880
   32.955256   47.191248
   32.956179   47.192388
   32.957533   47.193298
   32.960430   47.194108
   32.979808   47.195821
   32.985741   47.196634
   32.988193   47.196373
   32.990507   47.195388
   32.992321   47.195368
   32.993488   47.195578
   32.994651   47.198196
   32.995790   47.199374
   32.997655   47.200462
   33.000491   47.201157
   33.004349   47.201425
   33.006239   47.201246
   33.009693   47.200369
   33.012709   47.198542
   33.015923   47.195625
   33.018515   47.192621
   33.020105   47.189848
   33.020625   47.187852
   33.020281   47.185894
   33.019391   47.184328
   33.024092   47.183016
   33.026682   47.181600
   33.028882   47.182139
   33.028672   47.184547
   33.029240   47.187578
   33.030311   47.189692
   33.032620   47.191895
   33.037440   47.193812
   33.049475   47.195709
   33.050710   47.196578
   33.053024   47.197384
   33.055149   47.198659
   33.059598   47.202426
   33.059297   47.204967
   33.060210   47.206827
   33.059011   47.208901
   33.059017   47.211621
   33.057902   47.213331
   33.057592   47.214654
   33.057808   47.216406
   33.058707   47.217778
   33.058731   47.220527
   33.059672   47.222174
   33.061089   47.223465
   33.063177   47.224532
   33.065650   47.225050
   33.066776   47.226242
   33.068618   47.227235
   33.071515   47.227942
   33.074293   47.227854
   33.077078   47.227243
   33.080577   47.225452
   33.085345   47.227804
   33.087635   47.228308
   33.089861   47.228468
   33.093199   47.228243
   33.096765   47.228515
   33.099886   47.228123
   33.101887   47.227554
   33.104681   47.225961
   33.112318   47.218697
   33.113217   47.216246
   33.113059   47.214851
   33.111988   47.213133
   33.112736   47.212476
   33.115018   47.211415
   33.116514   47.209695
   33.118588   47.208558
   33.122175   47.208776
   33.126005   47.207902
   33.128438   47.207856
   33.130070   47.209292
   33.128609   47.210473
   33.123052   47.217257
   33.122170   47.218643
   33.120939   47.222101
   33.119932   47.228289
   33.120045   47.229934
   33.120804   47.232157
   33.122542   47.234030
   33.125461   47.235548
   33.131077   47.237458
   33.133880   47.237650
   33.135742   47.237464
   33.144322   47.234884
   33.145467   47.236496
   33.147709   47.238072
   33.154242   47.240198
   33.158001   47.240327
   33.160687   47.240921
   33.163127   47.240984
   33.167014   47.239914
   33.169000   47.238725
   33.170114   47.239950
   33.161776   47.245532
   33.155725   47.249096
   33.146629   47.255501
   33.131438   47.264647
   33.130104   47.266082
   33.129664   47.267330
   33.129748   47.268612
   33.130456   47.269973
   33.116662   47.273873
   33.114887   47.275030
   33.113500   47.276885
   33.107396   47.275965
   33.104540   47.275963
   33.102620   47.276310
   33.100460   47.277359
   33.098880   47.279353
   33.095681   47.289759
   33.095683   47.291548
   33.096685   47.293195
   33.098004   47.294182
   33.103416   47.296111
   33.104116   47.300765
   33.096466   47.320511
   33.096249   47.321881
   33.096779   47.323899
   33.098169   47.325457
   33.100337   47.326505
   33.126425   47.332334
   33.127475   47.334427
   33.129087   47.335796
   33.127860   47.340302
   33.125842   47.344707
   33.123142   47.357171
   33.116482   47.383084
   33.114977   47.384169
   33.043793   47.375460
   33.038626   47.375195
   33.036780   47.375520
   33.035148   47.376200
   33.033266   47.377953
   33.029484   47.390460
   33.028263   47.396060
   33.028879   47.398273
   33.023057   47.420501
   33.022789   47.423356
   33.023602   47.425092
   33.025557   47.426998
   33.027523   47.428063
   33.030237   47.428826
   33.027681   47.439126
   33.027711   47.442461
   33.028697   47.444141
   33.030557   47.445417
   33.032350   47.445983
   33.046486   47.447739
   33.045796   47.451406
   33.041337   47.465201
   33.040729   47.468319
   33.040951   47.469649
   33.041725   47.470876
   33.043688   47.472626
   33.045858   47.473667
   33.064238   47.479084
   33.068307   47.479739
   33.070856   47.479580
   33.073575   47.478815
   33.075566   47.477695
   33.076562   47.476550
   33.077033   47.475254
   33.077321   47.471128
   33.077681   47.417747
   33.130323   47.423680
   33.125935   47.442466
   33.125597   47.447302
   33.124583   47.450634
   33.124510   47.457515
   33.121037   47.471470
   33.119661   47.473276
   33.118949   47.475623
   33.118927   47.476946
   33.119551   47.478757
   33.120626   47.480090
   33.121414   47.482359
   33.122939   47.483767
   33.120037   47.493476
   33.116730   47.508274
   33.117718   47.510354
   33.121193   47.512765
   33.139865   47.517511
   33.136652   47.533483
   33.136477   47.536983
   33.097297   47.523399
   33.095471   47.523115
   33.093605   47.523202
   33.091316   47.523876
   33.089931   47.524748
   33.088440   47.526669
   33.087581   47.529591
   33.085591   47.539615
   33.082353   47.551798
   33.084685   47.571486
   33.086278   47.579713
   33.086926   47.580967
   33.088073   47.582036
   33.089620   47.582827
   33.091433   47.583272
   33.093353   47.583332
   33.166807   47.572977
   33.172776   47.571904
   33.177183   47.575109
   33.182836   47.577054
   33.184667   47.577147
   33.192497   47.576466
   33.197986   47.574444
   33.200755   47.573850
   33.207276   47.573944
   33.222743   47.577582
   33.225132   47.580571
   33.228082   47.582029
   33.232704   47.582291
   33.236391   47.581392
   33.239367   47.579515
   33.242938   47.574590
   33.244146   47.570980
   33.243954   47.567031
   33.242333   47.561908
   33.238312   47.555524
   33.233572   47.550747
   33.227134   47.547293
   33.228275   47.545139
   33.228565   47.540375
   33.228084   47.538109
   33.226147   47.535567
   33.229758   47.535659
   33.232027   47.535129
   33.233680   47.534294
   33.237357   47.535006
   33.240254   47.534837
   33.240990   47.535073
   33.244943   47.537147
   33.251911   47.539518
   33.256250   47.543394
   33.262341   47.546597
   33.265929   47.547842
   33.269435   47.549699
   33.272801   47.550663
   33.276571   47.550815
   33.281636   47.550336
   33.286872   47.549032
   33.291871   47.546464
   33.293779   47.544490
   33.294514   47.542551
   33.295239   47.533808
   33.294107   47.527576
   33.292423   47.523559
   33.290486   47.521666
   33.285533   47.518769
   33.287314   47.517381
   33.288384   47.515721
   33.291303   47.513112
   33.299924   47.507758
   33.300474   47.507546
   33.305597   47.507486
   33.309683   47.506759
   33.312996   47.505793
   33.314857   47.504602
   33.315887   47.503521
   33.317695   47.499753
   33.320005   47.496211
   33.321314   47.492864
   33.321401   47.490008
   33.330339   47.492398
   33.338694   47.495252
   33.324072   47.508354
   33.320360   47.516252
   33.316218   47.522950
   33.316241   47.524283
   33.316824   47.525553
   33.317916   47.526650
   33.319423   47.527480
   33.321847   47.528048
   33.325350   47.528264
   33.327451   47.527935
   33.338240   47.529269
   33.356442   47.531872
   33.375938   47.534184
   33.478491   47.547555
   33.467221   47.586876
   33.467708   47.589099
   33.469682   47.590885
   33.472653   47.591792
   33.508790   47.595934
   33.579192   47.604649
   33.581077   47.604687
   33.584003   47.603930
   33.585764   47.602694
   33.586723   47.601090
   33.589020   47.593213
   33.592340   47.592193
   33.594176   47.590447
   33.597599   47.578912
   33.604646   47.579695
   33.606478   47.579604
   33.609638   47.578495
   33.611267   47.577109
   33.611906   47.575840
   33.615573   47.562216
   33.615398   47.560177
   33.614749   47.558990
   33.613649   47.557975
   33.611602   47.556877
   33.604613   47.555608
   33.596232   47.554572
   33.598246   47.546614
   33.598954   47.545256
   33.598757   47.543035
   33.594552   47.538541
   33.593123   47.537674
   33.591387   47.537128
   33.589178   47.534966
   33.588589   47.533329
   33.587230   47.531860
   33.593725   47.507475
   33.597621   47.507911
   33.597199   47.510063
   33.597550   47.511764
   33.598792   47.513251
   33.601312   47.514488
   33.634774   47.518516
   33.636697   47.518563
   33.638556   47.518221
   33.641084   47.516878
   33.642250   47.515302
   33.648942   47.489715
   33.808226   47.506900
   33.882291   47.514229
   33.905440   47.516233
   33.911330   47.517311
   33.914425   47.517302
   33.920104   47.518159
   33.924662   47.519048
   33.929733   47.520510
   33.935011   47.520818
   33.938921   47.520652
   33.941549   47.520268
   33.943330   47.519660
   33.946403   47.517186
   33.947416   47.515373
   33.948405   47.509613
   33.951910   47.504564
   33.953145   47.502153
   33.956297   47.478069
   33.957874   47.462138
   33.977569   47.463842
   33.984103   47.463291
   33.986618   47.462641
   33.991001   47.463716
   33.997125   47.463990
   34.000780   47.463375
   34.004423   47.461649
   34.035733   47.469011
   34.072942   47.475032
   34.139865   47.481765
   34.144047   47.481058
   34.172542   47.473237
   34.203373   47.463294
   34.215554   47.459132
   34.222166   47.456449
   34.231846   47.451274
   34.239659   47.445294
   34.248211   47.436280
   34.250809   47.431769
   34.255806   47.420106
   34.255998   47.418260
   34.262831   47.396293
   34.262930   47.394905
   34.262416   47.393561
   34.258599   47.390233
   34.265937   47.364946
   34.271968   47.365647
   34.274463   47.365441
   34.277123   47.364300
   34.278712   47.362433
   34.288858   47.326769
   34.288837   47.324837
   34.287979   47.323123
   34.298860   47.279041
   34.301035   47.277687
   34.302482   47.276008
   34.303811   47.275372
   34.316146   47.285767
   34.324150   47.293005
   34.325744   47.293995
   34.328267   47.294743
   34.358062   47.298078
   34.360653   47.297621
   34.362301   47.296822
   34.372660   47.288386
   34.393903   47.290812
   34.392237   47.298432
   34.392816   47.300145
   34.393851   47.301257
   34.395306   47.302115
   34.397057   47.302643
   34.411730   47.304373
   34.407312   47.323613
   34.407659   47.324921
   34.408541   47.326102
   34.409882   47.327055
   34.411564   47.327696
   34.473760   47.334502
   34.488841   47.336419
   34.504309   47.339620
   34.513283   47.339502
   34.515121   47.339083
   34.517146   47.337984
   34.518569   47.335997
   34.519050   47.332438
   34.518101   47.330394
   34.515994   47.328928
   34.515781   47.328399
   34.517956   47.327190
   34.519132   47.326055
   34.520336   47.323513
   34.520507   47.321858
   34.522354   47.319776
   34.522518   47.317563
   34.521532   47.315920
   34.519707   47.314668
   34.517326   47.314000
   34.504782   47.313087
   34.487264   47.311156
   34.488002   47.308215
   34.487460   47.306389
   34.493033   47.285161
   34.517727   47.288060
   34.519608   47.287966
   34.521372   47.287503
   34.523660   47.286030
   34.524457   47.284846
   34.526348   47.278302
   34.528909   47.271793
   34.531698   47.270711
   34.532859   47.269694
   34.533554   47.268489
   34.536052   47.256433
   34.536580   47.250211
   34.536088   47.248958
   34.535103   47.247854
   34.533705   47.246989
   34.532010   47.246435
   34.523500   47.245729
   34.510050   47.243751
   34.498209   47.242737
   34.498389   47.240998
   34.497812   47.239474
   34.502185   47.217387
   34.503247   47.215569
   34.509195   47.189387
   34.510864   47.177950
   34.510672   47.176335
   34.514041   47.160608
   34.515083   47.159534
   34.515655   47.158224
   34.525186   47.109482
   34.553795   47.110488
   34.555660   47.110238
   34.557342   47.109626
   34.558699   47.108705
   34.559615   47.107552
   34.560376   47.102453
   34.559806   47.100291
   34.572877   47.029706
   34.591479   47.031313
   34.594540   47.030850
   34.596937   47.029454
   34.599370   47.024974
   34.605051   46.996800
   34.617330   46.997838
   34.619906   46.997516
   34.622093   46.996519
   34.623539   46.995008
   34.624506   46.991871
   34.626106   46.990587
   34.626903   46.989312
   34.629384   46.978225
   34.639907   46.978966
   34.642192   46.978764
   34.653376   46.981111
   34.680092   46.983623
   34.682046   46.983603
   34.683903   46.983183
   34.685497   46.982402
   34.687201   46.980498
   34.691148   46.961205
   34.736150   46.965878
   34.739253   46.965442
   34.741290   46.964389
   34.742349   46.963287
   34.742902   46.962020
   34.748541   46.934344
   34.751467   46.922125
   34.758182   46.884429
   34.804224   46.887039
   34.807275   46.886679
   34.809744   46.885386
   34.810706   46.884276
   34.811174   46.883023
   34.816608   46.848884
   34.819591   46.834437
   34.823004   46.829162
   34.822899   46.827380
   34.821808   46.825764
   34.820439   46.824815
   34.818108   46.824057
   34.765524   46.818865
   34.769427   46.799990
   34.774073   46.780451
   34.773618   46.779196
   34.772669   46.778081
   34.771303   46.777198
   34.769632   46.776620
   34.756741   46.776139
   34.757016   46.757943
   34.756744   46.756602
   34.755910   46.755376
   34.754061   46.754110
   34.752282   46.753547
   34.741467   46.752868
   34.741329   46.746214
   34.740212   46.744614
   34.737719   46.743230
   34.735864   46.742860
   34.665980   46.736439
   34.667798   46.726930
   34.666850   46.724800
   34.665095   46.723487
   34.662102   46.722669
   34.632549   46.720059
   34.637969   46.692736
   34.675664   46.696357
   34.682493   46.696364
   34.685287   46.695295
   34.687016   46.693437
   34.689271   46.682013
   34.695527   46.682635
   34.697202   46.683272
   34.700005   46.683673
   34.745346   46.687705
   34.747261   46.687679
   34.749084   46.687269
   34.750656   46.686511
   34.751843   46.685469
   34.752655   46.683797
   34.758006   46.655028
   34.762793   46.627517
   34.762599   46.625760
   34.761032   46.623852
   34.758354   46.622680
   34.720504   46.616736
   34.728562   46.586619
   34.748560   46.588708
   34.750473   46.588449
   34.752190   46.587810
   34.754215   46.586070
   34.755010   46.584458
   34.759659   46.563795
   34.760515   46.561941
   34.762250   46.554601
   34.871781   46.565728
   34.888406   46.567708
   34.892531   46.567498
   34.895271   46.566390
   34.896430   46.565333
   34.897096   46.564089
   34.901376   46.537226
   34.900656   46.535104
   34.898586   46.533461
   34.896274   46.532755
   34.892149   46.532380
   34.895773   46.512064
   34.945846   46.517022
   34.948359   46.516960
   34.951150   46.515973
   34.952957   46.514200
   34.954146   46.507716
   35.022508   46.483629
   35.054592   46.486389
   35.057731   46.485864
   35.059736   46.484726
   35.060730   46.483564
   35.061184   46.482251
   35.066169   46.441817
   35.068560   46.426354
   35.069161   46.424801
   35.073173   46.395484
   35.076031   46.379572
   35.075012   46.376148
   35.071886   46.373448
   35.068035   46.371844
   35.064128   46.371460
   35.068703   46.350403
   35.070846   46.336391
   35.071843   46.333695
   35.073450   46.332057
   35.074237   46.330382
   35.074039   46.328625
   35.072987   46.327151
   35.074011   46.324017
   35.076065   46.314054
   35.076264   46.311005
   35.077573   46.304682
   35.105977   46.306569
   35.129875   46.306464
   35.146336   46.302874
   35.171367   46.298735
   35.186709   46.295489
   35.229532   46.285486
   35.256232   46.275162
   35.269631   46.271187
   35.281229   46.268537
   35.282762   46.267722
   35.380086   46.197890
   35.471961   46.150103
   35.473284   46.149181
   35.474175   46.148036
   35.474514   46.145896
   35.468869   46.132402
   35.462680   46.120911
   35.455231   46.109458
   35.446906   46.098631
   35.437577   46.088203
   35.427285   46.078218
   35.416073   46.068719
   35.404290   46.059958
   35.396905   46.055127
   35.390381   46.042948
   35.383095   46.031753
   35.374770   46.020911
   35.365442   46.010468
   35.355150   46.000470
   35.343938   45.990958
   35.331855   45.981975
   35.319271   45.973754
   35.305621   45.965926
   35.291263   45.958734
   35.276259   45.952209
   35.260290   45.946248
   35.244572   45.941271
   35.228024   45.936905
   35.211101   45.933301
   35.193454   45.930415
   35.176419   45.928436
   35.161154   45.927360
   35.166132   45.919732
   35.172246   45.908494
   35.177428   45.896719
   35.179924   45.889374
   35.185913   45.884298
   35.196000   45.874537
   35.205385   45.864091
   35.213957   45.852972
   35.221277   45.841750
   35.227528   45.830217
   35.232573   45.818706
   35.236637   45.806703
   35.239919   45.792179
   35.239656   45.790384
   35.238401   45.788804
   35.236354   45.787689
   35.234491   45.787268
   34.977147   45.757645
   34.960915   45.752114
   34.958979   45.752079
   34.956536   45.752640
   34.941656   45.760297
   34.937894   45.761910
   34.907868   45.773176
   34.889479   45.780574
   34.873375   45.786337
   34.861655   45.789965
   34.796834   45.806219
   34.794284   45.807400
   34.792987   45.808850
   34.792557   45.810529
   34.795547   45.896965
   34.752919   45.904216
   34.750376   45.905078
   34.716297   45.928369
   34.697923   45.942232
   34.665425   45.964345
   34.651478   45.971673
   34.625563   45.982367
   34.603514   45.988926
   34.599091   45.989792
   34.581527   45.991144
   34.576095   45.991132
   34.569540   45.990577
   34.566566   45.989970
   34.563315   45.989894
   34.559594   45.987790
   34.555666   45.981871
   34.551513   45.977985
   34.550642   45.974820
   34.549832   45.973624
   34.532369   45.956427
   34.526176   45.951364
   34.515236   45.944644
   34.505774   45.939848
   34.499897   45.938138
   34.491639   45.937844
   34.485945   45.937966
   34.480038   45.938579
   34.474258   45.939825
   34.462835   45.943654
   34.455246   45.947597
   34.446016   45.953349
   34.438033   45.958888
   34.426283   45.968503
   34.418212   45.975906
   34.412075   45.982165
   34.407559   45.987432
   34.404726   45.993405
   34.404179   45.995545
   34.404102   45.998775
   34.401646   46.003710
   34.399500   46.006760
   34.342998   46.051383
   34.336638   46.053853
   34.329183   46.056009
   34.318396   46.063026
   34.267013   46.050614
   34.252094   46.048652
   34.246552   46.048782
   34.232007   46.051635
   34.181981   46.062654
   34.177469   46.064300
   34.174165   46.065898
   34.167944   46.069588
   34.164862   46.070896
   34.140657   46.083313
   34.130660   46.093949
   34.123764   46.099053
   34.118407   46.101873
   34.114784   46.103151
   34.079654   46.113032
   34.074494   46.113031
   34.072292   46.112561
   34.059414   46.106038
   34.054107   46.104722
   34.051067   46.104739
   33.995506   46.122341
   33.980623   46.131206
   33.968079   46.137438
   33.937287   46.150733
   33.893749   46.166845
   33.857362   46.190881
   33.846437   46.195335
   33.811060   46.199245
   33.797943   46.198535
   33.788085   46.196837
   33.775347   46.193508
   33.762753   46.188485
   33.753150   46.183643
   33.742015   46.180950
   33.738786   46.180800
   33.732209   46.182340
   33.696502   46.198849
   33.686777   46.200597
   33.667226   46.208037
   33.665002   46.209800
   33.660670   46.217903
   33.658925   46.218813
   33.648564   46.222663
   33.644568   46.224818
   33.622762   46.222642
   33.641645   46.148541
   33.646990   46.144632
   33.647757   46.142993
   33.647394   46.140862
   33.646096   46.139392
   33.641908   46.136988
   33.618130   46.130760
   33.592055   46.116142
   33.579274   46.101947
   33.597409   46.062623
   33.597581   46.060323
   33.596512   46.058628
   33.546044   46.009412
   33.544084   46.008154
   32.971590   45.869927
   32.873752   45.828956
   32.773324   45.822139
   32.752724   45.823209
   32.732139   45.825340
   32.712252   45.828388
   32.692710   45.832375
   32.674019   45.837163
   32.661419   45.841079
   32.638008   45.841101
   32.617707   45.842212
   32.597564   45.844286
   32.577670   45.847313
   32.557694   45.851375
   32.539003   45.856162
   32.526520   45.860039
   32.505764   45.860097
   32.485419   45.861209
   32.464835   45.863339
   32.444948   45.866385
   32.425406   45.870368
   32.406716   45.875154
   32.388123   45.880932
   32.375602   45.885558
   32.369051   45.885930
   32.348912   45.888023
   32.329026   45.891068
   32.309484   45.895050
   32.290379   45.899951
   32.272201   45.905609
   32.254219   45.912254
   32.245476   45.916032
   32.221156   45.918334
   32.200829   45.921433
   32.181288   45.925413
   32.162597   45.930193
   32.141311   45.936951
   32.118557   45.938079
   32.098414   45.940149
   32.078521   45.943171
   32.058971   45.947128
   32.039856   45.952004
   32.021264   45.957775
   32.003282   45.964413
   31.996231   45.967455
   31.984779   45.968648
   31.965326   45.971611
   31.945352   45.975664
   31.926248   45.980557
   31.908069   45.986208
   31.890605   45.992692
   31.883540   45.993092
   31.863841   45.995125
   31.843949   45.998143
   31.823975   46.002194
   31.802193   46.007916
   31.783822   46.008066
   31.763970   46.009160
   31.743388   46.011284
   31.723502   46.014322
   31.704385   46.018198
   31.685270   46.023067
   31.678782   46.025071
   31.654866   46.026206
   31.634723   46.028273
   31.614831   46.031289
   31.595282   46.035241
   31.576167   46.040109
   31.557575   46.045870
   31.539593   46.052498
   31.534268   46.054788
   31.513950   46.057786
   31.493938   46.061839
   31.474833   46.066724
   31.456254   46.072502
   31.438673   46.078991
   31.421386   46.086450
   31.404872   46.094709
   31.389210   46.103728
   31.374161   46.113687
   31.360439   46.124112
   31.348040   46.134912
   31.338763   46.144213
   31.331600   46.148355
   31.317195   46.157880
   31.303161   46.168517
   31.290497   46.179556
   31.279191   46.190905
   31.268789   46.203020
   31.259606   46.215595
   31.251525   46.228859
   31.245061   46.241888
   31.239767   46.255484
   31.235756   46.269600
   31.233260   46.283256
   31.232077   46.297302
   31.232283   46.311368
   31.233000   46.317743
   31.228937   46.331785
   31.226441   46.345425
   31.225258   46.359456
   31.225485   46.373817
   31.227060   46.387512
   31.229457   46.398713
   31.219212   46.398800
   31.198919   46.399921
   31.178750   46.402000
   31.157054   46.405385
   31.155347   46.405978
   31.153591   46.407249
   31.152667   46.408887
   31.152715   46.410645
   31.153391   46.411883
   31.155034   46.413224
   31.157292   46.414029
   31.159185   46.414205
END
END
