khmelnytskyi
1
   26.125835   49.898834
   26.127076   49.907682
   26.130703   49.911571
   26.131356   49.913015
   26.133864   49.915768
   26.137212   49.917894
   26.146727   49.920802
   26.149922   49.922545
   26.155219   49.923888
   26.156161   49.924539
   26.151268   49.930936
   26.146440   49.942482
   26.138498   49.958554
   26.137854   49.960449
   26.138034   49.962192
   26.141052   49.965442
   26.141078   49.965928
   26.137901   49.967329
   26.135797   49.969133
   26.134992   49.971600
   26.135562   49.973667
   26.140095   49.979978
   26.141571   49.980838
   26.143359   49.981390
   26.148232   49.981467
   26.149953   49.984839
   26.151999   49.986545
   26.156872   49.988443
   26.160516   49.988941
   26.160513   49.990317
   26.161436   49.991978
   26.163310   49.993300
   26.164819   49.995153
   26.168172   49.997377
   26.170627   49.998145
   26.173162   49.998417
   26.187681   49.996543
   26.191365   49.996402
   26.196056   49.996763
   26.198492   50.006518
   26.201613   50.012468
   26.199333   50.013525
   26.197837   50.015195
   26.196696   50.015773
   26.188420   50.016082
   26.185005   50.016998
   26.182597   50.018229
   26.178808   50.018945
   26.175476   50.019049
   26.173127   50.019766
   26.171722   50.020650
   26.169594   50.022923
   26.168956   50.025148
   26.169200   50.026462
   26.170844   50.028374
   26.175174   50.030920
   26.179192   50.032091
   26.186751   50.035006
   26.191423   50.037899
   26.195100   50.039244
   26.197428   50.040660
   26.200053   50.041217
   26.202686   50.041078
   26.206763   50.041606
   26.210127   50.041399
   26.210637   50.046711
   26.211607   50.048548
   26.212866   50.049603
   26.214543   50.050372
   26.218249   50.050824
   26.216094   50.052182
   26.215082   50.053307
   26.214604   50.054574
   26.214569   50.057422
   26.209164   50.060444
   26.204881   50.060490
   26.202125   50.061097
   26.196213   50.063987
   26.194338   50.065876
   26.193979   50.067216
   26.194245   50.068565
   26.196172   50.071782
   26.198350   50.074422
   26.194707   50.076665
   26.193595   50.078679
   26.193658   50.081052
   26.197530   50.089869
   26.195532   50.093623
   26.193507   50.095129
   26.192548   50.096303
   26.192154   50.098054
   26.192818   50.099769
   26.194965   50.101468
   26.197662   50.102632
   26.199619   50.103005
   26.206157   50.103085
   26.258083   50.106345
   26.260637   50.106803
   26.267219   50.106951
   26.266891   50.110796
   26.260772   50.113057
   26.241384   50.123495
   26.231408   50.127269
   26.229372   50.128441
   26.228182   50.130034
   26.228146   50.132242
   26.232503   50.138611
   26.225903   50.137995
   26.221430   50.138354
   26.219025   50.139033
   26.217572   50.139903
   26.216552   50.141005
   26.216049   50.142251
   26.216093   50.143733
   26.206564   50.148807
   26.202726   50.152032
   26.201863   50.153476
   26.201609   50.154836
   26.203025   50.159262
   26.205527   50.161331
   26.209073   50.162361
   26.209408   50.164547
   26.211328   50.166399
   26.205867   50.171802
   26.204592   50.173838
   26.204621   50.175931
   26.206481   50.178347
   26.208607   50.179522
   26.213328   50.181265
   26.214770   50.182521
   26.216784   50.183519
   26.218711   50.184046
   26.220790   50.184173
   26.222833   50.183888
   26.224652   50.183218
   26.229273   50.180187
   26.231706   50.177804
   26.234563   50.177287
   26.237318   50.178537
   26.239997   50.178843
   26.241890   50.180271
   26.249618   50.183319
   26.255348   50.184517
   26.259961   50.184980
   26.263567   50.184371
   26.266142   50.182964
   26.268140   50.183089
   26.271937   50.185304
   26.274714   50.186151
   26.276766   50.187161
   26.283263   50.188640
   26.285810   50.190695
   26.287904   50.191608
   26.289340   50.193827
   26.292516   50.196392
   26.295048   50.197412
   26.297746   50.200330
   26.297759   50.200805
   26.295237   50.203486
   26.294816   50.205570
   26.295884   50.208073
   26.298339   50.211756
   26.299054   50.214657
   26.300502   50.216151
   26.302875   50.217253
   26.304772   50.218637
   26.306555   50.219274
   26.308708   50.219545
   26.310415   50.221985
   26.312619   50.223214
   26.315110   50.225264
   26.316890   50.227118
   26.316585   50.230769
   26.317686   50.233011
   26.318774   50.234116
   26.320886   50.235186
   26.325077   50.235944
   26.329171   50.238673
   26.335609   50.240008
   26.337313   50.241263
   26.341958   50.243401
   26.345658   50.244038
   26.347110   50.245258
   26.349660   50.246208
   26.350988   50.247383
   26.352985   50.248267
   26.353204   50.250737
   26.353945   50.252022
   26.356380   50.254373
   26.358444   50.255531
   26.364838   50.257079
   26.371948   50.257408
   26.374526   50.257199
   26.374732   50.258855
   26.376011   50.260670
   26.376512   50.262284
   26.378360   50.264097
   26.380648   50.265005
   26.384408   50.265714
   26.386783   50.267003
   26.390636   50.267921
   26.392984   50.269228
   26.395878   50.269893
   26.399329   50.269963
   26.410399   50.267694
   26.412538   50.266949
   26.414963   50.267624
   26.416960   50.267730
   26.419537   50.267287
   26.421530   50.266328
   26.424734   50.267151
   26.426790   50.267283
   26.429424   50.266922
   26.432445   50.265936
   26.435086   50.266525
   26.438348   50.266274
   26.443114   50.268165
   26.449708   50.268824
   26.450656   50.270535
   26.452597   50.271936
   26.455964   50.273355
   26.459207   50.273698
   26.462265   50.273102
   26.464499   50.271918
   26.468528   50.266964
   26.469249   50.265326
   26.472105   50.267949
   26.476332   50.269408
   26.482357   50.270194
   26.486006   50.270048
   26.489894   50.270336
   26.490895   50.271877
   26.489161   50.274645
   26.489071   50.276441
   26.492497   50.282454
   26.494841   50.284181
   26.496491   50.287322
   26.498052   50.288757
   26.500333   50.289694
   26.503605   50.289959
   26.510181   50.298479
   26.516278   50.301275
   26.514257   50.303240
   26.513891   50.304523
   26.514100   50.305821
   26.521005   50.313484
   26.523840   50.315072
   26.525720   50.315485
   26.527702   50.315531
   26.530791   50.314800
   26.532836   50.313716
   26.534625   50.312226
   26.536048   50.312483
   26.538394   50.313226
   26.536055   50.317065
   26.535694   50.318360
   26.536386   50.320492
   26.538000   50.321888
   26.540303   50.322779
   26.542951   50.323032
   26.548604   50.321921
   26.553068   50.321778
   26.546350   50.328493
   26.545818   50.330212
   26.546609   50.332334
   26.547796   50.333400
   26.550009   50.334390
   26.568854   50.338771
   26.572580   50.340047
   26.581017   50.344406
   26.581007   50.346178
   26.581492   50.347503
   26.587417   50.356355
   26.595319   50.369789
   26.596756   50.371278
   26.598350   50.372095
   26.600237   50.372576
   26.621586   50.375575
   26.643434   50.370677
   26.652751   50.393552
   26.654100   50.395092
   26.656877   50.396351
   26.659554   50.396638
   26.669076   50.395253
   26.677171   50.394922
   26.683553   50.415309
   26.685612   50.421175
   26.686605   50.422457
   26.689075   50.423939
   26.692319   50.424488
   26.698262   50.423839
   26.707040   50.422383
   26.708488   50.426465
   26.708402   50.438485
   26.708789   50.441339
   26.711384   50.447971
   26.713755   50.449562
   26.716317   50.450177
   26.719043   50.450095
   26.724445   50.448856
   26.726714   50.448856
   26.730397   50.449455
   26.730842   50.450751
   26.723314   50.454240
   26.721895   50.455816
   26.721526   50.457170
   26.722026   50.458969
   26.724707   50.462832
   26.727238   50.464659
   26.727725   50.469285
   26.729102   50.472477
   26.728794   50.474072
   26.727469   50.476382
   26.727630   50.478158
   26.728355   50.479449
   26.730751   50.481102
   26.734343   50.481832
   26.735971   50.482789
   26.737880   50.483346
   26.745383   50.484107
   26.747382   50.483874
   26.749192   50.483270
   26.751043   50.481984
   26.751855   50.480766
   26.753779   50.472905
   26.753675   50.471450
   26.752059   50.467286
   26.756162   50.467635
   26.754928   50.469264
   26.753174   50.476848
   26.753816   50.478580
   26.755429   50.480015
   26.757765   50.480931
   26.760787   50.481307
   26.760104   50.484393
   26.760320   50.485768
   26.758775   50.487160
   26.758199   50.488431
   26.758547   50.490615
   26.762208   50.494132
   26.764295   50.495340
   26.766942   50.495911
   26.772865   50.495768
   26.773173   50.496085
   26.771908   50.497007
   26.771044   50.498191
   26.770763   50.499925
   26.771972   50.503788
   26.773000   50.504936
   26.774494   50.505839
   26.777655   50.506599
   26.782123   50.506240
   26.786535   50.507615
   26.788501   50.507939
   26.790843   50.507941
   26.802379   50.506578
   26.811711   50.507117
   26.812603   50.508972
   26.812290   50.514380
   26.812957   50.516080
   26.816874   50.521383
   26.818146   50.522394
   26.820113   50.523270
   26.821496   50.525566
   26.823388   50.526806
   26.825859   50.527483
   26.835294   50.527115
   26.838558   50.526350
   26.840844   50.524646
   26.844202   50.518978
   26.852912   50.515400
   26.853440   50.516706
   26.854825   50.518095
   26.867471   50.525250
   26.872105   50.532470
   26.872502   50.535201
   26.873837   50.536923
   26.882766   50.542009
   26.895413   50.549903
   26.898592   50.550806
   26.901372   50.550722
   26.903300   50.550188
   26.910940   50.546352
   26.913886   50.543991
   26.919330   50.541553
   26.927848   50.540140
   26.934430   50.537779
   26.939092   50.535563
   26.942244   50.534810
   26.945421   50.535053
   26.951652   50.534282
   26.968153   50.533596
   26.979324   50.530122
   26.982017   50.535257
   26.983587   50.536692
   27.001473   50.542689
   27.011203   50.560818
   27.012790   50.562283
   27.014489   50.563051
   27.017146   50.563505
   27.019202   50.563377
   27.026647   50.561655
   27.035848   50.560075
   27.043812   50.557983
   27.052424   50.556331
   27.064442   50.555400
   27.058789   50.559857
   27.058067   50.561089
   27.058002   50.562843
   27.058963   50.564481
   27.061502   50.566799
   27.062164   50.568437
   27.063667   50.570445
   27.065279   50.576644
   27.066862   50.578026
   27.069795   50.579321
   27.073949   50.586381
   27.075926   50.587542
   27.078426   50.588131
   27.081081   50.588060
   27.083002   50.587549
   27.083844   50.589377
   27.084960   50.590464
   27.087093   50.591504
   27.089004   50.591893
   27.091006   50.591908
   27.094604   50.591359
   27.100616   50.589519
   27.102314   50.592677
   27.104832   50.594350
   27.105986   50.596306
   27.107341   50.597275
   27.109696   50.598096
   27.113346   50.598160
   27.115225   50.598892
   27.117194   50.599226
   27.120531   50.598919
   27.122283   50.598242
   27.124012   50.596881
   27.125136   50.593916
   27.128517   50.593737
   27.130390   50.593253
   27.134698   50.591606
   27.136851   50.589971
   27.137601   50.587870
   27.136954   50.585870
   27.137103   50.584274
   27.136285   50.582311
   27.136477   50.580105
   27.133545   50.573647
   27.132241   50.572311
   27.136823   50.565434
   27.143089   50.567089
   27.153718   50.567620
   27.164239   50.566784
   27.166733   50.566253
   27.172540   50.565743
   27.187733   50.565833
   27.196713   50.566597
   27.198658   50.566372
   27.200426   50.565796
   27.202600   50.564197
   27.203368   50.562554
   27.203273   50.553753
   27.205084   50.551899
   27.205894   50.550410
   27.207728   50.548790
   27.210200   50.545385
   27.213673   50.535073
   27.229046   50.531107
   27.230735   50.530309
   27.231984   50.529218
   27.232799   50.526987
   27.239681   50.524879
   27.253338   50.519707
   27.262420   50.517016
   27.264116   50.516106
   27.269686   50.510656
   27.269973   50.508809
   27.268214   50.499634
   27.268596   50.498323
   27.270827   50.497230
   27.272433   50.495680
   27.276071   50.495254
   27.280617   50.497191
   27.282608   50.497703
   27.290492   50.498346
   27.293082   50.498215
   27.294852   50.498792
   27.296879   50.499036
   27.299581   50.498739
   27.304436   50.497169
   27.306105   50.496400
   27.307358   50.495345
   27.308246   50.493212
   27.307572   50.490946
   27.307391   50.487719
   27.306210   50.485352
   27.302659   50.481733
   27.297835   50.475503
   27.296670   50.471236
   27.297395   50.468693
   27.298352   50.460110
   27.297873   50.456629
   27.295165   50.452099
   27.265528   50.422685
   27.261012   50.408693
   27.260623   50.405828
   27.261538   50.404334
   27.261533   50.402534
   27.260455   50.400877
   27.257582   50.398625
   27.256347   50.395189
   27.299240   50.380923
   27.301624   50.380876
   27.303515   50.380421
   27.315543   50.376110
   27.317859   50.374374
   27.324773   50.371647
   27.326754   50.370471
   27.328038   50.368460
   27.327725   50.365630
   27.329206   50.363597
   27.329835   50.361483
   27.329648   50.355562
   27.329993   50.353291
   27.326225   50.347766
   27.326189   50.346359
   27.325291   50.344507
   27.319913   50.339782
   27.320939   50.337100
   27.323557   50.337659
   27.329226   50.337953
   27.337398   50.336926
   27.341319   50.337949
   27.343942   50.338174
   27.352747   50.336150
   27.354991   50.335981
   27.359233   50.336535
   27.362753   50.337532
   27.366042   50.337298
   27.368316   50.336402
   27.370282   50.334367
   27.372914   50.332851
   27.416702   50.312616
   27.421134   50.310861
   27.422483   50.309812
   27.423289   50.308547
   27.423525   50.303595
   27.425270   50.302688
   27.426413   50.301558
   27.427050   50.299805
   27.426807   50.298460
   27.424206   50.294041
   27.423075   50.292977
   27.420253   50.291422
   27.417223   50.290686
   27.415623   50.288841
   27.409774   50.285644
   27.414053   50.283878
   27.419120   50.279522
   27.421327   50.280533
   27.424603   50.280905
   27.445226   50.279949
   27.447225   50.279658
   27.449006   50.278996
   27.450776   50.277643
   27.451653   50.275501
   27.450270   50.265111
   27.462568   50.264103
   27.465100   50.263354
   27.466921   50.262067
   27.482039   50.261674
   27.485259   50.260763
   27.486900   50.259567
   27.487930   50.258020
   27.487729   50.252679
   27.494986   50.242248
   27.523067   50.230248
   27.536978   50.247926
   27.539271   50.249621
   27.542533   50.250377
   27.556929   50.250276
   27.558287   50.251214
   27.559979   50.251851
   27.560230   50.254196
   27.561803   50.256173
   27.564629   50.257419
   27.568503   50.257852
   27.571559   50.261478
   27.573048   50.262376
   27.574870   50.262953
   27.584859   50.263319
   27.598332   50.263028
   27.600835   50.262488
   27.602849   50.261376
   27.604079   50.259851
   27.605993   50.249777
   27.609032   50.242608
   27.605385   50.228941
   27.603750   50.227055
   27.601280   50.225966
   27.600550   50.220426
   27.603383   50.220451
   27.607079   50.219901
   27.611009   50.218674
   27.613821   50.216701
   27.614506   50.215511
   27.614742   50.213107
   27.615405   50.211795
   27.616970   50.202593
   27.620147   50.204073
   27.623519   50.204275
   27.626633   50.203407
   27.629131   50.201305
   27.629712   50.199450
   27.628950   50.190390
   27.629422   50.189030
   27.629488   50.183266
   27.628921   50.177851
   27.629566   50.176271
   27.629471   50.175117
   27.633886   50.175759
   27.629595   50.188110
   27.630293   50.190257
   27.632454   50.191936
   27.634253   50.192547
   27.660890   50.198451
   27.663633   50.198442
   27.667397   50.197624
   27.669192   50.196979
   27.670992   50.195644
   27.671863   50.193957
   27.671821   50.192619
   27.671182   50.191347
   27.669603   50.190007
   27.670433   50.179631
   27.669664   50.177468
   27.670643   50.174222
   27.670132   50.172040
   27.675955   50.168795
   27.678075   50.166846
   27.684292   50.162763
   27.685168   50.160652
   27.684254   50.156452
   27.683058   50.154981
   27.681654   50.153985
   27.679826   50.153212
   27.677506   50.152723
   27.676242   50.151671
   27.671632   50.149410
   27.669157   50.148891
   27.662515   50.148329
   27.657671   50.148406
   27.657188   50.146180
   27.656439   50.144917
   27.655150   50.143855
   27.653439   50.143091
   27.650769   50.142648
   27.646565   50.142978
   27.643057   50.142676
   27.639952   50.141529
   27.640007   50.140009
   27.639071   50.138242
   27.639663   50.136466
   27.639483   50.135148
   27.636725   50.131230
   27.633948   50.129758
   27.633504   50.125550
   27.636539   50.124700
   27.638120   50.123837
   27.639243   50.122708
   27.639819   50.121328
   27.642609   50.120741
   27.644722   50.119553
   27.646089   50.117467
   27.645951   50.114368
   27.645331   50.113071
   27.643648   50.111638
   27.641243   50.110750
   27.638105   50.110571
   27.636040   50.108635
   27.632933   50.107673
   27.634801   50.107001
   27.636545   50.105697
   27.637411   50.104060
   27.637272   50.102329
   27.633154   50.097212
   27.625821   50.089133
   27.670206   50.081904
   27.672061   50.081432
   27.674072   50.080306
   27.675290   50.078769
   27.675529   50.077007
   27.677705   50.075631
   27.678792   50.073612
   27.681318   50.071740
   27.681951   50.069435
   27.684211   50.066405
   27.685306   50.064202
   27.685499   50.059624
   27.684750   50.058363
   27.683297   50.057134
   27.687264   50.051832
   27.689066   50.047776
   27.688454   50.045218
   27.685673   50.042450
   27.687352   50.039989
   27.686956   50.037735
   27.688213   50.035428
   27.687927   50.033049
   27.687208   50.031829
   27.685985   50.030795
   27.684361   50.030032
   27.681754   50.029343
   27.680674   50.027419
   27.677249   50.024414
   27.675398   50.022195
   27.673217   50.021163
   27.670598   50.020754
   27.657625   50.021235
   27.654395   50.021904
   27.652408   50.023120
   27.651292   50.024742
   27.651489   50.029289
   27.647124   50.030260
   27.644855   50.031507
   27.622420   50.009276
   27.617576   50.003337
   27.615678   50.002016
   27.613813   50.001406
   27.611057   50.001207
   27.609033   50.001534
   27.595446   50.006912
   27.589059   50.009903
   27.584970   50.011059
   27.581116   50.012683
   27.577813   50.013535
   27.573514   50.013830
   27.571220   50.014434
   27.568515   50.013830
   27.566484   50.011258
   27.564703   50.010009
   27.560687   50.008124
   27.556795   50.007011
   27.553330   50.006693
   27.553777   50.003348
   27.554647   50.001789
   27.555564   49.997528
   27.559127   49.991949
   27.560250   49.990332
   27.566248   49.987066
   27.568144   49.985191
   27.570441   49.968863
   27.572999   49.960363
   27.576187   49.959004
   27.577673   49.957694
   27.582084   49.950222
   27.582541   49.948500
   27.581965   49.946793
   27.580901   49.945677
   27.575815   49.943317
   27.569968   49.942086
   27.566757   49.942087
   27.563856   49.941430
   27.564093   49.935244
   27.563376   49.933532
   27.561706   49.932133
   27.559980   49.931421
   27.554912   49.930828
   27.556250   49.911206
   27.558078   49.912832
   27.561475   49.913913
   27.568124   49.914400
   27.571865   49.914063
   27.579090   49.911355
   27.580667   49.909862
   27.581636   49.907712
   27.588837   49.904826
   27.591600   49.902536
   27.592706   49.901118
   27.597786   49.899892
   27.599993   49.898895
   27.601454   49.897424
   27.602019   49.895430
   27.607555   49.895389
   27.616887   49.898130
   27.619500   49.898367
   27.628324   49.896485
   27.630943   49.895074
   27.632221   49.893018
   27.631849   49.890813
   27.619339   49.877103
   27.621522   49.875599
   27.622588   49.874017
   27.622144   49.866775
   27.624561   49.865823
   27.626580   49.864491
   27.628641   49.862543
   27.629358   49.861307
   27.629264   49.859120
   27.627253   49.855429
   27.632182   49.853845
   27.633499   49.852828
   27.634306   49.851603
   27.634490   49.848491
   27.633510   49.845304
   27.632167   49.843740
   27.632581   49.841975
   27.631834   49.839890
   27.634969   49.838230
   27.636249   49.836265
   27.636285   49.834411
   27.638703   49.832552
   27.641604   49.830904
   27.643107   49.828415
   27.644645   49.827435
   27.645693   49.826264
   27.646454   49.824624
   27.646440   49.823396
   27.648006   49.822037
   27.648752   49.819829
   27.650469   49.817405
   27.650652   49.816113
   27.650039   49.813421
   27.651339   49.810967
   27.654394   49.810039
   27.656482   49.808497
   27.658455   49.807807
   27.660606   49.806480
   27.662077   49.810093
   27.663814   49.811394
   27.666169   49.812175
   27.668138   49.812347
   27.670100   49.812147
   27.685172   49.809106
   27.688746   49.808132
   27.691395   49.811457
   27.693208   49.812701
   27.696249   49.813494
   27.700473   49.813274
   27.704029   49.812321
   27.711600   49.811827
   27.716324   49.811067
   27.719668   49.810190
   27.729406   49.804232
   27.731856   49.803127
   27.733295   49.801712
   27.733929   49.800038
   27.733845   49.798688
   27.730126   49.792046
   27.730622   49.790351
   27.730050   49.788532
   27.725658   49.783969
   27.722707   49.782273
   27.720765   49.780364
   27.718677   49.779344
   27.714943   49.778410
   27.713801   49.777558
   27.713309   49.777098
   27.711679   49.771992
   27.735495   49.766805
   27.744834   49.762392
   27.746214   49.761919
   27.749582   49.761543
   27.752259   49.760381
   27.754744   49.759857
   27.756538   49.759132
   27.758257   49.757685
   27.758958   49.755888
   27.761357   49.754912
   27.763431   49.752909
   27.764146   49.750895
   27.764070   49.748397
   27.767943   49.746691
   27.770627   49.744554
   27.773502   49.743064
   27.777643   49.738275
   27.780472   49.737144
   27.784474   49.734034
   27.785258   49.733069
   27.788800   49.732665
   27.790886   49.732050
   27.796694   49.732876
   27.800794   49.733049
   27.805336   49.732774
   27.812471   49.737425
   27.815506   49.738448
   27.818235   49.738714
   27.820906   49.738261
   27.823936   49.736852
   27.826584   49.736164
   27.840069   49.733886
   27.842267   49.732811
   27.843652   49.731263
   27.843925   49.729035
   27.842535   49.726994
   27.815158   49.708400
   27.818427   49.703551
   27.818780   49.702263
   27.818089   49.700143
   27.815823   49.698318
   27.812763   49.697487
   27.793304   49.695541
   27.786147   49.695527
   27.770234   49.693584
   27.773563   49.675182
   27.773112   49.668674
   27.798201   49.656946
   27.815736   49.648117
   27.817848   49.646414
   27.818426   49.645146
   27.818327   49.643527
   27.819013   49.641364
   27.819190   49.617971
   27.818753   49.616703
   27.817353   49.615236
   27.815803   49.614423
   27.812854   49.613675
   27.810865   49.613547
   27.808572   49.613872
   27.804130   49.615831
   27.799359   49.608332
   27.800590   49.606635
   27.800695   49.604920
   27.800123   49.603684
   27.798246   49.601530
   27.790425   49.594424
   27.788947   49.593445
   27.785718   49.592590
   27.781746   49.592838
   27.779634   49.592681
   27.778873   49.588416
   27.778151   49.587159
   27.771086   49.582221
   27.767773   49.581084
   27.767217   49.578891
   27.765493   49.576190
   27.767224   49.575687
   27.777739   49.571022
   27.781686   49.568246
   27.791898   49.563549
   27.794118   49.561823
   27.799544   49.555131
   27.800498   49.552572
   27.800065   49.550535
   27.797987   49.548030
   27.792863   49.544751
   27.796949   49.541984
   27.800687   49.535931
   27.801056   49.530673
   27.800516   49.528995
   27.798485   49.527076
   27.796974   49.526176
   27.795126   49.525605
   27.792786   49.525412
   27.789805   49.523115
   27.787705   49.522035
   27.786472   49.519976
   27.784050   49.518208
   27.780725   49.516732
   27.775763   49.515800
   27.773763   49.515878
   27.771882   49.516327
   27.769724   49.517368
   27.768636   49.518313
   27.766824   49.518640
   27.764264   49.519649
   27.762594   49.521031
   27.761769   49.523440
   27.759111   49.526234
   27.755687   49.527563
   27.754133   49.526365
   27.752365   49.525601
   27.750325   49.525222
   27.747642   49.525159
   27.747840   49.521912
   27.747481   49.520283
   27.745821   49.518178
   27.745174   49.516541
   27.743440   49.514944
   27.742588   49.511001
   27.743541   49.509330
   27.743528   49.506539
   27.744687   49.503982
   27.744164   49.501689
   27.744693   49.500217
   27.744352   49.497251
   27.752018   49.497256
   27.755274   49.496705
   27.759014   49.497661
   27.761614   49.497823
   27.764121   49.497344
   27.769912   49.494916
   27.786886   49.496616
   27.789485   49.496553
   27.792618   49.495614
   27.794743   49.494408
   27.796185   49.492870
   27.798183   49.489618
   27.797986   49.487087
   27.796429   49.485068
   27.793573   49.483794
   27.789532   49.483318
   27.783359   49.473070
   27.781814   49.471637
   27.779551   49.470695
   27.776911   49.470387
   27.774921   49.470604
   27.768324   49.472238
   27.767996   49.471906
   27.764542   49.461164
   27.762586   49.459474
   27.760151   49.458592
   27.752867   49.450198
   27.755041   49.445578
   27.765825   49.447757
   27.767892   49.447705
   27.769843   49.447256
   27.772453   49.445662
   27.780471   49.447344
   27.783092   49.447392
   27.784972   49.447004
   27.786609   49.446285
   27.787869   49.445294
   27.789020   49.443524
   27.792033   49.442556
   27.794208   49.440471
   27.797667   49.441377
   27.802798   49.443594
   27.804839   49.443827
   27.806894   49.443655
   27.809338   49.442825
   27.812528   49.440448
   27.816790   49.439204
   27.818862   49.438135
   27.820170   49.436636
   27.820565   49.434781
   27.823212   49.433293
   27.824421   49.431637
   27.828705   49.427886
   27.842504   49.435015
   27.844317   49.435558
   27.846291   49.435740
   27.848890   49.435401
   27.851104   49.434447
   27.856775   49.430065
   27.858038   49.428592
   27.858323   49.426497
   27.856367   49.419093
   27.844856   49.408915
   27.845152   49.407128
   27.844654   49.405811
   27.839556   49.399616
   27.840585   49.391080
   27.839686   49.388931
   27.838415   49.387872
   27.836724   49.387104
   27.834762   49.386696
   27.829724   49.386479
   27.828084   49.385297
   27.826330   49.384658
   27.818408   49.384096
   27.818332   49.383444
   27.820613   49.382661
   27.822030   49.381658
   27.822925   49.380424
   27.823262   49.378984
   27.830370   49.379013
   27.832806   49.378259
   27.834617   49.376952
   27.835593   49.374851
   27.836055   49.368384
   27.835614   49.366249
   27.833767   49.364417
   27.831465   49.363500
   27.819275   49.362853
   27.820366   49.359220
   27.828585   49.356671
   27.831453   49.355211
   27.838004   49.354903
   27.840051   49.354448
   27.842132   49.353550
   27.846935   49.350620
   27.848236   49.349231
   27.849899   49.346351
   27.850544   49.344390
   27.852185   49.342415
   27.855588   49.339396
   27.856584   49.337733
   27.862528   49.332364
   27.864466   49.329813
   27.864734   49.326776
   27.862385   49.323530
   27.863500   49.322579
   27.864241   49.321320
   27.864142   49.318999
   27.862114   49.314625
   27.859133   49.311554
   27.866954   49.301825
   27.868012   49.299356
   27.869238   49.295037
   27.869481   49.292282
   27.867193   49.285147
   27.868924   49.283157
   27.869349   49.279235
   27.867856   49.276250
   27.865894   49.274591
   27.863057   49.273486
   27.859989   49.273347
   27.859139   49.272459
   27.857290   49.266728
   27.861549   49.265526
   27.863658   49.263881
   27.864271   49.262648
   27.864323   49.261352
   27.862979   49.257882
   27.863867   49.256832
   27.869892   49.253817
   27.872627   49.253972
   27.874643   49.253633
   27.876412   49.252916
   27.877776   49.251888
   27.878756   49.250196
   27.879409   49.245891
   27.878966   49.243483
   27.877819   49.240907
   27.876044   49.238974
   27.873723   49.237988
   27.870500   49.237700
   27.865411   49.236453
   27.869819   49.226675
   27.869514   49.224357
   27.871752   49.222280
   27.873075   49.218603
   27.876696   49.217972
   27.878416   49.218811
   27.880414   49.219286
   27.882987   49.219517
   27.885114   49.219277
   27.888335   49.218311
   27.892689   49.216319
   27.895308   49.214452
   27.898389   49.213275
   27.899639   49.212186
   27.901306   49.209359
   27.905218   49.188161
   27.905145   49.185804
   27.904270   49.184154
   27.901820   49.182287
   27.896267   49.180890
   27.893782   49.180667
   27.892890   49.180231
   27.891671   49.178960
   27.890069   49.178096
   27.888328   49.175399
   27.886469   49.174235
   27.881418   49.172593
   27.874773   49.171291
   27.871487   49.171019
   27.868456   49.169470
   27.863704   49.168179
   27.861761   49.167364
   27.859401   49.166686
   27.855533   49.166151
   27.849928   49.166607
   27.847156   49.167753
   27.845433   49.169492
   27.844095   49.172511
   27.842587   49.174561
   27.835223   49.175678
   27.833728   49.174348
   27.831125   49.173234
   27.828540   49.172909
   27.825563   49.173169
   27.823688   49.173761
   27.822241   49.174636
   27.819658   49.175018
   27.817977   49.175684
   27.816307   49.176999
   27.814799   49.179182
   27.813393   49.180204
   27.812291   49.182016
   27.809877   49.181800
   27.809347   49.178555
   27.807770   49.175308
   27.806713   49.174140
   27.803054   49.171747
   27.800619   49.170908
   27.798566   49.170727
   27.796167   49.171041
   27.792465   49.170039
   27.790025   49.170026
   27.788171   49.170391
   27.787078   49.168983
   27.785718   49.167979
   27.781537   49.166763
   27.781134   49.164499
   27.778158   49.161173
   27.775265   49.160044
   27.771767   49.159960
   27.768187   49.156851
   27.766483   49.156182
   27.764485   49.155855
   27.764966   49.154750
   27.764987   49.153110
   27.763623   49.150991
   27.758082   49.147951
   27.756700   49.145902
   27.754957   49.144233
   27.748885   49.140533
   27.748608   49.138384
   27.746859   49.136030
   27.744789   49.134960
   27.741286   49.134135
   27.737489   49.134595
   27.735492   49.135487
   27.734059   49.136737
   27.730626   49.137667
   27.722484   49.138836
   27.719575   49.139971
   27.718025   49.139732
   27.715364   49.138583
   27.713290   49.138317
   27.707659   49.135913
   27.698725   49.134223
   27.696733   49.134182
   27.694806   49.134513
   27.692164   49.135807
   27.690549   49.137834
   27.688152   49.137282
   27.686135   49.137218
   27.684176   49.137538
   27.682441   49.138214
   27.679497   49.139871
   27.677151   49.142295
   27.668499   49.147782
   27.658122   49.152434
   27.653301   49.154249
   27.646056   49.159198
   27.644252   49.161620
   27.640421   49.162562
   27.639880   49.162326
   27.639010   49.160661
   27.636396   49.158503
   27.634778   49.157727
   27.632887   49.157288
   27.628476   49.157392
   27.624203   49.158407
   27.621762   49.157220
   27.619171   49.156761
   27.615100   49.156628
   27.611976   49.157120
   27.607920   49.156686
   27.605245   49.156988
   27.601682   49.153119
   27.602549   49.147474
   27.601838   49.144629
   27.600658   49.142890
   27.600392   49.141394
   27.602828   49.138999
   27.604323   49.136281
   27.604656   49.134552
   27.604230   49.133271
   27.602829   49.131788
   27.586156   49.121125
   27.582432   49.118380
   27.580764   49.117581
   27.578808   49.117140
   27.573990   49.116843
   27.569945   49.117352
   27.544254   49.127135
   27.541672   49.128877
   27.538873   49.123246
   27.537162   49.121892
   27.534790   49.121066
   27.532791   49.120873
   27.530792   49.121065
   27.525641   49.122755
   27.523044   49.122248
   27.520435   49.122418
   27.512841   49.125428
   27.510337   49.123514
   27.507733   49.122506
   27.505474   49.122060
   27.502005   49.120471
   27.511285   49.112777
   27.512225   49.111146
   27.512047   49.108935
   27.501127   49.095042
   27.497071   49.091200
   27.494223   49.089559
   27.488211   49.086891
   27.499938   49.080417
   27.502789   49.079153
   27.505878   49.076773
   27.509057   49.072911
   27.509928   49.071299
   27.509522   49.068451
   27.507685   49.066587
   27.505445   49.065604
   27.503587   49.065206
   27.500413   49.065177
   27.497409   49.064616
   27.491889   49.064457
   27.484544   49.065162
   27.480232   49.066028
   27.474487   49.066118
   27.469655   49.066775
   27.465016   49.066064
   27.457679   49.066408
   27.455419   49.065750
   27.451872   49.065557
   27.449314   49.065949
   27.446771   49.067016
   27.445258   49.066684
   27.445582   49.065005
   27.445175   49.063737
   27.444233   49.062596
   27.442835   49.061676
   27.439816   49.060830
   27.434024   49.060546
   27.433578   49.058315
   27.434089   49.052650
   27.433426   49.050963
   27.432310   49.049874
   27.430175   49.048833
   27.427595   49.048396
   27.425599   49.048508
   27.421426   49.049415
   27.416939   49.039760
   27.414604   49.033329
   27.413191   49.030985
   27.412242   49.027421
   27.406137   49.021734
   27.403399   49.018624
   27.403118   49.017272
   27.402088   49.015793
   27.400684   49.014760
   27.398240   49.013910
   27.390720   49.006855
   27.402098   49.001609
   27.403888   49.000329
   27.404810   48.998703
   27.404844   48.997399
   27.404009   48.995752
   27.401819   48.993944
   27.401887   48.992223
   27.405122   48.988930
   27.406516   48.985314
   27.408219   48.982409
   27.410059   48.981508
   27.412122   48.979893
   27.414162   48.977184
   27.420688   48.975791
   27.422964   48.974780
   27.424172   48.973681
   27.424914   48.971949
   27.424754   48.970599
   27.422158   48.965536
   27.419028   48.961116
   27.423843   48.955875
   27.424282   48.954140
   27.423677   48.952427
   27.422118   48.950995
   27.418321   48.949331
   27.415821   48.948705
   27.413621   48.947682
   27.410305   48.947169
   27.409461   48.945183
   27.407086   48.943380
   27.405317   48.940743
   27.403345   48.939503
   27.400325   48.938495
   27.402084   48.936588
   27.402791   48.934962
   27.402251   48.932647
   27.400855   48.930980
   27.401197   48.929466
   27.403260   48.927487
   27.404042   48.925430
   27.400506   48.901346
   27.406988   48.894091
   27.417970   48.886659
   27.421012   48.884119
   27.422094   48.882005
   27.423320   48.856990
   27.422434   48.850158
   27.421914   48.848808
   27.424540   48.841855
   27.424653   48.840544
   27.424186   48.839270
   27.424639   48.837581
   27.424418   48.836301
   27.423655   48.835114
   27.421355   48.833593
   27.424860   48.824260
   27.424711   48.821763
   27.425243   48.819554
   27.424990   48.818313
   27.422386   48.813825
   27.421131   48.812785
   27.419042   48.811906
   27.419605   48.811141
   27.421755   48.809915
   27.422830   48.808783
   27.426264   48.802159
   27.430234   48.801441
   27.431944   48.800765
   27.433922   48.799029
   27.434464   48.797327
   27.433991   48.793680
   27.433338   48.792429
   27.429470   48.789489
   27.427070   48.788493
   27.425899   48.787304
   27.425386   48.785174
   27.419346   48.775809
   27.418203   48.774786
   27.414439   48.772665
   27.416077   48.771068
   27.416562   48.769302
   27.416239   48.767128
   27.414723   48.765096
   27.411589   48.762818
   27.409104   48.762024
   27.407034   48.761885
   27.399211   48.762632
   27.398118   48.762525
   27.398060   48.762221
   27.398054   48.761147
   27.399273   48.758583
   27.401190   48.758149
   27.403576   48.757072
   27.409098   48.751637
   27.411309   48.750802
   27.414262   48.748511
   27.417385   48.747013
   27.418427   48.745849
   27.418941   48.744509
   27.422199   48.742523
   27.423689   48.740493
   27.423498   48.738245
   27.421061   48.735643
   27.418815   48.734520
   27.415874   48.734073
   27.414572   48.733559
   27.413432   48.732348
   27.406573   48.727829
   27.411820   48.716853
   27.417951   48.706927
   27.420087   48.705150
   27.420928   48.703962
   27.421174   48.700772
   27.420730   48.697660
   27.418034   48.692709
   27.416274   48.691342
   27.414392   48.690648
   27.414937   48.688728
   27.414428   48.686397
   27.413865   48.685092
   27.412737   48.683956
   27.409894   48.682700
   27.405948   48.682124
   27.403948   48.682252
   27.401285   48.683120
   27.400292   48.683169
   27.398478   48.680357
   27.396555   48.678785
   27.396244   48.677933
   27.396934   48.674254
   27.395353   48.671707
   27.395080   48.670377
   27.396230   48.668064
   27.395781   48.664685
   27.396249   48.663294
   27.396095   48.661669
   27.393570   48.657285
   27.392238   48.653475
   27.390052   48.651526
   27.386753   48.649561
   27.385535   48.644268
   27.385525   48.642112
   27.384230   48.638124
   27.377800   48.626871
   27.375557   48.625216
   27.373057   48.624522
   27.371018   48.624448
   27.361895   48.625433
   27.357530   48.625097
   27.356324   48.624564
   27.347563   48.611869
   27.344905   48.605745
   27.340650   48.602223
   27.337987   48.600493
   27.332187   48.598494
   27.324451   48.597401
   27.320243   48.597131
   27.315802   48.597123
   27.312275   48.597492
   27.305307   48.598813
   27.301346   48.600160
   27.297874   48.602115
   27.294462   48.604859
   27.289369   48.610496
   27.284853   48.614115
   27.281143   48.616484
   27.275969   48.617871
   27.271118   48.618560
   27.265059   48.619127
   27.261163   48.618739
   27.252289   48.612173
   27.251224   48.610754
   27.251098   48.607939
   27.251539   48.605568
   27.258821   48.598066
   27.265028   48.588954
   27.266928   48.582894
   27.266484   48.579125
   27.263572   48.570745
   27.259085   48.566582
   27.254651   48.564599
   27.246127   48.563184
   27.238165   48.562953
   27.232077   48.562319
   27.227274   48.562709
   27.222965   48.563637
   27.206660   48.568226
   27.183810   48.576769
   27.177371   48.578391
   27.174152   48.578748
   27.171533   48.578622
   27.161390   48.577146
   27.150208   48.574416
   27.145307   48.572835
   27.142338   48.570997
   27.139974   48.567930
   27.134878   48.563534
   27.125761   48.559261
   27.122989   48.557657
   27.119395   48.556184
   27.114175   48.554558
   27.109017   48.553241
   27.103291   48.552594
   27.087698   48.552805
   27.066226   48.555619
   27.056761   48.558088
   27.046672   48.560165
   27.037733   48.561186
   27.007756   48.566233
   26.994219   48.569188
   26.988538   48.572248
   26.985021   48.575406
   26.983277   48.578870
   26.982339   48.582367
   26.982445   48.586370
   26.981796   48.586466
   26.980021   48.581526
   26.977239   48.577239
   26.971583   48.573327
   26.969402   48.572379
   26.964009   48.571295
   26.951115   48.570721
   26.943895   48.571064
   26.930449   48.573320
   26.928609   48.572975
   26.926617   48.571733
   26.923017   48.568569
   26.913252   48.552690
   26.907711   48.546813
   26.899312   48.542493
   26.890181   48.539220
   26.879843   48.537962
   26.875276   48.538198
   26.863263   48.540609
   26.848882   48.546355
   26.840604   48.551376
   26.835160   48.555409
   26.825317   48.565997
   26.814624   48.578564
   26.813440   48.580826
   26.812739   48.586307
   26.813550   48.590166
   26.814876   48.593445
   26.818288   48.599317
   26.818591   48.600983
   26.817577   48.603664
   26.815850   48.605041
   26.813880   48.605621
   26.809531   48.605884
   26.807342   48.605652
   26.803218   48.604944
   26.797197   48.602778
   26.788433   48.597125
   26.786428   48.595345
   26.785607   48.593513
   26.785463   48.590732
   26.787328   48.587079
   26.790286   48.583276
   26.796677   48.577278
   26.800213   48.572483
   26.801463   48.567430
   26.801344   48.564211
   26.800141   48.559643
   26.793552   48.550378
   26.790285   48.546879
   26.788770   48.545921
   26.782797   48.543700
   26.777422   48.542658
   26.771350   48.542172
   26.763540   48.542976
   26.759532   48.544303
   26.756407   48.546182
   26.753804   48.548655
   26.749807   48.553775
   26.747692   48.540856
   26.745747   48.537530
   26.742590   48.535001
   26.738825   48.532640
   26.733714   48.530172
   26.723263   48.527057
   26.719078   48.526534
   26.714213   48.527052
   26.707766   48.528498
   26.699135   48.531255
   26.690143   48.535862
   26.680835   48.541266
   26.683157   48.538117
   26.684581   48.535158
   26.685721   48.528741
   26.687131   48.525968
   26.691057   48.522900
   26.702965   48.516805
   26.710170   48.512458
   26.715246   48.507857
   26.717994   48.504139
   26.719987   48.500169
   26.720346   48.496669
   26.719115   48.492027
   26.715438   48.487804
   26.711011   48.485323
   26.707217   48.483715
   26.702289   48.482176
   26.698502   48.481462
   26.691668   48.481104
   26.673391   48.480870
   26.667404   48.481241
   26.658489   48.483130
   26.648878   48.487465
   26.639142   48.494804
   26.632032   48.500752
   26.628201   48.503058
   26.623372   48.504362
   26.618793   48.503792
   26.616148   48.502848
   26.613869   48.501581
   26.614321   48.498066
   26.617020   48.493070
   26.621931   48.486786
   26.625097   48.481960
   26.631383   48.471202
   26.632826   48.466869
   26.632688   48.463334
   26.631485   48.460359
   26.628230   48.456205
   26.624268   48.452893
   26.616172   48.449332
   26.610767   48.447974
   26.603487   48.446887
   26.597123   48.446567
   26.585759   48.446991
   26.570387   48.448503
   26.566225   48.449235
   26.559839   48.451329
   26.554222   48.452480
   26.551356   48.453804
   26.548513   48.455892
   26.547695   48.457180
   26.546696   48.461767
   26.539082   48.469673
   26.532098   48.480399
   26.527911   48.486010
   26.520168   48.494329
   26.503923   48.510599
   26.497328   48.518461
   26.495348   48.522324
   26.494057   48.527044
   26.492623   48.530301
   26.487373   48.538504
   26.485844   48.540233
   26.484144   48.541249
   26.479608   48.542271
   26.474115   48.541979
   26.454259   48.536835
   26.446345   48.534318
   26.443026   48.533973
   26.440436   48.534466
   26.438332   48.535571
   26.436397   48.538438
   26.435611   48.541796
   26.433148   48.542995
   26.431952   48.543112
   26.427760   48.539305
   26.423256   48.537179
   26.419856   48.536398
   26.415869   48.536149
   26.409613   48.536782
   26.405700   48.537955
   26.403672   48.538933
   26.399260   48.542092
   26.394671   48.547324
   26.391849   48.549577
   26.390658   48.553055
   26.388029   48.554680
   26.385833   48.556696
   26.385953   48.553467
   26.385482   48.550088
   26.384164   48.546595
   26.381453   48.543211
   26.377270   48.540262
   26.372535   48.538290
   26.367568   48.537193
   26.359906   48.537095
   26.357293   48.537712
   26.355548   48.538568
   26.352061   48.541519
   26.351137   48.543460
   26.351066   48.545060
   26.351585   48.546619
   26.353140   48.548762
   26.359607   48.552887
   26.359721   48.554395
   26.358595   48.556188
   26.354700   48.555800
   26.351483   48.555931
   26.346740   48.556859
   26.340063   48.558878
   26.336343   48.560641
   26.332621   48.563439
   26.330714   48.566158
   26.329785   48.568308
   26.329705   48.570371
   26.331459   48.573768
   26.334106   48.576297
   26.336608   48.577822
   26.344721   48.580663
   26.342574   48.580901
   26.340790   48.581458
   26.337012   48.583132
   26.335311   48.584478
   26.334393   48.586197
   26.334302   48.587604
   26.336311   48.591738
   26.330502   48.592412
   26.324614   48.594780
   26.320819   48.595736
   26.318442   48.597271
   26.317100   48.599281
   26.317121   48.602008
   26.318802   48.604685
   26.319810   48.608010
   26.317700   48.609053
   26.315479   48.611035
   26.309708   48.611171
   26.303862   48.612210
   26.302133   48.612935
   26.300372   48.614359
   26.297716   48.615752
   26.295329   48.616009
   26.293447   48.616667
   26.287493   48.620138
   26.286121   48.622569
   26.285728   48.625139
   26.286232   48.627408
   26.288020   48.629409
   26.291964   48.631442
   26.288751   48.632649
   26.286696   48.634809
   26.282022   48.637831
   26.280961   48.640237
   26.281549   48.642486
   26.279194   48.642501
   26.276974   48.643030
   26.274095   48.642667
   26.270406   48.643075
   26.266037   48.645485
   26.262602   48.646909
   26.260505   48.648900
   26.259993   48.650994
   26.260705   48.652734
   26.263000   48.654784
   26.266580   48.656315
   26.268813   48.658984
   26.269215   48.660348
   26.270252   48.661663
   26.269903   48.663867
   26.271032   48.665915
   26.268723   48.666402
   26.261849   48.663768
   26.259268   48.663224
   26.255461   48.663473
   26.253279   48.662970
   26.251309   48.662938
   26.244768   48.663895
   26.242034   48.665227
   26.239776   48.667577
   26.238253   48.668385
   26.236611   48.669954
   26.235898   48.671677
   26.235989   48.673268
   26.235189   48.674969
   26.234890   48.677041
   26.224048   48.678552
   26.219908   48.680102
   26.215746   48.683256
   26.213304   48.686837
   26.212653   48.688756
   26.212825   48.691192
   26.214357   48.693657
   26.216874   48.695842
   26.220694   48.697372
   26.223413   48.697644
   26.227770   48.697320
   26.224797   48.701140
   26.223973   48.704909
   26.222283   48.707000
   26.222157   48.709594
   26.223165   48.712263
   26.224857   48.713827
   26.226334   48.716134
   26.232516   48.720118
   26.230920   48.721568
   26.229519   48.723581
   26.228856   48.725978
   26.229023   48.728117
   26.230770   48.731100
   26.236896   48.734935
   26.237509   48.736768
   26.229681   48.739198
   26.227665   48.740567
   26.226506   48.742299
   26.222038   48.743755
   26.218652   48.746256
   26.217122   48.748277
   26.216476   48.750115
   26.216799   48.753359
   26.218532   48.756272
   26.220302   48.757833
   26.224259   48.759526
   26.223278   48.761021
   26.222914   48.762526
   26.223459   48.765366
   26.225182   48.767152
   26.227495   48.768304
   26.229466   48.769795
   26.231708   48.772061
   26.231523   48.773853
   26.230108   48.775283
   26.225358   48.775272
   26.222893   48.774707
   26.219968   48.774565
   26.214689   48.775372
   26.211429   48.776290
   26.209742   48.777133
   26.205952   48.780365
   26.204766   48.782039
   26.204195   48.786816
   26.202655   48.788868
   26.200432   48.796905
   26.201205   48.799477
   26.203825   48.801480
   26.205012   48.803665
   26.207042   48.805057
   26.209934   48.806062
   26.212106   48.806420
   26.214729   48.806487
   26.218855   48.805900
   26.217604   48.809020
   26.217906   48.812728
   26.218914   48.814659
   26.221356   48.816983
   26.223346   48.818089
   26.226146   48.818856
   26.225874   48.825052
   26.224371   48.826204
   26.219857   48.827359
   26.215912   48.829221
   26.213044   48.832180
   26.211791   48.835017
   26.211719   48.836917
   26.213153   48.840371
   26.215352   48.843811
   26.215455   48.845375
   26.212503   48.847527
   26.206333   48.848470
   26.202222   48.849874
   26.198412   48.851740
   26.196704   48.853222
   26.195748   48.855038
   26.193257   48.857690
   26.192826   48.860836
   26.193308   48.862660
   26.194397   48.864019
   26.195843   48.865024
   26.200202   48.866817
   26.204501   48.867370
   26.200680   48.871170
   26.199499   48.873111
   26.198948   48.875316
   26.199815   48.877477
   26.201217   48.878704
   26.202611   48.879396
   26.204692   48.881782
   26.203954   48.884029
   26.199006   48.888852
   26.198113   48.890374
   26.197028   48.895642
   26.198507   48.899104
   26.194818   48.899180
   26.191524   48.900082
   26.187966   48.902083
   26.184657   48.904682
   26.180678   48.907179
   26.178647   48.909819
   26.176994   48.915363
   26.177436   48.918317
   26.178577   48.920078
   26.179829   48.921149
   26.181695   48.922041
   26.183514   48.922464
   26.189303   48.922555
   26.188126   48.924062
   26.186938   48.926727
   26.187504   48.929306
   26.187240   48.934394
   26.187977   48.935893
   26.189886   48.937539
   26.191370   48.939987
   26.195871   48.943692
   26.196552   48.945231
   26.197990   48.946610
   26.198466   48.949605
   26.200549   48.951701
   26.201240   48.954812
   26.196499   48.956637
   26.185407   48.958771
   26.176308   48.962391
   26.172851   48.964992
   26.170601   48.967996
   26.170127   48.970087
   26.170704   48.974819
   26.172826   48.978224
   26.175331   48.979940
   26.176983   48.981558
   26.179332   48.982524
   26.183783   48.983289
   26.186702   48.983171
   26.198191   48.979262
   26.199236   48.979464
   26.201652   48.981196
   26.202602   48.982637
   26.204400   48.983977
   26.192557   48.983317
   26.185886   48.983655
   26.181739   48.984527
   26.177739   48.986327
   26.171829   48.991023
   26.169417   48.994480
   26.169386   48.996599
   26.171709   48.999993
   26.173983   49.002036
   26.176970   49.004057
   26.181371   49.005954
   26.191619   49.008172
   26.195532   49.008331
   26.197589   49.007980
   26.199387   49.007237
   26.201111   49.006117
   26.202192   49.004787
   26.207737   49.004886
   26.208516   49.006255
   26.208585   49.009936
   26.204816   49.011030
   26.199894   49.013710
   26.198299   49.015574
   26.196597   49.016738
   26.192444   49.020810
   26.190934   49.024261
   26.190929   49.026248
   26.191958   49.028336
   26.192362   49.030395
   26.193256   49.031571
   26.196025   49.033216
   26.198433   49.033838
   26.200919   49.034018
   26.192842   49.039335
   26.190722   49.039416
   26.188289   49.040103
   26.186093   49.041309
   26.183224   49.043643
   26.177530   49.051008
   26.176548   49.055112
   26.176642   49.057931
   26.178089   49.060330
   26.180638   49.061801
   26.182116   49.063591
   26.184137   49.065239
   26.193354   49.069084
   26.190328   49.070143
   26.187646   49.072110
   26.185823   49.075150
   26.185092   49.078232
   26.185791   49.079727
   26.187372   49.081173
   26.188114   49.082554
   26.190787   49.084427
   26.189449   49.087252
   26.189407   49.090623
   26.189815   49.091966
   26.190819   49.093167
   26.192247   49.094112
   26.195252   49.097960
   26.197475   49.099319
   26.197658   49.100312
   26.196987   49.104201
   26.196143   49.106191
   26.196272   49.107517
   26.197048   49.108862
   26.195867   49.111167
   26.194575   49.112124
   26.193232   49.113948
   26.192668   49.117457
   26.191783   49.118712
   26.191612   49.120681
   26.190939   49.122114
   26.191052   49.123664
   26.189479   49.125586
   26.188762   49.127398
   26.188801   49.130346
   26.189628   49.131622
   26.190808   49.132572
   26.189208   49.133547
   26.188223   49.134689
   26.187781   49.135967
   26.187846   49.138279
   26.191267   49.144904
   26.188951   49.147682
   26.187241   49.148703
   26.185435   49.150708
   26.183077   49.158005
   26.183569   49.160080
   26.185298   49.161913
   26.186365   49.163887
   26.187958   49.165191
   26.190348   49.166284
   26.187123   49.167232
   26.184519   49.168748
   26.182648   49.171154
   26.182110   49.172464
   26.182174   49.174164
   26.182822   49.175407
   26.187677   49.179024
   26.188484   49.180070
   26.188440   49.181494
   26.184450   49.185578
   26.178753   49.190380
   26.176626   49.193737
   26.176298   49.195937
   26.178386   49.202335
   26.180547   49.204078
   26.181377   49.205791
   26.183632   49.207950
   26.184675   49.210411
   26.186370   49.211894
   26.187321   49.213326
   26.185941   49.214522
   26.185181   49.216446
   26.183896   49.218051
   26.183627   49.219400
   26.184209   49.221741
   26.185128   49.222976
   26.186572   49.223975
   26.189781   49.225273
   26.192637   49.225597
   26.192010   49.227441
   26.192499   49.229155
   26.194975   49.232112
   26.196768   49.233297
   26.194410   49.236283
   26.193827   49.241885
   26.195099   49.245030
   26.197285   49.247319
   26.198684   49.248230
   26.201409   49.249307
   26.204624   49.250200
   26.207330   49.250565
   26.216322   49.249860
   26.221251   49.250766
   26.237588   49.249778
   26.235582   49.251652
   26.234786   49.253315
   26.234827   49.255022
   26.235745   49.256776
   26.236838   49.257779
   26.239309   49.259080
   26.241799   49.261196
   26.244249   49.261955
   26.246660   49.262127
   26.249709   49.263834
   26.247437   49.265354
   26.244764   49.266073
   26.242222   49.267159
   26.238582   49.269275
   26.235070   49.272989
   26.234404   49.275478
   26.234728   49.278026
   26.236399   49.280681
   26.239977   49.282570
   26.243207   49.283038
   26.242247   49.284950
   26.242278   49.287628
   26.243916   49.289759
   26.247418   49.291604
   26.246079   49.292330
   26.242780   49.295138
   26.240573   49.297457
   26.239255   49.299776
   26.239259   49.301078
   26.240028   49.302777
   26.243198   49.305577
   26.245055   49.306713
   26.245224   49.307662
   26.243798   49.309788
   26.239865   49.313342
   26.230334   49.317615
   26.224930   49.320456
   26.220998   49.323539
   26.219811   49.325360
   26.219211   49.327427
   26.218633   49.330967
   26.218371   49.339892
   26.218769   49.342726
   26.220416   49.346636
   26.220653   49.350669
   26.221428   49.351919
   26.223130   49.353287
   26.224861   49.354194
   26.226526   49.354639
   26.225147   49.357558
   26.225615   49.359751
   26.227707   49.361908
   26.230733   49.363270
   26.232789   49.365544
   26.233902   49.367506
   26.217626   49.372285
   26.214056   49.374981
   26.212614   49.377649
   26.212874   49.379861
   26.214800   49.382037
   26.218019   49.383528
   26.222255   49.384277
   26.221637   49.386623
   26.222749   49.391021
   26.224263   49.393067
   26.223766   49.394949
   26.224948   49.398426
   26.221098   49.399427
   26.218452   49.401343
   26.217812   49.402659
   26.217565   49.405288
   26.218816   49.407928
   26.216553   49.410385
   26.214480   49.411417
   26.213169   49.412796
   26.209882   49.412664
   26.206527   49.413553
   26.202846   49.416050
   26.201595   49.417722
   26.197408   49.418986
   26.193857   49.420974
   26.190911   49.423185
   26.186876   49.428486
   26.186478   49.430669
   26.188196   49.435602
   26.189043   49.436973
   26.191225   49.438864
   26.189529   49.440583
   26.189135   49.441897
   26.189397   49.443592
   26.186971   49.447704
   26.183406   49.451144
   26.182266   49.453865
   26.182240   49.460819
   26.182860   49.464266
   26.182819   49.473057
   26.181785   49.475785
   26.181618   49.478472
   26.175435   49.483755
   26.171776   49.484990
   26.169516   49.486179
   26.164491   49.487096
   26.161177   49.488546
   26.159603   49.490045
   26.158201   49.492848
   26.154051   49.495120
   26.152004   49.497068
   26.150475   49.497917
   26.148984   49.499770
   26.146570   49.501401
   26.145344   49.503193
   26.143569   49.503959
   26.139517   49.504773
   26.137034   49.506153
   26.135837   49.507768
   26.135407   49.509664
   26.136130   49.511792
   26.139324   49.516141
   26.143435   49.518523
   26.145512   49.520346
   26.149416   49.521785
   26.149266   49.523519
   26.149737   49.524945
   26.150827   49.526301
   26.150958   49.529297
   26.152314   49.533813
   26.155363   49.536603
   26.160599   49.539792
   26.162615   49.542084
   26.164557   49.543485
   26.165038   49.545058
   26.168364   49.550176
   26.171077   49.552719
   26.174440   49.554027
   26.180038   49.554596
   26.181683   49.555214
   26.182493   49.557460
   26.183916   49.558886
   26.186769   49.560566
   26.190303   49.561283
   26.194402   49.560878
   26.196810   49.560089
   26.199994   49.560221
   26.203975   49.559405
   26.207350   49.557442
   26.208626   49.555934
   26.209010   49.553847
   26.208138   49.551953
   26.210741   49.553437
   26.209601   49.555173
   26.209666   49.557171
   26.207954   49.558509
   26.206962   49.560397
   26.206601   49.564143
   26.207819   49.567018
   26.206829   49.568508
   26.206511   49.570411
   26.205649   49.571691
   26.202823   49.573208
   26.201631   49.574220
   26.200457   49.576710
   26.201589   49.581460
   26.202824   49.584038
   26.204693   49.585918
   26.207258   49.586890
   26.207647   49.588813
   26.203598   49.590822
   26.202393   49.591735
   26.200566   49.593614
   26.197606   49.598157
   26.196079   49.599476
   26.192394   49.606241
   26.192566   49.609780
   26.194132   49.611993
   26.196452   49.613467
   26.200037   49.614238
   26.203369   49.614367
   26.204623   49.615917
   26.208440   49.618335
   26.209410   49.620699
   26.210806   49.622254
   26.213741   49.624041
   26.219175   49.626120
   26.219828   49.627903
   26.222104   49.630504
   26.221918   49.632057
   26.222784   49.633836
   26.223068   49.635939
   26.225036   49.638748
   26.227329   49.640304
   26.229760   49.641045
   26.237569   49.642301
   26.240235   49.642383
   26.242750   49.641799
   26.252307   49.638093
   26.256843   49.640389
   26.258092   49.642331
   26.252789   49.650702
   26.253014   49.654231
   26.253841   49.655863
   26.255718   49.657326
   26.262401   49.659367
   26.262061   49.660568
   26.262368   49.664558
   26.262021   49.667206
   26.260363   49.668913
   26.252469   49.672680
   26.243465   49.679378
   26.238021   49.689262
   26.236351   49.690502
   26.235331   49.691035
   26.223720   49.694363
   26.217616   49.699744
   26.206394   49.703304
   26.200267   49.704488
   26.195775   49.704754
   26.190260   49.705978
   26.188346   49.707162
   26.186480   49.709223
   26.184437   49.712555
   26.184052   49.714818
   26.185004   49.716537
   26.186364   49.717586
   26.189674   49.719138
   26.200006   49.729156
   26.206124   49.732703
   26.207502   49.736723
   26.208931   49.738335
   26.213332   49.740164
   26.223678   49.742146
   26.227297   49.743435
   26.235476   49.747143
   26.235060   49.756572
   26.234561   49.757968
   26.232487   49.760707
   26.230366   49.766440
   26.229413   49.770930
   26.229692   49.772741
   26.227400   49.773140
   26.225510   49.773824
   26.220234   49.777147
   26.218917   49.778692
   26.218696   49.780890
   26.221240   49.785651
   26.220684   49.787121
   26.220785   49.790047
   26.220090   49.791916
   26.219141   49.792759
   26.215213   49.794561
   26.212609   49.797268
   26.212290   49.798912
   26.213360   49.804310
   26.211552   49.806018
   26.206749   49.807245
   26.204634   49.808383
   26.203360   49.809968
   26.203056   49.811592
   26.199734   49.815714
   26.197123   49.815301
   26.193582   49.815618
   26.191084   49.816565
   26.189353   49.817770
   26.188025   49.820105
   26.188015   49.821949
   26.186545   49.823204
   26.185828   49.824413
   26.185758   49.826227
   26.183067   49.828723
   26.182675   49.830087
   26.182845   49.831646
   26.180256   49.833042
   26.178217   49.835174
   26.177622   49.837867
   26.178388   49.839828
   26.177476   49.842792
   26.175262   49.843247
   26.173532   49.844017
   26.172234   49.845090
   26.171486   49.846368
   26.171734   49.849038
   26.173620   49.851685
   26.176311   49.853335
   26.191688   49.865928
   26.190150   49.867464
   26.184795   49.869783
   26.179779   49.870630
   26.177165   49.870643
   26.173118   49.871306
   26.170922   49.872022
   26.163201   49.875522
   26.158269   49.878220
   26.156513   49.879979
   26.155362   49.883802
   26.155872   49.886183
   26.155133   49.886637
   26.151076   49.887432
   26.147989   49.888651
   26.145884   49.890019
   26.143108   49.890947
   26.137701   49.890690
   26.134419   49.891504
   26.127192   49.895759
   26.126191   49.896992
   26.125835   49.898834
END
END
