kirovohrad
1
   29.742665   48.288561
   29.743771   48.299877
   29.744918   48.301879
   29.746760   48.303083
   29.749781   48.303807
   29.755411   48.303546
   29.759173   48.302875
   29.760757   48.303856
   29.763672   48.304917
   29.761876   48.306623
   29.761265   48.307908
   29.761250   48.309257
   29.762149   48.310946
   29.765099   48.312936
   29.765535   48.314773
   29.767480   48.316606
   29.775810   48.319194
   29.777591   48.330909
   29.778991   48.332888
   29.781020   48.334005
   29.783534   48.334523
   29.793164   48.334018
   29.794990   48.335701
   29.797662   48.336639
   29.796222   48.339614
   29.796153   48.342493
   29.794343   48.346058
   29.793817   48.349020
   29.794223   48.350327
   29.795184   48.351499
   29.798201   48.352995
   29.797768   48.355412
   29.798120   48.357026
   29.795764   48.358224
   29.794309   48.359772
   29.791666   48.360045
   29.789253   48.360679
   29.786303   48.362060
   29.784241   48.363713
   29.782753   48.365452
   29.780575   48.367201
   29.779816   48.368462
   29.779735   48.370268
   29.781116   48.372320
   29.808762   48.388045
   29.862954   48.417672
   29.859583   48.420474
   29.857818   48.424779
   29.858181   48.427198
   29.859141   48.428397
   29.860590   48.429351
   29.862398   48.429975
   29.882452   48.434478
   29.885172   48.434519
   29.887948   48.433720
   29.900634   48.439214
   29.901717   48.441401
   29.904066   48.442877
   29.924116   48.447409
   29.926830   48.447445
   29.929631   48.446727
   29.931899   48.448100
   29.948299   48.454138
   29.948233   48.455330
   29.947276   48.456531
   29.946655   48.458204
   29.946432   48.461981
   29.947162   48.463670
   29.948802   48.465045
   29.952267   48.466527
   29.955741   48.466773
   29.959180   48.466233
   29.961617   48.473560
   29.963050   48.474989
   29.964596   48.475767
   29.967694   48.476325
   29.993310   48.476744
   29.993074   48.478442
   29.993875   48.480168
   29.995625   48.481547
   29.998043   48.482359
   30.039916   48.486589
   30.051109   48.487191
   30.053893   48.486420
   30.057953   48.483780
   30.066541   48.480684
   30.073753   48.473779
   30.076621   48.473337
   30.081254   48.471104
   30.084855   48.470572
   30.088579   48.468878
   30.090211   48.467039
   30.092279   48.460988
   30.096228   48.459231
   30.110356   48.456624
   30.112442   48.456613
   30.113262   48.456778
   30.113021   48.460128
   30.113994   48.462936
   30.118309   48.466739
   30.121014   48.467636
   30.123588   48.467765
   30.123865   48.471360
   30.124502   48.472597
   30.125642   48.473661
   30.127191   48.474462
   30.129019   48.474934
   30.132650   48.474874
   30.136018   48.475175
   30.138702   48.475937
   30.141156   48.479151
   30.142359   48.480092
   30.144423   48.483694
   30.145979   48.484964
   30.147105   48.486550
   30.144841   48.489604
   30.144044   48.493675
   30.144993   48.497674
   30.146070   48.499589
   30.148632   48.501704
   30.159992   48.507681
   30.163122   48.508032
   30.166148   48.507392
   30.207862   48.490790
   30.221220   48.484857
   30.249080   48.492098
   30.248090   48.506083
   30.249426   48.508174
   30.252117   48.509566
   30.276013   48.512933
   30.304309   48.516486
   30.321106   48.525343
   30.323516   48.526194
   30.338298   48.528042
   30.349626   48.529879
   30.357057   48.530607
   30.379924   48.531387
   30.380816   48.543886
   30.396511   48.575354
   30.397821   48.576858
   30.400484   48.578097
   30.452908   48.587822
   30.455425   48.587490
   30.457576   48.586556
   30.478152   48.570558
   30.480514   48.570046
   30.481407   48.571609
   30.482654   48.572606
   30.484275   48.573325
   30.486781   48.573753
   30.505277   48.571982
   30.507413   48.572606
   30.510033   48.572679
   30.530484   48.570571
   30.532337   48.571239
   30.534442   48.571531
   30.535139   48.572897
   30.536333   48.573976
   30.537948   48.574773
   30.540507   48.575282
   30.561094   48.572609
   30.561613   48.574570
   30.559302   48.575289
   30.557866   48.576230
   30.556908   48.577412
   30.556512   48.578730
   30.560261   48.589364
   30.557235   48.590233
   30.552786   48.592410
   30.551372   48.593903
   30.550921   48.595644
   30.551264   48.596953
   30.552162   48.598139
   30.561380   48.605282
   30.544084   48.615491
   30.540938   48.615499
   30.538013   48.616533
   30.524458   48.624720
   30.523103   48.626208
   30.522689   48.627927
   30.523575   48.630013
   30.545894   48.656477
   30.547066   48.657414
   30.550509   48.658768
   30.553795   48.658810
   30.592015   48.666616
   30.592723   48.668211
   30.592305   48.671526
   30.594008   48.674850
   30.594494   48.677061
   30.596343   48.680752
   30.598310   48.686655
   30.599845   48.688492
   30.602268   48.689613
   30.603329   48.694145
   30.598585   48.694832
   30.595953   48.696094
   30.587926   48.704631
   30.570384   48.718092
   30.569180   48.720178
   30.569621   48.722395
   30.571284   48.724129
   30.573539   48.725129
   30.579093   48.726221
   30.583320   48.726421
   30.587100   48.727328
   30.590870   48.726937
   30.594128   48.725192
   30.601083   48.725523
   30.605377   48.724921
   30.615679   48.741508
   30.616728   48.742667
   30.618831   48.743795
   30.621426   48.744286
   30.629330   48.743714
   30.630311   48.752642
   30.631198   48.754240
   30.632908   48.755505
   30.695744   48.771626
   30.698266   48.771920
   30.700168   48.771715
   30.722133   48.765576
   30.745204   48.765194
   30.746392   48.770771
   30.747295   48.772466
   30.748588   48.773508
   30.750286   48.774248
   30.752235   48.774620
   30.754262   48.774590
   30.800040   48.762740
   30.806162   48.772331
   30.807643   48.773235
   30.809455   48.773810
   30.812774   48.773915
   30.819395   48.771750
   30.821875   48.771215
   30.824997   48.769550
   30.828901   48.765311
   30.830063   48.763202
   30.834762   48.758464
   30.836349   48.755588
   30.836554   48.754337
   30.842007   48.753318
   30.843360   48.754703
   30.844892   48.755502
   30.846700   48.755978
   30.848769   48.756103
   30.860288   48.754898
   30.864968   48.754953
   30.873629   48.754306
   30.877269   48.753716
   30.880349   48.752562
   30.882510   48.750949
   30.883659   48.749242
   30.886282   48.749904
   30.890297   48.750096
   30.888729   48.753481
   30.888721   48.755173
   30.889512   48.757171
   30.891899   48.761305
   30.894158   48.763289
   30.897724   48.765305
   30.899643   48.765908
   30.902812   48.766313
   30.910533   48.765915
   30.915649   48.765350
   30.918188   48.764756
   30.921127   48.765142
   30.924527   48.765019
   30.931513   48.766496
   30.933458   48.766566
   30.936043   48.766183
   30.934858   48.771059
   30.935623   48.773510
   30.937513   48.775181
   30.939316   48.776017
   30.941565   48.776581
   30.944393   48.776735
   30.947227   48.776233
   30.952506   48.775842
   30.955944   48.774281
   30.958292   48.774154
   30.961422   48.773198
   30.963960   48.771307
   30.964629   48.770130
   30.964740   48.768577
   30.966344   48.766553
   30.969891   48.766735
   30.973524   48.765852
   30.987001   48.768846
   30.992068   48.768881
   30.999616   48.766644
   31.003654   48.762642
   31.008422   48.763886
   31.011285   48.763827
   31.013750   48.765086
   31.019694   48.766397
   31.026137   48.766008
   31.032157   48.764674
   31.035860   48.765389
   31.040447   48.764788
   31.043238   48.763724
   31.045926   48.762012
   31.047556   48.759897
   31.048032   48.758602
   31.051645   48.759872
   31.056475   48.760141
   31.059993   48.759319
   31.063820   48.757414
   31.065173   48.755912
   31.067245   48.751352
   31.070253   48.751084
   31.072108   48.750474
   31.074540   48.748860
   31.075718   48.747506
   31.077248   48.743803
   31.076933   48.741961
   31.076190   48.740819
   31.081092   48.739400
   31.084185   48.742281
   31.088147   48.744498
   31.090684   48.745179
   31.094783   48.745462
   31.098230   48.744463
   31.099909   48.744536
   31.102551   48.744153
   31.105762   48.742946
   31.107898   48.741080
   31.110038   48.738263
   31.111810   48.733542
   31.111715   48.736355
   31.112586   48.738999
   31.115377   48.741462
   31.116842   48.743643
   31.118935   48.744856
   31.124070   48.745931
   31.126971   48.745800
   31.129177   48.745200
   31.130859   48.747274
   31.133765   48.749026
   31.137264   48.749923
   31.139595   48.750891
   31.142192   48.751319
   31.145407   48.750914
   31.149577   48.749316
   31.151519   48.748180
   31.152477   48.747052
   31.158014   48.755231
   31.167585   48.763933
   31.171992   48.765911
   31.174508   48.766322
   31.177819   48.766139
   31.181980   48.765094
   31.184750   48.763711
   31.188192   48.764547
   31.192295   48.764883
   31.197557   48.764389
   31.202360   48.763018
   31.206173   48.761128
   31.208318   48.761844
   31.207393   48.765891
   31.208785   48.769759
   31.210475   48.771401
   31.213617   48.772671
   31.215686   48.772978
   31.218540   48.772773
   31.221457   48.771963
   31.225809   48.771407
   31.231302   48.769763
   31.235513   48.770538
   31.243165   48.771394
   31.248561   48.771375
   31.250630   48.771090
   31.253599   48.770165
   31.259217   48.766283
   31.260085   48.764084
   31.258881   48.759642
   31.261447   48.756906
   31.262052   48.754328
   31.264454   48.755623
   31.269441   48.757427
   31.272831   48.758078
   31.275832   48.757988
   31.277125   48.758628
   31.280975   48.761705
   31.283944   48.762811
   31.287817   48.762793
   31.290665   48.761830
   31.296129   48.763224
   31.301672   48.763852
   31.306153   48.763218
   31.310072   48.763346
   31.313543   48.762427
   31.315125   48.761454
   31.316500   48.760038
   31.319507   48.755841
   31.320200   48.752752
   31.319537   48.750771
   31.318570   48.749647
   31.320340   48.747799
   31.322801   48.746152
   31.326028   48.741440
   31.326226   48.739219
   31.325127   48.736141
   31.326626   48.734674
   31.328560   48.734302
   31.330665   48.733293
   31.332124   48.731946
   31.332714   48.730847
   31.340454   48.732840
   31.343566   48.733149
   31.346238   48.733000
   31.345295   48.737358
   31.345257   48.740333
   31.345911   48.741947
   31.350038   48.745042
   31.351717   48.745558
   31.356912   48.746266
   31.360576   48.745916
   31.368060   48.743015
   31.369531   48.741639
   31.370166   48.740398
   31.374017   48.738816
   31.376002   48.737353
   31.376985   48.735652
   31.377107   48.733643
   31.377568   48.733564
   31.377665   48.736157
   31.378452   48.737416
   31.379042   48.739598
   31.380335   48.741418
   31.380463   48.742938
   31.381277   48.744518
   31.383560   48.746511
   31.386971   48.747834
   31.387563   48.749748
   31.389570   48.751473
   31.391950   48.752420
   31.394885   48.752902
   31.398842   48.752580
   31.400747   48.752045
   31.402747   48.750787
   31.403941   48.749175
   31.404473   48.747742
   31.404425   48.745797
   31.406987   48.747989
   31.407973   48.749562
   31.404915   48.752197
   31.403663   48.753885
   31.403371   48.755585
   31.404046   48.757237
   31.405824   48.758951
   31.409973   48.760672
   31.412474   48.760974
   31.414880   48.760807
   31.416883   48.760316
   31.418051   48.760431
   31.416344   48.762244
   31.416001   48.764040
   31.416742   48.765783
   31.418447   48.767192
   31.464637   48.792537
   31.481758   48.797813
   31.493622   48.801125
   31.521075   48.807413
   31.520293   48.816435
   31.520934   48.818183
   31.522063   48.819307
   31.523640   48.820158
   31.553333   48.831764
   31.553541   48.832150
   31.550372   48.833197
   31.548702   48.834482
   31.547833   48.835969
   31.547770   48.837849
   31.559165   48.856287
   31.553310   48.860801
   31.552440   48.862485
   31.552611   48.864262
   31.553413   48.865490
   31.554718   48.866508
   31.571771   48.876357
   31.569082   48.877918
   31.567657   48.879853
   31.567736   48.882009
   31.569253   48.883857
   31.566763   48.885234
   31.562114   48.890328
   31.561894   48.892099
   31.562416   48.893390
   31.563480   48.894522
   31.565292   48.895524
   31.562892   48.896262
   31.561072   48.897590
   31.560299   48.898841
   31.560189   48.900639
   31.561527   48.902695
   31.576373   48.915455
   31.577788   48.916362
   31.579533   48.916961
   31.582118   48.917196
   31.585222   48.916553
   31.599375   48.909521
   31.600640   48.908485
   31.601461   48.907021
   31.605125   48.906614
   31.609015   48.904783
   31.612904   48.906004
   31.614358   48.908443
   31.615733   48.909427
   31.617481   48.910098
   31.628925   48.910862
   31.639016   48.912557
   31.642152   48.912004
   31.644544   48.910541
   31.645382   48.909359
   31.646025   48.907355
   31.646127   48.905295
   31.652688   48.906556
   31.656113   48.906379
   31.663044   48.904920
   31.667057   48.905789
   31.673970   48.905041
   31.676805   48.905155
   31.678816   48.905941
   31.681440   48.906216
   31.684611   48.905589
   31.686785   48.904207
   31.689179   48.908148
   31.691827   48.917342
   31.691203   48.918599
   31.691149   48.919910
   31.692309   48.922175
   31.689278   48.925950
   31.689030   48.928728
   31.689603   48.929963
   31.691318   48.931463
   31.692892   48.933559
   31.694827   48.934801
   31.696672   48.935346
   31.701598   48.935926
   31.705682   48.936878
   31.725541   48.938402
   31.727986   48.938004
   31.749677   48.931435
   31.755002   48.934818
   31.763633   48.937577
   31.765215   48.938828
   31.766844   48.939546
   31.768711   48.939924
   31.770687   48.939928
   31.792278   48.943389
   31.800086   48.952532
   31.802727   48.953826
   31.805308   48.954163
   31.808485   48.953630
   31.815180   48.951024
   31.816363   48.949963
   31.817036   48.948718
   31.817141   48.947397
   31.816564   48.945963
   31.819442   48.944116
   31.822222   48.943163
   31.825689   48.940778
   31.827935   48.940107
   31.830863   48.940207
   31.833422   48.940835
   31.835406   48.940840
   31.842279   48.939625
   31.858524   48.932805
   31.876315   48.924614
   31.879102   48.922852
   31.881087   48.922098
   31.899259   48.916688
   31.902017   48.916311
   31.904133   48.915344
   31.922589   48.909726
   31.924201   48.908401
   31.924962   48.906771
   31.925388   48.896865
   31.919979   48.887805
   31.920502   48.887420
   31.923461   48.890445
   31.923642   48.891777
   31.925132   48.895088
   31.927851   48.897653
   31.931218   48.899471
   31.933764   48.900209
   31.935939   48.901816
   31.937709   48.903577
   31.939139   48.907300
   31.941153   48.909106
   31.943311   48.910165
   31.946541   48.910927
   31.947660   48.912128
   31.950755   48.914212
   31.953174   48.914842
   31.956402   48.914708
   31.958162   48.914144
   31.959873   48.913031
   31.961825   48.912645
   31.963517   48.911885
   31.986049   48.916779
   31.996461   48.920593
   31.999870   48.920520
   32.003010   48.919259
   32.006930   48.921166
   32.012193   48.928564
   32.013621   48.929390
   32.015708   48.929982
   32.022245   48.934335
   32.025322   48.935287
   32.028044   48.935247
   32.029950   48.934745
   32.042339   48.927468
   32.044862   48.927322
   32.048204   48.926167
   32.049576   48.925168
   32.052401   48.921690
   32.054085   48.921670
   32.060724   48.922761
   32.063202   48.923427
   32.080228   48.925797
   32.082222   48.925502
   32.083993   48.924823
   32.086720   48.922505
   32.093089   48.923423
   32.095111   48.923262
   32.097525   48.922442
   32.098910   48.921445
   32.099789   48.920218
   32.100320   48.918373
   32.099987   48.916986
   32.100966   48.915823
   32.101427   48.914529
   32.104314   48.915571
   32.107748   48.915786
   32.112050   48.916593
   32.143096   48.916773
   32.144790   48.918113
   32.144524   48.922809
   32.145714   48.925620
   32.145451   48.940178
   32.146541   48.942600
   32.146439   48.943244
   32.143886   48.944168
   32.142027   48.945748
   32.140016   48.946637
   32.129564   48.946906
   32.127074   48.947675
   32.124929   48.949450
   32.124063   48.951193
   32.124255   48.953081
   32.125306   48.954588
   32.127860   48.956168
   32.126740   48.962632
   32.128086   48.965168
   32.127963   48.966827
   32.128864   48.968530
   32.130162   48.969577
   32.131867   48.970320
   32.140922   48.972392
   32.155120   48.973628
   32.157586   48.975569
   32.161230   48.976742
   32.163402   48.976960
   32.172929   48.976719
   32.173149   48.980282
   32.173876   48.983077
   32.175127   48.985644
   32.172850   48.987945
   32.172194   48.990023
   32.174105   48.994546
   32.176206   48.996622
   32.184399   48.999782
   32.186825   49.000280
   32.190754   49.000140
   32.193619   48.999507
   32.200171   48.997159
   32.202388   48.997238
   32.206442   48.996778
   32.208325   48.996215
   32.210720   48.995015
   32.213372   48.995352
   32.222627   49.029171
   32.223424   49.030873
   32.226005   49.042139
   32.228988   49.051620
   32.226961   49.059107
   32.227540   49.061335
   32.228655   49.062480
   32.233916   49.065698
   32.237533   49.066610
   32.244806   49.066124
   32.247749   49.065174
   32.250035   49.063780
   32.253259   49.063182
   32.253645   49.063337
   32.252027   49.064380
   32.251090   49.065572
   32.250584   49.066970
   32.250353   49.070025
   32.250941   49.075111
   32.252959   49.078761
   32.254686   49.081021
   32.257990   49.082636
   32.259773   49.084596
   32.262612   49.085688
   32.265280   49.086016
   32.269888   49.086083
   32.275760   49.084752
   32.276290   49.086304
   32.277385   49.087476
   32.278958   49.088372
   32.281509   49.089017
   32.284086   49.088970
   32.286449   49.088284
   32.293382   49.083662
   32.297632   49.084115
   32.300761   49.083465
   32.302284   49.082621
   32.303377   49.081519
   32.304198   49.079100
   32.307405   49.079183
   32.308598   49.082898
   32.310527   49.084669
   32.312834   49.085515
   32.315451   49.085710
   32.350478   49.083641
   32.352856   49.082807
   32.354562   49.081422
   32.355234   49.080149
   32.355245   49.078389
   32.356702   49.077191
   32.357840   49.075132
   32.365407   49.076453
   32.367324   49.076274
   32.369615   49.075491
   32.370952   49.074558
   32.371840   49.073409
   32.380416   49.054928
   32.381624   49.053677
   32.382132   49.052445
   32.382524   49.050218
   32.382281   49.048887
   32.381076   49.047296
   32.378201   49.045321
   32.377749   49.044294
   32.378031   49.042426
   32.381368   49.041968
   32.383514   49.040887
   32.385738   49.038529
   32.386541   49.036465
   32.387031   49.036118
   32.392365   49.035477
   32.394680   49.034914
   32.398064   49.033038
   32.401837   49.031706
   32.403212   49.030911
   32.413183   49.031580
   32.415487   49.033948
   32.417853   49.038957
   32.421847   49.043908
   32.423731   49.045078
   32.425501   49.045599
   32.428064   49.045737
   32.430955   49.045308
   32.437203   49.055119
   32.439090   49.056370
   32.442215   49.057102
   32.445486   49.056758
   32.448122   49.055419
   32.449341   49.053841
   32.450331   49.050330
   32.451224   49.049030
   32.455771   49.047283
   32.457760   49.045306
   32.461197   49.045305
   32.463757   49.044670
   32.467195   49.042579
   32.469313   49.040137
   32.472617   49.039736
   32.475646   49.038060
   32.478030   49.037778
   32.480240   49.036895
   32.481483   49.035903
   32.482395   49.034296
   32.482344   49.032577
   32.481584   49.031202
   32.480361   49.030137
   32.478723   49.029359
   32.474008   49.028474
   32.480546   49.015524
   32.480788   49.014083
   32.482370   49.014576
   32.487292   49.017998
   32.490791   49.019175
   32.493289   49.019483
   32.496362   49.018978
   32.500815   49.017067
   32.504024   49.014243
   32.504768   49.011980
   32.504762   49.010355
   32.504247   49.008981
   32.505992   49.003896
   32.505903   49.002549
   32.505219   49.001275
   32.506463   48.998738
   32.507806   48.997657
   32.510700   48.993586
   32.510779   48.992156
   32.509626   48.989368
   32.510351   48.988726
   32.515370   48.987599
   32.517804   48.986019
   32.521191   48.979440
   32.521541   48.977470
   32.522291   48.976174
   32.522034   48.972889
   32.521168   48.971655
   32.519714   48.970611
   32.520556   48.969150
   32.520552   48.967422
   32.517204   48.960909
   32.518168   48.959404
   32.522453   48.956732
   32.524665   48.953868
   32.527685   48.951503
   32.528397   48.949838
   32.527972   48.947797
   32.530359   48.945638
   32.530977   48.943817
   32.539716   48.944179
   32.536723   48.948442
   32.534592   48.950052
   32.533639   48.952553
   32.534342   48.955066
   32.536399   48.957942
   32.534527   48.959286
   32.533243   48.961387
   32.531814   48.966415
   32.533104   48.969193
   32.534294   48.970244
   32.535887   48.971021
   32.537748   48.971459
   32.539719   48.971520
   32.548704   48.970920
   32.551388   48.970345
   32.557554   48.969862
   32.559291   48.969211
   32.561026   48.967875
   32.561747   48.966635
   32.561876   48.965197
   32.569422   48.962038
   32.577570   48.963502
   32.580205   48.963297
   32.581993   48.962705
   32.583444   48.961791
   32.584434   48.960634
   32.584876   48.959335
   32.584712   48.957719
   32.585181   48.957995
   32.585842   48.962046
   32.586806   48.963200
   32.588229   48.964119
   32.590626   48.964846
   32.595113   48.965005
   32.598138   48.966493
   32.601274   48.966856
   32.604558   48.968572
   32.607702   48.969127
   32.610872   48.968640
   32.612476   48.967884
   32.613689   48.966852
   32.615113   48.964774
   32.615299   48.962386
   32.616536   48.960660
   32.616868   48.959009
   32.622214   48.960393
   32.632129   48.959911
   32.634190   48.960322
   32.636950   48.961912
   32.640509   48.962378
   32.642801   48.962052
   32.644520   48.961410
   32.646246   48.960095
   32.646980   48.958862
   32.653354   48.958146
   32.658492   48.959668
   32.659644   48.961002
   32.661771   48.962130
   32.665398   48.963288
   32.668293   48.963528
   32.667023   48.965512
   32.666693   48.966852
   32.666973   48.968197
   32.667797   48.969381
   32.666223   48.972217
   32.665466   48.975507
   32.663963   48.977585
   32.663553   48.982021
   32.666358   48.985971
   32.669124   48.987405
   32.671369   48.989226
   32.674372   48.990242
   32.676401   48.990333
   32.680348   48.989922
   32.682048   48.989275
   32.683732   48.987982
   32.687747   48.986686
   32.695555   48.987490
   32.697531   48.987373
   32.699372   48.986880
   32.700920   48.986052
   32.702304   48.984552
   32.703647   48.979554
   32.726185   48.981691
   32.728127   48.981688
   32.729989   48.981316
   32.732082   48.980305
   32.733510   48.978736
   32.735540   48.977913
   32.737176   48.976487
   32.739003   48.969925
   32.788365   48.974696
   32.788163   48.976289
   32.788888   48.977965
   32.790509   48.979334
   32.792785   48.980191
   32.802668   48.981107
   32.805758   48.980905
   32.808625   48.981547
   32.825939   48.983118
   32.837772   48.984506
   32.836677   48.990072
   32.837181   48.991855
   32.838580   48.993385
   32.840158   48.994226
   32.842038   48.994719
   32.851661   48.995550
   32.849314   48.996475
   32.843902   48.999640
   32.840294   49.004484
   32.837794   49.003748
   32.834585   49.003514
   32.827143   49.004937
   32.824990   49.005716
   32.823531   49.006715
   32.820898   49.010490
   32.819750   49.015830
   32.820535   49.017949
   32.821702   49.019012
   32.823279   49.019806
   32.828341   49.021146
   32.831017   49.021363
   32.830893   49.023488
   32.831848   49.025205
   32.830473   49.027310
   32.825218   49.055451
   32.824460   49.056740
   32.823998   49.058891
   32.823214   49.065290
   32.823257   49.068774
   32.817916   49.069064
   32.815816   49.069717
   32.813146   49.069951
   32.811316   49.070574
   32.808474   49.072933
   32.807738   49.074797
   32.807807   49.076151
   32.808820   49.077820
   32.811434   49.079475
   32.819176   49.081589
   32.823788   49.083301
   32.830743   49.087339
   32.840115   49.091838
   32.842456   49.092377
   32.855164   49.094106
   32.879183   49.100061
   32.883139   49.100286
   32.889229   49.099878
   32.888874   49.109901
   32.884714   49.122741
   32.875348   49.124073
   32.869203   49.123534
   32.866689   49.124085
   32.855337   49.124804
   32.843423   49.126289
   32.826276   49.129291
   32.822015   49.130628
   32.793588   49.133856
   32.790206   49.135057
   32.787142   49.137170
   32.784079   49.136538
   32.780983   49.136443
   32.774205   49.138010
   32.765498   49.141690
   32.761430   49.144855
   32.758736   49.146168
   32.756073   49.148675
   32.755237   49.150371
   32.755432   49.152713
   32.753709   49.154630
   32.752744   49.156566
   32.752336   49.159512
   32.751036   49.162398
   32.750517   49.167202
   32.751125   49.170338
   32.753137   49.172490
   32.757933   49.174439
   32.762494   49.175504
   32.762958   49.176920
   32.765119   49.179884
   32.768663   49.187834
   32.769603   49.188930
   32.772048   49.190833
   32.778997   49.194566
   32.801717   49.215009
   32.804394   49.216264
   32.807516   49.216541
   32.813029   49.219488
   32.817870   49.222991
   32.834508   49.229383
   32.835498   49.229992
   32.853956   49.247641
   32.855953   49.248712
   32.857767   49.249146
   32.859690   49.249222
   32.861568   49.248932
   32.869386   49.246886
   32.877353   49.244175
   32.879375   49.243124
   32.886034   49.238043
   32.892171   49.236544
   32.902626   49.236647
   32.929396   49.234164
   32.932955   49.234228
   32.934653   49.235402
   32.936305   49.235994
   32.941712   49.236687
   32.951023   49.239853
   32.956572   49.242887
   32.967266   49.245227
   32.975441   49.245552
   32.985912   49.244309
   32.988709   49.242944
   32.992471   49.238969
   32.994042   49.235223
   32.995116   49.230695
   32.994643   49.224476
   32.990388   49.218700
   32.989133   49.215340
   32.989727   49.212511
   32.993924   49.208854
   32.997473   49.207080
   33.000731   49.207667
   33.006314   49.207948
   33.013450   49.207284
   33.015375   49.206746
   33.020804   49.203965
   33.026234   49.200493
   33.029314   49.197271
   33.031640   49.192623
   33.033237   49.191287
   33.035333   49.190264
   33.039656   49.191285
   33.044377   49.191734
   33.046916   49.191345
   33.052145   49.189636
   33.055026   49.189760
   33.069056   49.192529
   33.075892   49.191745
   33.091865   49.188543
   33.101400   49.189718
   33.104002   49.189534
   33.105777   49.188967
   33.126480   49.177379
   33.127325   49.176217
   33.127645   49.174943
   33.127213   49.173250
   33.125825   49.171309
   33.126368   49.167211
   33.127191   49.166362
   33.134161   49.163023
   33.137882   49.159942
   33.149008   49.146767
   33.154071   49.141689
   33.162272   49.134646
   33.164690   49.130608
   33.164525   49.126693
   33.163133   49.124843
   33.158608   49.121814
   33.162709   49.116446
   33.164014   49.113293
   33.164272   49.108113
   33.162155   49.100758
   33.164267   49.099453
   33.165774   49.099394
   33.182679   49.101896
   33.184800   49.101982
   33.186856   49.101626
   33.191515   49.099763
   33.201388   49.092364
   33.203572   49.090017
   33.204229   49.087271
   33.204036   49.085996
   33.202967   49.084448
   33.200425   49.082725
   33.204401   49.077692
   33.205599   49.078012
   33.207504   49.079374
   33.209646   49.080252
   33.217589   49.081281
   33.217659   49.084375
   33.218393   49.086003
   33.221031   49.088072
   33.223141   49.088904
   33.226308   49.089395
   33.228951   49.089153
   33.235413   49.087630
   33.241057   49.085183
   33.241780   49.086514
   33.241271   49.090346
   33.241218   49.145768
   33.233503   49.162163
   33.231504   49.164021
   33.231023   49.165792
   33.231368   49.167126
   33.232712   49.168687
   33.237424   49.170819
   33.239383   49.171217
   33.241431   49.171206
   33.243381   49.170787
   33.245054   49.169998
   33.267485   49.155418
   33.273218   49.145644
   33.273798   49.140153
   33.274405   49.139295
   33.277516   49.138047
   33.289895   49.127373
   33.293623   49.125687
   33.307794   49.122219
   33.309771   49.121011
   33.310893   49.119386
   33.311061   49.118045
   33.310359   49.116318
   33.293780   49.094392
   33.290845   49.092776
   33.288347   49.092032
   33.284202   49.092190
   33.281731   49.091737
   33.279547   49.091808
   33.283050   49.090706
   33.284406   49.089657
   33.285277   49.088354
   33.288620   49.088333
   33.291610   49.087322
   33.301248   49.077266
   33.314105   49.066893
   33.316178   49.067191
   33.319038   49.067111
   33.322688   49.066006
   33.325563   49.064094
   33.326871   49.061678
   33.326974   49.060004
   33.326342   49.058272
   33.323829   49.055743
   33.325351   49.054329
   33.326794   49.051689
   33.327285   49.044996
   33.329952   49.042008
   33.331403   49.038771
   33.333703   49.036440
   33.334365   49.035246
   33.335211   49.030791
   33.334434   49.023687
   33.332453   49.021067
   33.329521   49.018999
   33.325310   49.016796
   33.322070   49.015768
   33.316555   49.013381
   33.314384   49.011105
   33.311342   49.009207
   33.306761   49.007814
   33.307400   49.005502
   33.306160   49.003242
   33.317924   48.986280
   33.318453   48.985135
   33.318817   48.982059
   33.331644   48.962342
   33.331683   48.960547
   33.330271   48.958519
   33.328190   48.957382
   33.322930   48.955928
   33.323463   48.954992
   33.327855   48.956340
   33.330447   48.956627
   33.333598   48.956035
   33.335901   48.954587
   33.342386   48.957248
   33.346102   48.957877
   33.354578   48.957065
   33.356254   48.956349
   33.357873   48.954951
   33.358487   48.953687
   33.358763   48.951326
   33.384062   48.939937
   33.393803   48.935247
   33.392725   48.953025
   33.394471   48.955749
   33.395733   48.956834
   33.395263   48.959507
   33.396197   48.961566
   33.398451   48.963105
   33.402624   48.964399
   33.404817   48.964722
   33.408795   48.964671
   33.411134   48.963961
   33.414382   48.962112
   33.418252   48.962466
   33.420190   48.962342
   33.423373   48.961728
   33.426922   48.960074
   33.429354   48.961065
   33.431981   48.961306
   33.477838   48.956408
   33.480205   48.955642
   33.481592   48.954700
   33.482513   48.953531
   33.482888   48.952233
   33.480077   48.939257
   33.483471   48.936702
   33.484619   48.934676
   33.484412   48.931795
   33.482137   48.920965
   33.485230   48.923639
   33.487015   48.925944
   33.488452   48.926811
   33.490400   48.927406
   33.491734   48.929251
   33.494405   48.930583
   33.497394   48.931264
   33.511308   48.933182
   33.537580   48.935882
   33.540704   48.935285
   33.543053   48.933785
   33.544000   48.932162
   33.546051   48.924548
   33.549134   48.923936
   33.551179   48.922699
   33.552250   48.921298
   33.553552   48.917448
   33.556987   48.917555
   33.561257   48.917120
   33.560941   48.919327
   33.561728   48.920996
   33.563405   48.922342
   33.565722   48.923161
   33.580542   48.925050
   33.582500   48.924856
   33.584291   48.924293
   33.586564   48.922587
   33.599981   48.936831
   33.596080   48.938498
   33.594508   48.939917
   33.593870   48.942075
   33.594832   48.944178
   33.605575   48.956049
   33.607534   48.957231
   33.609390   48.957739
   33.611545   48.960559
   33.612865   48.961559
   33.614564   48.962259
   33.616494   48.962598
   33.620041   48.962212
   33.628091   48.964608
   33.629153   48.967769
   33.629752   48.974139
   33.630501   48.975355
   33.632703   48.977221
   33.635348   48.978568
   33.642402   48.980813
   33.646066   48.981624
   33.665851   48.982976
   33.668963   48.982200
   33.670799   48.981257
   33.671922   48.980253
   33.672921   48.978330
   33.673638   48.975662
   33.685925   48.960085
   33.697753   48.953540
   33.701552   48.949620
   33.708259   48.948550
   33.711147   48.947624
   33.716137   48.945352
   33.719182   48.944739
   33.725022   48.945502
   33.734481   48.945538
   33.743902   48.947199
   33.754672   48.949686
   33.757636   48.949857
   33.761060   48.950551
   33.762931   48.950556
   33.783749   48.944675
   33.787054   48.944051
   33.793158   48.943563
   33.798316   48.944340
   33.803496   48.944186
   33.808976   48.943627
   33.821393   48.941258
   33.832777   48.937599
   33.841382   48.933957
   33.844806   48.931892
   33.853691   48.924927
   33.867739   48.916406
   33.874939   48.913130
   33.887280   48.910497
   33.893528   48.908341
   33.899215   48.905069
   33.900338   48.904013
   33.900968   48.902789
   33.900956   48.901067
   33.899943   48.899433
   33.895770   48.883426
   33.894282   48.879420
   33.892118   48.875540
   33.888746   48.863576
   33.880095   48.838951
   33.879176   48.837754
   33.877770   48.836790
   33.873553   48.835361
   33.870748   48.834899
   33.869332   48.833845
   33.867692   48.833195
   33.857502   48.801867
   33.856824   48.800655
   33.855409   48.799469
   33.859989   48.778443
   33.857474   48.769583
   33.856291   48.768027
   33.854315   48.766885
   33.851838   48.766328
   33.830326   48.764462
   33.827671   48.764765
   33.825402   48.765735
   33.823880   48.767219
   33.822683   48.770701
   33.815947   48.772073
   33.814297   48.772876
   33.812791   48.774384
   33.810425   48.782335
   33.808548   48.791673
   33.806323   48.797643
   33.799945   48.796903
   33.800565   48.794399
   33.799928   48.792668
   33.798338   48.791237
   33.794836   48.789884
   33.771497   48.787519
   33.769059   48.788049
   33.767091   48.789147
   33.765875   48.790654
   33.765099   48.793004
   33.762741   48.792203
   33.752740   48.790992
   33.750176   48.788853
   33.748864   48.787267
   33.747371   48.786397
   33.745565   48.785852
   33.738752   48.785048
   33.735394   48.784974
   33.732841   48.785374
   33.724908   48.784694
   33.722368   48.785118
   33.720259   48.786154
   33.718698   48.788065
   33.714463   48.805568
   33.712133   48.805903
   33.710448   48.806558
   33.709112   48.807506
   33.708085   48.808972
   33.703405   48.808171
   33.701389   48.806981
   33.692031   48.803946
   33.688852   48.803612
   33.686960   48.803905
   33.684776   48.804826
   33.683567   48.805841
   33.680431   48.810332
   33.677901   48.810603
   33.675263   48.807384
   33.674348   48.805136
   33.670626   48.802208
   33.669239   48.800662
   33.667549   48.797565
   33.667136   48.795978
   33.666051   48.794693
   33.666010   48.792840
   33.664924   48.790863
   33.663658   48.789796
   33.661974   48.789029
   33.656994   48.788106
   33.639258   48.785822
   33.617185   48.783489
   33.614723   48.784016
   33.612736   48.785121
   33.611736   48.786235
   33.611015   48.788147
   33.604072   48.787408
   33.602103   48.787631
   33.600318   48.788227
   33.598870   48.789145
   33.597886   48.790305
   33.596874   48.793721
   33.590938   48.793143
   33.594174   48.782068
   33.594104   48.779292
   33.593202   48.777659
   33.591443   48.776375
   33.589714   48.775757
   33.586313   48.775323
   33.588155   48.767646
   33.592532   48.759077
   33.592885   48.757508
   33.595714   48.756045
   33.597201   48.753848
   33.607367   48.755872
   33.610505   48.755426
   33.612983   48.754066
   33.614297   48.752390
   33.624087   48.731314
   33.630591   48.730165
   33.635755   48.728842
   33.640743   48.729260
   33.644715   48.730199
   33.651587   48.729865
   33.653371   48.729350
   33.654863   48.728517
   33.655938   48.727436
   33.656553   48.726013
   33.680999   48.727770
   33.684920   48.727157
   33.686575   48.726384
   33.712130   48.710184
   33.713565   48.708892
   33.732879   48.696875
   33.746184   48.697859
   33.748184   48.697675
   33.750558   48.696839
   33.751914   48.695841
   33.752769   48.694620
   33.755259   48.686005
   33.793389   48.690461
   33.797059   48.691400
   33.805790   48.692092
   33.807708   48.691820
   33.809429   48.691193
   33.811481   48.689513
   33.812244   48.687592
   33.812010   48.683561
   33.811024   48.679665
   33.808518   48.661911
   33.807835   48.660635
   33.806616   48.659551
   33.804971   48.658757
   33.803047   48.658324
   33.764132   48.653736
   33.765189   48.651171
   33.767988   48.649691
   33.769235   48.647626
   33.769937   48.642700
   33.768997   48.641034
   33.767301   48.639810
   33.770455   48.627024
   33.770317   48.625248
   33.768246   48.622226
   33.766223   48.620837
   33.763384   48.619815
   33.759947   48.619614
   33.758304   48.618014
   33.756711   48.617197
   33.753865   48.616446
   33.751585   48.616314
   33.751213   48.614686
   33.749964   48.613094
   33.746980   48.611140
   33.742847   48.610393
   33.737622   48.611192
   33.735521   48.610140
   33.733002   48.609599
   33.731013   48.609643
   33.728761   48.610212
   33.723771   48.608092
   33.716821   48.607079
   33.704281   48.602028
   33.665437   48.582590
   33.661669   48.581504
   33.655855   48.581692
   33.654025   48.582209
   33.652498   48.583058
   33.651156   48.584578
   33.650420   48.587439
   33.647484   48.588320
   33.645479   48.590025
   33.644249   48.594705
   33.626069   48.593232
   33.624150   48.593507
   33.622430   48.594137
   33.621053   48.595071
   33.619976   48.596578
   33.617560   48.596180
   33.619868   48.591551
   33.629881   48.567299
   33.629939   48.566000
   33.629157   48.564352
   33.627989   48.563312
   33.626426   48.562537
   33.592278   48.555330
   33.590316   48.555124
   33.588349   48.555307
   33.586547   48.555863
   33.585063   48.556744
   33.584025   48.557874
   33.579679   48.571295
   33.517188   48.564409
   33.518369   48.558678
   33.517735   48.556961
   33.516162   48.555537
   33.514508   48.554796
   33.509304   48.553622
   33.504814   48.553084
   33.502885   48.553165
   33.501068   48.553607
   33.498469   48.555267
   33.489560   48.554209
   33.490922   48.547813
   33.490508   48.546040
   33.489531   48.544858
   33.488075   48.543921
   33.482363   48.542455
   33.486285   48.537648
   33.486619   48.536320
   33.486246   48.534594
   33.485415   48.533380
   33.483558   48.532112
   33.476950   48.530526
   33.494699   48.442823
   33.495776   48.440834
   33.495080   48.424353
   33.493692   48.409574
   33.496232   48.409473
   33.498005   48.409004
   33.499866   48.408043
   33.501293   48.406513
   33.503830   48.396305
   33.503882   48.393623
   33.503097   48.391554
   33.501961   48.390513
   33.500431   48.389727
   33.497997   48.389185
   33.491342   48.388907
   33.491086   48.387034
   33.490362   48.385832
   33.489159   48.384816
   33.487573   48.384070
   33.485093   48.383596
   33.475272   48.383631
   33.474931   48.374779
   33.477443   48.373770
   33.478990   48.372281
   33.479503   48.370961
   33.479871   48.366766
   33.478560   48.364818
   33.466879   48.356237
   33.467281   48.354346
   33.467514   48.353946
   33.480226   48.353601
   33.482970   48.352490
   33.484415   48.351066
   33.484914   48.349815
   33.484863   48.348522
   33.481003   48.333516
   33.495293   48.334816
   33.498987   48.335398
   33.504429   48.337037
   33.506961   48.337220
   33.509416   48.336764
   33.521107   48.332873
   33.522581   48.332049
   33.523649   48.330981
   33.524224   48.329755
   33.524260   48.328472
   33.517450   48.295775
   33.519131   48.294964
   33.520587   48.293530
   33.521060   48.291034
   33.524402   48.285911
   33.524612   48.283428
   33.523403   48.280913
   33.532563   48.279839
   33.534694   48.278794
   33.536064   48.277283
   33.540778   48.257224
   33.544052   48.256170
   33.545943   48.254309
   33.551155   48.240445
   33.552763   48.234899
   33.552223   48.233109
   33.551141   48.231942
   33.542698   48.227441
   33.542016   48.225523
   33.540487   48.224164
   33.529461   48.218734
   33.526154   48.218306
   33.523207   48.218898
   33.520968   48.218169
   33.514723   48.215030
   33.512280   48.214419
   33.509824   48.214435
   33.507908   48.214793
   33.506231   48.215508
   33.505014   48.216443
   33.504496   48.215113
   33.503050   48.213700
   33.503971   48.212424
   33.504251   48.211134
   33.502910   48.201708
   33.502127   48.199994
   33.500408   48.198618
   33.498023   48.197796
   33.485236   48.196240
   33.485579   48.194347
   33.485233   48.193048
   33.484340   48.191871
   33.482437   48.190662
   33.479988   48.190028
   33.435595   48.184785
   33.435292   48.184016
   33.435712   48.181799
   33.438764   48.170401
   33.438366   48.169055
   33.437381   48.167850
   33.433972   48.166014
   33.431563   48.165461
   33.392705   48.161536
   33.384422   48.160986
   33.380581   48.158790
   33.375941   48.157736
   33.363845   48.158467
   33.363058   48.156783
   33.361843   48.155713
   33.360211   48.154927
   33.357959   48.154384
   33.323129   48.153547
   33.323293   48.151909
   33.322599   48.150229
   33.321005   48.148849
   33.319357   48.148136
   33.302255   48.146353
   33.311124   48.133136
   33.314650   48.133507
   33.317748   48.132878
   33.319686   48.131721
   33.321810   48.129012
   33.323297   48.124645
   33.322752   48.117395
   33.322245   48.116151
   33.321232   48.115052
   33.318660   48.113781
   33.316146   48.113427
   33.308740   48.113817
   33.308219   48.109917
   33.307567   48.108636
   33.305879   48.107236
   33.303623   48.106412
   33.300297   48.102428
   33.299821   48.100545
   33.298892   48.099331
   33.297463   48.098357
   33.295010   48.097581
   33.289712   48.097374
   33.276011   48.098687
   33.272756   48.099768
   33.270739   48.101555
   33.270247   48.102867
   33.265251   48.137624
   33.265736   48.139787
   33.267975   48.141691
   33.266164   48.148705
   33.248042   48.146893
   33.246101   48.147010
   33.244291   48.147492
   33.241839   48.148889
   33.240666   48.150536
   33.237076   48.167448
   33.220364   48.165986
   33.222934   48.153514
   33.226852   48.153867
   33.229441   48.153607
   33.231689   48.152710
   33.233517   48.150907
   33.238907   48.127868
   33.238825   48.126380
   33.238224   48.125153
   33.235278   48.122584
   33.231649   48.121316
   33.224417   48.120294
   33.224116   48.119870
   33.226016   48.119738
   33.227852   48.119227
   33.230301   48.117512
   33.236631   48.117867
   33.238499   48.117471
   33.240120   48.116735
   33.241357   48.115720
   33.242107   48.114511
   33.243677   48.107603
   33.243043   48.105443
   33.241941   48.104336
   33.240404   48.103490
   33.237913   48.102893
   33.229747   48.102078
   33.231826   48.092418
   33.231436   48.090679
   33.230502   48.089512
   33.229103   48.088576
   33.226725   48.087820
   33.176331   48.082686
   33.174500   48.081565
   33.172642   48.081032
   33.160807   48.079770
   33.160940   48.076947
   33.160172   48.075702
   33.158889   48.074662
   33.156577   48.073753
   33.151657   48.073220
   33.149498   48.072712
   33.149683   48.071989
   33.152551   48.071185
   33.154342   48.069883
   33.156883   48.064720
   33.156497   48.062213
   33.160524   48.042362
   33.160307   48.041044
   33.159526   48.039824
   33.158249   48.038808
   33.156585   48.038083
   33.149078   48.037197
   33.147081   48.037212
   33.144042   48.038084
   33.142289   48.039416
   33.141437   48.041095
   33.137444   48.058772
   33.116344   48.056449
   33.114384   48.056535
   33.112222   48.057125
   33.110144   48.055565
   33.111274   48.051808
   33.110889   48.048851
   33.114994   48.045426
   33.115948   48.042367
   33.115638   48.041099
   33.114805   48.039940
   33.112457   48.038499
   33.108662   48.037632
   33.099457   48.036538
   33.096710   48.035920
   33.066026   48.032244
   33.043485   48.029885
   33.041809   48.028197
   33.039392   48.027219
   33.040795   48.021239
   33.042390   48.017795
   33.042219   48.016051
   33.041070   48.014480
   33.039280   48.013390
   33.038723   48.011772
   33.037200   48.010319
   33.034323   48.009229
   33.030399   48.008834
   33.032952   48.005962
   33.033182   48.002565
   33.032569   48.001250
   33.030946   47.999535
   33.031320   47.996991
   33.031008   47.995755
   33.029416   47.993604
   33.028662   47.991131
   33.027350   47.989679
   33.028111   47.986875
   33.027792   47.984963
   33.025818   47.982395
   33.023060   47.981030
   33.020508   47.980453
   33.018392   47.980432
   33.009142   47.982585
   33.004561   47.984555
   33.002703   47.984710
   33.000870   47.985249
   32.999352   47.986121
   32.998283   47.987252
   32.994250   47.999541
   32.993229   48.004892
   32.993175   48.010201
   32.991153   48.017609
   32.989338   48.021934
   32.984234   48.041748
   32.972743   48.036993
   32.963249   48.033660
   32.954151   48.030903
   32.951568   48.030809
   32.948573   48.031603
   32.946038   48.033140
   32.941775   48.037489
   32.940036   48.037317
   32.928829   48.035923
   32.926898   48.035301
   32.921801   48.034487
   32.922874   48.032424
   32.922490   48.030239
   32.921088   48.028742
   32.918314   48.027555
   32.888154   48.023857
   32.890149   48.023107
   32.891515   48.022177
   32.894176   48.018845
   32.895039   48.013606
   32.894386   48.011307
   32.894737   48.009272
   32.897004   47.999005
   32.899910   47.990869
   32.900834   47.986292
   32.900794   47.984957
   32.899844   47.983298
   32.898010   47.982012
   32.896222   47.981413
   32.866992   47.979020
   32.864377   47.979333
   32.861870   47.980488
   32.835711   47.978234
   32.818359   47.975941
   32.818130   47.974741
   32.817310   47.973501
   32.814862   47.971965
   32.812286   47.971427
   32.808984   47.971399
   32.801644   47.970187
   32.799068   47.970551
   32.796454   47.971873
   32.795076   47.973860
   32.794973   47.976570
   32.792180   47.977462
   32.790208   47.979198
   32.788657   47.986579
   32.788667   47.988695
   32.779953   47.987256
   32.765530   47.985480
   32.734957   47.982106
   32.731465   47.982320
   32.713504   47.980001
   32.697012   47.978248
   32.702947   47.952014
   32.734741   47.956216
   32.738127   47.956245
   32.740604   47.955646
   32.742552   47.954462
   32.743675   47.952870
   32.744887   47.948051
   32.744486   47.945583
   32.745662   47.943622
   32.751082   47.937582
   32.752305   47.933230
   32.752092   47.931490
   32.750907   47.929934
   32.749484   47.929028
   32.744530   47.927743
   32.673493   47.919228
   32.659627   47.917812
   32.661532   47.910013
   32.677245   47.911726
   32.679222   47.911401
   32.680965   47.910699
   32.682317   47.909682
   32.683155   47.908444
   32.692267   47.873780
   32.692314   47.872428
   32.691078   47.870346
   32.689657   47.869382
   32.687872   47.868741
   32.672341   47.867158
   32.673666   47.862193
   32.675765   47.862282
   32.677690   47.861965
   32.679395   47.861290
   32.680734   47.860314
   32.685767   47.853352
   32.686187   47.852073
   32.686040   47.850767
   32.684991   47.849173
   32.683091   47.847920
   32.678101   47.839739
   32.675966   47.838523
   32.669257   47.836248
   32.662918   47.825806
   32.664350   47.819448
   32.663994   47.818144
   32.662674   47.816617
   32.661160   47.815759
   32.658689   47.815137
   32.630776   47.812041
   32.629051   47.810160
   32.627449   47.809383
   32.625580   47.808949
   32.604846   47.806311
   32.602311   47.805657
   32.599529   47.805618
   32.584630   47.803887
   32.523045   47.796355
   32.521647   47.795684
   32.519252   47.795134
   32.508709   47.794376
   32.500433   47.793227
   32.497151   47.793321
   32.491690   47.792739
   32.458455   47.788848
   32.430392   47.785064
   32.425943   47.785271
   32.422688   47.786571
   32.421338   47.788014
   32.418940   47.793773
   32.416479   47.792921
   32.402150   47.790165
   32.396948   47.790839
   32.393514   47.792458
   32.392007   47.793505
   32.388662   47.792925
   32.385158   47.793463
   32.382283   47.792966
   32.381090   47.791784
   32.379011   47.790781
   32.374758   47.789918
   32.373613   47.787456
   32.370610   47.785671
   32.366797   47.784543
   32.363059   47.784336
   32.360442   47.784664
   32.357187   47.786168
   32.353078   47.787349
   32.349339   47.789639
   32.348130   47.790834
   32.343877   47.792595
   32.340740   47.795005
   32.337335   47.795636
   32.334175   47.796839
   32.332279   47.798395
   32.326701   47.801839
   32.324104   47.804114
   32.322499   47.806668
   32.321905   47.809551
   32.319020   47.810635
   32.316605   47.812780
   32.312590   47.813859
   32.309496   47.813597
   32.306453   47.814158
   32.302296   47.816229
   32.299708   47.818571
   32.250837   47.812113
   32.243938   47.811124
   32.246634   47.794346
   32.246551   47.793008
   32.245885   47.791746
   32.244694   47.790669
   32.242478   47.789681
   32.230646   47.788049
   32.238428   47.760835
   32.238151   47.759081
   32.236441   47.757204
   32.234837   47.756421
   32.232962   47.755981
   32.161058   47.746606
   32.158318   47.746862
   32.155902   47.747697
   32.154194   47.748916
   32.153052   47.750823
   32.151752   47.748660
   32.148700   47.746304
   32.146940   47.745655
   32.140446   47.744373
   32.137088   47.744897
   32.135071   47.745644
   32.133462   47.746643
   32.132094   47.748148
   32.130972   47.751171
   32.129096   47.752684
   32.117159   47.751412
   32.114632   47.751681
   32.111976   47.752858
   32.110882   47.753915
   32.110277   47.755134
   32.103799   47.779256
   32.090132   47.777739
   32.087541   47.777954
   32.085265   47.778807
   32.083970   47.779792
   32.083153   47.780984
   32.080161   47.791433
   32.076709   47.791781
   32.075026   47.792485
   32.073721   47.793485
   32.072757   47.795126
   32.071101   47.801285
   32.059554   47.799965
   32.056981   47.800332
   32.055296   47.801025
   32.053984   47.802013
   32.053155   47.803213
   32.051668   47.808314
   32.050003   47.812226
   32.016625   47.808273
   32.014694   47.808343
   32.012871   47.808775
   32.011305   47.809533
   32.009884   47.810872
   31.967867   47.806038
   31.969722   47.799797
   31.969718   47.798021
   31.969037   47.796765
   31.967836   47.795697
   31.964980   47.794575
   31.884318   47.784421
   31.881258   47.782975
   31.874807   47.781918
   31.840444   47.777829
   31.838404   47.777794
   31.836442   47.778167
   31.832681   47.779992
   31.831103   47.781938
   31.820783   47.815700
   31.820787   47.817457
   31.822185   47.819435
   31.823648   47.820325
   31.825433   47.820895
   31.861949   47.825903
   31.861823   47.826428
   31.858764   47.828884
   31.853665   47.834635
   31.851819   47.835597
   31.850723   47.836704
   31.846691   47.847331
   31.846572   47.849080
   31.847146   47.850340
   31.848239   47.851436
   31.849759   47.852275
   31.851569   47.852785
   31.849922   47.859115
   31.850568   47.865402
   31.851170   47.866660
   31.852763   47.868056
   31.854420   47.868778
   31.856317   47.869149
   31.881519   47.869860
   31.880583   47.871251
   31.880028   47.873595
   31.878019   47.878287
   31.877771   47.893819
   31.877133   47.896427
   31.875447   47.899456
   31.873669   47.901354
   31.869336   47.910772
   31.869131   47.912479
   31.869641   47.913763
   31.854523   47.911639
   31.851338   47.912353
   31.849819   47.913252
   31.848767   47.914410
   31.844570   47.932208
   31.844183   47.936138
   31.843337   47.937702
   31.838362   47.958359
   31.824474   47.956578
   31.821796   47.956682
   31.820052   47.957130
   31.816304   47.956904
   31.807752   47.955758
   31.805849   47.953978
   31.802963   47.953009
   31.785748   47.950383
   31.783707   47.950382
   31.780212   47.951015
   31.778399   47.949361
   31.777799   47.947119
   31.776572   47.945599
   31.775050   47.944481
   31.772908   47.943671
   31.770543   47.941305
   31.767268   47.940216
   31.763510   47.940315
   31.760941   47.941145
   31.759283   47.940954
   31.754698   47.939442
   31.752034   47.939286
   31.750091   47.939631
   31.748385   47.940342
   31.746462   47.942157
   31.744922   47.945903
   31.722292   48.035674
   31.722855   48.037385
   31.723899   48.038503
   31.725381   48.039373
   31.727176   48.039921
   31.775141   48.045942
   31.761763   48.096893
   31.734994   48.093760
   31.722031   48.092689
   31.715442   48.091750
   31.711156   48.090801
   31.695995   48.088931
   31.692688   48.088996
   31.689821   48.090098
   31.688078   48.091975
   31.685323   48.100503
   31.684557   48.101852
   31.682067   48.110554
   31.679191   48.111587
   31.677741   48.112469
   31.676731   48.113592
   31.676213   48.115239
   31.643371   48.110541
   31.641430   48.110467
   31.638944   48.110942
   31.636906   48.112004
   31.635455   48.113674
   31.633799   48.120574
   31.631857   48.121654
   31.630837   48.122790
   31.628661   48.129632
   31.625357   48.129918
   31.618201   48.129007
   31.612591   48.127413
   31.590836   48.124692
   31.591798   48.121415
   31.591717   48.120112
   31.590757   48.118501
   31.589140   48.117343
   31.590980   48.105667
   31.590536   48.103936
   31.589138   48.102448
   31.587585   48.101629
   31.577631   48.099374
   31.578118   48.097361
   31.577965   48.096026
   31.576871   48.094403
   31.575475   48.093442
   31.570842   48.092040
   31.568252   48.092085
   31.566431   48.092547
   31.564882   48.093336
   31.563734   48.094386
   31.555448   48.105094
   31.548588   48.104175
   31.557661   48.070740
   31.557440   48.068543
   31.556148   48.067000
   31.554647   48.066126
   31.552829   48.065581
   31.538686   48.063922
   31.517704   48.064345
   31.518029   48.062852
   31.517762   48.060454
   31.515641   48.056185
   31.513117   48.053027
   31.510183   48.050789
   31.506703   48.048613
   31.505002   48.047967
   31.493750   48.045839
   31.490521   48.045972
   31.487753   48.047089
   31.486301   48.048527
   31.482644   48.060151
   31.475236   48.059280
   31.468922   48.058974
   31.467007   48.059411
   31.465371   48.060206
   31.464160   48.061289
   31.463386   48.063008
   31.465750   48.078438
   31.466512   48.080714
   31.468248   48.083242
   31.471243   48.086110
   31.473323   48.087214
   31.490751   48.090615
   31.481395   48.124415
   31.425864   48.117307
   31.426971   48.110986
   31.426011   48.109283
   31.424123   48.107971
   31.421613   48.107261
   31.395816   48.103827
   31.393831   48.103890
   31.391959   48.104335
   31.390361   48.105123
   31.388888   48.106587
   31.383409   48.124742
   31.382695   48.123281
   31.381111   48.121688
   31.379816   48.120703
   31.377669   48.119883
   31.375725   48.117593
   31.370375   48.115156
   31.366729   48.114893
   31.363216   48.114055
   31.357524   48.114531
   31.354948   48.114152
   31.351348   48.114369
   31.346479   48.113431
   31.340616   48.110545
   31.337042   48.110112
   31.334797   48.109528
   31.329311   48.109532
   31.326783   48.110090
   31.324773   48.111255
   31.323589   48.112847
   31.319588   48.131978
   31.245630   48.114176
   31.237901   48.112538
   31.235904   48.112452
   31.233957   48.112759
   31.231275   48.114056
   31.229835   48.116048
   31.224031   48.134298
   31.215404   48.165535
   31.201860   48.163851
   31.198689   48.164166
   31.190135   48.168488
   31.185296   48.171646
   31.181719   48.172902
   31.176638   48.176015
   31.172961   48.179497
   31.172241   48.181156
   31.172345   48.182453
   31.173862   48.185623
   31.174273   48.187612
   31.175553   48.189099
   31.178037   48.190599
   31.183801   48.192069
   31.181261   48.193354
   31.179809   48.194903
   31.179393   48.196250
   31.179407   48.198963
   31.178508   48.200621
   31.172514   48.204015
   31.169030   48.206398
   31.167005   48.208561
   31.166324   48.210405
   31.163879   48.211724
   31.162732   48.212887
   31.162029   48.214129
   31.161850   48.215996
   31.158724   48.218019
   31.141115   48.216283
   31.137862   48.216494
   31.135605   48.217388
   31.134027   48.218788
   31.132473   48.224069
   31.055892   48.215612
   31.053937   48.215846
   31.052168   48.216449
   31.050033   48.218119
   31.047516   48.226902
   30.989119   48.218681
   30.995895   48.194861
   30.995634   48.193137
   30.994751   48.191906
   30.996130   48.184142
   30.995679   48.182813
   30.994203   48.181294
   30.992570   48.180478
   30.990647   48.180023
   30.978650   48.179247
   30.976076   48.179540
   30.972058   48.180813
   30.967842   48.180765
   30.961259   48.177412
   30.958535   48.176482
   30.956424   48.176170
   30.953290   48.176453
   30.947601   48.178665
   30.944571   48.179527
   30.938679   48.179532
   30.937217   48.179239
   30.936914   48.175596
   30.937923   48.171872
   30.937771   48.170191
   30.937059   48.168632
   30.937498   48.166810
   30.936802   48.164721
   30.935430   48.163219
   30.932690   48.162014
   30.928692   48.161566
   30.926087   48.161831
   30.923374   48.163046
   30.921488   48.161775
   30.919671   48.161133
   30.913787   48.160176
   30.909706   48.159842
   30.907536   48.157332
   30.906315   48.156456
   30.903705   48.155337
   30.900886   48.154841
   30.897541   48.154992
   30.895112   48.155729
   30.892344   48.158094
   30.891002   48.160664
   30.889457   48.160802
   30.881730   48.160157
   30.878319   48.157858
   30.873283   48.156599
   30.870189   48.156673
   30.867159   48.157488
   30.855586   48.156562
   30.853585   48.156660
   30.851715   48.157144
   30.849704   48.158315
   30.848526   48.159913
   30.843153   48.179043
   30.828487   48.177107
   30.826504   48.177170
   30.824520   48.177660
   30.820986   48.176033
   30.819927   48.174998
   30.819567   48.173765
   30.820867   48.170674
   30.820592   48.168907
   30.819122   48.166848
   30.816564   48.165555
   30.811688   48.164969
   30.791391   48.163515
   30.788327   48.164417
   30.786939   48.165400
   30.786048   48.166612
   30.783159   48.179697
   30.780427   48.186477
   30.718735   48.181995
   30.716157   48.182500
   30.713675   48.183997
   30.712820   48.185220
   30.711545   48.189584
   30.685996   48.183650
   30.666022   48.182345
   30.654813   48.181292
   30.662848   48.173470
   30.663158   48.171288
   30.661895   48.169265
   30.660492   48.168330
   30.658745   48.167707
   30.639445   48.163089
   30.628792   48.162326
   30.628466   48.160914
   30.627723   48.159848
   30.627491   48.156547
   30.626473   48.154963
   30.621574   48.152254
   30.618432   48.151530
   30.608670   48.152275
   30.586472   48.152454
   30.584891   48.151444
   30.583165   48.150880
   30.578087   48.150400
   30.553586   48.151463
   30.551292   48.152340
   30.549676   48.153737
   30.546607   48.160947
   30.527954   48.172697
   30.509937   48.155345
   30.507902   48.154221
   30.504713   48.153679
   30.501518   48.154203
   30.499070   48.155671
   30.494915   48.160798
   30.493427   48.164281
   30.493350   48.165790
   30.492053   48.165611
   30.487226   48.163816
   30.482435   48.162531
   30.477275   48.162343
   30.475975   48.160710
   30.473903   48.159458
   30.470529   48.158511
   30.468655   48.158342
   30.464407   48.159091
   30.460457   48.161369
   30.452985   48.163502
   30.449274   48.165200
   30.446500   48.164863
   30.443206   48.165002
   30.441471   48.165432
   30.437180   48.167367
   30.433946   48.163478
   30.431439   48.161955
   30.429412   48.161184
   30.418847   48.158920
   30.413061   48.158568
   30.405415   48.159959
   30.392734   48.161007
   30.388539   48.161891
   30.385661   48.163080
   30.383351   48.164785
   30.381983   48.166895
   30.381042   48.170257
   30.376830   48.169858
   30.370534   48.170167
   30.368775   48.170059
   30.368186   48.168916
   30.366568   48.167388
   30.362870   48.165482
   30.351575   48.163691
   30.348532   48.161064
   30.344798   48.159036
   30.342538   48.158359
   30.339881   48.157101
   30.335577   48.156458
   30.333051   48.156665
   30.332748   48.152775
   30.334495   48.150582
   30.334837   48.149183
   30.334748   48.147285
   30.333973   48.145573
   30.327370   48.140495
   30.324326   48.138703
   30.320784   48.137095
   30.317800   48.136289
   30.314377   48.136314
   30.309786   48.137420
   30.306265   48.137653
   30.304161   48.138407
   30.301058   48.138581
   30.296834   48.137757
   30.290693   48.136080
   30.285095   48.135849
   30.279515   48.136981
   30.273734   48.140000
   30.266360   48.142651
   30.263199   48.143210
   30.260661   48.141627
   30.255873   48.139414
   30.252672   48.138676
   30.248831   48.138238
   30.247063   48.137166
   30.245161   48.136577
   30.241254   48.136364
   30.237895   48.137079
   30.231597   48.139419
   30.228756   48.140131
   30.223210   48.140232
   30.218922   48.140836
   30.215337   48.141968
   30.212292   48.143386
   30.198979   48.144416
   30.194578   48.145185
   30.190826   48.146754
   30.187498   48.149346
   30.182648   48.146830
   30.175560   48.145616
   30.172973   48.144197
   30.170431   48.142123
   30.167440   48.141143
   30.164411   48.140807
   30.161372   48.141223
   30.158024   48.140484
   30.155119   48.139380
   30.151223   48.139038
   30.148285   48.139549
   30.141710   48.142218
   30.138143   48.142258
   30.134500   48.142981
   30.128045   48.143047
   30.125967   48.142539
   30.120684   48.140377
   30.117379   48.140071
   30.115099   48.140187
   30.113915   48.139888
   30.113035   48.138045
   30.111219   48.136688
   30.108611   48.135739
   30.105798   48.135518
   30.102531   48.135938
   30.099286   48.137365
   30.096331   48.137323
   30.091819   48.138063
   30.088350   48.139214
   30.086670   48.140127
   30.080613   48.141021
   30.076599   48.142549
   30.075974   48.142555
   30.073279   48.141268
   30.071285   48.140754
   30.068832   48.140494
   30.065921   48.140850
   30.063551   48.141669
   30.060766   48.143459
   30.057627   48.146648
   30.053795   48.145684
   30.049751   48.145606
   30.045997   48.146448
   30.042877   48.148076
   30.040978   48.149591
   30.036807   48.153994
   30.035628   48.156306
   30.034726   48.161750
   30.034005   48.162840
   30.029325   48.166268
   30.026245   48.170411
   30.025212   48.173979
   30.025754   48.176212
   30.022809   48.177727
   30.018490   48.181644
   30.015642   48.179405
   30.013438   48.178330
   30.010207   48.177661
   30.007531   48.177604
   30.004012   48.177989
   30.000804   48.179109
   29.997435   48.180981
   29.996353   48.181972
   29.994675   48.184846
   29.994753   48.189555
   29.993290   48.194415
   29.993298   48.195898
   29.994002   48.197559
   29.995416   48.199372
   30.000670   48.204016
   30.002085   48.208208
   29.994579   48.213664
   29.988249   48.216093
   29.986493   48.217423
   29.985063   48.219417
   29.980138   48.213703
   29.977350   48.212555
   29.974081   48.212414
   29.964494   48.215605
   29.933115   48.227115
   29.908785   48.197864
   29.897949   48.183903
   29.895533   48.182182
   29.892602   48.181337
   29.883986   48.181860
   29.872917   48.183765
   29.871100   48.184395
   29.869083   48.185697
   29.868129   48.186905
   29.867771   48.188703
   29.868250   48.190079
   29.867011   48.191636
   29.864871   48.192404
   29.860187   48.195022
   29.857586   48.197636
   29.856343   48.200260
   29.855222   48.201672
   29.848012   48.205586
   29.840681   48.207984
   29.833374   48.207037
   29.820470   48.203448
   29.815877   48.203327
   29.812371   48.202861
   29.809304   48.202115
   29.794841   48.196855
   29.792261   48.196813
   29.790413   48.197210
   29.781786   48.200783
   29.778493   48.202969
   29.777242   48.204668
   29.774979   48.206146
   29.772967   48.210393
   29.767457   48.215363
   29.766769   48.216964
   29.766712   48.220039
   29.764232   48.225465
   29.764073   48.227253
   29.764588   48.228576
   29.766797   48.231276
   29.769237   48.232611
   29.770403   48.234011
   29.770888   48.235506
   29.775102   48.242465
   29.772962   48.245821
   29.764211   48.255626
   29.764029   48.257363
   29.764551   48.258626
   29.765592   48.259736
   29.767597   48.260830
   29.764108   48.267609
   29.763942   48.269611
   29.762326   48.270673
   29.761355   48.272001
   29.757244   48.273152
   29.753918   48.275030
   29.752326   48.277468
   29.752041   48.278850
   29.749530   48.280130
   29.748063   48.281527
   29.747475   48.283188
   29.747594   48.285084
   29.745566   48.285684
   29.743686   48.286929
   29.742665   48.288561
END
END
