kyiv-city
1
   30.229097   50.426982
   30.229414   50.430409
   30.230882   50.433341
   30.235484   50.437303
   30.236363   50.440120
   30.238236   50.441869
   30.234061   50.446325
   30.232490   50.449070
   30.232308   50.450381
   30.233099   50.453594
   30.235083   50.457200
   30.237322   50.459758
   30.242513   50.465010
   30.245120   50.466610
   30.247926   50.469364
   30.245885   50.470000
   30.243851   50.471248
   30.242699   50.472347
   30.242092   50.473612
   30.242882   50.478375
   30.244404   50.480566
   30.244254   50.483091
   30.245026   50.486364
   30.246461   50.488709
   30.248707   50.490218
   30.252100   50.491251
   30.256090   50.491109
   30.257541   50.491841
   30.258378   50.492826
   30.258228   50.494262
   30.258717   50.495536
   30.263186   50.499757
   30.263275   50.500534
   30.258850   50.503166
   30.253731   50.508170
   30.253180   50.509434
   30.253218   50.510747
   30.254749   50.513540
   30.258239   50.517581
   30.260251   50.518898
   30.261457   50.520292
   30.264538   50.522184
   30.266553   50.522942
   30.268103   50.524201
   30.271241   50.525534
   30.273623   50.525985
   30.276497   50.526015
   30.278974   50.526767
   30.281532   50.528573
   30.283173   50.529310
   30.283730   50.530807
   30.286251   50.534538
   30.287798   50.535978
   30.290728   50.537079
   30.296165   50.537488
   30.297186   50.543015
   30.294775   50.546635
   30.291670   50.549032
   30.290474   50.551100
   30.291251   50.555677
   30.293013   50.557601
   30.294697   50.558407
   30.296677   50.558859
   30.299470   50.558846
   30.301731   50.558274
   30.305512   50.559148
   30.311825   50.559751
   30.313840   50.559427
   30.315620   50.558741
   30.323038   50.554226
   30.323699   50.555153
   30.324190   50.557560
   30.319935   50.560208
   30.318657   50.562249
   30.303769   50.566551
   30.301672   50.567707
   30.300646   50.568868
   30.300194   50.570170
   30.300353   50.571500
   30.301111   50.572743
   30.302931   50.574079
   30.305412   50.574863
   30.338065   50.578306
   30.363651   50.578150
   30.363904   50.587414
   30.365405   50.589399
   30.368192   50.590693
   30.370909   50.591015
   30.447175   50.590328
   30.461249   50.588707
   30.463365   50.588865
   30.466049   50.588457
   30.468729   50.587078
   30.469934   50.585487
   30.470898   50.576593
   30.481482   50.576788
   30.484158   50.576496
   30.486465   50.575577
   30.489240   50.573268
   30.494398   50.571313
   30.498095   50.570397
   30.499566   50.569427
   30.500713   50.567785
   30.502077   50.560762
   30.502939   50.558572
   30.506991   50.554886
   30.512168   50.552379
   30.521402   50.549142
   30.528145   50.546434
   30.530491   50.545135
   30.534080   50.544686
   30.535895   50.544167
   30.539295   50.541733
   30.543104   50.539830
   30.546257   50.537775
   30.547578   50.539336
   30.549793   50.540973
   30.551918   50.543431
   30.554122   50.544413
   30.556739   50.544796
   30.565318   50.543558
   30.573028   50.542978
   30.575933   50.542098
   30.594656   50.540827
   30.627806   50.539333
   30.648712   50.539121
   30.649063   50.540273
   30.651053   50.543149
   30.653952   50.545769
   30.655581   50.548033
   30.656206   50.551169
   30.657924   50.553722
   30.659879   50.555141
   30.666443   50.557641
   30.669598   50.558484
   30.672450   50.558452
   30.678002   50.559857
   30.694089   50.565887
   30.697345   50.566501
   30.700672   50.566069
   30.703299   50.564690
   30.704617   50.562684
   30.704932   50.559597
   30.706122   50.559675
   30.704317   50.569096
   30.702586   50.570185
   30.701654   50.571350
   30.701281   50.572638
   30.701500   50.573941
   30.703381   50.576590
   30.712624   50.585652
   30.710645   50.589185
   30.710879   50.590729
   30.711616   50.591994
   30.714380   50.593936
   30.716677   50.594864
   30.718616   50.595271
   30.725278   50.594826
   30.754445   50.587915
   30.766307   50.588432
   30.768941   50.588123
   30.770693   50.587487
   30.772462   50.586198
   30.775500   50.580932
   30.776162   50.581033
   30.779337   50.583484
   30.781093   50.584176
   30.783772   50.584540
   30.786466   50.584222
   30.788768   50.583270
   30.791053   50.581312
   30.793505   50.580287
   30.796347   50.577268
   30.801036   50.574000
   30.816135   50.569865
   30.818489   50.568162
   30.821145   50.566954
   30.822498   50.565467
   30.823062   50.562937
   30.822335   50.561178
   30.823606   50.560180
   30.824409   50.558920
   30.828219   50.540518
   30.829734   50.539051
   30.830327   50.537791
   30.830197   50.536042
   30.829041   50.534456
   30.827032   50.533271
   30.820179   50.530952
   30.810791   50.529331
   30.805768   50.527002
   30.801192   50.525789
   30.796820   50.525220
   30.785844   50.522748
   30.776369   50.519571
   30.774052   50.518532
   30.767714   50.516773
   30.764959   50.516325
   30.767268   50.514626
   30.768547   50.512673
   30.768969   50.508852
   30.767977   50.506714
   30.765512   50.505140
   30.757727   50.502883
   30.757212   50.500541
   30.756125   50.499414
   30.754575   50.498537
   30.752022   50.497884
   30.748217   50.497653
   30.746478   50.496909
   30.746618   50.496480
   30.750382   50.495919
   30.752657   50.494616
   30.756050   50.494626
   30.759069   50.493612
   30.762143   50.490845
   30.766807   50.484226
   30.766805   50.482863
   30.766169   50.481562
   30.763881   50.479846
   30.760891   50.478986
   30.756319   50.478370
   30.754187   50.478452
   30.756508   50.475962
   30.756944   50.474686
   30.756781   50.473352
   30.759060   50.471944
   30.760399   50.470404
   30.760717   50.468652
   30.759769   50.464725
   30.761221   50.463284
   30.761703   50.461976
   30.761380   50.460201
   30.760442   50.458999
   30.758995   50.458027
   30.756002   50.456797
   30.764674   50.451800
   30.781408   50.446786
   30.782792   50.445786
   30.783819   50.444135
   30.783417   50.441195
   30.790281   50.438278
   30.794085   50.438103
   30.797187   50.436941
   30.801260   50.433759
   30.802457   50.432404
   30.807047   50.429645
   30.808346   50.428031
   30.808607   50.426675
   30.808255   50.425399
   30.809066   50.423957
   30.809099   50.422185
   30.807431   50.418851
   30.805887   50.417475
   30.809082   50.415244
   30.812340   50.415088
   30.816622   50.413507
   30.823933   50.412520
   30.826369   50.411549
   30.830642   50.408381
   30.832407   50.406660
   30.833351   50.404660
   30.832996   50.402531
   30.831626   50.401054
   30.829219   50.399596
   30.828243   50.396598
   30.824509   50.391810
   30.820394   50.389394
   30.815385   50.387596
   30.811953   50.387408
   30.800029   50.388713
   30.793651   50.390192
   30.788728   50.392823
   30.782483   50.391624
   30.782869   50.390734
   30.786416   50.387981
   30.787333   50.386742
   30.787584   50.384927
   30.786697   50.383195
   30.782723   50.379632
   30.781231   50.378801
   30.778798   50.378165
   30.770580   50.377098
   30.770268   50.375866
   30.768333   50.372907
   30.766613   50.371566
   30.764872   50.370890
   30.762222   50.370533
   30.753837   50.370960
   30.744976   50.367807
   30.742791   50.367459
   30.739882   50.367501
   30.728929   50.369846
   30.723290   50.371599
   30.720915   50.373146
   30.720002   50.374809
   30.719950   50.373706
   30.721313   50.372437
   30.721897   50.371190
   30.722152   50.369381
   30.721820   50.368019
   30.720179   50.365767
   30.716904   50.363760
   30.720084   50.359811
   30.720696   50.358208
   30.720696   50.355587
   30.719464   50.352696
   30.717644   50.350193
   30.715907   50.348829
   30.699470   50.343077
   30.696769   50.342727
   30.694065   50.343067
   30.691771   50.344046
   30.690053   50.345841
   30.682654   50.348592
   30.676158   50.348614
   30.672133   50.350010
   30.668296   50.352193
   30.667263   50.353350
   30.666799   50.354714
   30.664924   50.355588
   30.662677   50.357390
   30.661647   50.359094
   30.661917   50.361271
   30.654392   50.358471
   30.645789   50.357726
   30.645888   50.353727
   30.645287   50.352448
   30.644302   50.344530
   30.643483   50.343038
   30.647930   50.340274
   30.648789   50.339060
   30.649059   50.337738
   30.648159   50.335607
   30.646361   50.334261
   30.644554   50.333601
   30.641831   50.333297
   30.634046   50.333916
   30.632156   50.334376
   30.630098   50.335485
   30.627820   50.337693
   30.625240   50.338877
   30.622566   50.342003
   30.623224   50.340520
   30.623210   50.339212
   30.621653   50.337006
   30.628691   50.329876
   30.630385   50.326973
   30.632476   50.321235
   30.633697   50.319516
   30.636680   50.316571
   30.642702   50.312351
   30.648304   50.306460
   30.650092   50.303204
   30.652920   50.299800
   30.653814   50.296252
   30.655070   50.294415
   30.675721   50.283710
   30.676882   50.282771
   30.679030   50.279897
   30.679424   50.278032
   30.678420   50.274808
   30.675410   50.272050
   30.670419   50.270028
   30.664038   50.269531
   30.663629   50.267307
   30.661991   50.265271
   30.659913   50.264176
   30.656671   50.263631
   30.653638   50.263916
   30.651637   50.264517
   30.647126   50.267871
   30.643470   50.271822
   30.641805   50.276065
   30.630617   50.275869
   30.619404   50.276161
   30.621727   50.274423
   30.622653   50.273214
   30.623179   50.271573
   30.623200   50.268765
   30.630137   50.266863
   30.632742   50.264861
   30.633455   50.262795
   30.632435   50.260519
   30.632479   50.258617
   30.634428   50.257433
   30.639119   50.253064
   30.640318   50.248649
   30.648077   50.244432
   30.650806   50.242662
   30.651877   50.241520
   30.652384   50.240228
   30.652486   50.237323
   30.651890   50.235562
   30.649732   50.233796
   30.646502   50.232812
   30.650213   50.227577
   30.650597   50.226311
   30.650407   50.225026
   30.648880   50.223127
   30.646776   50.222068
   30.596271   50.209132
   30.592960   50.208723
   30.590198   50.209004
   30.587823   50.209951
   30.585957   50.211837
   30.584021   50.221676
   30.583633   50.229537
   30.579403   50.244120
   30.571273   50.254817
   30.567642   50.255008
   30.565788   50.255620
   30.564294   50.256554
   30.563083   50.258154
   30.562642   50.261617
   30.561346   50.263889
   30.558709   50.266263
   30.556773   50.265472
   30.554754   50.265139
   30.552671   50.265199
   30.550243   50.265774
   30.537948   50.272511
   30.536566   50.273561
   30.535602   50.275281
   30.535625   50.276655
   30.540488   50.283279
   30.539937   50.286079
   30.533332   50.285692
   30.529900   50.286200
   30.526187   50.286310
   30.523085   50.287282
   30.521074   50.289080
   30.520585   50.290830
   30.521185   50.292565
   30.526246   50.297324
   30.526382   50.297823
   30.526381   50.299266
   30.525092   50.300607
   30.524605   50.302336
   30.524742   50.306912
   30.525812   50.312709
   30.525747   50.314326
   30.522971   50.315081
   30.516577   50.316054
   30.512851   50.317083
   30.507442   50.320516
   30.498146   50.317526
   30.496139   50.317343
   30.493494   50.317679
   30.491239   50.318626
   30.482510   50.324203
   30.481315   50.326270
   30.481846   50.329043
   30.473753   50.328911
   30.471771   50.329366
   30.470086   50.330176
   30.468558   50.331680
   30.467440   50.334188
   30.467369   50.335502
   30.468111   50.337824
   30.466246   50.342337
   30.466663   50.344336
   30.465993   50.348254
   30.463282   50.349300
   30.461702   50.350749
   30.461129   50.352921
   30.461917   50.355473
   30.461071   50.356180
   30.460723   50.356227
   30.459590   50.353704
   30.457439   50.351666
   30.455284   50.350589
   30.452652   50.350118
   30.439654   50.351766
   30.434699   50.352812
   30.432014   50.354121
   30.430748   50.355655
   30.430553   50.357908
   30.429402   50.358983
   30.428703   50.360624
   30.430064   50.365680
   30.424563   50.369208
   30.423586   50.370423
   30.423220   50.371771
   30.423498   50.373127
   30.424397   50.374367
   30.432982   50.381652
   30.426452   50.386548
   30.424253   50.386757
   30.421802   50.387520
   30.416839   50.390360
   30.415356   50.391922
   30.412273   50.393047
   30.410837   50.394252
   30.410114   50.395555
   30.401744   50.398120
   30.388836   50.402756
   30.366325   50.416742
   30.363293   50.419179
   30.361352   50.420091
   30.359045   50.422369
   30.358450   50.423672
   30.358502   50.425082
   30.353462   50.431988
   30.351706   50.440842
   30.349519   50.441384
   30.345548   50.441433
   30.330928   50.439732
   30.323407   50.437987
   30.320117   50.437826
   30.316876   50.438123
   30.314700   50.437885
   30.288470   50.441628
   30.285946   50.436851
   30.282772   50.432407
   30.283273   50.430301
   30.282505   50.428611
   30.281295   50.427539
   30.273990   50.422940
   30.272323   50.422221
   30.270406   50.421832
   30.267087   50.421993
   30.265283   50.422560
   30.258879   50.425954
   30.255428   50.423056
   30.248677   50.419477
   30.246212   50.418795
   30.244198   50.418702
   30.241606   50.419149
   30.231675   50.423311
   30.229871   50.424743
   30.229097   50.426982
END
END
