kyiv
1
   29.263576   51.269252
   29.265926   51.270265
   29.270029   51.270854
   29.296378   51.277400
   29.298613   51.278220
   29.301248   51.278464
   29.304189   51.278173
   29.306616   51.279648
   29.309215   51.280203
   29.313533   51.280273
   29.317874   51.279782
   29.321660   51.279989
   29.325309   51.280902
   29.327489   51.282388
   29.330080   51.283060
   29.332181   51.283106
   29.334208   51.282750
   29.337225   51.281798
   29.338708   51.280899
   29.339728   51.279764
   29.340225   51.278050
   29.339911   51.276755
   29.338996   51.275483
   29.349817   51.278123
   29.353248   51.281527
   29.358271   51.287395
   29.353285   51.288633
   29.351166   51.289578
   29.348711   51.292097
   29.348470   51.294221
   29.349393   51.295824
   29.358640   51.305634
   29.345017   51.312934
   29.343601   51.313966
   29.342500   51.316131
   29.343379   51.319274
   29.340937   51.321845
   29.340311   51.323084
   29.340259   51.324387
   29.340787   51.325645
   29.342311   51.327074
   29.344527   51.328157
   29.353584   51.329624
   29.365966   51.330912
   29.374122   51.330413
   29.388239   51.331459
   29.385924   51.340495
   29.386337   51.374101
   29.359825   51.371405
   29.357819   51.371510
   29.355371   51.372207
   29.353164   51.373814
   29.352356   51.375896
   29.352177   51.386034
   29.354356   51.389801
   29.355764   51.390961
   29.359636   51.393133
   29.362265   51.393740
   29.365649   51.393860
   29.367123   51.395074
   29.372058   51.401082
   29.377539   51.405189
   29.379234   51.406104
   29.386116   51.408186
   29.391702   51.411906
   29.393531   51.412514
   29.398911   51.413353
   29.411499   51.417804
   29.420738   51.419596
   29.423313   51.419484
   29.432663   51.417934
   29.453908   51.413196
   29.467125   51.408133
   29.472805   51.407075
   29.483239   51.404214
   29.493166   51.401984
   29.496194   51.404423
   29.498621   51.408438
   29.500000   51.412438
   29.503865   51.416029
   29.507351   51.421932
   29.508869   51.426200
   29.511193   51.427871
   29.515117   51.428836
   29.515597   51.432802
   29.516497   51.435797
   29.516497   51.437647
   29.512770   51.441781
   29.512126   51.443448
   29.514917   51.453583
   29.516245   51.455274
   29.522175   51.460004
   29.528665   51.464597
   29.529150   51.469912
   29.527796   51.473804
   29.527872   51.475213
   29.531215   51.480552
   29.532479   51.484458
   29.533668   51.485567
   29.535937   51.486606
   29.542027   51.487257
   29.544168   51.487067
   29.546119   51.486467
   29.560903   51.478441
   29.577505   51.470161
   29.580607   51.467580
   29.591702   51.470725
   29.600796   51.474801
   29.602263   51.476226
   29.602595   51.478496
   29.600241   51.481498
   29.599784   51.483629
   29.601665   51.487895
   29.601851   51.494233
   29.602673   51.495899
   29.604966   51.497500
   29.607480   51.498162
   29.612351   51.498221
   29.616102   51.497517
   29.619961   51.498250
   29.621499   51.499869
   29.622820   51.502627
   29.625012   51.505841
   29.627988   51.509027
   29.629478   51.509986
   29.632713   51.510827
   29.636178   51.510564
   29.643192   51.507766
   29.645807   51.505562
   29.649370   51.509376
   29.651029   51.510245
   29.653019   51.510753
   29.655154   51.510853
   29.660984   51.510157
   29.665456   51.508952
   29.667327   51.508029
   29.667178   51.510401
   29.667738   51.511698
   29.671996   51.515520
   29.673874   51.516308
   29.683201   51.518973
   29.689109   51.521857
   29.691943   51.522186
   29.694314   51.521921
   29.698347   51.522979
   29.703286   51.525557
   29.704341   51.528859
   29.705650   51.530427
   29.712858   51.533721
   29.715286   51.534371
   29.722481   51.534896
   29.729012   51.534021
   29.735436   51.535863
   29.738958   51.536021
   29.743724   51.535046
   29.745437   51.534222
   29.746686   51.533105
   29.747354   51.531798
   29.749788   51.522405
   29.753333   51.515813
   29.753220   51.514425
   29.751686   51.511335
   29.749427   51.509502
   29.751122   51.507843
   29.753118   51.503244
   29.753095   51.500791
   29.750465   51.496405
   29.748327   51.491006
   29.747116   51.489975
   29.745502   51.489205
   29.741586   51.488594
   29.742202   51.486897
   29.741839   51.481899
   29.747373   51.471979
   29.752165   51.467416
   29.753216   51.465824
   29.753348   51.464526
   29.752437   51.461103
   29.759083   51.458202
   29.772700   51.453615
   29.780638   51.452782
   29.788324   51.450993
   29.787539   51.459069
   29.789104   51.461074
   29.790709   51.461951
   29.792646   51.462483
   29.812386   51.464464
   29.815750   51.464270
   29.818094   51.463395
   29.819750   51.462014
   29.822476   51.455861
   29.833739   51.459061
   29.843811   51.462531
   29.847297   51.462849
   29.849985   51.462286
   29.852111   51.461087
   29.856269   51.457412
   29.857497   51.454697
   29.859944   51.454609
   29.867414   51.453489
   29.873140   51.451969
   29.871753   51.457649
   29.872420   51.459776
   29.873548   51.460867
   29.878827   51.464009
   29.881967   51.465305
   29.882587   51.469972
   29.883241   51.471549
   29.881049   51.472626
   29.879709   51.474088
   29.878619   51.478182
   29.878991   51.479919
   29.879935   51.481090
   29.881364   51.482036
   29.883156   51.482676
   29.885739   51.482982
   29.885887   51.484856
   29.887316   51.487308
   29.888973   51.488704
   29.891332   51.489589
   29.893351   51.489834
   29.903247   51.489935
   29.905582   51.491002
   29.911851   51.492405
   29.914567   51.492350
   29.916880   51.491706
   29.918326   51.491979
   29.921304   51.495078
   29.923994   51.496298
   29.926588   51.496617
   29.934345   51.496429
   29.937242   51.495336
   29.940951   51.492550
   29.948325   51.490420
   29.954277   51.486960
   29.955625   51.485493
   29.956034   51.483809
   29.954639   51.480745
   29.954214   51.479153
   29.954440   51.478284
   29.956297   51.476443
   29.957890   51.475881
   29.961760   51.475482
   29.963489   51.475737
   29.964830   51.476446
   29.965459   51.482522
   29.966148   51.484347
   29.968792   51.487718
   29.972008   51.489598
   29.974610   51.490492
   29.978489   51.491213
   29.983033   51.491371
   29.985882   51.491054
   29.988629   51.490304
   29.993086   51.488147
   29.999772   51.489959
   30.003190   51.492564
   30.004840   51.493342
   30.009808   51.494167
   30.010880   51.497327
   30.012608   51.498925
   30.009296   51.499674
   30.007200   51.500758
   30.005891   51.502269
   30.005559   51.503986
   30.006253   51.505658
   30.008615   51.507811
   30.010592   51.508958
   30.012435   51.509461
   30.015092   51.509576
   30.027230   51.507865
   30.031999   51.508005
   30.035662   51.508441
   30.037689   51.508282
   30.046980   51.504771
   30.052900   51.503148
   30.072218   51.503418
   30.085289   51.500465
   30.092512   51.499140
   30.110444   51.494374
   30.114126   51.492436
   30.117368   51.492001
   30.118486   51.492490
   30.113946   51.504815
   30.114928   51.506919
   30.117335   51.508477
   30.124645   51.510500
   30.128633   51.510560
   30.134088   51.509677
   30.137418   51.508328
   30.138884   51.507329
   30.139817   51.506093
   30.140660   51.503055
   30.151849   51.497006
   30.158196   51.494947
   30.161595   51.509908
   30.162962   51.511997
   30.165097   51.513193
   30.177978   51.516820
   30.180619   51.517036
   30.182579   51.516772
   30.184862   51.515892
   30.217430   51.496876
   30.242366   51.491908
   30.250907   51.489140
   30.274479   51.473515
   30.277881   51.471763
   30.285801   51.468524
   30.290020   51.468287
   30.293568   51.466654
   30.295518   51.465091
   30.296992   51.463135
   30.299707   51.461202
   30.302277   51.460382
   30.304105   51.459194
   30.311642   51.451686
   30.315029   51.449464
   30.317402   51.445868
   30.321859   51.444154
   30.325052   51.442199
   30.326103   51.441048
   30.328331   51.437000
   30.330268   51.436184
   30.332298   51.434531
   30.334306   51.433552
   30.339036   51.429887
   30.346519   51.428851
   30.353918   51.427284
   30.355739   51.426698
   30.357620   51.425446
   30.358721   51.423396
   30.358610   51.422089
   30.357921   51.420856
   30.355666   51.419244
   30.351753   51.418081
   30.352715   51.416615
   30.353747   51.413048
   30.355104   51.399946
   30.358023   51.392943
   30.360488   51.391594
   30.361640   51.390080
   30.362742   51.386168
   30.363742   51.384374
   30.364558   51.379034
   30.364384   51.377696
   30.362416   51.375144
   30.360555   51.373807
   30.358705   51.373171
   30.351127   51.371947
   30.349795   51.368415
   30.348427   51.366896
   30.335947   51.360619
   30.348025   51.354773
   30.390863   51.327056
   30.396723   51.324514
   30.397816   51.323492
   30.402828   51.316134
   30.415045   51.312541
   30.424880   51.310191
   30.430054   51.310533
   30.439198   51.312760
   30.443915   51.313002
   30.450765   51.311956
   30.465174   51.311031
   30.467089   51.310597
   30.468731   51.309830
   30.470506   51.307992
   30.470752   51.305835
   30.469219   51.303042
   30.465279   51.298564
   30.469793   51.295102
   30.471036   51.291770
   30.471104   51.290451
   30.470577   51.289175
   30.468141   51.286412
   30.462220   51.282330
   30.460112   51.281508
   30.461163   51.279546
   30.461245   51.278003
   30.463407   51.277561
   30.471009   51.279374
   30.488364   51.282508
   30.503898   51.284340
   30.507225   51.284005
   30.520968   51.276997
   30.524882   51.274594
   30.543247   51.266095
   30.545160   51.264355
   30.546563   51.260035
   30.547382   51.259268
   30.551625   51.257881
   30.560043   51.253646
   30.561616   51.252225
   30.564209   51.246409
   30.566536   51.243496
   30.568349   51.239122
   30.567984   51.234721
   30.564635   51.230448
   30.562949   51.229098
   30.556426   51.226319
   30.552412   51.225348
   30.547835   51.225100
   30.540724   51.227067
   30.529986   51.231556
   30.526726   51.231574
   30.523905   51.231106
   30.517464   51.229041
   30.513055   51.226345
   30.529231   51.212742
   30.537562   51.203105
   30.537780   51.201120
   30.537430   51.199270
   30.536171   51.196606
   30.532731   51.192929
   30.527085   51.188725
   30.537240   51.188590
   30.539813   51.188066
   30.541435   51.187281
   30.544710   51.185014
   30.546614   51.183076
   30.547719   51.181093
   30.548038   51.179349
   30.546875   51.176187
   30.545107   51.174779
   30.534504   51.170192
   30.529895   51.169178
   30.521638   51.168974
   30.506893   51.171797
   30.505740   51.171773
   30.503526   51.171227
   30.497504   51.164015
   30.497069   51.145629
   30.498550   51.140544
   30.501411   51.134155
   30.505636   51.129880
   30.517968   51.121665
   30.523207   51.114894
   30.524177   51.111667
   30.522351   51.104143
   30.519821   51.100567
   30.517314   51.098661
   30.512867   51.097183
   30.502453   51.096348
   30.490878   51.092173
   30.489404   51.090660
   30.489812   51.089691
   30.497030   51.087345
   30.513416   51.080561
   30.515028   51.079026
   30.517068   51.074532
   30.516783   51.067664
   30.513779   51.061894
   30.501052   51.048556
   30.500286   51.046155
   30.504350   51.041838
   30.507333   51.036466
   30.508801   51.029691
   30.508007   51.023916
   30.514831   51.024115
   30.574429   51.030419
   30.600890   51.031979
   30.602988   51.031761
   30.605448   51.030867
   30.606821   51.029824
   30.607787   51.028115
   30.609132   51.014062
   30.623951   51.014376
   30.626530   51.014119
   30.629261   51.012983
   30.631061   51.011073
   30.645641   51.006332
   30.647229   51.005442
   30.648337   51.004289
   30.649055   51.001574
   30.648462   50.999121
   30.654971   50.986940
   30.655370   50.985289
   30.655300   50.982182
   30.654236   50.977750
   30.653177   50.975745
   30.651747   50.965000
   30.663753   50.954824
   30.672834   50.939672
   30.673417   50.937582
   30.673234   50.935728
   30.678794   50.924318
   30.679356   50.921438
   30.681268   50.919245
   30.685896   50.910548
   30.688459   50.906847
   30.693951   50.907370
   30.697237   50.907196
   30.699847   50.906473
   30.701889   50.905040
   30.717313   50.903411
   30.720174   50.902145
   30.721782   50.900041
   30.724579   50.899186
   30.727835   50.899842
   30.731121   50.900013
   30.733107   50.899892
   30.735589   50.899256
   30.738931   50.897719
   30.740203   50.896682
   30.741910   50.893634
   30.741987   50.891497
   30.746020   50.889761
   30.753714   50.887401
   30.756174   50.886142
   30.757545   50.884942
   30.759935   50.884049
   30.762030   50.882687
   30.766135   50.882127
   30.769017   50.880432
   30.772146   50.879789
   30.776454   50.877698
   30.777754   50.876657
   30.778525   50.875417
   30.778621   50.873642
   30.777985   50.872371
   30.776676   50.871198
   30.777447   50.869311
   30.780606   50.867074
   30.781785   50.865568
   30.782432   50.863831
   30.783343   50.857191
   30.782970   50.855217
   30.781900   50.853186
   30.780232   50.851852
   30.777858   50.850898
   30.777399   50.849957
   30.777660   50.848588
   30.780653   50.845062
   30.780765   50.843123
   30.780152   50.841174
   30.783768   50.833957
   30.783612   50.830530
   30.780628   50.826652
   30.778021   50.824762
   30.775130   50.823474
   30.775338   50.821645
   30.777166   50.818871
   30.777122   50.816319
   30.774953   50.813743
   30.768359   50.808568
   30.764774   50.806635
   30.761705   50.805931
   30.754320   50.805860
   30.752360   50.806147
   30.750603   50.806781
   30.751157   50.803987
   30.750216   50.801445
   30.751513   50.798510
   30.750955   50.796443
   30.753643   50.793940
   30.754394   50.791363
   30.753082   50.788250
   30.750624   50.784702
   30.748751   50.783483
   30.744555   50.782220
   30.745228   50.780195
   30.744638   50.778481
   30.749373   50.778899
   30.754095   50.780152
   30.758320   50.780185
   30.759494   50.781974
   30.761492   50.783185
   30.765839   50.784144
   30.768630   50.784260
   30.771985   50.783741
   30.773829   50.783117
   30.775610   50.781883
   30.778106   50.780884
   30.779756   50.779305
   30.794258   50.776554
   30.800577   50.774035
   30.803139   50.773815
   30.808376   50.774338
   30.811398   50.773991
   30.814167   50.773485
   30.817568   50.772337
   30.821352   50.770399
   30.832024   50.769172
   30.833480   50.770465
   30.835757   50.771400
   30.835091   50.773842
   30.835826   50.778065
   30.836889   50.779885
   30.843993   50.786038
   30.846442   50.786808
   30.850490   50.787062
   30.852594   50.786945
   30.855073   50.786207
   30.856953   50.787376
   30.860072   50.788556
   30.863596   50.789318
   30.865917   50.790221
   30.870502   50.790652
   30.873755   50.790154
   30.875401   50.789402
   30.876647   50.788380
   30.880288   50.783200
   30.880649   50.781471
   30.879965   50.779782
   30.878338   50.778385
   30.874970   50.776869
   30.864913   50.775215
   30.856314   50.771986
   30.854423   50.771615
   30.852299   50.771609
   30.853573   50.767211
   30.853375   50.765426
   30.850889   50.762554
   30.847825   50.760451
   30.847582   50.759884
   30.850553   50.757719
   30.851509   50.756562
   30.852145   50.754259
   30.851931   50.752909
   30.850705   50.751288
   30.848591   50.750103
   30.845925   50.749544
   30.841735   50.749483
   30.842859   50.748595
   30.863221   50.749048
   30.868045   50.749942
   30.867734   50.755093
   30.870707   50.770177
   30.871754   50.771286
   30.873247   50.772159
   30.885443   50.777449
   30.887985   50.778133
   30.891412   50.778028
   30.893286   50.777458
   30.894819   50.776561
   30.898135   50.772697
   30.899165   50.769931
   30.906110   50.769552
   30.907934   50.769154
   30.935972   50.768039
   30.938390   50.767307
   30.940209   50.766048
   30.941167   50.764444
   30.941105   50.762424
   30.946491   50.761947
   30.951100   50.766524
   30.952767   50.767335
   30.955422   50.767862
   30.976960   50.766495
   30.988920   50.767346
   31.013909   50.769972
   31.016657   50.769545
   31.019257   50.768186
   31.023646   50.768261
   31.026552   50.768009
   31.032235   50.766617
   31.038962   50.767990
   31.063873   50.769083
   31.068787   50.782786
   31.070891   50.784576
   31.074073   50.785495
   31.076180   50.785524
   31.104529   50.783131
   31.107355   50.782243
   31.128535   50.778789
   31.130967   50.778051
   31.133118   50.776399
   31.133836   50.774294
   31.131393   50.766768
   31.130112   50.760963
   31.129332   50.759339
   31.128801   50.752225
   31.129556   50.751952
   31.142133   50.751247
   31.144800   50.750468
   31.152261   50.745164
   31.153239   50.743915
   31.153646   50.742338
   31.157352   50.742244
   31.160072   50.741627
   31.172538   50.735458
   31.173682   50.734303
   31.174279   50.732524
   31.173979   50.731168
   31.172652   50.729397
   31.191630   50.729046
   31.193587   50.728700
   31.195308   50.728009
   31.196994   50.726654
   31.197763   50.724990
   31.197777   50.708797
   31.205272   50.710560
   31.207285   50.710502
   31.209774   50.709862
   31.211709   50.708669
   31.212811   50.707098
   31.213298   50.701354
   31.218512   50.701540
   31.221166   50.701139
   31.223827   50.699784
   31.225191   50.697784
   31.225240   50.696466
   31.223751   50.692092
   31.227402   50.685077
   31.228640   50.676006
   31.228868   50.671006
   31.230512   50.668461
   31.230457   50.666265
   31.229638   50.665047
   31.227765   50.663759
   31.217770   50.660014
   31.209183   50.653418
   31.208675   50.652882
   31.206370   50.645596
   31.211447   50.640026
   31.231220   50.630853
   31.233444   50.629144
   31.234130   50.626960
   31.233445   50.625225
   31.227093   50.620514
   31.233815   50.615558
   31.234723   50.613850
   31.234521   50.612050
   31.228496   50.604338
   31.226607   50.603075
   31.224113   50.602369
   31.206986   50.602011
   31.204680   50.601734
   31.197667   50.602848
   31.172808   50.602879
   31.172477   50.593664
   31.188254   50.593423
   31.190815   50.592902
   31.192431   50.592123
   31.193637   50.591081
   31.194440   50.589432
   31.194724   50.578807
   31.215598   50.577861
   31.217466   50.577351
   31.219029   50.576519
   31.220157   50.575434
   31.220775   50.574079
   31.238387   50.573549
   31.240980   50.572959
   31.243288   50.571520
   31.247728   50.571495
   31.250875   50.570580
   31.252296   50.569598
   31.253382   50.567956
   31.252957   50.562941
   31.254148   50.561457
   31.257264   50.561653
   31.262510   50.560568
   31.265173   50.559198
   31.266376   50.557616
   31.266607   50.556300
   31.265867   50.552083
   31.265820   50.547616
   31.263499   50.544477
   31.265079   50.543521
   31.269158   50.542752
   31.272087   50.541729
   31.278133   50.541078
   31.289025   50.538704
   31.291238   50.538702
   31.295946   50.538056
   31.301965   50.535916
   31.309259   50.535007
   31.313865   50.533642
   31.318330   50.533213
   31.323525   50.531716
   31.326106   50.530061
   31.327073   50.528786
   31.329017   50.515528
   31.331910   50.510223
   31.340731   50.518205
   31.343115   50.519348
   31.350707   50.530003
   31.352626   50.532133
   31.354876   50.533285
   31.361813   50.535104
   31.363794   50.535375
   31.367097   50.534997
   31.370013   50.533445
   31.376367   50.531735
   31.380398   50.532045
   31.386651   50.531146
   31.392730   50.528744
   31.399655   50.527642
   31.402420   50.526860
   31.411972   50.522647
   31.417762   50.521019
   31.420287   50.519490
   31.421135   50.518258
   31.421335   50.516548
   31.423181   50.515351
   31.424217   50.513843
   31.426423   50.512164
   31.428084   50.509165
   31.427944   50.507177
   31.438271   50.505939
   31.438789   50.507708
   31.440258   50.509156
   31.441860   50.509949
   31.443746   50.510416
   31.447723   50.510436
   31.449247   50.513085
   31.451606   50.514667
   31.477589   50.519456
   31.485887   50.522784
   31.486183   50.524380
   31.487068   50.525569
   31.488449   50.526543
   31.490208   50.527220
   31.493565   50.527545
   31.499733   50.526451
   31.503929   50.526973
   31.511004   50.527261
   31.513013   50.527033
   31.514950   50.526386
   31.515909   50.537847
   31.516806   50.539023
   31.518189   50.539985
   31.521245   50.540903
   31.525108   50.540787
   31.528077   50.539617
   31.529588   50.538104
   31.531080   50.534729
   31.534481   50.533909
   31.536126   50.533209
   31.543410   50.527274
   31.546135   50.526825
   31.548010   50.526023
   31.550508   50.525811
   31.555567   50.524642
   31.558551   50.524815
   31.560885   50.524430
   31.562243   50.525115
   31.562721   50.525588
   31.563584   50.528847
   31.564868   50.530482
   31.567766   50.532049
   31.571036   50.532605
   31.602271   50.528875
   31.630409   50.526358
   31.634442   50.528136
   31.638919   50.532931
   31.639644   50.552759
   31.639971   50.554035
   31.641247   50.555546
   31.642733   50.556416
   31.645190   50.557092
   31.650893   50.557253
   31.662341   50.558450
   31.665017   50.558233
   31.667788   50.557131
   31.670867   50.558623
   31.674732   50.564672
   31.676260   50.565607
   31.680625   50.567181
   31.684051   50.567925
   31.686120   50.568032
   31.689717   50.567199
   31.730133   50.564639
   31.773528   50.564078
   31.770216   50.576863
   31.770294   50.578605
   31.771391   50.580199
   31.773343   50.581408
   31.775197   50.581951
   31.780987   50.582669
   31.780865   50.590037
   31.775336   50.604968
   31.775453   50.606710
   31.776586   50.608294
   31.778007   50.609235
   31.779787   50.609874
   31.788401   50.610909
   31.792359   50.611006
   31.804599   50.610321
   31.803806   50.623988
   31.804877   50.626113
   31.807398   50.627648
   31.809361   50.628123
   31.844259   50.632894
   31.855949   50.636194
   31.858591   50.636574
   31.861885   50.636109
   31.864463   50.634710
   31.872276   50.624083
   31.875495   50.623636
   31.877702   50.622560
   31.886448   50.613036
   31.890803   50.613989
   31.893486   50.613747
   31.895294   50.613143
   31.903590   50.606480
   31.904560   50.604827
   31.904547   50.603265
   31.908219   50.602670
   31.915826   50.600369
   31.918475   50.598959
   31.919769   50.596911
   31.919639   50.593987
   31.922530   50.592090
   31.925858   50.587432
   31.926237   50.585707
   31.925749   50.584288
   31.926840   50.582200
   31.927073   50.580727
   31.928908   50.579391
   31.933934   50.577840
   31.937275   50.576026
   31.939945   50.573445
   31.942494   50.571761
   31.943399   50.570331
   31.945334   50.569697
   31.947164   50.568435
   31.950712   50.563847
   31.951409   50.560687
   31.954138   50.557685
   31.959918   50.549274
   31.960517   50.547501
   31.976583   50.544787
   32.026281   50.546183
   32.053332   50.546540
   32.065927   50.545024
   32.068242   50.544070
   32.069505   50.543017
   32.070237   50.541773
   32.070375   50.540446
   32.068672   50.528062
   32.067789   50.526829
   32.065809   50.525551
   32.059966   50.523927
   32.070058   50.513752
   32.070757   50.512082
   32.070608   50.510785
   32.069535   50.509199
   32.052428   50.493250
   32.049463   50.491931
   32.009345   50.482630
   32.007303   50.482368
   32.003923   50.482807
   32.001273   50.484226
   31.998753   50.488332
   31.997570   50.491699
   31.995262   50.490604
   31.992284   50.490168
   31.992766   50.487357
   31.991491   50.484259
   31.989111   50.481445
   31.986006   50.479666
   31.985355   50.478234
   31.983622   50.476478
   31.981033   50.475217
   31.979486   50.473841
   31.977947   50.472147
   31.978526   50.470560
   31.999426   50.467373
   32.002198   50.466453
   32.022954   50.463101
   32.025771   50.462271
   32.027861   50.461072
   32.030074   50.457793
   32.034402   50.437984
   32.044022   50.431707
   32.045990   50.429628
   32.047122   50.426945
   32.047063   50.424225
   32.051714   50.404970
   32.056461   50.402871
   32.068907   50.408658
   32.075831   50.411428
   32.094293   50.420285
   32.097668   50.420540
   32.100256   50.419984
   32.107423   50.415384
   32.108452   50.414197
   32.108887   50.412868
   32.108897   50.411387
   32.108093   50.409799
   32.103325   50.405967
   32.099080   50.403467
   32.093475   50.398759
   32.089973   50.395277
   32.085521   50.391894
   32.085935   50.391139
   32.088614   50.390283
   32.090084   50.389396
   32.091488   50.387449
   32.091338   50.385304
   32.089868   50.383492
   32.090945   50.381976
   32.091105   50.380184
   32.090501   50.378891
   32.089092   50.377342
   32.095138   50.376760
   32.098398   50.377477
   32.101274   50.380182
   32.103474   50.381316
   32.119557   50.384201
   32.121640   50.384099
   32.129710   50.382376
   32.137946   50.381444
   32.155980   50.380544
   32.158587   50.379880
   32.160948   50.378226
   32.167526   50.370279
   32.168029   50.368961
   32.167902   50.367606
   32.166779   50.365952
   32.161938   50.361544
   32.148815   50.352739
   32.149962   50.350138
   32.158720   50.339600
   32.159551   50.337516
   32.159067   50.335818
   32.149156   50.319610
   32.147289   50.318152
   32.138651   50.314589
   32.146514   50.306245
   32.146904   50.304077
   32.146039   50.302416
   32.143698   50.300837
   32.102746   50.283521
   32.100150   50.282844
   32.095702   50.282773
   32.096210   50.282501
   32.101293   50.282536
   32.103762   50.281837
   32.105983   50.280216
   32.107507   50.278173
   32.107931   50.276854
   32.107734   50.275514
   32.097424   50.248859
   32.104267   50.245692
   32.106163   50.244375
   32.106976   50.243130
   32.107182   50.241787
   32.106046   50.239542
   32.123577   50.231553
   32.124836   50.230020
   32.125136   50.228731
   32.124824   50.227068
   32.123898   50.225838
   32.122442   50.224842
   32.120589   50.224171
   32.116082   50.223932
   32.114612   50.218101
   32.113043   50.216671
   32.110748   50.215732
   32.107389   50.215452
   32.090180   50.216727
   32.062054   50.185223
   32.060185   50.184005
   32.058392   50.183436
   32.055754   50.183221
   32.046339   50.184174
   32.043087   50.184189
   32.039842   50.184935
   32.037199   50.186711
   32.027004   50.190955
   32.020087   50.195847
   32.017715   50.198835
   32.014946   50.200997
   32.002921   50.198555
   32.005115   50.197623
   32.006693   50.196123
   32.007230   50.194344
   32.006638   50.192573
   31.994853   50.181682
   31.987105   50.172513
   31.971789   50.149853
   31.970689   50.148706
   31.967865   50.147411
   31.964421   50.147143
   31.945543   50.151178
   31.950088   50.143344
   31.954912   50.145226
   31.957651   50.145672
   31.961093   50.145208
   31.963321   50.144091
   31.981306   50.127611
   31.982239   50.125946
   31.982107   50.124177
   31.980929   50.122576
   31.978886   50.121389
   31.918198   50.098110
   31.914933   50.062877
   31.917834   50.063045
   31.922411   50.064635
   31.925788   50.064950
   31.987932   50.056907
   31.989885   50.056453
   31.992009   50.055318
   31.993290   50.053745
   31.993530   50.051976
   31.986198   50.036922
   31.985142   50.035811
   31.983058   50.034715
   31.980487   50.034204
   31.977163   50.034491
   31.966745   50.038812
   31.930657   50.026421
   31.918815   50.024170
   31.913697   50.021569
   31.913767   50.019236
   31.912969   50.017989
   31.911745   50.017019
   31.913814   50.015884
   31.914883   50.014850
   31.916965   50.010212
   31.917156   50.006401
   31.918572   49.998862
   31.921640   49.997971
   31.923418   49.996637
   31.925385   49.991777
   31.925341   49.990466
   31.924714   49.989219
   31.923558   49.988140
   31.921770   49.987200
   31.922694   49.983495
   31.925160   49.961890
   31.924759   49.960088
   31.923849   49.958662
   31.907390   49.941382
   31.904922   49.939833
   31.901606   49.939224
   31.898875   49.939523
   31.896057   49.940801
   31.891702   49.946624
   31.889137   49.946904
   31.886965   49.947639
   31.884228   49.949867
   31.883005   49.952857
   31.882956   49.958276
   31.820884   49.961319
   31.820927   49.959446
   31.819993   49.957213
   31.801117   49.931481
   31.799591   49.930182
   31.788832   49.923384
   31.784698   49.922073
   31.777845   49.918376
   31.777350   49.917120
   31.780711   49.899012
   31.781010   49.893457
   31.779964   49.891343
   31.778070   49.890045
   31.774857   49.889241
   31.756424   49.888930
   31.727330   49.855142
   31.724790   49.853124
   31.724715   49.851616
   31.723671   49.850013
   31.720414   49.848227
   31.713855   49.846453
   31.710560   49.846225
   31.694990   49.848154
   31.667989   49.853038
   31.614833   49.852418
   31.612789   49.852588
   31.610910   49.853133
   31.608570   49.854731
   31.607675   49.856850
   31.610159   49.880063
   31.607740   49.883871
   31.602937   49.887080
   31.601789   49.889210
   31.601936   49.890569
   31.602704   49.891838
   31.604025   49.892902
   31.606311   49.894037
   31.605714   49.895615
   31.605630   49.901768
   31.588420   49.902078
   31.588288   49.897906
   31.587535   49.896635
   31.585740   49.895299
   31.584833   49.893195
   31.583069   49.891870
   31.581302   49.891215
   31.579317   49.890914
   31.575746   49.890917
   31.573574   49.885146
   31.572470   49.884034
   31.570756   49.883117
   31.568930   49.879939
   31.565923   49.878061
   31.564086   49.874129
   31.561910   49.871812
   31.559808   49.870755
   31.557292   49.870281
   31.554737   49.868738
   31.552848   49.868285
   31.550836   49.868196
   31.548429   49.868601
   31.546578   49.868331
   31.544521   49.868415
   31.542004   49.869111
   31.540359   49.870136
   31.537599   49.869465
   31.534903   49.868323
   31.525179   49.866284
   31.525627   49.862859
   31.524855   49.860539
   31.523163   49.858315
   31.520063   49.856168
   31.518400   49.855402
   31.518113   49.854508
   31.518968   49.852583
   31.520841   49.850102
   31.521487   49.847556
   31.521186   49.845913
   31.519643   49.843868
   31.516667   49.841769
   31.511545   49.840006
   31.501713   49.838823
   31.499693   49.839143
   31.496796   49.840302
   31.493203   49.843380
   31.491292   49.847083
   31.490076   49.851223
   31.489132   49.852872
   31.485179   49.852474
   31.482227   49.852843
   31.472609   49.856344
   31.469347   49.858525
   31.468159   49.860137
   31.464785   49.868837
   31.461719   49.868795
   31.459040   49.869402
   31.456953   49.870640
   31.455578   49.872397
   31.444329   49.872310
   31.442427   49.872701
   31.440300   49.873723
   31.427322   49.890556
   31.426046   49.897628
   31.417461   49.916893
   31.417921   49.936104
   31.418864   49.938292
   31.425975   49.945284
   31.424150   49.948399
   31.423932   49.951635
   31.424513   49.956109
   31.427105   49.963033
   31.433709   49.971972
   31.437568   49.974469
   31.431374   49.981097
   31.429213   49.982161
   31.424961   49.981946
   31.422198   49.982338
   31.420407   49.983079
   31.418923   49.984274
   31.417108   49.983437
   31.414144   49.982764
   31.409957   49.982772
   31.398598   49.984856
   31.393446   49.986645
   31.387421   49.987725
   31.382704   49.988197
   31.362402   49.985469
   31.357343   49.984181
   31.353382   49.983586
   31.350070   49.983431
   31.340402   49.983766
   31.333000   49.984767
   31.325688   49.979828
   31.320892   49.978225
   31.316992   49.977748
   31.309221   49.978054
   31.303971   49.977771
   31.309691   49.976095
   31.311093   49.975129
   31.312002   49.973943
   31.312338   49.972638
   31.312074   49.971327
   31.309257   49.967581
   31.312175   49.968075
   31.314893   49.967794
   31.323886   49.964328
   31.328103   49.963219
   31.330150   49.962170
   31.332809   49.961569
   31.338421   49.959459
   31.342936   49.957060
   31.345645   49.954716
   31.348203   49.953623
   31.351160   49.952996
   31.353158   49.951829
   31.354123   49.950681
   31.354539   49.949403
   31.354369   49.948102
   31.353629   49.946886
   31.351315   49.945318
   31.344051   49.942160
   31.341829   49.941544
   31.341391   49.939470
   31.347310   49.938647
   31.349727   49.937897
   31.351813   49.936801
   31.354064   49.934653
   31.358591   49.932710
   31.361070   49.930795
   31.365775   49.928143
   31.371165   49.923590
   31.376968   49.917290
   31.379203   49.915922
   31.386271   49.909494
   31.387189   49.907296
   31.386638   49.905503
   31.380587   49.896318
   31.378893   49.894986
   31.377177   49.894310
   31.372613   49.893913
   31.369419   49.892153
   31.366767   49.891544
   31.357122   49.891282
   31.346440   49.891527
   31.318994   49.888279
   31.318094   49.886065
   31.315748   49.884472
   31.296314   49.879509
   31.266168   49.855203
   31.264014   49.854052
   31.262029   49.853598
   31.259925   49.853542
   31.257080   49.853826
   31.254710   49.854648
   31.252993   49.855983
   31.248643   49.861124
   31.246830   49.862499
   31.233682   49.857284
   31.232519   49.856237
   31.230855   49.855414
   31.227075   49.854092
   31.224846   49.853737
   31.217988   49.851143
   31.215730   49.850747
   31.215646   49.849617
   31.219570   49.845513
   31.227410   49.834247
   31.228000   49.832962
   31.227980   49.831623
   31.198588   49.791579
   31.221355   49.780068
   31.222903   49.778672
   31.223469   49.777434
   31.223152   49.775308
   31.213030   49.756763
   31.217889   49.750676
   31.221617   49.743605
   31.223028   49.741665
   31.223867   49.739425
   31.223775   49.737875
   31.226382   49.736862
   31.228105   49.735406
   31.228857   49.734177
   31.228949   49.732423
   31.227995   49.730778
   31.226675   49.729767
   31.217307   49.726211
   31.210903   49.713493
   31.205529   49.704355
   31.213277   49.702640
   31.214913   49.701984
   31.217658   49.699710
   31.221243   49.698420
   31.222745   49.697529
   31.224013   49.695984
   31.224276   49.694245
   31.223495   49.692572
   31.220406   49.689520
   31.220393   49.688161
   31.219751   49.686862
   31.217426   49.683886
   31.216091   49.682875
   31.213715   49.681995
   31.211686   49.681758
   31.207260   49.682024
   31.204560   49.682833
   31.208963   49.676223
   31.209035   49.674405
   31.208348   49.673110
   31.160805   49.626572
   31.149128   49.611921
   31.142812   49.602909
   31.142911   49.600180
   31.139551   49.594750
   31.137100   49.587363
   31.154818   49.584926
   31.157710   49.583785
   31.159208   49.582322
   31.159729   49.580603
   31.158904   49.578486
   31.152028   49.573759
   31.155566   49.571344
   31.157528   49.568226
   31.158818   49.559049
   31.160311   49.557187
   31.160838   49.555881
   31.160336   49.553670
   31.158249   49.551883
   31.155088   49.550957
   31.150956   49.550810
   31.146949   49.551700
   31.145812   49.550027
   31.144467   49.549018
   31.142725   49.548304
   31.140046   49.547913
   31.137995   49.548074
   31.130213   49.549991
   31.123674   49.553491
   31.119793   49.552066
   31.117722   49.551918
   31.115640   49.552176
   31.115208   49.551606
   31.115635   49.550393
   31.115481   49.549020
   31.114938   49.547439
   31.114006   49.546266
   31.109937   49.543940
   31.105790   49.543407
   31.106474   49.542023
   31.106911   49.538918
   31.111290   49.533771
   31.111946   49.531282
   31.111460   49.529967
   31.110066   49.528260
   31.107066   49.526584
   31.108088   49.525039
   31.108346   49.523685
   31.107247   49.521023
   31.104989   49.519198
   31.101196   49.517990
   31.100723   49.517136
   31.101881   49.515789
   31.102441   49.513450
   31.101647   49.511676
   31.099960   49.510310
   31.102497   49.509736
   31.104599   49.508511
   31.106169   49.506183
   31.106534   49.504510
   31.104841   49.501079
   31.101998   49.499186
   31.102251   49.497061
   31.100516   49.494112
   31.098778   49.492751
   31.094861   49.491322
   31.094093   49.489567
   31.091815   49.487914
   31.086980   49.485810
   31.081030   49.483706
   31.078012   49.482037
   31.073768   49.480889
   31.070483   49.479381
   31.068079   49.478705
   31.066556   49.475919
   31.063445   49.474057
   31.059443   49.473199
   31.052790   49.473329
   31.048673   49.471391
   31.046534   49.470888
   31.051642   49.463096
   31.052005   49.461786
   31.051257   49.459625
   31.051247   49.456390
   31.050150   49.454861
   31.048261   49.453697
   31.045911   49.452937
   31.038853   49.451790
   31.036199   49.452129
   31.033824   49.453170
   31.029914   49.454108
   31.027406   49.455603
   31.025816   49.457740
   31.025665   49.460180
   31.026958   49.462165
   31.021189   49.457160
   31.020174   49.455775
   31.012327   49.449596
   31.013688   49.431279
   31.013234   49.429500
   31.011736   49.427976
   31.006910   49.425101
   30.998583   49.419221
   30.995475   49.418097
   30.988245   49.417766
   30.979713   49.418735
   30.957347   49.419272
   30.939173   49.415751
   30.932617   49.414137
   30.934453   49.412829
   30.941489   49.410293
   30.942866   49.409312
   30.943744   49.408116
   30.944046   49.406808
   30.943704   49.405246
   30.940945   49.399915
   30.941259   49.398738
   30.943329   49.396078
   30.943593   49.393888
   30.942955   49.392627
   30.941279   49.391233
   30.935231   49.388902
   30.937581   49.380880
   30.937450   49.379526
   30.936701   49.378257
   30.934863   49.376894
   30.931078   49.375492
   30.926743   49.374633
   30.924692   49.374589
   30.924149   49.374267
   30.917644   49.360514
   30.915586   49.357008
   30.914576   49.355849
   30.912503   49.354690
   30.909898   49.354130
   30.907159   49.354255
   30.893787   49.358459
   30.889230   49.358529
   30.888506   49.356831
   30.886794   49.355422
   30.882764   49.354219
   30.881161   49.352793
   30.879615   49.351962
   30.876214   49.351299
   30.875009   49.350724
   30.873454   49.348767
   30.870526   49.347224
   30.866646   49.346324
   30.861457   49.346935
   30.856513   49.348862
   30.841769   49.348147
   30.837813   49.346123
   30.834365   49.345648
   30.830167   49.346326
   30.827002   49.347965
   30.819621   49.350242
   30.817373   49.349356
   30.815277   49.349061
   30.801452   49.349396
   30.782911   49.340107
   30.780610   49.339332
   30.778028   49.339147
   30.752227   49.340394
   30.733122   49.328356
   30.730644   49.327533
   30.728563   49.327361
   30.726496   49.327592
   30.724627   49.328205
   30.714931   49.333657
   30.713443   49.333541
   30.711478   49.332515
   30.708864   49.331991
   30.706807   49.332045
   30.704269   49.332704
   30.701006   49.334397
   30.675629   49.350019
   30.673499   49.350001
   30.668908   49.350717
   30.664994   49.349566
   30.660221   49.349890
   30.658300   49.350555
   30.656341   49.351863
   30.654214   49.354465
   30.640586   49.351672
   30.637090   49.351765
   30.635181   49.352348
   30.608681   49.364039
   30.589212   49.347013
   30.587263   49.345853
   30.584123   49.345185
   30.578768   49.345627
   30.575435   49.346542
   30.573685   49.347485
   30.572348   49.348677
   30.570747   49.347201
   30.568801   49.346228
   30.567422   49.344089
   30.564936   49.342656
   30.563666   49.341299
   30.563310   49.338949
   30.561480   49.336847
   30.558864   49.335288
   30.557077   49.334761
   30.555023   49.334576
   30.553430   49.333711
   30.553682   49.332547
   30.555171   49.330950
   30.555584   49.329603
   30.553972   49.325016
   30.552952   49.323844
   30.551443   49.322917
   30.549578   49.322315
   30.547520   49.322092
   30.535491   49.323673
   30.528192   49.325231
   30.516038   49.323256
   30.513372   49.323475
   30.511564   49.324056
   30.492293   49.339248
   30.471643   49.358690
   30.462402   49.354660
   30.454736   49.353286
   30.452451   49.353205
   30.449692   49.350164
   30.447804   49.349129
   30.445842   49.348518
   30.448867   49.336451
   30.448541   49.334082
   30.446609   49.332128
   30.443693   49.330404
   30.440636   49.329320
   30.435776   49.328424
   30.421975   49.326797
   30.428061   49.303119
   30.427759   49.300884
   30.425825   49.299017
   30.424065   49.298272
   30.422041   49.297896
   30.403562   49.298635
   30.394956   49.269791
   30.392701   49.256307
   30.391959   49.255112
   30.390476   49.253884
   30.382175   49.234421
   30.380030   49.232769
   30.378247   49.232157
   30.376268   49.231896
   30.370158   49.232117
   30.367073   49.233177
   30.365424   49.234640
   30.364849   49.235948
   30.364903   49.237306
   30.366046   49.239973
   30.363919   49.239956
   30.361362   49.240528
   30.359771   49.241345
   30.358145   49.242910
   30.357415   49.244521
   30.357407   49.245746
   30.358169   49.247431
   30.358294   49.249503
   30.359500   49.251642
   30.331454   49.255180
   30.263529   49.266012
   30.260970   49.264385
   30.257731   49.263793
   30.251399   49.264659
   30.245665   49.264811
   30.240080   49.265935
   30.237527   49.265200
   30.235413   49.265106
   30.233353   49.265421
   30.227809   49.267276
   30.209959   49.268170
   30.196824   49.269243
   30.192586   49.269741
   30.185678   49.271395
   30.183404   49.273128
   30.182725   49.275353
   30.187508   49.294489
   30.188688   49.304436
   30.192459   49.323415
   30.148505   49.322226
   30.146467   49.322498
   30.144641   49.323143
   30.143190   49.324103
   30.142240   49.325292
   30.139215   49.313093
   30.137931   49.311121
   30.135969   49.309958
   30.133726   49.309385
   30.131279   49.307220
   30.129108   49.306146
   30.127148   49.305739
   30.124838   49.305735
   30.123140   49.304691
   30.121249   49.304115
   30.116513   49.304081
   30.116266   49.303823
   30.125777   49.298510
   30.127600   49.296633
   30.128141   49.294951
   30.127492   49.293006
   30.129676   49.290959
   30.130346   49.289344
   30.130355   49.281136
   30.129757   49.279488
   30.128720   49.278356
   30.126717   49.277149
   30.124936   49.276604
   30.124056   49.274446
   30.120180   49.268908
   30.115892   49.266420
   30.113971   49.265922
   30.111908   49.265805
   30.108638   49.266470
   30.104799   49.268649
   30.100659   49.269726
   30.098965   49.270467
   30.094149   49.273935
   30.090199   49.278415
   30.085498   49.280781
   30.082435   49.283369
   30.081457   49.285416
   30.081355   49.287549
   30.079771   49.290267
   30.079702   49.292997
   30.076286   49.295698
   30.074997   49.298808
   30.075482   49.301112
   30.077643   49.303405
   30.076637   49.305113
   30.076407   49.306904
   30.078660   49.311236
   30.073992   49.314899
   30.072729   49.316571
   30.071829   49.319146
   30.067463   49.321055
   30.060380   49.321393
   30.051707   49.322223
   30.031944   49.326965
   30.030211   49.327686
   30.028791   49.328738
   30.025279   49.325668
   30.023731   49.324828
   30.021215   49.324211
   30.016613   49.323968
   30.014030   49.313585
   30.012585   49.312061
   30.010336   49.311015
   30.007633   49.310610
   30.002367   49.311096
   29.985271   49.310920
   29.967022   49.303395
   29.963997   49.302417
   29.960932   49.301964
   29.958951   49.301976
   29.956467   49.302539
   29.953129   49.304755
   29.951787   49.302639
   29.961730   49.291666
   29.963277   49.288977
   29.964003   49.286307
   29.964468   49.261030
   29.963178   49.253527
   29.962268   49.250807
   29.959328   49.247601
   29.956761   49.246291
   29.938799   49.243946
   29.938630   49.242280
   29.936963   49.239641
   29.934626   49.237522
   29.926920   49.227877
   29.924912   49.226437
   29.913993   49.220946
   29.915813   49.218608
   29.915932   49.216185
   29.915485   49.214875
   29.913499   49.213059
   29.903287   49.207502
   29.904345   49.206138
   29.904651   49.204824
   29.904351   49.203509
   29.903470   49.202307
   29.902084   49.201322
   29.900312   49.200638
   29.887432   49.197680
   29.889110   49.196345
   29.889941   49.195123
   29.891767   49.188971
   29.891177   49.186966
   29.888190   49.183102
   29.885320   49.181826
   29.882552   49.181550
   29.858565   49.183814
   29.823268   49.174439
   29.820531   49.174097
   29.817802   49.174466
   29.815511   49.175488
   29.810262   49.181471
   29.761158   49.175204
   29.758406   49.175338
   29.755946   49.176143
   29.754525   49.177116
   29.731707   49.198276
   29.722226   49.205107
   29.720643   49.207038
   29.720651   49.209221
   29.721435   49.210440
   29.722731   49.211461
   29.725062   49.212369
   29.734143   49.214458
   29.733411   49.216609
   29.733791   49.218363
   29.735675   49.220205
   29.738032   49.221125
   29.738033   49.222438
   29.733372   49.224321
   29.729337   49.225495
   29.727604   49.226389
   29.722879   49.226884
   29.720506   49.227500
   29.710750   49.232925
   29.709648   49.234072
   29.709082   49.235828
   29.710357   49.239222
   29.710040   49.241661
   29.710779   49.244585
   29.701151   49.252506
   29.700181   49.250261
   29.699238   49.241907
   29.696552   49.235975
   29.694709   49.234157
   29.691762   49.233100
   29.689060   49.232974
   29.686485   49.233515
   29.661340   49.244822
   29.648726   49.241236
   29.639543   49.242037
   29.636642   49.242814
   29.633027   49.244758
   29.628570   49.248818
   29.622559   49.252675
   29.620333   49.255178
   29.616266   49.257177
   29.608131   49.262355
   29.606350   49.264252
   29.606080   49.266023
   29.606592   49.267320
   29.610571   49.271259
   29.607662   49.273854
   29.607164   49.275154
   29.607280   49.276491
   29.608898   49.279093
   29.611244   49.280995
   29.610157   49.282511
   29.609076   49.285674
   29.605621   49.287408
   29.604042   49.288998
   29.602953   49.292341
   29.601997   49.293782
   29.601908   49.295506
   29.601123   49.297115
   29.600609   49.299726
   29.601197   49.301393
   29.603644   49.304092
   29.605709   49.305170
   29.607831   49.305635
   29.589967   49.314116
   29.575286   49.318606
   29.573843   49.317175
   29.572296   49.316375
   29.569519   49.315422
   29.566744   49.315181
   29.562985   49.315999
   29.559734   49.317606
   29.556898   49.317794
   29.553752   49.317249
   29.549739   49.317365
   29.539138   49.318579
   29.532847   49.319656
   29.531080   49.320274
   29.529658   49.321188
   29.522081   49.328090
   29.520882   49.330038
   29.520496   49.331687
   29.517071   49.334449
   29.515742   49.336592
   29.515520   49.338890
   29.516547   49.342227
   29.515211   49.346948
   29.516142   49.349637
   29.512907   49.353308
   29.512108   49.354978
   29.512353   49.356718
   29.513601   49.358520
   29.510532   49.361283
   29.509696   49.362560
   29.505471   49.364672
   29.500556   49.365676
   29.498399   49.366502
   29.496667   49.367878
   29.495735   49.369658
   29.494472   49.378154
   29.496567   49.385165
   29.498079   49.386665
   29.499859   49.387510
   29.498133   49.395502
   29.498523   49.397204
   29.500339   49.399000
   29.502600   49.399919
   29.533890   49.405655
   29.538838   49.406343
   29.541151   49.408416
   29.552916   49.414925
   29.551631   49.417229
   29.551807   49.418586
   29.552602   49.419848
   29.567296   49.429720
   29.565843   49.431745
   29.565440   49.433044
   29.565836   49.434785
   29.567230   49.436355
   29.586560   49.444842
   29.584162   49.450350
   29.573804   49.453344
   29.570103   49.453928
   29.562554   49.457197
   29.554983   49.461596
   29.543768   49.474139
   29.543144   49.475870
   29.543437   49.477293
   29.541405   49.479732
   29.538435   49.481120
   29.536770   49.482755
   29.536159   49.485326
   29.536896   49.487435
   29.538820   49.489497
   29.540349   49.490415
   29.544261   49.491560
   29.546539   49.491846
   29.546669   49.494366
   29.549425   49.497754
   29.554282   49.501070
   29.556274   49.501913
   29.559574   49.502547
   29.562764   49.502298
   29.546411   49.514657
   29.536352   49.516805
   29.534627   49.517500
   29.532942   49.518861
   29.532275   49.520098
   29.532187   49.521405
   29.536101   49.533722
   29.532821   49.535026
   29.531222   49.536923
   29.526562   49.548953
   29.523967   49.560600
   29.493015   49.591635
   29.492225   49.593751
   29.493156   49.595960
   29.490767   49.597202
   29.489507   49.598807
   29.489317   49.600600
   29.490229   49.602300
   29.503699   49.613512
   29.501331   49.619152
   29.501463   49.620472
   29.502183   49.621712
   29.503945   49.623058
   29.513999   49.627294
   29.521474   49.635390
   29.518367   49.636232
   29.516138   49.637440
   29.514569   49.639375
   29.514158   49.641919
   29.501921   49.645201
   29.500282   49.645977
   29.498759   49.647416
   29.498239   49.648682
   29.498456   49.650417
   29.504316   49.660168
   29.485804   49.664888
   29.483713   49.665931
   29.482369   49.667398
   29.481964   49.669081
   29.482488   49.678557
   29.482837   49.679811
   29.484161   49.681726
   29.483362   49.682902
   29.483115   49.684232
   29.484253   49.705303
   29.483733   49.707489
   29.444904   49.708927
   29.441552   49.709636
   29.439954   49.710544
   29.438853   49.711718
   29.428437   49.728037
   29.428135   49.729324
   29.428414   49.730612
   29.430088   49.732479
   29.431683   49.733280
   29.438903   49.735388
   29.454641   49.762142
   29.450273   49.772944
   29.443095   49.785017
   29.441106   49.786959
   29.438488   49.790991
   29.436322   49.795283
   29.434999   49.796950
   29.431892   49.804366
   29.431713   49.806093
   29.432555   49.807737
   29.433788   49.808770
   29.436453   49.809963
   29.438403   49.810398
   29.440466   49.810449
   29.442463   49.810113
   29.447747   49.808062
   29.465456   49.817873
   29.468515   49.818845
   29.471925   49.818776
   29.474883   49.817682
   29.480337   49.811812
   29.481857   49.812948
   29.487908   49.815591
   29.488894   49.817560
   29.488360   49.818911
   29.483813   49.824335
   29.483741   49.826138
   29.484769   49.827816
   29.486170   49.828829
   29.500295   49.836385
   29.506594   49.839273
   29.509322   49.839563
   29.512630   49.838947
   29.514696   49.837765
   29.516454   49.835451
   29.526558   49.832633
   29.528123   49.831718
   29.530754   49.829079
   29.535489   49.827318
   29.540254   49.826127
   29.541128   49.827083
   29.540579   49.828542
   29.539929   49.836075
   29.540854   49.837783
   29.543338   49.839372
   29.545303   49.839877
   29.551763   49.840435
   29.557313   49.841374
   29.566307   49.841513
   29.567865   49.843403
   29.570672   49.844636
   29.590504   49.846481
   29.592512   49.848120
   29.591490   49.850892
   29.592369   49.853089
   29.595349   49.856365
   29.598931   49.859031
   29.601280   49.859990
   29.603323   49.860280
   29.605409   49.860170
   29.618141   49.857394
   29.619611   49.858301
   29.619276   49.860522
   29.620577   49.862523
   29.626623   49.867408
   29.629023   49.868347
   29.631842   49.868604
   29.634918   49.872414
   29.629443   49.873054
   29.627273   49.874101
   29.626142   49.875193
   29.620382   49.885237
   29.620226   49.887021
   29.621545   49.889079
   29.623028   49.890026
   29.624878   49.890651
   29.629412   49.890868
   29.637593   49.901279
   29.641657   49.903565
   29.651789   49.906141
   29.660095   49.913854
   29.661933   49.915023
   29.720248   49.935253
   29.718406   49.941322
   29.718677   49.943083
   29.719564   49.944285
   29.720956   49.945268
   29.725984   49.946808
   29.718960   49.954193
   29.716647   49.955368
   29.715072   49.956772
   29.714139   49.959668
   29.714530   49.960948
   29.715721   49.962301
   29.713466   49.962345
   29.710946   49.962950
   29.708964   49.964121
   29.708009   49.965268
   29.704521   49.972014
   29.705113   49.974121
   29.708082   49.977553
   29.707611   49.978695
   29.702513   49.980482
   29.696486   49.985163
   29.691006   49.988701
   29.689904   49.989916
   29.687848   49.993806
   29.685900   49.994607
   29.684244   49.996056
   29.683598   49.997806
   29.684063   49.999666
   29.683766   50.000974
   29.684792   50.003306
   29.682008   50.005488
   29.674951   50.012341
   29.673800   50.014717
   29.673736   50.016444
   29.672550   50.018154
   29.672197   50.023789
   29.671119   50.026814
   29.666339   50.029145
   29.664683   50.031128
   29.664717   50.033378
   29.666433   50.035340
   29.686104   50.044213
   29.686938   50.045835
   29.688741   50.047187
   29.689807   50.066850
   29.676312   50.077551
   29.641572   50.103621
   29.640489   50.104732
   29.639946   50.105996
   29.639991   50.107307
   29.640618   50.108555
   29.642863   50.110283
   29.644170   50.111969
   29.646322   50.113125
   29.651431   50.114508
   29.649492   50.116006
   29.648716   50.118184
   29.652280   50.128651
   29.653100   50.129967
   29.654514   50.131056
   29.681951   50.146449
   29.684479   50.151679
   29.681921   50.152597
   29.677021   50.153650
   29.671953   50.155803
   29.666233   50.159384
   29.660138   50.164641
   29.654344   50.166833
   29.650694   50.167069
   29.646077   50.168621
   29.640698   50.173828
   29.639710   50.175564
   29.637184   50.177410
   29.636128   50.179549
   29.636801   50.181751
   29.639107   50.183833
   29.641432   50.185009
   29.642949   50.187868
   29.646371   50.190214
   29.650507   50.191186
   29.654230   50.194946
   29.656399   50.197831
   29.663544   50.203146
   29.669831   50.209122
   29.675954   50.217607
   29.677052   50.224745
   29.679712   50.228699
   29.685026   50.232021
   29.687650   50.232737
   29.689536   50.232911
   29.682829   50.237763
   29.680403   50.240782
   29.678034   50.244607
   29.676106   50.249658
   29.673437   50.250395
   29.671587   50.251640
   29.668412   50.258005
   29.660621   50.261751
   29.659401   50.262789
   29.658577   50.264435
   29.658775   50.266160
   29.659965   50.267712
   29.661409   50.268623
   29.664102   50.269528
   29.660770   50.271721
   29.659730   50.272834
   29.659184   50.274525
   29.659939   50.276621
   29.662113   50.278256
   29.669852   50.281803
   29.672088   50.282324
   29.671015   50.284217
   29.668537   50.297980
   29.675543   50.313342
   29.677041   50.314806
   29.679097   50.315732
   29.675884   50.315588
   29.671164   50.316038
   29.669280   50.316667
   29.667924   50.317511
   29.665562   50.317753
   29.662902   50.318745
   29.657360   50.317886
   29.654562   50.317993
   29.652051   50.318794
   29.650409   50.319974
   29.646812   50.319675
   29.643180   50.320004
   29.635362   50.321955
   29.621077   50.326843
   29.619795   50.327938
   29.615970   50.332724
   29.612668   50.335442
   29.609484   50.336480
   29.606184   50.338605
   29.605125   50.339746
   29.604594   50.341479
   29.604902   50.342793
   29.606202   50.344349
   29.611680   50.347232
   29.614203   50.347745
   29.616909   50.347609
   29.621196   50.348789
   29.622657   50.349510
   29.622643   50.352532
   29.623583   50.354218
   29.624921   50.355255
   29.630222   50.357762
   29.633461   50.358627
   29.634057   50.359142
   29.633894   50.361925
   29.633456   50.362590
   29.631290   50.363833
   29.630191   50.364901
   29.626871   50.362224
   29.624646   50.361220
   29.618415   50.360416
   29.615689   50.360529
   29.613802   50.361051
   29.611800   50.362247
   29.606276   50.368279
   29.605003   50.369111
   29.599882   50.370395
   29.596707   50.370021
   29.587964   50.370276
   29.585390   50.370863
   29.583797   50.371696
   29.582646   50.372790
   29.582035   50.374051
   29.582281   50.380165
   29.578976   50.389047
   29.582634   50.399091
   29.578706   50.401895
   29.568972   50.410131
   29.557786   50.417616
   29.487978   50.409441
   29.488724   50.403187
   29.487720   50.401565
   29.485258   50.400074
   29.480779   50.399256
   29.478950   50.399275
   29.455127   50.396928
   29.451681   50.397379
   29.449004   50.398846
   29.435892   50.414017
   29.435546   50.415317
   29.435662   50.419991
   29.437263   50.421867
   29.440025   50.423060
   29.447241   50.424747
   29.451799   50.424971
   29.464785   50.421681
   29.466456   50.423468
   29.469404   50.424621
   29.472161   50.424800
   29.477541   50.424130
   29.483391   50.431957
   29.490307   50.436852
   29.491386   50.440405
   29.490761   50.443866
   29.491213   50.445581
   29.476377   50.444717
   29.474313   50.444963
   29.472454   50.445590
   29.470217   50.447362
   29.450917   50.446896
   29.443423   50.448788
   29.441324   50.449911
   29.439884   50.451892
   29.440056   50.454076
   29.442549   50.459314
   29.451588   50.473885
   29.453643   50.475035
   29.455549   50.475518
   29.458271   50.475577
   29.460223   50.475179
   29.462394   50.474121
   29.467903   50.470143
   29.482423   50.465230
   29.484645   50.466658
   29.486528   50.467284
   29.488818   50.467517
   29.497579   50.471748
   29.500232   50.472207
   29.502884   50.471991
   29.500175   50.477618
   29.496184   50.481952
   29.495590   50.483190
   29.495687   50.484912
   29.496418   50.486120
   29.500426   50.488869
   29.496659   50.493793
   29.496248   50.498266
   29.487825   50.500450
   29.484134   50.502343
   29.480421   50.503505
   29.478243   50.505359
   29.472154   50.506305
   29.461470   50.510101
   29.454705   50.514110
   29.453750   50.515383
   29.453188   50.517150
   29.453967   50.519597
   29.458024   50.523998
   29.458048   50.525440
   29.458583   50.526543
   29.454582   50.530220
   29.452774   50.535677
   29.451619   50.537233
   29.451167   50.540067
   29.451742   50.541349
   29.452873   50.542467
   29.455709   50.543714
   29.464234   50.544846
   29.466326   50.544735
   29.468523   50.544127
   29.484088   50.543439
   29.486209   50.546456
   29.487600   50.547562
   29.491759   50.549511
   29.496022   50.550624
   29.495921   50.552181
   29.493928   50.554564
   29.491443   50.560185
   29.492501   50.566698
   29.493320   50.568705
   29.495914   50.572243
   29.492645   50.574411
   29.490896   50.577969
   29.490789   50.579224
   29.491288   50.580674
   29.491118   50.589134
   29.487271   50.592477
   29.482662   50.594215
   29.481267   50.595055
   29.470553   50.604767
   29.465978   50.605623
   29.457933   50.607727
   29.451674   50.610472
   29.450243   50.611473
   29.448908   50.613312
   29.444847   50.614891
   29.441931   50.616891
   29.439672   50.617928
   29.437975   50.619824
   29.437707   50.621135
   29.438038   50.622439
   29.439357   50.623977
   29.440895   50.624853
   29.447054   50.626541
   29.447389   50.628568
   29.448822   50.630117
   29.454315   50.633301
   29.456652   50.634018
   29.457249   50.635222
   29.458427   50.636329
   29.473999   50.644950
   29.475849   50.646611
   29.471368   50.649696
   29.470355   50.650778
   29.469798   50.652420
   29.470001   50.655885
   29.470569   50.657156
   29.472768   50.659724
   29.474858   50.660916
   29.477393   50.661498
   29.478714   50.662504
   29.479568   50.664460
   29.480652   50.665578
   29.483407   50.666851
   29.486911   50.667217
   29.490008   50.666715
   29.495035   50.666956
   29.497037   50.666537
   29.498870   50.665678
   29.501780   50.665562
   29.505674   50.666898
   29.508375   50.667244
   29.511592   50.666892
   29.514388   50.665552
   29.517318   50.666169
   29.519355   50.668555
   29.521768   50.669957
   29.522232   50.671031
   29.521950   50.672359
   29.522459   50.674029
   29.521247   50.675508
   29.520833   50.677153
   29.521342   50.679218
   29.522406   50.680494
   29.524870   50.682018
   29.527404   50.682680
   29.532740   50.684802
   29.532969   50.686888
   29.533860   50.688161
   29.535138   50.689122
   29.535591   50.691244
   29.536567   50.692401
   29.538021   50.693328
   29.540590   50.694122
   29.542687   50.694382
   29.544366   50.696207
   29.547351   50.697454
   29.550764   50.697765
   29.554074   50.697099
   29.557747   50.697146
   29.559791   50.698566
   29.562794   50.699322
   29.564240   50.701260
   29.565767   50.702258
   29.567694   50.702907
   29.571176   50.703492
   29.573245   50.706196
   29.574555   50.707118
   29.576648   50.707916
   29.579764   50.710936
   29.584484   50.721985
   29.586727   50.724850
   29.585139   50.725670
   29.583342   50.727188
   29.582630   50.728824
   29.582699   50.731147
   29.579127   50.735330
   29.574790   50.736789
   29.572350   50.739016
   29.571757   50.741258
   29.572449   50.745238
   29.570776   50.747316
   29.569914   50.750363
   29.568269   50.751394
   29.567286   50.752609
   29.566882   50.754101
   29.567371   50.755884
   29.565538   50.757772
   29.563000   50.758900
   29.560085   50.761276
   29.559397   50.763549
   29.560345   50.765649
   29.558235   50.766339
   29.556552   50.767302
   29.553814   50.766957
   29.546180   50.767619
   29.543854   50.768486
   29.539311   50.771627
   29.537135   50.771586
   29.534380   50.769038
   29.531230   50.767636
   29.525046   50.767097
   29.522387   50.767321
   29.520942   50.766536
   29.518194   50.765750
   29.516596   50.762988
   29.513964   50.761508
   29.510860   50.760909
   29.501460   50.760792
   29.499505   50.761125
   29.497778   50.761803
   29.495662   50.763746
   29.492044   50.764246
   29.488362   50.764355
   29.486016   50.765190
   29.483834   50.766796
   29.477634   50.767949
   29.472144   50.768401
   29.468003   50.769857
   29.465730   50.771498
   29.464956   50.773192
   29.465486   50.775363
   29.467545   50.777117
   29.469975   50.777936
   29.472019   50.778120
   29.490059   50.777651
   29.496285   50.778814
   29.502160   50.778868
   29.500057   50.780224
   29.498973   50.781765
   29.498784   50.783031
   29.499418   50.785411
   29.503174   50.789173
   29.505745   50.790288
   29.508545   50.790697
   29.504553   50.792454
   29.502616   50.794095
   29.493238   50.798455
   29.491244   50.800138
   29.490304   50.801674
   29.487034   50.803572
   29.485889   50.804639
   29.485178   50.806301
   29.485427   50.807873
   29.482057   50.810001
   29.481312   50.811267
   29.481183   50.812619
   29.481982   50.814345
   29.483239   50.815431
   29.496486   50.822355
   29.499000   50.823192
   29.501824   50.823324
   29.518078   50.821951
   29.522898   50.821072
   29.493051   50.833766
   29.491317   50.835096
   29.490490   50.836748
   29.490542   50.838053
   29.491172   50.839294
   29.513476   50.868764
   29.507746   50.875911
   29.496160   50.883272
   29.490367   50.885016
   29.487179   50.885509
   29.485381   50.886298
   29.465555   50.901054
   29.464604   50.902303
   29.464330   50.904144
   29.467687   50.914218
   29.461710   50.922042
   29.438317   50.936665
   29.432400   50.940892
   29.428919   50.941035
   29.408949   50.944710
   29.407173   50.945354
   29.405759   50.946298
   29.404510   50.948316
   29.406799   50.980363
   29.406488   50.982336
   29.406899   50.984586
   29.407640   50.985858
   29.408934   50.986931
   29.410664   50.987709
   29.413378   50.988170
   29.417029   50.988091
   29.420809   50.990121
   29.422780   50.990724
   29.439954   50.993054
   29.446324   50.992247
   29.452133   50.989644
   29.459856   50.987748
   29.458412   50.993062
   29.458114   50.997895
   29.458640   51.005379
   29.461130   51.009628
   29.458748   51.014425
   29.457651   51.018111
   29.457575   51.019457
   29.458119   51.020758
   29.459718   51.022224
   29.462726   51.023311
   29.467596   51.029296
   29.467479   51.031201
   29.468824   51.033164
   29.476558   51.039073
   29.502941   51.060674
   29.502180   51.061476
   29.490217   51.069507
   29.486536   51.070252
   29.478652   51.072985
   29.476085   51.074600
   29.472126   51.076203
   29.463411   51.082541
   29.458243   51.084129
   29.453715   51.086529
   29.448789   51.090832
   29.444857   51.095017
   29.421834   51.120977
   29.404020   51.129586
   29.347278   51.155165
   29.337449   51.153854
   29.336215   51.126529
   29.335596   51.124833
   29.334496   51.123729
   29.331736   51.122480
   29.329070   51.122173
   29.319203   51.123466
   29.316847   51.124291
   29.311749   51.127759
   29.309681   51.129842
   29.307807   51.133994
   29.294845   51.166933
   29.288752   51.185456
   29.262006   51.259435
   29.260518   51.264846
   29.260845   51.266175
   29.263576   51.269252
END
2
   30.579683   51.524074
   30.582108   51.525704
   30.584055   51.526239
   30.586226   51.526374
   30.588405   51.528026
   30.590906   51.528759
   30.600686   51.529599
   30.603362   51.529324
   30.605678   51.528419
   30.606968   51.527403
   30.608606   51.524729
   30.609640   51.521929
   30.611012   51.520412
   30.626777   51.519732
   30.652318   51.528966
   30.660152   51.531169
   30.663780   51.531834
   30.665951   51.534063
   30.668891   51.535208
   30.686948   51.535397
   30.691901   51.534968
   30.695645   51.533911
   30.698775   51.534008
   30.700617   51.534572
   30.702890   51.534774
   30.701947   51.553883
   30.702894   51.555530
   30.704211   51.556543
   30.705926   51.557269
   30.708577   51.557686
   30.733429   51.553828
   30.738971   51.552646
   30.741039   51.551568
   30.742336   51.550074
   30.742877   51.545109
   30.785805   51.543363
   30.789075   51.542689
   30.791085   51.541475
   30.792336   51.539418
   30.791372   51.529459
   30.793355   51.528838
   30.794850   51.527923
   30.795867   51.526769
   30.796320   51.525474
   30.796200   51.522276
   30.795319   51.520580
   30.792907   51.518981
   30.790061   51.518347
   30.789158   51.511217
   30.788153   51.509568
   30.786242   51.508295
   30.783420   51.507559
   30.782347   51.506355
   30.780882   51.505476
   30.779090   51.504899
   30.777118   51.504670
   30.772933   51.504595
   30.770290   51.505044
   30.767681   51.506452
   30.766374   51.508717
   30.763046   51.509185
   30.760340   51.510401
   30.759732   51.510493
   30.756727   51.509301
   30.753297   51.509189
   30.745082   51.510325
   30.743309   51.511009
   30.741665   51.512270
   30.724257   51.514549
   30.696868   51.517642
   30.678772   51.517701
   30.679602   51.516442
   30.679813   51.515135
   30.679311   51.513301
   30.678364   51.512132
   30.676369   51.510939
   30.674066   51.510291
   30.673203   51.508793
   30.671358   51.507475
   30.665810   51.506013
   30.661981   51.506060
   30.658953   51.507209
   30.657696   51.508310
   30.656517   51.510203
   30.655767   51.512627
   30.656127   51.514380
   30.653284   51.515596
   30.651062   51.516145
   30.648953   51.517405
   30.632576   51.511227
   30.627071   51.510492
   30.612239   51.511178
   30.610294   51.509225
   30.607659   51.508255
   30.605775   51.506993
   30.603241   51.506281
   30.599221   51.505915
   30.597220   51.506210
   30.594917   51.507154
   30.591454   51.510943
   30.584193   51.511529
   30.581718   51.512233
   30.579499   51.513865
   30.578715   51.515974
   30.578825   51.522349
   30.579683   51.524074
END
END
