luhansk
1
   37.830857   49.495069
   37.833172   49.497468
   37.836501   49.499656
   37.837775   49.501085
   37.835402   49.506547
   37.835208   49.508226
   37.838947   49.516093
   37.840167   49.521690
   37.840943   49.522940
   37.842243   49.523984
   37.843952   49.524727
   37.846598   49.525140
   37.883044   49.523520
   37.889994   49.528221
   37.912769   49.537426
   37.919621   49.543573
   37.890601   49.544320
   37.884405   49.544822
   37.882073   49.545656
   37.880395   49.547012
   37.879623   49.548689
   37.879682   49.551152
   37.885069   49.560185
   37.892628   49.571523
   37.894919   49.576009
   37.896432   49.577435
   37.898045   49.578196
   37.901238   49.578697
   37.905826   49.577937
   37.910945   49.575314
   37.913835   49.574728
   37.918329   49.572884
   37.920665   49.574171
   37.923281   49.574647
   37.941077   49.574124
   37.932073   49.580858
   37.928298   49.586112
   37.927102   49.590628
   37.927234   49.594504
   37.928415   49.596567
   37.929796   49.597536
   37.931545   49.598197
   37.935938   49.598480
   37.937567   49.612068
   37.938969   49.614119
   37.941070   49.615275
   37.943688   49.615795
   37.947804   49.615792
   37.961814   49.616716
   37.967550   49.616470
   37.967625   49.620668
   37.968196   49.622038
   37.973972   49.627365
   37.975217   49.628918
   37.977985   49.630259
   37.985598   49.631276
   37.983927   49.633651
   37.980310   49.641309
   37.980516   49.643060
   37.982152   49.644961
   37.991455   49.651210
   37.993318   49.651968
   38.024919   49.657848
   38.021349   49.660112
   38.019851   49.662045
   38.019890   49.664218
   38.021590   49.666215
   38.019691   49.667390
   38.013663   49.672862
   38.010402   49.672952
   38.008527   49.673295
   38.006395   49.674265
   38.004961   49.675689
   38.004358   49.677598
   38.004422   49.678897
   38.005041   49.680130
   38.006240   49.681243
   38.004769   49.683159
   38.004440   49.684855
   38.005087   49.686510
   38.006508   49.687928
   38.006518   49.690696
   38.004057   49.690936
   38.001846   49.691768
   37.993300   49.697560
   37.991910   49.699597
   37.992166   49.701826
   37.993101   49.703026
   37.994530   49.703991
   38.010412   49.709016
   38.010363   49.709453
   38.009674   49.709589
   38.004365   49.709051
   37.996291   49.708950
   37.994377   49.709282
   37.991165   49.710413
   37.977382   49.704321
   37.974775   49.703961
   37.971549   49.704471
   37.961250   49.710844
   37.954314   49.715593
   37.944965   49.728633
   37.944345   49.730408
   37.945047   49.733288
   37.961528   49.760449
   37.963562   49.762871
   37.972328   49.771291
   37.974714   49.772132
   37.977408   49.772298
   37.979988   49.771760
   37.982363   49.770642
   37.984344   49.769222
   37.985386   49.767994
   37.986608   49.765679
   37.988099   49.760243
   37.989611   49.759073
   37.990516   49.757352
   37.996876   49.757688
   38.002852   49.759860
   38.003429   49.765883
   38.004287   49.767475
   38.005969   49.768748
   38.008847   49.769994
   38.016228   49.774060
   38.016690   49.775935
   38.018575   49.777693
   38.030553   49.781484
   38.031962   49.784973
   38.033227   49.786054
   38.034923   49.786836
   38.036895   49.787247
   38.046817   49.787790
   38.046954   49.788256
   38.043893   49.788668
   38.035142   49.791456
   38.029306   49.796223
   38.025627   49.798725
   38.005350   49.809225
   38.003256   49.811042
   38.002755   49.812381
   38.002888   49.813758
   38.012285   49.834040
   38.010871   49.836919
   38.011090   49.838230
   38.012247   49.839807
   38.014225   49.840975
   38.017066   49.841818
   38.042966   49.843497
   38.050158   49.843476
   38.057080   49.841629
   38.069330   49.840532
   38.072435   49.840536
   38.075363   49.841298
   38.083775   49.846242
   38.062735   49.861436
   38.054348   49.868915
   38.040460   49.880373
   38.035236   49.887620
   38.033000   49.891601
   38.025725   49.897997
   38.025286   49.900154
   38.026077   49.901822
   38.030815   49.906484
   38.035285   49.912190
   38.040360   49.917562
   38.052173   49.926589
   38.061171   49.929615
   38.088676   49.937473
   38.121936   49.946449
   38.123965   49.946769
   38.126047   49.946671
   38.129111   49.945618
   38.131297   49.943618
   38.135440   49.931778
   38.138699   49.933682
   38.143612   49.935924
   38.157114   49.941699
   38.161779   49.943401
   38.156916   49.948627
   38.155977   49.950227
   38.156009   49.952575
   38.157936   49.954770
   38.167350   49.958206
   38.169110   49.958615
   38.171342   49.958700
   38.190113   49.964653
   38.188813   49.969111
   38.189248   49.970802
   38.190557   49.972319
   38.205103   49.978669
   38.211268   49.980864
   38.210445   49.982137
   38.209841   49.985138
   38.208362   49.986207
   38.206631   49.988373
   38.205029   49.989172
   38.203857   49.990232
   38.198702   49.996688
   38.197927   49.998580
   38.194742   50.001435
   38.193902   50.003541
   38.179228   50.021659
   38.179090   50.022947
   38.179507   50.024208
   38.180640   50.025603
   38.181968   50.026485
   38.180602   50.039668
   38.177327   50.044073
   38.176683   50.045840
   38.177250   50.052157
   38.178046   50.055437
   38.176257   50.062733
   38.174650   50.065709
   38.174812   50.067696
   38.172141   50.077051
   38.172003   50.080587
   38.172585   50.081860
   38.173704   50.082966
   38.176476   50.084189
   38.179793   50.084401
   38.241357   50.078271
   38.255892   50.077059
   38.274811   50.078077
   38.287159   50.083102
   38.295128   50.089636
   38.297215   50.090781
   38.312461   50.092949
   38.315005   50.092803
   38.331789   50.089654
   38.334478   50.088399
   38.335789   50.086882
   38.339835   50.067107
   38.339586   50.060803
   38.344543   50.055154
   38.348784   50.047874
   38.357162   50.038008
   38.357887   50.036736
   38.359554   50.026895
   38.360368   50.025029
   38.359934   50.022696
   38.360389   50.018638
   38.357582   50.009458
   38.373369   50.004147
   38.384964   50.000715
   38.401591   49.995223
   38.414288   49.988586
   38.422451   49.998283
   38.427845   50.003741
   38.429175   50.004729
   38.431508   50.005574
   38.434151   50.005768
   38.440611   50.005000
   38.471886   49.999403
   38.473547   49.998686
   38.474828   49.997685
   38.475842   49.995620
   38.473503   49.987816
   38.480405   49.987610
   38.482719   49.986805
   38.484059   49.985855
   38.485110   49.984272
   38.485666   49.981521
   38.488895   49.980429
   38.490739   49.978560
   38.491310   49.976642
   38.490558   49.974443
   38.490680   49.971166
   38.492903   49.968183
   38.510970   49.967745
   38.527076   49.963569
   38.538641   49.967195
   38.544273   49.970338
   38.546235   49.970805
   38.549254   49.970876
   38.555756   49.973011
   38.558879   49.973589
   38.561122   49.974895
   38.565100   49.976051
   38.578877   49.981586
   38.583581   49.982169
   38.613364   49.980220
   38.619403   49.978869
   38.636005   49.969534
   38.646662   49.962761
   38.651153   49.965988
   38.656627   49.970917
   38.662890   49.975323
   38.665996   49.976345
   38.668290   49.976632
   38.671222   49.976494
   38.673384   49.976983
   38.673475   49.978294
   38.670170   49.992459
   38.672367   50.006455
   38.673476   50.008476
   38.675872   50.009930
   38.682599   50.012162
   38.687071   50.012048
   38.691191   50.010720
   38.692994   50.009435
   38.696178   50.008268
   38.697553   50.007050
   38.699587   50.006461
   38.702879   50.004713
   38.705746   50.001650
   38.709202   49.999175
   38.714413   49.993939
   38.721886   49.989606
   38.724521   49.986249
   38.725365   49.983607
   38.725106   49.981885
   38.723450   49.980027
   38.721886   49.979236
   38.714701   49.977134
   38.695411   49.962945
   38.693241   49.961014
   38.698967   49.940569
   38.698894   49.938410
   38.726426   49.931322
   38.728742   49.930332
   38.730508   49.928384
   38.740085   49.907268
   38.747769   49.901917
   38.769645   49.900260
   38.772836   49.899392
   38.774666   49.898017
   38.785679   49.885663
   38.788646   49.884479
   38.791553   49.886999
   38.793309   49.887620
   38.795926   49.887882
   38.827036   49.882939
   38.828984   49.882216
   38.835994   49.878398
   38.840819   49.872980
   38.841712   49.871293
   38.843603   49.871949
   38.845544   49.872181
   38.848364   49.872066
   38.850512   49.871585
   38.853039   49.872848
   38.856204   49.873377
   38.860360   49.872741
   38.863140   49.870973
   38.864565   49.870750
   38.868579   49.871098
   38.870893   49.871722
   38.873976   49.873417
   38.877724   49.874160
   38.881356   49.874147
   38.884775   49.873307
   38.888248   49.874586
   38.892204   49.874587
   38.896327   49.875057
   38.901142   49.874500
   38.905902   49.872737
   38.907456   49.871369
   38.909316   49.867862
   38.911374   49.866400
   38.913181   49.864458
   38.917228   49.864400
   38.919869   49.863857
   38.922824   49.862297
   38.924971   49.859998
   38.925148   49.857627
   38.924094   49.855579
   38.920967   49.852857
   38.917931   49.851605
   38.916956   49.850266
   38.914605   49.848241
   38.917289   49.846937
   38.918856   49.844903
   38.918932   49.843117
   38.920442   49.837067
   38.920399   49.835551
   38.919849   49.834286
   38.920727   49.832800
   38.920992   49.830876
   38.920604   49.829442
   38.919134   49.826987
   38.917688   49.825744
   38.915238   49.824531
   38.915569   49.822599
   38.915686   49.822215
   38.922423   49.818448
   38.924319   49.816882
   38.925294   49.814523
   38.924714   49.812288
   38.925655   49.811095
   38.926248   49.809098
   38.930025   49.808527
   38.931910   49.807787
   38.933894   49.806334
   38.934886   49.804633
   38.936910   49.805161
   38.939137   49.805332
   38.942595   49.804927
   38.946989   49.803515
   38.949867   49.802048
   38.962885   49.809107
   38.983467   49.812602
   39.003658   49.819918
   39.013697   49.824074
   39.029015   49.826963
   39.032493   49.827113
   39.036643   49.826546
   39.053223   49.822052
   39.063748   49.820618
   39.066396   49.822710
   39.104946   49.840618
   39.110810   49.845543
   39.124628   49.863435
   39.126301   49.864817
   39.176041   49.892447
   39.177826   49.893026
   39.179787   49.893242
   39.182998   49.892759
   39.192147   49.888960
   39.194201   49.887629
   39.201233   49.875986
   39.206467   49.873787
   39.208265   49.872387
   39.215219   49.861492
   39.232429   49.841936
   39.233051   49.840287
   39.234956   49.817517
   39.237205   49.813473
   39.237264   49.810759
   39.236233   49.807485
   39.244576   49.800652
   39.250057   49.788944
   39.254960   49.783395
   39.257331   49.778838
   39.264676   49.773979
   39.267915   49.772411
   39.274923   49.772793
   39.276834   49.772488
   39.279032   49.771552
   39.289890   49.759329
   39.310620   49.757247
   39.365084   49.744837
   39.372773   49.744498
   39.377511   49.743650
   39.397822   49.752740
   39.404154   49.755883
   39.408984   49.757817
   39.432207   49.764170
   39.437337   49.764703
   39.443445   49.764878
   39.467842   49.761856
   39.481645   49.760672
   39.494239   49.757330
   39.534121   49.745692
   39.539981   49.744594
   39.564553   49.741345
   39.567920   49.741358
   39.611398   49.738141
   39.613925   49.737626
   39.615968   49.736516
   39.617222   49.734977
   39.617499   49.733239
   39.616759   49.731561
   39.599560   49.718392
   39.617490   49.696253
   39.619900   49.692695
   39.641688   49.646693
   39.644466   49.639890
   39.645349   49.636480
   39.663771   49.619188
   39.688687   49.616464
   39.691324   49.615331
   39.699168   49.609629
   39.713525   49.611001
   39.715608   49.610968
   39.732503   49.607101
   39.736167   49.605869
   39.753814   49.601309
   39.769082   49.590341
   39.772248   49.588699
   39.774313   49.586275
   39.780798   49.581087
   39.794337   49.571958
   39.797259   49.570530
   39.808200   49.563330
   39.813696   49.564156
   39.833478   49.568192
   39.838925   49.568792
   39.869587   49.564530
   39.890012   49.563409
   39.910814   49.570611
   39.914852   49.572749
   39.918096   49.573192
   39.929370   49.577110
   39.945785   49.599974
   39.947618   49.601312
   39.950097   49.602069
   40.057708   49.611495
   40.060339   49.611210
   40.062605   49.610283
   40.067952   49.604594
   40.133630   49.621449
   40.135676   49.621611
   40.137702   49.621363
   40.139525   49.620727
   40.141279   49.619616
   40.142545   49.617523
   40.146160   49.597814
   40.164522   49.581039
   40.171327   49.575096
   40.175949   49.571572
   40.177167   49.569555
   40.177150   49.568244
   40.176565   49.566991
   40.175461   49.565902
   40.173930   49.565067
   40.150455   49.557604
   40.137831   49.553078
   40.044360   49.517432
   40.045827   49.513050
   40.045910   49.510687
   40.048947   49.498837
   40.037125   49.456071
   40.050837   49.449360
   40.069136   49.433605
   40.083956   49.412701
   40.108094   49.397404
   40.118297   49.389650
   40.131713   49.386606
   40.143875   49.383033
   40.146308   49.382604
   40.159854   49.376558
   40.163524   49.374151
   40.167692   49.370752
   40.168875   49.368320
   40.168166   49.365834
   40.173379   49.360886
   40.176364   49.360949
   40.178961   49.360372
   40.180568   49.359518
   40.184844   49.355934
   40.186470   49.355082
   40.193508   49.352692
   40.203780   49.349728
   40.206198   49.348239
   40.207186   49.346611
   40.207163   49.344857
   40.204081   49.339802
   40.203623   49.337361
   40.199506   49.331159
   40.195886   49.317592
   40.194705   49.309232
   40.192716   49.305070
   40.190845   49.303476
   40.192949   49.283605
   40.231937   49.264122
   40.233664   49.262857
   40.234636   49.260834
   40.234332   49.259143
   40.227776   49.248986
   40.218399   49.241865
   40.211910   49.238148
   40.189508   49.233817
   40.180274   49.232790
   40.176241   49.232627
   40.139904   49.235052
   40.129301   49.228400
   40.123136   49.220338
   40.122363   49.218403
   40.120729   49.216938
   40.114218   49.208742
   40.112138   49.207239
   40.098925   49.200016
   40.089521   49.190414
   40.081831   49.183474
   40.078514   49.182391
   40.052307   49.178439
   40.046618   49.177426
   40.043796   49.176595
   40.040717   49.176491
   40.035514   49.175716
   40.026919   49.166957
   40.017009   49.158646
   40.008104   49.148709
   40.001359   49.144472
   39.980789   49.124731
   39.977626   49.121279
   39.964971   49.103421
   39.958619   49.096422
   39.950232   49.086120
   39.945979   49.081798
   39.949176   49.072714
   39.949257   49.070041
   39.945035   49.056149
   39.943670   49.054038
   39.941845   49.052718
   39.940043   49.052095
   39.938042   49.051849
   39.909033   49.052831
   39.895041   49.055757
   39.879729   49.059562
   39.866113   49.057878
   39.840990   49.056046
   39.818933   49.053546
   39.814329   49.053851
   39.811203   49.054628
   39.808911   49.055795
   39.806424   49.054951
   39.802196   49.052676
   39.793312   49.046724
   39.782437   49.040705
   39.777243   49.038451
   39.769897   49.035905
   39.766504   49.035327
   39.756263   49.036654
   39.739680   49.037330
   39.736311   49.038212
   39.720254   49.040650
   39.713196   49.042423
   39.706991   49.043570
   39.705177   49.044225
   39.694412   49.045801
   39.685397   49.041617
   39.690695   49.037984
   39.691927   49.035167
   39.691872   49.033431
   39.691338   49.032235
   39.689822   49.030761
   39.689546   49.029138
   39.688588   49.027623
   39.686902   49.026210
   39.683909   49.024685
   39.684132   49.023198
   39.683656   49.021010
   39.682574   49.019112
   39.680946   49.017578
   39.682921   49.016798
   39.684574   49.015393
   39.685280   49.013676
   39.684930   49.011912
   39.677219   49.001570
   39.674816   48.999660
   39.675619   48.998097
   39.677968   48.995954
   39.683992   48.998735
   39.688110   49.002196
   39.690227   49.003323
   39.692702   49.003805
   39.695886   49.005065
   39.697880   49.005399
   39.700352   49.005348
   39.702901   49.004817
   39.707269   49.003243
   39.709824   49.001622
   39.712136   48.998919
   39.714007   48.997419
   39.715032   48.995754
   39.716548   48.994859
   39.719642   48.992111
   39.720431   48.990709
   39.722538   48.988438
   39.723881   48.984544
   39.724822   48.984089
   39.728516   48.983781
   39.731382   48.985971
   39.739617   48.989240
   39.742466   48.990923
   39.745276   48.991675
   39.748473   48.991832
   39.752647   48.991318
   39.756727   48.989814
   39.759356   48.987462
   39.759979   48.985307
   39.759210   48.982820
   39.756150   48.980457
   39.758191   48.980500
   39.760920   48.979979
   39.764040   48.978227
   39.764991   48.977065
   39.765459   48.974979
   39.766845   48.973201
   39.767225   48.971739
   39.769205   48.970566
   39.770385   48.969003
   39.770894   48.967048
   39.770086   48.964593
   39.771755   48.963625
   39.772814   48.962450
   39.773511   48.960345
   39.773248   48.958682
   39.774533   48.957762
   39.779618   48.956907
   39.781404   48.956230
   39.783162   48.954843
   39.784725   48.952556
   39.784861   48.951280
   39.784197   48.949635
   39.782112   48.947362
   39.780302   48.946256
   39.779455   48.944452
   39.779438   48.943889
   39.781341   48.942548
   39.783408   48.941743
   39.784680   48.940780
   39.787827   48.937546
   39.788512   48.935903
   39.788010   48.933806
   39.785588   48.930556
   39.786249   48.928109
   39.786169   48.926631
   39.785181   48.924723
   39.783266   48.922870
   39.783684   48.922392
   39.787541   48.919289
   39.792732   48.919735
   39.797000   48.918670
   39.803296   48.919224
   39.806175   48.919085
   39.808522   48.918541
   39.812743   48.916582
   39.814546   48.914956
   39.816182   48.914395
   39.819508   48.912464
   39.821756   48.912032
   39.823942   48.911041
   39.825114   48.909975
   39.825858   48.908330
   39.828382   48.907133
   39.830236   48.905135
   39.832995   48.906706
   39.837599   48.907715
   39.840495   48.907664
   39.842800   48.907057
   39.846230   48.907358
   39.848711   48.906820
   39.850270   48.906031
   39.851426   48.904982
   39.857318   48.895556
   39.867029   48.896118
   39.869696   48.897227
   39.875118   48.897798
   39.877058   48.897788
   39.879431   48.897241
   39.924315   48.900333
   39.926909   48.900182
   39.929726   48.899121
   39.932734   48.896640
   39.936407   48.894723
   39.938872   48.894211
   39.941700   48.892825
   39.943368   48.890601
   39.945683   48.889251
   39.947766   48.887082
   39.950646   48.882360
   39.952791   48.880503
   39.954993   48.879829
   39.958676   48.878018
   39.963859   48.876467
   39.969161   48.876214
   39.988140   48.873474
   39.997477   48.902314
   39.998523   48.903924
   40.000416   48.905151
   40.002225   48.905706
   40.010766   48.906320
   40.012728   48.907866
   40.012522   48.910522
   40.013967   48.912525
   40.016063   48.913646
   40.019065   48.914300
   40.022328   48.916988
   40.025301   48.918783
   40.027724   48.919481
   40.030319   48.919525
   40.034243   48.920397
   40.036329   48.920363
   40.040112   48.919376
   40.042647   48.919267
   40.044676   48.918755
   40.047956   48.918465
   40.051068   48.916891
   40.052356   48.915212
   40.056458   48.915196
   40.062306   48.914131
   40.064536   48.913261
   40.066627   48.911801
   40.067419   48.910640
   40.067659   48.908953
   40.065637   48.904072
   40.078349   48.877047
   40.085372   48.872611
   40.086289   48.871459
   40.086672   48.870182
   40.086303   48.868469
   40.084987   48.866973
   40.082349   48.865516
   40.072326   48.857937
   40.066918   48.854305
   40.064657   48.852296
   40.032720   48.828965
   40.028295   48.825225
   40.007909   48.810507
   39.982348   48.791559
   39.981233   48.790438
   39.979656   48.789577
   39.977092   48.788978
   39.974377   48.789085
   39.958987   48.791835
   39.955950   48.791362
   39.950400   48.791404
   39.946711   48.791785
   39.882332   48.817336
   39.833480   48.828294
   39.832028   48.827550
   39.830139   48.827062
   39.828117   48.826961
   39.826138   48.827256
   39.803934   48.834682
   39.802191   48.835522
   39.801141   48.834480
   39.798958   48.833282
   39.798734   48.831410
   39.801213   48.829909
   39.803752   48.827769
   39.804713   48.825831
   39.804542   48.824094
   39.803412   48.822185
   39.801087   48.820413
   39.797854   48.819066
   39.794148   48.818272
   39.793694   48.816526
   39.791998   48.813742
   39.790639   48.812792
   39.788542   48.812038
   39.786589   48.810412
   39.786872   48.807855
   39.791908   48.802021
   39.792592   48.799189
   39.792053   48.795538
   39.790683   48.792537
   39.790439   48.790367
   39.786466   48.784292
   39.784754   48.782819
   39.782337   48.781416
   39.778514   48.780238
   39.776775   48.780004
   39.774872   48.777900
   39.772660   48.776506
   39.771845   48.773833
   39.774085   48.772186
   39.775494   48.768954
   39.775434   48.766762
   39.774584   48.764177
   39.773035   48.762532
   39.770060   48.760632
   39.765417   48.759347
   39.760905   48.759273
   39.757718   48.759907
   39.755905   48.760642
   39.752189   48.763078
   39.749771   48.762799
   39.747267   48.763121
   39.743645   48.761719
   39.742311   48.758488
   39.740736   48.756949
   39.738796   48.756048
   39.738821   48.755713
   39.742441   48.753520
   39.743328   48.752296
   39.743624   48.750657
   39.745320   48.748777
   39.746347   48.744727
   39.745616   48.741793
   39.744096   48.740416
   39.741519   48.739182
   39.739016   48.738717
   39.736264   48.738732
   39.732388   48.737210
   39.730492   48.732889
   39.732924   48.730707
   39.733455   48.729434
   39.733407   48.728114
   39.732457   48.726474
   39.728423   48.722405
   39.725782   48.721115
   39.723111   48.720575
   39.719654   48.720667
   39.716986   48.721437
   39.716440   48.719288
   39.718102   48.717949
   39.719058   48.716048
   39.718866   48.711362
   39.718089   48.709906
   39.716920   48.708858
   39.714727   48.707729
   39.712571   48.707236
   39.712172   48.706823
   39.712961   48.706421
   39.716374   48.707271
   39.720290   48.706977
   39.722529   48.706103
   39.724527   48.704299
   39.725150   48.703004
   39.725201   48.701697
   39.726834   48.698783
   39.727079   48.697546
   39.726414   48.695366
   39.725099   48.694005
   39.725299   48.692266
   39.724506   48.690443
   39.728967   48.686870
   39.730112   48.684222
   39.729611   48.682067
   39.727964   48.680247
   39.724543   48.678280
   39.720566   48.677327
   39.720344   48.675678
   39.719316   48.673758
   39.715992   48.670876
   39.717275   48.669546
   39.718125   48.667712
   39.717941   48.664696
   39.717107   48.662185
   39.722550   48.656320
   39.722961   48.654602
   39.722604   48.653316
   39.721297   48.651807
   39.719224   48.650735
   39.714329   48.649654
   39.707314   48.650192
   39.703393   48.648613
   39.698940   48.646191
   39.700559   48.643884
   39.701209   48.639923
   39.700920   48.636626
   39.699564   48.634311
   39.698308   48.633296
   39.695133   48.631773
   39.692547   48.629567
   39.688245   48.627959
   39.684329   48.626020
   39.677730   48.622186
   39.675711   48.620687
   39.673198   48.618196
   39.670403   48.611836
   39.668632   48.609625
   39.673374   48.608686
   39.675579   48.607545
   39.677512   48.605589
   39.678021   48.604277
   39.677983   48.602770
   39.682215   48.601938
   39.685375   48.600168
   39.686849   48.598340
   39.687365   48.595969
   39.689621   48.593749
   39.692073   48.592354
   39.693098   48.591309
   39.702812   48.592616
   39.707735   48.591810
   39.715481   48.589773
   39.718895   48.589724
   39.722000   48.590771
   39.725312   48.591174
   39.733586   48.590230
   39.735228   48.590744
   39.739513   48.593393
   39.741752   48.594349
   39.744644   48.595008
   39.747922   48.595129
   39.752008   48.594357
   39.754337   48.593271
   39.756512   48.591356
   39.757681   48.588353
   39.764221   48.590514
   39.765935   48.593674
   39.768239   48.595472
   39.769992   48.596248
   39.773567   48.596875
   39.789535   48.597811
   39.796349   48.596774
   39.800637   48.595274
   39.805988   48.592144
   39.809182   48.588843
   39.810532   48.588453
   39.813004   48.588639
   39.819878   48.590935
   39.822956   48.591196
   39.824911   48.591051
   39.827470   48.590428
   39.829131   48.589680
   39.831099   48.588120
   39.832326   48.586409
   39.833029   48.583325
   39.832642   48.581483
   39.831828   48.580235
   39.834207   48.579410
   39.840144   48.578299
   39.844870   48.577057
   39.850991   48.574338
   39.855659   48.571003
   39.857693   48.568662
   39.862164   48.561033
   39.861953   48.557526
   39.859440   48.553043
   39.860212   48.550702
   39.862666   48.547515
   39.863855   48.544600
   39.863703   48.541939
   39.861982   48.538515
   39.862097   48.537029
   39.862993   48.535061
   39.865573   48.531713
   39.868843   48.525299
   39.869056   48.521115
   39.870155   48.519422
   39.870723   48.516543
   39.873554   48.509898
   39.873917   48.506979
   39.873449   48.504826
   39.871900   48.502216
   39.870362   48.500776
   39.866766   48.498653
   39.863589   48.497516
   39.859529   48.496857
   39.854049   48.497404
   39.854648   48.495085
   39.854513   48.489204
   39.853834   48.486882
   39.852342   48.484949
   39.853060   48.482930
   39.852579   48.476073
   39.856789   48.470215
   39.860639   48.467884
   39.872482   48.463203
   39.880303   48.460470
   39.890625   48.454691
   39.892583   48.454066
   39.897889   48.453104
   39.900853   48.452096
   39.904017   48.449896
   39.904989   48.448406
   39.905407   48.446555
   39.904623   48.443625
   39.902027   48.441264
   39.897389   48.439674
   39.900784   48.432635
   39.902414   48.431106
   39.905436   48.429417
   39.914373   48.425710
   39.917445   48.422815
   39.919012   48.419979
   39.919286   48.417381
   39.917907   48.412164
   39.916235   48.409413
   39.913144   48.406234
   39.915856   48.405731
   39.920262   48.404122
   39.923504   48.401641
   39.925358   48.398087
   39.925203   48.396229
   39.924005   48.393742
   39.921633   48.391661
   39.919010   48.390386
   39.922124   48.387729
   39.923243   48.384663
   39.923454   48.382219
   39.924631   48.380241
   39.925734   48.379719
   39.926662   48.380645
   39.927965   48.385286
   39.929326   48.387512
   39.931911   48.390065
   39.933787   48.391125
   39.936864   48.392021
   39.941614   48.391999
   39.944893   48.390931
   39.947970   48.388692
   39.949527   48.385974
   39.949301   48.382364
   39.946766   48.377624
   39.941598   48.371549
   39.943182   48.368725
   39.943399   48.367048
   39.942940   48.365819
   39.940552   48.362714
   39.942136   48.359721
   39.948938   48.358406
   39.950691   48.357808
   39.952817   48.356168
   39.953551   48.354063
   39.949008   48.343934
   39.947561   48.342507
   39.944801   48.341388
   39.942874   48.341171
   39.940311   48.341455
   39.931255   48.344342
   39.925521   48.343543
   39.925472   48.341223
   39.924976   48.339938
   39.923485   48.338477
   39.921870   48.337691
   39.900741   48.333412
   39.882110   48.329896
   39.877940   48.329403
   39.864717   48.330031
   39.852139   48.329222
   39.850793   48.326928
   39.848276   48.325429
   39.848952   48.320004
   39.848218   48.313952
   39.858278   48.313631
   39.887804   48.313801
   39.889780   48.313483
   39.891527   48.312795
   39.892892   48.311799
   39.893754   48.310582
   39.893992   48.306327
   39.905935   48.298618
   39.914730   48.294752
   39.916498   48.293294
   39.917825   48.289101
   39.918950   48.287265
   39.920974   48.285417
   39.922127   48.283060
   39.922068   48.279516
   39.920736   48.276982
   39.922398   48.279223
   39.924036   48.280496
   39.923215   48.282583
   39.924053   48.285022
   39.926603   48.286920
   39.929940   48.288040
   39.929811   48.291605
   39.930968   48.293819
   39.932622   48.295300
   39.934186   48.296065
   39.939480   48.297243
   39.941812   48.297433
   39.942736   48.298783
   39.943238   48.300805
   39.944850   48.302476
   39.945181   48.304529
   39.946167   48.305934
   39.947494   48.307001
   39.949898   48.307921
   39.953655   48.308565
   39.955529   48.308450
   39.959161   48.307589
   39.961092   48.309744
   39.964262   48.311005
   39.964578   48.313069
   39.966977   48.315717
   39.971252   48.317939
   39.975846   48.319814
   39.977631   48.320210
   39.980588   48.320290
   39.983972   48.321580
   39.985933   48.321989
   39.991440   48.321657
   39.993528   48.321219
   39.996486   48.319539
   39.999786   48.314553
   40.001038   48.301113
   40.014932   48.274270
   40.018157   48.273178
   40.019980   48.271349
   40.022089   48.266827
   40.021910   48.265541
   40.020887   48.264030
   40.026899   48.255571
   40.027544   48.253814
   40.027309   48.252463
   40.026477   48.251218
   40.013765   48.240528
   40.016385   48.224735
   40.016101   48.223398
   40.015233   48.222175
   40.012717   48.220680
   40.004750   48.219057
   40.002549   48.218881
   39.969312   48.222199
   39.953825   48.223233
   39.949109   48.223811
   39.946287   48.204549
   39.943821   48.180734
   39.943088   48.178986
   39.941376   48.177569
   39.938288   48.176601
   39.925207   48.177369
   39.915393   48.176039
   39.913539   48.168082
   39.913605   48.148076
   39.908965   48.138866
   39.902382   48.131023
   39.898350   48.128739
   39.894597   48.127651
   39.892617   48.126541
   39.882016   48.116281
   39.879109   48.114695
   39.880705   48.108658
   39.875298   48.077712
   39.872912   48.075612
   39.867674   48.073297
   39.861794   48.071542
   39.860581   48.070345
   39.858950   48.069497
   39.857010   48.069012
   39.854631   48.068952
   39.846091   48.065963
   39.851407   48.063025
   39.886665   48.053176
   39.888943   48.052138
   39.890413   48.050590
   39.890836   48.048783
   39.890158   48.040300
   39.888832   48.038233
   39.886777   48.037047
   39.883500   48.036455
   39.787416   48.035448
   39.788521   48.032656
   39.790228   48.030892
   39.791076   48.029260
   39.791222   48.027736
   39.792465   48.025393
   39.792304   48.023572
   39.793605   48.022073
   39.794888   48.018307
   39.797600   48.015348
   39.799388   48.013853
   39.803489   48.012213
   39.806925   48.011452
   39.809360   48.009723
   39.814802   48.008407
   39.817015   48.006656
   39.821182   48.004354
   39.823000   48.002082
   39.823288   48.000306
   39.822599   47.998314
   39.824547   47.995983
   39.824812   47.994681
   39.824415   47.992823
   39.825533   47.990682
   39.825395   47.989360
   39.824484   47.987495
   39.826542   47.986770
   39.828524   47.985430
   39.829417   47.984266
   39.829770   47.982981
   39.829196   47.978835
   39.827131   47.976343
   39.826679   47.973842
   39.825661   47.972682
   39.823871   47.971536
   39.825258   47.970002
   39.825692   47.968799
   39.825609   47.967042
   39.824875   47.965704
   39.824901   47.963960
   39.827488   47.962505
   39.829649   47.959916
   39.831287   47.957119
   39.831509   47.954595
   39.830564   47.952862
   39.828625   47.951293
   39.828464   47.949830
   39.827793   47.948617
   39.825628   47.947027
   39.822601   47.946272
   39.813164   47.946084
   39.812968   47.933575
   39.812124   47.932375
   39.810791   47.931388
   39.807414   47.930393
   39.808258   47.927086
   39.807779   47.925354
   39.806501   47.923428
   39.800399   47.917775
   39.801974   47.873094
   39.801668   47.869576
   39.801080   47.868350
   39.799116   47.866518
   39.797360   47.865499
   39.795666   47.864972
   39.791401   47.864375
   39.783303   47.865001
   39.776181   47.864733
   39.770344   47.865746
   39.770394   47.846453
   39.769881   47.844726
   39.768410   47.843260
   39.766203   47.842275
   39.763594   47.841922
   39.760484   47.842089
   39.744781   47.825965
   39.742376   47.824157
   39.739454   47.823260
   39.736903   47.823120
   39.665397   47.827619
   39.650639   47.828177
   39.647659   47.828980
   39.644860   47.830869
   39.632889   47.834086
   39.628740   47.834079
   39.626327   47.832216
   39.623138   47.831478
   39.568727   47.831906
   39.566518   47.830239
   39.564173   47.828997
   39.554806   47.825013
   39.551173   47.824049
   39.548107   47.822093
   39.544185   47.820595
   39.541437   47.820450
   39.538245   47.821283
   39.536774   47.822248
   39.532852   47.826020
   39.524075   47.821643
   39.521607   47.821031
   39.519625   47.821006
   39.517123   47.821553
   39.515119   47.822684
   39.475467   47.855108
   39.473563   47.854589
   39.471548   47.854442
   39.467362   47.855067
   39.462973   47.851923
   39.460369   47.851069
   39.456436   47.850659
   39.453807   47.848769
   39.450599   47.847671
   39.447958   47.847432
   39.443629   47.848086
   39.441094   47.844990
   39.444585   47.842089
   39.445276   47.840854
   39.445399   47.839540
   39.444671   47.837857
   39.442520   47.836065
   39.440345   47.834981
   39.436804   47.834287
   39.433344   47.833129
   39.429766   47.832729
   39.426631   47.829985
   39.422978   47.828421
   39.418666   47.827211
   39.415632   47.825927
   39.413730   47.825492
   39.411055   47.825512
   39.408060   47.826477
   39.406110   47.828263
   39.382787   47.866944
   39.358019   47.868082
   39.358052   47.866094
   39.357001   47.864488
   39.354532   47.863043
   39.351993   47.862548
   39.244758   47.862893
   39.244086   47.862571
   39.243659   47.859883
   39.241797   47.857842
   39.243309   47.854885
   39.243157   47.852482
   39.241667   47.850578
   39.239019   47.849341
   39.236460   47.849026
   39.184323   47.849256
   39.178514   47.844917
   39.176648   47.843096
   39.174602   47.842226
   39.171956   47.841819
   39.168448   47.842107
   39.166346   47.842612
   39.163646   47.844057
   39.160785   47.846411
   39.158549   47.847557
   39.156430   47.847334
   39.156496   47.842021
   39.156003   47.840299
   39.154998   47.839160
   39.153539   47.838261
   39.150447   47.837492
   39.139155   47.837992
   39.108410   47.838048
   39.105387   47.839005
   39.103414   47.840796
   39.102946   47.842097
   39.103020   47.847174
   39.082942   47.847127
   39.079665   47.847671
   39.077581   47.848819
   39.076182   47.850852
   39.076262   47.865161
   39.073135   47.865235
   39.071296   47.865650
   39.069257   47.866698
   39.067951   47.868171
   39.058521   47.894909
   39.058331   47.896307
   39.058799   47.897676
   39.081861   47.936470
   39.078433   47.938296
   39.077211   47.939802
   39.074751   47.941775
   39.071835   47.945671
   39.066596   47.944407
   39.064849   47.944247
   39.063132   47.943268
   39.060501   47.942517
   39.057144   47.942324
   39.055120   47.942502
   39.052714   47.943333
   39.050748   47.944802
   39.049903   47.945967
   39.045783   47.947803
   39.044601   47.948903
   39.043949   47.950262
   39.041762   47.951541
   39.039316   47.951343
   39.036083   47.951884
   39.033883   47.952976
   39.032258   47.954499
   39.031707   47.955808
   39.031764   47.957419
   39.033482   47.963370
   39.036597   47.988512
   39.033796   47.999247
   39.033580   48.002677
   39.015608   48.003762
   39.004617   48.003982
   38.995988   48.004797
   38.982499   48.004725
   38.921508   48.008138
   38.860195   48.010289
   38.858190   48.010713
   38.856475   48.011520
   38.849751   48.016813
   38.821762   48.025923
   38.820262   48.026751
   38.819176   48.027825
   38.814772   48.034669
   38.814701   48.036848
   38.815894   48.038552
   38.811477   48.041732
   38.809461   48.043821
   38.807306   48.045137
   38.806276   48.046333
   38.805839   48.047679
   38.806239   48.049490
   38.808745   48.052906
   38.811790   48.054851
   38.814849   48.055431
   38.815154   48.058070
   38.815753   48.059308
   38.817326   48.060689
   38.819166   48.061468
   38.816239   48.061477
   38.814325   48.061787
   38.798905   48.066782
   38.797199   48.068123
   38.796355   48.070152
   38.793497   48.072575
   38.792715   48.074278
   38.792819   48.075615
   38.793512   48.076873
   38.799425   48.081658
   38.801722   48.082639
   38.803730   48.082938
   38.805939   48.082838
   38.806675   48.083410
   38.803538   48.084271
   38.801508   48.085333
   38.800221   48.086818
   38.799924   48.088941
   38.811700   48.112459
   38.809466   48.112790
   38.807155   48.113835
   38.801063   48.113843
   38.795172   48.114818
   38.792979   48.115872
   38.790146   48.118115
   38.787562   48.118926
   38.785756   48.120047
   38.782152   48.120334
   38.779711   48.121018
   38.776165   48.122589
   38.773670   48.122527
   38.771183   48.122962
   38.767590   48.124331
   38.765724   48.125857
   38.762850   48.126241
   38.760750   48.127059
   38.756727   48.127132
   38.753063   48.127678
   38.747668   48.129547
   38.744283   48.130081
   38.740105   48.129626
   38.736798   48.129861
   38.734331   48.130487
   38.730293   48.132048
   38.727051   48.132413
   38.718852   48.134805
   38.713918   48.137281
   38.702880   48.138746
   38.686886   48.141954
   38.683684   48.141096
   38.680434   48.141228
   38.671447   48.144330
   38.659544   48.146747
   38.657921   48.147533
   38.656421   48.148997
   38.655923   48.150286
   38.656012   48.151614
   38.662586   48.160123
   38.646006   48.159856
   38.642894   48.159651
   38.638249   48.158692
   38.633595   48.158827
   38.625551   48.161028
   38.612100   48.165269
   38.607844   48.165901
   38.598979   48.168339
   38.596771   48.169322
   38.595073   48.171204
   38.594585   48.173000
   38.595024   48.174553
   38.592427   48.177293
   38.591402   48.179277
   38.591369   48.180662
   38.592307   48.182396
   38.594609   48.184434
   38.598238   48.190954
   38.599466   48.192020
   38.601551   48.193077
   38.601410   48.195432
   38.602076   48.196770
   38.603605   48.198271
   38.604646   48.202749
   38.602578   48.204190
   38.601334   48.205887
   38.597708   48.209108
   38.595145   48.210446
   38.591299   48.213798
   38.589673   48.216117
   38.588486   48.218925
   38.582452   48.226110
   38.580702   48.238202
   38.581198   48.239954
   38.580989   48.243741
   38.582334   48.246110
   38.582480   48.249878
   38.583212   48.251763
   38.581988   48.253772
   38.581584   48.255949
   38.577496   48.259211
   38.573840   48.261052
   38.569882   48.263790
   38.568140   48.264202
   38.564941   48.265658
   38.431381   48.273734
   38.426289   48.273792
   38.423705   48.274338
   38.421645   48.275506
   38.420433   48.277110
   38.419326   48.280513
   38.419256   48.281805
   38.419960   48.283687
   38.418928   48.284707
   38.418240   48.286118
   38.418142   48.288443
   38.418861   48.290149
   38.421199   48.292356
   38.422027   48.295451
   38.424852   48.298049
   38.421452   48.301775
   38.420559   48.306663
   38.422531   48.311050
   38.425066   48.312633
   38.426814   48.315117
   38.429464   48.317696
   38.433047   48.319543
   38.431190   48.320869
   38.430273   48.322551
   38.426675   48.338600
   38.426823   48.340407
   38.428479   48.342376
   38.430068   48.343369
   38.431759   48.343958
   38.440615   48.344972
   38.443130   48.345793
   38.448897   48.346399
   38.449148   48.348102
   38.450371   48.349646
   38.452386   48.350770
   38.455151   48.351366
   38.456066   48.352735
   38.458674   48.355184
   38.461429   48.356313
   38.464348   48.356501
   38.465092   48.357660
   38.464196   48.359611
   38.464481   48.361395
   38.465794   48.362965
   38.468290   48.364181
   38.467060   48.365137
   38.466236   48.366391
   38.465249   48.371467
   38.464621   48.372739
   38.463403   48.374785
   38.457245   48.375483
   38.455369   48.373029
   38.452685   48.371726
   38.450732   48.371410
   38.448725   48.371482
   38.445723   48.372434
   38.443756   48.374210
   38.436522   48.384725
   38.435427   48.387299
   38.432665   48.390022
   38.430018   48.394943
   38.429801   48.396176
   38.431156   48.399681
   38.429827   48.405415
   38.430165   48.406751
   38.431249   48.408399
   38.431868   48.411930
   38.431302   48.413607
   38.431823   48.417445
   38.431658   48.419552
   38.428472   48.424644
   38.428486   48.426692
   38.427860   48.428897
   38.426831   48.430891
   38.426578   48.432602
   38.425591   48.434201
   38.425589   48.436023
   38.427147   48.438852
   38.426235   48.441045
   38.420868   48.439743
   38.415559   48.437952
   38.409079   48.436674
   38.409735   48.434778
   38.409578   48.433438
   38.408462   48.431810
   38.406479   48.430595
   38.387296   48.425660
   38.383009   48.424909
   38.380448   48.425079
   38.377297   48.426068
   38.373936   48.428079
   38.369111   48.438304
   38.367110   48.438102
   38.364164   48.438446
   38.360680   48.436779
   38.358160   48.436189
   38.354926   48.436073
   38.352697   48.436567
   38.350747   48.435854
   38.347834   48.433546
   38.345358   48.432664
   38.342007   48.432475
   38.338405   48.433092
   38.336052   48.434071
   38.334246   48.435827
   38.332749   48.436519
   38.331361   48.437722
   38.306353   48.452342
   38.305027   48.453393
   38.304108   48.455109
   38.304286   48.456924
   38.309666   48.462961
   38.284631   48.472325
   38.282289   48.473881
   38.281397   48.475542
   38.281532   48.477302
   38.282301   48.478526
   38.284629   48.480477
   38.286370   48.481225
   38.288369   48.481594
   38.292657   48.481796
   38.295457   48.481393
   38.295032   48.483983
   38.295434   48.485463
   38.290988   48.486001
   38.289114   48.486616
   38.287194   48.487935
   38.286027   48.489513
   38.285858   48.491267
   38.286629   48.492949
   38.286598   48.496842
   38.287928   48.499338
   38.290025   48.501573
   38.296250   48.505583
   38.299043   48.506484
   38.301010   48.506758
   38.303013   48.506643
   38.305128   48.506096
   38.305986   48.508403
   38.308550   48.510610
   38.282848   48.531050
   38.279567   48.531263
   38.276727   48.532537
   38.270347   48.538446
   38.269496   48.540087
   38.269576   48.541602
   38.267821   48.543041
   38.267079   48.544245
   38.266947   48.545971
   38.267803   48.547603
   38.269524   48.548905
   38.271558   48.549618
   38.270763   48.555805
   38.265530   48.583632
   38.265517   48.587340
   38.264687   48.589680
   38.263227   48.600066
   38.258823   48.623027
   38.257497   48.632042
   38.229083   48.629449
   38.226577   48.629838
   38.224265   48.630757
   38.222670   48.632196
   38.222099   48.633483
   38.218925   48.652178
   38.219483   48.654225
   38.220439   48.655405
   38.221876   48.656348
   38.223668   48.656973
   38.231526   48.657686
   38.233141   48.659829
   38.234719   48.660687
   38.236610   48.661199
   38.252541   48.662505
   38.255127   48.662177
   38.257655   48.661003
   38.258421   48.661147
   38.258961   48.663061
   38.260905   48.665739
   38.262107   48.666875
   38.263773   48.667718
   38.266443   48.668252
   38.271239   48.668232
   38.274319   48.669024
   38.279195   48.669144
   38.276705   48.680768
   38.277014   48.682481
   38.277876   48.683647
   38.280566   48.685672
   38.283005   48.686498
   38.288821   48.686860
   38.290975   48.686735
   38.294594   48.687426
   38.300414   48.687739
   38.301026   48.689646
   38.307382   48.697133
   38.307682   48.702435
   38.305189   48.703948
   38.302960   48.704838
   38.300012   48.706793
   38.297638   48.709452
   38.297334   48.711233
   38.298576   48.714567
   38.300358   48.715973
   38.302839   48.716796
   38.317719   48.717959
   38.316390   48.727568
   38.314465   48.730443
   38.302307   48.731617
   38.299193   48.732259
   38.295482   48.732595
   38.287400   48.732365
   38.280113   48.733305
   38.278004   48.734359
   38.276391   48.736359
   38.271564   48.740177
   38.262335   48.745732
   38.260069   48.746231
   38.257950   48.747321
   38.256871   48.748450
   38.256290   48.750184
   38.256764   48.751932
   38.269189   48.774699
   38.270325   48.775834
   38.271920   48.776695
   38.275299   48.777354
   38.271169   48.800727
   38.271242   48.802104
   38.272223   48.804281
   38.274290   48.806096
   38.277431   48.807019
   38.310445   48.809668
   38.307806   48.823368
   38.273372   48.820187
   38.270655   48.820297
   38.268218   48.821098
   38.266447   48.822464
   38.265728   48.823731
   38.264331   48.830957
   38.262353   48.833301
   38.256502   48.837797
   38.221978   48.834712
   38.218025   48.835304
   38.216369   48.836120
   38.215157   48.837226
   38.214416   48.838973
   38.214614   48.841583
   38.216964   48.845074
   38.217162   48.847056
   38.218058   48.848672
   38.218123   48.851356
   38.219627   48.853499
   38.219440   48.856373
   38.220236   48.858673
   38.222201   48.860808
   38.221844   48.867732
   38.222154   48.877721
   38.221501   48.888203
   38.221841   48.922225
   38.221485   48.929040
   38.213904   48.926529
   38.201006   48.923819
   38.196119   48.923256
   38.187774   48.923914
   38.183996   48.924740
   38.179649   48.924730
   38.166996   48.926763
   38.164469   48.926155
   38.160077   48.925995
   38.151678   48.926458
   38.148939   48.926898
   38.145932   48.927788
   38.144194   48.924357
   38.142721   48.922945
   38.140625   48.921605
   38.136741   48.919806
   38.134892   48.919331
   38.132916   48.919226
   38.128579   48.919995
   38.125632   48.922009
   38.119040   48.922043
   38.116348   48.922490
   38.114406   48.923171
   38.112928   48.923897
   38.110659   48.925750
   38.109737   48.928190
   38.105791   48.928448
   38.092391   48.930721
   38.088816   48.932621
   38.087834   48.933797
   38.087416   48.935133
   38.081397   48.934936
   38.076338   48.933853
   38.064018   48.932281
   38.060240   48.932748
   38.054816   48.934736
   38.049759   48.931860
   38.048680   48.927604
   38.044189   48.922828
   38.040646   48.920891
   38.038775   48.920437
   38.036785   48.920358
   38.034238   48.920845
   38.027236   48.923326
   38.025886   48.924267
   38.024996   48.925422
   38.024731   48.927628
   38.022019   48.927999
   38.018554   48.928988
   38.016973   48.929763
   38.014730   48.931564
   38.011069   48.937027
   38.009859   48.938253
   38.007387   48.938705
   38.004677   48.940110
   38.002137   48.941888
   37.999743   48.944541
   37.999009   48.946709
   38.000108   48.949819
   38.022743   48.975687
   38.024087   48.976788
   38.025880   48.977561
   38.029439   48.978333
   38.032741   48.978279
   38.045826   48.973045
   38.048234   48.975412
   38.046220   48.976760
   38.045275   48.977976
   38.043652   48.983573
   38.044123   48.984895
   38.046404   48.987823
   38.048191   48.989257
   38.055615   48.991800
   38.074786   48.995863
   38.079558   48.996523
   38.091185   48.996416
   38.091156   48.997506
   38.087917   49.003124
   38.082011   49.012001
   38.080704   49.013278
   38.066911   49.037239
   38.048386   49.055017
   38.046905   49.056784
   38.045802   49.059366
   38.046228   49.061168
   38.047695   49.062712
   38.053923   49.065212
   38.055898   49.065682
   38.060965   49.096918
   38.069009   49.114763
   38.077005   49.135615
   38.075265   49.142925
   38.068788   49.142131
   38.065663   49.142166
   38.049564   49.145650
   38.048393   49.141627
   38.046787   49.125385
   38.045210   49.123490
   38.043677   49.122667
   38.041851   49.122168
   38.039013   49.122045
   37.980036   49.126158
   37.978105   49.126475
   37.976394   49.127147
   37.974300   49.128389
   37.972730   49.130058
   37.955853   49.131894
   37.953279   49.133287
   37.951963   49.135585
   37.949664   49.135009
   37.945400   49.134519
   37.943541   49.134579
   37.923913   49.139502
   37.914806   49.143687
   37.911169   49.146154
   37.899993   49.150568
   37.895036   49.154027
   37.888676   49.156925
   37.886681   49.158640
   37.886008   49.160799
   37.886958   49.162911
   37.893606   49.167193
   37.887130   49.173225
   37.886577   49.175685
   37.887746   49.177743
   37.889117   49.178712
   37.893734   49.180710
   37.896227   49.182306
   37.900009   49.183698
   37.902000   49.186465
   37.903801   49.187654
   37.910907   49.190685
   37.924985   49.194103
   37.919688   49.200471
   37.917690   49.200607
   37.915867   49.201109
   37.914127   49.202033
   37.912764   49.203487
   37.912315   49.205172
   37.912938   49.208169
   37.914383   49.209724
   37.916478   49.210722
   37.893858   49.207508
   37.889276   49.207365
   37.887354   49.207611
   37.885103   49.208474
   37.883233   49.210225
   37.882783   49.211484
   37.882802   49.216059
   37.875686   49.217435
   37.869612   49.219410
   37.868051   49.220282
   37.866703   49.221842
   37.866359   49.223173
   37.867563   49.233307
   37.859816   49.244896
   37.859456   49.246654
   37.859879   49.247959
   37.861296   49.249466
   37.863482   49.250496
   37.874643   49.252140
   37.879693   49.253219
   37.881816   49.253820
   37.883901   49.254922
   37.888978   49.256225
   37.889701   49.257924
   37.891301   49.259280
   37.895096   49.261004
   37.899882   49.262153
   37.892773   49.268236
   37.892048   49.269958
   37.892390   49.271732
   37.894220   49.273601
   37.910119   49.281565
   37.926485   49.284656
   37.936742   49.284875
   37.949043   49.286789
   37.946906   49.289244
   37.941394   49.297172
   37.941128   49.299916
   37.922148   49.303931
   37.916410   49.303948
   37.900263   49.306379
   37.881723   49.308311
   37.878726   49.309418
   37.877158   49.310916
   37.876644   49.312244
   37.876621   49.314651
   37.875604   49.315775
   37.875115   49.317064
   37.875489   49.319981
   37.870442   49.327263
   37.870093   49.329085
   37.870573   49.330429
   37.872358   49.332362
   37.876211   49.338950
   37.877297   49.342520
   37.878349   49.343708
   37.879641   49.344510
   37.878296   49.349103
   37.878316   49.350659
   37.880054   49.358710
   37.882541   49.366903
   37.883385   49.372470
   37.888234   49.395196
   37.889229   49.401972
   37.880212   49.408941
   37.876931   49.409039
   37.875052   49.409497
   37.873009   49.410627
   37.871773   49.412186
   37.871597   49.414217
   37.870479   49.415397
   37.869934   49.417087
   37.870236   49.419605
   37.871041   49.421046
   37.872358   49.432233
   37.869676   49.433322
   37.867975   49.435186
   37.867669   49.436484
   37.868299   49.441864
   37.843159   49.440746
   37.840065   49.441534
   37.838612   49.442445
   37.837622   49.443595
   37.837204   49.445769
   37.839395   49.457936
   37.840499   49.461189
   37.840202   49.463161
   37.843729   49.485931
   37.841004   49.486936
   37.834186   49.488216
   37.831829   49.489311
   37.830450   49.490719
   37.829864   49.492204
   37.829934   49.493481
   37.830857   49.495069
END
END
