lviv
1
   22.637215   49.533856
   22.658365   49.542222
   22.668345   49.551165
   22.669302   49.553359
   22.671461   49.561891
   22.678253   49.573349
   22.688992   49.584422
   22.700828   49.595821
   22.710695   49.603070
   22.718919   49.611464
   22.743811   49.633906
   22.751130   49.638327
   22.776542   49.658825
   22.777501   49.666299
   22.780692   49.678002
   22.799884   49.696008
   22.801763   49.697189
   22.804180   49.697835
   22.818864   49.698870
   22.841626   49.712560
   22.845887   49.722383
   22.854153   49.730936
   22.867792   49.743274
   22.869644   49.744424
   22.881060   49.748351
   22.890007   49.753822
   22.891231   49.765623
   22.896111   49.771027
   22.905195   49.777311
   22.927762   49.796393
   22.938012   49.800385
   22.951776   49.807490
   22.950007   49.809848
   22.949889   49.812112
   22.964977   49.841212
   22.966828   49.842402
   22.968590   49.842956
   22.991049   49.846157
   23.001533   49.857602
   23.027775   49.884110
   23.059723   49.911132
   23.083114   49.927716
   23.101233   49.944045
   23.109207   49.959109
   23.137615   49.974393
   23.183314   50.012954
   23.206328   50.032847
   23.209089   50.047999
   23.210370   50.050127
   23.213086   50.051576
   23.234649   50.058031
   23.259290   50.081777
   23.272357   50.088495
   23.272262   50.100224
   23.273026   50.101913
   23.275117   50.103707
   23.277290   50.104686
   23.279868   50.105066
   23.282477   50.104791
   23.284357   50.104149
   23.290806   50.106075
   23.292199   50.108939
   23.294370   50.110687
   23.305441   50.115007
   23.310013   50.115932
   23.337148   50.136755
   23.375318   50.162506
   23.424512   50.187437
   23.465698   50.221367
   23.502433   50.234100
   23.526217   50.246975
   23.554551   50.260650
   23.575921   50.269265
   23.606004   50.301964
   23.608781   50.303398
   23.625397   50.308132
   23.632239   50.321899
   23.634108   50.323813
   23.636496   50.324762
   23.680375   50.335048
   23.684275   50.347293
   23.684448   50.354547
   23.690127   50.367729
   23.696804   50.377182
   23.698009   50.378355
   23.704129   50.382637
   23.722917   50.391647
   23.776430   50.405341
   23.802420   50.409246
   23.845093   50.410563
   23.879614   50.413418
   23.884273   50.412872
   23.940410   50.418427
   23.992124   50.416838
   23.999162   50.436657
   24.000465   50.438256
   24.002626   50.439394
   24.028418   50.447796
   24.031599   50.456865
   24.036220   50.462598
   24.042156   50.472390
   24.063321   50.504563
   24.068818   50.523770
   24.070922   50.526668
   24.076693   50.543085
   24.079495   50.552347
   24.084327   50.562615
   24.083471   50.578590
   24.091670   50.600066
   24.091381   50.605509
   24.090723   50.608916
   24.087750   50.611718
   24.084950   50.615802
   24.084285   50.619280
   24.085245   50.624301
   24.088977   50.633259
   24.092476   50.640019
   24.095065   50.641504
   24.098431   50.641995
   24.101745   50.641372
   24.104757   50.639610
   24.105029   50.639735
   24.110405   50.645410
   24.110193   50.647856
   24.111231   50.649875
   24.113716   50.651522
   24.116258   50.652266
   24.120996   50.652198
   24.123452   50.653158
   24.126584   50.653471
   24.133042   50.652606
   24.134960   50.651816
   24.136375   50.650763
   24.139937   50.651167
   24.143747   50.650343
   24.146529   50.651516
   24.150172   50.652051
   24.152198   50.651812
   24.153989   50.651214
   24.157124   50.650937
   24.158915   50.650337
   24.160674   50.649169
   24.161692   50.647979
   24.162090   50.645519
   24.164600   50.644334
   24.166115   50.642523
   24.169718   50.641318
   24.172779   50.639210
   24.175882   50.638188
   24.178030   50.636581
   24.178881   50.635375
   24.180142   50.632015
   24.179938   50.630346
   24.178775   50.628456
   24.179543   50.627432
   24.181716   50.625952
   24.182761   50.623835
   24.186076   50.623828
   24.187957   50.623336
   24.190383   50.622223
   24.193982   50.621833
   24.196169   50.620966
   24.198649   50.619051
   24.202535   50.618771
   24.205528   50.617566
   24.210172   50.613512
   24.211087   50.611715
   24.211060   50.609858
   24.212039   50.608506
   24.212280   50.607444
   24.215802   50.604120
   24.216488   50.602476
   24.217737   50.601198
   24.218401   50.599517
   24.219292   50.598538
   24.222349   50.598252
   24.224565   50.597484
   24.227505   50.597155
   24.229211   50.596511
   24.231304   50.595122
   24.232208   50.593973
   24.232575   50.592273
   24.231909   50.590482
   24.233022   50.589692
   24.235391   50.589770
   24.237797   50.589311
   24.239546   50.588564
   24.241545   50.587052
   24.246644   50.585719
   24.257954   50.584884
   24.264983   50.585281
   24.267446   50.585132
   24.270530   50.584381
   24.274052   50.582755
   24.277580   50.582459
   24.285004   50.580711
   24.288599   50.580433
   24.294586   50.578819
   24.299863   50.579437
   24.304440   50.579147
   24.310970   50.578126
   24.312325   50.580118
   24.312188   50.581945
   24.313270   50.584717
   24.319102   50.593136
   24.316477   50.599692
   24.317159   50.601817
   24.319284   50.603491
   24.321702   50.604239
   24.323704   50.604376
   24.337961   50.602878
   24.348805   50.602712
   24.350828   50.603149
   24.352953   50.603167
   24.355966   50.602856
   24.359262   50.602027
   24.361747   50.603848
   24.367337   50.605517
   24.370445   50.607463
   24.371658   50.608857
   24.376660   50.612827
   24.379170   50.613564
   24.381922   50.613609
   24.385048   50.612691
   24.391395   50.608606
   24.401320   50.599762
   24.403056   50.597322
   24.403892   50.595157
   24.405511   50.593917
   24.414102   50.591845
   24.417857   50.590132
   24.419179   50.589146
   24.420012   50.587955
   24.420286   50.586658
   24.419461   50.584558
   24.416967   50.582091
   24.414703   50.578673
   24.407994   50.574416
   24.409605   50.572948
   24.410181   50.571678
   24.410031   50.569920
   24.408927   50.568395
   24.412288   50.563787
   24.418071   50.562881
   24.420351   50.562039
   24.421990   50.560708
   24.423678   50.558109
   24.427793   50.556401
   24.435315   50.552024
   24.439295   50.549275
   24.441889   50.548597
   24.450230   50.545232
   24.453762   50.545470
   24.456231   50.545364
   24.459249   50.544707
   24.461594   50.544928
   24.463766   50.546223
   24.466623   50.546866
   24.472471   50.549017
   24.475746   50.551240
   24.480753   50.552864
   24.481142   50.553126
   24.481437   50.556596
   24.482252   50.557889
   24.484934   50.560105
   24.488066   50.560936
   24.490777   50.560838
   24.496179   50.559240
   24.499202   50.559082
   24.507059   50.560424
   24.514091   50.560448
   24.517313   50.560131
   24.534904   50.555127
   24.536371   50.554102
   24.538775   50.551228
   24.540984   50.550327
   24.542237   50.549344
   24.544036   50.545751
   24.546160   50.543268
   24.553405   50.536482
   24.555219   50.533168
   24.555558   50.531995
   24.555321   50.527035
   24.556692   50.523150
   24.559003   50.521464
   24.561460   50.518573
   24.562364   50.515171
   24.564383   50.513179
   24.564937   50.511806
   24.564915   50.508391
   24.564442   50.507146
   24.560367   50.503542
   24.560916   50.502195
   24.561210   50.498619
   24.564987   50.498432
   24.567346   50.497628
   24.569068   50.496305
   24.569945   50.494270
   24.580565   50.495668
   24.579772   50.498547
   24.580254   50.501596
   24.581279   50.502738
   24.582768   50.503638
   24.584593   50.504220
   24.586598   50.504432
   24.591254   50.504125
   24.594992   50.502865
   24.598190   50.502178
   24.600934   50.500808
   24.602536   50.499029
   24.603490   50.495737
   24.602947   50.493956
   24.600844   50.492156
   24.596787   50.491067
   24.598101   50.488773
   24.598156   50.485366
   24.599394   50.482824
   24.602557   50.481543
   24.604168   50.479593
   24.604206   50.474736
   24.605208   50.472551
   24.605371   50.467656
   24.604522   50.465047
   24.603083   50.463462
   24.598272   50.460877
   24.601828   50.460438
   24.603661   50.459785
   24.605487   50.458422
   24.606348   50.456702
   24.604768   50.450207
   24.605463   50.435425
   24.603770   50.416851
   24.606532   50.416112
   24.610090   50.415896
   24.613281   50.414757
   24.618211   50.414478
   24.620997   50.413739
   24.627022   50.412917
   24.630660   50.412845
   24.633893   50.413209
   24.639900   50.412875
   24.642885   50.414322
   24.647246   50.415206
   24.651209   50.415208
   24.657030   50.414294
   24.659727   50.412965
   24.661141   50.410964
   24.661109   50.409195
   24.659286   50.405376
   24.663000   50.404742
   24.667175   50.404670
   24.669913   50.403745
   24.675313   50.403136
   24.678892   50.402235
   24.680667   50.401386
   24.685703   50.397928
   24.711771   50.387175
   24.721095   50.381282
   24.727802   50.375724
   24.728789   50.374114
   24.727982   50.367863
   24.722886   50.358947
   24.723029   50.354600
   24.721661   50.346662
   24.767282   50.343029
   24.775932   50.343810
   24.780275   50.345968
   24.784980   50.349448
   24.788005   50.350354
   24.795882   50.350417
   24.804522   50.350893
   24.807512   50.352026
   24.809605   50.352389
   24.827214   50.353388
   24.836469   50.354256
   24.848070   50.355950
   24.854084   50.355900
   24.855072   50.357169
   24.857414   50.358928
   24.861403   50.363873
   24.864015   50.365213
   24.866614   50.365613
   24.883392   50.363985
   24.889342   50.363107
   24.891697   50.362248
   24.893372   50.360868
   24.894112   50.359178
   24.893417   50.350498
   24.905902   50.349931
   24.907144   50.351342
   24.908654   50.352207
   24.910481   50.352754
   24.912471   50.352938
   24.924639   50.351146
   24.931099   50.350679
   24.932754   50.363345
   24.929356   50.370872
   24.923176   50.376062
   24.922516   50.377348
   24.922472   50.378705
   24.923048   50.380008
   24.924191   50.381142
   24.931796   50.385685
   24.934144   50.390931
   24.935158   50.392074
   24.937818   50.393409
   24.939774   50.393756
   24.941800   50.393720
   24.944315   50.393088
   24.954186   50.388929
   24.964615   50.381713
   24.972681   50.375650
   24.981274   50.371266
   24.983028   50.369769
   24.987836   50.367315
   24.994081   50.362571
   25.010489   50.352888
   25.018358   50.347291
   25.023266   50.349027
   25.033962   50.350325
   25.044260   50.348301
   25.046747   50.347131
   25.055250   50.347323
   25.061211   50.346575
   25.063882   50.345407
   25.066038   50.343007
   25.066750   50.341370
   25.065990   50.338886
   25.063343   50.336665
   25.065443   50.334054
   25.066435   50.331934
   25.067080   50.329955
   25.067096   50.326515
   25.066071   50.322860
   25.064406   50.321235
   25.064421   50.318816
   25.061945   50.315281
   25.063576   50.313294
   25.063963   50.311925
   25.063125   50.308545
   25.061700   50.306643
   25.061672   50.305960
   25.063074   50.303772
   25.069327   50.302003
   25.075114   50.298461
   25.079299   50.297310
   25.085063   50.297055
   25.101928   50.294530
   25.111177   50.292024
   25.114599   50.291609
   25.116435   50.291080
   25.118744   50.289523
   25.119666   50.287526
   25.127525   50.286732
   25.133561   50.288385
   25.139969   50.290752
   25.151358   50.293498
   25.157326   50.294553
   25.163264   50.294881
   25.176238   50.293686
   25.209205   50.282873
   25.210945   50.281577
   25.211878   50.279520
   25.210872   50.274414
   25.210276   50.257003
   25.210389   50.254364
   25.213651   50.247915
   25.213296   50.245751
   25.212337   50.244595
   25.210908   50.243667
   25.207824   50.242829
   25.195349   50.243773
   25.189033   50.233238
   25.190202   50.231241
   25.191432   50.226722
   25.191008   50.224223
   25.188669   50.221465
   25.186105   50.220167
   25.175017   50.218954
   25.173767   50.215866
   25.172835   50.209723
   25.173829   50.207146
   25.175178   50.205387
   25.183866   50.200813
   25.194625   50.196565
   25.211185   50.189215
   25.220305   50.182558
   25.221853   50.180568
   25.221751   50.178338
   25.219200   50.174939
   25.216885   50.169086
   25.214575   50.167496
   25.210825   50.166605
   25.214426   50.163692
   25.215042   50.162401
   25.215045   50.161049
   25.213806   50.157780
   25.213437   50.154227
   25.211629   50.148602
   25.208997   50.143393
   25.204467   50.131875
   25.216677   50.117869
   25.226018   50.109466
   25.237504   50.099899
   25.245329   50.092746
   25.252030   50.085975
   25.270510   50.069890
   25.274914   50.064646
   25.289483   50.052932
   25.307428   50.035683
   25.309837   50.034832
   25.311244   50.033867
   25.315377   50.027676
   25.321735   50.023476
   25.323500   50.021946
   25.325080   50.018496
   25.332683   50.016344
   25.338974   50.013457
   25.345002   50.011133
   25.365039   49.999775
   25.376540   49.995790
   25.389455   49.993075
   25.403814   49.990471
   25.407616   49.988839
   25.409836   49.986075
   25.418634   49.971317
   25.419127   49.969627
   25.418615   49.967940
   25.414472   49.962736
   25.409097   49.954976
   25.409718   49.951301
   25.414194   49.950371
   25.417691   49.948963
   25.423286   49.948634
   25.426400   49.947659
   25.429781   49.947303
   25.432412   49.945995
   25.433816   49.944043
   25.433663   49.936160
   25.432145   49.934161
   25.429977   49.933058
   25.426630   49.932583
   25.423614   49.933051
   25.422400   49.932043
   25.419761   49.930650
   25.416606   49.929922
   25.413871   49.930001
   25.407926   49.931453
   25.402514   49.932153
   25.398378   49.930502
   25.394057   49.929709
   25.394336   49.927876
   25.393506   49.925476
   25.390802   49.921835
   25.389782   49.919549
   25.385927   49.916245
   25.383931   49.913303
   25.387947   49.907811
   25.391177   49.905642
   25.393502   49.903379
   25.395854   49.898332
   25.395979   49.896478
   25.393394   49.891345
   25.391071   49.888085
   25.388344   49.883037
   25.387614   49.876569
   25.387085   49.875267
   25.385991   49.874125
   25.384429   49.873243
   25.380755   49.872531
   25.381980   49.867833
   25.381584   49.866464
   25.380567   49.865239
   25.375381   49.861723
   25.369893   49.860066
   25.366589   49.860061
   25.363625   49.860914
   25.360987   49.860584
   25.351093   49.858208
   25.347886   49.858043
   25.345076   49.858463
   25.342304   49.858453
   25.342271   49.856941
   25.341585   49.855662
   25.340349   49.854572
   25.338672   49.853770
   25.332495   49.852899
   25.327011   49.851307
   25.320670   49.851315
   25.319359   49.850121
   25.315540   49.847816
   25.313241   49.846910
   25.310586   49.846640
   25.307535   49.847193
   25.307419   49.845417
   25.306432   49.843717
   25.303612   49.841784
   25.300814   49.840943
   25.300837   49.839570
   25.300340   49.838434
   25.301036   49.836193
   25.300577   49.832952
   25.299590   49.830722
   25.295783   49.828132
   25.294301   49.826100
   25.290897   49.824279
   25.287584   49.823596
   25.285322   49.823491
   25.276777   49.824279
   25.274082   49.824932
   25.268721   49.825051
   25.266855   49.825595
   25.265386   49.826419
   25.262055   49.827216
   25.257331   49.830786
   25.252256   49.830581
   25.251348   49.824534
   25.249531   49.822278
   25.246797   49.821058
   25.238892   49.819646
   25.236636   49.819499
   25.209449   49.822351
   25.207621   49.822956
   25.206144   49.823882
   25.204134   49.826802
   25.181662   49.832575
   25.179755   49.832572
   25.178591   49.830379
   25.177541   49.829292
   25.175499   49.828223
   25.173310   49.827700
   25.171329   49.827625
   25.165521   49.828294
   25.159546   49.829623
   25.156826   49.825931
   25.151062   49.823497
   25.149953   49.819775
   25.150678   49.818179
   25.150606   49.816863
   25.149226   49.814876
   25.140733   49.810800
   25.137561   49.810217
   25.134948   49.810485
   25.131954   49.811388
   25.125857   49.811917
   25.124034   49.812630
   25.122480   49.813836
   25.110851   49.813978
   25.106231   49.814535
   25.102077   49.815961
   25.099756   49.816337
   25.093473   49.818194
   25.089555   49.820714
   25.089325   49.818523
   25.090602   49.800803
   25.093392   49.794199
   25.096330   49.789394
   25.096804   49.781885
   25.094842   49.778101
   25.091735   49.775014
   25.089598   49.774014
   25.087702   49.773646
   25.082254   49.773958
   25.081952   49.771464
   25.088465   49.767737
   25.094756   49.765063
   25.096767   49.763213
   25.106681   49.760828
   25.109587   49.759202
   25.120777   49.748123
   25.121656   49.746873
   25.121917   49.745510
   25.121538   49.744158
   25.117568   49.738926
   25.105753   49.729996
   25.103502   49.726680
   25.102257   49.725627
   25.100595   49.724854
   25.098659   49.724430
   25.095778   49.724237
   25.093359   49.724496
   25.085148   49.719443
   25.080310   49.715777
   25.080409   49.713372
   25.078797   49.711416
   25.070988   49.707610
   25.068474   49.707027
   25.066467   49.707022
   25.063946   49.707593
   25.057599   49.710978
   25.039382   49.726566
   25.033995   49.727431
   25.029434   49.728915
   25.027043   49.730540
   25.026577   49.730505
   25.005676   49.698035
   25.006400   49.696144
   25.005616   49.689098
   25.001201   49.668358
   25.001316   49.665156
   25.004781   49.661569
   25.005281   49.659366
   25.004106   49.657274
   25.002138   49.656026
   25.000255   49.655472
   24.994847   49.654826
   24.992826   49.646682
   24.994752   49.644272
   24.994928   49.642957
   24.994513   49.641664
   24.990620   49.637697
   24.988242   49.633897
   24.986263   49.632711
   24.984402   49.632195
   24.982392   49.632049
   24.980402   49.632287
   24.965501   49.636657
   24.965460   49.634914
   24.968600   49.632591
   24.969741   49.630986
   24.969616   49.628588
   24.970284   49.626419
   24.969758   49.624720
   24.967795   49.622978
   24.964909   49.621901
   24.963976   49.618748
   24.962548   49.616742
   24.961228   49.615603
   24.959971   49.613292
   24.954751   49.610289
   24.952707   49.609894
   24.949518   49.609948
   24.949583   49.608737
   24.949062   49.607428
   24.947971   49.606278
   24.946405   49.605389
   24.944507   49.604841
   24.942444   49.604683
   24.929482   49.604962
   24.925678   49.605344
   24.919145   49.607214
   24.916782   49.609179
   24.914338   49.609730
   24.910893   49.609501
   24.909535   49.609119
   24.909775   49.607495
   24.911697   49.605939
   24.912451   49.604695
   24.912530   49.602917
   24.911890   49.601647
   24.905422   49.596261
   24.903645   49.595543
   24.900922   49.595179
   24.894640   49.595565
   24.888042   49.596557
   24.882069   49.598173
   24.879772   49.599811
   24.877560   49.604257
   24.875860   49.601989
   24.873820   49.600699
   24.872182   49.600162
   24.871557   49.598440
   24.869387   49.596162
   24.867865   49.595324
   24.865518   49.594589
   24.862182   49.594400
   24.859186   49.595025
   24.848502   49.596267
   24.846213   49.595485
   24.842631   49.595286
   24.843909   49.593109
   24.843925   49.590418
   24.846006   49.587813
   24.846045   49.586080
   24.845410   49.584844
   24.843778   49.583474
   24.837767   49.581479
   24.831829   49.580605
   24.828552   49.581084
   24.826891   49.581842
   24.825637   49.582879
   24.824897   49.584109
   24.824677   49.585913
   24.820157   49.583359
   24.816388   49.582153
   24.814280   49.582060
   24.803747   49.582826
   24.802694   49.581726
   24.801719   49.578426
   24.797951   49.571059
   24.796444   49.569618
   24.794211   49.568655
   24.791585   49.568313
   24.777122   49.568285
   24.766132   49.567802
   24.763224   49.568085
   24.759827   49.567570
   24.728933   49.565998
   24.729697   49.562722
   24.730973   49.560451
   24.732597   49.555023
   24.733974   49.553017
   24.736227   49.547062
   24.735446   49.545010
   24.732873   49.542993
   24.731200   49.540010
   24.729517   49.538611
   24.730698   49.535706
   24.730796   49.534078
   24.729907   49.532052
   24.727095   49.529374
   24.726674   49.527197
   24.727110   49.514763
   24.727632   49.511926
   24.729368   49.510254
   24.729985   49.508095
   24.728528   49.504122
   24.728574   49.499607
   24.727538   49.495592
   24.726389   49.494050
   24.724442   49.492897
   24.722622   49.492390
   24.717442   49.491817
   24.711683   49.490688
   24.708489   49.490497
   24.707171   49.489404
   24.704352   49.488006
   24.702440   49.487478
   24.700374   49.487342
   24.697446   49.487669
   24.693396   49.488783
   24.690466   49.490176
   24.689200   49.491193
   24.684021   49.493101
   24.679401   49.491843
   24.677370   49.491737
   24.675379   49.492021
   24.668860   49.495047
   24.658126   49.498147
   24.656661   49.496867
   24.651217   49.493882
   24.649514   49.493255
   24.644008   49.492309
   24.637544   49.492921
   24.631372   49.495273
   24.626421   49.497623
   24.624943   49.499154
   24.624509   49.500561
   24.620495   49.502814
   24.618514   49.504733
   24.615259   49.504472
   24.606568   49.505860
   24.604155   49.507015
   24.602324   49.508472
   24.600391   49.509113
   24.597248   49.510786
   24.595825   49.511833
   24.585400   49.515448
   24.576091   49.522171
   24.572866   49.523318
   24.571335   49.524230
   24.567801   49.528306
   24.550899   49.522542
   24.550054   49.521065
   24.547427   49.518725
   24.540462   49.515142
   24.537529   49.514408
   24.535490   49.514276
   24.533542   49.514524
   24.530836   49.513579
   24.526180   49.513597
   24.519367   49.512380
   24.507482   49.508547
   24.505522   49.508325
   24.503546   49.508475
   24.501165   49.509225
   24.499388   49.510501
   24.497036   49.513186
   24.496637   49.515818
   24.494428   49.516834
   24.491923   49.517192
   24.490057   49.517889
   24.487506   49.519827
   24.485739   49.521857
   24.485260   49.524554
   24.485769   49.525814
   24.486923   49.527009
   24.484881   49.529009
   24.483408   49.532814
   24.484434   49.536705
   24.486182   49.538407
   24.483596   49.539347
   24.481540   49.539096
   24.478899   49.539376
   24.468445   49.537864
   24.465951   49.537250
   24.463856   49.537201
   24.452379   49.535622
   24.449057   49.536010
   24.446633   49.537200
   24.441835   49.534880
   24.443580   49.531921
   24.444185   49.529151
   24.446804   49.524935
   24.447192   49.522375
   24.448894   49.517712
   24.448777   49.515163
   24.447921   49.513899
   24.446493   49.512849
   24.446707   49.511043
   24.445866   49.509389
   24.443580   49.507811
   24.433731   49.504481
   24.426739   49.503141
   24.417934   49.500524
   24.415493   49.496496
   24.414305   49.495407
   24.412066   49.494394
   24.409180   49.493981
   24.413891   49.483783
   24.417766   49.478398
   24.420207   49.478127
   24.422522   49.477303
   24.424199   49.475977
   24.424994   49.474339
   24.424939   49.473048
   24.419919   49.457950
   24.417366   49.444312
   24.416796   49.443005
   24.414628   49.441256
   24.412120   49.440486
   24.386828   49.438163
   24.378350   49.433395
   24.379792   49.432278
   24.380699   49.430572
   24.380823   49.425549
   24.382239   49.417211
   24.384204   49.416668
   24.394005   49.412660
   24.395439   49.411684
   24.396367   49.410476
   24.396586   49.408245
   24.395307   49.406343
   24.396214   49.403416
   24.395945   49.400144
   24.395393   49.398523
   24.402185   49.397636
   24.406746   49.397809
   24.409267   49.397310
   24.410869   49.396550
   24.415832   49.392766
   24.425580   49.387939
   24.426696   49.386868
   24.427370   49.385243
   24.430498   49.383403
   24.431880   49.381381
   24.434583   49.380463
   24.436557   49.378656
   24.437026   49.376902
   24.435932   49.371819
   24.434926   49.370583
   24.432780   49.369355
   24.427631   49.367485
   24.424052   49.366989
   24.421638   49.365317
   24.418398   49.364000
   24.414033   49.363377
   24.411354   49.362341
   24.408211   49.361665
   24.407267   49.360539
   24.406642   49.357372
   24.405820   49.356214
   24.404374   49.355170
   24.403108   49.352193
   24.403244   49.348097
   24.401839   49.344456
   24.405611   49.343635
   24.407198   49.342778
   24.408329   49.341656
   24.408951   49.339471
   24.407844   49.335331
   24.407156   49.334103
   24.405958   49.333054
   24.400452   49.330538
   24.399993   49.329097
   24.395238   49.321194
   24.392152   49.318330
   24.387610   49.308974
   24.387443   49.306650
   24.386620   49.305456
   24.385305   49.304466
   24.383610   49.303762
   24.381676   49.303403
   24.379008   49.303510
   24.377157   49.304021
   24.368243   49.309632
   24.366091   49.310563
   24.364418   49.312224
   24.359324   49.315551
   24.354658   49.311892
   24.350642   49.307910
   24.348335   49.307005
   24.345588   49.306744
   24.342578   49.305918
   24.339879   49.305979
   24.307858   49.310538
   24.305742   49.295764
   24.306203   49.288977
   24.308942   49.283713
   24.315174   49.286497
   24.320620   49.289802
   24.327662   49.291495
   24.330655   49.293461
   24.335222   49.295773
   24.337026   49.296308
   24.338989   49.296490
   24.341577   49.296161
   24.344357   49.294961
   24.362228   49.289662
   24.364425   49.287994
   24.365261   49.285177
   24.368156   49.284329
   24.369973   49.282962
   24.370823   49.281242
   24.370781   49.277066
   24.365774   49.268911
   24.365064   49.260631
   24.364153   49.259461
   24.362765   49.258511
   24.359557   49.257606
   24.359416   49.253885
   24.358312   49.251162
   24.356506   49.249837
   24.353516   49.248992
   24.353742   49.243364
   24.353334   49.241728
   24.354800   49.240587
   24.361624   49.237245
   24.368408   49.236065
   24.372354   49.235953
   24.380232   49.234672
   24.388992   49.232230
   24.395481   49.232897
   24.406105   49.232918
   24.413574   49.234591
   24.417388   49.234885
   24.419825   49.235447
   24.428297   49.236544
   24.434922   49.236300
   24.440762   49.234593
   24.446311   49.235193
   24.448351   49.235092
   24.450833   49.234369
   24.452699   49.233081
   24.453898   49.230628
   24.453759   49.229339
   24.453066   49.228129
   24.441412   49.218975
   24.442990   49.216433
   24.443636   49.214091
   24.442639   49.211285
   24.441713   49.210054
   24.441698   49.206523
   24.442406   49.203848
   24.444561   49.200428
   24.445155   49.197780
   24.444128   49.195109
   24.442907   49.193908
   24.440400   49.192435
   24.439077   49.190444
   24.439881   49.188334
   24.442355   49.185131
   24.442945   49.182218
   24.442358   49.179690
   24.443848   49.178240
   24.444383   49.176509
   24.443567   49.174374
   24.441934   49.172432
   24.439314   49.170279
   24.427369   49.166420
   24.422122   49.165429
   24.418849   49.163905
   24.416848   49.163626
   24.414810   49.163738
   24.411802   49.164753
   24.406097   49.168503
   24.398592   49.171046
   24.396055   49.172290
   24.393043   49.174678
   24.385262   49.178779
   24.379587   49.184451
   24.376257   49.184213
   24.361490   49.181915
   24.359266   49.178954
   24.357989   49.177947
   24.356322   49.177219
   24.351421   49.175936
   24.348624   49.175752
   24.344109   49.176403
   24.336282   49.175748
   24.323080   49.170641
   24.317092   49.169593
   24.310704   49.166758
   24.306395   49.166200
   24.303504   49.165327
   24.298895   49.165020
   24.296933   49.164372
   24.293920   49.163950
   24.284685   49.164129
   24.278678   49.161446
   24.268340   49.155888
   24.265156   49.153563
   24.260517   49.151856
   24.256029   49.149542
   24.253011   49.147293
   24.247984   49.145596
   24.239839   49.141493
   24.238137   49.140239
   24.236299   49.139575
   24.232839   49.139346
   24.230516   49.139856
   24.227207   49.139899
   24.225249   49.140318
   24.217695   49.140910
   24.212987   49.142377
   24.209075   49.140048
   24.217387   49.136907
   24.219144   49.135545
   24.219959   49.133847
   24.219870   49.132510
   24.218831   49.130865
   24.217451   49.129873
   24.215686   49.129188
   24.209129   49.128594
   24.203420   49.128539
   24.197018   49.128832
   24.194794   49.129186
   24.191396   49.130430
   24.189997   49.131269
   24.188047   49.133149
   24.186043   49.136628
   24.182806   49.137298
   24.179702   49.138618
   24.175401   49.138856
   24.172423   49.135911
   24.170849   49.133023
   24.171771   49.130916
   24.172014   49.128761
   24.170943   49.125769
   24.168742   49.124012
   24.165508   49.123171
   24.153411   49.123766
   24.149392   49.124777
   24.145257   49.126660
   24.143877   49.127531
   24.142644   49.129161
   24.140554   49.130927
   24.136640   49.137611
   24.133838   49.137765
   24.128476   49.136180
   24.124608   49.135556
   24.120659   49.135748
   24.116497   49.136909
   24.112472   49.135797
   24.109653   49.135715
   24.103563   49.137067
   24.099472   49.138960
   24.097175   49.141028
   24.094070   49.141272
   24.090353   49.142459
   24.087343   49.142818
   24.084759   49.141365
   24.081578   49.140777
   24.077002   49.141181
   24.075270   49.141640
   24.069066   49.141654
   24.063192   49.142207
   24.061095   49.139889
   24.058772   49.138229
   24.056618   49.137363
   24.055263   49.135658
   24.053794   49.134617
   24.051908   49.131496
   24.047954   49.127687
   24.045345   49.126033
   24.044380   49.124388
   24.041360   49.121862
   24.038026   49.120335
   24.035848   49.119855
   24.030836   49.116901
   24.027583   49.114504
   24.022722   49.113005
   24.020217   49.112761
   24.012261   49.113422
   24.010401   49.113886
   24.008820   49.114676
   24.007366   49.116118
   24.005989   49.119431
   24.005989   49.121476
   24.006589   49.123035
   24.000356   49.125888
   23.986651   49.128775
   23.982682   49.130120
   23.979670   49.129994
   23.977776   49.130273
   23.972505   49.131936
   23.967398   49.125673
   23.964923   49.124190
   23.963017   49.123734
   23.960989   49.123656
   23.955655   49.124840
   23.949526   49.123132
   23.944689   49.120824
   23.937629   49.118395
   23.936109   49.116285
   23.932638   49.113447
   23.919083   49.106382
   23.916775   49.103705
   23.914550   49.099738
   23.911775   49.096423
   23.908182   49.094368
   23.905664   49.093742
   23.903637   49.093712
   23.901077   49.094262
   23.897230   49.096021
   23.895000   49.097530
   23.877649   49.099360
   23.875704   49.099818
   23.874052   49.100629
   23.872419   49.102145
   23.871750   49.103464
   23.871626   49.105164
   23.843907   49.107744
   23.833067   49.108471
   23.831424   49.107293
   23.827202   49.105549
   23.821805   49.104471
   23.819748   49.104555
   23.817738   49.105062
   23.812705   49.105383
   23.811133   49.104185
   23.808925   49.103295
   23.806557   49.101697
   23.804016   49.101078
   23.801304   49.101140
   23.799408   49.101632
   23.794729   49.103582
   23.792312   49.104903
   23.791101   49.105993
   23.789426   49.108914
   23.786792   49.110963
   23.785023   49.111613
   23.783240   49.112932
   23.778350   49.110278
   23.775694   49.109883
   23.773659   49.110043
   23.770706   49.111133
   23.767764   49.114136
   23.762913   49.116600
   23.762575   49.115110
   23.761738   49.113964
   23.756433   49.110019
   23.752837   49.108623
   23.749483   49.107952
   23.747135   49.107910
   23.745607   49.107153
   23.744676   49.105686
   23.744841   49.104172
   23.744297   49.102039
   23.739947   49.097408
   23.738225   49.096560
   23.735810   49.095999
   23.730291   49.092843
   23.728214   49.092062
   23.726341   49.091751
   23.722612   49.089927
   23.718371   49.088969
   23.716360   49.089092
   23.713923   49.089828
   23.712480   49.090748
   23.711504   49.091899
   23.710668   49.093592
   23.710621   49.095490
   23.708634   49.094604
   23.705918   49.094146
   23.703818   49.094287
   23.701514   49.094999
   23.698958   49.093572
   23.696702   49.092834
   23.691398   49.086917
   23.692078   49.085541
   23.692105   49.084109
   23.690722   49.080401
   23.687916   49.076990
   23.686133   49.075539
   23.690062   49.073459
   23.692293   49.071612
   23.693965   49.069134
   23.694951   49.066326
   23.694820   49.064927
   23.693046   49.062621
   23.687852   49.060247
   23.686136   49.055921
   23.685924   49.054806
   23.686344   49.052678
   23.685132   49.049886
   23.686147   49.048505
   23.686532   49.046813
   23.686023   49.044168
   23.683535   49.040485
   23.680383   49.038433
   23.680622   49.035992
   23.679059   49.033653
   23.673855   49.028977
   23.664285   49.022125
   23.661231   49.021134
   23.657815   49.021212
   23.654458   49.019172
   23.650820   49.018116
   23.648087   49.017930
   23.644865   49.018682
   23.637648   49.022188
   23.636235   49.023291
   23.635272   49.024629
   23.628160   49.021773
   23.630546   49.013641
   23.630162   49.011881
   23.629201   49.010700
   23.626135   49.008972
   23.624099   49.006913
   23.620564   49.004227
   23.616370   49.001605
   23.607626   48.997324
   23.603712   48.996551
   23.600700   48.994189
   23.592619   48.985092
   23.587717   48.982455
   23.581071   48.976552
   23.579341   48.975609
   23.574662   48.974031
   23.573171   48.973109
   23.573395   48.971320
   23.581395   48.968836
   23.583772   48.967329
   23.585792   48.964861
   23.586549   48.962538
   23.587910   48.960763
   23.591191   48.958668
   23.592264   48.957550
   23.593035   48.954201
   23.591891   48.951206
   23.591868   48.949397
   23.590252   48.944188
   23.585520   48.939337
   23.584697   48.938077
   23.584376   48.935896
   23.581386   48.931581
   23.578645   48.929575
   23.575257   48.923434
   23.575181   48.921626
   23.574590   48.920272
   23.571875   48.916517
   23.569562   48.911584
   23.572377   48.908575
   23.574386   48.904507
   23.576139   48.903526
   23.577786   48.901881
   23.579636   48.898654
   23.579581   48.896031
   23.582177   48.892813
   23.582805   48.890803
   23.585310   48.889328
   23.589506   48.889418
   23.593851   48.888124
   23.598658   48.889147
   23.602071   48.889328
   23.608507   48.888258
   23.610391   48.887687
   23.612698   48.886026
   23.614447   48.882287
   23.614526   48.875668
   23.614047   48.874402
   23.613034   48.873278
   23.610404   48.871964
   23.607807   48.871584
   23.596924   48.871522
   23.590791   48.868075
   23.588345   48.867373
   23.585678   48.867208
   23.583851   48.865538
   23.582967   48.863277
   23.578554   48.859580
   23.577688   48.856497
   23.577824   48.854902
   23.576923   48.853180
   23.579673   48.850379
   23.581363   48.847927
   23.581724   48.846746
   23.581522   48.844487
   23.580755   48.843226
   23.579448   48.842169
   23.576107   48.840917
   23.576804   48.838811
   23.576394   48.836273
   23.575653   48.835036
   23.573837   48.833543
   23.572469   48.831133
   23.572469   48.829658
   23.571304   48.826384
   23.568601   48.824349
   23.565106   48.823101
   23.563258   48.822076
   23.565006   48.819845
   23.565663   48.817508
   23.565298   48.815615
   23.566796   48.814371
   23.567820   48.812709
   23.573113   48.808387
   23.576193   48.805044
   23.576633   48.803778
   23.576155   48.800141
   23.576683   48.796937
   23.579471   48.793818
   23.580460   48.790464
   23.584110   48.788056
   23.585573   48.786418
   23.586064   48.784020
   23.584077   48.780266
   23.584612   48.778791
   23.584519   48.777506
   23.583875   48.776290
   23.582730   48.775241
   23.576896   48.771475
   23.575347   48.770837
   23.573751   48.768612
   23.572377   48.765518
   23.567481   48.761005
   23.566451   48.757836
   23.564608   48.755932
   23.563840   48.753453
   23.562407   48.752176
   23.561312   48.748464
   23.562137   48.745807
   23.561879   48.744012
   23.559420   48.741531
   23.556242   48.737329
   23.556750   48.733858
   23.555447   48.730319
   23.555159   48.725418
   23.554401   48.723638
   23.551739   48.721704
   23.547681   48.720754
   23.545139   48.719533
   23.543305   48.719103
   23.538784   48.719069
   23.534284   48.720629
   23.522012   48.723328
   23.520220   48.724148
   23.518447   48.725497
   23.515704   48.726214
   23.512927   48.727471
   23.511029   48.728815
   23.508095   48.727347
   23.503906   48.723791
   23.500849   48.722721
   23.499208   48.721529
   23.497669   48.719258
   23.495632   48.718122
   23.492413   48.717538
   23.489544   48.717890
   23.484352   48.716836
   23.480577   48.716925
   23.478642   48.716347
   23.476996   48.715057
   23.475304   48.714342
   23.473447   48.713873
   23.471463   48.713765
   23.467648   48.714344
   23.465342   48.715256
   23.462842   48.717032
   23.461528   48.719550
   23.457236   48.719831
   23.452943   48.720904
   23.448413   48.721331
   23.443254   48.721046
   23.435301   48.721078
   23.428799   48.721919
   23.426203   48.722773
   23.421695   48.725426
   23.417161   48.726322
   23.415240   48.727414
   23.410441   48.729115
   23.408717   48.730106
   23.406326   48.729221
   23.400857   48.728367
   23.396202   48.728360
   23.394351   48.728641
   23.390958   48.730078
   23.389150   48.731318
   23.385845   48.736131
   23.383193   48.737300
   23.378775   48.737601
   23.376844   48.738134
   23.374627   48.739298
   23.371753   48.741757
   23.369778   48.744578
   23.368702   48.747497
   23.369005   48.751980
   23.367502   48.757875
   23.365310   48.760029
   23.363443   48.762909
   23.361578   48.764092
   23.360293   48.761764
   23.358600   48.760288
   23.348152   48.756134
   23.346799   48.754680
   23.343668   48.752748
   23.338166   48.751190
   23.331863   48.750128
   23.327695   48.749053
   23.322829   48.748707
   23.316113   48.749006
   23.313047   48.749892
   23.310975   48.751610
   23.310120   48.754668
   23.307680   48.756752
   23.305069   48.757088
   23.303400   48.757696
   23.300420   48.759467
   23.297086   48.762316
   23.291863   48.764086
   23.289311   48.766043
   23.287827   48.767967
   23.286687   48.768724
   23.286172   48.766448
   23.285078   48.764782
   23.283760   48.763659
   23.281591   48.762425
   23.279736   48.761801
   23.276046   48.761464
   23.274905   48.759837
   23.272832   48.758417
   23.271206   48.757654
   23.269314   48.757224
   23.265315   48.757033
   23.262490   48.756434
   23.259355   48.756253
   23.257486   48.756423
   23.253955   48.757336
   23.250074   48.755536
   23.246754   48.755274
   23.240414   48.754129
   23.237650   48.754429
   23.228543   48.756719
   23.224538   48.758378
   23.217010   48.756126
   23.210906   48.756463
   23.208282   48.756036
   23.201342   48.755832
   23.198694   48.756278
   23.195187   48.757989
   23.192335   48.760806
   23.191677   48.762156
   23.191289   48.764627
   23.189283   48.766714
   23.185703   48.771911
   23.185255   48.773616
   23.185659   48.775620
   23.183291   48.778853
   23.182853   48.780528
   23.178734   48.783958
   23.173146   48.789714
   23.171982   48.792433
   23.171896   48.800270
   23.170651   48.803543
   23.166744   48.805109
   23.164598   48.806977
   23.163031   48.809467
   23.162636   48.813561
   23.158413   48.816385
   23.156620   48.819499
   23.153339   48.822974
   23.149253   48.825709
   23.147445   48.827643
   23.143436   48.828914
   23.131583   48.829736
   23.129204   48.830547
   23.127476   48.831886
   23.124571   48.839497
   23.125272   48.842778
   23.128423   48.845893
   23.127650   48.846951
   23.124172   48.846728
   23.121490   48.847200
   23.119785   48.847987
   23.116933   48.850323
   23.113900   48.850890
   23.110454   48.852791
   23.105441   48.853335
   23.101147   48.854378
   23.098953   48.855493
   23.096394   48.857863
   23.093150   48.857449
   23.091960   48.853881
   23.090713   48.852252
   23.088957   48.851013
   23.086625   48.850278
   23.081828   48.849963
   23.079750   48.849016
   23.077550   48.848612
   23.074741   48.848741
   23.070847   48.849717
   23.069282   48.849377
   23.062767   48.843430
   23.059957   48.842206
   23.057272   48.841946
   23.054639   48.842377
   23.050469   48.844309
   23.047624   48.846437
   23.045228   48.846729
   23.042097   48.846163
   23.036644   48.844198
   23.034104   48.842832
   23.031231   48.842162
   23.026946   48.841813
   23.022243   48.842306
   23.019721   48.840178
   23.019361   48.839064
   23.018166   48.837674
   23.017728   48.835729
   23.015666   48.833155
   23.010298   48.830119
   23.007217   48.829339
   23.005362   48.827587
   23.003817   48.826690
   23.001261   48.826026
   22.997842   48.826180
   22.991128   48.829032
   22.987425   48.831459
   22.983976   48.831858
   22.981608   48.832773
   22.978563   48.835307
   22.975200   48.837002
   22.972122   48.840203
   22.969833   48.841492
   22.968596   48.842643
   22.967748   48.844952
   22.966007   48.847362
   22.965317   48.849166
   22.965514   48.851589
   22.964921   48.853883
   22.965089   48.858277
   22.963594   48.861704
   22.963973   48.867564
   22.962474   48.870266
   22.962548   48.872099
   22.961101   48.872768
   22.956959   48.873082
   22.952326   48.874093
   22.945566   48.877020
   22.943073   48.878422
   22.941440   48.880003
   22.939359   48.879834
   22.936854   48.880193
   22.925784   48.884080
   22.923421   48.885565
   22.922193   48.887284
   22.917336   48.889548
   22.915274   48.891039
   22.911065   48.892213
   22.904268   48.896223
   22.898456   48.898221
   22.893970   48.900944
   22.892164   48.903110
   22.889054   48.905117
   22.885785   48.908166
   22.884358   48.910365
   22.882882   48.916841
   22.879380   48.923662
   22.877697   48.924786
   22.871772   48.930336
   22.869949   48.933854
   22.869510   48.936075
   22.867844   48.937482
   22.866440   48.939882
   22.865313   48.944028
   22.865440   48.946416
   22.867057   48.948535
   22.866886   48.951272
   22.865577   48.953957
   22.865793   48.956195
   22.867204   48.959059
   22.869217   48.960741
   22.876712   48.964401
   22.880499   48.965200
   22.883425   48.967196
   22.887060   48.968567
   22.890187   48.969167
   22.893500   48.972161
   22.896301   48.973538
   22.899438   48.974218
   22.903760   48.974002
   22.906662   48.972919
   22.909640   48.970662
   22.910369   48.970528
   22.911510   48.971484
   22.909053   48.975418
   22.908664   48.977117
   22.909415   48.979063
   22.911067   48.980840
   22.908556   48.983369
   22.907407   48.987607
   22.900808   48.992659
   22.894402   48.998995
   22.893368   48.998895
   22.886681   48.996605
   22.877451   48.995970
   22.868688   48.997694
   22.864386   48.998939
   22.862319   49.000111
   22.861319   49.001286
   22.860885   49.003049
   22.861533   49.004783
   22.865401   49.007733
   22.868565   49.008575
   22.872985   49.008494
   22.879788   49.011103
   22.882489   49.011459
   22.882374   49.014164
   22.882778   49.015622
   22.874088   49.021191
   22.872313   49.023174
   22.871320   49.025570
   22.869045   49.027146
   22.867098   49.030141
   22.867383   49.034562
   22.865609   49.034958
   22.862393   49.036369
   22.860788   49.037545
   22.859961   49.038733
   22.859688   49.040026
   22.860017   49.042071
   22.863225   49.046304
   22.863535   49.048624
   22.864506   49.049846
   22.867326   49.051708
   22.862250   49.054684
   22.859744   49.058106
   22.859251   49.060433
   22.859862   49.062289
   22.858479   49.063829
   22.857587   49.066668
   22.858062   49.068429
   22.860624   49.072316
   22.859696   49.073980
   22.859916   49.076623
   22.862229   49.079901
   22.864661   49.081395
   22.873669   49.084221
   22.874363   49.085796
   22.875902   49.087437
   22.877669   49.088678
   22.879794   49.089365
   22.882121   49.092347
   22.879126   49.092680
   22.876335   49.092076
   22.873735   49.092218
   22.870847   49.093175
   22.868612   49.094320
   22.865509   49.094641
   22.863221   49.095543
   22.861004   49.095656
   22.858603   49.096379
   22.854805   49.098905
   22.852101   49.099697
   22.849385   49.101462
   22.847984   49.105082
   22.848095   49.107035
   22.843977   49.105862
   22.840034   49.105685
   22.833799   49.106274
   22.830533   49.106275
   22.828024   49.106916
   22.826447   49.107682
   22.823519   49.109933
   22.822334   49.111455
   22.821930   49.116435
   22.819041   49.118217
   22.816303   49.118878
   22.812143   49.119094
   22.809225   49.120250
   22.806287   49.122618
   22.805255   49.124362
   22.803288   49.125005
   22.801760   49.125991
   22.800270   49.127756
   22.799878   49.129214
   22.797257   49.129995
   22.794797   49.131657
   22.793880   49.132763
   22.790628   49.133569
   22.787584   49.135434
   22.785769   49.137940
   22.785036   49.139875
   22.784949   49.141738
   22.785559   49.143178
   22.784891   49.145069
   22.782803   49.146947
   22.782088   49.148298
   22.781883   49.149875
   22.782263   49.151278
   22.778858   49.149197
   22.774201   49.147944
   22.770784   49.148076
   22.767771   49.149243
   22.765072   49.149193
   22.762989   49.148332
   22.760914   49.148017
   22.757928   49.148259
   22.755560   49.148884
   22.753818   49.148474
   22.750339   49.148305
   22.748311   49.148640
   22.745814   49.149674
   22.743483   49.151824
   22.740641   49.152929
   22.737421   49.153455
   22.734126   49.154848
   22.731750   49.157734
   22.731366   49.159278
   22.731496   49.161635
   22.734805   49.166046
   22.735344   49.169381
   22.735978   49.170757
   22.738065   49.172659
   22.741987   49.175321
   22.743214   49.178168
   22.741081   49.178294
   22.740005   49.178010
   22.735295   49.172556
   22.733457   49.171364
   22.731403   49.170601
   22.731546   49.167553
   22.729983   49.165335
   22.724833   49.161930
   22.719684   49.160436
   22.715102   49.160538
   22.713182   49.161039
   22.711574   49.161886
   22.709502   49.163935
   22.708367   49.165921
   22.708085   49.167556
   22.704487   49.169280
   22.702094   49.171375
   22.700734   49.173457
   22.700488   49.176716
   22.701286   49.179382
   22.701345   49.181643
   22.701978   49.182831
   22.704863   49.184951
   22.710122   49.186286
   22.712590   49.190191
   22.712916   49.192593
   22.714366   49.194741
   22.715600   49.195785
   22.716606   49.198081
   22.719121   49.199943
   22.721945   49.200690
   22.722490   49.204236
   22.723254   49.206013
   22.726416   49.208683
   22.726247   49.210685
   22.726667   49.211912
   22.728151   49.213885
   22.730333   49.215386
   22.728125   49.216428
   22.724171   49.216149
   22.721058   49.216690
   22.718049   49.216842
   22.715608   49.217710
   22.708687   49.224450
   22.707943   49.226610
   22.710075   49.237173
   22.715572   49.243885
   22.718188   49.245378
   22.732946   49.250218
   22.733552   49.256504
   22.733324   49.263506
   22.737174   49.299146
   22.743774   49.316573
   22.736247   49.335496
   22.739841   49.359723
   22.737365   49.368805
   22.725844   49.397190
   22.718891   49.408510
   22.714068   49.418829
   22.710048   49.428658
   22.706045   49.436659
   22.703517   49.444843
   22.694573   49.480133
   22.693600   49.487438
   22.691590   49.491025
   22.667636   49.493373
   22.660534   49.496928
   22.655196   49.500365
   22.645817   49.505543
   22.644539   49.507173
   22.638126   49.522372
   22.633997   49.529143
   22.633920   49.530509
   22.634473   49.531827
   22.635606   49.532978
   22.637215   49.533856
END
END
