mykolaiv
1
   30.200769   48.069544
   30.205061   48.073184
   30.212026   48.076511
   30.217107   48.076819
   30.218950   48.076456
   30.221175   48.075327
   30.223715   48.074609
   30.225909   48.074994
   30.227561   48.074943
   30.228516   48.075098
   30.230062   48.076352
   30.233409   48.077915
   30.235927   48.078613
   30.238228   48.080721
   30.242966   48.087417
   30.242970   48.089966
   30.243718   48.091674
   30.245377   48.093053
   30.247664   48.094001
   30.251001   48.094287
   30.266703   48.092872
   30.277240   48.090881
   30.277984   48.094040
   30.279012   48.095559
   30.284630   48.099356
   30.286663   48.100268
   30.293747   48.101630
   30.298958   48.101147
   30.301649   48.101392
   30.307919   48.100676
   30.308512   48.107272
   30.310248   48.109117
   30.312434   48.110052
   30.315526   48.110395
   30.317591   48.110273
   30.319964   48.109580
   30.321563   48.108760
   30.328605   48.107472
   30.331190   48.106170
   30.335072   48.102361
   30.350340   48.104881
   30.350435   48.108776
   30.314434   48.112246
   30.312073   48.112797
   30.310591   48.113582
   30.309491   48.114619
   30.308861   48.115824
   30.302426   48.137416
   30.301735   48.142347
   30.302772   48.144412
   30.305106   48.145905
   30.308193   48.146480
   30.312686   48.146254
   30.315397   48.145793
   30.317810   48.146844
   30.320357   48.148693
   30.319520   48.151061
   30.319108   48.154201
   30.319750   48.159596
   30.320630   48.161739
   30.322739   48.163706
   30.325220   48.164834
   30.328343   48.165599
   30.331496   48.165974
   30.334841   48.165777
   30.337888   48.166844
   30.342571   48.170451
   30.345022   48.171642
   30.352704   48.173340
   30.356172   48.173720
   30.357504   48.175806
   30.358746   48.176948
   30.361280   48.178140
   30.362940   48.178544
   30.369887   48.179209
   30.377149   48.178927
   30.380238   48.179458
   30.382905   48.179560
   30.386534   48.179139
   30.390101   48.177719
   30.392771   48.175541
   30.393732   48.173838
   30.394811   48.170004
   30.401507   48.169237
   30.407803   48.168885
   30.414222   48.167665
   30.416005   48.167795
   30.423664   48.169389
   30.424691   48.170666
   30.425552   48.172860
   30.426917   48.174231
   30.430500   48.176199
   30.433722   48.177160
   30.435624   48.177381
   30.439837   48.176761
   30.444691   48.175128
   30.446706   48.174081
   30.449931   48.174471
   30.453500   48.174060
   30.457775   48.172470
   30.459605   48.171457
   30.467132   48.169286
   30.473018   48.171403
   30.475700   48.171642
   30.478996   48.171328
   30.487649   48.174213
   30.493270   48.174987
   30.497009   48.174774
   30.499559   48.174225
   30.503975   48.172473
   30.506463   48.170748
   30.507598   48.168577
   30.522071   48.182597
   30.524789   48.183838
   30.527388   48.184090
   30.529928   48.183636
   30.531552   48.182870
   30.557536   48.166433
   30.558834   48.164995
   30.560826   48.160177
   30.576723   48.159518
   30.579274   48.161081
   30.583305   48.161694
   30.614219   48.161064
   30.614008   48.164514
   30.614321   48.167007
   30.615652   48.168883
   30.617668   48.170139
   30.621499   48.170985
   30.635760   48.171806
   30.645726   48.174190
   30.641891   48.178462
   30.640590   48.184758
   30.640676   48.186065
   30.641307   48.187302
   30.642431   48.188363
   30.643954   48.189160
   30.646381   48.189701
   30.664286   48.191331
   30.683030   48.192501
   30.714586   48.199866
   30.717215   48.200098
   30.720344   48.199382
   30.722580   48.197727
   30.724666   48.191460
   30.784653   48.195934
   30.786666   48.195889
   30.788566   48.195434
   30.790624   48.194267
   30.791839   48.192641
   30.796205   48.181806
   30.798209   48.173054
   30.805968   48.173754
   30.807331   48.178680
   30.809579   48.180923
   30.812991   48.183541
   30.812521   48.188493
   30.813301   48.190031
   30.814415   48.191144
   30.815960   48.191984
   30.817800   48.192476
   30.823906   48.192858
   30.828316   48.192059
   30.830307   48.191164
   30.832052   48.189504
   30.832983   48.186907
   30.847847   48.188869
   30.851023   48.188544
   30.853167   48.187568
   30.854325   48.186507
   30.854983   48.185263
   30.860691   48.166023
   30.868994   48.166691
   30.871940   48.166503
   30.873745   48.167591
   30.877445   48.168773
   30.885885   48.169752
   30.895234   48.169909
   30.897741   48.169380
   30.899595   48.168449
   30.901689   48.169244
   30.903689   48.169478
   30.905827   48.169418
   30.908116   48.168825
   30.911893   48.169169
   30.912662   48.170413
   30.914635   48.172197
   30.917896   48.173796
   30.920300   48.174286
   30.923561   48.174250
   30.923347   48.175897
   30.923817   48.178413
   30.923417   48.180717
   30.924705   48.184608
   30.926655   48.186885
   30.929230   48.188160
   30.931738   48.188493
   30.934503   48.188328
   30.936997   48.188736
   30.940399   48.188785
   30.942434   48.188459
   30.945619   48.188671
   30.950072   48.187824
   30.955996   48.185946
   30.959755   48.188332
   30.961994   48.189194
   30.964721   48.189761
   30.974360   48.189893
   30.977511   48.189187
   30.979370   48.188397
   30.981871   48.188602
   30.980753   48.194490
   30.980973   48.195810
   30.981675   48.196942
   30.974618   48.221747
   30.974873   48.223488
   30.975694   48.224678
   30.976983   48.225656
   30.978631   48.226341
   31.032309   48.234106
   31.052094   48.236707
   31.053987   48.236646
   31.055777   48.236223
   31.057320   48.235472
   31.058677   48.234229
   31.059417   48.232902
   31.061519   48.225321
   31.137016   48.233745
   31.139604   48.233685
   31.142471   48.232677
   31.144044   48.231274
   31.145625   48.225870
   31.157846   48.227075
   31.161264   48.227680
   31.165399   48.227055
   31.168252   48.226045
   31.169918   48.224720
   31.170737   48.223120
   31.172913   48.222273
   31.174943   48.220815
   31.175875   48.219098
   31.175894   48.217636
   31.177504   48.216750
   31.178823   48.215239
   31.179518   48.212316
   31.181367   48.211440
   31.184215   48.209217
   31.188350   48.207119
   31.190447   48.205350
   31.192707   48.200896
   31.192963   48.199119
   31.195150   48.198418
   31.197146   48.197198
   31.198396   48.195607
   31.198819   48.193927
   31.198398   48.192272
   31.196408   48.188293
   31.193898   48.185027
   31.190944   48.183505
   31.188815   48.183046
   31.186740   48.183032
   31.189277   48.180597
   31.194734   48.178162
   31.198794   48.175402
   31.202977   48.173173
   31.220835   48.175335
   31.223925   48.174786
   31.226282   48.173317
   31.227262   48.171701
   31.237186   48.136056
   31.241460   48.122775
   31.324752   48.142827
   31.326737   48.142713
   31.329137   48.141951
   31.330543   48.140990
   31.331467   48.139787
   31.335430   48.119973
   31.342669   48.122269
   31.349285   48.123412
   31.354010   48.123261
   31.358683   48.123692
   31.361378   48.123394
   31.363353   48.123925
   31.365436   48.124100
   31.367626   48.126171
   31.370777   48.127881
   31.372259   48.131519
   31.374422   48.135122
   31.375749   48.136051
   31.377408   48.136685
   31.380533   48.136959
   31.384079   48.136024
   31.387886   48.135812
   31.390352   48.135215
   31.391873   48.134363
   31.394876   48.131575
   31.396367   48.127907
   31.400314   48.113631
   31.412776   48.115300
   31.411356   48.120493
   31.411467   48.121821
   31.412875   48.123803
   31.414333   48.124687
   31.416105   48.125244
   31.483312   48.133868
   31.487465   48.134095
   31.490540   48.133351
   31.492387   48.132085
   31.493372   48.130429
   31.505053   48.088228
   31.505128   48.086890
   31.503987   48.084814
   31.501537   48.083356
   31.480484   48.079267
   31.479036   48.077184
   31.477670   48.068747
   31.488236   48.069914
   31.490742   48.069537
   31.492851   48.068540
   31.494458   48.066655
   31.497548   48.055931
   31.499204   48.056244
   31.500058   48.056784
   31.502154   48.058321
   31.503195   48.059622
   31.504572   48.062509
   31.502983   48.068020
   31.502996   48.069807
   31.504022   48.071451
   31.506473   48.072920
   31.508342   48.073347
   31.511472   48.073507
   31.536475   48.072916
   31.543253   48.073608
   31.534046   48.106850
   31.533927   48.108203
   31.534402   48.109519
   31.535877   48.111015
   31.538721   48.112145
   31.559128   48.114780
   31.561732   48.114429
   31.563926   48.113411
   31.568650   48.107518
   31.572463   48.107847
   31.576939   48.108673
   31.576104   48.114279
   31.574878   48.115518
   31.574291   48.117294
   31.575242   48.121548
   31.576169   48.123021
   31.577359   48.124000
   31.575908   48.128033
   31.575905   48.129391
   31.576493   48.130688
   31.577619   48.131807
   31.579182   48.132649
   31.581041   48.133136
   31.585910   48.133279
   31.608825   48.136128
   31.614712   48.137745
   31.626485   48.139268
   31.628421   48.139318
   31.630335   48.138972
   31.634707   48.139341
   31.637711   48.138598
   31.639139   48.137713
   31.640134   48.136586
   31.642547   48.128941
   31.644962   48.127612
   31.646122   48.125986
   31.647415   48.120321
   31.677821   48.124683
   31.682066   48.124900
   31.686700   48.124488
   31.688461   48.123792
   31.689830   48.122765
   31.691324   48.121061
   31.691796   48.119512
   31.693443   48.117707
   31.697296   48.104980
   31.699607   48.098725
   31.708117   48.099626
   31.711314   48.100407
   31.719551   48.101581
   31.732865   48.102693
   31.766224   48.106597
   31.768820   48.106549
   31.771190   48.105826
   31.772972   48.104538
   31.773891   48.102882
   31.789585   48.043200
   31.789409   48.040989
   31.787715   48.039100
   31.784909   48.037985
   31.736761   48.031941
   31.757505   47.949927
   31.763681   47.950374
   31.763929   47.951821
   31.765573   47.954193
   31.769815   47.957815
   31.770038   47.959671
   31.771226   47.961210
   31.775296   47.963325
   31.778901   47.964415
   31.782008   47.964624
   31.785035   47.963859
   31.787173   47.962210
   31.788041   47.960093
   31.793944   47.960907
   31.794601   47.962489
   31.795655   47.963539
   31.797642   47.964703
   31.799538   47.965202
   31.801566   47.965285
   31.805999   47.964739
   31.814168   47.965842
   31.821311   47.966402
   31.823243   47.966285
   31.824944   47.965826
   31.843351   47.968198
   31.845326   47.968116
   31.847178   47.967640
   31.849173   47.966472
   31.850486   47.964425
   31.856162   47.940862
   31.857337   47.938907
   31.857868   47.933394
   31.860591   47.921647
   31.876494   47.924011
   31.879641   47.923533
   31.882086   47.922100
   31.883139   47.920488
   31.884106   47.915395
   31.883242   47.911382
   31.885983   47.905077
   31.887761   47.903179
   31.890016   47.899060
   31.891239   47.894639
   31.891382   47.879466
   31.893308   47.874851
   31.894440   47.873464
   31.897268   47.867561
   31.897134   47.865846
   31.895695   47.863569
   31.893556   47.861913
   31.890521   47.861143
   31.863478   47.860313
   31.863362   47.859125
   31.865911   47.850545
   31.866005   47.849168
   31.865487   47.847836
   31.864405   47.846672
   31.861290   47.845190
   31.862229   47.842631
   31.863651   47.841917
   31.864866   47.840816
   31.866692   47.837331
   31.869812   47.834022
   31.873325   47.831261
   31.874158   47.830224
   31.875538   47.825769
   31.875751   47.823360
   31.875225   47.821706
   31.872718   47.818909
   31.869971   47.817790
   31.835242   47.813026
   31.840652   47.794646
   31.843213   47.787344
   31.872510   47.790841
   31.874211   47.792067
   31.876544   47.792795
   31.955233   47.802530
   31.953374   47.808783
   31.953373   47.810578
   31.954051   47.811847
   31.955248   47.812923
   31.958090   47.814038
   32.011622   47.820187
   32.015124   47.820358
   32.017098   47.820118
   32.019397   47.819200
   32.020801   47.817972
   32.038489   47.820174
   32.055776   47.821797
   32.058711   47.821007
   32.060780   47.819382
   32.064921   47.809725
   32.076694   47.811071
   32.079217   47.810696
   32.081766   47.809361
   32.082947   47.807795
   32.084768   47.801140
   32.086997   47.801074
   32.088797   47.800610
   32.090753   47.799485
   32.091726   47.798354
   32.094947   47.787431
   32.109486   47.788983
   32.111982   47.788594
   32.114499   47.787258
   32.115810   47.785276
   32.122316   47.761050
   32.132412   47.762260
   32.137226   47.762340
   32.139011   47.761896
   32.140967   47.760805
   32.141961   47.759700
   32.142510   47.758124
   32.146321   47.759106
   32.147513   47.762339
   32.149316   47.764174
   32.152475   47.765376
   32.155674   47.765585
   32.160654   47.764405
   32.163030   47.762870
   32.163824   47.761637
   32.165143   47.756361
   32.223887   47.764024
   32.215954   47.790945
   32.216069   47.792659
   32.217504   47.794561
   32.220060   47.795800
   32.232635   47.797522
   32.229896   47.814775
   32.230176   47.816115
   32.231025   47.817339
   32.232904   47.818603
   32.234711   47.819165
   32.244865   47.820432
   32.246938   47.820926
   32.292879   47.826727
   32.302761   47.828419
   32.305358   47.828337
   32.307166   47.827828
   32.308677   47.826982
   32.311024   47.824012
   32.312012   47.823366
   32.316654   47.822939
   32.319002   47.823614
   32.320917   47.823694
   32.323369   47.823217
   32.324934   47.822461
   32.326408   47.821042
   32.327370   47.818606
   32.330214   47.817809
   32.333160   47.815909
   32.334782   47.813150
   32.335488   47.808962
   32.335832   47.808653
   32.342827   47.803986
   32.347979   47.803086
   32.350205   47.802212
   32.352466   47.800330
   32.353179   47.799279
   32.355926   47.798236
   32.361606   47.794716
   32.365787   47.798216
   32.367386   47.799026
   32.369926   47.799538
   32.372152   47.799415
   32.375388   47.801024
   32.382633   47.802365
   32.385295   47.803303
   32.388817   47.803244
   32.392014   47.804277
   32.395682   47.805034
   32.402962   47.805088
   32.404934   47.804751
   32.408309   47.803490
   32.409707   47.802618
   32.410830   47.801245
   32.411431   47.801512
   32.412655   47.803730
   32.414395   47.805055
   32.416950   47.806116
   32.420958   47.806436
   32.426230   47.805320
   32.430705   47.803380
   32.432203   47.802372
   32.433162   47.801095
   32.433925   47.798866
   32.433742   47.796782
   32.432330   47.794926
   32.432486   47.794557
   32.457266   47.797914
   32.489524   47.801667
   32.496638   47.802393
   32.499256   47.802282
   32.507045   47.803356
   32.514819   47.803862
   32.517349   47.804757
   32.520261   47.805211
   32.599339   47.814670
   32.617527   47.817130
   32.619541   47.819233
   32.622808   47.820311
   32.649933   47.823333
   32.649307   47.825997
   32.649584   47.827661
   32.658113   47.841709
   32.660670   47.843516
   32.667369   47.845676
   32.668958   47.848476
   32.666619   47.848835
   32.664958   47.849535
   32.663668   47.850535
   32.662861   47.851747
   32.657914   47.870160
   32.658151   47.872407
   32.659481   47.873973
   32.662221   47.875232
   32.677853   47.876825
   32.671280   47.901925
   32.655619   47.900279
   32.652508   47.900896
   32.650564   47.902075
   32.649303   47.904110
   32.645247   47.920685
   32.645296   47.922459
   32.645995   47.923706
   32.647691   47.925051
   32.650656   47.925945
   32.670761   47.928294
   32.672719   47.928319
   32.737067   47.935995
   32.733442   47.939773
   32.731368   47.940935
   32.730353   47.942068
   32.729719   47.944491
   32.730261   47.946312
   32.697698   47.942183
   32.694430   47.942572
   32.691847   47.943991
   32.690594   47.946086
   32.685589   47.969661
   32.684923   47.971094
   32.682446   47.982210
   32.682727   47.983938
   32.684373   47.985789
   32.685912   47.986568
   32.687714   47.987015
   32.690539   47.987098
   32.692157   47.986856
   32.712306   47.989058
   32.732692   47.991666
   32.735749   47.991378
   32.777348   47.996131
   32.788515   47.997987
   32.795663   47.998469
   32.797631   47.998255
   32.799416   47.997653
   32.801565   47.995947
   32.802240   47.994201
   32.801399   47.991542
   32.802113   47.989924
   32.802340   47.985498
   32.805482   47.984751
   32.807672   47.983084
   32.814992   47.984715
   32.833357   47.987141
   32.865424   47.989914
   32.868646   47.989646
   32.871194   47.988441
   32.886547   47.989664
   32.883784   47.997475
   32.881459   48.008010
   32.880848   48.011687
   32.881576   48.013996
   32.881266   48.016059
   32.868742   48.020517
   32.866201   48.022318
   32.865573   48.023505
   32.863662   48.031665
   32.864009   48.033411
   32.865762   48.035253
   32.868581   48.036314
   32.881166   48.037548
   32.883560   48.037014
   32.885068   48.036232
   32.886777   48.034443
   32.887498   48.032950
   32.907453   48.035505
   32.906851   48.037656
   32.907382   48.039362
   32.908820   48.040803
   32.910951   48.041767
   32.922412   48.043867
   32.925330   48.044687
   32.944142   48.046866
   32.946839   48.046753
   32.949247   48.045917
   32.952370   48.043455
   32.954464   48.040883
   32.966261   48.044915
   32.973411   48.048043
   32.983366   48.051732
   32.988660   48.052977
   32.990651   48.052886
   32.993073   48.052150
   32.994880   48.050826
   32.996634   48.048432
   32.996853   48.045836
   32.998997   48.036668
   33.002517   48.023627
   33.004279   48.019473
   33.006473   48.011437
   33.006585   48.005757
   33.007510   48.000903
   33.010797   47.990963
   33.011218   47.988567
   33.010772   47.986389
   33.009350   47.984912
   33.007795   47.984112
   33.001165   47.982045
   33.001580   47.971874
   33.003500   47.971298
   33.006221   47.969803
   33.007525   47.968726
   33.008285   47.967429
   33.011257   47.951083
   33.014185   47.937816
   33.013877   47.935320
   33.013014   47.934119
   33.011673   47.933143
   33.009351   47.932334
   33.001765   47.931395
   33.005707   47.924088
   33.007685   47.919147
   33.009383   47.916636
   33.014645   47.915123
   33.048102   47.920109
   33.056933   47.921900
   33.076957   47.924877
   33.079487   47.924916
   33.081854   47.924307
   33.083715   47.923138
   33.084926   47.921154
   33.092205   47.889328
   33.092805   47.884899
   33.092033   47.882790
   33.090894   47.881732
   33.089358   47.880941
   33.077517   47.879025
   33.081749   47.861185
   33.081761   47.859857
   33.080903   47.858191
   33.079174   47.856876
   33.077461   47.856243
   33.066797   47.855037
   33.065870   47.849910
   33.067169   47.831967
   33.066649   47.830730
   33.065638   47.829643
   33.062625   47.828280
   33.064856   47.819995
   33.064988   47.817951
   33.064551   47.816320
   33.065812   47.814385
   33.068409   47.804745
   33.068270   47.803381
   33.066844   47.800395
   33.072808   47.783357
   33.072423   47.782043
   33.071490   47.780863
   33.068958   47.779467
   33.057390   47.778200
   33.060438   47.765409
   33.066204   47.766291
   33.068734   47.766146
   33.071483   47.765080
   33.073196   47.763268
   33.078636   47.739690
   33.078375   47.737484
   33.076610   47.735627
   33.073764   47.734562
   33.014901   47.728235
   33.015149   47.726139
   33.014486   47.724470
   33.012953   47.723092
   33.010774   47.722208
   32.979859   47.718885
   32.987479   47.684864
   33.000694   47.630974
   33.000695   47.626061
   33.002282   47.624807
   33.003118   47.623128
   33.003504   47.614816
   33.002496   47.612708
   33.000696   47.611418
   32.998305   47.610702
   32.995312   47.610732
   32.996890   47.608725
   32.997359   47.606658
   32.996609   47.604662
   32.994733   47.603015
   32.991986   47.601923
   32.990052   47.600628
   32.988247   47.599912
   32.983601   47.599120
   32.980321   47.599305
   32.977675   47.598409
   32.975276   47.598108
   32.973512   47.598234
   32.971623   47.597687
   32.966260   47.594734
   33.071472   47.600601
   33.094585   47.601623
   33.097694   47.601248
   33.099309   47.600558
   33.100569   47.599583
   33.101372   47.598404
   33.101649   47.597119
   33.098940   47.575936
   33.097748   47.570348
   33.096513   47.557540
   33.095571   47.552301
   33.098567   47.541150
   33.099910   47.534385
   33.128365   47.544151
   33.138859   47.548721
   33.141429   47.549044
   33.143983   47.548666
   33.146124   47.547644
   33.147520   47.546137
   33.149521   47.538516
   33.150007   47.535528
   33.149811   47.534130
   33.153587   47.515955
   33.153189   47.513284
   33.151507   47.511417
   33.148073   47.509976
   33.130440   47.505532
   33.132974   47.495165
   33.136670   47.483171
   33.136387   47.480304
   33.132942   47.475363
   33.133732   47.473959
   33.135247   47.468924
   33.137596   47.458563
   33.137707   47.451617
   33.138677   47.448375
   33.139003   47.443570
   33.144460   47.419758
   33.144278   47.418453
   33.143556   47.417239
   33.141333   47.415685
   33.138942   47.415069
   33.132111   47.414716
   33.114124   47.412806
   33.072669   47.407990
   33.069511   47.408146
   33.066819   47.409281
   33.065205   47.411138
   33.064452   47.415682
   33.064665   47.425375
   33.064106   47.469201
   33.054480   47.466364
   33.058822   47.452731
   33.060472   47.445430
   33.060466   47.443598
   33.059979   47.442296
   33.058505   47.440818
   33.056306   47.439845
   33.041336   47.437918
   33.043311   47.429926
   33.043976   47.424701
   33.043002   47.423061
   33.041702   47.422069
   33.039420   47.421225
   33.036365   47.420764
   33.042158   47.398661
   33.042197   47.397236
   33.041601   47.395832
   33.044575   47.384763
   33.116695   47.393564
   33.118669   47.393476
   33.121077   47.392754
   33.128199   47.387621
   33.129121   47.385970
   33.136103   47.358763
   33.137792   47.350810
   33.139069   47.347518
   33.139077   47.345893
   33.140641   47.342481
   33.142007   47.337607
   33.143777   47.334621
   33.143913   47.333312
   33.143492   47.332031
   33.142549   47.330887
   33.138546   47.328631
   33.137101   47.326582
   33.133913   47.324618
   33.110573   47.319265
   33.117334   47.301722
   33.116569   47.296867
   33.117817   47.295380
   33.118167   47.294060
   33.117727   47.292302
   33.116326   47.290797
   33.112621   47.288961
   33.109594   47.288076
   33.110294   47.285662
   33.117534   47.286542
   33.121045   47.286150
   33.122748   47.285449
   33.124069   47.284435
   33.124890   47.283199
   33.125465   47.281105
   33.143687   47.275860
   33.145337   47.274524
   33.146122   47.272861
   33.145924   47.271120
   33.144393   47.268856
   33.155487   47.262196
   33.164935   47.255565
   33.170851   47.252088
   33.178320   47.247026
   33.184785   47.243796
   33.189291   47.240451
   33.190083   47.239234
   33.190321   47.237913
   33.189985   47.236602
   33.189103   47.235414
   33.185820   47.233600
   33.182016   47.232554
   33.179506   47.232531
   33.177788   47.230760
   33.175177   47.229543
   33.172888   47.229109
   33.169203   47.229052
   33.166912   47.227897
   33.163418   47.227171
   33.161613   47.227021
   33.158798   47.227353
   33.157031   47.227930
   33.154823   47.229159
   33.152848   47.227591
   33.150529   47.226580
   33.144001   47.225813
   33.140366   47.226139
   33.133494   47.228267
   33.133567   47.225231
   33.134641   47.221602
   33.138909   47.216272
   33.145015   47.214848
   33.147051   47.213884
   33.148933   47.211690
   33.149290   47.209545
   33.148813   47.207877
   33.147467   47.206298
   33.146063   47.205228
   33.144590   47.204618
   33.142000   47.202541
   33.139827   47.201586
   33.137830   47.201283
   33.135179   47.199493
   33.132119   47.198581
   33.129431   47.198279
   33.127019   47.198535
   33.123198   47.198190
   33.121162   47.198552
   33.118950   47.199462
   33.114768   47.199710
   33.111581   47.200847
   33.106993   47.203341
   33.100837   47.208243
   33.098716   47.210631
   33.097885   47.212833
   33.098016   47.214682
   33.098681   47.216104
   33.095423   47.219326
   33.090931   47.219314
   33.089776   47.218968
   33.085939   47.216719
   33.083104   47.216043
   33.080750   47.215925
   33.079244   47.214528
   33.077519   47.213735
   33.074599   47.213049
   33.072565   47.212946
   33.072147   47.210643
   33.073790   47.208089
   33.074131   47.206412
   33.072841   47.203587
   33.073115   47.200882
   33.072059   47.198749
   33.064643   47.192367
   33.055991   47.187479
   33.053120   47.186775
   33.050584   47.186646
   33.042068   47.185328
   33.041854   47.184177
   33.043240   47.183028
   33.044869   47.180751
   33.045134   47.178521
   33.044701   47.177099
   33.043751   47.175899
   33.041814   47.174559
   33.040146   47.173952
   33.033715   47.173657
   33.026531   47.172091
   33.024059   47.172275
   33.022124   47.172800
   33.017415   47.175137
   33.013682   47.175898
   33.010360   47.177568
   33.007775   47.179880
   33.006484   47.181699
   33.005717   47.183759
   33.005987   47.186309
   33.003878   47.185648
   33.000729   47.185427
   32.998171   47.185797
   32.995832   47.186638
   32.992424   47.185960
   32.987591   47.186020
   32.985779   47.186406
   32.984016   47.187240
   32.967988   47.185717
   32.966891   47.182849
   32.956763   47.165394
   32.952542   47.160004
   32.940057   47.149703
   32.935520   47.146439
   32.931344   47.144576
   32.924865   47.142878
   32.924142   47.141911
   32.924562   47.140145
   32.926080   47.137268
   32.926439   47.135457
   32.925486   47.131554
   32.921773   47.127512
   32.916430   47.124001
   32.914941   47.120303
   32.918817   47.115795
   32.919459   47.111200
   32.921197   47.105898
   32.921171   47.104575
   32.920129   47.101864
   32.917579   47.098898
   32.916580   47.095946
   32.920247   47.091422
   32.920571   47.091141
   32.927366   47.089669
   32.930553   47.087504
   32.932745   47.084813
   32.934039   47.084222
   32.958591   47.074136
   32.961512   47.073389
   32.991607   47.060665
   33.001691   47.056752
   33.005935   47.053959
   33.024585   47.046145
   33.045791   47.072255
   33.047954   47.073844
   33.050953   47.074565
   33.054100   47.074252
   33.070245   47.068490
   33.093622   47.098020
   33.077703   47.104123
   33.076421   47.105112
   33.075612   47.106311
   33.075345   47.107618
   33.075643   47.108922
   33.099190   47.138760
   33.100856   47.140126
   33.102545   47.140803
   33.104451   47.141114
   33.106407   47.141031
   33.108242   47.140563
   33.158925   47.121409
   33.161273   47.119917
   33.162318   47.117847
   33.162203   47.116528
   33.161533   47.115288
   33.098733   47.036804
   33.097421   47.035832
   33.095753   47.035159
   33.093871   47.034844
   33.091636   47.034964
   33.076835   47.017135
   33.075308   47.016369
   33.073525   47.015928
   33.070080   47.016072
   33.049867   46.993752
   33.028091   46.970357
   33.026789   46.969336
   33.024479   46.968466
   33.022518   46.968257
   33.017483   46.968587
   33.015628   46.969040
   33.007382   46.973584
   32.952051   46.996945
   32.941501   46.985871
   32.948148   46.975136
   32.954972   46.951234
   32.964538   46.952413
   32.975760   46.953275
   32.978362   46.952941
   32.980565   46.951940
   32.981741   46.950844
   32.982386   46.949560
   32.986478   46.934072
   32.985968   46.931924
   32.984526   46.930480
   32.982972   46.929703
   32.981156   46.929263
   32.948103   46.924793
   32.946259   46.924722
   32.943961   46.925074
   32.929691   46.923385
   32.932624   46.911398
   32.932654   46.910045
   32.932096   46.908746
   32.930999   46.907619
   32.926927   46.905821
   32.848278   46.896113
   32.848705   46.894754
   32.848460   46.891206
   32.846934   46.887612
   32.845179   46.885678
   32.857405   46.881667
   32.900275   46.885705
   32.914501   46.887769
   32.917017   46.887640
   32.918758   46.887124
   32.920613   46.885958
   32.922365   46.883776
   32.924038   46.878284
   32.925323   46.871228
   32.945978   46.873177
   32.949061   46.872760
   32.951516   46.871423
   32.952793   46.869465
   32.955643   46.858756
   32.955610   46.857024
   32.954623   46.855427
   32.952829   46.854200
   32.950490   46.853524
   32.872994   46.842336
   32.870276   46.842335
   32.844755   46.839068
   32.821374   46.836426
   32.821552   46.834868
   32.820707   46.832583
   32.819171   46.831219
   32.816999   46.830344
   32.801210   46.828621
   32.785071   46.827309
   32.786071   46.824912
   32.785787   46.823592
   32.784950   46.822386
   32.783165   46.820923
   32.777468   46.817950
   32.773246   46.816406
   32.767269   46.816074
   32.764096   46.816709
   32.761766   46.818310
   32.759683   46.822198
   32.746960   46.820775
   32.743854   46.821140
   32.741720   46.822155
   32.728349   46.820922
   32.713234   46.818967
   32.711546   46.817525
   32.708725   46.816594
   32.700901   46.816254
   32.697479   46.816981
   32.694688   46.818271
   32.693322   46.819358
   32.691585   46.821627
   32.682597   46.856848
   32.649856   46.853260
   32.642379   46.852148
   32.618417   46.849928
   32.614329   46.849893
   32.611826   46.850407
   32.609808   46.851541
   32.608512   46.853336
   32.607596   46.853850
   32.584813   46.851338
   32.582921   46.851659
   32.581249   46.852341
   32.579939   46.853324
   32.579055   46.854635
   32.577034   46.854748
   32.574714   46.855468
   32.572964   46.856732
   32.571669   46.858619
   32.568797   46.859186
   32.566802   46.860234
   32.565764   46.861314
   32.565216   46.862550
   32.565378   46.867285
   32.547998   46.864997
   32.545068   46.865066
   32.547851   46.850764
   32.547511   46.848628
   32.545763   46.846839
   32.543607   46.845935
   32.533046   46.844634
   32.538118   46.823533
   32.537955   46.822204
   32.537232   46.820965
   32.536009   46.819924
   32.534395   46.819171
   32.520971   46.817284
   32.499571   46.814915
   32.470254   46.812089
   32.467107   46.812305
   32.464464   46.813489
   32.462926   46.815373
   32.457770   46.835603
   32.443327   46.834352
   32.422317   46.831593
   32.419395   46.831748
   32.414955   46.831046
   32.412340   46.830329
   32.372968   46.825586
   32.379430   46.799843
   32.379360   46.798078
   32.378654   46.796840
   32.376957   46.795506
   32.374640   46.794717
   32.342083   46.790936
   32.338482   46.791448
   32.322386   46.797279
   32.314425   46.800870
   32.312713   46.801998
   32.270282   46.820487
   32.265615   46.823076
   32.246755   46.831419
   32.258103   46.821684
   32.258845   46.819493
   32.258497   46.818155
   32.257582   46.816948
   32.256183   46.815981
   32.233814   46.804618
   32.230090   46.803703
   32.217383   46.802097
   32.225301   46.771647
   32.224725   46.769433
   32.222655   46.767681
   32.220259   46.766911
   32.209285   46.765085
   32.176476   46.760025
   32.178118   46.751717
   32.177586   46.750456
   32.176546   46.749352
   32.175084   46.748498
   32.173325   46.747966
   32.112307   46.740616
   32.109041   46.741019
   32.106893   46.742096
   32.104136   46.745625
   32.103488   46.747039
   32.064633   46.741231
   32.066414   46.733335
   32.074378   46.734413
   32.077018   46.734405
   32.078880   46.733935
   32.080454   46.733110
   32.082073   46.731160
   32.093393   46.684190
   32.093091   46.682017
   32.091331   46.680193
   32.088523   46.679143
   32.072956   46.677408
   32.069769   46.677589
   32.067343   46.678591
   32.032101   46.674345
   32.035502   46.671308
   32.036423   46.669655
   32.036167   46.667461
   32.035279   46.666277
   32.033924   46.665321
   32.030963   46.664444
   31.994587   46.660341
   31.995219   46.655432
   31.994898   46.654080
   31.993115   46.652167
   31.990195   46.651084
   31.985058   46.650295
   31.936568   46.648584
   31.934104   46.581641
   31.933462   46.579811
   31.867985   46.521393
   31.864589   46.513897
   31.853102   46.497525
   31.847319   46.493624
   31.845025   46.492799
   31.841797   46.492704
   31.831699   46.494820
   31.823253   46.492061
   31.819068   46.489323
   31.811244   46.478321
   31.815659   46.443519
   31.812257   46.430690
   31.814276   46.403321
   31.817522   46.371170
   31.816020   46.359606
   31.815367   46.358012
   31.802748   46.346337
   31.799860   46.344831
   31.777871   46.340454
   31.775295   46.340301
   31.773414   46.340637
   31.771757   46.341331
   31.763408   46.347110
   31.671470   46.353091
   31.541688   46.377176
   31.502011   46.376111
   31.380369   46.403089
   31.159005   46.405159
   31.157033   46.405383
   31.155248   46.405997
   31.153115   46.407724
   31.152472   46.409938
   31.170490   46.626571
   31.170279   46.628787
   31.171216   46.633818
   31.172426   46.636298
   31.175461   46.638551
   31.177454   46.639340
   31.179409   46.640800
   31.181942   46.641955
   31.181649   46.643545
   31.176546   46.644236
   31.172694   46.645762
   31.170186   46.647655
   31.169307   46.649655
   31.169589   46.652229
   31.172311   46.655079
   31.173956   46.655981
   31.181455   46.658859
   31.180083   46.659827
   31.179204   46.661002
   31.176331   46.671813
   31.172995   46.677411
   31.172421   46.679558
   31.172475   46.706707
   31.168097   46.708644
   31.149775   46.726015
   31.149229   46.727214
   31.148826   46.730909
   31.147434   46.734712
   31.146117   46.744084
   31.146608   46.746777
   31.148566   46.749505
   31.153866   46.753105
   31.169021   46.765799
   31.170683   46.768222
   31.147795   46.789566
   31.146657   46.791342
   31.145313   46.796900
   31.145394   46.799170
   31.150735   46.830652
   31.150425   46.833096
   31.119988   46.840620
   31.111855   46.840066
   31.108712   46.840625
   31.107062   46.841269
   31.105405   46.842571
   31.104162   46.844775
   31.092400   46.873438
   31.088182   46.877742
   31.048243   46.894299
   31.042244   46.893777
   31.040341   46.893926
   31.036606   46.895262
   31.034715   46.896449
   31.033812   46.897614
   31.032866   46.900263
   31.032771   46.905424
   31.024201   46.930189
   31.021001   46.932021
   31.017116   46.935798
   31.016444   46.936924
   31.010791   46.961517
   31.012104   46.965490
   31.013155   46.966644
   31.014663   46.967534
   31.017141   46.968173
   31.025549   46.969101
   31.034716   46.972508
   31.038974   46.973361
   31.081860   46.977364
   31.080481   46.981459
   31.080611   46.983152
   31.082241   46.985331
   31.084794   46.986567
   31.104572   46.989223
   31.113473   46.990946
   31.133760   46.994077
   31.135824   46.994170
   31.137831   46.993825
   31.141173   46.992223
   31.142848   46.990106
   31.144899   46.985508
   31.145054   46.984263
   31.158910   46.985725
   31.174135   46.987846
   31.203132   46.990982
   31.234371   46.994917
   31.231264   46.999439
   31.226339   47.015550
   31.224606   47.016786
   31.223622   47.018468
   31.222901   47.022257
   31.223659   47.023909
   31.224800   47.024953
   31.227562   47.026307
   31.231675   47.027003
   31.234092   47.027977
   31.257550   47.031460
   31.265134   47.033074
   31.268340   47.032610
   31.270422   47.031511
   31.272274   47.029412
   31.273031   47.027037
   31.283292   47.028473
   31.282875   47.031415
   31.283559   47.033117
   31.285658   47.034786
   31.289147   47.035903
   31.287389   47.046193
   31.287773   47.047896
   31.289062   47.049377
   31.290516   47.050212
   31.297115   47.051644
   31.292854   47.064391
   31.289619   47.072064
   31.286768   47.081230
   31.286980   47.082982
   31.287779   47.084186
   31.289055   47.085182
   31.291248   47.086026
   31.286382   47.091256
   31.285468   47.092831
   31.264416   47.166502
   31.249985   47.164403
   31.246861   47.164666
   31.244712   47.165572
   31.243216   47.166960
   31.240964   47.172629
   31.205919   47.167854
   31.203722   47.153683
   31.202844   47.152453
   31.201467   47.151458
   31.198420   47.150557
   31.188200   47.151380
   31.178859   47.151645
   31.173112   47.152254
   31.162031   47.152658
   31.130645   47.148575
   31.128102   47.148929
   31.126434   47.149619
   31.123676   47.152314
   31.109573   47.151099
   31.106536   47.151742
   31.104645   47.152911
   31.103733   47.154063
   31.102014   47.158505
   31.099429   47.163247
   31.099197   47.164507
   31.100095   47.167039
   31.102006   47.168793
   31.104899   47.169731
   31.108375   47.169794
   31.103408   47.185172
   31.102322   47.187316
   31.102832   47.189510
   31.104316   47.190978
   31.106517   47.191941
   31.116493   47.194201
   31.119003   47.194341
   31.121409   47.193834
   31.123364   47.192752
   31.124587   47.191251
   31.127600   47.182189
   31.149058   47.185184
   31.144158   47.203061
   31.141101   47.212444
   31.139707   47.218784
   31.140182   47.220036
   31.141156   47.221145
   31.142551   47.222021
   31.144252   47.222592
   31.170517   47.226591
   31.167214   47.238802
   31.166274   47.240323
   31.161623   47.254833
   31.161788   47.256128
   31.162828   47.257704
   31.164141   47.258646
   31.166941   47.259721
   31.166171   47.261274
   31.086558   47.250005
   31.087095   47.247776
   31.086178   47.245677
   31.083923   47.244118
   31.079841   47.243016
   31.032000   47.236312
   31.017892   47.234791
   31.015991   47.235021
   31.014268   47.235614
   31.012868   47.236520
   31.011909   47.237662
   31.009096   47.244369
   31.002747   47.261958
   31.002711   47.264465
   30.998317   47.263586
   30.988616   47.262834
   30.985571   47.263512
   30.984098   47.264366
   30.983050   47.265474
   30.982514   47.266742
   30.982538   47.268060
   30.988646   47.284055
   30.972820   47.281459
   30.961483   47.280305
   30.911647   47.273147
   30.907537   47.272857
   30.905625   47.273042
   30.903873   47.273595
   30.902037   47.274819
   30.901021   47.276427
   30.896684   47.288788
   30.887942   47.315571
   30.874804   47.313700
   30.872296   47.313995
   30.870136   47.314912
   30.868399   47.316720
   30.863149   47.331128
   30.861777   47.332546
   30.861285   47.333808
   30.861342   47.335114
   30.861945   47.336354
   30.863042   47.337425
   30.864542   47.338237
   30.881932   47.341291
   30.882581   47.343528
   30.883650   47.344602
   30.885122   47.345425
   30.890646   47.346892
   30.900179   47.348604
   30.896437   47.355254
   30.883523   47.354578
   30.880687   47.355498
   30.878789   47.357205
   30.878291   47.358452
   30.878042   47.363915
   30.876581   47.365346
   30.875976   47.366636
   30.875567   47.370952
   30.874152   47.373773
   30.868630   47.394788
   30.866909   47.399915
   30.866942   47.401246
   30.867542   47.402513
   30.868658   47.403606
   30.870192   47.404430
   30.885802   47.407059
   30.881767   47.420534
   30.852366   47.415965
   30.849842   47.416073
   30.847561   47.416816
   30.845853   47.418087
   30.844967   47.419702
   30.843599   47.425313
   30.841552   47.438959
   30.841286   47.444441
   30.842196   47.446130
   30.843480   47.447164
   30.845154   47.447892
   30.847070   47.448249
   30.857340   47.448389
   30.852361   47.465891
   30.847277   47.479130
   30.847398   47.480944
   30.848177   47.482203
   30.849999   47.483528
   30.852295   47.484251
   30.845752   47.502003
   30.845705   47.504121
   30.846372   47.505317
   30.848115   47.506836
   30.850898   47.507954
   30.854575   47.507963
   30.857305   47.508537
   30.875161   47.510870
   30.869974   47.528426
   30.870049   47.529791
   30.870718   47.531079
   30.871920   47.532172
   30.873327   47.532884
   30.871133   47.539478
   30.835656   47.532613
   30.833692   47.532442
   30.831742   47.532673
   30.829978   47.533285
   30.827866   47.534994
   30.824108   47.544628
   30.802427   47.542646
   30.800035   47.543212
   30.798543   47.544018
   30.797187   47.545476
   30.796692   47.546860
   30.788429   47.543759
   30.773801   47.541800
   30.770601   47.542133
   30.768931   47.542824
   30.767296   47.544202
   30.765677   47.548968
   30.761780   47.548866
   30.758831   47.549628
   30.756725   47.551241
   30.755036   47.551835
   30.753636   47.552756
   30.751758   47.555592
   30.748664   47.556502
   30.746778   47.557843
   30.745975   47.559130
   30.738319   47.578964
   30.738367   47.580759
   30.739079   47.582019
   30.740810   47.583372
   30.742545   47.584024
   30.745520   47.584551
   30.748443   47.584555
   30.764218   47.586871
   30.771349   47.587537
   30.768338   47.596041
   30.769076   47.598594
   30.770243   47.599709
   30.772064   47.600605
   30.769470   47.608350
   30.768314   47.619443
   30.768398   47.624408
   30.769068   47.625681
   30.770260   47.626762
   30.771867   47.627554
   30.773770   47.628015
   30.773258   47.629569
   30.773422   47.630960
   30.774353   47.633347
   30.776634   47.636767
   30.780119   47.638720
   30.784881   47.639625
   30.783599   47.643889
   30.743993   47.638369
   30.717387   47.635629
   30.726417   47.610010
   30.726326   47.607770
   30.724936   47.605837
   30.721062   47.603889
   30.718030   47.603316
   30.704071   47.599107
   30.701121   47.597928
   30.669896   47.596517
   30.658284   47.596444
   30.655432   47.597541
   30.654223   47.598609
   30.653529   47.599871
   30.652517   47.603433
   30.652226   47.613576
   30.652842   47.616871
   30.654019   47.619171
   30.655543   47.620590
   30.658449   47.621762
   30.657723   47.629092
   30.642724   47.625816
   30.627271   47.621590
   30.618565   47.619686
   30.616643   47.619749
   30.614828   47.620186
   30.612448   47.621630
   30.608143   47.630175
   30.591022   47.625856
   30.588113   47.625629
   30.572959   47.622879
   30.561085   47.621764
   30.558575   47.621857
   30.556294   47.622579
   30.554708   47.623610
   30.553567   47.624742
   30.552982   47.625946
   30.544928   47.624500
   30.525480   47.621691
   30.522027   47.620905
   30.506501   47.619148
   30.492972   47.617073
   30.487717   47.615820
   30.471196   47.613560
   30.469279   47.613739
   30.467519   47.614287
   30.466066   47.615159
   30.465044   47.616279
   30.458927   47.634961
   30.421277   47.629732
   30.418083   47.630043
   30.415482   47.631345
   30.414090   47.633329
   30.410235   47.646252
   30.407283   47.653850
   30.405217   47.662233
   30.404262   47.667970
   30.403463   47.669963
   30.403520   47.671263
   30.404117   47.672499
   30.406496   47.674292
   30.397099   47.702173
   30.392386   47.717811
   30.390904   47.720258
   30.389314   47.724929
   30.384203   47.743354
   30.384346   47.746249
   30.381997   47.752559
   30.382593   47.754331
   30.384166   47.755800
   30.386460   47.756728
   30.391749   47.757603
   30.392913   47.759860
   30.395347   47.761433
   30.397251   47.761907
   30.416280   47.764492
   30.409595   47.786327
   30.409712   47.788498
   30.411302   47.790382
   30.413997   47.791543
   30.431493   47.793151
   30.430702   47.795822
   30.427863   47.795687
   30.425403   47.796246
   30.423869   47.797067
   30.422165   47.798810
   30.417287   47.815828
   30.391699   47.812368
   30.386151   47.812039
   30.335022   47.805129
   30.329885   47.805733
   30.325965   47.807584
   30.324676   47.808641
   30.323912   47.809914
   30.323791   47.811739
   30.321686   47.817805
   30.320121   47.820685
   30.315258   47.834850
   30.311816   47.843435
   30.304712   47.870914
   30.303849   47.873006
   30.300455   47.891208
   30.298122   47.899441
   30.295058   47.913480
   30.293392   47.919187
   30.291849   47.920915
   30.291246   47.922226
   30.291384   47.924049
   30.292181   47.925310
   30.295236   47.928583
   30.298370   47.930693
   30.283595   47.942180
   30.276496   47.948151
   30.273498   47.949890
   30.269804   47.950990
   30.247833   47.961662
   30.241971   47.963524
   30.239883   47.965147
   30.239165   47.966810
   30.239146   47.969720
   30.240578   47.978023
   30.240282   47.981611
   30.240923   47.983097
   30.227115   47.999542
   30.219496   48.010331
   30.219132   48.012455
   30.220240   48.014455
   30.222572   48.015885
   30.249692   48.023692
   30.248719   48.026352
   30.248940   48.028351
   30.231301   48.053460
   30.228007   48.052080
   30.226115   48.051888
   30.224222   48.052073
   30.221966   48.052873
   30.214845   48.056749
   30.201213   48.065406
   30.200330   48.067011
   30.200282   48.068299
   30.200769   48.069544
END
END
