odesa
1
   28.207483   45.466474
   28.208305   45.471702
   28.209027   45.472927
   28.224760   45.489842
   28.242531   45.509979
   28.250497   45.518468
   28.263175   45.527316
   28.267869   45.530167
   28.269620   45.531662
   28.285582   45.541077
   28.292934   45.546178
   28.300906   45.550540
   28.303693   45.551366
   28.306125   45.551337
   28.310299   45.550443
   28.331923   45.543977
   28.336600   45.542828
   28.368055   45.533274
   28.392023   45.526508
   28.395302   45.525121
   28.403064   45.523252
   28.424608   45.516329
   28.426368   45.515006
   28.427306   45.512863
   28.426242   45.507611
   28.425951   45.503762
   28.426939   45.495118
   28.427032   45.490312
   28.432159   45.490648
   28.507448   45.503224
   28.484929   45.570115
   28.484983   45.572296
   28.486506   45.574207
   28.489143   45.575401
   28.536327   45.583359
   28.534074   45.589803
   28.532866   45.594777
   28.510959   45.659932
   28.491250   45.656804
   28.487370   45.655940
   28.484839   45.656026
   28.482545   45.656771
   28.481191   45.657699
   28.480281   45.658858
   28.475515   45.670871
   28.474323   45.678162
   28.474664   45.679600
   28.478402   45.686673
   28.484132   45.690525
   28.487304   45.692083
   28.491686   45.695179
   28.499373   45.702655
   28.504491   45.713404
   28.508300   45.726390
   28.511982   45.734126
   28.512901   45.737447
   28.514252   45.739308
   28.517371   45.741407
   28.521934   45.742346
   28.525492   45.741936
   28.527648   45.741259
   28.533852   45.737696
   28.536994   45.738708
   28.555118   45.740824
   28.557615   45.740311
   28.559624   45.739165
   28.562886   45.735749
   28.566644   45.730992
   28.576521   45.732546
   28.585338   45.733396
   28.587588   45.735665
   28.588469   45.737101
   28.588061   45.740528
   28.584518   45.753449
   28.579842   45.761115
   28.577638   45.764059
   28.575140   45.766569
   28.574451   45.767830
   28.574330   45.769175
   28.574916   45.772184
   28.575817   45.773397
   28.577199   45.774369
   28.582916   45.776748
   28.584731   45.777134
   28.586630   45.777142
   28.593795   45.776427
   28.598302   45.775425
   28.616095   45.772430
   28.620002   45.771284
   28.624429   45.770962
   28.701663   45.783337
   28.690584   45.817059
   28.690817   45.819310
   28.692592   45.821203
   28.695467   45.822267
   28.716428   45.825951
   28.778138   45.835690
   28.747849   45.928599
   28.748263   45.930330
   28.750054   45.932129
   28.752243   45.933013
   28.755772   45.933411
   28.756816   45.934510
   28.754749   45.940474
   28.750324   45.956248
   28.750215   45.957573
   28.750667   45.958863
   28.752068   45.960338
   28.754780   45.961483
   28.771768   45.963935
   28.769823   45.970495
   28.770515   45.972618
   28.772061   45.973999
   28.774857   45.974992
   28.842371   45.985960
   28.912391   45.996857
   28.917201   45.997926
   28.974212   46.007351
   28.997987   46.048506
   28.945507   46.090786
   28.944085   46.092752
   28.944170   46.094950
   28.945321   46.096525
   28.969203   46.117606
   29.000002   46.144134
   29.013147   46.155878
   29.021737   46.162959
   29.058038   46.194876
   28.948202   46.255913
   28.946887   46.256891
   28.945878   46.258524
   28.946375   46.264514
   28.948051   46.268670
   28.979609   46.320481
   28.981743   46.322087
   28.984084   46.322751
   28.986615   46.322749
   28.990819   46.321602
   28.991116   46.322395
   28.990375   46.324681
   28.990401   46.327086
   28.987088   46.335303
   28.986575   46.338519
   28.983025   46.339328
   28.980921   46.340974
   28.970144   46.359539
   28.961083   46.373400
   28.935266   46.429563
   28.931058   46.450057
   28.925286   46.455378
   28.924404   46.457038
   28.924389   46.458368
   28.924934   46.459644
   28.925991   46.460755
   28.928035   46.461817
   28.929871   46.462209
   28.958073   46.463280
   28.966294   46.463996
   28.968703   46.463763
   29.001114   46.464688
   29.018349   46.466302
   29.017185   46.475479
   28.993808   46.474885
   28.990852   46.473714
   28.983802   46.473374
   28.980847   46.473956
   28.973479   46.477852
   28.971672   46.479629
   28.971249   46.480908
   28.971374   46.482218
   28.975342   46.490831
   28.976330   46.491945
   28.977738   46.492818
   28.980684   46.493547
   29.027373   46.495057
   29.029414   46.496816
   29.032370   46.497665
   29.032186   46.506238
   29.032855   46.507902
   29.034375   46.509272
   29.035946   46.509983
   29.037744   46.510356
   29.056425   46.511299
   29.056466   46.513338
   29.057358   46.514974
   29.059080   46.516253
   29.061374   46.516985
   29.156613   46.519723
   29.155329   46.544697
   29.155952   46.546411
   29.157973   46.548110
   29.160282   46.548862
   29.234156   46.562659
   29.236701   46.562769
   29.239114   46.562196
   29.241389   46.560662
   29.242433   46.558223
   29.242233   46.556453
   29.246758   46.504463
   29.249418   46.504738
   29.251964   46.504374
   29.253627   46.503662
   29.255234   46.502248
   29.261746   46.485356
   29.261242   46.483693
   29.259888   46.482275
   29.229861   46.463852
   29.234482   46.461253
   29.235511   46.460132
   29.236025   46.458853
   29.236513   46.437212
   29.237996   46.434889
   29.238336   46.433554
   29.237878   46.431780
   29.236612   46.430391
   29.239403   46.428064
   29.248531   46.423168
   29.252650   46.418633
   29.253247   46.417369
   29.253287   46.416039
   29.252766   46.414759
   29.251730   46.413639
   29.243855   46.408475
   29.216632   46.387215
   29.239154   46.381404
   29.251871   46.389157
   29.259403   46.394409
   29.256776   46.397339
   29.256099   46.399545
   29.256732   46.401302
   29.258787   46.403009
   29.257546   46.404922
   29.257734   46.407164
   29.259005   46.408739
   29.261413   46.410271
   29.293291   46.421272
   29.295263   46.421711
   29.298616   46.421486
   29.301194   46.420301
   29.305867   46.414166
   29.315539   46.417136
   29.310076   46.425664
   29.299607   46.443396
   29.299768   46.445636
   29.301464   46.447548
   29.303058   46.448334
   29.309878   46.450182
   29.308673   46.452362
   29.305963   46.455380
   29.304546   46.460511
   29.302392   46.462337
   29.301561   46.463530
   29.301266   46.464839
   29.301531   46.466151
   29.302334   46.467353
   29.303605   46.468343
   29.308073   46.470136
   29.318573   46.473383
   29.323376   46.475414
   29.327458   46.475826
   29.326113   46.477833
   29.326151   46.480002
   29.327242   46.481572
   29.330469   46.483724
   29.329069   46.486092
   29.327947   46.489245
   29.326388   46.491685
   29.325224   46.494796
   29.325030   46.496086
   29.325601   46.497764
   29.327510   46.499457
   29.333671   46.502229
   29.347948   46.508092
   29.351045   46.508721
   29.352983   46.508568
   29.354768   46.508026
   29.356244   46.507144
   29.357277   46.505999
   29.384731   46.461190
   29.385128   46.459082
   29.384013   46.457008
   29.386227   46.453351
   29.443829   46.501847
   29.445968   46.502836
   29.448494   46.503178
   29.450407   46.502972
   29.452664   46.502117
   29.470250   46.489663
   29.473991   46.487378
   29.503910   46.466796
   29.507404   46.464245
   29.508419   46.463145
   29.508984   46.461017
   29.508601   46.459739
   29.507705   46.458589
   29.491996   46.446545
   29.494635   46.440532
   29.494978   46.438622
   29.498209   46.433675
   29.501175   46.432733
   29.508852   46.427501
   29.567126   46.420948
   29.568925   46.420567
   29.570492   46.419847
   29.572002   46.418467
   29.572577   46.417227
   29.585640   46.366028
   29.599936   46.367465
   29.603184   46.366990
   29.605202   46.366022
   29.606562   46.364607
   29.608476   46.358751
   29.671442   46.365107
   29.667615   46.382334
   29.661673   46.403959
   29.653868   46.435184
   29.653803   46.436469
   29.654262   46.437715
   29.655622   46.439142
   29.657094   46.439925
   29.676172   46.445807
   29.678593   46.446193
   29.680450   46.446053
   29.682174   46.445555
   29.684380   46.444052
   29.685262   46.442445
   29.686756   46.436480
   29.688750   46.435964
   29.690705   46.434765
   29.691636   46.433566
   29.692027   46.431936
   29.708569   46.435230
   29.725248   46.438065
   29.724701   46.439295
   29.724689   46.440628
   29.725897   46.442672
   29.727790   46.443865
   29.733582   46.445791
   29.720853   46.464937
   29.720320   46.466188
   29.720449   46.467921
   29.721510   46.469493
   29.722828   46.470425
   29.734156   46.475478
   29.740132   46.477431
   29.743418   46.477256
   29.753299   46.473878
   29.758881   46.469132
   29.770297   46.458287
   29.774970   46.459193
   29.777425   46.459186
   29.780206   46.458305
   29.781995   46.456897
   29.795935   46.423393
   29.796211   46.421976
   29.795911   46.420684
   29.799316   46.420698
   29.801032   46.420191
   29.802471   46.419370
   29.803921   46.417879
   29.828064   46.398730
   29.829350   46.397164
   29.829564   46.394926
   29.828198   46.392891
   29.816744   46.386303
   29.847321   46.374242
   29.882751   46.360746
   29.880256   46.371087
   29.880644   46.372971
   29.881868   46.374507
   29.930876   46.402270
   29.934486   46.404011
   29.937378   46.404818
   29.939989   46.404958
   29.941885   46.404586
   29.948164   46.401624
   29.986799   46.389441
   29.994012   46.393681
   29.995837   46.394168
   29.997788   46.394259
   29.999690   46.393946
   30.020782   46.388057
   30.054863   46.402611
   30.057261   46.403071
   30.059811   46.403044
   30.071797   46.401424
   30.074038   46.400807
   30.076808   46.399313
   30.096486   46.385778
   30.101107   46.393472
   30.102732   46.394842
   30.134089   46.406497
   30.130428   46.407038
   30.128256   46.407754
   30.124829   46.409833
   30.123590   46.411545
   30.123372   46.413697
   30.124206   46.415776
   30.125744   46.417323
   30.119533   46.422658
   30.117370   46.424160
   30.113499   46.426115
   30.112022   46.424540
   30.109311   46.423346
   30.106083   46.422989
   30.102363   46.423666
   30.098378   46.421672
   30.094884   46.421086
   30.091425   46.421273
   30.089567   46.421674
   30.087961   46.422437
   30.086130   46.423946
   30.085355   46.422544
   30.083441   46.420734
   30.081744   46.419980
   30.079232   46.419416
   30.077361   46.419437
   30.074541   46.419937
   30.069115   46.421534
   30.057543   46.421935
   30.054291   46.422915
   30.052384   46.424058
   30.051277   46.425068
   30.049805   46.427541
   30.048483   46.432646
   30.048683   46.435437
   30.049531   46.437275
   30.051429   46.439090
   30.046626   46.439101
   30.033333   46.437408
   30.022798   46.437378
   30.018768   46.438409
   30.016145   46.440471
   30.015262   46.443518
   30.016382   46.447285
   30.018575   46.450569
   30.016487   46.450514
   30.009446   46.448874
   30.005545   46.449388
   29.999059   46.452039
   29.994802   46.454644
   29.989919   46.458007
   29.988078   46.460247
   29.987347   46.462648
   29.987832   46.465006
   29.989454   46.466950
   29.992815   46.468544
   29.989486   46.471000
   29.988446   46.472437
   29.987939   46.474219
   29.985630   46.476152
   29.984024   46.478778
   29.983089   46.481942
   29.983004   46.484530
   29.983492   46.487317
   29.984793   46.489774
   29.983205   46.490565
   29.982013   46.491614
   29.980545   46.494384
   29.978495   46.494892
   29.975255   46.496447
   29.972464   46.492200
   29.969093   46.489201
   29.963794   46.486599
   29.958185   46.485390
   29.954208   46.485314
   29.950147   46.486146
   29.947326   46.488036
   29.946379   46.490174
   29.938411   46.489074
   29.935337   46.489417
   29.932586   46.490312
   29.930025   46.492118
   29.928994   46.493576
   29.928490   46.495190
   29.928705   46.496903
   29.921325   46.498994
   29.918108   46.501360
   29.917078   46.502889
   29.916695   46.504815
   29.917260   46.506816
   29.918294   46.508365
   29.911140   46.508174
   29.907571   46.508565
   29.904666   46.509507
   29.901918   46.510984
   29.899891   46.512611
   29.898665   46.514444
   29.898375   46.516797
   29.899461   46.519048
   29.900936   46.520334
   29.894427   46.522228
   29.891136   46.524195
   29.890025   46.525297
   29.888752   46.527648
   29.888580   46.530266
   29.889804   46.532717
   29.891718   46.534182
   29.888091   46.536960
   29.886339   46.539467
   29.883813   46.537986
   29.881569   46.537426
   29.878537   46.537421
   29.875499   46.538197
   29.873960   46.539049
   29.872483   46.540417
   29.869600   46.545685
   29.869507   46.547404
   29.870348   46.549022
   29.872662   46.550798
   29.874954   46.551592
   29.878501   46.551851
   29.881448   46.552616
   29.884440   46.552382
   29.890592   46.552709
   29.922836   46.557121
   29.925356   46.557564
   29.928095   46.558569
   29.933328   46.559534
   29.933963   46.561361
   29.935614   46.563092
   29.935837   46.564398
   29.934134   46.565327
   29.932832   46.566841
   29.929881   46.576754
   29.928642   46.579348
   29.929022   46.582873
   29.929752   46.584047
   29.930982   46.585064
   29.929653   46.588781
   29.930208   46.590942
   29.931681   46.592380
   29.933250   46.593140
   29.937967   46.593811
   29.940970   46.593251
   29.943623   46.591416
   29.945985   46.591878
   29.947893   46.591796
   29.954142   46.590039
   29.958410   46.589645
   29.961512   46.598179
   29.958254   46.600503
   29.956349   46.602784
   29.953397   46.607922
   29.948457   46.618207
   29.947919   46.622823
   29.948265   46.628714
   29.947715   46.633182
   29.944241   46.637001
   29.940710   46.642785
   29.939554   46.645633
   29.939356   46.648549
   29.939747   46.650836
   29.941539   46.654042
   29.947438   46.659352
   29.949075   46.662429
   29.950937   46.671809
   29.951220   46.677284
   29.952585   46.680448
   29.955635   46.683401
   29.958623   46.685006
   29.962349   46.686364
   29.963531   46.687366
   29.964184   46.689132
   29.962378   46.700253
   29.960479   46.707604
   29.960093   46.711374
   29.961408   46.715126
   29.961942   46.718000
   29.961450   46.726573
   29.961645   46.730965
   29.962565   46.734714
   29.967022   46.746847
   29.967566   46.750768
   29.964933   46.751423
   29.962037   46.752644
   29.960758   46.753670
   29.959976   46.754913
   29.959192   46.758280
   29.959804   46.770048
   29.954788   46.776616
   29.949065   46.782777
   29.944343   46.787198
   29.936570   46.793614
   29.935783   46.795345
   29.935877   46.796935
   29.929414   46.803644
   29.928640   46.805801
   29.929161   46.807549
   29.931105   46.809318
   29.958034   46.821372
   29.961047   46.822080
   29.966519   46.821709
   29.965721   46.823133
   29.964604   46.827010
   29.963437   46.829038
   29.957147   46.831327
   29.955091   46.832924
   29.954121   46.834151
   29.948422   46.836822
   29.934522   46.832433
   29.936189   46.829912
   29.936556   46.828194
   29.935669   46.826119
   29.933491   46.824567
   29.916012   46.818613
   29.907137   46.815975
   29.905287   46.815757
   29.903424   46.815913
   29.900703   46.816952
   29.899223   46.818342
   29.886938   46.836286
   29.879423   46.846022
   29.878059   46.848448
   29.877672   46.851656
   29.878716   46.853720
   29.880493   46.854973
   29.884983   46.856395
   29.882654   46.865297
   29.879900   46.873601
   29.878467   46.880932
   29.854582   46.878312
   29.855381   46.875602
   29.854955   46.873835
   29.853098   46.872011
   29.850208   46.871023
   29.750840   46.856639
   29.748951   46.856565
   29.747111   46.856868
   29.744562   46.858130
   29.743156   46.860068
   29.725859   46.914221
   29.720222   46.913863
   29.718407   46.914248
   29.716828   46.914977
   29.715070   46.916780
   29.713948   46.921153
   29.710631   46.920182
   29.700913   46.919394
   29.697446   46.920019
   29.648910   46.914957
   29.645745   46.915164
   29.643095   46.916380
   29.641588   46.918317
   29.634428   46.949318
   29.574105   46.935943
   29.571587   46.935736
   29.569146   46.936208
   29.566755   46.937636
   29.551440   46.956253
   29.550877   46.957993
   29.551331   46.959749
   29.552729   46.961246
   29.554855   46.962254
   29.589512   46.967293
   29.592957   47.014901
   29.596236   47.042962
   29.597907   47.044863
   29.600687   47.045983
   29.605000   47.046818
   29.620743   47.048555
   29.612126   47.078472
   29.609690   47.084288
   29.609299   47.087257
   29.607258   47.095106
   29.587366   47.093319
   29.575409   47.091731
   29.568134   47.091406
   29.554632   47.089871
   29.556268   47.075813
   29.555690   47.074038
   29.554149   47.072565
   29.551894   47.071631
   29.549951   47.071379
   29.530419   47.070929
   29.527340   47.071383
   29.525324   47.072439
   29.524039   47.073945
   29.523399   47.081224
   29.511379   47.106961
   29.499291   47.104660
   29.497442   47.104841
   29.495743   47.105377
   29.494332   47.106223
   29.493324   47.107311
   29.489944   47.122576
   29.489325   47.128291
   29.488213   47.131607
   29.488815   47.133421
   29.490238   47.134963
   29.491658   47.135793
   29.493965   47.136408
   29.497479   47.136229
   29.506737   47.133083
   29.541901   47.136191
   29.554639   47.138061
   29.564675   47.138698
   29.572506   47.139542
   29.562159   47.180385
   29.545579   47.251550
   29.545918   47.252833
   29.546771   47.253997
   29.548583   47.255196
   29.550300   47.255734
   29.591239   47.261032
   29.587496   47.277315
   29.581400   47.307115
   29.575371   47.338314
   29.575197   47.340921
   29.574306   47.343347
   29.573689   47.347810
   29.572109   47.354002
   29.568917   47.365324
   29.519363   47.360206
   29.500565   47.354439
   29.497816   47.352340
   29.495265   47.351503
   29.496786   47.349684
   29.497284   47.347984
   29.495094   47.342095
   29.497614   47.341195
   29.499236   47.339802
   29.499950   47.338082
   29.499645   47.336305
   29.497796   47.331812
   29.496296   47.330018
   29.493805   47.328765
   29.490088   47.328310
   29.491363   47.326276
   29.492556   47.322415
   29.492222   47.320753
   29.491088   47.319217
   29.492250   47.305803
   29.491922   47.304459
   29.491029   47.303244
   29.489653   47.302267
   29.487289   47.301487
   29.471258   47.298735
   29.452500   47.296056
   29.452690   47.293976
   29.451881   47.292335
   29.450241   47.291026
   29.448010   47.290239
   29.428227   47.287700
   29.425038   47.287844
   29.422329   47.289018
   29.420951   47.290516
   29.418609   47.299360
   29.398680   47.295954
   29.396119   47.296223
   29.394409   47.296870
   29.393050   47.297837
   29.392164   47.299038
   29.377210   47.344975
   29.377664   47.346827
   29.379077   47.348453
   29.383823   47.350854
   29.390843   47.355459
   29.385557   47.374413
   29.367777   47.371897
   29.366190   47.370172
   29.363409   47.369058
   29.338534   47.365957
   29.335976   47.365992
   29.334178   47.366468
   29.332658   47.367285
   29.331548   47.368373
   29.330945   47.369638
   29.323319   47.401239
   29.322694   47.402530
   29.319608   47.415569
   29.318691   47.421145
   29.312914   47.442986
   29.308292   47.439168
   29.306554   47.438555
   29.296564   47.436328
   29.294973   47.434273
   29.291961   47.432774
   29.289232   47.432222
   29.278841   47.431849
   29.276167   47.430861
   29.267819   47.426110
   29.267111   47.424838
   29.265967   47.423827
   29.262940   47.422172
   29.261016   47.421601
   29.260017   47.420866
   29.260157   47.418253
   29.259710   47.416856
   29.256722   47.413576
   29.255343   47.412541
   29.252256   47.411615
   29.242856   47.410826
   29.240506   47.411382
   29.238625   47.412504
   29.237485   47.414031
   29.237007   47.415735
   29.237190   47.418234
   29.236260   47.432795
   29.235776   47.450707
   29.197759   47.423130
   29.194083   47.421081
   29.192276   47.420626
   29.190356   47.420554
   29.187354   47.421289
   29.183990   47.423636
   29.182397   47.426349
   29.180593   47.427685
   29.179237   47.429298
   29.178696   47.430600
   29.178794   47.432183
   29.176923   47.435348
   29.176935   47.436714
   29.177535   47.438015
   29.180429   47.440202
   29.175930   47.447770
   29.175805   47.450039
   29.176876   47.451705
   29.183927   47.458517
   29.166194   47.449087
   29.164515   47.448441
   29.162638   47.448160
   29.159509   47.448556
   29.157021   47.449927
   29.151441   47.457651
   29.151041   47.458956
   29.151208   47.460286
   29.151929   47.461524
   29.153141   47.462563
   29.177844   47.475818
   29.177089   47.477934
   29.177570   47.480767
   29.179480   47.483760
   29.182419   47.486144
   29.183918   47.486863
   29.180752   47.488272
   29.177823   47.490252
   29.176822   47.491378
   29.176335   47.492657
   29.175951   47.496711
   29.178428   47.502932
   29.178972   47.505406
   29.178333   47.511239
   29.154005   47.502364
   29.150815   47.502058
   29.148936   47.502405
   29.147287   47.503119
   29.145696   47.504530
   29.111101   47.552401
   29.110500   47.553675
   29.110583   47.555457
   29.111653   47.557078
   29.114114   47.558501
   29.153603   47.571640
   29.164225   47.575446
   29.166717   47.575773
   29.169201   47.575418
   29.170832   47.574734
   29.172855   47.573153
   29.178714   47.575039
   29.178590   47.579356
   29.179676   47.580931
   29.181182   47.581992
   29.179999   47.583400
   29.179442   47.585487
   29.179597   47.586767
   29.180265   47.587965
   29.184990   47.591424
   29.186144   47.593769
   29.187632   47.595223
   29.189222   47.595987
   29.195195   47.597565
   29.196094   47.598468
   29.194496   47.601028
   29.194175   47.602380
   29.194676   47.604168
   29.195705   47.605338
   29.201304   47.608523
   29.206107   47.611955
   29.209619   47.613984
   29.203257   47.626653
   29.203106   47.629327
   29.204644   47.631520
   29.206062   47.632377
   29.207775   47.632918
   29.209639   47.633099
   29.211500   47.632905
   29.214631   47.631499
   29.217091   47.636642
   29.218173   47.637878
   29.208203   47.637849
   29.205803   47.638515
   29.203628   47.640159
   29.202852   47.642323
   29.203337   47.658565
   29.204443   47.660561
   29.206749   47.661982
   29.209119   47.662486
   29.212992   47.662538
   29.212748   47.676358
   29.213341   47.679185
   29.213174   47.683034
   29.213904   47.684319
   29.215920   47.685977
   29.218063   47.686744
   29.220859   47.686995
   29.214229   47.695097
   29.213880   47.696806
   29.214432   47.698398
   29.198447   47.717148
   29.197843   47.718773
   29.197979   47.720031
   29.209117   47.740299
   29.210464   47.741796
   29.211965   47.742620
   29.217168   47.744275
   29.243335   47.754475
   29.268740   47.800880
   29.249615   47.805684
   29.237960   47.794724
   29.235600   47.793353
   29.232596   47.792883
   29.217266   47.794138
   29.214460   47.795401
   29.209117   47.800012
   29.201879   47.807843
   29.193050   47.816053
   29.192089   47.817776
   29.191942   47.820436
   29.194633   47.825084
   29.196133   47.829480
   29.197829   47.832823
   29.201634   47.839070
   29.206070   47.843185
   29.207669   47.843934
   29.209400   47.844311
   29.213012   47.849104
   29.215801   47.851100
   29.218819   47.855508
   29.222179   47.859214
   29.226308   47.861627
   29.229361   47.862187
   29.229875   47.864043
   29.230796   47.865234
   29.235175   47.868579
   29.239085   47.870891
   29.248960   47.873828
   29.261493   47.878303
   29.264240   47.881935
   29.266286   47.882936
   29.269420   47.883528
   29.270747   47.885656
   29.215176   47.881463
   29.201035   47.879854
   29.197895   47.880264
   29.195410   47.881655
   29.194176   47.883695
   29.186190   47.919395
   29.179412   47.959759
   29.177411   47.960222
   29.175841   47.961027
   29.174686   47.962118
   29.174048   47.963396
   29.172724   47.968454
   29.169580   47.989150
   29.152835   47.988849
   29.135295   47.988953
   29.137562   47.984956
   29.137831   47.983275
   29.137299   47.981158
   29.136536   47.979958
   29.135307   47.978959
   29.133716   47.978246
   29.131897   47.977879
   29.126000   47.977713
   29.118579   47.978962
   29.114304   47.978750
   29.110491   47.979276
   29.108339   47.978289
   29.103333   47.977213
   29.101447   47.977176
   29.098913   47.977768
   29.098072   47.977699
   29.099773   47.977228
   29.101270   47.976409
   29.102361   47.975326
   29.102954   47.974071
   29.104625   47.960565
   29.104108   47.958313
   29.102070   47.956521
   29.098729   47.955306
   29.095052   47.955077
   29.091796   47.955958
   29.093280   47.946728
   29.092799   47.944963
   29.091364   47.943467
   29.089201   47.942476
   29.081689   47.941410
   29.075145   47.939475
   29.057636   47.938141
   29.051419   47.938248
   29.049116   47.938759
   29.040256   47.942075
   29.038353   47.940180
   29.035456   47.938562
   29.032906   47.938122
   29.030311   47.938414
   29.021656   47.942216
   29.019838   47.943525
   29.018135   47.945464
   29.014299   47.947813
   29.008913   47.952364
   29.005744   47.952624
   28.999391   47.953875
   28.996836   47.955110
   28.995458   47.956881
   28.993348   47.956895
   28.991044   47.957503
   28.983354   47.962215
   28.980822   47.964122
   28.974215   47.967838
   28.962400   47.973431
   28.955904   47.969587
   28.929227   47.956269
   28.926198   47.955623
   28.924292   47.955747
   28.922520   47.956247
   28.917714   47.959595
   28.897845   47.976595
   28.877607   47.992440
   28.872007   47.998542
   28.871131   48.000662
   28.871808   48.002817
   28.873876   48.004494
   28.878409   48.006075
   28.877788   48.007350
   28.870417   48.010749
   28.863714   48.014411
   28.861717   48.016272
   28.859773   48.015540
   28.857393   48.015245
   28.854859   48.015452
   28.852633   48.016286
   28.850739   48.017704
   28.849919   48.018941
   28.849480   48.020582
   28.849373   48.024600
   28.835662   48.031260
   28.833631   48.032886
   28.832940   48.034545
   28.833196   48.036261
   28.840923   48.049291
   28.843369   48.054396
   28.844827   48.059148
   28.838328   48.063205
   28.837387   48.064843
   28.837490   48.066785
   28.835659   48.066768
   28.833750   48.067153
   28.828149   48.070169
   28.826942   48.072224
   28.826962   48.073563
   28.827548   48.074840
   28.835538   48.081841
   28.837151   48.082585
   28.839653   48.083010
   28.849670   48.083274
   28.855355   48.082848
   28.858578   48.081535
   28.862295   48.077163
   28.863913   48.076516
   28.862589   48.080621
   28.862548   48.082329
   28.863776   48.084281
   28.866157   48.085627
   28.885787   48.090647
   28.921687   48.097748
   28.921566   48.099087
   28.925325   48.117745
   28.926701   48.127302
   28.939272   48.158403
   28.940571   48.159859
   28.943131   48.161043
   28.946191   48.161285
   28.960085   48.160082
   28.970677   48.158665
   28.972516   48.158099
   28.974058   48.157137
   28.980235   48.155749
   28.981640   48.154937
   28.984707   48.152122
   28.985798   48.153131
   28.990033   48.155614
   28.992978   48.156386
   28.994879   48.156351
   28.997804   48.155700
   29.000730   48.155799
   29.003416   48.154997
   29.005611   48.155093
   29.008072   48.154551
   29.010771   48.152725
   29.013874   48.151849
   29.015537   48.150562
   29.018827   48.144489
   29.021166   48.141738
   29.023772   48.137592
   29.024641   48.135511
   29.024793   48.133871
   29.027382   48.132306
   29.027619   48.133715
   29.028408   48.134927
   29.036850   48.142204
   29.038038   48.144515
   29.042574   48.150372
   29.040063   48.153126
   29.037174   48.155503
   29.036284   48.157645
   29.036717   48.159410
   29.038633   48.162027
   29.038504   48.165626
   29.037669   48.169200
   29.039799   48.175542
   29.048499   48.184544
   29.050447   48.185714
   29.052488   48.186224
   29.051117   48.187866
   29.050846   48.190068
   29.054222   48.195957
   29.056205   48.197134
   29.059324   48.197702
   29.061826   48.199158
   29.064331   48.199595
   29.066886   48.199325
   29.069576   48.198289
   29.070981   48.198067
   29.073541   48.198931
   29.076149   48.198986
   29.078981   48.198440
   29.081996   48.197159
   29.083624   48.195811
   29.085145   48.193400
   29.087266   48.192868
   29.088728   48.192072
   29.116689   48.171755
   29.125089   48.163925
   29.135484   48.157777
   29.144536   48.160267
   29.147163   48.160244
   29.150083   48.159222
   29.154050   48.155099
   29.155952   48.153899
   29.160486   48.151929
   29.162900   48.149990
   29.163552   48.148332
   29.163424   48.147043
   29.162774   48.145832
   29.161569   48.144691
   29.164772   48.144620
   29.167194   48.146026
   29.169683   48.146474
   29.183427   48.145568
   29.189217   48.143617
   29.194485   48.140159
   29.195806   48.138909
   29.203076   48.138810
   29.203488   48.140361
   29.204902   48.141923
   29.205083   48.143232
   29.205809   48.144496
   29.207551   48.145843
   29.210776   48.147289
   29.213870   48.147636
   29.218911   48.146739
   29.221377   48.146640
   29.223633   48.147303
   29.225549   48.147402
   29.228010   48.146931
   29.230422   48.145739
   29.232485   48.145949
   29.237880   48.145732
   29.246428   48.153694
   29.248140   48.154348
   29.250056   48.154622
   29.252003   48.154491
   29.253807   48.153967
   29.256589   48.152438
   29.258050   48.150577
   29.259004   48.142576
   29.262754   48.140356
   29.265525   48.139311
   29.267251   48.137514
   29.268097   48.130168
   29.267240   48.128100
   29.265611   48.126792
   29.263500   48.126027
   29.261457   48.124625
   29.256212   48.123507
   29.251915   48.123338
   29.247851   48.123891
   29.245672   48.124633
   29.242836   48.118864
   29.239079   48.116615
   29.236763   48.115841
   29.234196   48.115746
   29.225346   48.117263
   29.222000   48.118362
   29.220225   48.119425
   29.218671   48.119701
   29.216512   48.119296
   29.218600   48.118009
   29.219734   48.116769
   29.220578   48.114893
   29.220659   48.113397
   29.224423   48.111121
   29.226010   48.108569
   29.228200   48.107947
   29.230255   48.111518
   29.231580   48.112467
   29.233244   48.113111
   29.236379   48.113372
   29.239961   48.112483
   29.241467   48.113871
   29.243787   48.114800
   29.247460   48.115056
   29.250714   48.114186
   29.255694   48.116387
   29.258250   48.116683
   29.260166   48.116437
   29.262398   48.115526
   29.264753   48.113744
   29.266264   48.111240
   29.268282   48.111064
   29.270036   48.110542
   29.271496   48.109692
   29.272539   48.108585
   29.273128   48.106436
   29.272330   48.096699
   29.276798   48.095824
   29.278160   48.096594
   29.281451   48.097689
   29.287738   48.098073
   29.290161   48.097368
   29.293654   48.094998
   29.302937   48.095363
   29.308928   48.094120
   29.313219   48.091826
   29.325675   48.096636
   29.331762   48.098580
   29.338569   48.098941
   29.342723   48.098067
   29.347641   48.100695
   29.351642   48.101819
   29.354817   48.101507
   29.357395   48.100187
   29.358756   48.098177
   29.358729   48.096378
   29.366048   48.098661
   29.368441   48.099056
   29.370282   48.098932
   29.371999   48.098455
   29.374977   48.096361
   29.378609   48.097436
   29.375980   48.101615
   29.375915   48.103441
   29.376561   48.104740
   29.385512   48.114095
   29.391494   48.117678
   29.429516   48.124313
   29.442982   48.126346
   29.467178   48.127515
   29.474987   48.126247
   29.476999   48.125273
   29.478350   48.123854
   29.482089   48.115524
   29.483537   48.110847
   29.485779   48.110237
   29.488746   48.110503
   29.491202   48.110128
   29.498092   48.106776
   29.509775   48.105181
   29.513861   48.104282
   29.519247   48.103815
   29.523245   48.104035
   29.527289   48.103101
   29.529673   48.104102
   29.535847   48.105356
   29.538339   48.105488
   29.540492   48.105255
   29.543361   48.105723
   29.546411   48.105636
   29.552850   48.104022
   29.555283   48.103841
   29.558013   48.104563
   29.560508   48.104482
   29.563662   48.105029
   29.565764   48.105015
   29.568864   48.107256
   29.570552   48.108043
   29.573637   48.108530
   29.575955   48.108437
   29.575095   48.109613
   29.574762   48.110921
   29.574991   48.112239
   29.575764   48.113454
   29.580237   48.116396
   29.581885   48.118941
   29.583619   48.120295
   29.586947   48.121268
   29.590766   48.121063
   29.591646   48.121671
   29.592344   48.125054
   29.596424   48.134618
   29.598303   48.136399
   29.599948   48.137091
   29.601812   48.137421
   29.604966   48.137105
   29.623050   48.131961
   29.644084   48.126565
   29.646201   48.124925
   29.646923   48.123231
   29.645180   48.116439
   29.647785   48.116507
   29.651504   48.116063
   29.650442   48.117490
   29.650193   48.119250
   29.651904   48.122605
   29.652917   48.123762
   29.654379   48.124661
   29.656160   48.125220
   29.658100   48.125389
   29.660194   48.125114
   29.662304   48.125884
   29.664548   48.126073
   29.665542   48.129538
   29.666477   48.130892
   29.664711   48.133063
   29.664451   48.134804
   29.667525   48.149646
   29.669488   48.154914
   29.669436   48.159712
   29.666607   48.161237
   29.665338   48.163265
   29.665611   48.165468
   29.667404   48.167347
   29.655756   48.181484
   29.648435   48.193964
   29.648199   48.195691
   29.648654   48.196957
   29.649612   48.198081
   29.650993   48.198969
   29.653291   48.199662
   29.660459   48.200742
   29.668107   48.200814
   29.670430   48.200041
   29.674439   48.197507
   29.681903   48.194045
   29.686719   48.196879
   29.695755   48.199647
   29.699691   48.200231
   29.704666   48.202586
   29.715301   48.205509
   29.722096   48.206616
   29.731279   48.207213
   29.737411   48.207130
   29.745938   48.206803
   29.751893   48.205846
   29.761962   48.205200
   29.764854   48.206655
   29.766514   48.207148
   29.772384   48.207358
   29.773940   48.208415
   29.774806   48.210463
   29.776278   48.211859
   29.778400   48.212771
   29.780861   48.213066
   29.786498   48.212001
   29.789475   48.210889
   29.791402   48.209232
   29.792020   48.207259
   29.793503   48.206705
   29.803650   48.210310
   29.808398   48.211496
   29.811669   48.212093
   29.817178   48.212353
   29.829641   48.215757
   29.837868   48.216973
   29.841015   48.217153
   29.845891   48.216433
   29.853288   48.213980
   29.856278   48.212742
   29.864524   48.208212
   29.865916   48.207201
   29.869165   48.202689
   29.871855   48.200150
   29.876186   48.198295
   29.878342   48.196473
   29.879943   48.195914
   29.881349   48.194994
   29.882652   48.193473
   29.883163   48.191441
   29.888005   48.190615
   29.893891   48.197854
   29.896672   48.201874
   29.899792   48.205144
   29.924643   48.235473
   29.926779   48.237068
   29.929742   48.237788
   29.931637   48.237722
   29.933424   48.237282
   29.972718   48.223018
   29.975804   48.226462
   29.985808   48.233703
   29.988013   48.234419
   29.991043   48.234511
   29.993478   48.233939
   29.994990   48.233103
   29.996082   48.231998
   29.996658   48.230720
   29.997534   48.223021
   30.003003   48.220700
   30.008150   48.217220
   30.013101   48.213361
   30.015163   48.210050
   30.015269   48.206222
   30.013057   48.200565
   30.010912   48.198118
   30.006748   48.194548
   30.007992   48.190699
   30.007861   48.187122
   30.010585   48.189121
   30.014003   48.190451
   30.019949   48.190663
   30.023104   48.190258
   30.026697   48.188876
   30.028900   48.187310
   30.031979   48.184275
   30.036712   48.181998
   30.038350   48.180429
   30.039432   48.178332
   30.039622   48.176578
   30.038654   48.173696
   30.040677   48.171034
   30.043412   48.169283
   30.045695   48.167193
   30.047698   48.163912
   30.048794   48.157962
   30.051781   48.154889
   30.053617   48.155676
   30.057425   48.156695
   30.061939   48.156837
   30.065145   48.156019
   30.067249   48.154841
   30.068309   48.153709
   30.069830   48.150627
   30.073259   48.151557
   30.079386   48.151478
   30.081839   48.150924
   30.085521   48.149472
   30.092140   48.148765
   30.096359   48.146596
   30.100847   48.146431
   30.103607   48.145926
   30.107961   48.148035
   30.113090   48.149244
   30.116768   48.149246
   30.121726   48.151178
   30.127533   48.152162
   30.137241   48.151961
   30.139621   48.151369
   30.141865   48.151793
   30.144524   48.151737
   30.150096   48.149637
   30.151921   48.148550
   30.159027   48.150194
   30.163092   48.150262
   30.169102   48.153585
   30.172134   48.154409
   30.176818   48.155124
   30.180504   48.157744
   30.183052   48.158858
   30.184759   48.159333
   30.187991   48.159604
   30.189781   48.159379
   30.193101   48.158279
   30.197470   48.155430
   30.199599   48.153614
   30.216286   48.152103
   30.223119   48.149455
   30.231605   48.149031
   30.236567   48.147815
   30.241793   48.146031
   30.244752   48.146932
   30.250091   48.147614
   30.256688   48.151355
   30.262125   48.152553
   30.271198   48.151113
   30.281075   48.147573
   30.285316   48.145275
   30.287350   48.144901
   30.293947   48.146703
   30.299293   48.147651
   30.305327   48.147444
   30.308819   48.147614
   30.311273   48.147112
   30.313646   48.145639
   30.314634   48.144005
   30.315396   48.139003
   30.320832   48.120764
   30.357717   48.117209
   30.360845   48.116290
   30.362909   48.114695
   30.363673   48.112929
   30.363374   48.100506
   30.362225   48.098425
   30.360347   48.097195
   30.358564   48.096660
   30.349881   48.095663
   30.336049   48.093187
   30.331087   48.092599
   30.328642   48.090457
   30.325638   48.089620
   30.323682   48.089645
   30.302109   48.092181
   30.299584   48.091941
   30.294425   48.092478
   30.292625   48.092091
   30.290531   48.090716
   30.288526   48.083150
   30.286962   48.081731
   30.284101   48.080720
   30.280891   48.080775
   30.264524   48.083945
   30.255791   48.084731
   30.249071   48.075574
   30.245053   48.071944
   30.240531   48.069682
   30.237633   48.066795
   30.235916   48.066093
   30.233235   48.065565
   30.229236   48.065808
   30.226165   48.065549
   30.221842   48.064592
   30.226077   48.062171
   30.230138   48.064369
   30.232541   48.065018
   30.235745   48.064851
   30.237473   48.064240
   30.238865   48.063305
   30.262606   48.029498
   30.262794   48.028121
   30.262223   48.026536
   30.264084   48.020904
   30.263539   48.019226
   30.262128   48.017810
   30.260055   48.016862
   30.234652   48.009570
   30.238753   48.003787
   30.255729   47.983671
   30.256064   47.981526
   30.255263   47.979885
   30.253720   47.978627
   30.252426   47.970158
   30.254992   47.969271
   30.276088   47.959000
   30.280875   47.957418
   30.285462   47.954791
   30.311202   47.934304
   30.313694   47.931196
   30.313882   47.928982
   30.312911   47.927334
   30.305576   47.922821
   30.307993   47.915200
   30.311130   47.900859
   30.313438   47.892738
   30.316810   47.874722
   30.317662   47.872659
   30.324693   47.845340
   30.328028   47.837070
   30.332794   47.823163
   30.334408   47.820226
   30.336349   47.814478
   30.384238   47.821005
   30.389476   47.821285
   30.421366   47.825600
   30.423935   47.825591
   30.426817   47.824628
   30.428098   47.823627
   30.428901   47.822410
   30.433562   47.805334
   30.435988   47.805432
   30.439143   47.804736
   30.441070   47.803627
   30.442253   47.802098
   30.445726   47.790360
   30.445487   47.788595
   30.444669   47.787389
   30.442862   47.786134
   30.438984   47.784948
   30.423956   47.783376
   30.430638   47.761444
   30.430563   47.760105
   30.429594   47.758454
   30.427780   47.757191
   30.426029   47.756618
   30.403842   47.753581
   30.403138   47.752031
   30.401650   47.750642
   30.399289   47.749641
   30.396841   47.749131
   30.397858   47.746401
   30.397351   47.744246
   30.402192   47.726825
   30.403455   47.723053
   30.405151   47.720079
   30.416600   47.683757
   30.420668   47.672609
   30.420698   47.671350
   30.419937   47.669298
   30.417512   47.667159
   30.420215   47.655577
   30.423096   47.648202
   30.425676   47.639554
   30.462720   47.644722
   30.465239   47.644730
   30.467028   47.644300
   30.468996   47.643212
   30.470224   47.641690
   30.476115   47.623409
   30.484595   47.624614
   30.489689   47.625839
   30.503711   47.627989
   30.518986   47.629728
   30.522374   47.630486
   30.542061   47.633330
   30.556762   47.635958
   30.559318   47.635886
   30.562138   47.634860
   30.563673   47.633444
   30.564621   47.631227
   30.570509   47.631780
   30.587714   47.634738
   30.603111   47.638576
   30.611604   47.640262
   30.614714   47.639949
   30.616348   47.639281
   30.617637   47.638316
   30.618921   47.636692
   30.622087   47.629950
   30.638434   47.634370
   30.660220   47.639253
   30.663426   47.639337
   30.666248   47.638713
   30.668336   47.637720
   30.669721   47.636253
   30.670170   47.634971
   30.671813   47.620771
   30.671779   47.617425
   30.671124   47.616135
   30.669944   47.615040
   30.667742   47.614050
   30.665510   47.613689
   30.665355   47.612803
   30.665705   47.605469
   30.669212   47.605551
   30.696648   47.606698
   30.712317   47.611473
   30.705538   47.631130
   30.702568   47.638563
   30.702522   47.639911
   30.703053   47.641209
   30.704113   47.642341
   30.705608   47.643206
   30.708045   47.643815
   30.741598   47.647265
   30.787787   47.653727
   30.790846   47.653459
   30.793177   47.652413
   30.794417   47.651336
   30.795131   47.650052
   30.797846   47.641222
   30.798935   47.636541
   30.798770   47.635199
   30.797685   47.633575
   30.795775   47.632369
   30.787006   47.630667
   30.786638   47.630017
   30.788109   47.625096
   30.787773   47.623367
   30.786908   47.622198
   30.785595   47.621251
   30.781472   47.620105
   30.782667   47.609196
   30.786559   47.597350
   30.786320   47.595996
   30.785508   47.594754
   30.782858   47.593146
   30.785940   47.584760
   30.785685   47.582628
   30.784043   47.580816
   30.781383   47.579729
   30.773609   47.578622
   30.766718   47.577987
   30.753256   47.576011
   30.757357   47.565093
   30.759225   47.564613
   30.760759   47.563792
   30.761876   47.562696
   30.763407   47.559999
   30.765315   47.559237
   30.766727   47.558085
   30.771911   47.558247
   30.773730   47.557899
   30.775330   47.557206
   30.777158   47.555451
   30.778353   47.551601
   30.784172   47.552379
   30.797689   47.557627
   30.800775   47.558004
   30.803206   47.557553
   30.805846   47.556087
   30.807793   47.554155
   30.808646   47.552222
   30.828749   47.554213
   30.830641   47.554082
   30.832398   47.553580
   30.833873   47.552749
   30.835186   47.551254
   30.838486   47.542564
   30.875052   47.549431
   30.877021   47.549414
   30.878893   47.548991
   30.880498   47.548201
   30.881976   47.546706
   30.884502   47.540235
   30.887668   47.529983
   30.887589   47.528618
   30.886925   47.527331
   30.884414   47.525557
   30.887077   47.515269
   30.889696   47.508495
   30.889727   47.507148
   30.889183   47.505855
   30.888113   47.504730
   30.886383   47.503642
   30.884511   47.502983
   30.860223   47.499700
   30.866710   47.481408
   30.866493   47.480063
   30.865334   47.478453
   30.863915   47.477522
   30.861756   47.476834
   30.865244   47.467773
   30.870667   47.448716
   30.871402   47.443865
   30.870999   47.442597
   30.870091   47.441461
   30.868755   47.440550
   30.866395   47.439665
   30.864389   47.439423
   30.854739   47.439312
   30.856795   47.425913
   30.886943   47.430535
   30.888798   47.430390
   30.891036   47.429648
   30.892713   47.428382
   30.893453   47.427196
   30.898838   47.408411
   30.899963   47.403612
   30.899803   47.402275
   30.898323   47.400304
   30.895666   47.399059
   30.881369   47.397094
   30.887059   47.375634
   30.888653   47.372544
   30.888706   47.369233
   30.890804   47.366751
   30.891216   47.363918
   30.901277   47.364701
   30.903818   47.364190
   30.905858   47.363025
   30.906854   47.361833
   30.914907   47.347522
   30.915316   47.345406
   30.914860   47.344157
   30.913912   47.343048
   30.910904   47.341502
   30.895960   47.338503
   30.895909   47.337057
   30.895305   47.335825
   30.894219   47.334763
   30.892742   47.333959
   30.876719   47.331132
   30.879460   47.323564
   30.893132   47.325394
   30.896176   47.324657
   30.898703   47.322906
   30.912570   47.282522
   30.958981   47.289187
   30.970526   47.290370
   30.980521   47.292186
   30.995921   47.294241
   30.998518   47.294224
   31.000347   47.293748
   31.003138   47.291876
   31.003921   47.290607
   31.004114   47.289235
   30.997999   47.272941
   31.007523   47.274674
   31.010635   47.274097
   31.013539   47.272330
   31.014327   47.271175
   31.015483   47.267598
   31.015795   47.263428
   31.022761   47.244428
   31.072516   47.251211
   31.071907   47.253672
   31.072562   47.255428
   31.074680   47.257145
   31.077083   47.257868
   31.136551   47.266503
   31.168758   47.270842
   31.172372   47.270668
   31.174692   47.269797
   31.176592   47.267941
   31.182023   47.257030
   31.181829   47.255229
   31.180633   47.253624
   31.178625   47.252471
   31.176157   47.251935
   31.178744   47.243503
   31.179953   47.241705
   31.184705   47.222655
   31.184243   47.221392
   31.183281   47.220273
   31.181898   47.219390
   31.180209   47.218817
   31.153863   47.214805
   31.157055   47.204900
   31.163254   47.182545
   31.163352   47.181220
   31.162890   47.179933
   31.161005   47.178165
   31.158139   47.177220
   31.124270   47.172493
   31.120921   47.172639
   31.122386   47.168190
   31.121520   47.165282
   31.120713   47.164112
   31.119460   47.163149
   31.114466   47.161459
   31.114819   47.160625
   31.123662   47.161431
   31.129682   47.161620
   31.131574   47.161235
   31.133214   47.160477
   31.134452   47.159414
   31.135115   47.158295
   31.161118   47.161717
   31.174171   47.161275
   31.179792   47.160673
   31.191568   47.160184
   31.193312   47.171971
   31.194250   47.173564
   31.196958   47.175484
   31.199380   47.176186
   31.243444   47.182170
   31.247900   47.182144
   31.249628   47.181588
   31.251052   47.180711
   31.252271   47.179173
   31.253968   47.174218
   31.268802   47.176376
   31.271318   47.176233
   31.273567   47.175440
   31.275501   47.173724
   31.276890   47.169907
   31.298162   47.095395
   31.305219   47.088208
   31.308172   47.084483
   31.308229   47.082247
   31.306934   47.080220
   31.304403   47.078863
   31.301133   47.078280
   31.304575   47.068597
   31.305564   47.066788
   31.311510   47.048440
   31.310852   47.046337
   31.308864   47.044682
   31.306135   47.043637
   31.301276   47.043047
   31.301921   47.038110
   31.302946   47.035383
   31.302980   47.032240
   31.301929   47.030309
   31.300819   47.029182
   31.297250   47.027692
   31.297910   47.025260
   31.297721   47.023534
   31.296608   47.021983
   31.294736   47.020836
   31.292378   47.020259
   31.280935   47.019084
   31.267573   47.017183
   31.265133   47.017593
   31.263097   47.018610
   31.261192   47.020740
   31.260647   47.022656
   31.240144   47.019660
   31.238765   47.018932
   31.243726   47.002597
   31.247219   46.997390
   31.249881   46.994593
   31.250650   46.992930
   31.250452   46.991189
   31.249309   46.989363
   31.247932   46.988313
   31.245295   46.987283
   31.205425   46.982073
   31.176326   46.978925
   31.141939   46.974477
   31.137836   46.974937
   31.135038   46.976535
   31.132950   46.979008
   31.131606   46.984473
   31.116534   46.982146
   31.107313   46.980372
   31.094913   46.978759
   31.096460   46.974169
   31.096438   46.972840
   31.095858   46.971573
   31.094772   46.970478
   31.092107   46.969279
   31.041298   46.964448
   31.037780   46.963542
   31.030912   46.960815
   31.024297   46.959800
   31.029071   46.939819
   31.030813   46.938124
   31.034891   46.936127
   31.036177   46.934606
   31.045756   46.907018
   31.045962   46.903240
   31.049099   46.903705
   31.052053   46.903263
   31.096241   46.884968
   31.097861   46.884018
   31.104559   46.877050
   31.116255   46.849369
   31.120243   46.849789
   31.122196   46.849664
   31.157082   46.841065
   31.159601   46.839936
   31.161736   46.837818
   31.163847   46.834116
   31.163895   46.830049
   31.158536   46.798569
   31.159286   46.794097
   31.183280   46.771840
   31.184225   46.770220
   31.183720   46.766072
   31.180048   46.760793
   31.163800   46.747160
   31.159353   46.744183
   31.160482   46.735994
   31.161846   46.732399
   31.162163   46.729565
   31.177483   46.715126
   31.182529   46.713167
   31.185044   46.710860
   31.185548   46.709240
   31.185760   46.703971
   31.185618   46.680117
   31.189050   46.674215
   31.190971   46.666622
   31.197089   46.665657
   31.199269   46.664969
   31.202651   46.662764
   31.203440   46.661599
   31.203723   46.660327
   31.203177   46.657903
   31.201759   46.656107
   31.197032   46.653012
   31.192960   46.651884
   31.195850   46.650154
   31.196938   46.648085
   31.196323   46.644975
   31.195356   46.643611
   31.195959   46.641777
   31.195507   46.639089
   31.192765   46.636101
   31.187925   46.633838
   31.185914   46.632224
   31.184102   46.631361
   31.183492   46.628114
   31.183670   46.626431
   31.165621   46.409422
   31.164945   46.407663
   31.162797   46.405954
   31.152083   46.400871
   31.134565   46.393716
   31.116380   46.387402
   31.097613   46.381958
   31.078776   46.377499
   31.059117   46.373847
   31.052591   46.372951
   31.045303   46.359343
   31.045219   46.354971
   31.043643   46.341268
   31.040666   46.327360
   31.036210   46.313321
   31.030489   46.299823
   31.023447   46.286622
   31.015314   46.274059
   31.005764   46.261629
   30.994760   46.249419
   30.983099   46.238255
   30.974352   46.230966
   30.972726   46.214961
   30.969749   46.201022
   30.965404   46.187253
   30.959712   46.173718
   30.952699   46.160481
   30.944399   46.147603
   30.934849   46.135145
   30.924095   46.123165
   30.912186   46.111719
   30.899177   46.100861
   30.884812   46.090426
   30.870110   46.081109
   30.854187   46.072309
   30.837435   46.064281
   30.832797   46.062359
   30.829646   46.057498
   30.820292   46.045298
   30.809290   46.033042
   30.797629   46.021834
   30.784621   46.010959
   30.770257   46.000507
   30.755555   45.991176
   30.739632   45.982360
   30.722880   45.974319
   30.704986   45.966941
   30.687205   45.960707
   30.672995   45.956533
   30.669086   45.947262
   30.662213   45.934265
   30.653914   45.921336
   30.644365   45.908828
   30.633611   45.896800
   30.621703   45.885309
   30.608401   45.874176
   30.594332   45.863930
   30.577769   45.853530
   30.567802   45.837514
   30.558227   45.824998
   30.547448   45.812963
   30.535515   45.801467
   30.522485   45.790562
   30.508416   45.780301
   30.489977   45.768844
   30.484611   45.760504
   30.475257   45.748237
   30.464505   45.736176
   30.452597   45.724652
   30.439591   45.713719
   30.425228   45.703213
   30.410526   45.693831
   30.394604   45.684969
   30.377476   45.676717
   30.360349   45.669617
   30.348743   45.665514
   30.335649   45.654421
   30.321899   45.644352
   30.306880   45.634743
   30.290600   45.625687
   30.274206   45.617780
   30.265869   45.614308
   30.254579   45.603372
   30.241550   45.592429
   30.227482   45.582132
   30.212442   45.572528
   30.196500   45.563663
   30.179730   45.555579
   30.162211   45.548313
   30.144430   45.542032
   30.128930   45.537445
   30.115653   45.527703
   30.100951   45.518292
   30.085029   45.509403
   30.073774   45.503950
   30.077560   45.490388
   30.080112   45.476229
   30.081265   45.461981
   30.081048   45.448012
   30.080433   45.442447
   30.091345   45.446178
   30.126890   45.454644
   30.165400   45.460017
   30.202858   45.461739
   30.241181   45.460017
   30.278856   45.454801
   30.316033   45.445947
   30.350443   45.433996
   30.381655   45.419358
   30.411156   45.401195
   30.436421   45.380904
   30.457695   45.358465
   30.474618   45.334260
   30.486899   45.308701
   30.494222   45.282802
   30.496703   45.260613
   30.496786   45.255281
   30.494331   45.228907
   30.486899   45.202395
   30.474619   45.176781
   30.457699   45.152504
   30.435916   45.129511
   30.411166   45.109597
   30.382345   45.091706
   30.350458   45.076616
   30.315250   45.064355
   30.279704   45.055832
   30.242048   45.050500
   30.203727   45.048686
   30.164533   45.050500
   30.126878   45.055832
   30.091332   45.064355
   30.056306   45.076533
   30.041769   45.082912
   30.018671   45.093705
   29.990813   45.111332
   29.966019   45.137565
   29.951299   45.158134
   29.947319   45.165525
   29.791617   45.178954
   29.689872   45.187231
   29.686788   45.188067
   29.684693   45.189842
   29.681953   45.195443
   29.681817   45.196842
   29.683191   45.201461
   29.682956   45.202026
   29.679184   45.206249
   29.672735   45.210044
   29.664874   45.218792
   29.663700   45.221707
   29.662191   45.227575
   29.656870   45.235612
   29.655944   45.237610
   29.655144   45.242618
   29.653546   45.246782
   29.653187   45.250171
   29.653438   45.252050
   29.657767   45.261815
   29.659703   45.263791
   29.666101   45.268046
   29.671476   45.270359
   29.669459   45.279517
   29.666162   45.286067
   29.664364   45.292405
   29.664255   45.301202
   29.663269   45.306199
   29.658849   45.313145
   29.650635   45.331188
   29.645873   45.336706
   29.634924   45.343942
   29.626474   45.350416
   29.618380   45.357196
   29.607716   45.368022
   29.596001   45.378280
   29.592492   45.380597
   29.587937   45.384749
   29.584922   45.386692
   29.563463   45.397284
   29.553868   45.401350
   29.547805   45.404698
   29.530919   45.408055
   29.518401   45.410184
   29.496225   45.415323
   29.479233   45.417174
   29.471603   45.418968
   29.461767   45.423357
   29.459331   45.424143
   29.455337   45.425277
   29.441914   45.428081
   29.436728   45.430057
   29.433700   45.432084
   29.430500   45.435598
   29.427318   45.438200
   29.421528   45.438030
   29.416600   45.437197
   29.408560   45.434866
   29.403918   45.432905
   29.395403   45.431395
   29.389375   45.431803
   29.381944   45.434759
   29.367781   45.431960
   29.362768   45.431708
   29.356671   45.432260
   29.344566   45.435079
   29.340834   45.436988
   29.333618   45.442496
   29.330471   45.443746
   29.325367   45.443681
   29.321915   45.442084
   29.318304   45.439432
   29.313443   45.435052
   29.311310   45.432506
   29.307829   45.429707
   29.302299   45.426459
   29.296561   45.424151
   29.292132   45.423037
   29.284929   45.422027
   29.275849   45.422438
   29.271366   45.422961
   29.264544   45.424593
   29.256038   45.428281
   29.250348   45.429024
   29.245321   45.429166
   29.241105   45.428524
   29.234285   45.423940
   29.231669   45.421250
   29.227513   45.418770
   29.218701   45.415207
   29.213282   45.413435
   29.204985   45.412413
   29.193424   45.409109
   29.191700   45.408357
   29.190623   45.407072
   29.187223   45.400714
   29.184189   45.397315
   29.180951   45.395154
   29.170836   45.390472
   29.161470   45.387516
   29.152862   45.384357
   29.142208   45.381244
   29.128138   45.378266
   29.123406   45.377860
   29.119877   45.376285
   29.117182   45.374208
   29.113867   45.372546
   29.106896   45.370133
   29.101302   45.369593
   29.089497   45.370003
   29.086127   45.369410
   29.081078   45.365132
   29.077564   45.363045
   29.069003   45.360040
   29.064291   45.357236
   29.060781   45.355816
   29.055678   45.354890
   29.051862   45.354844
   29.047100   45.355264
   29.045080   45.355826
   29.042921   45.354688
   29.040383   45.352447
   29.034032   45.348828
   29.029326   45.346650
   29.012076   45.340717
   29.006988   45.337962
   29.000636   45.333290
   28.991889   45.329389
   28.984975   45.327712
   28.981368   45.327457
   28.971157   45.327748
   28.969711   45.327290
   28.967528   45.325581
   28.963014   45.320985
   28.960011   45.315613
   28.955787   45.310910
   28.955201   45.309330
   28.956153   45.306995
   28.960171   45.300389
   28.961191   45.297045
   28.960949   45.290903
   28.958372   45.284931
   28.955298   45.281306
   28.951356   45.278660
   28.947485   45.277174
   28.943630   45.276141
   28.939096   45.275808
   28.934210   45.275940
   28.929276   45.276754
   28.921001   45.279228
   28.910651   45.283846
   28.884189   45.301508
   28.879178   45.305286
   28.872815   45.310828
   28.870586   45.312233
   28.867792   45.312803
   28.860001   45.311596
   28.853828   45.311298
   28.847404   45.311825
   28.842722   45.313330
   28.838947   45.315051
   28.830532   45.320021
   28.826000   45.323479
   28.820367   45.328947
   28.818459   45.330518
   28.816855   45.331286
   28.815126   45.331758
   28.806359   45.331956
   28.798858   45.330546
   28.788568   45.325799
   28.787258   45.324857
   28.787061   45.324228
   28.788501   45.323452
   28.797973   45.320846
   28.802992   45.318973
   28.807415   45.316752
   28.810732   45.313965
   28.811680   45.312333
   28.812296   45.309017
   28.811547   45.305269
   28.808837   45.300746
   28.798515   45.290323
   28.796752   45.289251
   28.789128   45.287093
   28.783950   45.286308
   28.778353   45.286126
   28.772873   45.286606
   28.765700   45.286795
   28.762064   45.286083
   28.759685   45.284938
   28.758815   45.283919
   28.758478   45.281671
   28.758976   45.279918
   28.760260   45.277668
   28.768803   45.267071
   28.769811   45.266435
   28.774930   45.264885
   28.781735   45.264933
   28.788659   45.262734
   28.793132   45.260030
   28.797189   45.256265
   28.798065   45.254437
   28.799240   45.246390
   28.798963   45.242484
   28.796627   45.239227
   28.792115   45.235995
   28.783286   45.233310
   28.773988   45.232019
   28.764005   45.231850
   28.751434   45.230077
   28.747178   45.229078
   28.740153   45.225886
   28.732883   45.223394
   28.720807   45.220162
   28.714316   45.219115
   28.704338   45.219498
   28.693853   45.221975
   28.680744   45.227036
   28.671559   45.230987
   28.666707   45.232543
   28.661319   45.234045
   28.640657   45.238629
   28.631245   45.239852
   28.597794   45.241433
   28.577687   45.242743
   28.567277   45.243859
   28.559076   45.245818
   28.543952   45.251501
   28.536585   45.255334
   28.528941   45.258586
   28.518277   45.261429
   28.508750   45.264519
   28.492738   45.271029
   28.456827   45.282479
   28.452015   45.283828
   28.443585   45.285263
   28.402617   45.298336
   28.385713   45.303226
   28.366789   45.310215
   28.345004   45.316838
   28.336955   45.322108
   28.330021   45.328558
   28.313908   45.349806
   28.310969   45.354417
   28.308791   45.359590
   28.305677   45.363569
   28.296565   45.376839
   28.289550   45.383918
   28.285997   45.388190
   28.279223   45.398046
   28.277520   45.406977
   28.277544   45.412375
   28.277792   45.415057
   28.280340   45.426092
   28.280206   45.432462
   28.275115   45.441572
   28.267285   45.447556
   28.263861   45.449712
   28.257421   45.452325
   28.253893   45.453483
   28.249710   45.454041
   28.244028   45.455742
   28.221054   45.461548
   28.211356   45.463032
   28.209688   45.463751
   28.208403   45.464781
   28.207483   45.466474
END
END
