poltava
1
   32.080175   50.287047
   32.086040   50.289439
   32.088930   50.290999
   32.092470   50.291763
   32.096831   50.291834
   32.130358   50.306088
   32.122795   50.313998
   32.122166   50.315259
   32.122126   50.316584
   32.122986   50.318256
   32.124763   50.319586
   32.137292   50.324736
   32.144864   50.337172
   32.136756   50.347118
   32.136455   50.348460
   32.136778   50.349799
   32.137697   50.351015
   32.139127   50.352000
   32.145451   50.354125
   32.157555   50.356186
   32.217888   50.362755
   32.220510   50.362425
   32.222747   50.361476
   32.229572   50.355219
   32.230619   50.356735
   32.232929   50.358182
   32.235528   50.358832
   32.238310   50.358767
   32.240247   50.358250
   32.245019   50.355838
   32.246177   50.354649
   32.246842   50.352595
   32.247159   50.352569
   32.249279   50.356372
   32.250451   50.359964
   32.251583   50.361053
   32.253289   50.361939
   32.253051   50.363585
   32.250439   50.364493
   32.248707   50.365859
   32.248015   50.367113
   32.247881   50.368562
   32.245124   50.372188
   32.244707   50.374342
   32.245880   50.376375
   32.247793   50.377595
   32.250939   50.378316
   32.271202   50.378333
   32.271027   50.380537
   32.271396   50.381836
   32.272747   50.383356
   32.274294   50.384211
   32.277490   50.384886
   32.284856   50.384365
   32.287051   50.391720
   32.288378   50.398730
   32.289936   50.400728
   32.291526   50.401600
   32.293441   50.402128
   32.295510   50.402263
   32.298408   50.401873
   32.301466   50.404545
   32.303885   50.405506
   32.315411   50.406642
   32.309499   50.415072
   32.308873   50.416875
   32.309555   50.419723
   32.315497   50.426429
   32.317785   50.427813
   32.327463   50.430715
   32.329962   50.431137
   32.333853   50.431133
   32.335748   50.431761
   32.338117   50.432108
   32.344115   50.431671
   32.346447   50.431139
   32.365556   50.430261
   32.368257   50.429768
   32.369964   50.428959
   32.371514   50.427436
   32.374039   50.418868
   32.376340   50.417868
   32.383224   50.416058
   32.386329   50.414790
   32.394143   50.412439
   32.395605   50.414506
   32.397436   50.415859
   32.399934   50.416638
   32.402701   50.416721
   32.404688   50.416313
   32.448502   50.402652
   32.475307   50.401702
   32.480725   50.404438
   32.484032   50.404952
   32.486702   50.404581
   32.489406   50.403259
   32.491026   50.403586
   32.494297   50.403683
   32.497481   50.402881
   32.498967   50.401950
   32.500177   50.400349
   32.500402   50.399015
   32.500018   50.396974
   32.500746   50.395110
   32.500273   50.393303
   32.498144   50.391002
   32.498953   50.388541
   32.499526   50.377274
   32.498901   50.375311
   32.497925   50.374169
   32.495782   50.372854
   32.492750   50.372011
   32.492689   50.371623
   32.498480   50.369971
   32.500257   50.368635
   32.501041   50.367223
   32.513048   50.364266
   32.515467   50.363256
   32.528334   50.350765
   32.536922   50.354315
   32.538404   50.356642
   32.540879   50.358187
   32.544240   50.358772
   32.545997   50.359636
   32.548598   50.360146
   32.551300   50.359967
   32.553408   50.359265
   32.557259   50.362077
   32.561061   50.363258
   32.571841   50.363968
   32.581232   50.362762
   32.587678   50.360385
   32.626919   50.361461
   32.626170   50.365927
   32.626426   50.367222
   32.628060   50.369105
   32.630229   50.370117
   32.655035   50.372567
   32.659834   50.373534
   32.672228   50.374923
   32.674292   50.374691
   32.676156   50.374069
   32.677650   50.373113
   32.678639   50.371911
   32.679024   50.370116
   32.678298   50.362640
   32.729276   50.360514
   32.738583   50.362036
   32.742456   50.361938
   32.747733   50.363916
   32.751036   50.364113
   32.753543   50.363531
   32.755530   50.362378
   32.761229   50.357456
   32.762306   50.354911
   32.766358   50.357307
   32.768318   50.357763
   32.770398   50.357821
   32.772410   50.357475
   32.789861   50.352561
   32.791638   50.354722
   32.782695   50.358268
   32.781386   50.359300
   32.780464   50.360975
   32.780607   50.362751
   32.781759   50.364363
   32.781000   50.367416
   32.781218   50.369140
   32.782031   50.370328
   32.783511   50.371410
   32.784109   50.373006
   32.785240   50.374141
   32.788090   50.375397
   32.794578   50.375788
   32.801841   50.377470
   32.805788   50.378656
   32.807965   50.379732
   32.809867   50.380123
   32.835519   50.379705
   32.896438   50.410583
   32.898283   50.411115
   32.900286   50.411280
   32.908117   50.410722
   32.906030   50.424347
   32.906574   50.426086
   32.907641   50.427227
   32.910388   50.428529
   32.913168   50.428882
   32.913798   50.431031
   32.914892   50.432123
   32.916419   50.432966
   32.918252   50.433491
   32.925753   50.434368
   32.925942   50.437706
   32.927363   50.439597
   32.945759   50.449620
   32.948324   50.450309
   32.951099   50.450291
   32.959153   50.447572
   32.962016   50.450412
   32.960111   50.452096
   32.959354   50.454136
   32.959792   50.456219
   32.960880   50.457749
   32.961447   50.459973
   32.962896   50.461895
   32.964203   50.462844
   32.966474   50.463673
   32.969798   50.464155
   32.967617   50.467144
   32.967431   50.469011
   32.963724   50.473149
   32.963672   50.475411
   32.964861   50.477055
   32.968123   50.479365
   32.970554   50.480276
   32.973342   50.480488
   32.979005   50.479482
   32.983540   50.479104
   32.984524   50.480357
   32.985916   50.481282
   32.987654   50.481913
   32.989596   50.482196
   32.992224   50.482000
   33.006587   50.478121
   33.006098   50.480234
   33.006835   50.482444
   33.018113   50.492552
   33.015395   50.496169
   33.015140   50.498968
   33.016656   50.503926
   33.017619   50.505065
   33.019596   50.506219
   33.025987   50.507983
   33.029140   50.508338
   33.032632   50.507968
   33.035005   50.506837
   33.039076   50.506827
   33.053812   50.520215
   33.055373   50.521078
   33.057532   50.521646
   33.060945   50.523497
   33.063448   50.524187
   33.066830   50.524094
   33.069722   50.523087
   33.072055   50.523646
   33.074007   50.523697
   33.094501   50.522347
   33.100249   50.522282
   33.103964   50.521673
   33.106147   50.520846
   33.111042   50.517586
   33.116460   50.512891
   33.118667   50.511514
   33.125875   50.515845
   33.128393   50.516603
   33.131848   50.516561
   33.135637   50.515407
   33.141452   50.515721
   33.146802   50.523663
   33.148072   50.524683
   33.149738   50.525423
   33.152330   50.525869
   33.165240   50.525715
   33.168203   50.526782
   33.171005   50.527161
   33.176452   50.526721
   33.181880   50.525270
   33.183446   50.524541
   33.186506   50.521502
   33.188053   50.518861
   33.193246   50.514212
   33.196079   50.512457
   33.206670   50.512676
   33.209237   50.512065
   33.216329   50.511268
   33.219087   50.510094
   33.220646   50.512014
   33.222522   50.513274
   33.224339   50.513860
   33.227287   50.514174
   33.227459   50.515827
   33.228590   50.517811
   33.232287   50.520850
   33.235668   50.529372
   33.234882   50.530533
   33.234556   50.532195
   33.234740   50.533620
   33.235802   50.535594
   33.235138   50.537957
   33.235878   50.540208
   33.237266   50.541840
   33.241219   50.543739
   33.246763   50.545246
   33.247801   50.546767
   33.250759   50.548799
   33.254832   50.549920
   33.256896   50.551084
   33.259356   50.551695
   33.261315   50.554185
   33.263315   50.555361
   33.266528   50.555997
   33.270084   50.555500
   33.272264   50.557163
   33.275337   50.557985
   33.277342   50.557990
   33.279267   50.557622
   33.290292   50.553252
   33.291436   50.552192
   33.292072   50.550964
   33.291660   50.548019
   33.295161   50.547830
   33.298100   50.546564
   33.304823   50.539196
   33.319644   50.537333
   33.322607   50.536177
   33.323834   50.535078
   33.324505   50.533792
   33.325475   50.525100
   33.373754   50.525716
   33.376407   50.525409
   33.378169   50.524758
   33.379930   50.523431
   33.380783   50.521767
   33.381714   50.502092
   33.384848   50.502127
   33.405451   50.504312
   33.412551   50.503968
   33.417069   50.502887
   33.419337   50.501635
   33.421011   50.499284
   33.421240   50.497588
   33.420586   50.496056
   33.422588   50.495774
   33.424368   50.495129
   33.425785   50.494175
   33.426715   50.492994
   33.427067   50.491245
   33.426501   50.485664
   33.429072   50.487807
   33.431559   50.488868
   33.462959   50.497022
   33.465859   50.496952
   33.479936   50.494524
   33.482830   50.493009
   33.485910   50.490026
   33.486444   50.491452
   33.489184   50.494724
   33.492173   50.496480
   33.496137   50.497082
   33.502980   50.496867
   33.505858   50.497238
   33.508508   50.496859
   33.510732   50.495849
   33.513849   50.493272
   33.514738   50.491994
   33.519215   50.488716
   33.520669   50.486244
   33.522193   50.485776
   33.525352   50.486151
   33.528679   50.485871
   33.531869   50.487438
   33.531735   50.489754
   33.532147   50.491072
   33.533582   50.492597
   33.535812   50.493641
   33.538489   50.494041
   33.557242   50.494367
   33.559296   50.495829
   33.563264   50.497276
   33.569112   50.498993
   33.573028   50.499231
   33.575674   50.498688
   33.582504   50.495626
   33.585090   50.496685
   33.587811   50.497322
   33.591102   50.497522
   33.594163   50.496711
   33.595594   50.495806
   33.596568   50.494678
   33.615873   50.491404
   33.618115   50.490536
   33.619385   50.489563
   33.620186   50.488398
   33.620553   50.486645
   33.629094   50.484911
   33.719585   50.472062
   33.721429   50.471463
   33.722923   50.470540
   33.723934   50.469371
   33.724379   50.467909
   33.735798   50.463115
   33.779770   50.465053
   33.780647   50.466352
   33.782188   50.467508
   33.781214   50.468970
   33.780762   50.470605
   33.780583   50.478085
   33.781334   50.479775
   33.783019   50.481151
   33.784747   50.481849
   33.786711   50.482191
   33.803936   50.482402
   33.819790   50.485240
   33.818569   50.487291
   33.818443   50.488640
   33.819229   50.490361
   33.820983   50.491748
   33.836449   50.497096
   33.839058   50.497429
   33.841473   50.497144
   33.842684   50.498856
   33.841361   50.500127
   33.824135   50.503814
   33.815617   50.503028
   33.813049   50.503538
   33.811425   50.504319
   33.810215   50.505371
   33.806928   50.510379
   33.804827   50.514988
   33.804905   50.516301
   33.805558   50.517543
   33.806733   50.518611
   33.808354   50.519443
   33.815108   50.522129
   33.818923   50.523134
   33.822801   50.522860
   33.824653   50.522212
   33.826128   50.521228
   33.831980   50.522503
   33.832301   50.524255
   33.833053   50.525497
   33.834329   50.526542
   33.836019   50.527299
   33.854711   50.531847
   33.872302   50.536951
   33.876502   50.537792
   33.878562   50.537869
   33.881190   50.537359
   33.883065   50.536403
   33.892557   50.538085
   33.895845   50.537550
   33.897945   50.536424
   33.903124   50.528729
   33.903628   50.526727
   33.908525   50.524421
   33.911250   50.521541
   33.913806   50.520106
   33.914598   50.520852
   33.914474   50.523947
   33.915686   50.525553
   33.918379   50.526930
   33.920373   50.527286
   33.922244   50.527261
   33.949541   50.550321
   33.951568   50.551477
   33.953451   50.551963
   33.956144   50.552027
   33.959231   50.551171
   34.013047   50.524737
   34.015136   50.523070
   34.015802   50.521161
   34.022222   50.517761
   34.023166   50.516596
   34.023945   50.514627
   34.025267   50.513594
   34.026120   50.512171
   34.033802   50.509470
   34.037412   50.509471
   34.041648   50.511810
   34.046832   50.513646
   34.047745   50.515094
   34.049630   50.516447
   34.057348   50.519412
   34.060639   50.520247
   34.065901   50.520655
   34.070391   50.520414
   34.073450   50.519789
   34.075202   50.519026
   34.076968   50.517565
   34.083973   50.515384
   34.090424   50.514308
   34.092907   50.513050
   34.095527   50.512467
   34.101834   50.509529
   34.106663   50.508208
   34.108202   50.507336
   34.109285   50.506211
   34.109820   50.504930
   34.109760   50.503602
   34.100910   50.488642
   34.098751   50.486750
   34.099849   50.486063
   34.102742   50.486540
   34.104862   50.486547
   34.106180   50.489112
   34.110692   50.494960
   34.113262   50.510858
   34.114597   50.512795
   34.116560   50.513921
   34.138609   50.517760
   34.148533   50.522915
   34.149818   50.524196
   34.151442   50.525042
   34.153824   50.525588
   34.156360   50.526661
   34.172905   50.529561
   34.189732   50.529323
   34.195639   50.528000
   34.201788   50.528535
   34.215686   50.537203
   34.218871   50.537949
   34.222220   50.537628
   34.224480   50.536644
   34.231335   50.531229
   34.243471   50.528273
   34.247616   50.528350
   34.250579   50.527354
   34.252487   50.525574
   34.254109   50.521843
   34.255796   50.519641
   34.261980   50.490229
   34.259100   50.472487
   34.256600   50.459681
   34.255943   50.458267
   34.256191   50.454743
   34.257215   50.452789
   34.258636   50.443356
   34.261435   50.441976
   34.264700   50.438708
   34.265316   50.437569
   34.267710   50.436198
   34.270767   50.436796
   34.272838   50.436777
   34.274809   50.436361
   34.276981   50.435259
   34.282011   50.428659
   34.284533   50.424185
   34.286630   50.422881
   34.293786   50.415510
   34.314246   50.406223
   34.334111   50.398130
   34.341630   50.395249
   34.346904   50.393685
   34.366742   50.381566
   34.370434   50.381827
   34.373592   50.380919
   34.379374   50.376479
   34.380423   50.374883
   34.394248   50.371008
   34.396387   50.369863
   34.397442   50.368694
   34.397917   50.367374
   34.397331   50.365162
   34.395718   50.363697
   34.388156   50.359133
   34.388932   50.358048
   34.390969   50.356845
   34.391947   50.355623
   34.392598   50.353488
   34.391937   50.351447
   34.396141   50.348029
   34.414361   50.340847
   34.416919   50.338175
   34.417840   50.335975
   34.417684   50.334274
   34.415265   50.329816
   34.408100   50.319679
   34.445821   50.298313
   34.457301   50.292297
   34.460613   50.293111
   34.463404   50.293232
   34.508609   50.289208
   34.510776   50.288771
   34.524168   50.284310
   34.526268   50.282535
   34.526803   50.280322
   34.525641   50.278214
   34.521544   50.275161
   34.522098   50.273301
   34.521386   50.270826
   34.523633   50.268792
   34.526641   50.264800
   34.528860   50.262584
   34.529139   50.260828
   34.528612   50.259483
   34.529646   50.258516
   34.530445   50.257027
   34.530261   50.254802
   34.532837   50.255024
   34.534853   50.254826
   34.537241   50.253991
   34.538986   50.252583
   34.546573   50.251306
   34.548681   50.250225
   34.549917   50.248851
   34.555799   50.246418
   34.561556   50.241776
   34.563903   50.240738
   34.566306   50.240135
   34.567857   50.239280
   34.576929   50.229264
   34.577771   50.227742
   34.577774   50.225246
   34.575861   50.222707
   34.569362   50.208236
   34.566118   50.203827
   34.564415   50.202497
   34.562769   50.201801
   34.560239   50.201388
   34.557159   50.201444
   34.531044   50.176711
   34.531266   50.176250
   34.535923   50.175860
   34.537803   50.175396
   34.539846   50.174272
   34.540863   50.173143
   34.541341   50.171871
   34.541239   50.170564
   34.535847   50.158836
   34.540159   50.158516
   34.542423   50.157551
   34.543652   50.156495
   34.544465   50.154815
   34.545312   50.145068
   34.549806   50.144317
   34.551419   50.143569
   34.552642   50.142555
   34.553562   50.140504
   34.553289   50.136512
   34.573053   50.127901
   34.573292   50.129434
   34.574701   50.131302
   34.576204   50.132220
   34.578721   50.132925
   34.581572   50.132958
   34.585670   50.132335
   34.595374   50.131658
   34.598366   50.130429
   34.599849   50.129099
   34.601941   50.127973
   34.603244   50.126623
   34.605623   50.125538
   34.608441   50.125613
   34.610372   50.125345
   34.613232   50.124296
   34.614996   50.123056
   34.618157   50.122280
   34.623405   50.122220
   34.626963   50.121522
   34.628584   50.120801
   34.634025   50.116913
   34.636707   50.118277
   34.640735   50.119240
   34.644084   50.119109
   34.648165   50.117924
   34.650261   50.118886
   34.653172   50.119401
   34.656149   50.119295
   34.658305   50.118832
   34.660276   50.119830
   34.660247   50.121132
   34.660989   50.122855
   34.661994   50.124127
   34.663384   50.125064
   34.664447   50.128351
   34.665977   50.130144
   34.665042   50.131459
   34.664793   50.132785
   34.665150   50.134102
   34.666083   50.135292
   34.668676   50.136724
   34.674383   50.138136
   34.676409   50.138415
   34.678472   50.138292
   34.680387   50.137779
   34.681986   50.136922
   34.683846   50.135043
   34.686365   50.133635
   34.687370   50.132453
   34.687797   50.130678
   34.687249   50.128677
   34.685121   50.126251
   34.682313   50.124349
   34.682111   50.122997
   34.682761   50.120271
   34.685782   50.118042
   34.687147   50.115334
   34.690307   50.114968
   34.691129   50.120705
   34.689467   50.121456
   34.688202   50.122497
   34.687455   50.123733
   34.687291   50.125056
   34.690505   50.131070
   34.695380   50.134545
   34.694151   50.136655
   34.692439   50.146887
   34.692583   50.149661
   34.693751   50.151849
   34.696029   50.153606
   34.697732   50.154429
   34.701588   50.155098
   34.707889   50.157155
   34.711350   50.157285
   34.715269   50.155987
   34.716644   50.157894
   34.721183   50.161378
   34.733032   50.164760
   34.736273   50.164711
   34.751287   50.162126
   34.753124   50.161617
   34.754663   50.160788
   34.756035   50.159309
   34.756455   50.157602
   34.755338   50.151862
   34.754419   50.150010
   34.760046   50.150748
   34.761795   50.151625
   34.779065   50.157593
   34.791352   50.158586
   34.791264   50.160259
   34.792181   50.161903
   34.793987   50.163198
   34.796413   50.163950
   34.805904   50.164883
   34.822514   50.164694
   34.830498   50.162692
   34.832998   50.161390
   34.837620   50.163174
   34.841421   50.168053
   34.842706   50.169038
   34.844367   50.169746
   34.846927   50.170163
   34.848903   50.170048
   34.850750   50.169575
   34.856824   50.166812
   34.903674   50.163387
   34.942188   50.156545
   34.944033   50.156020
   34.945991   50.154831
   34.947112   50.153247
   34.947229   50.151506
   34.944277   50.143813
   34.939859   50.134301
   34.941196   50.126798
   34.942157   50.110927
   34.943620   50.100783
   34.949232   50.101224
   34.952455   50.100779
   34.954576   50.099750
   34.956119   50.097943
   34.959684   50.097076
   34.961671   50.095795
   34.962722   50.094109
   34.963782   50.085934
   34.966725   50.084680
   34.968613   50.082897
   34.970135   50.077573
   34.971638   50.075703
   34.971607   50.073439
   34.970149   50.071558
   34.968539   50.070407
   34.944021   50.059024
   34.941941   50.054697
   34.939880   50.051799
   34.920901   50.038673
   34.918566   50.036359
   34.907906   50.029368
   34.896932   50.015832
   34.886461   50.003697
   34.869020   49.988427
   34.864010   49.985595
   34.872798   49.961538
   34.874458   49.960935
   34.875886   49.959984
   34.877143   49.957940
   34.877117   49.956610
   34.876123   49.953735
   34.874583   49.952366
   34.872914   49.951619
   34.876471   49.948907
   34.880231   49.948300
   34.882394   49.947362
   34.895617   49.937193
   34.911436   49.939743
   34.914736   49.939544
   34.917037   49.938675
   34.918668   49.937307
   34.924384   49.929980
   34.942250   49.908851
   34.945062   49.906127
   34.950302   49.901693
   34.962217   49.894368
   34.970292   49.890692
   34.977528   49.893910
   34.980167   49.894299
   34.982835   49.894002
   34.986335   49.892320
   34.991325   49.890587
   35.002124   49.885547
   35.013638   49.881390
   35.029002   49.890632
   35.031845   49.891684
   35.034460   49.891836
   35.065753   49.889693
   35.068586   49.888613
   35.070340   49.886807
   35.070699   49.885538
   35.070310   49.881054
   35.069396   49.879413
   35.067596   49.878119
   35.065820   49.877495
   35.062201   49.876866
   35.062959   49.874062
   35.062843   49.872766
   35.061823   49.871172
   35.060038   49.869981
   35.062345   49.868980
   35.069409   49.864887
   35.071182   49.862713
   35.073185   49.862605
   35.080912   49.864177
   35.084752   49.864544
   35.096030   49.863587
   35.108290   49.861750
   35.119980   49.856502
   35.127246   49.858854
   35.136846   49.863707
   35.139369   49.864196
   35.141991   49.864040
   35.167780   49.857322
   35.170019   49.855834
   35.173016   49.851347
   35.203093   49.843937
   35.204624   49.843109
   35.205732   49.842032
   35.206369   49.839609
   35.216263   49.836902
   35.224257   49.832870
   35.226048   49.830912
   35.226478   49.828321
   35.226005   49.826732
   35.222417   49.820602
   35.222928   49.814366
   35.223574   49.813076
   35.228306   49.809185
   35.228990   49.807959
   35.229110   49.806657
   35.228046   49.804611
   35.224919   49.801462
   35.223328   49.800511
   35.214555   49.798694
   35.212510   49.798656
   35.210209   49.799113
   35.209997   49.798905
   35.210841   49.797056
   35.210509   49.795322
   35.216679   49.792076
   35.218035   49.790546
   35.218400   49.789239
   35.217956   49.787496
   35.213590   49.781698
   35.214395   49.780060
   35.214407   49.778465
   35.216308   49.775276
   35.217862   49.774278
   35.218816   49.773110
   35.219143   49.770930
   35.216156   49.766355
   35.215273   49.764031
   35.212894   49.761743
   35.212269   49.758081
   35.215238   49.755948
   35.216222   49.754757
   35.216622   49.753430
   35.216502   49.751638
   35.218062   49.749385
   35.218058   49.748027
   35.217524   49.746866
   35.226458   49.740955
   35.232730   49.740715
   35.261121   49.737808
   35.263641   49.736994
   35.265765   49.735182
   35.271241   49.717462
   35.271237   49.715711
   35.270557   49.714470
   35.269357   49.713409
   35.267144   49.712432
   35.265489   49.710859
   35.263132   49.709909
   35.263242   49.708139
   35.262362   49.706299
   35.256758   49.700783
   35.252975   49.695881
   35.260068   49.692779
   35.268210   49.690409
   35.269889   49.689542
   35.271394   49.689503
   35.273452   49.690408
   35.275371   49.690752
   35.285390   49.690399
   35.300252   49.691438
   35.321202   49.688575
   35.332856   49.686190
   35.334561   49.685518
   35.336550   49.684039
   35.345075   49.673198
   35.348196   49.669902
   35.384496   49.671783
   35.386367   49.673174
   35.388776   49.673931
   35.395774   49.674662
   35.420359   49.675598
   35.421016   49.675679
   35.423712   49.677227
   35.426342   49.677686
   35.434290   49.677933
   35.436257   49.677564
   35.438464   49.676527
   35.439621   49.675428
   35.440235   49.674157
   35.441102   49.665146
   35.440125   49.663526
   35.438280   49.662266
   35.431612   49.660602
   35.432226   49.657939
   35.447176   49.646267
   35.450449   49.642859
   35.452062   49.640098
   35.458739   49.632284
   35.471087   49.604772
   35.492040   49.573838
   35.492581   49.572552
   35.492523   49.571219
   35.491870   49.569955
   35.490679   49.568870
   35.482218   49.565588
   35.481734   49.564149
   35.480694   49.562996
   35.479183   49.562091
   35.477331   49.561514
   35.412176   49.556953
   35.429297   49.553842
   35.431039   49.553206
   35.432797   49.551911
   35.433551   49.550707
   35.433748   49.549413
   35.432772   49.544812
   35.435649   49.544362
   35.438008   49.543484
   35.439669   49.542084
   35.440299   49.540819
   35.440215   49.539051
   35.437003   49.530040
   35.441274   49.529375
   35.452022   49.526914
   35.454326   49.525883
   35.486871   49.520779
   35.489210   49.519887
   35.490520   49.518869
   35.492786   49.515123
   35.497008   49.510068
   35.497746   49.507798
   35.495787   49.500961
   35.491268   49.489749
   35.487773   49.482418
   35.486782   49.481288
   35.485337   49.480388
   35.482260   49.479591
   35.479605   49.479686
   35.467872   49.481613
   35.466487   49.480402
   35.464781   49.479627
   35.462799   49.479215
   35.460719   49.479203
   35.336359   49.499507
   35.335777   49.498298
   35.337711   49.496474
   35.338066   49.494220
   35.328909   49.470975
   35.327823   49.469283
   35.324102   49.458807
   35.349127   49.454857
   35.350943   49.454236
   35.356655   49.450936
   35.359887   49.450751
   35.362286   49.451373
   35.365043   49.451431
   35.367618   49.450787
   35.369970   49.449157
   35.370690   49.447891
   35.370804   49.446542
   35.367771   49.436424
   35.360754   49.417939
   35.358744   49.414179
   35.356243   49.407656
   35.378970   49.402067
   35.380535   49.401208
   35.381648   49.400089
   35.382211   49.398808
   35.382176   49.397475
   35.378353   49.392144
   35.350502   49.366994
   35.344217   49.362283
   35.342923   49.360856
   35.322099   49.344210
   35.311608   49.336464
   35.286808   49.317110
   35.293334   49.301736
   35.295039   49.297141
   35.295030   49.295811
   35.293719   49.293780
   35.287485   49.288990
   35.286320   49.287000
   35.284195   49.285688
   35.282269   49.281940
   35.279866   49.280137
   35.277906   49.275142
   35.276762   49.274052
   35.275183   49.273224
   35.271963   49.272603
   35.269297   49.272868
   35.253917   49.278892
   35.252065   49.280656
   35.251618   49.282346
   35.251941   49.283619
   35.254147   49.287050
   35.239574   49.292612
   35.221114   49.293693
   35.219000   49.291965
   35.217249   49.291333
   35.215293   49.291053
   35.170559   49.291255
   35.124077   49.298187
   35.116190   49.297642
   35.108882   49.295664
   35.106257   49.295798
   35.104078   49.296461
   35.097897   49.296213
   35.095279   49.296909
   35.092303   49.296139
   35.089037   49.296318
   35.083711   49.298059
   35.076709   49.302971
   35.070856   49.310129
   35.069643   49.315294
   35.037510   49.326422
   35.029472   49.322361
   35.028246   49.320624
   35.029650   49.319638
   35.030545   49.318432
   35.030858   49.317108
   35.030331   49.315361
   35.022071   49.305774
   35.022119   49.304551
   35.021579   49.303249
   35.016902   49.297841
   35.014434   49.296423
   35.010732   49.295918
   34.987461   49.249732
   35.024757   49.151486
   35.024668   49.149762
   35.023594   49.148186
   35.022231   49.147239
   35.018869   49.145826
   35.016516   49.145100
   35.011773   49.144383
   35.009058   49.144648
   35.006280   49.145792
   35.004450   49.147473
   35.003881   49.149060
   35.001688   49.150415
   34.999748   49.152582
   34.999452   49.154896
   34.999917   49.157826
   34.993700   49.163140
   34.989272   49.162643
   34.987202   49.162875
   34.985332   49.163498
   34.983110   49.165240
   34.980819   49.169405
   34.978212   49.170660
   34.974229   49.174416
   34.971199   49.176584
   34.970138   49.177916
   34.966364   49.177511
   34.961985   49.178361
   34.959201   49.179753
   34.957402   49.181384
   34.954320   49.182185
   34.948242   49.185335
   34.941851   49.178450
   34.939985   49.177129
   34.938144   49.176508
   34.935410   49.176278
   34.932753   49.176758
   34.930747   49.177765
   34.929234   49.174839
   34.929029   49.169738
   34.928077   49.164887
   34.927701   49.157230
   34.925078   49.152943
   34.923579   49.152011
   34.921724   49.151409
   34.917720   49.151021
   34.914937   49.149987
   34.911110   49.149691
   34.908331   49.148278
   34.906069   49.146114
   34.902788   49.144899
   34.900047   49.144497
   34.896816   49.144839
   34.888996   49.147973
   34.886326   49.148537
   34.884532   49.149261
   34.882812   49.150705
   34.881924   49.152642
   34.866033   49.156583
   34.863838   49.157705
   34.862737   49.158868
   34.862232   49.161127
   34.861089   49.162268
   34.860285   49.164254
   34.860368   49.165678
   34.861677   49.168991
   34.862998   49.170735
   34.864323   49.171768
   34.867617   49.173323
   34.875242   49.175860
   34.874699   49.176450
   34.864295   49.177736
   34.855976   49.179870
   34.851736   49.182484
   34.849661   49.186295
   34.845239   49.185830
   34.841831   49.185974
   34.839729   49.185456
   34.832006   49.184464
   34.833166   49.183243
   34.834016   49.180855
   34.833858   49.179026
   34.833022   49.177572
   34.833831   49.176307
   34.834010   49.174839
   34.833028   49.172715
   34.830195   49.170945
   34.824727   49.169224
   34.822224   49.168804
   34.821203   49.166649
   34.818568   49.164406
   34.815487   49.162862
   34.812983   49.162144
   34.810794   49.161858
   34.806578   49.161946
   34.804728   49.162453
   34.802307   49.163627
   34.799441   49.166458
   34.798605   49.170091
   34.796550   49.172121
   34.792589   49.171320
   34.786738   49.171831
   34.784894   49.172250
   34.781562   49.171852
   34.780711   49.170379
   34.778235   49.167920
   34.773729   49.166234
   34.771362   49.165723
   34.769774   49.163921
   34.766557   49.162664
   34.767126   49.160652
   34.769098   49.159928
   34.770499   49.159000
   34.772192   49.156432
   34.772295   49.150949
   34.771039   49.148354
   34.769204   49.146794
   34.764133   49.143966
   34.760682   49.142900
   34.757185   49.142349
   34.757012   49.140720
   34.756088   49.138996
   34.754872   49.137915
   34.752301   49.136627
   34.750260   49.136175
   34.746855   49.136177
   34.745027   49.136616
   34.741661   49.138184
   34.735851   49.133965
   34.732835   49.132491
   34.728868   49.131497
   34.723017   49.131962
   34.718460   49.129271
   34.711321   49.126464
   34.707838   49.125479
   34.699457   49.125206
   34.696320   49.125938
   34.693893   49.127169
   34.691537   49.126173
   34.688178   49.125540
   34.689604   49.122165
   34.689296   49.120355
   34.687426   49.118442
   34.684966   49.117375
   34.683244   49.116992
   34.663855   49.114666
   34.660272   49.115141
   34.658454   49.115704
   34.654235   49.118580
   34.651140   49.118526
   34.647964   49.119350
   34.646029   49.120647
   34.644963   49.122587
   34.642633   49.122215
   34.639945   49.120578
   34.637602   49.119966
   34.634232   49.119799
   34.631083   49.120414
   34.629704   49.120141
   34.627620   49.118956
   34.625594   49.117171
   34.615452   49.113072
   34.614569   49.110649
   34.612324   49.108890
   34.603314   49.104969
   34.600778   49.104514
   34.598536   49.104641
   34.597177   49.102428
   34.597402   49.100632
   34.599401   49.099741
   34.600606   49.098703
   34.601948   49.096191
   34.602090   49.094899
   34.601018   49.092032
   34.597576   49.088965
   34.595215   49.087962
   34.590944   49.087510
   34.586683   49.088233
   34.583721   49.089685
   34.580278   49.090137
   34.578347   49.087748
   34.579194   49.085725
   34.578627   49.083320
   34.576885   49.081293
   34.574555   49.080019
   34.575566   49.078108
   34.575340   49.076363
   34.574113   49.074805
   34.572370   49.073790
   34.577464   49.069685
   34.578015   49.068396
   34.577977   49.067131
   34.579987   49.065449
   34.580703   49.064201
   34.580579   49.061996
   34.578866   49.060091
   34.568544   49.054448
   34.566768   49.053745
   34.564945   49.053434
   34.562685   49.051950
   34.560280   49.051090
   34.557552   49.050903
   34.554922   49.051420
   34.544463   49.049657
   34.542432   49.049738
   34.540525   49.050198
   34.538904   49.050998
   34.534423   49.054591
   34.527182   49.058425
   34.515587   49.065665
   34.512169   49.064167
   34.507600   49.059819
   34.503270   49.057648
   34.500653   49.057005
   34.497858   49.057086
   34.495919   49.057619
   34.476610   49.067196
   34.471190   49.061777
   34.469781   49.060838
   34.466715   49.059975
   34.463385   49.060142
   34.457590   49.062243
   34.412530   49.084743
   34.413050   49.081979
   34.414523   49.078317
   34.414081   49.076657
   34.412696   49.075021
   34.416526   49.071044
   34.418372   49.065197
   34.422620   49.055648
   34.422579   49.053858
   34.421844   49.052599
   34.420571   49.051537
   34.418241   49.050586
   34.400199   49.047426
   34.402263   49.044403
   34.402410   49.042657
   34.401160   49.040636
   34.398784   49.039175
   34.369648   49.031075
   34.370795   49.029009
   34.370435   49.026810
   34.369007   49.025297
   34.359910   49.019867
   34.360465   49.016302
   34.359968   49.014945
   34.358860   49.013751
   34.356890   49.012562
   34.354913   49.012009
   34.346911   49.011688
   34.337738   49.006016
   34.334708   49.001192
   34.342884   48.998780
   34.346753   48.997191
   34.349736   48.996402
   34.351224   48.995537
   34.352274   48.994432
   34.352797   48.993179
   34.352752   48.991880
   34.351859   48.990094
   34.358750   48.986450
   34.359884   48.984830
   34.359970   48.983051
   34.358996   48.981388
   34.346653   48.968644
   34.346134   48.967305
   34.344608   48.965459
   34.337761   48.958372
   34.333539   48.954730
   34.318639   48.938959
   34.307631   48.897537
   34.316145   48.892917
   34.317820   48.891579
   34.318500   48.890358
   34.318531   48.888632
   34.317896   48.887402
   34.316248   48.885885
   34.341306   48.875264
   34.343277   48.874001
   34.344168   48.872777
   34.344462   48.871436
   34.343449   48.860755
   34.351200   48.860791
   34.353669   48.860189
   34.355616   48.859031
   34.356899   48.857062
   34.357529   48.849551
   34.356794   48.846305
   34.355274   48.843750
   34.351791   48.840729
   34.347929   48.838574
   34.341496   48.836489
   34.338847   48.836045
   34.334724   48.836357
   34.332863   48.837028
   34.331413   48.838025
   34.330770   48.833610
   34.333382   48.832687
   34.335603   48.832534
   34.337901   48.831824
   34.341851   48.832863
   34.345197   48.832681
   34.348022   48.831499
   34.349455   48.830013
   34.350773   48.826241
   34.350574   48.824193
   34.349377   48.822677
   34.346482   48.821076
   34.344651   48.818269
   34.343397   48.817186
   34.341072   48.816207
   34.339040   48.815908
   34.316941   48.816578
   34.304222   48.816340
   34.304906   48.789384
   34.310871   48.789430
   34.318695   48.795814
   34.321653   48.796800
   34.324976   48.796778
   34.327385   48.796032
   34.346987   48.786552
   34.348624   48.785099
   34.349245   48.782891
   34.348507   48.781155
   34.346277   48.779030
   34.344092   48.777910
   34.341303   48.777047
   34.337716   48.774095
   34.330039   48.770984
   34.330007   48.769208
   34.329086   48.767591
   34.328039   48.766480
   34.325421   48.764765
   34.322288   48.763417
   34.319510   48.762802
   34.316777   48.762589
   34.317306   48.761888
   34.320007   48.761166
   34.321592   48.760266
   34.322691   48.759098
   34.323386   48.757127
   34.323129   48.754768
   34.320589   48.750533
   34.321394   48.748815
   34.321259   48.746624
   34.320186   48.744811
   34.318815   48.743728
   34.321189   48.740595
   34.321044   48.738098
   34.320146   48.736663
   34.317523   48.734472
   34.314634   48.732856
   34.311682   48.732139
   34.313248   48.730206
   34.313720   48.727919
   34.312831   48.725751
   34.311688   48.724470
   34.309443   48.723148
   34.307406   48.722552
   34.305183   48.722271
   34.302960   48.722361
   34.300263   48.720339
   34.296960   48.719143
   34.294179   48.718879
   34.290699   48.719424
   34.288523   48.720520
   34.286794   48.722247
   34.286259   48.723598
   34.286295   48.727204
   34.289495   48.736513
   34.283613   48.739574
   34.276448   48.740562
   34.260110   48.738480
   34.246791   48.740211
   34.244735   48.740925
   34.241719   48.742537
   34.233534   48.749620
   34.229114   48.752534
   34.227955   48.752926
   34.221423   48.754726
   34.218562   48.755052
   34.201276   48.755499
   34.198100   48.756341
   34.191287   48.760722
   34.186313   48.766035
   34.184292   48.767495
   34.173716   48.773203
   34.171745   48.773423
   34.157720   48.770780
   34.148734   48.770652
   34.138118   48.773716
   34.127592   48.778101
   34.121803   48.781234
   34.120111   48.782635
   34.117075   48.786404
   34.114897   48.791440
   34.114627   48.793417
   34.115281   48.800628
   34.117420   48.807363
   34.119843   48.812647
   34.118706   48.816238
   34.116694   48.818242
   34.109981   48.820625
   34.106075   48.821239
   34.095965   48.820591
   34.088409   48.818940
   34.081447   48.818376
   34.077318   48.818663
   34.074098   48.819251
   34.068436   48.821175
   34.059100   48.826417
   34.052302   48.832139
   34.050845   48.832727
   34.043842   48.834108
   34.038426   48.836116
   34.029277   48.841044
   34.025298   48.847109
   34.024219   48.856261
   34.017430   48.861045
   34.014980   48.861786
   34.009952   48.862463
   34.002434   48.862262
   33.996594   48.861072
   33.989716   48.860504
   33.980235   48.861338
   33.945371   48.873991
   33.936611   48.874251
   33.922759   48.876321
   33.915714   48.879796
   33.897106   48.891683
   33.889102   48.898910
   33.885757   48.900843
   33.881990   48.902132
   33.869152   48.904877
   33.859753   48.909047
   33.855840   48.911107
   33.843924   48.918571
   33.833038   48.926757
   33.826353   48.929601
   33.816442   48.932816
   33.809705   48.934192
   33.801839   48.935202
   33.799397   48.935274
   33.793586   48.934499
   33.788650   48.934671
   33.783601   48.935293
   33.778621   48.936279
   33.761699   48.941212
   33.758038   48.940814
   33.742159   48.937379
   33.736635   48.936592
   33.726609   48.936486
   33.718487   48.935629
   33.710608   48.937039
   33.703102   48.940149
   33.696003   48.941314
   33.693233   48.942355
   33.690690   48.944000
   33.687427   48.947493
   33.675939   48.953771
   33.674464   48.954939
   33.663573   48.968559
   33.660249   48.973622
   33.649097   48.972779
   33.643133   48.971018
   33.642679   48.966192
   33.640653   48.960263
   33.639331   48.958723
   33.636606   48.957253
   33.626755   48.954284
   33.624759   48.953155
   33.624281   48.951783
   33.623275   48.950657
   33.619515   48.948088
   33.616688   48.946932
   33.613158   48.946796
   33.610072   48.943373
   33.613318   48.942044
   33.615139   48.940685
   33.616000   48.938970
   33.615763   48.937173
   33.612268   48.932709
   33.594950   48.914191
   33.593485   48.913223
   33.591645   48.912582
   33.582045   48.911644
   33.582010   48.910275
   33.581046   48.908630
   33.579190   48.907349
   33.577378   48.906747
   33.574020   48.906572
   33.556272   48.908492
   33.552313   48.907854
   33.550362   48.907849
   33.546022   48.908261
   33.544088   48.908775
   33.542477   48.909641
   33.541076   48.911202
   33.540125   48.915348
   33.536560   48.916104
   33.534253   48.917788
   33.531673   48.926180
   33.513956   48.924305
   33.503891   48.922917
   33.503238   48.921670
   33.502052   48.920593
   33.499828   48.919590
   33.497141   48.919121
   33.494388   48.916456
   33.489313   48.912665
   33.487727   48.911923
   33.484329   48.911318
   33.479889   48.911549
   33.478143   48.910712
   33.475589   48.910229
   33.472914   48.910304
   33.471014   48.910751
   33.469391   48.911535
   33.468184   48.912589
   33.467253   48.915098
   33.470732   48.932630
   33.467397   48.934719
   33.466032   48.937070
   33.468242   48.948291
   33.437391   48.951586
   33.436456   48.949932
   33.434575   48.948617
   33.428670   48.947167
   33.424224   48.944668
   33.420880   48.944249
   33.416328   48.945258
   33.410564   48.948491
   33.409339   48.949765
   33.408704   48.951099
   33.409043   48.953456
   33.406322   48.951072
   33.408016   48.926968
   33.406546   48.924954
   33.404406   48.923830
   33.401073   48.923320
   33.397764   48.923815
   33.393832   48.925317
   33.388342   48.926772
   33.355666   48.941935
   33.349372   48.944552
   33.347950   48.945529
   33.345647   48.947938
   33.337499   48.944567
   33.334948   48.943927
   33.332893   48.943898
   33.330914   48.944261
   33.329186   48.944986
   33.327549   48.946334
   33.320929   48.944573
   33.318845   48.944519
   33.316205   48.945074
   33.314562   48.945910
   33.313374   48.947027
   33.310248   48.952456
   33.307183   48.956531
   33.306677   48.958705
   33.307167   48.959994
   33.308210   48.961135
   33.310302   48.962259
   33.315875   48.963796
   33.305095   48.980231
   33.304935   48.983253
   33.291518   49.002744
   33.291282   49.004933
   33.292474   49.006767
   33.290929   49.009148
   33.290630   49.010935
   33.291424   49.012657
   33.293186   49.014041
   33.294979   49.014723
   33.303377   49.016663
   33.307610   49.020305
   33.314952   49.023510
   33.318023   49.024503
   33.321047   49.026199
   33.321300   49.032257
   33.319073   49.034721
   33.317559   49.037618
   33.312603   49.038780
   33.310755   49.040086
   33.309959   49.041317
   33.309664   49.043902
   33.310096   49.046200
   33.310646   49.047467
   33.311980   49.048745
   33.311156   49.049905
   33.310898   49.051603
   33.309821   49.053859
   33.310305   49.057966
   33.307074   49.058768
   33.305098   49.059860
   33.290319   49.071785
   33.283421   49.079176
   33.276937   49.078910
   33.273781   49.079678
   33.271550   49.081322
   33.270777   49.083864
   33.267303   49.084815
   33.262657   49.087262
   33.258389   49.088054
   33.256808   49.088927
   33.255443   49.090485
   33.255206   49.092713
   33.256710   49.096123
   33.257709   49.097254
   33.259728   49.098388
   33.261595   49.098864
   33.264424   49.098999
   33.274274   49.102261
   33.276937   49.102259
   33.279619   49.101662
   33.281794   49.102159
   33.284407   49.102120
   33.294676   49.115818
   33.287600   49.117520
   33.281647   49.120132
   33.279366   49.121555
   33.269910   49.129737
   33.267440   49.129610
   33.265504   49.129928
   33.263786   49.130592
   33.262430   49.131546
   33.261371   49.133132
   33.261115   49.136386
   33.260255   49.137999
   33.259788   49.143549
   33.255860   49.150406
   33.252430   49.152612
   33.254339   49.148599
   33.254940   49.146184
   33.254999   49.090457
   33.255617   49.085863
   33.255221   49.084424
   33.251203   49.077087
   33.249561   49.075648
   33.247190   49.074737
   33.239981   49.074464
   33.236828   49.075373
   33.231272   49.078736
   33.229920   49.075447
   33.227826   49.073957
   33.225935   49.073190
   33.215658   49.071856
   33.212760   49.070182
   33.205749   49.068401
   33.203562   49.068372
   33.197544   49.069341
   33.195751   49.069960
   33.194309   49.070889
   33.190122   49.076359
   33.186919   49.077527
   33.184658   49.079039
   33.183634   49.080176
   33.183166   49.082338
   33.184033   49.084386
   33.185116   49.085540
   33.188946   49.087999
   33.182787   49.092640
   33.167214   49.090356
   33.161557   49.090524
   33.157778   49.091440
   33.153840   49.093289
   33.149912   49.096490
   33.149143   49.097719
   33.148248   49.100778
   33.150592   49.108931
   33.150409   49.111898
   33.149878   49.113172
   33.144363   49.120368
   33.143898   49.122085
   33.144263   49.124128
   33.145275   49.125690
   33.150708   49.129408
   33.149963   49.130595
   33.143156   49.136202
   33.137395   49.141943
   33.126657   49.154727
   33.124775   49.156357
   33.117128   49.160091
   33.114017   49.163183
   33.112293   49.166867
   33.111973   49.172291
   33.112335   49.173613
   33.100054   49.180362
   33.090780   49.179395
   33.069755   49.183332
   33.062644   49.181702
   33.056539   49.180760
   33.050124   49.180586
   33.042905   49.182457
   33.036369   49.180993
   33.031227   49.181393
   33.028944   49.182127
   33.023024   49.185214
   33.019445   49.188320
   33.016746   49.193551
   33.015605   49.194720
   33.008995   49.198587
   33.005879   49.198878
   33.003155   49.198739
   32.996571   49.197706
   32.993258   49.198181
   32.991104   49.198910
   32.983642   49.202833
   32.977930   49.207497
   32.976277   49.210694
   32.975359   49.215272
   32.975527   49.216755
   32.977479   49.221856
   32.981198   49.226763
   32.981385   49.230136
   32.980553   49.233537
   32.979236   49.235976
   32.974521   49.236502
   32.970507   49.236413
   32.963342   49.234908
   32.958024   49.232054
   32.946435   49.228141
   32.942537   49.227601
   32.940933   49.226373
   32.939201   49.225644
   32.936529   49.225243
   32.928619   49.225116
   32.901776   49.227603
   32.891143   49.227485
   32.888583   49.227773
   32.878379   49.230364
   32.869864   49.236543
   32.863410   49.238739
   32.855988   49.240677
   32.852272   49.242415
   32.845841   49.244718
   32.839102   49.243017
   32.831823   49.242077
   32.824869   49.242925
   32.818853   49.244293
   32.816359   49.244288
   32.815501   49.244129
   32.811569   49.239959
   32.801976   49.235410
   32.796360   49.233997
   32.790946   49.233265
   32.785963   49.232948
   32.777919   49.232994
   32.769299   49.229199
   32.763950   49.228339
   32.758815   49.228869
   32.754152   49.230879
   32.750876   49.234673
   32.750314   49.237688
   32.750470   49.239165
   32.746155   49.239654
   32.742665   49.240825
   32.740262   49.242353
   32.734780   49.247383
   32.731690   49.249010
   32.722946   49.249104
   32.719052   49.249562
   32.717072   49.250173
   32.711987   49.252964
   32.693213   49.251308
   32.689206   49.250660
   32.685210   49.250645
   32.681100   49.251191
   32.677948   49.248699
   32.674523   49.246972
   32.664326   49.243934
   32.658355   49.242930
   32.655133   49.243086
   32.650523   49.243856
   32.646587   49.245330
   32.641364   49.248529
   32.637338   49.251556
   32.635403   49.253753
   32.633543   49.255097
   32.632240   49.255559
   32.626586   49.255688
   32.623398   49.254456
   32.615456   49.249844
   32.611479   49.249035
   32.608596   49.249111
   32.603815   49.250434
   32.600222   49.253204
   32.597285   49.258281
   32.591744   49.272585
   32.587970   49.273762
   32.576676   49.276444
   32.563725   49.278788
   32.556107   49.283297
   32.537834   49.293091
   32.529276   49.296989
   32.523046   49.299470
   32.511890   49.300969
   32.501779   49.303580
   32.492459   49.307756
   32.473274   49.318209
   32.462252   49.325373
   32.461200   49.326953
   32.461132   49.328675
   32.464541   49.334853
   32.465484   49.337354
   32.459317   49.338741
   32.457458   49.339875
   32.455917   49.341545
   32.455327   49.342767
   32.454843   49.347476
   32.456047   49.350870
   32.456933   49.351975
   32.460138   49.354281
   32.471075   49.358696
   32.470503   49.363858
   32.471550   49.367363
   32.478575   49.374085
   32.479375   49.376110
   32.484834   49.384363
   32.485025   49.392953
   32.486306   49.395650
   32.488165   49.397750
   32.491469   49.400272
   32.493716   49.401092
   32.498641   49.401867
   32.499744   49.406108
   32.502655   49.409558
   32.505613   49.411513
   32.508569   49.412436
   32.510543   49.412522
   32.513081   49.412070
   32.518913   49.409596
   32.521924   49.408844
   32.525681   49.406962
   32.530240   49.402839
   32.532549   49.398761
   32.532384   49.396079
   32.532704   49.395163
   32.534086   49.393378
   32.539336   49.389980
   32.544673   49.387052
   32.548525   49.385825
   32.549847   49.385645
   32.551506   49.387634
   32.555200   49.389202
   32.557796   49.389582
   32.562491   49.389432
   32.565629   49.388719
   32.567543   49.387509
   32.568906   49.385913
   32.574563   49.383983
   32.584087   49.382786
   32.592562   49.382803
   32.597063   49.381993
   32.607871   49.378820
   32.611223   49.377033
   32.617807   49.374363
   32.620687   49.373659
   32.624415   49.372208
   32.629358   49.371074
   32.631213   49.370323
   32.632819   49.369187
   32.636326   49.368465
   32.639662   49.367356
   32.646349   49.363550
   32.651401   49.361573
   32.653793   49.360916
   32.658209   49.360629
   32.663106   49.360930
   32.668844   49.360326
   32.671167   49.359605
   32.675804   49.357127
   32.686892   49.356789
   32.692931   49.358070
   32.699359   49.358134
   32.702326   49.358652
   32.704860   49.358437
   32.708191   49.358739
   32.722826   49.357814
   32.730465   49.356734
   32.730190   49.358303
   32.728627   49.361594
   32.728354   49.364959
   32.728758   49.369229
   32.724983   49.370481
   32.720411   49.373540
   32.716071   49.375544
   32.710031   49.380218
   32.708077   49.379419
   32.704092   49.378474
   32.696735   49.378129
   32.694221   49.378455
   32.690151   49.379525
   32.686888   49.380951
   32.684257   49.382737
   32.678247   49.390800
   32.675420   49.393239
   32.671540   49.398306
   32.670764   49.400033
   32.670821   49.402777
   32.672348   49.407069
   32.673789   49.409469
   32.674258   49.411616
   32.674340   49.418023
   32.673571   49.421470
   32.667685   49.421907
   32.663389   49.422672
   32.658350   49.424261
   32.655895   49.425380
   32.653376   49.427491
   32.652274   49.429819
   32.647691   49.431167
   32.645798   49.432395
   32.644757   49.433998
   32.644230   49.436431
   32.644822   49.438916
   32.645961   49.440943
   32.651328   49.444799
   32.658563   49.447226
   32.661934   49.447683
   32.665258   49.448611
   32.665666   49.448991
   32.664687   49.450398
   32.663914   49.453176
   32.662109   49.454706
   32.659191   49.459753
   32.659171   49.461165
   32.660092   49.463055
   32.659549   49.467045
   32.660414   49.469455
   32.660922   49.473019
   32.663480   49.476242
   32.662722   49.484691
   32.663808   49.490641
   32.671843   49.501192
   32.674893   49.503140
   32.678251   49.504232
   32.680082   49.504516
   32.710722   49.504785
   32.713409   49.506457
   32.714349   49.509151
   32.715714   49.510718
   32.730082   49.519536
   32.733291   49.520738
   32.735400   49.522374
   32.741118   49.525024
   32.743192   49.527070
   32.741937   49.538637
   32.742307   49.539973
   32.743266   49.541174
   32.742924   49.543071
   32.741315   49.544012
   32.740261   49.545181
   32.739359   49.548421
   32.739767   49.550157
   32.740982   49.551636
   32.742201   49.552614
   32.744209   49.553459
   32.742396   49.560420
   32.744455   49.565436
   32.742576   49.567918
   32.742006   49.570296
   32.742488   49.571867
   32.740841   49.573597
   32.740347   49.575521
   32.740840   49.577348
   32.742412   49.579120
   32.740589   49.579731
   32.738690   49.581082
   32.736157   49.582144
   32.734473   49.583505
   32.733089   49.585268
   32.730009   49.585945
   32.728308   49.586804
   32.726561   49.588738
   32.726166   49.590568
   32.719074   49.591945
   32.717488   49.592670
   32.716003   49.593914
   32.713837   49.594441
   32.711913   49.595458
   32.709593   49.597296
   32.708700   49.598559
   32.708317   49.600388
   32.704761   49.604055
   32.704227   49.606440
   32.705290   49.608373
   32.704560   49.609913
   32.704542   49.611322
   32.702566   49.612246
   32.701016   49.613565
   32.700169   49.616273
   32.700517   49.617622
   32.701469   49.618840
   32.703063   49.620158
   32.705107   49.621043
   32.703924   49.622602
   32.703581   49.624238
   32.704000   49.625721
   32.705144   49.627067
   32.702944   49.628888
   32.702228   49.630782
   32.699105   49.631965
   32.697191   49.633975
   32.696847   49.635577
   32.697105   49.636823
   32.699512   49.639552
   32.697282   49.640747
   32.695783   49.642284
   32.695231   49.645732
   32.694387   49.647611
   32.695069   49.650075
   32.697553   49.652079
   32.694940   49.653469
   32.691930   49.653267
   32.688766   49.653984
   32.683486   49.657551
   32.680037   49.658797
   32.674613   49.663820
   32.673722   49.665084
   32.670113   49.666677
   32.667016   49.668823
   32.665827   49.670387
   32.665615   49.671940
   32.663471   49.671692
   32.661344   49.671882
   32.657207   49.672943
   32.655017   49.674046
   32.653483   49.676056
   32.653623   49.678300
   32.571749   49.698309
   32.569899   49.698986
   32.568450   49.699995
   32.567269   49.702148
   32.561393   49.745703
   32.561764   49.747608
   32.565264   49.752536
   32.551630   49.769158
   32.543561   49.769068
   32.524306   49.769717
   32.514104   49.769779
   32.512063   49.770029
   32.509690   49.770946
   32.508376   49.771993
   32.507596   49.773245
   32.498078   49.799085
   32.451164   49.791915
   32.447725   49.791958
   32.445262   49.792772
   32.443844   49.793760
   32.442939   49.794977
   32.431321   49.819342
   32.415744   49.831085
   32.414825   49.832266
   32.414478   49.833802
   32.409673   49.837173
   32.405881   49.841735
   32.403886   49.845631
   32.388525   49.856893
   32.387116   49.858420
   32.379717   49.863909
   32.368124   49.872029
   32.367310   49.873212
   32.367085   49.874930
   32.367579   49.876187
   32.368600   49.877300
   32.381943   49.884886
   32.389793   49.888903
   32.391691   49.889340
   32.393701   49.889404
   32.395656   49.889091
   32.397391   49.888426
   32.405159   49.881414
   32.423520   49.888919
   32.416310   49.893741
   32.411794   49.897332
   32.407972   49.901512
   32.407312   49.903125
   32.412053   49.918911
   32.412406   49.928543
   32.413618   49.930864
   32.412318   49.931755
   32.411379   49.932959
   32.411138   49.935189
   32.418096   49.952701
   32.419476   49.954544
   32.419310   49.956201
   32.419968   49.958581
   32.401326   49.966777
   32.375259   49.977125
   32.372914   49.978665
   32.371938   49.980738
   32.370556   49.997030
   32.366440   49.997742
   32.364700   49.998345
   32.362915   49.999594
   32.361968   50.001185
   32.358167   50.029891
   32.342683   50.031755
   32.340245   50.032579
   32.338846   50.033570
   32.337789   50.035221
   32.337603   50.038700
   32.339429   50.044127
   32.340780   50.046419
   32.337911   50.049345
   32.333756   50.051409
   32.332799   50.050675
   32.330457   50.045414
   32.328266   50.038507
   32.327399   50.037321
   32.325636   50.036032
   32.323163   50.035193
   32.314467   50.034179
   32.312385   50.034279
   32.310443   50.034778
   32.300796   50.041008
   32.273126   50.060834
   32.270991   50.062687
   32.255351   50.080633
   32.254782   50.081948
   32.255002   50.083758
   32.258730   50.089796
   32.266700   50.096522
   32.263104   50.097580
   32.259858   50.100227
   32.256569   50.100757
   32.253642   50.101893
   32.251397   50.103764
   32.250199   50.105634
   32.245605   50.108353
   32.243453   50.110594
   32.242651   50.112477
   32.242734   50.114314
   32.243983   50.116646
   32.246245   50.118553
   32.248661   50.119489
   32.252126   50.120024
   32.254315   50.119988
   32.283785   50.125090
   32.286025   50.125232
   32.295858   50.124813
   32.292665   50.138001
   32.290091   50.138618
   32.288449   50.139509
   32.280332   50.140938
   32.277145   50.140801
   32.269417   50.142143
   32.267165   50.141654
   32.265062   50.141661
   32.261775   50.142493
   32.257273   50.143113
   32.254893   50.143949
   32.253265   50.145224
   32.249297   50.145964
   32.246726   50.147108
   32.244023   50.147605
   32.240625   50.147463
   32.234874   50.148517
   32.231640   50.149839
   32.228407   50.150503
   32.226727   50.151266
   32.217251   50.152928
   32.214752   50.153871
   32.211575   50.153953
   32.175271   50.160528
   32.173394   50.161056
   32.171834   50.161916
   32.166115   50.169671
   32.157339   50.178306
   32.156654   50.180048
   32.156261   50.183617
   32.152594   50.184174
   32.150240   50.185039
   32.107093   50.209174
   32.105401   50.210589
   32.104687   50.212321
   32.105324   50.214515
   32.115771   50.223882
   32.112529   50.225711
   32.091631   50.235061
   32.090159   50.236489
   32.089655   50.237739
   32.089861   50.239453
   32.090811   50.240797
   32.084879   50.243571
   32.082930   50.245413
   32.082512   50.246737
   32.082712   50.248081
   32.092456   50.273275
   32.089477   50.274368
   32.079457   50.279716
   32.077716   50.281105
   32.076940   50.282826
   32.077072   50.284171
   32.078177   50.285813
   32.080175   50.287047
END
END
