rivne
1
   25.082424   50.479777
   25.086705   50.480338
   25.092478   50.479730
   25.094571   50.479076
   25.100319   50.476464
   25.103612   50.475434
   25.111575   50.476270
   25.113685   50.476256
   25.117735   50.475822
   25.123571   50.474485
   25.132512   50.473146
   25.134710   50.475012
   25.137838   50.475947
   25.141293   50.475843
   25.145837   50.474413
   25.150039   50.482292
   25.151204   50.485232
   25.151613   50.491741
   25.152604   50.495952
   25.152680   50.499496
   25.153191   50.501401
   25.152641   50.502855
   25.152857   50.504583
   25.151709   50.506202
   25.148405   50.507717
   25.147054   50.508712
   25.146212   50.509911
   25.145972   50.512057
   25.145247   50.513017
   25.139416   50.517650
   25.136154   50.518154
   25.132422   50.519571
   25.122762   50.522509
   25.116945   50.525545
   25.114650   50.528932
   25.114416   50.530565
   25.116226   50.536846
   25.115965   50.539379
   25.113898   50.543911
   25.115131   50.554009
   25.116163   50.556120
   25.117512   50.557145
   25.119275   50.557875
   25.121999   50.558288
   25.126697   50.557927
   25.128548   50.557274
   25.130399   50.555923
   25.133837   50.554176
   25.138063   50.552776
   25.150840   50.551927
   25.167206   50.554220
   25.176003   50.554572
   25.179178   50.555039
   25.190934   50.555761
   25.193029   50.555693
   25.195003   50.555244
   25.196686   50.554450
   25.197932   50.553382
   25.198634   50.552130
   25.198454   50.549933
   25.196196   50.546865
   25.198664   50.546409
   25.206715   50.546019
   25.231650   50.545484
   25.242961   50.543172
   25.246080   50.542130
   25.249144   50.541571
   25.250894   50.540843
   25.252236   50.539826
   25.253277   50.537470
   25.256769   50.537150
   25.267278   50.537274
   25.273421   50.540253
   25.277390   50.541133
   25.286311   50.542287
   25.288099   50.543301
   25.290609   50.543911
   25.292096   50.545791
   25.298169   50.550070
   25.301363   50.550793
   25.305187   50.550440
   25.307971   50.555126
   25.308165   50.557206
   25.314187   50.569260
   25.312713   50.577407
   25.302531   50.575351
   25.299787   50.575151
   25.297762   50.575447
   25.295957   50.576098
   25.294152   50.577422
   25.293398   50.578648
   25.293312   50.580396
   25.296833   50.593908
   25.293524   50.595014
   25.292240   50.596033
   25.291469   50.597241
   25.289861   50.601790
   25.290325   50.603575
   25.291509   50.604860
   25.291390   50.606234
   25.287514   50.607538
   25.285918   50.608993
   25.285373   50.610280
   25.284856   50.630991
   25.285965   50.633065
   25.287891   50.634331
   25.289760   50.634921
   25.291818   50.635143
   25.307180   50.634743
   25.309330   50.634411
   25.316249   50.632479
   25.318286   50.631117
   25.324065   50.625141
   25.328231   50.622560
   25.331867   50.617202
   25.334696   50.617168
   25.339510   50.618380
   25.351002   50.619229
   25.353676   50.618677
   25.355344   50.617855
   25.357243   50.616039
   25.357726   50.614290
   25.363364   50.613986
   25.376062   50.614070
   25.382875   50.613364
   25.385530   50.613349
   25.387829   50.612778
   25.395083   50.612528
   25.393622   50.614174
   25.391581   50.614897
   25.388683   50.614601
   25.386589   50.614740
   25.383982   50.615464
   25.382369   50.616318
   25.380758   50.618272
   25.380656   50.620052
   25.377610   50.621607
   25.376187   50.623068
   25.375716   50.624567
   25.376006   50.626204
   25.375693   50.627471
   25.373292   50.628546
   25.371891   50.629831
   25.369360   50.630010
   25.366151   50.631013
   25.361053   50.633268
   25.358104   50.635074
   25.355729   50.634996
   25.353389   50.635320
   25.348241   50.636887
   25.346003   50.638446
   25.344552   50.641068
   25.344588   50.642809
   25.345714   50.644916
   25.345261   50.646281
   25.345305   50.649291
   25.346413   50.651066
   25.348522   50.652696
   25.352260   50.653805
   25.355950   50.653837
   25.360017   50.656090
   25.369529   50.658395
   25.373164   50.658407
   25.376607   50.657341
   25.379638   50.659049
   25.379614   50.660816
   25.378665   50.662296
   25.377748   50.665710
   25.378925   50.668010
   25.381229   50.669515
   25.380876   50.673809
   25.377456   50.677139
   25.373864   50.677563
   25.370708   50.678838
   25.368803   50.681051
   25.365946   50.682727
   25.364848   50.685058
   25.365230   50.686845
   25.366762   50.688620
   25.371794   50.691316
   25.374424   50.693938
   25.377033   50.694954
   25.381396   50.695238
   25.384611   50.694720
   25.387306   50.694708
   25.389293   50.694253
   25.390983   50.693449
   25.393380   50.691092
   25.393513   50.688516
   25.395400   50.687229
   25.397363   50.684435
   25.399674   50.682123
   25.400519   50.680002
   25.403253   50.676582
   25.403955   50.676117
   25.406630   50.675355
   25.409763   50.673403
   25.413631   50.673008
   25.418164   50.671023
   25.420824   50.671307
   25.429010   50.671158
   25.431075   50.670788
   25.433709   50.669731
   25.441303   50.669603
   25.447745   50.667888
   25.453901   50.667846
   25.454804   50.671664
   25.452783   50.674555
   25.452791   50.675842
   25.453371   50.677075
   25.455461   50.678746
   25.467156   50.684275
   25.470644   50.684534
   25.473906   50.683708
   25.478598   50.680083
   25.479940   50.678488
   25.496408   50.682738
   25.498802   50.684592
   25.510540   50.688727
   25.525075   50.689672
   25.528430   50.689663
   25.561432   50.699386
   25.564878   50.699591
   25.567528   50.698978
   25.574163   50.703489
   25.576467   50.704358
   25.586995   50.704973
   25.592678   50.704686
   25.592655   50.705610
   25.591303   50.707786
   25.591206   50.710777
   25.590235   50.713846
   25.590280   50.717140
   25.590793   50.718405
   25.591857   50.719524
   25.594592   50.720822
   25.597966   50.721166
   25.600693   50.720663
   25.604300   50.721813
   25.607132   50.722074
   25.613324   50.720819
   25.622260   50.720170
   25.625884   50.719036
   25.627968   50.718815
   25.652906   50.722172
   25.692331   50.729187
   25.695731   50.729259
   25.697660   50.728811
   25.699307   50.728035
   25.700538   50.726994
   25.701250   50.725774
   25.705280   50.708482
   25.705579   50.704380
   25.708307   50.702870
   25.710844   50.700836
   25.713136   50.696647
   25.713251   50.695098
   25.721150   50.689913
   25.727214   50.686715
   25.728997   50.684803
   25.729129   50.682584
   25.727577   50.680593
   25.724235   50.678646
   25.716766   50.676061
   25.725990   50.675839
   25.740108   50.674214
   25.743830   50.675787
   25.749183   50.676250
   25.752122   50.676990
   25.758656   50.677650
   25.764373   50.679628
   25.771813   50.680702
   25.773881   50.680685
   25.775855   50.680292
   25.790894   50.673259
   25.798481   50.669227
   25.816349   50.646618
   25.816891   50.648346
   25.819514   50.651000
   25.843241   50.670142
   25.843568   50.672727
   25.847850   50.679107
   25.854026   50.683935
   25.859331   50.686782
   25.862977   50.689714
   25.863387   50.691437
   25.863511   50.697710
   25.865567   50.700124
   25.867018   50.702752
   25.868419   50.704014
   25.869195   50.706222
   25.870779   50.708358
   25.869854   50.710801
   25.870674   50.714480
   25.870545   50.717954
   25.864654   50.738194
   25.865746   50.743678
   25.868704   50.751196
   25.870638   50.754458
   25.875380   50.758521
   25.879944   50.765483
   25.880412   50.768635
   25.880193   50.777175
   25.880652   50.778843
   25.880936   50.786469
   25.883022   50.790978
   25.883451   50.799901
   25.885135   50.802864
   25.886007   50.805381
   25.893455   50.814954
   25.893983   50.822408
   25.894465   50.824041
   25.894099   50.826415
   25.894482   50.828036
   25.893927   50.830372
   25.896382   50.834143
   25.898636   50.835695
   25.901869   50.836533
   25.905792   50.836178
   25.908023   50.836871
   25.910894   50.837055
   25.917243   50.835425
   25.920169   50.836512
   25.923444   50.836826
   25.929008   50.835747
   25.930956   50.835049
   25.933704   50.835281
   25.937127   50.834582
   25.939763   50.834574
   25.945468   50.833577
   25.947597   50.832849
   25.951154   50.834049
   25.955924   50.834198
   25.958202   50.833597
   25.960840   50.832390
   25.963067   50.830646
   25.966624   50.831037
   25.970262   50.830940
   25.972305   50.830566
   25.977483   50.828428
   25.979559   50.826859
   25.986717   50.827807
   25.992982   50.829171
   25.996135   50.828839
   25.999076   50.827576
   26.001700   50.827365
   26.005892   50.827995
   26.008292   50.827919
   26.013037   50.828407
   26.018060   50.827658
   26.018056   50.829633
   26.021053   50.838054
   26.022948   50.842037
   26.024037   50.843191
   26.025613   50.844092
   26.027400   50.844735
   26.029894   50.845062
   26.029993   50.848976
   26.021715   50.854385
   26.010465   50.861038
   26.004165   50.857895
   26.002260   50.857558
   25.998428   50.857527
   25.995803   50.858141
   25.987287   50.862206
   25.985791   50.863181
   25.984821   50.864393
   25.984487   50.866188
   25.993354   50.933745
   25.961324   50.954048
   25.960234   50.955187
   25.959714   50.956478
   25.959811   50.957808
   25.960516   50.959063
   25.961767   50.960133
   25.963457   50.960927
   25.981932   50.965758
   25.984156   50.965941
   25.987832   50.965477
   25.989151   50.966457
   25.990859   50.967164
   25.999647   50.969067
   26.001657   50.969080
   26.006069   50.968460
   26.007964   50.969043
   26.009969   50.969250
   26.020466   50.968944
   26.023717   50.970295
   26.038065   50.974230
   26.039973   50.975102
   26.046757   50.976494
   26.049928   50.976408
   26.058259   50.977016
   26.064060   50.975759
   26.068982   50.976608
   26.075034   50.976075
   26.076339   50.976674
   26.073519   50.985163
   26.073471   50.986969
   26.071962   50.988730
   26.071758   50.990506
   26.079106   51.004592
   26.080223   51.005702
   26.083182   51.007521
   26.085483   51.008434
   26.098447   51.009290
   26.084680   51.048186
   26.083398   51.048820
   26.016199   51.078214
   26.000474   51.073859
   25.998292   51.073772
   25.996179   51.074081
   25.993301   51.073799
   25.990487   51.074135
   25.982907   51.073080
   25.976427   51.073359
   25.943636   51.079455
   25.939995   51.079862
   25.935945   51.081288
   25.934697   51.082343
   25.933982   51.083581
   25.934084   51.086494
   25.934575   51.087788
   25.936108   51.089269
   25.938278   51.090220
   25.938588   51.091383
   25.937366   51.093965
   25.937831   51.095697
   25.939805   51.097493
   25.942349   51.098396
   25.942565   51.100182
   25.942727   51.102496
   25.941014   51.103507
   25.934958   51.108425
   25.932451   51.109866
   25.931146   51.111929
   25.930664   51.114488
   25.931074   51.116156
   25.935744   51.121363
   25.937420   51.122596
   25.955644   51.129548
   25.958445   51.130202
   25.970422   51.129998
   25.975092   51.129610
   25.982101   51.127189
   25.988392   51.127131
   26.001292   51.128885
   26.006057   51.133589
   26.008142   51.134731
   26.021463   51.137661
   26.023637   51.138512
   26.025491   51.140029
   26.027755   51.140957
   26.036329   51.142448
   26.039336   51.143636
   26.041625   51.145408
   26.043929   51.146286
   26.055346   51.146964
   26.060839   51.150807
   26.061407   51.152768
   26.063438   51.156035
   26.062472   51.157079
   26.059969   51.158471
   26.058762   51.160150
   26.056503   51.161940
   26.054441   51.164320
   26.051852   51.169000
   26.051004   51.172038
   26.051370   51.173838
   26.052824   51.175402
   26.055310   51.176571
   26.057047   51.178078
   26.054137   51.179754
   26.051958   51.182653
   25.992342   51.223451
   25.945674   51.227871
   25.942877   51.228471
   25.941129   51.229309
   25.939007   51.231472
   25.938427   51.234185
   25.937229   51.236615
   25.938041   51.239411
   25.937469   51.240946
   25.937986   51.243109
   25.937532   51.245257
   25.939017   51.247733
   25.936419   51.249210
   25.934525   51.251052
   25.931112   51.251721
   25.928308   51.253453
   25.927525   51.254635
   25.927160   51.256322
   25.925767   51.258351
   25.924010   51.263010
   25.923998   51.264812
   25.925168   51.266685
   25.923813   51.268330
   25.923455   51.270181
   25.925113   51.273764
   25.922641   51.274404
   25.916867   51.277016
   25.915309   51.278368
   25.914480   51.280356
   25.911695   51.282226
   25.910626   51.283939
   25.904816   51.284342
   25.899099   51.285923
   25.896510   51.285537
   25.894385   51.285684
   25.888174   51.288007
   25.886565   51.289423
   25.885932   51.291053
   25.883482   51.292086
   25.881751   51.293543
   25.880750   51.296057
   25.878353   51.299215
   25.877781   51.300631
   25.872432   51.302178
   25.869975   51.303648
   25.868854   51.305762
   25.867078   51.307051
   25.866306   51.308273
   25.866123   51.309584
   25.866680   51.311077
   25.862154   51.311190
   25.859292   51.312260
   25.857271   51.313927
   25.853865   51.314264
   25.851564   51.315224
   25.846689   51.315532
   25.843706   51.316270
   25.839188   51.318870
   25.836826   51.321335
   25.836119   51.322886
   25.834143   51.324547
   25.830273   51.325825
   25.827017   51.327646
   25.825735   51.329724
   25.823593   51.331486
   25.822783   51.332765
   25.822401   51.338656
   25.819330   51.339263
   25.816837   51.340782
   25.814609   51.343816
   25.814033   51.345952
   25.814729   51.347634
   25.816304   51.349161
   25.816813   51.351161
   25.817878   51.352333
   25.820801   51.353821
   25.823810   51.354472
   25.825990   51.355790
   25.825303   51.358176
   25.825957   51.360139
   25.823529   51.361495
   25.820863   51.362024
   25.818696   51.363182
   25.817412   51.364783
   25.817212   51.366574
   25.818128   51.368273
   25.825340   51.374578
   25.826978   51.375493
   25.829585   51.376155
   25.831671   51.377833
   25.829521   51.380412
   25.811781   51.371127
   25.809203   51.370267
   25.805575   51.370214
   25.790595   51.373508
   25.784340   51.370169
   25.782422   51.369779
   25.779743   51.369812
   25.752513   51.376952
   25.750658   51.377672
   25.749231   51.378711
   25.748365   51.379974
   25.748139   51.381344
   25.751557   51.395770
   25.733494   51.395637
   25.732519   51.394108
   25.726485   51.389177
   25.729996   51.386313
   25.731850   51.381087
   25.731417   51.378958
   25.729483   51.377195
   25.727139   51.376321
   25.719535   51.375273
   25.717595   51.375483
   25.711302   51.377147
   25.708303   51.376630
   25.706614   51.373918
   25.705157   51.373005
   25.703351   51.372392
   25.695378   51.371154
   25.692658   51.371387
   25.690821   51.371981
   25.689328   51.372884
   25.688305   51.374019
   25.687837   51.375291
   25.688001   51.376687
   25.684557   51.382125
   25.684310   51.383900
   25.685165   51.385598
   25.686989   51.386954
   25.690190   51.387858
   25.693795   51.387886
   25.693970   51.389083
   25.690323   51.388577
   25.688203   51.388706
   25.685646   51.389477
   25.683764   51.390817
   25.682852   51.392515
   25.680733   51.402916
   25.673876   51.406156
   25.671782   51.408575
   25.670441   51.411044
   25.669434   51.411690
   25.660149   51.410151
   25.657292   51.410053
   25.654009   51.410931
   25.652514   51.411911
   25.651573   51.413086
   25.647171   51.412342
   25.644388   51.412525
   25.641929   51.413370
   25.639876   51.415153
   25.629055   51.438793
   25.629188   51.440134
   25.629938   51.441391
   25.635287   51.446281
   25.634332   51.473798
   25.618090   51.472732
   25.615341   51.473070
   25.612535   51.474381
   25.611214   51.475944
   25.610943   51.477709
   25.614881   51.490173
   25.602115   51.488667
   25.599429   51.488997
   25.597135   51.489941
   25.595323   51.491769
   25.594976   51.493488
   25.598907   51.500747
   25.595527   51.500266
   25.592605   51.500409
   25.555974   51.496216
   25.553889   51.496306
   25.551935   51.496774
   25.549817   51.497912
   25.548771   51.499057
   25.542865   51.519037
   25.542999   51.520362
   25.544104   51.521984
   25.546106   51.523213
   25.548016   51.523763
   25.581194   51.527624
   25.580008   51.528140
   25.568981   51.528995
   25.565906   51.529955
   25.564183   51.531314
   25.558898   51.537702
   25.558221   51.538912
   25.558109   51.540195
   25.567095   51.555274
   25.567636   51.556828
   25.568695   51.557945
   25.571829   51.559352
   25.578333   51.563178
   25.588244   51.565431
   25.584737   51.567964
   25.584047   51.569178
   25.583927   51.570466
   25.584662   51.572117
   25.590691   51.578231
   25.591273   51.580421
   25.588483   51.584586
   25.581091   51.588694
   25.579441   51.590037
   25.577342   51.594370
   25.575653   51.602217
   25.567843   51.599108
   25.565217   51.598475
   25.563104   51.598453
   25.561073   51.598823
   25.558343   51.600209
   25.557122   51.601811
   25.550739   51.617540
   25.550525   51.615685
   25.549878   51.614422
   25.548175   51.613024
   25.546409   51.612308
   25.532194   51.609456
   25.528873   51.609888
   25.526241   51.611241
   25.525250   51.612375
   25.524808   51.613641
   25.522799   51.630770
   25.522954   51.632100
   25.523715   51.633343
   25.525015   51.634392
   25.526741   51.635155
   25.528744   51.635566
   25.567292   51.637229
   25.570009   51.637011
   25.572397   51.636162
   25.574105   51.634807
   25.574859   51.633247
   25.582000   51.645988
   25.582998   51.647173
   25.584502   51.648120
   25.587060   51.648873
   25.589878   51.648940
   25.604139   51.646555
   25.606662   51.650748
   25.609430   51.653467
   25.611536   51.654900
   25.611202   51.657144
   25.612089   51.659944
   25.614758   51.662220
   25.616958   51.663365
   25.619002   51.665755
   25.619289   51.668230
   25.618379   51.671033
   25.619189   51.673746
   25.620333   51.674879
   25.621951   51.675748
   25.625539   51.676965
   25.628762   51.677610
   25.630436   51.680222
   25.631596   51.681317
   25.631485   51.683197
   25.630216   51.684295
   25.629434   51.685975
   25.629170   51.689006
   25.629998   51.690777
   25.631433   51.692040
   25.633464   51.693165
   25.640350   51.695175
   25.641777   51.696157
   25.642603   51.698147
   25.643018   51.702618
   25.643690   51.704082
   25.641314   51.707049
   25.641103   51.708398
   25.641532   51.709726
   25.643027   51.711260
   25.658720   51.721850
   25.658902   51.723709
   25.657499   51.725933
   25.654797   51.728918
   25.654373   51.730546
   25.654648   51.731889
   25.655959   51.733486
   25.659333   51.735678
   25.665592   51.742018
   25.668211   51.744178
   25.668631   51.746353
   25.674449   51.756524
   25.669857   51.761278
   25.668145   51.763764
   25.665804   51.761933
   25.663965   51.761076
   25.657857   51.759590
   25.655701   51.759436
   25.652264   51.760095
   25.649738   51.761765
   25.645677   51.763015
   25.643695   51.764308
   25.642668   51.765989
   25.642759   51.767790
   25.648161   51.782246
   25.648968   51.783511
   25.650343   51.784572
   25.648791   51.786319
   25.644362   51.786873
   25.641687   51.788174
   25.640420   51.789689
   25.637787   51.795151
   25.626820   51.800768
   25.625514   51.801783
   25.624722   51.802993
   25.624882   51.807511
   25.625934   51.809280
   25.627785   51.810608
   25.627291   51.812550
   25.628043   51.814308
   25.631607   51.817431
   25.633957   51.818409
   25.636263   51.818772
   25.637905   51.820338
   25.640293   51.821389
   25.640213   51.823098
   25.641017   51.825202
   25.637095   51.828399
   25.635772   51.830323
   25.634059   51.831680
   25.631902   51.836117
   25.631712   51.838222
   25.632794   51.842237
   25.632382   51.843982
   25.632904   51.845750
   25.633044   51.849802
   25.633916   51.851462
   25.637253   51.854641
   25.642888   51.857162
   25.643799   51.858225
   25.648910   51.861907
   25.655677   51.871466
   25.662062   51.876964
   25.667458   51.879213
   25.671631   51.880159
   25.678195   51.883182
   25.684071   51.884975
   25.696271   51.893037
   25.683731   51.896337
   25.676038   51.897436
   25.627176   51.899018
   25.624604   51.899591
   25.622206   51.901053
   25.616840   51.901977
   25.598359   51.910516
   25.592454   51.910731
   25.590040   51.911543
   25.588646   51.912500
   25.587560   51.914088
   25.587413   51.915386
   25.588934   51.918091
   25.585919   51.923403
   25.585701   51.924718
   25.586680   51.926819
   25.589103   51.928382
   25.591024   51.928901
   25.593796   51.929009
   25.597557   51.928284
   25.631622   51.925703
   25.708821   51.920740
   25.741133   51.925374
   25.756722   51.928262
   25.758860   51.928394
   25.761050   51.928127
   25.760350   51.929906
   25.760758   51.931680
   25.765570   51.935961
   25.758708   51.948595
   25.758331   51.950314
   25.759003   51.951996
   25.760626   51.953394
   25.762327   51.954130
   25.764975   51.954579
   25.777270   51.954381
   25.783643   51.953856
   25.786598   51.952614
   25.787779   51.951482
   25.788367   51.950207
   25.811177   51.950648
   25.827529   51.946937
   25.829579   51.945770
   25.830779   51.944199
   25.831587   51.937344
   25.831410   51.936023
   25.830255   51.934420
   25.828220   51.933218
   25.826294   51.932692
   25.826182   51.931354
   25.828509   51.929805
   25.830415   51.930479
   25.833166   51.930802
   25.844981   51.929991
   25.849277   51.930381
   25.857562   51.930536
   25.865103   51.929926
   25.870083   51.928954
   25.873195   51.927540
   25.874756   51.926405
   25.877151   51.926810
   25.881142   51.926852
   25.884798   51.926168
   25.887351   51.925093
   25.889962   51.924780
   25.892498   51.923826
   25.896345   51.924281
   25.903089   51.925843
   25.905205   51.925841
   25.909366   51.925194
   25.917597   51.922870
   25.922316   51.920568
   25.924906   51.920013
   25.926197   51.920010
   25.928495   51.921253
   25.930561   51.921890
   25.933400   51.922147
   25.935708   51.921861
   25.936447   51.922072
   25.938437   51.924103
   25.941520   51.925287
   25.944907   51.925505
   25.947925   51.926643
   25.951751   51.926678
   25.954735   51.927799
   25.960215   51.928414
   25.961782   51.930177
   25.964936   51.931472
   25.973228   51.932042
   25.977980   51.933861
   25.981009   51.934346
   25.984986   51.936012
   25.988028   51.936633
   25.990482   51.936711
   25.993750   51.937824
   25.995829   51.937933
   26.000925   51.937403
   26.004052   51.936271
   26.005864   51.934402
   26.044509   51.929917
   26.047104   51.929264
   26.048680   51.928386
   26.050029   51.926838
   26.053023   51.918026
   26.094827   51.916541
   26.098210   51.915848
   26.099833   51.914957
   26.100963   51.913800
   26.101530   51.911959
   26.103975   51.909400
   26.105628   51.905699
   26.106374   51.905093
   26.108956   51.903515
   26.112073   51.902154
   26.114161   51.902026
   26.116098   51.901520
   26.120962   51.899244
   26.122358   51.898146
   26.127032   51.896803
   26.128946   51.895652
   26.134225   51.890978
   26.138123   51.882826
   26.138918   51.881821
   26.140421   51.880991
   26.143495   51.882332
   26.147979   51.882632
   26.149894   51.883671
   26.152766   51.884508
   26.155555   51.884748
   26.157624   51.884465
   26.160499   51.883196
   26.162074   51.881214
   26.162335   51.872032
   26.165573   51.871463
   26.167593   51.872490
   26.169527   51.872934
   26.178384   51.872866
   26.186475   51.870474
   26.192172   51.867342
   26.202408   51.868630
   26.213850   51.871269
   26.214561   51.872849
   26.215787   51.873953
   26.217472   51.874778
   26.220170   51.875324
   26.222299   51.875269
   26.228182   51.874183
   26.244768   51.875017
   26.272871   51.875448
   26.275080   51.875261
   26.279438   51.874052
   26.281383   51.872839
   26.282432   51.871331
   26.288696   51.872725
   26.290729   51.872757
   26.293306   51.872235
   26.299565   51.869069
   26.306319   51.864858
   26.329516   51.868670
   26.356083   51.866589
   26.363922   51.867087
   26.369173   51.866869
   26.390292   51.880347
   26.392080   51.881017
   26.394097   51.881332
   26.397501   51.881013
   26.399287   51.880341
   26.400692   51.879372
   26.401883   51.877327
   26.402755   51.836122
   26.427399   51.837590
   26.429510   51.837382
   26.431429   51.836787
   26.433749   51.835096
   26.443828   51.822382
   26.472136   51.817228
   26.474013   51.816691
   26.475569   51.815837
   26.476676   51.814738
   26.477242   51.813484
   26.477797   51.804623
   26.543225   51.800772
   26.547919   51.805356
   26.545080   51.811749
   26.545401   51.813539
   26.546800   51.815107
   26.549712   51.816384
   26.565697   51.820137
   26.583795   51.823942
   26.586181   51.832288
   26.588349   51.833958
   26.591495   51.834801
   26.594235   51.834741
   26.597545   51.833606
   26.600471   51.833671
   26.604928   51.832878
   26.607209   51.831974
   26.609815   51.830149
   26.613214   51.828900
   26.617332   51.829091
   26.644968   51.828323
   26.649619   51.829268
   26.661662   51.829358
   26.666713   51.828732
   26.678505   51.828027
   26.695054   51.827733
   26.697619   51.827162
   26.699809   51.825997
   26.700876   51.824814
   26.701384   51.823043
   26.709071   51.816219
   26.709910   51.815949
   26.714140   51.816086
   26.716475   51.817050
   26.724037   51.818965
   26.726193   51.819843
   26.728191   51.820210
   26.730272   51.820198
   26.732871   51.819596
   26.747186   51.813061
   26.751660   51.812506
   26.754721   51.810972
   26.758795   51.807067
   26.760773   51.806386
   26.762280   51.805381
   26.764394   51.802617
   26.764229   51.799796
   26.763327   51.798538
   26.761975   51.797546
   26.765182   51.794995
   26.766179   51.793316
   26.765841   51.788245
   26.767234   51.786271
   26.767482   51.784969
   26.767055   51.783335
   26.765616   51.781762
   26.765870   51.780543
   26.765436   51.779044
   26.768986   51.777817
   26.771147   51.776119
   26.777725   51.772755
   26.780950   51.771567
   26.782741   51.770391
   26.786103   51.771069
   26.789396   51.770909
   26.796361   51.768060
   26.798153   51.766119
   26.798372   51.764319
   26.797462   51.762608
   26.795540   51.761102
   26.804565   51.760235
   26.811941   51.765936
   26.814318   51.766935
   26.844880   51.770628
   26.847658   51.770608
   26.850213   51.769917
   26.860799   51.764336
   26.873572   51.756588
   26.879709   51.753306
   26.884032   51.754412
   26.886942   51.754423
   26.895877   51.751524
   26.907812   51.754403
   26.911280   51.754454
   26.914377   51.753465
   26.916282   51.751800
   26.946661   51.741717
   26.989081   51.771817
   26.990742   51.772695
   26.992741   51.773218
   27.054318   51.775041
   27.066753   51.775047
   27.089012   51.775891
   27.108756   51.776049
   27.179529   51.777600
   27.204321   51.777614
   27.206216   51.777071
   27.207783   51.776206
   27.209139   51.774680
   27.209495   51.773383
   27.215214   51.670259
   27.217696   51.669087
   27.249311   51.671775
   27.252659   51.671553
   27.254987   51.670684
   27.274886   51.659564
   27.278445   51.657354
   27.279972   51.655423
   27.280525   51.646717
   27.279866   51.644676
   27.252590   51.620340
   27.256327   51.612225
   27.255579   51.608267
   27.254305   51.606593
   27.260274   51.606704
   27.260834   51.608045
   27.262394   51.609466
   27.264059   51.610229
   27.266679   51.610724
   27.341122   51.610781
   27.354678   51.619446
   27.356461   51.620135
   27.359180   51.620493
   27.362543   51.619982
   27.394357   51.609504
   27.419972   51.610200
   27.420047   51.615057
   27.421232   51.616608
   27.423247   51.617765
   27.435288   51.620661
   27.452340   51.624219
   27.455102   51.624471
   27.458423   51.623823
   27.460039   51.622975
   27.461195   51.621866
   27.461858   51.620149
   27.462274   51.614040
   27.468652   51.611778
   27.471582   51.614532
   27.479690   51.618961
   27.482454   51.619386
   27.484579   51.619234
   27.486538   51.618690
   27.488155   51.617804
   27.493746   51.612430
   27.494711   51.609990
   27.494117   51.608343
   27.491592   51.605416
   27.490560   51.603029
   27.487666   51.601219
   27.487253   51.600630
   27.488427   51.596319
   27.494821   51.593845
   27.500896   51.592636
   27.503208   51.591838
   27.506551   51.592996
   27.507410   51.593626
   27.514494   51.602319
   27.511475   51.602311
   27.508798   51.602929
   27.507160   51.603805
   27.505749   51.605373
   27.500273   51.630453
   27.501124   51.632059
   27.508034   51.638360
   27.513391   51.641470
   27.515253   51.641996
   27.517273   51.642169
   27.519930   51.641827
   27.522195   51.640883
   27.525415   51.638090
   27.538482   51.628373
   27.543301   51.638517
   27.544555   51.640068
   27.546058   51.640969
   27.548571   51.641679
   27.551322   51.641734
   27.553294   51.641337
   27.562464   51.636253
   27.570864   51.632460
   27.590448   51.624835
   27.620669   51.610221
   27.626763   51.610935
   27.631846   51.612459
   27.635746   51.614439
   27.640997   51.615691
   27.646085   51.619785
   27.649769   51.621576
   27.653223   51.622097
   27.656007   51.621705
   27.663901   51.618871
   27.670904   51.616883
   27.688141   51.617465
   27.690835   51.617191
   27.692641   51.616574
   27.694094   51.615657
   27.696642   51.611841
   27.698117   51.610834
   27.699112   51.610712
   27.704378   51.611575
   27.706707   51.611558
   27.729529   51.608969
   27.732010   51.608172
   27.733449   51.607209
   27.734571   51.605597
   27.737265   51.597936
   27.740435   51.596357
   27.741396   51.595180
   27.741777   51.593877
   27.733571   51.565190
   27.729383   51.560544
   27.727980   51.559468
   27.710179   51.551347
   27.696447   51.544073
   27.689088   51.539383
   27.683779   51.537154
   27.685358   51.519866
   27.684994   51.518159
   27.683649   51.516661
   27.681517   51.515590
   27.671435   51.513619
   27.675925   51.497238
   27.675769   51.495932
   27.674661   51.494337
   27.673246   51.493381
   27.671457   51.492723
   27.668062   51.492422
   27.652976   51.496109
   27.651376   51.494575
   27.627611   51.479199
   27.621788   51.477914
   27.592686   51.474429
   27.586263   51.474078
   27.589431   51.434498
   27.600194   51.434636
   27.603384   51.433759
   27.605222   51.432428
   27.606114   51.430752
   27.606434   51.424729
   27.610029   51.423100
   27.611639   51.421087
   27.611779   51.419726
   27.610881   51.416598
   27.615890   51.414647
   27.620081   51.411361
   27.620978   51.410106
   27.621237   51.408738
   27.620630   51.405745
   27.620888   51.402581
   27.620357   51.401317
   27.619276   51.400203
   27.617144   51.399107
   27.615200   51.398667
   27.598804   51.397587
   27.583959   51.397220
   27.581942   51.397479
   27.580127   51.398092
   27.578662   51.399006
   27.577459   51.400562
   27.576854   51.404849
   27.569172   51.407908
   27.563320   51.412125
   27.550193   51.415800
   27.544606   51.418082
   27.540776   51.420837
   27.538303   51.422032
   27.535261   51.424131
   27.532693   51.425104
   27.526754   51.429408
   27.525480   51.431573
   27.525955   51.434002
   27.520293   51.441055
   27.519545   51.442709
   27.520056   51.444828
   27.522786   51.448141
   27.517624   51.448194
   27.511327   51.447854
   27.512170   51.435228
   27.506310   51.422246
   27.506351   51.416751
   27.499333   51.407138
   27.501580   51.377703
   27.528692   51.370574
   27.531463   51.369275
   27.532777   51.367733
   27.533096   51.366431
   27.531438   51.360436
   27.534518   51.354243
   27.534374   51.352010
   27.529003   51.345445
   27.529467   51.341678
   27.528468   51.339528
   27.518256   51.332265
   27.515719   51.331134
   27.505816   51.319822
   27.500065   51.315530
   27.494181   51.311922
   27.490850   51.310996
   27.448993   51.306827
   27.455135   51.283392
   27.467791   51.266125
   27.468390   51.264827
   27.468204   51.263032
   27.466928   51.261426
   27.464764   51.260261
   27.459966   51.259425
   27.458407   51.258708
   27.456769   51.256317
   27.459477   51.254730
   27.460564   51.252366
   27.468728   51.252506
   27.472620   51.251709
   27.474828   51.250548
   27.476137   51.248930
   27.476974   51.245971
   27.480138   51.241113
   27.481000   51.237481
   27.480804   51.236162
   27.479627   51.234567
   27.476962   51.233165
   27.469271   51.232212
   27.464456   51.222366
   27.463549   51.221216
   27.462167   51.220274
   27.459128   51.219363
   27.446662   51.218475
   27.420451   51.198329
   27.417348   51.197387
   27.408496   51.196766
   27.409261   51.191898
   27.412190   51.190199
   27.413020   51.188965
   27.413241   51.187630
   27.410264   51.180007
   27.403633   51.173098
   27.404689   51.172011
   27.405232   51.170716
   27.404753   51.168518
   27.403204   51.167031
   27.382847   51.154036
   27.387271   51.148701
   27.387311   51.146892
   27.386228   51.145217
   27.375225   51.139337
   27.371772   51.138387
   27.376055   51.112269
   27.375281   51.110181
   27.372013   51.107722
   27.373821   51.098209
   27.373406   51.096062
   27.371957   51.094587
   27.370348   51.093769
   27.361324   51.091306
   27.361413   51.086020
   27.360572   51.084770
   27.358618   51.083455
   27.355299   51.082654
   27.349782   51.082589
   27.345586   51.082197
   27.340842   51.082786
   27.340178   51.080885
   27.338014   51.079192
   27.329835   51.077067
   27.329612   51.076372
   27.331914   51.068964
   27.331386   51.067609
   27.327042   51.061340
   27.324832   51.053060
   27.332688   51.043551
   27.332946   51.041765
   27.332088   51.040056
   27.329666   51.038432
   27.327020   51.037792
   27.284344   51.035997
   27.283549   51.031686
   27.282804   51.030429
   27.280396   51.028813
   27.277766   51.028171
   27.232188   51.026129
   27.235049   51.023940
   27.235820   51.021843
   27.233396   51.007461
   27.232570   51.005788
   27.230241   51.004178
   27.227680   51.003511
   27.219398   51.003829
   27.215733   51.000627
   27.208083   50.997838
   27.210693   50.990852
   27.217812   50.984158
   27.218964   50.981625
   27.222124   50.977639
   27.225641   50.975240
   27.230937   50.966751
   27.231191   50.965182
   27.232692   50.963229
   27.232884   50.960630
   27.232046   50.956883
   27.230702   50.954784
   27.238802   50.951932
   27.240093   50.950848
   27.240789   50.949644
   27.242596   50.949013
   27.244064   50.948061
   27.245354   50.946015
   27.245179   50.944250
   27.242984   50.940475
   27.244992   50.939020
   27.245822   50.937357
   27.245597   50.935619
   27.244044   50.933111
   27.241597   50.931395
   27.232493   50.929049
   27.228488   50.926303
   27.224790   50.925412
   27.223394   50.923267
   27.223739   50.921209
   27.227245   50.917932
   27.227883   50.916865
   27.235020   50.917041
   27.236976   50.916653
   27.238677   50.915929
   27.239984   50.914929
   27.242418   50.911716
   27.242831   50.909977
   27.242109   50.907765
   27.243278   50.906826
   27.246669   50.905535
   27.253132   50.904456
   27.254885   50.903871
   27.261807   50.899330
   27.263347   50.897840
   27.263940   50.896497
   27.263858   50.895103
   27.262815   50.892280
   27.260189   50.889385
   27.257666   50.887192
   27.256155   50.886334
   27.258296   50.885408
   27.259876   50.883892
   27.260367   50.882562
   27.260013   50.880760
   27.251394   50.869218
   27.255955   50.858854
   27.256051   50.856673
   27.255315   50.855440
   27.253556   50.853839
   27.248156   50.850482
   27.245436   50.847238
   27.243796   50.845907
   27.242157   50.840019
   27.241231   50.838705
   27.244576   50.835433
   27.245060   50.832798
   27.247382   50.830430
   27.248883   50.825552
   27.248354   50.823913
   27.246314   50.821134
   27.245463   50.816972
   27.245385   50.813057
   27.243947   50.810785
   27.242406   50.809552
   27.243471   50.806669
   27.243512   50.805392
   27.242902   50.803646
   27.241566   50.802142
   27.240558   50.800052
   27.240656   50.798526
   27.247650   50.796585
   27.249237   50.795651
   27.250532   50.794021
   27.250706   50.792200
   27.248057   50.780528
   27.246805   50.777898
   27.248143   50.775913
   27.249819   50.774396
   27.250403   50.773005
   27.256858   50.772073
   27.260936   50.770964
   27.264342   50.769362
   27.265769   50.767969
   27.271614   50.767466
   27.274058   50.766792
   27.276570   50.765229
   27.278332   50.762689
   27.278683   50.761326
   27.278577   50.756747
   27.277369   50.752410
   27.273536   50.747162
   27.271602   50.745772
   27.272461   50.744441
   27.272627   50.743178
   27.274166   50.741151
   27.279535   50.736976
   27.280721   50.735395
   27.280740   50.733215
   27.278588   50.730016
   27.280438   50.728379
   27.281472   50.726426
   27.281800   50.725130
   27.281465   50.723592
   27.282494   50.721527
   27.282038   50.719371
   27.280392   50.717623
   27.280459   50.714738
   27.279066   50.710346
   27.276248   50.707992
   27.273209   50.706985
   27.271755   50.706002
   27.269874   50.705328
   27.268824   50.703570
   27.266931   50.702324
   27.268226   50.700330
   27.268217   50.697318
   27.266385   50.695347
   27.260825   50.692331
   27.261347   50.691034
   27.261222   50.688130
   27.259655   50.685976
   27.256993   50.684630
   27.252411   50.673438
   27.250277   50.670317
   27.248141   50.669137
   27.246151   50.668652
   27.242276   50.668798
   27.238673   50.668121
   27.234390   50.668526
   27.232330   50.667035
   27.229874   50.666296
   27.227159   50.666192
   27.224908   50.666633
   27.221637   50.665654
   27.218443   50.665743
   27.215865   50.665179
   27.211518   50.663299
   27.217128   50.661624
   27.219156   50.660352
   27.220486   50.658560
   27.220669   50.656752
   27.219941   50.655310
   27.220202   50.653445
   27.219427   50.651868
   27.219462   50.646424
   27.217525   50.643800
   27.220237   50.641668
   27.220858   50.640412
   27.220881   50.639096
   27.219987   50.637441
   27.217739   50.635565
   27.212004   50.633505
   27.210912   50.632534
   27.212496   50.631131
   27.213136   50.629419
   27.212828   50.627805
   27.211554   50.626183
   27.208804   50.624590
   27.205905   50.623994
   27.202566   50.622624
   27.204084   50.621496
   27.208262   50.616986
   27.211813   50.616436
   27.213898   50.615343
   27.215112   50.613974
   27.225683   50.610702
   27.229758   50.608465
   27.231277   50.606908
   27.231698   50.605097
   27.230953   50.602974
   27.230534   50.597909
   27.223945   50.591165
   27.222810   50.588682
   27.237765   50.568416
   27.237965   50.566689
   27.237429   50.565431
   27.235884   50.563788
   27.234361   50.562923
   27.231177   50.562192
   27.216679   50.561191
   27.214721   50.560063
   27.212123   50.559402
   27.201001   50.558576
   27.198324   50.557705
   27.190622   50.556890
   27.171744   50.556696
   27.153377   50.558551
   27.146256   50.558195
   27.137523   50.556042
   27.128639   50.556519
   27.126207   50.557334
   27.124139   50.559064
   27.123019   50.563555
   27.115595   50.574318
   27.115069   50.575625
   27.115350   50.577408
   27.116703   50.578982
   27.118915   50.580100
   27.121427   50.580569
   27.121490   50.582067
   27.122611   50.584819
   27.116692   50.586377
   27.114937   50.587202
   27.111781   50.582922
   27.107432   50.579960
   27.104009   50.579208
   27.101268   50.579132
   27.098683   50.579716
   27.095630   50.581058
   27.094158   50.577830
   27.092491   50.576429
   27.090752   50.575702
   27.088756   50.575324
   27.085148   50.575586
   27.084249   50.574090
   27.082509   50.572659
   27.080720   50.571922
   27.078167   50.571512
   27.077296   50.568130
   27.073793   50.562301
   27.082297   50.557145
   27.083292   50.556000
   27.083743   50.554287
   27.082833   50.552201
   27.077194   50.547394
   27.074608   50.546592
   27.070504   50.546193
   27.056448   50.546727
   27.048813   50.547584
   27.039449   50.549380
   27.031754   50.551415
   27.022072   50.553099
   27.013428   50.537044
   27.010786   50.535575
   26.994191   50.530212
   26.989334   50.520901
   26.987710   50.519444
   26.985322   50.518497
   26.982541   50.518209
   26.979801   50.518624
   26.971440   50.522629
   26.963939   50.524770
   26.950007   50.525284
   26.944936   50.525912
   26.940784   50.525610
   26.933203   50.527321
   26.926591   50.530220
   26.921912   50.531866
   26.912944   50.533415
   26.904023   50.537409
   26.900197   50.540304
   26.886125   50.531765
   26.885555   50.529723
   26.878240   50.518573
   26.876204   50.517296
   26.873271   50.516545
   26.866277   50.512561
   26.862961   50.507004
   26.861749   50.505898
   26.860076   50.505066
   26.857389   50.504508
   26.854894   50.504536
   26.849889   50.505909
   26.833655   50.512667
   26.832125   50.513997
   26.830459   50.516788
   26.828381   50.515920
   26.826403   50.513218
   26.826690   50.508071
   26.825587   50.505493
   26.824980   50.501897
   26.823894   50.500257
   26.822043   50.499006
   26.818404   50.498021
   26.810658   50.498052
   26.807771   50.497579
   26.802554   50.497493
   26.789990   50.498733
   26.788699   50.498222
   26.788916   50.495491
   26.788300   50.493819
   26.784716   50.490877
   26.781654   50.487394
   26.778963   50.485912
   26.775237   50.485453
   26.774433   50.483767
   26.775662   50.478466
   26.790208   50.479711
   26.793474   50.478850
   26.795687   50.477103
   26.796269   50.475802
   26.796693   50.472113
   26.795688   50.470459
   26.793826   50.469211
   26.793545   50.466671
   26.791839   50.464657
   26.790129   50.463800
   26.786691   50.462853
   26.779259   50.462051
   26.776748   50.460203
   26.774917   50.459652
   26.772614   50.459455
   26.770722   50.457849
   26.767676   50.456885
   26.764271   50.456924
   26.756173   50.458511
   26.743619   50.457030
   26.741325   50.457102
   26.744844   50.454568
   26.745811   50.452823
   26.745761   50.451431
   26.744351   50.448243
   26.743499   50.443239
   26.741605   50.441469
   26.738638   50.440448
   26.732828   50.440363
   26.730132   50.439833
   26.722684   50.439825
   26.722542   50.425883
   26.719635   50.416184
   26.718676   50.414575
   26.717367   50.413582
   26.715669   50.412865
   26.712357   50.412427
   26.697687   50.414524
   26.688758   50.387018
   26.686520   50.385405
   26.684691   50.384823
   26.682677   50.384592
   26.677700   50.385214
   26.673690   50.386120
   26.667219   50.386261
   26.664710   50.386624
   26.655029   50.363617
   26.653355   50.361700
   26.651724   50.360874
   26.649785   50.360382
   26.646327   50.360405
   26.620727   50.366345
   26.607134   50.364318
   26.600472   50.352991
   26.595924   50.346229
   26.595075   50.344557
   26.594923   50.341887
   26.593480   50.338126
   26.592523   50.336953
   26.591071   50.336005
   26.589249   50.335363
   26.585495   50.335143
   26.580372   50.332491
   26.575067   50.330650
   26.563683   50.327855
   26.564954   50.326615
   26.569236   50.323750
   26.570389   50.321703
   26.569902   50.319552
   26.566164   50.314199
   26.564116   50.313084
   26.561561   50.312530
   26.553103   50.312719
   26.554087   50.310291
   26.554003   50.308930
   26.553283   50.307646
   26.551455   50.306254
   26.546502   50.304571
   26.543869   50.304277
   26.540249   50.303086
   26.537639   50.302993
   26.533591   50.301903
   26.533917   50.299491
   26.532415   50.297462
   26.521004   50.292466
   26.513377   50.282143
   26.510726   50.280710
   26.507627   50.280245
   26.506588   50.278481
   26.505042   50.277267
   26.505699   50.275710
   26.505785   50.272155
   26.504464   50.269306
   26.507712   50.268563
   26.509374   50.267756
   26.510886   50.266275
   26.511388   50.264541
   26.509836   50.260897
   26.507076   50.258694
   26.505278   50.257958
   26.502503   50.257560
   26.496940   50.258357
   26.493027   50.258433
   26.490374   50.258984
   26.486528   50.260964
   26.483730   50.261101
   26.482458   50.260865
   26.480641   50.259897
   26.477927   50.257395
   26.473385   50.255926
   26.471235   50.255691
   26.458201   50.255542
   26.454769   50.256054
   26.450291   50.256019
   26.447827   50.256770
   26.446340   50.257721
   26.443732   50.256530
   26.440034   50.255866
   26.435487   50.255869
   26.433686   50.256134
   26.429628   50.255766
   26.426710   50.256158
   26.424648   50.256877
   26.420690   50.256175
   26.417301   50.256217
   26.401630   50.259540
   26.398992   50.259701
   26.394911   50.258738
   26.392933   50.257520
   26.390456   50.256724
   26.390502   50.254598
   26.389967   50.253309
   26.388186   50.251191
   26.385901   50.249469
   26.379791   50.247108
   26.377746   50.246693
   26.374895   50.246769
   26.368094   50.248025
   26.367786   50.246431
   26.366192   50.243906
   26.363549   50.241644
   26.360918   50.240600
   26.354312   50.235330
   26.351960   50.234346
   26.348356   50.233797
   26.344464   50.231732
   26.338964   50.230409
   26.336987   50.230231
   26.334019   50.228066
   26.331497   50.227056
   26.331967   50.225252
   26.331106   50.223186
   26.328501   50.221453
   26.326940   50.219077
   26.324256   50.217707
   26.322481   50.216214
   26.322082   50.215039
   26.321009   50.213813
   26.318038   50.211748
   26.312712   50.210393
   26.311969   50.207289
   26.310416   50.205639
   26.311964   50.203546
   26.312599   50.198588
   26.311122   50.195957
   26.308292   50.194052
   26.306715   50.191570
   26.305262   50.190525
   26.301669   50.189173
   26.300608   50.186303
   26.298494   50.184541
   26.295375   50.183613
   26.294298   50.182583
   26.290856   50.180652
   26.286689   50.179234
   26.282939   50.178765
   26.280768   50.177810
   26.279155   50.175901
   26.276245   50.174619
   26.270789   50.174000
   26.264564   50.173835
   26.261482   50.174289
   26.258624   50.175237
   26.257242   50.174998
   26.255703   50.173899
   26.252346   50.172442
   26.249790   50.170571
   26.247519   50.169649
   26.244014   50.169362
   26.238791   50.168287
   26.230642   50.167635
   26.227943   50.167757
   26.226072   50.168265
   26.219508   50.171343
   26.218392   50.172569
   26.217862   50.174400
   26.214307   50.177201
   26.213123   50.178622
   26.206969   50.181288
   26.204955   50.181731
   26.201139   50.181751
   26.196702   50.182409
   26.194735   50.182993
   26.188828   50.186485
   26.185705   50.189091
   26.184670   50.191043
   26.175716   50.193337
   26.173985   50.194140
   26.172709   50.195232
   26.171905   50.196965
   26.172237   50.198759
   26.180930   50.213392
   26.179102   50.214779
   26.178117   50.216809
   26.179071   50.221763
   26.178343   50.229220
   26.178705   50.230565
   26.180637   50.232464
   26.183445   50.233803
   26.185411   50.234323
   26.190160   50.234288
   26.191984   50.233834
   26.194337   50.232690
   26.200732   50.234758
   26.204163   50.235068
   26.202916   50.249484
   26.203661   50.250707
   26.205450   50.252032
   26.207897   50.252829
   26.210145   50.253000
   26.209901   50.256828
   26.211246   50.258921
   26.195143   50.258441
   26.176486   50.242224
   26.177162   50.240179
   26.177009   50.238934
   26.174503   50.235614
   26.172701   50.234225
   26.172847   50.230402
   26.172035   50.228721
   26.170790   50.227660
   26.169114   50.226873
   26.165763   50.226336
   26.162915   50.226514
   26.160304   50.227291
   26.155827   50.227617
   26.138983   50.231238
   26.080905   50.245402
   26.078381   50.245583
   26.075539   50.246188
   26.073107   50.247157
   26.065130   50.251998
   26.037211   50.233526
   26.035052   50.232549
   26.024263   50.225925
   26.021187   50.225146
   26.007360   50.224427
   26.004835   50.225058
   26.002493   50.226603
   26.001039   50.229735
   26.000822   50.233208
   25.998683   50.235185
   25.995936   50.236756
   25.989960   50.238608
   25.985657   50.238672
   25.980766   50.237675
   25.978009   50.237764
   25.965594   50.242334
   25.963901   50.243818
   25.962397   50.247672
   25.958282   50.252565
   25.956955   50.252741
   25.948992   50.250649
   25.946901   50.250364
   25.944085   50.250613
   25.941342   50.251732
   25.936128   50.251990
   25.929901   50.251211
   25.930385   50.249734
   25.930319   50.247999
   25.929857   50.246726
   25.928840   50.245589
   25.916368   50.238368
   25.909710   50.234923
   25.903094   50.230732
   25.900130   50.228005
   25.897216   50.226195
   25.889793   50.219126
   25.885054   50.216559
   25.882653   50.212150
   25.881311   50.211186
   25.877724   50.209691
   25.877398   50.208814
   25.878342   50.204514
   25.877621   50.202743
   25.871956   50.197572
   25.869914   50.194832
   25.868110   50.193608
   25.862939   50.188639
   25.860809   50.187508
   25.858848   50.187047
   25.855242   50.186772
   25.846397   50.184888
   25.844379   50.183422
   25.842590   50.182599
   25.840254   50.182145
   25.837441   50.180879
   25.834732   50.180311
   25.832458   50.179302
   25.828321   50.178748
   25.826986   50.177529
   25.825417   50.176715
   25.821376   50.175986
   25.818650   50.176205
   25.815662   50.177426
   25.813115   50.177571
   25.808248   50.178906
   25.800613   50.179597
   25.796527   50.180378
   25.791862   50.179144
   25.790007   50.178243
   25.785862   50.176977
   25.779294   50.176417
   25.775536   50.175737
   25.773038   50.175756
   25.770685   50.176254
   25.769307   50.176245
   25.767757   50.175168
   25.765319   50.174376
   25.758824   50.174254
   25.752598   50.175320
   25.742576   50.178924
   25.735524   50.180618
   25.733127   50.180430
   25.730920   50.176003
   25.731889   50.173764
   25.731424   50.171792
   25.729561   50.169962
   25.727326   50.168881
   25.725308   50.168478
   25.720217   50.168437
   25.707980   50.167361
   25.704053   50.166621
   25.701989   50.166643
   25.700022   50.167037
   25.698314   50.167771
   25.691025   50.172868
   25.686799   50.172523
   25.629438   50.148424
   25.626876   50.147756
   25.623428   50.147862
   25.620980   50.148685
   25.613997   50.152794
   25.604799   50.159554
   25.590493   50.165653
   25.578671   50.170269
   25.560173   50.147891
   25.557574   50.146387
   25.554866   50.145870
   25.552742   50.145946
   25.549961   50.146690
   25.542083   50.147645
   25.496820   50.152249
   25.493940   50.153498
   25.492533   50.155033
   25.492167   50.156792
   25.493080   50.160398
   25.478457   50.161406
   25.456348   50.148477
   25.455686   50.125286
   25.459901   50.121010
   25.485566   50.118536
   25.487473   50.118037
   25.489076   50.117214
   25.490724   50.115318
   25.495934   50.102986
   25.496125   50.101274
   25.495296   50.099641
   25.493565   50.098321
   25.491183   50.097503
   25.473032   50.094955
   25.472295   50.092514
   25.470054   50.090868
   25.467541   50.090152
   25.462403   50.089955
   25.464342   50.082312
   25.463702   50.080134
   25.461506   50.078411
   25.458242   50.077525
   25.457835   50.073628
   25.457004   50.072369
   25.455618   50.071324
   25.453130   50.070424
   25.444762   50.068686
   25.438538   50.051915
   25.437348   50.050432
   25.435472   50.049275
   25.427153   50.046967
   25.422684   50.046084
   25.413725   50.045112
   25.405144   50.044546
   25.385672   50.044361
   25.379390   50.043222
   25.370117   50.042104
   25.365867   50.015488
   25.364144   50.013620
   25.361893   50.012629
   25.359218   50.012248
   25.355744   50.012529
   25.353753   50.003361
   25.353117   50.002069
   25.351907   50.000954
   25.350230   50.000116
   25.346819   49.999523
   25.344701   49.999701
   25.342761   50.000268
   25.336415   50.003920
   25.325685   50.008451
   25.318991   50.010209
   25.316395   50.011341
   25.313623   50.013103
   25.311661   50.015679
   25.310906   50.017640
   25.306270   50.020551
   25.303477   50.022786
   25.299672   50.028070
   25.296064   50.030220
   25.293879   50.032726
   25.278012   50.047677
   25.263198   50.059551
   25.258907   50.064749
   25.240544   50.080733
   25.233704   50.087633
   25.226065   50.094616
   25.214782   50.104007
   25.204980   50.112819
   25.201231   50.116779
   25.190393   50.129757
   25.190107   50.131150
   25.190634   50.133656
   25.195398   50.145767
   25.197923   50.150714
   25.199455   50.155373
   25.200018   50.159670
   25.197074   50.160538
   25.194886   50.162195
   25.194176   50.163869
   25.194060   50.167652
   25.198601   50.172989
   25.200759   50.174074
   25.204757   50.174899
   25.206562   50.178941
   25.202024   50.182325
   25.200420   50.183115
   25.186852   50.189019
   25.176089   50.193263
   25.164727   50.199231
   25.163014   50.200768
   25.160097   50.204622
   25.159661   50.206405
   25.158437   50.208211
   25.158290   50.209477
   25.159714   50.214839
   25.159285   50.217715
   25.160805   50.219796
   25.163345   50.225342
   25.165219   50.226645
   25.167067   50.227268
   25.176730   50.228254
   25.176550   50.228929
   25.174603   50.231115
   25.174564   50.233325
   25.175988   50.236899
   25.181372   50.245644
   25.181576   50.247140
   25.184027   50.251170
   25.185892   50.252459
   25.188389   50.253204
   25.190454   50.253335
   25.196435   50.252812
   25.196238   50.260414
   25.197163   50.276771
   25.172666   50.284868
   25.162604   50.285831
   25.156002   50.284954
   25.145522   50.282428
   25.139513   50.280179
   25.130646   50.277842
   25.127550   50.277592
   25.115077   50.278857
   25.109007   50.281088
   25.106681   50.282650
   25.105813   50.284284
   25.104976   50.290222
   25.098485   50.290984
   25.096192   50.292060
   25.094746   50.293617
   25.093335   50.299791
   25.093507   50.301514
   25.094303   50.302710
   25.095602   50.303713
   25.097298   50.304442
   25.099453   50.304851
   25.099974   50.307210
   25.102390   50.309150
   25.101962   50.312979
   25.102653   50.314264
   25.103914   50.315361
   25.106281   50.316366
   25.109080   50.316704
   25.123439   50.315699
   25.122579   50.317598
   25.122600   50.319386
   25.123339   50.320646
   25.125165   50.322009
   25.155720   50.332309
   25.150001   50.337248
   25.141552   50.340610
   25.140098   50.341563
   25.139142   50.342742
   25.138767   50.344045
   25.139218   50.345783
   25.144057   50.352069
   25.140809   50.356686
   25.137320   50.360730
   25.137075   50.362545
   25.137818   50.364074
   25.134876   50.366434
   25.134011   50.367610
   25.133836   50.369757
   25.135583   50.372337
   25.137786   50.373477
   25.144849   50.375636
   25.147353   50.375997
   25.149639   50.375881
   25.153208   50.376559
   25.154927   50.378891
   25.155541   50.381193
   25.156727   50.382408
   25.159151   50.383694
   25.163087   50.384340
   25.170634   50.384122
   25.172612   50.383618
   25.174268   50.382766
   25.178734   50.378764
   25.181017   50.374197
   25.181149   50.372598
   25.183210   50.371348
   25.184813   50.369267
   25.187798   50.369393
   25.190166   50.368887
   25.194744   50.369068
   25.196552   50.370540
   25.197300   50.372757
   25.198985   50.375696
   25.200825   50.377315
   25.198933   50.379047
   25.197774   50.381254
   25.197675   50.382960
   25.196329   50.383984
   25.195278   50.385577
   25.194867   50.386989
   25.195139   50.389011
   25.190022   50.390797
   25.185318   50.391419
   25.183828   50.389856
   25.181624   50.388761
   25.178883   50.388260
   25.176127   50.388299
   25.169272   50.389900
   25.164595   50.392645
   25.163170   50.394037
   25.161378   50.397308
   25.161336   50.398680
   25.161976   50.400549
   25.163683   50.402818
   25.163286   50.404945
   25.162233   50.406926
   25.162445   50.408623
   25.161209   50.409649
   25.160243   50.411198
   25.160157   50.414106
   25.158114   50.415072
   25.154710   50.417507
   25.153646   50.419164
   25.151701   50.420847
   25.150538   50.422878
   25.138920   50.422945
   25.135673   50.423922
   25.133051   50.426027
   25.131847   50.427834
   25.131651   50.429871
   25.129863   50.431309
   25.129046   50.432894
   25.129063   50.434321
   25.130201   50.438066
   25.131834   50.440186
   25.134141   50.441456
   25.134550   50.442918
   25.136105   50.444593
   25.138928   50.445834
   25.142709   50.446178
   25.144159   50.447318
   25.143826   50.447963
   25.136554   50.448433
   25.134609   50.448867
   25.132941   50.449634
   25.131689   50.450671
   25.130839   50.452322
   25.131568   50.455504
   25.127736   50.455685
   25.122467   50.456718
   25.110028   50.461191
   25.095615   50.463963
   25.090109   50.465935
   25.085002   50.468341
   25.078531   50.472575
   25.077089   50.474618
   25.077045   50.475970
   25.077965   50.477670
   25.079857   50.479010
   25.082424   50.479777
END
END
