sevastopol
1
   33.084897   44.575342
   33.085115   44.589525
   33.086710   44.603972
   33.089686   44.618304
   33.094029   44.632456
   33.099719   44.646360
   33.106729   44.659952
   33.115026   44.673169
   33.124572   44.685949
   33.135322   44.698233
   33.147226   44.709965
   33.160228   44.721089
   33.174267   44.731554
   33.189278   44.741312
   33.205191   44.750318
   33.221932   44.758529
   33.239311   44.765863
   33.237009   44.778882
   33.235866   44.792993
   33.236093   44.807747
   33.237669   44.821830
   33.240645   44.836111
   33.244989   44.850212
   33.250679   44.864065
   33.252967   44.868506
   33.254363   44.875091
   33.258736   44.889177
   33.264455   44.903016
   33.271329   44.916254
   33.279829   44.929705
   33.289969   44.943058
   33.291716   44.944296
   33.293389   44.944856
   33.295217   44.945043
   33.297042   44.944843
   33.556225   44.844609
   33.558289   44.845579
   33.560121   44.845906
   33.562772   44.845821
   33.565310   44.845023
   33.567302   44.843735
   33.571238   44.842046
   33.572733   44.840704
   33.574590   44.834970
   33.577959   44.828084
   33.585857   44.816255
   33.589148   44.813046
   33.597834   44.814392
   33.605029   44.814846
   33.623041   44.810763
   33.641076   44.805719
   33.660559   44.800873
   33.666897   44.798818
   33.669851   44.797450
   33.673421   44.795262
   33.682088   44.789017
   33.683041   44.787869
   33.684081   44.785445
   33.685725   44.779861
   33.687156   44.776863
   33.689009   44.771117
   33.688769   44.768887
   33.686680   44.766690
   33.672953   44.761110
   33.637766   44.748711
   33.632461   44.747300
   33.619813   44.745657
   33.621088   44.738614
   33.619969   44.736570
   33.618688   44.735615
   33.617124   44.734982
   33.617196   44.734052
   33.619346   44.732925
   33.620750   44.730997
   33.622130   44.717495
   33.630773   44.717625
   33.637056   44.717388
   33.659521   44.718759
   33.662507   44.718131
   33.665432   44.716716
   33.671937   44.714374
   33.688244   44.716838
   33.695723   44.719065
   33.700903   44.719333
   33.702826   44.719068
   33.705368   44.718193
   33.706760   44.717371
   33.708003   44.715912
   33.709266   44.715386
   33.709593   44.717116
   33.710400   44.718359
   33.711688   44.719370
   33.713340   44.720059
   33.717860   44.720494
   33.720197   44.720394
   33.726095   44.721145
   33.728012   44.721043
   33.729797   44.720531
   33.731688   44.719298
   33.739716   44.710506
   33.741831   44.709034
   33.749602   44.704898
   33.752830   44.703692
   33.756261   44.704488
   33.757910   44.705326
   33.759632   44.705719
   33.762035   44.705671
   33.764618   44.704927
   33.767939   44.702660
   33.769829   44.702278
   33.771390   44.701542
   33.778127   44.695832
   33.781832   44.693144
   33.782768   44.692042
   33.783273   44.690364
   33.783055   44.689082
   33.782003   44.687541
   33.773973   44.681222
   33.772022   44.678941
   33.770623   44.678156
   33.768145   44.677350
   33.763385   44.674447
   33.761135   44.672590
   33.759791   44.671991
   33.758905   44.668565
   33.759138   44.664101
   33.756853   44.660977
   33.753080   44.657513
   33.734960   44.644238
   33.732417   44.639613
   33.730848   44.637737
   33.728803   44.636122
   33.726470   44.634908
   33.727996   44.632873
   33.728096   44.630853
   33.725110   44.626014
   33.723036   44.621384
   33.727358   44.617148
   33.732784   44.610671
   33.734157   44.607487
   33.735323   44.606919
   33.738761   44.609301
   33.748040   44.612289
   33.753519   44.613251
   33.758260   44.613044
   33.763694   44.613583
   33.769326   44.615367
   33.778173   44.617519
   33.780532   44.617581
   33.782758   44.617016
   33.786007   44.614679
   33.787321   44.612726
   33.788238   44.610433
   33.789254   44.604326
   33.787782   44.599396
   33.788019   44.598103
   33.789879   44.593977
   33.792162   44.591315
   33.792964   44.589329
   33.794826   44.588908
   33.796321   44.588161
   33.798031   44.586182
   33.800565   44.586220
   33.803891   44.585206
   33.805246   44.584347
   33.808047   44.581490
   33.811426   44.581272
   33.813503   44.581632
   33.818038   44.581769
   33.821167   44.581150
   33.824190   44.580010
   33.827873   44.577622
   33.832309   44.573923
   33.833457   44.571872
   33.833688   44.563944
   33.834840   44.561953
   33.837052   44.556366
   33.839090   44.553303
   33.841948   44.551769
   33.843207   44.550186
   33.843403   44.547920
   33.841639   44.543712
   33.843858   44.542298
   33.845160   44.540413
   33.846231   44.538347
   33.846875   44.535003
   33.851048   44.535004
   33.855389   44.533325
   33.862082   44.528797
   33.863291   44.527215
   33.863541   44.525419
   33.862461   44.523310
   33.856159   44.519495
   33.858353   44.517955
   33.863748   44.511687
   33.867372   44.512271
   33.869958   44.512089
   33.872110   44.511401
   33.874153   44.509908
   33.876568   44.507165
   33.877042   44.505060
   33.876120   44.503033
   33.873521   44.501040
   33.878553   44.495535
   33.881137   44.493736
   33.888970   44.487132
   33.891278   44.485667
   33.898375   44.483866
   33.901570   44.482015
   33.902653   44.480997
   33.903651   44.478695
   33.903744   44.477018
   33.902771   44.475026
   33.901133   44.473570
   33.903028   44.470981
   33.905866   44.464751
   33.913628   44.453032
   33.917990   44.445103
   33.919508   44.443122
   33.920444   44.440952
   33.926665   44.431216
   33.929684   44.425823
   33.931742   44.423564
   33.932477   44.421753
   33.932247   44.420043
   33.931495   44.418869
   33.930311   44.417895
   33.926767   44.416485
   33.923230   44.415778
   33.909825   44.414371
   33.902647   44.414608
   33.899526   44.415373
   33.896513   44.416780
   33.886610   44.415929
   33.882522   44.416458
   33.879856   44.415576
   33.875534   44.414680
   33.871153   44.414339
   33.859460   44.415357
   33.855408   44.413856
   33.852422   44.413581
   33.849022   44.412781
   33.838123   44.407817
   33.835038   44.406005
   33.831075   44.404580
   33.828650   44.404415
   33.826874   44.404735
   33.823025   44.406736
   33.816832   44.405891
   33.812608   44.403873
   33.808057   44.402294
   33.806469   44.401389
   33.799661   44.399797
   33.795282   44.399571
   33.792892   44.399973
   33.791142   44.400640
   33.792190   44.398492
   33.792185   44.396345
   33.791456   44.395029
   33.789318   44.393248
   33.780043   44.389994
   33.775739   44.389112
   33.770411   44.388475
   33.769186   44.388186
   33.767582   44.387296
   33.702726   44.190001
   33.701745   44.188435
   33.699501   44.187027
   33.697208   44.186538
   33.694826   44.186697
   33.675301   44.190796
   33.654413   44.196417
   33.634814   44.200473
   33.615696   44.205500
   33.596734   44.211581
   33.579153   44.218285
   33.562599   44.225665
   33.547105   44.228918
   33.528414   44.233842
   33.509451   44.239920
   33.491498   44.246774
   33.474596   44.254318
   33.458096   44.262841
   33.442125   44.272354
   33.427720   44.282198
   33.417050   44.290542
   33.400248   44.293188
   33.380724   44.297279
   33.361635   44.302314
   33.343070   44.308269
   33.325489   44.314962
   33.308215   44.322650
   33.291715   44.331163
   33.276065   44.340460
   33.261037   44.350718
   33.247324   44.361464
   33.234669   44.372852
   33.223362   44.384569
   33.212968   44.397067
   33.203556   44.410413
   33.184372   44.421559
   33.169967   44.431379
   33.156232   44.442096
   33.143296   44.453703
   33.131990   44.465403
   33.121596   44.477885
   33.112419   44.490840
   33.104503   44.504211
   33.097884   44.517932
   33.092593   44.531941
   33.088656   44.546171
   33.086090   44.560557
   33.084897   44.575342
END
END
