sumy
1
   32.936439   51.091985
   32.945484   51.101699
   32.959926   51.115965
   32.983516   51.142240
   32.969682   51.149741
   32.955217   51.159609
   32.954020   51.160719
   32.953392   51.162002
   32.953526   51.163786
   32.954741   51.165398
   32.976114   51.183091
   32.972292   51.184898
   32.970642   51.186278
   32.969933   51.187949
   32.970512   51.190073
   32.983059   51.199780
   32.985360   51.200920
   32.994618   51.202261
   33.022366   51.204346
   33.022427   51.205670
   33.023106   51.206941
   33.025430   51.208607
   33.028027   51.209304
   33.033841   51.209710
   33.032199   51.218141
   33.028671   51.220466
   33.023503   51.225061
   33.022551   51.227108
   33.022936   51.228804
   33.024291   51.230288
   33.042320   51.243439
   33.056528   51.253246
   33.054904   51.254241
   33.053721   51.255805
   33.051182   51.265811
   33.051170   51.267177
   33.051803   51.268482
   33.053543   51.269926
   33.058812   51.271525
   33.058589   51.276280
   33.059767   51.277914
   33.061509   51.278981
   33.059854   51.280318
   33.058466   51.282647
   33.056427   51.283302
   33.054839   51.284261
   33.050121   51.283776
   33.047719   51.283856
   33.045693   51.284270
   33.043870   51.285095
   33.040765   51.285352
   33.038231   51.286081
   33.036727   51.287002
   33.035710   51.288159
   33.034377   51.292017
   33.037224   51.297352
   33.038464   51.298473
   33.040800   51.299501
   33.040448   51.300985
   33.040778   51.302706
   33.042312   51.304656
   33.047002   51.307010
   33.052431   51.307834
   33.055550   51.310435
   33.058883   51.311903
   33.060805   51.312346
   33.063149   51.312403
   33.064203   51.313789
   33.065950   51.314940
   33.066227   51.317303
   33.069540   51.321003
   33.067575   51.323494
   33.064304   51.325627
   33.063257   51.326683
   33.061630   51.329210
   33.061478   51.332270
   33.062000   51.333593
   33.063122   51.334757
   33.066661   51.336462
   33.068439   51.339592
   33.062361   51.341430
   33.059882   51.340641
   33.056574   51.340252
   33.054828   51.339089
   33.052970   51.338462
   33.049545   51.338246
   33.047091   51.337404
   33.044253   51.337226
   33.042175   51.337565
   33.038870   51.338719
   33.035832   51.340972
   33.035053   51.342153
   33.034873   51.343797
   33.030287   51.347558
   33.029269   51.349547
   33.028230   51.357722
   33.028366   51.359774
   33.028728   51.360931
   33.032152   51.366328
   33.029714   51.367391
   33.027818   51.368852
   33.025309   51.373397
   33.016562   51.382992
   33.010022   51.394930
   33.009805   51.396241
   33.010196   51.397536
   33.011597   51.399048
   33.013801   51.400110
   33.033687   51.404762
   33.035073   51.406618
   33.037860   51.407959
   33.038131   51.410707
   33.039923   51.413203
   33.043275   51.414670
   33.046755   51.414909
   33.048782   51.414531
   33.050546   51.413794
   33.061329   51.407665
   33.063306   51.405782
   33.063697   51.404439
   33.063436   51.403083
   33.059230   51.397619
   33.059187   51.395947
   33.058169   51.394353
   33.056823   51.393379
   33.055097   51.392686
   33.047453   51.390985
   33.053706   51.389426
   33.061404   51.388195
   33.064473   51.386671
   33.069517   51.381813
   33.070414   51.380093
   33.069934   51.377858
   33.068743   51.376437
   33.067253   51.375403
   33.077466   51.374154
   33.083252   51.376665
   33.085344   51.376972
   33.087486   51.376872
   33.090086   51.376127
   33.092315   51.374449
   33.096392   51.373660
   33.097960   51.372819
   33.099132   51.371659
   33.100044   51.371548
   33.099562   51.373048
   33.099871   51.374507
   33.098759   51.376925
   33.098897   51.378450
   33.099652   51.380049
   33.098092   51.380425
   33.094510   51.380264
   33.091764   51.380880
   33.090086   51.381773
   33.088524   51.383145
   33.085120   51.384624
   33.083574   51.386555
   33.083623   51.388719
   33.086291   51.392361
   33.088161   51.393653
   33.090667   51.394398
   33.092740   51.394528
   33.095634   51.394164
   33.109347   51.393933
   33.113257   51.393259
   33.116182   51.392115
   33.117612   51.391127
   33.119736   51.390784
   33.122015   51.389797
   33.123533   51.388338
   33.124459   51.385788
   33.126116   51.385580
   33.125315   51.393856
   33.126330   51.396066
   33.117565   51.397116
   33.115059   51.397945
   33.112527   51.400158
   33.111471   51.404178
   33.112097   51.405879
   33.114221   51.407589
   33.116685   51.408377
   33.119620   51.408535
   33.125604   51.415621
   33.107838   51.425222
   33.106325   51.426718
   33.105840   51.428467
   33.117690   51.462042
   33.119228   51.463671
   33.127848   51.468442
   33.123927   51.477574
   33.123684   51.478969
   33.124655   51.483021
   33.129393   51.495356
   33.131303   51.497895
   33.133195   51.499147
   33.135030   51.499738
   33.137560   51.499971
   33.139580   51.500931
   33.141592   51.501346
   33.149565   51.501201
   33.153573   51.500388
   33.156622   51.499024
   33.162501   51.502026
   33.168320   51.503762
   33.171350   51.509182
   33.173452   51.510858
   33.175226   51.511498
   33.177213   51.511795
   33.185563   51.511336
   33.186060   51.514025
   33.186262   51.519464
   33.184629   51.520336
   33.183338   51.521596
   33.179278   51.528761
   33.178423   51.531653
   33.178587   51.535577
   33.178020   51.535997
   33.170969   51.537625
   33.163898   51.539679
   33.161645   51.540718
   33.160465   51.541815
   33.159839   51.543081
   33.159329   51.551163
   33.155661   51.551474
   33.153727   51.551944
   33.151630   51.553074
   33.150590   51.554206
   33.150078   51.555918
   33.150174   51.564886
   33.150507   51.566220
   33.151858   51.567769
   33.151403   51.569117
   33.151605   51.570471
   33.152435   51.571726
   33.153817   51.572768
   33.156991   51.573788
   33.165356   51.574441
   33.191568   51.577268
   33.193858   51.577125
   33.203513   51.575306
   33.205971   51.577883
   33.191115   51.579048
   33.187974   51.579797
   33.186071   51.581003
   33.171795   51.594346
   33.154708   51.602796
   33.151873   51.603127
   33.149008   51.604468
   33.147686   51.606074
   33.147212   51.608927
   33.147510   51.636810
   33.139720   51.635415
   33.137602   51.635371
   33.134923   51.635922
   33.131327   51.637762
   33.128656   51.637420
   33.125907   51.637754
   33.123096   51.639058
   33.119545   51.643075
   33.118402   51.645297
   33.117699   51.648710
   33.118019   51.651332
   33.119623   51.654438
   33.121357   51.656826
   33.125906   51.661510
   33.129698   51.663859
   33.133322   51.665080
   33.137433   51.669081
   33.134323   51.670618
   33.133362   51.671785
   33.132973   51.673078
   33.133419   51.675476
   33.133134   51.677648
   33.133677   51.678911
   33.135662   51.681277
   33.139230   51.682938
   33.136590   51.689427
   33.136889   51.691983
   33.137587   51.693211
   33.139869   51.694821
   33.144003   51.696192
   33.146778   51.696214
   33.149574   51.695708
   33.154804   51.693600
   33.156611   51.694420
   33.161145   51.695568
   33.162548   51.696750
   33.159043   51.696808
   33.154208   51.698019
   33.152420   51.698722
   33.150136   51.700186
   33.148908   51.701273
   33.147352   51.703727
   33.146485   51.706852
   33.141409   51.712267
   33.129481   51.718996
   33.128230   51.720097
   33.127551   51.721384
   33.127506   51.722739
   33.128097   51.724042
   33.129573   51.725367
   33.123280   51.728804
   33.120702   51.729876
   33.118343   51.732081
   33.113582   51.733802
   33.109648   51.736186
   33.104856   51.738039
   33.097263   51.743816
   33.093808   51.747609
   33.091822   51.752045
   33.090155   51.753280
   33.089103   51.754778
   33.088901   51.756528
   33.087258   51.759333
   33.087300   51.760652
   33.088109   51.762098
   33.086688   51.764664
   33.083010   51.764693
   33.080555   51.765220
   33.078816   51.766009
   33.076575   51.768461
   33.074953   51.769236
   33.073690   51.770336
   33.072499   51.771967
   33.071584   51.774733
   33.071401   51.776122
   33.072205   51.777904
   33.074296   51.779798
   33.077181   51.781453
   33.079416   51.784221
   33.081050   51.785111
   33.083231   51.785679
   33.084453   51.787710
   33.086431   51.788996
   33.090254   51.789933
   33.093726   51.789840
   33.095493   51.792076
   33.098302   51.793958
   33.100499   51.794820
   33.100809   51.796682
   33.102140   51.798201
   33.107510   51.800748
   33.110869   51.805139
   33.114659   51.808525
   33.115331   51.811847
   33.117072   51.813703
   33.121265   51.815437
   33.126769   51.818608
   33.131832   51.820271
   33.135283   51.820521
   33.139198   51.819728
   33.134883   51.828574
   33.134371   51.829046
   33.131247   51.828838
   33.127116   51.829791
   33.123206   51.832121
   33.121798   51.834182
   33.121081   51.837293
   33.121193   51.838927
   33.120541   51.840636
   33.117708   51.841944
   33.116035   51.843790
   33.115631   51.845948
   33.116743   51.851639
   33.117986   51.856083
   33.119314   51.857612
   33.117647   51.859139
   33.116544   51.861347
   33.116343   51.863865
   33.116866   51.865254
   33.118342   51.867255
   33.119858   51.868274
   33.123929   51.869553
   33.126870   51.869718
   33.126763   51.872018
   33.128078   51.874094
   33.131960   51.876594
   33.135626   51.877741
   33.137350   51.879916
   33.140301   51.881452
   33.146440   51.882976
   33.151018   51.883321
   33.155425   51.884865
   33.159858   51.885749
   33.168719   51.886123
   33.174117   51.888720
   33.172928   51.891443
   33.172657   51.893432
   33.171536   51.895284
   33.169476   51.895747
   33.167297   51.896663
   33.164955   51.898649
   33.164362   51.900412
   33.164643   51.902638
   33.165363   51.903881
   33.168591   51.907217
   33.171419   51.909181
   33.173410   51.909832
   33.175842   51.910167
   33.179462   51.909909
   33.179570   51.911833
   33.180716   51.914128
   33.182446   51.915563
   33.184090   51.916394
   33.186739   51.916966
   33.191259   51.917110
   33.194623   51.916411
   33.198962   51.914438
   33.208951   51.917377
   33.213850   51.917411
   33.216313   51.917035
   33.219136   51.917792
   33.221732   51.918028
   33.226633   51.917008
   33.229603   51.915226
   33.230809   51.914083
   33.231344   51.916417
   33.232880   51.918471
   33.235340   51.919924
   33.238351   51.920493
   33.238829   51.922112
   33.239879   51.923357
   33.242565   51.924940
   33.244903   51.925668
   33.245175   51.927293
   33.245940   51.928523
   33.247236   51.929560
   33.248950   51.930316
   33.253189   51.930883
   33.257327   51.930203
   33.260615   51.928843
   33.264941   51.925943
   33.267697   51.926962
   33.272053   51.927594
   33.285321   51.927250
   33.285500   51.928518
   33.286627   51.930556
   33.288674   51.932189
   33.288757   51.933556
   33.289773   51.936065
   33.290736   51.937210
   33.292173   51.938135
   33.293965   51.938764
   33.296652   51.939058
   33.302393   51.938019
   33.305607   51.938523
   33.312773   51.940890
   33.314826   51.941270
   33.317692   51.941295
   33.321353   51.940433
   33.323394   51.939124
   33.324471   51.937301
   33.328798   51.936329
   33.331076   51.935298
   33.332381   51.934218
   33.349675   51.935214
   33.348583   51.938015
   33.348689   51.939739
   33.350272   51.941682
   33.350800   51.943160
   33.353511   51.947222
   33.357421   51.950007
   33.359926   51.950662
   33.362639   51.950680
   33.363313   51.952958
   33.365390   51.955421
   33.366605   51.956315
   33.371558   51.958486
   33.376898   51.959235
   33.381619   51.958902
   33.386932   51.957380
   33.388720   51.957612
   33.389268   51.958720
   33.388269   51.960166
   33.386254   51.962413
   33.380185   51.967730
   33.377018   51.966410
   33.374086   51.965941
   33.371090   51.966037
   33.368184   51.966888
   33.366179   51.968109
   33.364861   51.969848
   33.364425   51.972445
   33.364866   51.974384
   33.359521   51.975435
   33.355356   51.977163
   33.349268   51.978411
   33.346522   51.979612
   33.344605   51.980981
   33.343341   51.982465
   33.342557   51.984817
   33.342530   51.989617
   33.340570   51.993608
   33.341069   51.995526
   33.338157   51.997130
   33.332492   52.002374
   33.313603   52.005727
   33.301313   52.008718
   33.299612   52.009465
   33.298321   52.010488
   33.296463   52.014619
   33.296770   52.016722
   33.300237   52.020198
   33.301747   52.021163
   33.304329   52.021930
   33.307586   52.021942
   33.306086   52.025140
   33.306318   52.026920
   33.308267   52.031072
   33.311408   52.034539
   33.312914   52.035512
   33.314810   52.036158
   33.317644   52.036413
   33.343996   52.034108
   33.347580   52.035386
   33.351456   52.035459
   33.358299   52.041654
   33.360808   52.043311
   33.363897   52.044629
   33.387561   52.054186
   33.401500   52.055935
   33.403559   52.055849
   33.406082   52.055168
   33.407604   52.054287
   33.408919   52.052913
   33.416950   52.035928
   33.428625   52.031017
   33.429561   52.031612
   33.432721   52.035127
   33.434877   52.036395
   33.437863   52.037243
   33.453749   52.040270
   33.462856   52.042950
   33.492951   52.042900
   33.492619   52.055518
   33.493147   52.057912
   33.492738   52.069172
   33.493532   52.071439
   33.493392   52.078704
   33.489633   52.078420
   33.464909   52.082146
   33.458408   52.082777
   33.455936   52.083503
   33.454039   52.084799
   33.449398   52.084675
   33.439164   52.083362
   33.437113   52.083409
   33.434570   52.084037
   33.432585   52.085222
   33.431640   52.086374
   33.431267   52.089266
   33.431867   52.090522
   33.437093   52.096234
   33.435553   52.097508
   33.428890   52.105673
   33.422279   52.107255
   33.407353   52.111582
   33.404612   52.112866
   33.403300   52.114387
   33.403075   52.116539
   33.403721   52.117776
   33.407030   52.121153
   33.362567   52.135068
   33.349499   52.138285
   33.349008   52.134388
   33.347972   52.132762
   33.345443   52.131275
   33.342106   52.130711
   33.322420   52.131709
   33.319824   52.132354
   33.317815   52.133577
   33.316883   52.134766
   33.316557   52.136517
   33.317859   52.141241
   33.318829   52.148176
   33.319630   52.150254
   33.321898   52.152478
   33.321646   52.154564
   33.322031   52.155868
   33.322997   52.157046
   33.325041   52.158247
   33.326969   52.158770
   33.329457   52.158954
   33.326446   52.160414
   33.325227   52.161425
   33.324378   52.163028
   33.324275   52.165239
   33.321424   52.165825
   33.317214   52.167541
   33.315755   52.168476
   33.309881   52.175302
   33.309617   52.176931
   33.310165   52.179231
   33.307365   52.179977
   33.305744   52.180794
   33.303336   52.183625
   33.303281   52.185844
   33.304783   52.187720
   33.304518   52.190103
   33.304938   52.192025
   33.306442   52.194074
   33.309606   52.195808
   33.312957   52.196537
   33.315817   52.196566
   33.317252   52.197459
   33.319339   52.198126
   33.320588   52.200627
   33.323364   52.202274
   33.322607   52.203837
   33.320152   52.205219
   33.318929   52.206347
   33.318227   52.208336
   33.315744   52.208441
   33.313791   52.208953
   33.308805   52.211824
   33.307483   52.213829
   33.307469   52.215140
   33.308050   52.216399
   33.316021   52.223253
   33.318356   52.224750
   33.321585   52.225943
   33.324893   52.226109
   33.329019   52.225131
   33.331746   52.223151
   33.332957   52.221020
   33.334380   52.222564
   33.336147   52.223710
   33.339387   52.225022
   33.343230   52.225674
   33.348898   52.225389
   33.349610   52.227970
   33.351078   52.230167
   33.356558   52.233739
   33.355502   52.235316
   33.355295   52.237517
   33.355803   52.238865
   33.358048   52.241578
   33.356432   52.242488
   33.354500   52.244237
   33.353571   52.246525
   33.353957   52.248650
   33.352064   52.250320
   33.350599   52.253449
   33.350550   52.254807
   33.351434   52.256469
   33.352273   52.259904
   33.353270   52.261107
   33.354788   52.262069
   33.356688   52.262702
   33.358801   52.262950
   33.360934   52.262791
   33.364466   52.261924
   33.366992   52.260562
   33.369907   52.262137
   33.375237   52.268218
   33.373417   52.269670
   33.372667   52.271649
   33.370576   52.273579
   33.370040   52.275227
   33.370340   52.276961
   33.371999   52.278924
   33.376239   52.281021
   33.377206   52.282283
   33.377070   52.285695
   33.378316   52.287980
   33.378399   52.289414
   33.379380   52.291290
   33.381296   52.293009
   33.379762   52.294340
   33.379139   52.295545
   33.379069   52.296812
   33.379768   52.298675
   33.381282   52.300120
   33.390143   52.305803
   33.382779   52.310549
   33.381942   52.312088
   33.379672   52.314679
   33.379515   52.316044
   33.380011   52.317377
   33.382750   52.319690
   33.386390   52.320703
   33.390381   52.320799
   33.392492   52.320509
   33.397236   52.318404
   33.398196   52.320246
   33.398075   52.322717
   33.399257   52.324332
   33.401955   52.325746
   33.407225   52.326441
   33.408436   52.327241
   33.409227   52.329686
   33.410293   52.331139
   33.413034   52.333476
   33.416905   52.335219
   33.419595   52.342037
   33.422743   52.348140
   33.425233   52.349619
   33.427837   52.350165
   33.429899   52.350143
   33.435163   52.349284
   33.433130   52.350739
   33.432224   52.352889
   33.432750   52.354645
   33.435682   52.358207
   33.438283   52.359958
   33.442037   52.361383
   33.444381   52.361813
   33.449068   52.367729
   33.450458   52.368743
   33.452256   52.369455
   33.454306   52.369802
   33.456427   52.369753
   33.459043   52.369085
   33.461904   52.367647
   33.464297   52.367794
   33.466392   52.367489
   33.474944   52.363389
   33.485081   52.362546
   33.492252   52.361482
   33.495180   52.360766
   33.500722   52.361380
   33.506732   52.362479
   33.510660   52.362458
   33.512777   52.361976
   33.523063   52.358277
   33.524494   52.357214
   33.525483   52.355466
   33.526161   52.351675
   33.525698   52.350343
   33.524704   52.349226
   33.524403   52.347811
   33.526454   52.345571
   33.526837   52.343440
   33.525806   52.340519
   33.520885   52.336629
   33.520281   52.335157
   33.520397   52.333096
   33.519703   52.331861
   33.517968   52.330508
   33.514474   52.329294
   33.509771   52.328749
   33.507122   52.328034
   33.505208   52.327943
   33.502586   52.327100
   33.496222   52.326648
   33.495661   52.321638
   33.494760   52.320384
   33.490704   52.316632
   33.490304   52.315472
   33.492570   52.315417
   33.497364   52.316516
   33.500835   52.316218
   33.503666   52.314913
   33.508063   52.310844
   33.525861   52.311994
   33.529004   52.311357
   33.534323   52.308898
   33.555608   52.307163
   33.557966   52.310620
   33.554908   52.311485
   33.552460   52.312567
   33.549320   52.314283
   33.548092   52.315433
   33.540765   52.317134
   33.538473   52.318841
   33.537833   52.320131
   33.537010   52.324774
   33.538337   52.326819
   33.540415   52.328012
   33.542367   52.328521
   33.544469   52.328649
   33.546537   52.328382
   33.549258   52.327439
   33.552195   52.327555
   33.554140   52.327279
   33.571100   52.320661
   33.575995   52.324072
   33.580672   52.325917
   33.582939   52.326469
   33.585540   52.328689
   33.589470   52.330669
   33.591349   52.331225
   33.597056   52.335203
   33.598365   52.336853
   33.600495   52.337993
   33.606148   52.339228
   33.609459   52.339388
   33.611741   52.340059
   33.616114   52.340766
   33.618157   52.341277
   33.620498   52.342475
   33.623875   52.343364
   33.630370   52.343388
   33.637174   52.344282
   33.643155   52.344167
   33.649613   52.345513
   33.654096   52.346073
   33.661370   52.348634
   33.663949   52.348995
   33.666814   52.350691
   33.671385   52.351911
   33.670991   52.355155
   33.672732   52.357691
   33.675213   52.359361
   33.680342   52.361499
   33.684177   52.362377
   33.690443   52.362153
   33.696961   52.363106
   33.699364   52.364714
   33.705706   52.367037
   33.708645   52.367463
   33.717430   52.367335
   33.720803   52.366736
   33.723321   52.365195
   33.728644   52.358378
   33.732488   52.358731
   33.735471   52.360418
   33.737219   52.361028
   33.743470   52.361538
   33.745615   52.364277
   33.748593   52.365605
   33.770121   52.367771
   33.775253   52.369869
   33.784676   52.371096
   33.792963   52.371230
   33.806087   52.370760
   33.818860   52.367920
   33.822392   52.368591
   33.826015   52.368479
   33.839512   52.365483
   33.841322   52.364713
   33.842682   52.363634
   33.845714   52.359136
   33.845938   52.353726
   33.844940   52.350465
   33.845308   52.349614
   33.848701   52.347772
   33.849686   52.346599
   33.850128   52.344779
   33.857584   52.339275
   33.860804   52.336235
   33.862333   52.333694
   33.862257   52.331824
   33.860700   52.329219
   33.855768   52.325709
   33.849135   52.321769
   33.876086   52.311439
   33.879994   52.312091
   33.896754   52.312165
   33.899424   52.311667
   33.902168   52.310236
   33.903519   52.311327
   33.905268   52.312088
   33.909046   52.312974
   33.911754   52.313090
   33.914336   52.312561
   33.926229   52.308207
   33.927726   52.306826
   33.931734   52.301021
   33.932564   52.297112
   33.936796   52.294144
   33.940379   52.293676
   33.943111   52.292479
   33.950535   52.286161
   33.951691   52.284646
   33.951891   52.282968
   33.951320   52.281136
   33.952950   52.274183
   33.950477   52.267300
   33.949767   52.257370
   33.947835   52.253589
   33.948737   52.253450
   33.951567   52.253855
   33.953647   52.253683
   33.957794   52.252170
   33.959875   52.252391
   33.962629   52.252075
   33.964902   52.251422
   33.966430   52.250601
   33.968531   52.248299
   33.969017   52.246563
   33.968104   52.244445
   33.966203   52.243065
   33.968573   52.240594
   33.968966   52.238611
   33.973012   52.237191
   33.975414   52.236679
   33.979655   52.238555
   33.982385   52.238871
   33.984445   52.238660
   33.994064   52.235403
   34.005683   52.230460
   34.008160   52.227644
   34.009232   52.224868
   34.009394   52.222926
   34.008906   52.219533
   34.006456   52.211954
   34.018956   52.206281
   34.023974   52.205968
   34.039464   52.206677
   34.047931   52.205398
   34.052164   52.205898
   34.054309   52.205820
   34.056320   52.205342
   34.058016   52.204508
   34.059746   52.202543
   34.060251   52.198452
   34.066578   52.190238
   34.067773   52.187515
   34.070817   52.185848
   34.072148   52.183862
   34.072267   52.181716
   34.071712   52.180462
   34.065934   52.175640
   34.062730   52.171751
   34.065258   52.169114
   34.067573   52.167122
   34.071842   52.165339
   34.079455   52.159267
   34.091079   52.159338
   34.093927   52.158777
   34.113626   52.147939
   34.121260   52.144427
   34.122979   52.142976
   34.123595   52.141668
   34.123567   52.140304
   34.122540   52.138611
   34.120133   52.136649
   34.117896   52.122558
   34.117323   52.121184
   34.111721   52.116113
   34.108470   52.114151
   34.106954   52.111463
   34.103902   52.108791
   34.100879   52.107591
   34.098838   52.107266
   34.096669   52.107318
   34.095507   52.107006
   34.095728   52.105671
   34.094966   52.103320
   34.105936   52.095751
   34.107000   52.093721
   34.106471   52.091609
   34.105423   52.090501
   34.102906   52.088855
   34.100880   52.083577
   34.098963   52.081726
   34.097213   52.080976
   34.095193   52.080583
   34.087450   52.080306
   34.076987   52.074801
   34.080718   52.074941
   34.082736   52.074720
   34.085117   52.073884
   34.086482   52.072919
   34.087885   52.070126
   34.089671   52.059730
   34.091619   52.058034
   34.096389   52.056750
   34.099002   52.055217
   34.100036   52.053530
   34.100478   52.049733
   34.102331   52.048486
   34.104175   52.045669
   34.106672   52.044548
   34.108318   52.042619
   34.108469   52.040861
   34.107548   52.039200
   34.100467   52.034816
   34.102003   52.033024
   34.102508   52.031270
   34.101901   52.029528
   34.099643   52.026624
   34.101219   52.012374
   34.104068   52.009530
   34.111243   52.011272
   34.113260   52.011226
   34.115865   52.010640
   34.119221   52.011403
   34.126184   52.011051
   34.129542   52.010136
   34.131103   52.009378
   34.136676   52.008327
   34.139417   52.006606
   34.140927   52.004689
   34.145798   52.002483
   34.147634   52.000071
   34.147468   51.997815
   34.144853   51.994342
   34.141501   51.987067
   34.137425   51.983816
   34.142692   51.977300
   34.145033   51.976931
   34.147363   51.975882
   34.148578   51.974759
   34.149296   51.973091
   34.153377   51.973944
   34.162229   51.974496
   34.164895   51.974965
   34.177477   51.975277
   34.186600   51.973796
   34.191746   51.973360
   34.193633   51.972784
   34.195175   51.971888
   34.196240   51.970747
   34.197034   51.969028
   34.198471   51.960828
   34.201229   51.957306
   34.201882   51.955307
   34.208407   51.949377
   34.210246   51.947056
   34.210733   51.945398
   34.210253   51.943413
   34.213837   51.941400
   34.216189   51.940976
   34.218339   51.940053
   34.219998   51.938543
   34.220608   51.937095
   34.223624   51.935908
   34.225586   51.933599
   34.230062   51.932071
   34.232212   51.930330
   34.232820   51.928599
   34.232554   51.927275
   34.228018   51.921463
   34.234324   51.917962
   34.248729   51.920624
   34.250768   51.920685
   34.252752   51.920380
   34.255033   51.919451
   34.267733   51.911491
   34.268598   51.909798
   34.268363   51.908025
   34.265937   51.905155
   34.263300   51.903238
   34.263995   51.901378
   34.265355   51.899409
   34.265449   51.897674
   34.264503   51.896045
   34.262487   51.894426
   34.265714   51.890759
   34.266095   51.889424
   34.265771   51.887963
   34.267997   51.889403
   34.268829   51.890618
   34.270173   51.891623
   34.271918   51.892341
   34.273917   51.892711
   34.304063   51.891726
   34.307416   51.891060
   34.309863   51.889464
   34.310885   51.887136
   34.312974   51.886008
   34.316838   51.883141
   34.323710   51.879892
   34.325947   51.879740
   34.328443   51.878950
   34.332023   51.876931
   34.333598   51.874668
   34.346627   51.869923
   34.351493   51.867492
   34.355819   51.866584
   34.357736   51.865672
   34.363264   51.864128
   34.367614   51.862363
   34.371203   51.859543
   34.371777   51.858255
   34.371621   51.856608
   34.374289   51.855193
   34.375786   51.853767
   34.376316   51.851662
   34.375290   51.849627
   34.375872   51.848347
   34.379652   51.848781
   34.383552   51.848586
   34.386872   51.848862
   34.388885   51.848595
   34.390695   51.847978
   34.393198   51.846634
   34.394512   51.845124
   34.394838   51.843413
   34.394303   51.842005
   34.395090   51.840218
   34.399550   51.840422
   34.403223   51.839799
   34.404969   51.839188
   34.407095   51.837665
   34.408409   51.835976
   34.412634   51.834425
   34.417419   51.830335
   34.420830   51.828787
   34.422587   51.826632
   34.422715   51.825315
   34.421688   51.821209
   34.421942   51.819106
   34.421036   51.817500
   34.422867   51.815916
   34.423572   51.814567
   34.424046   51.808092
   34.422424   51.804797
   34.421216   51.800091
   34.418240   51.796006
   34.416189   51.790976
   34.415086   51.789659
   34.415133   51.788810
   34.416642   51.786490
   34.416973   51.784811
   34.419774   51.783402
   34.423534   51.782997
   34.426353   51.781670
   34.428744   51.779679
   34.429579   51.778138
   34.431947   51.777298
   34.433798   51.776011
   34.435485   51.772435
   34.437608   51.769336
   34.440658   51.768148
   34.442313   51.766779
   34.443269   51.764881
   34.444026   51.761467
   34.445377   51.759832
   34.445751   51.758514
   34.445343   51.756576
   34.443613   51.754760
   34.443224   51.753625
   34.443812   51.752196
   34.444051   51.748516
   34.446708   51.746040
   34.447626   51.743564
   34.446831   51.740742
   34.446954   51.738327
   34.446174   51.737113
   34.443397   51.734889
   34.443129   51.731512
   34.440723   51.728246
   34.439422   51.727221
   34.435819   51.725479
   34.432889   51.724892
   34.430673   51.724810
   34.430619   51.723139
   34.429882   51.720962
   34.428836   51.719818
   34.426962   51.718624
   34.422015   51.717483
   34.417742   51.717550
   34.414302   51.716185
   34.410692   51.714186
   34.407946   51.713615
   34.406015   51.711921
   34.402252   51.710597
   34.400161   51.710415
   34.398077   51.710628
   34.391922   51.712656
   34.389724   51.712074
   34.387073   51.712011
   34.378460   51.710091
   34.374665   51.709848
   34.371017   51.708449
   34.366218   51.707746
   34.361647   51.707741
   34.358000   51.708616
   34.356091   51.708267
   34.353632   51.708300
   34.351461   51.708748
   34.347780   51.710173
   34.341827   51.709022
   34.334180   51.709203
   34.331571   51.709762
   34.329268   51.710807
   34.317620   51.711429
   34.312345   51.712574
   34.310081   51.713640
   34.307862   51.710558
   34.304853   51.708581
   34.304541   51.706805
   34.303170   51.705247
   34.300735   51.703819
   34.298093   51.702976
   34.293538   51.700838
   34.286622   51.700130
   34.281094   51.700565
   34.276033   51.699101
   34.269783   51.698615
   34.267483   51.697469
   34.262286   51.696551
   34.252079   51.697526
   34.249205   51.696437
   34.245986   51.696068
   34.243319   51.694481
   34.239072   51.693003
   34.234587   51.692505
   34.230733   51.692919
   34.227550   51.694195
   34.225232   51.695652
   34.221593   51.696209
   34.218034   51.698028
   34.215571   51.698103
   34.214742   51.697402
   34.211259   51.691843
   34.209188   51.690569
   34.207082   51.689862
   34.204099   51.689416
   34.198912   51.689468
   34.194887   51.690560
   34.192775   51.691522
   34.186399   51.688281
   34.184446   51.687839
   34.178149   51.687481
   34.175972   51.686488
   34.172515   51.685737
   34.169355   51.684486
   34.167143   51.684031
   34.164177   51.682268
   34.160764   51.681566
   34.157551   51.681619
   34.155505   51.681966
   34.153341   51.682842
   34.152017   51.683810
   34.148628   51.683069
   34.146558   51.682918
   34.143858   51.683312
   34.140922   51.684686
   34.133771   51.684208
   34.132505   51.682354
   34.129540   51.680660
   34.127500   51.680148
   34.120973   51.679572
   34.119078   51.677712
   34.114182   51.675159
   34.109980   51.673882
   34.106059   51.673921
   34.104385   51.673346
   34.103400   51.670975
   34.105742   51.670927
   34.108001   51.670423
   34.109631   51.669669
   34.111166   51.668275
   34.111988   51.665809
   34.112907   51.658485
   34.116791   51.653483
   34.132791   51.652800
   34.134667   51.652157
   34.136548   51.650814
   34.137330   51.649559
   34.137478   51.648087
   34.140444   51.648635
   34.143318   51.648589
   34.145328   51.648186
   34.147420   51.647200
   34.150673   51.647412
   34.158149   51.649211
   34.166533   51.650137
   34.169893   51.649798
   34.172626   51.648515
   34.174665   51.646091
   34.176531   51.644896
   34.177495   51.643788
   34.177959   51.642132
   34.177194   51.640015
   34.186482   51.626236
   34.188789   51.602410
   34.210574   51.605004
   34.213442   51.604791
   34.215942   51.603879
   34.217669   51.602416
   34.218750   51.600473
   34.219545   51.593410
   34.221333   51.592151
   34.222132   51.590945
   34.223096   51.581961
   34.232313   51.587852
   34.234605   51.588854
   34.236628   51.589197
   34.239405   51.589055
   34.241315   51.588510
   34.243982   51.587132
   34.254282   51.580043
   34.255863   51.578289
   34.256220   51.575528
   34.253676   51.570772
   34.255355   51.569694
   34.256554   51.567730
   34.257711   51.566665
   34.261564   51.564516
   34.263768   51.561061
   34.263840   51.558864
   34.263246   51.557532
   34.259856   51.554908
   34.258957   51.553773
   34.259858   51.552793
   34.262299   51.552334
   34.264000   51.551571
   34.265845   51.549725
   34.266636   51.538369
   34.285242   51.539556
   34.288564   51.538814
   34.290765   51.537326
   34.296602   51.537188
   34.299229   51.536629
   34.301323   51.535481
   34.302570   51.533916
   34.302724   51.527338
   34.308695   51.525591
   34.311397   51.524211
   34.313597   51.522170
   34.314650   51.520134
   34.315024   51.514585
   34.313963   51.512424
   34.311559   51.510168
   34.308334   51.508630
   34.305124   51.507768
   34.303203   51.507511
   34.298539   51.507599
   34.304954   51.493005
   34.304057   51.490867
   34.298098   51.485382
   34.298115   51.479924
   34.297403   51.478316
   34.286657   51.470573
   34.284458   51.469536
   34.282489   51.469147
   34.280427   51.469129
   34.277826   51.469681
   34.275124   51.470858
   34.271816   51.470771
   34.271845   51.469383
   34.270935   51.467741
   34.266628   51.464507
   34.264930   51.463678
   34.264342   51.460022
   34.262946   51.458087
   34.261479   51.457199
   34.252600   51.453825
   34.252668   51.453234
   34.254698   51.452162
   34.257524   51.449999
   34.260931   51.445478
   34.261892   51.440196
   34.261581   51.438449
   34.260662   51.437260
   34.259239   51.436290
   34.253562   51.434323
   34.254270   51.431520
   34.254094   51.430178
   34.252912   51.428552
   34.251415   51.427595
   34.248857   51.426828
   34.232653   51.425088
   34.234824   51.421721
   34.235069   51.419869
   34.234115   51.418111
   34.231893   51.415798
   34.230484   51.414902
   34.233709   51.410606
   34.233536   51.408000
   34.234582   51.403849
   34.244057   51.406637
   34.246815   51.406823
   34.249478   51.406331
   34.254504   51.403900
   34.256116   51.402741
   34.258866   51.401924
   34.263241   51.399304
   34.264364   51.398189
   34.265749   51.395501
   34.268052   51.392591
   34.270206   51.391547
   34.271964   51.391841
   34.274282   51.391782
   34.277032   51.393712
   34.280352   51.394379
   34.282448   51.394265
   34.295452   51.392219
   34.298163   51.390848
   34.299175   51.389686
   34.299611   51.388389
   34.299434   51.387068
   34.296619   51.381801
   34.298453   51.383181
   34.301018   51.384002
   34.304274   51.384163
   34.307080   51.383583
   34.309792   51.382667
   34.311655   51.381364
   34.313988   51.376939
   34.316955   51.376213
   34.326447   51.372685
   34.330422   51.372863
   34.333358   51.372419
   34.341062   51.369210
   34.343199   51.367499
   34.344270   51.365827
   34.344144   51.363402
   34.343424   51.361897
   34.344713   51.360651
   34.345707   51.358736
   34.345676   51.355186
   34.343698   51.352380
   34.341218   51.350781
   34.337537   51.347691
   34.333504   51.346098
   34.329232   51.343317
   34.324553   51.341635
   34.325924   51.340094
   34.326499   51.338005
   34.325659   51.335571
   34.323233   51.333450
   34.323989   51.331365
   34.323797   51.329680
   34.323014   51.328511
   34.320883   51.326650
   34.318823   51.325463
   34.315504   51.324818
   34.312745   51.325069
   34.306700   51.326902
   34.304568   51.328465
   34.303326   51.330417
   34.301058   51.329914
   34.298187   51.329971
   34.295351   51.330479
   34.291173   51.332067
   34.296529   51.323992
   34.296832   51.322274
   34.296372   51.321006
   34.294914   51.319543
   34.288224   51.316394
   34.288235   51.313871
   34.289147   51.312694
   34.289486   51.311445
   34.288736   51.308859
   34.287117   51.307478
   34.284149   51.306446
   34.282119   51.306291
   34.277304   51.306634
   34.273328   51.297149
   34.272298   51.295973
   34.270768   51.295041
   34.268187   51.294315
   34.266067   51.294219
   34.262125   51.294502
   34.259249   51.295519
   34.256079   51.294557
   34.254271   51.293016
   34.251098   51.292009
   34.249773   51.290859
   34.247650   51.289945
   34.248689   51.288349
   34.257272   51.286462
   34.259734   51.285537
   34.261692   51.283652
   34.261967   51.281403
   34.258433   51.273492
   34.256983   51.272037
   34.254781   51.271030
   34.252143   51.270615
   34.250107   51.270732
   34.245784   51.271764
   34.243029   51.271320
   34.240659   51.270508
   34.240641   51.268106
   34.244992   51.268001
   34.247148   51.267590
   34.258492   51.263163
   34.261899   51.261202
   34.276646   51.255929
   34.287438   51.253478
   34.295159   51.249233
   34.300257   51.246694
   34.302226   51.246073
   34.304296   51.244610
   34.307839   51.242937
   34.321710   51.243591
   34.327898   51.244216
   34.379151   51.277002
   34.381517   51.278006
   34.384314   51.278346
   34.399785   51.275413
   34.402596   51.275112
   34.409526   51.272870
   34.411730   51.272437
   34.415092   51.271235
   34.420122   51.268517
   34.421445   51.267014
   34.421790   51.265509
   34.432969   51.263088
   34.437075   51.261924
   34.440634   51.264792
   34.442331   51.265618
   34.446143   51.266317
   34.449474   51.265845
   34.452629   51.264089
   34.455163   51.263378
   34.458248   51.261986
   34.460862   51.260213
   34.462498   51.257844
   34.466617   51.255921
   34.470137   51.255499
   34.474026   51.254579
   34.479233   51.252244
   34.485055   51.250629
   34.487615   51.249177
   34.509658   51.247135
   34.517875   51.255379
   34.520635   51.256745
   34.523383   51.257131
   34.541161   51.257363
   34.543376   51.257171
   34.545980   51.256266
   34.559865   51.248516
   34.579012   51.240026
   34.593823   51.248928
   34.594466   51.252416
   34.596661   51.255787
   34.598929   51.257396
   34.601439   51.258085
   34.607798   51.257884
   34.609842   51.257273
   34.613409   51.255539
   34.619583   51.254837
   34.623134   51.255523
   34.626620   51.255310
   34.629875   51.255689
   34.632446   51.255422
   34.635788   51.255584
   34.638493   51.255136
   34.640280   51.254366
   34.642906   51.254425
   34.647398   51.253706
   34.649359   51.253017
   34.652138   51.252683
   34.655009   51.251848
   34.659103   51.252267
   34.664723   51.251770
   34.666667   51.251182
   34.668665   51.249884
   34.669542   51.248639
   34.670303   51.245922
   34.675452   51.199651
   34.693201   51.184440
   34.714975   51.177268
   34.726314   51.185753
   34.728725   51.186728
   34.730828   51.187021
   34.732973   51.186905
   34.734967   51.186390
   34.738849   51.184272
   34.742081   51.184028
   34.746870   51.184325
   34.752591   51.185083
   34.755209   51.184976
   34.759494   51.183800
   34.761714   51.182100
   34.764384   51.180915
   34.771001   51.179592
   34.773011   51.180330
   34.774315   51.183137
   34.778084   51.187274
   34.781215   51.188935
   34.784597   51.189473
   34.786681   51.189276
   34.788583   51.188705
   34.793846   51.185946
   34.795680   51.184587
   34.796505   51.183092
   34.799127   51.181995
   34.801736   51.180312
   34.808054   51.181063
   34.811433   51.180699
   34.813191   51.180008
   34.814563   51.179028
   34.815888   51.177415
   34.816455   51.175679
   34.820461   51.173715
   34.827787   51.173791
   34.827658   51.177821
   34.826817   51.179100
   34.826043   51.182083
   34.826266   51.184019
   34.827270   51.185667
   34.829788   51.187184
   34.835390   51.188270
   34.838569   51.190417
   34.838836   51.192428
   34.840734   51.194330
   34.857950   51.202740
   34.861178   51.203622
   34.863302   51.203635
   34.865339   51.203254
   34.868494   51.201721
   34.874490   51.197536
   34.876967   51.198853
   34.881258   51.200196
   34.883310   51.200452
   34.890472   51.199746
   34.894955   51.198666
   34.897550   51.200388
   34.896850   51.203243
   34.898222   51.205824
   34.899419   51.206857
   34.903154   51.208796
   34.906230   51.209665
   34.911418   51.210419
   34.925121   51.209699
   34.927459   51.209917
   34.930470   51.211310
   34.932210   51.212724
   34.932546   51.216894
   34.934363   51.219494
   34.937987   51.221665
   34.941609   51.222721
   34.943950   51.222960
   34.943057   51.224753
   34.943306   51.227269
   34.944890   51.229161
   34.948154   51.231615
   34.952322   51.232695
   34.956308   51.233282
   34.962032   51.235590
   34.966744   51.236340
   34.969211   51.237213
   34.973919   51.238206
   34.976417   51.239472
   34.978480   51.239968
   34.981618   51.239994
   34.984261   51.239288
   34.988377   51.236390
   34.989558   51.235076
   34.994746   51.233487
   34.998262   51.234138
   35.002495   51.235991
   35.004555   51.236447
   35.010947   51.236159
   35.013725   51.235558
   35.017699   51.233507
   35.019703   51.230808
   35.022975   51.228740
   35.025906   51.227431
   35.027646   51.225909
   35.028831   51.224143
   35.031447   51.224402
   35.034701   51.224059
   35.040816   51.222186
   35.043547   51.220699
   35.045137   51.218388
   35.045470   51.212736
   35.047017   51.213071
   35.049861   51.214462
   35.051729   51.216342
   35.055709   51.218311
   35.054656   51.219804
   35.054128   51.221898
   35.055088   51.225240
   35.057994   51.227917
   35.060162   51.231395
   35.061427   51.232330
   35.064702   51.233882
   35.064754   51.235359
   35.065809   51.236998
   35.067778   51.238256
   35.070359   51.238940
   35.072460   51.239009
   35.074503   51.238689
   35.076310   51.238007
   35.079663   51.235922
   35.084966   51.234995
   35.104508   51.237248
   35.107279   51.237050
   35.115813   51.235332
   35.118757   51.235995
   35.121493   51.235866
   35.152911   51.227622
   35.155317   51.226623
   35.156601   51.225521
   35.157398   51.223772
   35.157284   51.220544
   35.156463   51.218915
   35.155248   51.217885
   35.153623   51.217113
   35.149625   51.216211
   35.145334   51.214607
   35.144918   51.213050
   35.144677   51.211283
   35.148165   51.209480
   35.150130   51.207027
   35.150631   51.204838
   35.150016   51.201548
   35.149005   51.200392
   35.144459   51.197345
   35.140083   51.193468
   35.137395   51.192037
   35.138213   51.178033
   35.138011   51.175417
   35.141543   51.172282
   35.142127   51.170575
   35.141865   51.169273
   35.141022   51.168073
   35.139669   51.167076
   35.131674   51.163451
   35.134799   51.161236
   35.144019   51.157350
   35.146072   51.155658
   35.147745   51.152429
   35.147832   51.150789
   35.146673   51.148434
   35.143875   51.146591
   35.147099   51.144952
   35.149702   51.142167
   35.150665   51.140244
   35.151113   51.136613
   35.156908   51.135302
   35.171877   51.130200
   35.180026   51.124571
   35.181184   51.123427
   35.181777   51.121212
   35.180977   51.119479
   35.178591   51.117814
   35.174095   51.116296
   35.171063   51.111626
   35.170586   51.109767
   35.172667   51.108515
   35.173797   51.107178
   35.175315   51.106286
   35.178016   51.103702
   35.181469   51.102207
   35.182862   51.101235
   35.183927   51.099625
   35.183949   51.097880
   35.179831   51.085131
   35.178569   51.084046
   35.176858   51.083244
   35.174850   51.082797
   35.172259   51.082789
   35.173138   51.081427
   35.173385   51.078979
   35.176178   51.077710
   35.178212   51.075268
   35.180398   51.074541
   35.183048   51.072888
   35.184231   51.071451
   35.184798   51.069785
   35.187483   51.067559
   35.189994   51.063290
   35.193178   51.060706
   35.195803   51.059139
   35.196931   51.056995
   35.200038   51.057421
   35.203447   51.056843
   35.208493   51.054659
   35.209858   51.053671
   35.210834   51.052350
   35.212424   51.051888
   35.215715   51.053724
   35.217307   51.055459
   35.220254   51.056669
   35.222120   51.058088
   35.236454   51.064012
   35.237640   51.066322
   35.238915   51.067341
   35.240595   51.068089
   35.246313   51.069504
   35.248342   51.069677
   35.250364   51.069479
   35.252216   51.068928
   35.255872   51.066777
   35.257868   51.066679
   35.259996   51.066138
   35.264150   51.067596
   35.266266   51.067701
   35.268972   51.067230
   35.270871   51.068179
   35.273763   51.068753
   35.277626   51.071027
   35.283299   51.071896
   35.285996   51.073047
   35.289325   51.073583
   35.291280   51.075320
   35.295622   51.076733
   35.296177   51.079319
   35.298044   51.081156
   35.301406   51.082851
   35.304977   51.083245
   35.313523   51.082771
   35.316659   51.081864
   35.328687   51.081776
   35.331413   51.081222
   35.333577   51.080037
   35.334978   51.077963
   35.334979   51.076601
   35.333732   51.073909
   35.350602   51.067481
   35.353319   51.069176
   35.359896   51.071259
   35.362603   51.071339
   35.370648   51.070603
   35.372357   51.071246
   35.374383   51.071571
   35.376471   51.071512
   35.378443   51.071074
   35.381025   51.069616
   35.390552   51.058624
   35.394868   51.059478
   35.396977   51.059318
   35.398918   51.058774
   35.411116   51.051491
   35.412958   51.049640
   35.413192   51.046995
   35.415380   51.045279
   35.417955   51.040606
   35.418332   51.038898
   35.417672   51.037226
   35.416070   51.035831
   35.413759   51.034916
   35.410880   51.034388
   35.410541   51.033332
   35.413066   51.032250
   35.414565   51.030736
   35.416222   51.027896
   35.416409   51.026143
   35.415149   51.024104
   35.413704   51.023150
   35.410152   51.021707
   35.408454   51.019665
   35.406804   51.018822
   35.404836   51.018321
   35.400362   51.018303
   35.398503   51.016681
   35.396073   51.015800
   35.390200   51.015500
   35.389502   51.011904
   35.388382   51.010282
   35.385752   51.008834
   35.382457   51.008160
   35.380110   51.005704
   35.377121   51.004389
   35.371664   51.004025
   35.363180   51.001529
   35.358717   51.000923
   35.348750   51.001684
   35.340552   51.002857
   35.343877   51.000417
   35.344679   50.999218
   35.344907   50.997923
   35.344543   50.996641
   35.343617   50.995478
   35.340652   50.993942
   35.343294   50.992438
   35.347095   50.991749
   35.349537   50.990146
   35.355319   50.979372
   35.358877   50.976152
   35.359528   50.973976
   35.359090   50.972668
   35.357040   50.970196
   35.354544   50.968384
   35.352340   50.967608
   35.350566   50.966078
   35.349710   50.962360
   35.348489   50.960772
   35.345775   50.959396
   35.342996   50.958985
   35.342300   50.954676
   35.340160   50.952859
   35.338410   50.950186
   35.336887   50.949097
   35.336000   50.946270
   35.334712   50.944911
   35.338457   50.938916
   35.341525   50.939889
   35.344879   50.939923
   35.347586   50.939277
   35.350190   50.937425
   35.352722   50.936695
   35.355794   50.936696
   35.357991   50.936167
   35.365613   50.937112
   35.373431   50.936870
   35.376014   50.936306
   35.378073   50.935170
   35.379465   50.933206
   35.379434   50.931478
   35.377962   50.927956
   35.385993   50.927898
   35.392471   50.928731
   35.394582   50.928562
   35.396521   50.928007
   35.398545   50.926758
   35.399469   50.925546
   35.399840   50.921989
   35.401782   50.920952
   35.405009   50.918302
   35.406725   50.915811
   35.409374   50.910671
   35.408978   50.908898
   35.407174   50.907140
   35.408730   50.906149
   35.410495   50.904268
   35.410870   50.902531
   35.410174   50.900835
   35.409005   50.899744
   35.407389   50.898911
   35.389589   50.893596
   35.393773   50.888622
   35.401408   50.885493
   35.406894   50.882701
   35.408167   50.881631
   35.408995   50.879929
   35.408481   50.877737
   35.405869   50.875647
   35.397590   50.873486
   35.392540   50.871536
   35.392020   50.871002
   35.395583   50.869995
   35.397575   50.869013
   35.401141   50.869447
   35.405250   50.869050
   35.408288   50.867922
   35.411403   50.865836
   35.413010   50.863977
   35.414636   50.860185
   35.418079   50.858167
   35.419200   50.857038
   35.426147   50.844666
   35.427084   50.841404
   35.426553   50.837618
   35.427403   50.828488
   35.423666   50.818177
   35.420341   50.814002
   35.417540   50.805766
   35.418080   50.804357
   35.419779   50.802667
   35.436836   50.798122
   35.453169   50.787212
   35.455958   50.786902
   35.462212   50.787765
   35.467755   50.787666
   35.472535   50.789023
   35.474588   50.789165
   35.476619   50.788931
   35.479005   50.788070
   35.493385   50.780229
   35.495375   50.778452
   35.495843   50.777171
   35.495531   50.775434
   35.482321   50.755895
   35.483397   50.754541
   35.483703   50.753233
   35.482694   50.750407
   35.481039   50.748523
   35.478088   50.746471
   35.477400   50.745577
   35.481007   50.741620
   35.481343   50.739372
   35.480686   50.738072
   35.478770   50.736509
   35.477727   50.734777
   35.476308   50.733758
   35.474239   50.732997
   35.479556   50.727557
   35.480270   50.725075
   35.474534   50.715656
   35.474204   50.710278
   35.472714   50.706816
   35.470986   50.705055
   35.468513   50.704004
   35.468564   50.701058
   35.467938   50.699449
   35.468327   50.697769
   35.470215   50.695476
   35.470571   50.693362
   35.469975   50.691326
   35.467995   50.689165
   35.469720   50.687372
   35.472780   50.685800
   35.475203   50.686088
   35.477530   50.685851
   35.481318   50.685965
   35.485930   50.685070
   35.488857   50.684825
   35.492198   50.683900
   35.494463   50.684070
   35.497182   50.683691
   35.500273   50.682584
   35.501800   50.681675
   35.503069   50.680104
   35.503337   50.678788
   35.502431   50.676667
   35.494509   50.669422
   35.496002   50.658962
   35.495663   50.657123
   35.491618   50.653261
   35.488946   50.651854
   35.485540   50.651410
   35.482828   50.651828
   35.474240   50.655037
   35.461666   50.660902
   35.429010   50.650622
   35.426425   50.650458
   35.404297   50.651615
   35.400112   50.648121
   35.400409   50.644753
   35.399907   50.642537
   35.408707   50.633918
   35.416541   50.620327
   35.418785   50.620420
   35.423802   50.619720
   35.426151   50.618712
   35.427399   50.617617
   35.428082   50.616338
   35.428136   50.614988
   35.426552   50.610495
   35.428624   50.608846
   35.429335   50.607302
   35.431919   50.605398
   35.432828   50.603279
   35.432561   50.601964
   35.431703   50.600754
   35.426058   50.596232
   35.406646   50.587507
   35.403589   50.584801
   35.400683   50.580819
   35.408384   50.577173
   35.425571   50.569831
   35.433876   50.564604
   35.437462   50.560063
   35.438003   50.556822
   35.445241   50.546638
   35.445971   50.544947
   35.446629   50.541860
   35.446445   50.540514
   35.445430   50.538292
   35.442525   50.535448
   35.442590   50.533864
   35.447529   50.533418
   35.449273   50.532716
   35.450626   50.531728
   35.451634   50.530110
   35.452382   50.524810
   35.464271   50.515090
   35.464934   50.513871
   35.465026   50.512581
   35.466454   50.510706
   35.466559   50.508598
   35.469289   50.506833
   35.482306   50.491629
   35.492460   50.489835
   35.507186   50.484822
   35.510509   50.482555
   35.512920   50.480148
   35.528381   50.472182
   35.537688   50.468856
   35.543945   50.464145
   35.545335   50.462468
   35.546407   50.462197
   35.548637   50.462684
   35.552891   50.462855
   35.556173   50.462300
   35.565493   50.468752
   35.568802   50.469426
   35.570895   50.469318
   35.572849   50.468831
   35.575348   50.467302
   35.580547   50.460692
   35.584696   50.457998
   35.585477   50.456785
   35.585672   50.455457
   35.589735   50.453151
   35.592080   50.451012
   35.593255   50.449553
   35.593626   50.448349
   35.593425   50.444100
   35.593925   50.441772
   35.594556   50.431093
   35.593586   50.429042
   35.590713   50.427316
   35.590440   50.414787
   35.590745   50.397412
   35.595781   50.397366
   35.597749   50.396838
   35.599382   50.395967
   35.600794   50.394407
   35.603996   50.385458
   35.616790   50.377947
   35.618416   50.376530
   35.619066   50.374389
   35.618385   50.372692
   35.611479   50.367581
   35.625870   50.358688
   35.629536   50.358893
   35.661214   50.355190
   35.663401   50.354115
   35.664524   50.353006
   35.665151   50.351300
   35.664808   50.349775
   35.675196   50.348109
   35.675948   50.349576
   35.677692   50.351007
   35.679510   50.351732
   35.682303   50.352109
   35.684431   50.351918
   35.696662   50.349382
   35.699024   50.347701
   35.699813   50.345508
   35.695190   50.332890
   35.694086   50.331790
   35.692532   50.330934
   35.689065   50.330227
   35.688235   50.329015
   35.686372   50.327747
   35.683027   50.326911
   35.678926   50.322887
   35.676363   50.321560
   35.673063   50.321004
   35.666034   50.321730
   35.662082   50.310285
   35.659829   50.308681
   35.656732   50.307870
   35.654609   50.306178
   35.651493   50.305302
   35.648090   50.305437
   35.632464   50.309683
   35.630502   50.310944
   35.629608   50.312181
   35.623894   50.313943
   35.618988   50.316944
   35.616635   50.319573
   35.616200   50.321470
   35.609858   50.321784
   35.595129   50.325496
   35.592394   50.323737
   35.577944   50.316298
   35.575346   50.315448
   35.569523   50.315416
   35.559038   50.316673
   35.529613   50.313703
   35.541295   50.304504
   35.542153   50.303368
   35.542469   50.301706
   35.540909   50.296847
   35.539975   50.295690
   35.538187   50.294580
   35.538196   50.292495
   35.537016   50.290873
   35.534936   50.289666
   35.531198   50.288546
   35.530140   50.287375
   35.528637   50.286448
   35.525408   50.285632
   35.523308   50.285649
   35.520691   50.286265
   35.505885   50.293370
   35.501813   50.289686
   35.499610   50.288584
   35.496200   50.288091
   35.494118   50.288318
   35.492231   50.288919
   35.453626   50.306194
   35.452234   50.307230
   35.451392   50.308480
   35.451427   50.311037
   35.437163   50.312527
   35.434560   50.313362
   35.431728   50.315785
   35.429807   50.320392
   35.423623   50.326665
   35.421916   50.326023
   35.420981   50.323684
   35.417009   50.320415
   35.415684   50.318299
   35.413038   50.316904
   35.397887   50.314322
   35.386899   50.315188
   35.387176   50.312847
   35.391903   50.307854
   35.392568   50.305596
   35.388907   50.292854
   35.386962   50.291086
   35.383945   50.290087
   35.380540   50.290084
   35.378056   50.290806
   35.342002   50.307189
   35.329908   50.313022
   35.328400   50.312335
   35.328384   50.310685
   35.327295   50.309022
   35.306664   50.290738
   35.328124   50.281869
   35.333531   50.280989
   35.335975   50.280047
   35.337639   50.278575
   35.338257   50.276808
   35.336199   50.271988
   35.334887   50.270882
   35.332109   50.269417
   35.319524   50.266651
   35.304479   50.258964
   35.302135   50.258198
   35.298544   50.257958
   35.271161   50.260402
   35.268121   50.258589
   35.267741   50.257129
   35.268333   50.255402
   35.268532   50.252338
   35.269492   50.250108
   35.269705   50.247697
   35.269005   50.246064
   35.267579   50.244705
   35.266278   50.242471
   35.266202   50.241099
   35.267838   50.238863
   35.268174   50.235683
   35.267073   50.232817
   35.265137   50.231045
   35.262783   50.230166
   35.260079   50.229909
   35.243203   50.231387
   35.241568   50.226697
   35.240647   50.225511
   35.238054   50.224064
   35.234690   50.223554
   35.232626   50.223759
   35.201415   50.230080
   35.199142   50.226385
   35.198004   50.225257
   35.195777   50.224170
   35.192351   50.223704
   35.187888   50.224384
   35.158246   50.233201
   35.149761   50.236333
   35.131778   50.222550
   35.109940   50.210962
   35.106929   50.210058
   35.092054   50.208073
   35.081112   50.204427
   35.083864   50.201739
   35.084170   50.200454
   35.083886   50.199168
   35.082637   50.197632
   35.079735   50.195940
   35.080036   50.194390
   35.079715   50.193101
   35.078416   50.191574
   35.075911   50.190333
   35.075982   50.188610
   35.075165   50.186889
   35.073674   50.185494
   35.071138   50.184141
   35.071275   50.182284
   35.070439   50.180616
   35.068664   50.179273
   35.066216   50.178457
   35.063461   50.178289
   35.060798   50.178800
   35.053786   50.170414
   35.048823   50.163500
   35.046902   50.162137
   35.042953   50.160642
   35.039060   50.160232
   35.028124   50.161666
   35.025525   50.162374
   35.023975   50.163296
   35.022700   50.164893
   35.022447   50.166230
   35.024911   50.173296
   35.024147   50.176825
   35.018747   50.177598
   35.014026   50.178690
   35.013013   50.176231
   35.011519   50.174684
   35.008512   50.173469
   35.005665   50.173261
   34.999190   50.174579
   34.996849   50.176175
   34.995341   50.178694
   34.993008   50.178958
   34.977674   50.177610
   34.972838   50.178304
   34.980244   50.162999
   34.980696   50.157812
   34.979802   50.156210
   34.978310   50.155003
   34.976019   50.154082
   34.971137   50.153173
   34.968329   50.151705
   34.965933   50.150997
   34.941158   50.147687
   34.938423   50.147827
   34.900442   50.154574
   34.853722   50.157905
   34.849997   50.158821
   34.848637   50.157245
   34.847203   50.156339
   34.836229   50.151820
   34.833054   50.151271
   34.830248   50.151342
   34.828291   50.151845
   34.823199   50.154878
   34.820119   50.155708
   34.807618   50.155860
   34.807835   50.154404
   34.807090   50.152692
   34.805872   50.151601
   34.803571   50.150583
   34.783381   50.148889
   34.771570   50.144743
   34.769709   50.143078
   34.767341   50.142195
   34.762892   50.141867
   34.759028   50.141218
   34.750188   50.140725
   34.748191   50.140236
   34.746179   50.140140
   34.737375   50.140698
   34.735028   50.141608
   34.733398   50.143011
   34.732728   50.144700
   34.733374   50.146829
   34.741632   50.154422
   34.735046   50.155556
   34.730079   50.154186
   34.728636   50.153048
   34.726322   50.148560
   34.724959   50.147503
   34.723158   50.146751
   34.719645   50.146347
   34.711070   50.147272
   34.709100   50.146717
   34.706688   50.146501
   34.707952   50.138943
   34.711194   50.136253
   34.711882   50.134996
   34.711960   50.133666
   34.711424   50.132380
   34.710319   50.131248
   34.703267   50.126599
   34.706831   50.122545
   34.707432   50.120377
   34.706829   50.118638
   34.705043   50.116969
   34.706369   50.114002
   34.705926   50.110983
   34.704503   50.108968
   34.702771   50.107670
   34.701037   50.107014
   34.697354   50.106264
   34.692046   50.105728
   34.689487   50.105780
   34.686218   50.106304
   34.675079   50.106683
   34.673090   50.107205
   34.671103   50.108342
   34.669051   50.107212
   34.665963   50.106492
   34.656581   50.106337
   34.653908   50.106823
   34.651628   50.107992
   34.648505   50.108245
   34.642465   50.109644
   34.638538   50.108196
   34.635668   50.107633
   34.632443   50.107490
   34.628126   50.108351
   34.626316   50.108992
   34.620414   50.113114
   34.614734   50.113457
   34.606668   50.115414
   34.604383   50.116326
   34.599792   50.117258
   34.596707   50.117360
   34.594811   50.117894
   34.592807   50.119093
   34.588682   50.123169
   34.587076   50.123294
   34.585425   50.121902
   34.583678   50.121092
   34.581969   50.118834
   34.579295   50.117515
   34.576986   50.116968
   34.574106   50.116768
   34.570196   50.117233
   34.565556   50.119185
   34.562793   50.121503
   34.548636   50.127805
   34.543495   50.128281
   34.541666   50.128960
   34.540233   50.129949
   34.539045   50.132039
   34.539178   50.136619
   34.534746   50.137541
   34.533173   50.138464
   34.531876   50.140070
   34.530647   50.149762
   34.526042   50.149758
   34.524031   50.150060
   34.521719   50.151000
   34.519888   50.152828
   34.519522   50.154114
   34.519753   50.155413
   34.525198   50.167614
   34.521565   50.168402
   34.519312   50.169973
   34.516399   50.176383
   34.516341   50.178142
   34.517350   50.179782
   34.523530   50.185924
   34.548329   50.209176
   34.549821   50.210046
   34.551639   50.210615
   34.555630   50.210723
   34.561684   50.223692
   34.558728   50.223511
   34.555497   50.224277
   34.553561   50.225529
   34.552540   50.227110
   34.550383   50.227938
   34.549049   50.228940
   34.548078   50.230570
   34.548034   50.231879
   34.550232   50.236377
   34.546666   50.239454
   34.545051   50.240114
   34.542735   50.240212
   34.540222   50.240939
   34.535254   50.237883
   34.531798   50.236500
   34.527979   50.235823
   34.525335   50.235879
   34.522381   50.236618
   34.520733   50.237405
   34.519214   50.238852
   34.518698   50.240223
   34.515054   50.241189
   34.508194   50.245975
   34.506028   50.249693
   34.505394   50.252455
   34.505581   50.254788
   34.506190   50.256060
   34.507357   50.257164
   34.509701   50.258599
   34.511987   50.259347
   34.513136   50.261899
   34.511552   50.264098
   34.507352   50.268025
   34.506798   50.269382
   34.507014   50.271030
   34.505331   50.272453
   34.504714   50.273741
   34.504723   50.275086
   34.505356   50.276370
   34.508707   50.279300
   34.505470   50.280354
   34.463352   50.284104
   34.456834   50.282552
   34.454694   50.282511
   34.452630   50.282873
   34.436587   50.291475
   34.394337   50.315434
   34.393169   50.316520
   34.392543   50.317772
   34.392825   50.319939
   34.403035   50.334771
   34.386727   50.341196
   34.376372   50.349271
   34.375731   50.351522
   34.376651   50.353524
   34.376302   50.354012
   34.372957   50.354926
   34.371378   50.355787
   34.370006   50.357310
   34.369653   50.359049
   34.370095   50.360338
   34.371106   50.361491
   34.378173   50.365551
   34.369978   50.368151
   34.367704   50.369841
   34.366816   50.371376
   34.363919   50.371759
   34.359500   50.373642
   34.354855   50.376187
   34.338602   50.386278
   34.335349   50.387134
   34.326797   50.390395
   34.306539   50.398646
   34.283101   50.409304
   34.281747   50.410313
   34.280845   50.411725
   34.275460   50.417258
   34.272571   50.419085
   34.267427   50.427092
   34.262482   50.427640
   34.259782   50.428611
   34.253586   50.432011
   34.252033   50.433527
   34.251000   50.435692
   34.246385   50.438096
   34.245002   50.440024
   34.243359   50.450719
   34.242273   50.452530
   34.241844   50.460217
   34.242964   50.462633
   34.247829   50.490098
   34.242158   50.516974
   34.240556   50.519340
   34.230975   50.521752
   34.227920   50.521581
   34.224747   50.522360
   34.219042   50.526595
   34.213115   50.522761
   34.208576   50.520458
   34.206206   50.519809
   34.194379   50.518854
   34.187278   50.520356
   34.175530   50.520644
   34.163045   50.518472
   34.161173   50.517227
   34.158550   50.516477
   34.145025   50.509587
   34.126778   50.506457
   34.124428   50.492638
   34.119003   50.485337
   34.117773   50.482142
   34.116142   50.479567
   34.112731   50.477610
   34.109144   50.476596
   34.105121   50.476381
   34.101996   50.477065
   34.097041   50.476543
   34.095071   50.476870
   34.093327   50.477535
   34.082779   50.483799
   34.080104   50.484040
   34.077608   50.484876
   34.075817   50.486257
   34.075112   50.487525
   34.075026   50.488867
   34.075568   50.490167
   34.080088   50.494385
   34.083173   50.495367
   34.085082   50.495469
   34.087967   50.496114
   34.090250   50.496053
   34.093862   50.502061
   34.089414   50.504150
   34.085530   50.504675
   34.081900   50.506401
   34.079120   50.506668
   34.077015   50.506208
   34.073928   50.506056
   34.071942   50.506389
   34.068985   50.507451
   34.068324   50.506142
   34.064098   50.501836
   34.062754   50.500838
   34.061014   50.500125
   34.057640   50.499721
   34.054968   50.500151
   34.048426   50.503628
   34.045553   50.502054
   34.042215   50.500851
   34.037585   50.500211
   34.035542   50.496531
   34.034373   50.495466
   34.032775   50.494655
   34.029525   50.494034
   34.025577   50.494414
   34.021470   50.495965
   34.019046   50.498661
   34.018456   50.499922
   34.018299   50.502083
   34.018938   50.504361
   34.014349   50.505860
   34.012373   50.507041
   34.009917   50.510760
   34.009867   50.512679
   34.001863   50.516733
   34.000475   50.518313
   34.000144   50.519681
   33.956408   50.541164
   33.928354   50.517745
   33.924161   50.513268
   33.920188   50.511615
   33.918058   50.510323
   33.916179   50.509800
   33.914143   50.509637
   33.911474   50.509995
   33.904906   50.512900
   33.902801   50.513278
   33.900563   50.514302
   33.899383   50.515383
   33.897638   50.518373
   33.893758   50.519916
   33.890723   50.521984
   33.889493   50.524269
   33.889447   50.526293
   33.888378   50.527988
   33.879860   50.526506
   33.876513   50.526776
   33.874122   50.527576
   33.860347   50.523553
   33.848860   50.520762
   33.849303   50.519362
   33.848875   50.517649
   33.847458   50.516163
   33.845867   50.515332
   33.843967   50.514823
   33.840233   50.514590
   33.836576   50.513950
   33.829022   50.512305
   33.847864   50.508272
   33.849776   50.507647
   33.853173   50.505106
   33.856653   50.501628
   33.857731   50.499539
   33.857379   50.497789
   33.853752   50.492610
   33.850427   50.488607
   33.849021   50.487608
   33.847214   50.486914
   33.844459   50.486560
   33.842366   50.486755
   33.839074   50.487770
   33.834567   50.486234
   33.836358   50.484401
   33.837100   50.482706
   33.836763   50.480961
   33.834919   50.479107
   33.831915   50.478018
   33.806281   50.473447
   33.794742   50.473253
   33.794769   50.471786
   33.797135   50.469196
   33.797503   50.467239
   33.797149   50.465535
   33.796261   50.464192
   33.793856   50.462241
   33.793609   50.460102
   33.792673   50.458483
   33.790846   50.457203
   33.789047   50.456580
   33.733688   50.453975
   33.730381   50.454553
   33.720098   50.459056
   33.715918   50.460592
   33.712252   50.461529
   33.710399   50.462810
   33.709509   50.464248
   33.625130   50.476227
   33.609989   50.479504
   33.607701   50.481145
   33.606819   50.483597
   33.590755   50.486304
   33.587865   50.487259
   33.582911   50.486181
   33.579638   50.486268
   33.577709   50.486752
   33.571207   50.489666
   33.570415   50.489431
   33.569634   50.487989
   33.568382   50.486945
   33.565172   50.485632
   33.546136   50.485124
   33.545713   50.483627
   33.544704   50.482452
   33.539424   50.479528
   33.537690   50.477300
   33.535419   50.476206
   33.531981   50.475740
   33.529851   50.475878
   33.527970   50.476355
   33.525569   50.475835
   33.522852   50.475907
   33.518993   50.476748
   33.509752   50.479536
   33.507354   50.481156
   33.506458   50.483598
   33.501679   50.487550
   33.500140   50.487875
   33.499517   50.485498
   33.497063   50.483053
   33.495511   50.480411
   33.493699   50.479013
   33.492318   50.477237
   33.490147   50.476099
   33.487805   50.475556
   33.485611   50.475361
   33.483429   50.475600
   33.473889   50.479080
   33.471995   50.480390
   33.470975   50.482504
   33.471809   50.486633
   33.464680   50.487806
   33.442298   50.481929
   33.443694   50.480285
   33.444565   50.478246
   33.444517   50.476429
   33.443556   50.474826
   33.442249   50.473837
   33.437167   50.471522
   33.434454   50.471007
   33.431637   50.471199
   33.429158   50.472067
   33.413493   50.480059
   33.412490   50.481256
   33.412093   50.482587
   33.412545   50.487402
   33.409684   50.488276
   33.407847   50.489679
   33.406581   50.492440
   33.406103   50.495239
   33.385600   50.493087
   33.373707   50.493043
   33.371731   50.493462
   33.369551   50.494543
   33.368436   50.495656
   33.367821   50.497365
   33.366944   50.516580
   33.318970   50.515969
   33.315625   50.516446
   33.313447   50.517509
   33.311870   50.519435
   33.310932   50.529223
   33.298356   50.530806
   33.295936   50.531607
   33.294167   50.532923
   33.288941   50.538796
   33.286088   50.538990
   33.281345   50.540261
   33.278491   50.541672
   33.277446   50.542889
   33.276749   50.544578
   33.276822   50.546898
   33.274575   50.545899
   33.272410   50.545535
   33.271201   50.543601
   33.269253   50.542405
   33.266116   50.541635
   33.262102   50.541777
   33.259573   50.541178
   33.256592   50.538347
   33.253559   50.537081
   33.250014   50.536322
   33.249993   50.534531
   33.249357   50.533043
   33.250579   50.531230
   33.250385   50.528996
   33.245519   50.517418
   33.242175   50.514254
   33.244876   50.511169
   33.245121   50.509838
   33.244477   50.508105
   33.242824   50.506663
   33.240419   50.505736
   33.238344   50.505469
   33.231156   50.505361
   33.227513   50.500962
   33.225362   50.499762
   33.222838   50.499046
   33.220073   50.498990
   33.218091   50.499390
   33.213201   50.501294
   33.210667   50.502766
   33.203551   50.503617
   33.193025   50.503336
   33.189572   50.504044
   33.182154   50.508610
   33.175608   50.514508
   33.173647   50.517691
   33.172563   50.517981
   33.170106   50.517100
   33.168018   50.516727
   33.157309   50.516733
   33.152715   50.509405
   33.150334   50.507696
   33.147659   50.507000
   33.134850   50.506287
   33.131170   50.506714
   33.123266   50.501733
   33.121474   50.501048
   33.119445   50.500721
   33.116673   50.500885
   33.113688   50.502001
   33.105792   50.506949
   33.100521   50.511554
   33.097949   50.513282
   33.093381   50.513327
   33.075004   50.514537
   33.073287   50.513689
   33.071339   50.513220
   33.069259   50.513126
   33.066768   50.513526
   33.055566   50.518588
   33.053672   50.519922
   33.052876   50.521173
   33.052698   50.522517
   33.053984   50.524808
   33.046120   50.536454
   33.043502   50.537947
   33.042404   50.539091
   33.041882   50.540388
   33.041984   50.541724
   33.043193   50.543884
   33.044432   50.545041
   33.051079   50.548954
   33.053897   50.551319
   33.067516   50.558995
   33.070671   50.565875
   33.074413   50.571017
   33.088105   50.580341
   33.086196   50.582011
   33.085262   50.583650
   33.085249   50.584961
   33.086150   50.586608
   33.095898   50.594628
   33.099468   50.596896
   33.102626   50.597858
   33.099553   50.598480
   33.097434   50.599617
   33.096161   50.601179
   33.095924   50.602929
   33.100215   50.609723
   33.104054   50.613324
   33.113477   50.637434
   33.112071   50.638410
   33.111206   50.639530
   33.110602   50.642173
   33.109480   50.644151
   33.109507   50.645520
   33.110919   50.649759
   33.113094   50.651415
   33.122514   50.654666
   33.125743   50.654993
   33.134824   50.654014
   33.139637   50.656812
   33.140130   50.668881
   33.143280   50.685978
   33.143969   50.692906
   33.129459   50.708770
   33.128868   50.710553
   33.129438   50.712340
   33.131626   50.714139
   33.135970   50.715791
   33.139342   50.716066
   33.148707   50.714840
   33.151871   50.717621
   33.155373   50.719218
   33.158172   50.719656
   33.160539   50.719504
   33.164818   50.720367
   33.169260   50.720448
   33.172467   50.720851
   33.175734   50.721591
   33.180419   50.723358
   33.186646   50.724123
   33.189514   50.725675
   33.192161   50.726338
   33.201158   50.727249
   33.204435   50.727129
   33.206915   50.726713
   33.207292   50.728745
   33.208653   50.730278
   33.210836   50.731368
   33.213395   50.731857
   33.208705   50.733068
   33.206233   50.734523
   33.201977   50.742739
   33.189155   50.742052
   33.185851   50.742819
   33.183881   50.744100
   33.183007   50.745325
   33.182604   50.747504
   33.158774   50.774961
   33.151461   50.785338
   33.151212   50.787606
   33.149211   50.791842
   33.149584   50.794895
   33.151495   50.796779
   33.153258   50.797543
   33.155300   50.797943
   33.158026   50.797964
   33.160286   50.797542
   33.160734   50.798257
   33.158142   50.800103
   33.157046   50.802097
   33.158691   50.808429
   33.156154   50.809542
   33.154692   50.811062
   33.154272   50.812374
   33.154591   50.815142
   33.153790   50.817458
   33.150741   50.818869
   33.147336   50.823058
   33.147203   50.826062
   33.148131   50.827754
   33.148355   50.829204
   33.149390   50.830791
   33.151285   50.832019
   33.153111   50.832596
   33.158662   50.833422
   33.159476   50.834008
   33.160018   50.835419
   33.160067   50.837361
   33.161484   50.839478
   33.167882   50.843679
   33.168816   50.845178
   33.170214   50.846222
   33.167101   50.846616
   33.164747   50.847512
   33.163100   50.848903
   33.162405   50.850584
   33.162763   50.852307
   33.165917   50.856817
   33.167553   50.867348
   33.168856   50.868915
   33.171491   50.870192
   33.170673   50.872541
   33.167982   50.875632
   33.167315   50.877504
   33.164508   50.879063
   33.162109   50.882432
   33.162392   50.886595
   33.163457   50.889250
   33.164686   50.890793
   33.168452   50.893378
   33.171752   50.896212
   33.177326   50.898479
   33.180014   50.899047
   33.183238   50.898890
   33.186644   50.899308
   33.190427   50.898948
   33.192483   50.898387
   33.194486   50.899659
   33.197651   50.900386
   33.199628   50.901632
   33.202243   50.902409
   33.190568   50.918385
   33.189979   50.919796
   33.190206   50.931773
   33.190837   50.933163
   33.193168   50.935632
   33.193186   50.956937
   33.191596   50.955898
   33.189808   50.955287
   33.182217   50.954204
   33.178798   50.954315
   33.147281   50.957337
   33.139946   50.957314
   33.136101   50.957001
   33.134042   50.957369
   33.132248   50.958106
   33.130539   50.959543
   33.129851   50.961288
   33.132021   50.967334
   33.117606   50.990680
   33.114536   50.996794
   33.114522   50.998621
   33.115270   50.999911
   33.116551   51.000970
   33.116285   51.001153
   33.111103   50.999530
   33.085531   50.989396
   33.086294   50.979815
   33.085531   50.978578
   33.084233   50.977534
   33.081201   50.976457
   33.079115   50.976299
   33.077047   50.976531
   33.075175   50.977134
   33.073130   50.978377
   33.069264   50.978846
   33.066810   50.979758
   33.059022   50.980650
   33.057261   50.981325
   33.055743   50.982428
   33.046399   50.984277
   33.044582   50.985123
   33.042691   50.986824
   33.037225   50.988112
   33.035491   50.988855
   33.033845   50.990275
   33.033181   50.991985
   33.034782   50.998708
   33.038266   51.004165
   33.040535   51.006589
   33.042191   51.009069
   33.042890   51.012286
   33.043615   51.013479
   33.047026   51.015829
   33.053125   51.018349
   33.051775   51.022232
   33.051935   51.023518
   33.052662   51.024723
   33.054956   51.026293
   33.060693   51.027824
   33.066921   51.034460
   33.068324   51.035402
   33.071401   51.036300
   33.074811   51.036197
   33.076168   51.037229
   33.066556   51.040266
   33.055180   51.045940
   33.053314   51.047844
   33.053017   51.049634
   33.053538   51.050946
   33.063797   51.062976
   33.063190   51.065139
   33.036938   51.067294
   33.033770   51.068068
   33.031871   51.069305
   33.030741   51.071330
   33.032425   51.077920
   32.995829   51.080697
   32.964620   51.083701
   32.958567   51.080287
   32.955921   51.079804
   32.953182   51.079989
   32.938621   51.085934
   32.937032   51.086854
   32.935949   51.088032
   32.935470   51.089361
   32.935638   51.090719
   32.936439   51.091985
END
END
