ternopil
1
   24.712485   49.500002
   24.714735   49.500612
   24.714690   49.504734
   24.715275   49.507278
   24.714102   49.509154
   24.713258   49.514506
   24.712813   49.527300
   24.713299   49.532402
   24.714391   49.534431
   24.716260   49.535682
   24.715431   49.538842
   24.715845   49.541305
   24.717511   49.543866
   24.719310   49.545321
   24.720052   49.547051
   24.721420   49.548259
   24.720801   49.550136
   24.719280   49.552499
   24.717424   49.558480
   24.716362   49.559988
   24.714671   49.567086
   24.714504   49.570757
   24.715196   49.571982
   24.716393   49.573027
   24.719226   49.574140
   24.723972   49.574772
   24.755522   49.576402
   24.757882   49.577849
   24.761765   49.578492
   24.764987   49.578213
   24.767795   49.576942
   24.776857   49.577331
   24.786515   49.577350
   24.788377   49.580927
   24.789693   49.584993
   24.793932   49.589326
   24.797840   49.591391
   24.800467   49.592061
   24.812919   49.591214
   24.817810   49.594180
   24.822414   49.596294
   24.827016   49.597375
   24.826774   49.599611
   24.827521   49.601299
   24.829636   49.603022
   24.831849   49.603977
   24.833782   49.604294
   24.840112   49.604328
   24.842514   49.605406
   24.845279   49.605804
   24.855331   49.604640
   24.856784   49.605811
   24.858602   49.606557
   24.860477   49.608747
   24.862570   49.609757
   24.864266   49.610145
   24.864996   49.611768
   24.866622   49.613121
   24.868903   49.613978
   24.870846   49.614216
   24.883847   49.613010
   24.886357   49.612420
   24.887911   49.611589
   24.889034   49.610500
   24.891531   49.605339
   24.894158   49.604901
   24.893991   49.606653
   24.892304   49.607992
   24.891602   49.609273
   24.891579   49.611022
   24.892427   49.612751
   24.895516   49.614913
   24.901893   49.616835
   24.903196   49.617960
   24.904856   49.618728
   24.908191   49.619306
   24.914896   49.619779
   24.917547   49.619261
   24.920098   49.618066
   24.924157   49.617852
   24.925307   49.619743
   24.927767   49.621166
   24.930952   49.621683
   24.937168   49.621452
   24.940070   49.623090
   24.942641   49.623700
   24.946028   49.623475
   24.949434   49.621885
   24.951098   49.622647
   24.951399   49.624104
   24.953096   49.627521
   24.954856   49.629088
   24.950936   49.632081
   24.950167   49.633333
   24.949996   49.634678
   24.950438   49.635997
   24.951628   49.637302
   24.952257   49.641380
   24.953572   49.643618
   24.956067   49.645743
   24.958830   49.647050
   24.962211   49.647331
   24.978984   49.642607
   24.979847   49.643524
   24.979005   49.645021
   24.978777   49.646447
   24.982100   49.659867
   24.982861   49.661051
   24.984100   49.662047
   24.985717   49.662775
   24.987695   49.663188
   24.987396   49.669150
   24.991825   49.689936
   24.992231   49.693431
   24.990546   49.695361
   24.990445   49.697501
   25.015692   49.736933
   25.016714   49.738043
   25.018175   49.738918
   25.021607   49.740038
   25.023546   49.740400
   25.025563   49.740378
   25.031057   49.739249
   25.035839   49.737878
   25.039295   49.735808
   25.042783   49.735346
   25.047390   49.735250
   25.049318   49.734788
   25.050954   49.733975
   25.052152   49.732883
   25.052807   49.731608
   25.052790   49.729998
   25.065783   49.718859
   25.072720   49.723670
   25.074782   49.725697
   25.077150   49.726846
   25.088914   49.734270
   25.091743   49.735349
   25.094736   49.735479
   25.106086   49.744010
   25.107082   49.745255
   25.099313   49.752948
   25.093211   49.754354
   25.086420   49.756386
   25.084588   49.757602
   25.083596   49.759124
   25.080878   49.759990
   25.075511   49.763309
   25.067590   49.766961
   25.066342   49.768021
   25.065622   49.769273
   25.065493   49.770609
   25.065966   49.771911
   25.068408   49.774208
   25.068816   49.779768
   25.069392   49.781037
   25.070504   49.782143
   25.072650   49.783201
   25.074579   49.783596
   25.082921   49.783101
   25.082657   49.787182
   25.080179   49.791434
   25.078033   49.796999
   25.077061   49.798561
   25.076775   49.800091
   25.075480   49.818868
   25.076968   49.829074
   25.077524   49.830337
   25.079077   49.831758
   25.080721   49.832510
   25.082627   49.832921
   25.085940   49.832766
   25.094504   49.830247
   25.101108   49.825848
   25.103602   49.825122
   25.107460   49.824622
   25.110520   49.823150
   25.117004   49.822792
   25.125382   49.823112
   25.130716   49.821776
   25.133108   49.820403
   25.136081   49.820093
   25.137211   49.823806
   25.137798   49.828894
   25.138405   49.830130
   25.139523   49.831202
   25.141059   49.832022
   25.144655   49.832659
   25.145051   49.834701
   25.146952   49.836509
   25.148650   49.837231
   25.151259   49.837823
   25.159696   49.838712
   25.164174   49.838233
   25.167624   49.837384
   25.168758   49.839323
   25.169967   49.840343
   25.172166   49.841279
   25.174081   49.841588
   25.184780   49.841458
   25.205759   49.836271
   25.212537   49.834228
   25.215122   49.832870
   25.216632   49.830793
   25.236765   49.828641
   25.238101   49.828876
   25.239150   49.835944
   25.239823   49.837195
   25.241020   49.838264
   25.242640   49.839059
   25.244542   49.839513
   25.250607   49.839622
   25.255083   49.842582
   25.256975   49.843095
   25.259694   49.843176
   25.263833   49.842056
   25.266776   49.840571
   25.268555   49.838801
   25.268950   49.837041
   25.271255   49.836909
   25.273114   49.836385
   25.275083   49.835183
   25.276049   49.833926
   25.279820   49.833203
   25.283417   49.833044
   25.284847   49.834372
   25.286862   49.835277
   25.286959   49.835787
   25.284660   49.839602
   25.284415   49.840901
   25.284748   49.842193
   25.287393   49.845922
   25.288982   49.847174
   25.290844   49.847976
   25.290166   49.849662
   25.290351   49.851018
   25.292828   49.855599
   25.294975   49.857313
   25.296782   49.857940
   25.298789   49.858192
   25.301473   49.857914
   25.304665   49.856918
   25.310096   49.857237
   25.311900   49.858808
   25.314079   49.859756
   25.324755   49.860867
   25.325631   49.861160
   25.325483   49.862441
   25.325892   49.863750
   25.327790   49.865579
   25.330057   49.866527
   25.333100   49.866965
   25.336531   49.868050
   25.339361   49.868188
   25.343789   49.867514
   25.346225   49.867652
   25.348750   49.867220
   25.357783   49.869394
   25.362514   49.869968
   25.367065   49.869797
   25.366136   49.873578
   25.365970   49.876103
   25.366332   49.877366
   25.367624   49.878849
   25.369097   49.879696
   25.374106   49.881019
   25.375099   49.885744
   25.381885   49.897495
   25.381135   49.899282
   25.377018   49.902210
   25.374600   49.904864
   25.370039   49.911412
   25.369430   49.913053
   25.369781   49.914725
   25.373632   49.920450
   25.377205   49.923596
   25.377739   49.924919
   25.380168   49.928219
   25.379863   49.930699
   25.381059   49.934631
   25.383236   49.936873
   25.385341   49.938115
   25.389418   49.939053
   25.392987   49.938893
   25.394216   49.939417
   25.396082   49.940920
   25.398555   49.941776
   25.401345   49.941919
   25.413959   49.939676
   25.414439   49.940037
   25.411857   49.940656
   25.409205   49.941784
   25.403095   49.942861
   25.400443   49.943719
   25.398585   49.944833
   25.397087   49.946893
   25.394724   49.953546
   25.394807   49.955598
   25.398733   49.962100
   25.404587   49.969901
   25.397188   49.982351
   25.379499   49.985558
   25.370442   49.987663
   25.357244   49.992266
   25.341707   50.000916
   25.340219   50.002475
   25.339800   50.004292
   25.341564   50.011748
   25.342440   50.018600
   25.343793   50.020584
   25.346401   50.021925
   25.348994   50.022320
   25.352861   50.021999
   25.356703   50.046406
   25.357515   50.048095
   25.358745   50.049156
   25.361654   50.050265
   25.376489   50.052076
   25.383319   50.053319
   25.404011   50.053565
   25.412067   50.054097
   25.419860   50.054951
   25.425813   50.056390
   25.432675   50.074246
   25.434474   50.075602
   25.436369   50.076420
   25.444221   50.078079
   25.444499   50.081724
   25.445086   50.083005
   25.446701   50.084434
   25.449340   50.085405
   25.447156   50.093993
   25.447522   50.095780
   25.448485   50.096980
   25.449948   50.097939
   25.451778   50.098571
   25.457814   50.098906
   25.459196   50.101097
   25.461810   50.102448
   25.480413   50.105271
   25.478373   50.110099
   25.454750   50.112356
   25.451551   50.113240
   25.444399   50.119572
   25.441959   50.122844
   25.441539   50.124236
   25.442340   50.150480
   25.442931   50.152254
   25.444538   50.153733
   25.451005   50.157679
   25.471985   50.169796
   25.474292   50.170516
   25.476201   50.170665
   25.502882   50.168816
   25.505783   50.167692
   25.507527   50.165803
   25.507917   50.164306
   25.507292   50.160270
   25.550824   50.155791
   25.569999   50.178991
   25.571372   50.179973
   25.573121   50.180650
   25.576452   50.180957
   25.583837   50.179093
   25.613348   50.166758
   25.626222   50.157874
   25.682180   50.181192
   25.694924   50.182123
   25.698413   50.181039
   25.705261   50.176250
   25.714777   50.177027
   25.716117   50.178843
   25.718191   50.180062
   25.722802   50.189027
   25.724570   50.190373
   25.726992   50.191169
   25.730365   50.191214
   25.732262   50.190725
   25.734234   50.189631
   25.736876   50.189758
   25.738778   50.189492
   25.748468   50.187140
   25.759342   50.183457
   25.761726   50.184672
   25.766671   50.185420
   25.772850   50.185289
   25.774755   50.184980
   25.782456   50.185985
   25.785209   50.187268
   25.792415   50.189090
   25.795306   50.189521
   25.798343   50.189469
   25.803176   50.188522
   25.808731   50.187996
   25.811873   50.187967
   25.815474   50.186713
   25.819928   50.186498
   25.824625   50.187903
   25.827313   50.188113
   25.829139   50.188844
   25.831393   50.189186
   25.835531   50.190687
   25.837251   50.191796
   25.840313   50.193061
   25.851220   50.195496
   25.853450   50.195747
   25.858082   50.199943
   25.860199   50.202558
   25.863892   50.206042
   25.863043   50.208615
   25.863213   50.211010
   25.866232   50.215317
   25.867757   50.216383
   25.870560   50.217552
   25.870584   50.219912
   25.871691   50.221608
   25.873756   50.222980
   25.877570   50.224257
   25.879401   50.225263
   25.886089   50.231776
   25.889433   50.233907
   25.894093   50.237738
   25.900405   50.241702
   25.915328   50.249933
   25.914551   50.251522
   25.914743   50.254198
   25.915537   50.255951
   25.916799   50.257050
   25.920603   50.258545
   25.925936   50.259911
   25.935619   50.261071
   25.948258   50.260313
   25.955736   50.261852
   25.960431   50.261605
   25.965806   50.260465
   25.967976   50.259482
   25.969716   50.257981
   25.974901   50.252023
   25.976469   50.248607
   25.980485   50.247092
   25.984075   50.247727
   25.992485   50.247596
   26.000763   50.245655
   26.006704   50.242826
   26.010736   50.240393
   26.013628   50.237368
   26.014977   50.233965
   26.017146   50.234050
   26.026229   50.239616
   26.027965   50.240375
   26.055805   50.258797
   26.061702   50.261454
   26.065059   50.262004
   26.067123   50.261785
   26.071798   50.260343
   26.081569   50.254451
   26.084960   50.254084
   26.122050   50.244861
   26.143475   50.239810
   26.158842   50.236534
   26.159533   50.238305
   26.161644   50.239988
   26.161241   50.241495
   26.161496   50.242851
   26.164516   50.247012
   26.187117   50.266395
   26.188834   50.267015
   26.190747   50.267294
   26.209753   50.267936
   26.211197   50.269316
   26.212771   50.270085
   26.220358   50.271323
   26.222991   50.271191
   26.225862   50.270141
   26.227105   50.269127
   26.227986   50.267496
   26.228827   50.257576
   26.227325   50.254969
   26.225979   50.253951
   26.224198   50.253210
   26.224676   50.248067
   26.223736   50.245937
   26.222454   50.244893
   26.220763   50.244142
   26.217314   50.243711
   26.218731   50.230514
   26.218372   50.228724
   26.216484   50.226846
   26.214115   50.225925
   26.212078   50.225676
   26.204822   50.225972
   26.200822   50.224665
   26.197909   50.223265
   26.195940   50.222839
   26.194121   50.222801
   26.196182   50.222032
   26.197861   50.220681
   26.198535   50.219447
   26.198548   50.217704
   26.188043   50.199910
   26.195554   50.198006
   26.197806   50.197074
   26.199047   50.196044
   26.199783   50.194823
   26.199583   50.192312
   26.201661   50.190998
   26.207525   50.190661
   26.213026   50.189496
   26.222150   50.185878
   26.224827   50.183638
   26.227091   50.180731
   26.227082   50.178561
   26.225064   50.175744
   26.221410   50.173960
   26.222637   50.172571
   26.223032   50.171213
   26.227251   50.166530
   26.227849   50.164385
   26.227432   50.163097
   26.226468   50.161943
   26.223493   50.160396
   26.224050   50.157340
   26.223362   50.155595
   26.221689   50.154165
   26.219747   50.153389
   26.223239   50.151503
   26.228011   50.149503
   26.229837   50.147928
   26.231728   50.148856
   26.234471   50.149429
   26.238939   50.149289
   26.246645   50.147454
   26.249135   50.146054
   26.250232   50.144485
   26.250225   50.142335
   26.243787   50.133035
   26.249540   50.130805
   26.268632   50.120522
   26.277022   50.117452
   26.279083   50.116299
   26.280458   50.114279
   26.281095   50.107524
   26.280315   50.101985
   26.279285   50.100360
   26.277930   50.099379
   26.275422   50.098227
   26.272913   50.097699
   26.267091   50.097896
   26.262955   50.097685
   26.243104   50.096384
   26.240770   50.095971
   26.238754   50.096053
   26.209833   50.094228
   26.211517   50.090974
   26.211668   50.089580
   26.207913   50.080978
   26.212767   50.078038
   26.213614   50.076780
   26.213844   50.075412
   26.213163   50.073639
   26.209971   50.069487
   26.213157   50.069382
   26.215088   50.068911
   26.227206   50.062560
   26.228357   50.060893
   26.228387   50.058345
   26.230004   50.057393
   26.231237   50.055860
   26.231881   50.052473
   26.233788   50.048837
   26.233701   50.046348
   26.232083   50.043820
   26.230246   50.042397
   26.226805   50.041271
   26.223967   50.041214
   26.223088   50.035069
   26.222215   50.033829
   26.220256   50.032546
   26.216992   50.031813
   26.207429   50.032502
   26.203512   50.031931
   26.200314   50.030830
   26.195442   50.027721
   26.190293   50.025848
   26.191907   50.024963
   26.198973   50.024741
   26.202697   50.024053
   26.205430   50.022788
   26.208817   50.021888
   26.210762   50.020562
   26.213073   50.020247
   26.214897   50.019596
   26.216343   50.018620
   26.217280   50.017405
   26.217506   50.015157
   26.211989   50.004485
   26.208890   49.991865
   26.207582   49.989830
   26.206131   49.988895
   26.203558   49.988023
   26.199072   49.987466
   26.196649   49.987645
   26.187125   49.987352
   26.183605   49.987896
   26.180878   49.987906
   26.175938   49.988858
   26.176292   49.986727
   26.175760   49.985486
   26.174715   49.984393
   26.171069   49.982061
   26.167259   49.980455
   26.164739   49.979862
   26.162059   49.979944
   26.160504   49.976423
   26.157664   49.973477
   26.155779   49.972231
   26.153375   49.971560
   26.154452   49.970488
   26.155078   49.969109
   26.154999   49.963862
   26.154256   49.962190
   26.152222   49.960090
   26.159723   49.944980
   26.164203   49.934185
   26.172491   49.924101
   26.173075   49.922809
   26.173051   49.921461
   26.171693   49.919415
   26.169623   49.918244
   26.165286   49.917555
   26.162196   49.915793
   26.157111   49.914733
   26.153761   49.912649
   26.150261   49.912023
   26.145514   49.910328
   26.144111   49.907925
   26.140445   49.904853
   26.139889   49.900369
   26.140732   49.899883
   26.144419   49.900103
   26.146986   49.899786
   26.153802   49.897510
   26.157110   49.895606
   26.160435   49.895142
   26.162680   49.894381
   26.167204   49.891602
   26.169057   49.889714
   26.169666   49.888417
   26.169877   49.886201
   26.169469   49.883859
   26.178140   49.879746
   26.182053   49.879570
   26.188498   49.878585
   26.191760   49.877636
   26.196736   49.875589
   26.200708   49.873380
   26.203649   49.870485
   26.206251   49.869252
   26.207574   49.867702
   26.207796   49.865496
   26.206795   49.863847
   26.189594   49.849724
   26.191134   49.848647
   26.192208   49.846987
   26.192318   49.844676
   26.191550   49.842601
   26.192325   49.839609
   26.194282   49.838476
   26.196824   49.835801
   26.197628   49.833506
   26.197461   49.831728
   26.198971   49.830671
   26.200473   49.828938
   26.200979   49.827457
   26.200743   49.825976
   26.201415   49.824978
   26.207038   49.824144
   26.209818   49.823028
   26.212020   49.820993
   26.212903   49.818891
   26.216034   49.814766
   26.219487   49.814314
   26.221275   49.813719
   26.222726   49.812811
   26.224254   49.811234
   26.225004   49.809207
   26.227333   49.805759
   26.227283   49.803040
   26.226635   49.800709
   26.229882   49.798467
   26.232930   49.795613
   26.234622   49.790292
   26.236348   49.788150
   26.236240   49.785958
   26.233555   49.781433
   26.243697   49.779691
   26.245854   49.778650
   26.247244   49.777149
   26.247652   49.775856
   26.247473   49.774541
   26.245764   49.770760
   26.243873   49.769061
   26.245612   49.763706
   26.247699   49.760835
   26.248825   49.757699
   26.249203   49.748685
   26.250316   49.746594
   26.250437   49.744948
   26.249701   49.743243
   26.248022   49.741854
   26.234694   49.735784
   26.229103   49.733748
   26.220015   49.731944
   26.219211   49.729641
   26.217409   49.727431
   26.214899   49.725576
   26.210502   49.723201
   26.200573   49.713536
   26.203680   49.713319
   26.206944   49.712474
   26.211545   49.711749
   26.217293   49.709704
   26.224087   49.707741
   26.228011   49.706082
   26.232727   49.701504
   26.242073   49.698982
   26.246318   49.696782
   26.250410   49.693443
   26.255178   49.684324
   26.261792   49.679396
   26.270511   49.675175
   26.274919   49.670748
   26.275556   49.669515
   26.276179   49.665014
   26.275982   49.661905
   26.278673   49.658939
   26.279337   49.657325
   26.279183   49.655897
   26.278442   49.654614
   26.274329   49.651808
   26.271905   49.650845
   26.267943   49.650556
   26.269756   49.647901
   26.272399   49.642276
   26.271859   49.640423
   26.267760   49.634601
   26.258724   49.629753
   26.256123   49.628899
   26.253838   49.628670
   26.251966   49.628734
   26.247249   49.629616
   26.238131   49.633076
   26.237226   49.632930
   26.236825   49.630428
   26.235269   49.627508
   26.233172   49.624825
   26.232599   49.622637
   26.231295   49.621070
   26.229513   49.619830
   26.222029   49.616604
   26.220770   49.614035
   26.219216   49.612436
   26.216128   49.610690
   26.214953   49.608094
   26.213543   49.606644
   26.211410   49.605644
   26.208333   49.605069
   26.209151   49.603202
   26.212919   49.597728
   26.216969   49.595548
   26.219260   49.593818
   26.221284   49.590709
   26.221502   49.588329
   26.220163   49.582320
   26.218330   49.580001
   26.215091   49.578323
   26.217306   49.576655
   26.220209   49.573240
   26.220748   49.572008
   26.220689   49.570563
   26.222155   49.568634
   26.222203   49.566310
   26.220533   49.562918
   26.222943   49.559861
   26.223474   49.557846
   26.225322   49.556405
   26.226219   49.554855
   26.225962   49.550725
   26.225164   49.549086
   26.221219   49.546262
   26.218152   49.545464
   26.213510   49.543193
   26.210250   49.542326
   26.205081   49.541807
   26.201286   49.541976
   26.197322   49.543715
   26.194851   49.546628
   26.193637   49.550480
   26.191949   49.548916
   26.189682   49.547670
   26.185415   49.546197
   26.180354   49.545540
   26.178935   49.542462
   26.176743   49.539132
   26.170927   49.533695
   26.165312   49.530229
   26.164125   49.523332
   26.164626   49.521002
   26.163681   49.518477
   26.160813   49.516137
   26.157882   49.514628
   26.156532   49.513439
   26.152345   49.511552
   26.154421   49.510963
   26.156725   49.509762
   26.158349   49.508093
   26.159033   49.506297
   26.161089   49.504847
   26.164641   49.501074
   26.168844   49.498670
   26.171994   49.495096
   26.176088   49.494267
   26.179359   49.492588
   26.184441   49.490811
   26.188985   49.486784
   26.194212   49.483327
   26.194927   49.482075
   26.195484   49.477028
   26.196678   49.473497
   26.196683   49.464047
   26.196067   49.460427
   26.196119   49.454934
   26.199389   49.451682
   26.202653   49.446234
   26.203377   49.444037
   26.205770   49.441847
   26.207048   49.439409
   26.206400   49.436810
   26.201572   49.432835
   26.200795   49.430439
   26.202509   49.428190
   26.205091   49.426840
   26.207992   49.426622
   26.210670   49.425694
   26.213666   49.426203
   26.216308   49.426042
   26.218121   49.425495
   26.220723   49.424009
   26.222258   49.422484
   26.222800   49.421020
   26.224920   49.419301
   26.225800   49.417283
   26.228513   49.415044
   26.230599   49.413949
   26.231745   49.412672
   26.235601   49.409721
   26.236250   49.407498
   26.235517   49.405673
   26.237531   49.405316
   26.239716   49.404311
   26.241331   49.402872
   26.242182   49.401487
   26.242379   49.398664
   26.241447   49.397010
   26.238792   49.394524
   26.238738   49.391150
   26.237741   49.388750
   26.236136   49.386436
   26.236378   49.382020
   26.235209   49.380401
   26.232261   49.378038
   26.235132   49.376946
   26.247811   49.373707
   26.249745   49.372658
   26.251157   49.371090
   26.251707   49.369048
   26.250878   49.366637
   26.246167   49.362980
   26.245616   49.361812
   26.243506   49.359524
   26.245995   49.358715
   26.247972   49.357599
   26.250357   49.355170
   26.250911   49.352930
   26.250685   49.347443
   26.250028   49.345440
   26.248587   49.343795
   26.247216   49.342763
   26.244782   49.341891
   26.241074   49.341404
   26.238414   49.341571
   26.236050   49.342387
   26.233657   49.343900
   26.232460   49.341400
   26.232175   49.339401
   26.232442   49.331368
   26.232919   49.328586
   26.233049   49.328114
   26.234879   49.326749
   26.249504   49.319850
   26.255949   49.314109
   26.258714   49.309832
   26.259090   49.307097
   26.258490   49.304522
   26.257225   49.302133
   26.256198   49.301072
   26.254429   49.300034
   26.255931   49.298748
   26.263022   49.295113
   26.265936   49.291418
   26.266460   49.289754
   26.266010   49.288081
   26.264519   49.286007
   26.262471   49.284614
   26.259690   49.283776
   26.262713   49.281560
   26.263642   49.280453
   26.264580   49.277854
   26.264114   49.275657
   26.261975   49.273400
   26.257451   49.271843
   26.258819   49.270651
   26.262726   49.268950
   26.264159   49.267581
   26.265307   49.264600
   26.264948   49.262230
   26.263952   49.260564
   26.261305   49.258388
   26.251198   49.252616
   26.253144   49.250709
   26.253741   49.248240
   26.252583   49.245020
   26.250999   49.242552
   26.249173   49.240474
   26.247767   49.239456
   26.245960   49.238761
   26.243429   49.238295
   26.239132   49.238796
   26.234096   49.240922
   26.228592   49.241226
   26.225974   49.241093
   26.222651   49.241592
   26.220750   49.241113
   26.216497   49.240781
   26.209034   49.241367
   26.207855   49.241075
   26.207900   49.238739
   26.209966   49.237813
   26.213643   49.234890
   26.214290   49.233186
   26.214093   49.231872
   26.213135   49.230308
   26.211014   49.228403
   26.208154   49.226878
   26.209529   49.225102
   26.210182   49.222737
   26.210011   49.221375
   26.208897   49.218991
   26.206748   49.216991
   26.202626   49.215486
   26.203066   49.212435
   26.202569   49.210819
   26.200704   49.208638
   26.198045   49.206770
   26.196684   49.204676
   26.193871   49.201611
   26.191718   49.198246
   26.191982   49.196666
   26.191525   49.195329
   26.198130   49.189278
   26.199822   49.186929
   26.201414   49.185783
   26.202808   49.183235
   26.202834   49.179335
   26.201131   49.176065
   26.199709   49.174568
   26.202485   49.173882
   26.206455   49.173484
   26.209477   49.171928
   26.212653   49.171100
   26.214269   49.170328
   26.216505   49.168091
   26.216814   49.166359
   26.216342   49.165038
   26.217979   49.161857
   26.217247   49.159570
   26.215441   49.157762
   26.213902   49.156871
   26.211679   49.156147
   26.207843   49.153986
   26.206003   49.153368
   26.203561   49.153104
   26.199304   49.153863
   26.205061   49.148546
   26.205911   49.146946
   26.205774   49.145114
   26.203145   49.139611
   26.206555   49.139220
   26.209473   49.137923
   26.211165   49.136385
   26.212575   49.132993
   26.212231   49.131261
   26.210911   49.129744
   26.207386   49.127772
   26.204792   49.127015
   26.204239   49.126561
   26.205642   49.124712
   26.207112   49.118478
   26.208727   49.117196
   26.210198   49.114444
   26.211069   49.107617
   26.210811   49.103549
   26.211648   49.100906
   26.210411   49.095737
   26.208742   49.093409
   26.206598   49.092002
   26.206107   49.089653
   26.204808   49.088226
   26.204501   49.087156
   26.204964   49.083911
   26.204063   49.080897
   26.201298   49.077603
   26.207064   49.078462
   26.212287   49.078770
   26.216522   49.078299
   26.219150   49.077225
   26.220446   49.076322
   26.222021   49.074346
   26.222531   49.072225
   26.221143   49.069254
   26.218361   49.066836
   26.207620   49.062178
   26.202668   49.061159
   26.199539   49.060949
   26.193646   49.058547
   26.192021   49.056616
   26.190436   49.055401
   26.190750   49.053905
   26.194381   49.049012
   26.196487   49.048624
   26.200167   49.047193
   26.207253   49.042679
   26.209312   49.042181
   26.210948   49.041369
   26.212312   49.040319
   26.214260   49.037579
   26.215811   49.031921
   26.214881   49.029226
   26.212487   49.027090
   26.209338   49.025856
   26.206342   49.025550
   26.205430   49.024483
   26.207486   49.022332
   26.210200   49.020616
   26.211282   49.019218
   26.216773   49.017383
   26.219009   49.016216
   26.220435   49.014978
   26.221558   49.013349
   26.222367   49.011191
   26.222592   49.006214
   26.221754   49.000915
   26.221201   48.999654
   26.219655   48.998233
   26.214976   48.995756
   26.211099   48.995269
   26.206803   48.995835
   26.202843   48.995619
   26.194876   48.996289
   26.192193   48.996901
   26.190261   48.997710
   26.187381   48.997703
   26.184294   48.995975
   26.184759   48.994885
   26.187172   48.992995
   26.188371   48.992582
   26.195331   48.992388
   26.204146   48.993092
   26.208453   48.992804
   26.210784   48.992193
   26.213949   48.990687
   26.216897   48.988112
   26.218102   48.986152
   26.218855   48.982641
   26.217473   48.979667
   26.212524   48.974992
   26.208403   48.972495
   26.205515   48.971346
   26.201771   48.970197
   26.196156   48.969726
   26.192716   48.970433
   26.189752   48.972079
   26.186533   48.973022
   26.184710   48.972469
   26.184181   48.970185
   26.186570   48.968711
   26.189075   48.968422
   26.192520   48.967022
   26.196156   48.966024
   26.201844   48.965254
   26.204913   48.963861
   26.208404   48.962841
   26.213229   48.959607
   26.215174   48.955519
   26.214158   48.947988
   26.212792   48.944697
   26.209452   48.941459
   26.207683   48.938511
   26.203402   48.935204
   26.202799   48.933344
   26.201227   48.931902
   26.201755   48.928465
   26.201389   48.926947
   26.203502   48.925469
   26.206115   48.921916
   26.206123   48.919881
   26.205041   48.916851
   26.202985   48.914806
   26.201049   48.913829
   26.196462   48.912965
   26.192984   48.913063
   26.192717   48.912144
   26.197701   48.908509
   26.200192   48.910205
   26.204017   48.915058
   26.206860   48.916910
   26.210832   48.918170
   26.215538   48.918253
   26.222777   48.916967
   26.226791   48.915194
   26.229920   48.912326
   26.231508   48.909082
   26.231477   48.903194
   26.230756   48.901845
   26.228995   48.900150
   26.225742   48.898622
   26.223049   48.898230
   26.219236   48.896320
   26.214531   48.895514
   26.212052   48.894735
   26.212323   48.891934
   26.216477   48.888371
   26.217474   48.886039
   26.220338   48.884177
   26.221105   48.882990
   26.221331   48.881709
   26.220942   48.879083
   26.219731   48.877108
   26.218255   48.876062
   26.214603   48.874671
   26.214229   48.874245
   26.214991   48.873306
   26.217630   48.871619
   26.219047   48.868950
   26.219295   48.866583
   26.218139   48.863294
   26.215434   48.860542
   26.212332   48.859132
   26.208838   48.858526
   26.209120   48.857772
   26.212924   48.856594
   26.216899   48.856803
   26.220352   48.856063
   26.223422   48.854527
   26.224478   48.853420
   26.225056   48.851892
   26.227641   48.850089
   26.228776   48.848166
   26.229288   48.844386
   26.228816   48.841721
   26.227605   48.839075
   26.226032   48.837030
   26.225652   48.836162
   26.225909   48.835596
   26.232974   48.833419
   26.238193   48.829774
   26.239659   48.827359
   26.239675   48.823790
   26.244643   48.826234
   26.248259   48.827064
   26.251274   48.827165
   26.255496   48.826368
   26.258085   48.825266
   26.261008   48.823110
   26.263205   48.820165
   26.265437   48.815834
   26.265024   48.813406
   26.263245   48.811414
   26.262111   48.809334
   26.259117   48.806025
   26.256185   48.804544
   26.253623   48.804017
   26.247310   48.803896
   26.240091   48.804902
   26.235947   48.806154
   26.236539   48.803962
   26.237809   48.802844
   26.239938   48.799448
   26.242378   48.797112
   26.243235   48.795061
   26.241990   48.789971
   26.240334   48.788105
   26.238046   48.786650
   26.235297   48.785655
   26.232018   48.785479
   26.224942   48.786940
   26.221897   48.787997
   26.217990   48.788425
   26.218368   48.784880
   26.219421   48.783882
   26.220435   48.783736
   26.223631   48.784405
   26.233528   48.784344
   26.237876   48.783044
   26.240686   48.781231
   26.243517   48.778372
   26.244946   48.776257
   26.245582   48.773083
   26.245327   48.768859
   26.244941   48.767553
   26.243605   48.766032
   26.240758   48.764558
   26.238597   48.762878
   26.249091   48.760138
   26.251623   48.758489
   26.252792   48.756151
   26.252405   48.753201
   26.249959   48.750123
   26.248929   48.748042
   26.245971   48.746000
   26.243043   48.745070
   26.245843   48.744293
   26.248796   48.742545
   26.250759   48.739988
   26.251374   48.736886
   26.250221   48.732480
   26.249091   48.730529
   26.245787   48.727837
   26.242795   48.726236
   26.244806   48.724413
   26.246017   48.722514
   26.246647   48.720202
   26.246278   48.717700
   26.244825   48.715469
   26.238946   48.711277
   26.238479   48.709932
   26.237100   48.708478
   26.237249   48.707975
   26.239671   48.705896
   26.240475   48.704228
   26.242546   48.703248
   26.243987   48.701735
   26.244871   48.698524
   26.244463   48.695775
   26.241832   48.691324
   26.240512   48.690073
   26.238252   48.688781
   26.236258   48.688239
   26.233825   48.688024
   26.227353   48.688272
   26.229129   48.687021
   26.235518   48.686260
   26.239103   48.687126
   26.241719   48.688223
   26.243728   48.688576
   26.247267   48.688377
   26.250041   48.687361
   26.251431   48.686241
   26.252203   48.685067
   26.252631   48.681182
   26.251756   48.679490
   26.248745   48.677146
   26.249767   48.675459
   26.250009   48.674142
   26.251508   48.672669
   26.257211   48.672648
   26.260219   48.673539
   26.264254   48.675523
   26.267536   48.676390
   26.269563   48.676491
   26.272885   48.675958
   26.275395   48.674843
   26.277784   48.674376
   26.284139   48.671497
   26.286151   48.669719
   26.286947   48.668493
   26.287184   48.665930
   26.286488   48.664604
   26.284826   48.663239
   26.284337   48.662310
   26.284799   48.660504
   26.284116   48.658176
   26.281979   48.656148
   26.280160   48.653253
   26.282601   48.653759
   26.285933   48.653682
   26.287806   48.654061
   26.289761   48.655286
   26.290585   48.657596
   26.291685   48.658777
   26.294565   48.660259
   26.296369   48.661712
   26.298688   48.662520
   26.304331   48.662781
   26.309065   48.662151
   26.311973   48.661100
   26.313394   48.660056
   26.315897   48.656207
   26.316632   48.654306
   26.316354   48.651121
   26.315359   48.648119
   26.313440   48.646224
   26.309169   48.643703
   26.300937   48.639807
   26.303957   48.639982
   26.313570   48.642253
   26.316553   48.642414
   26.319937   48.641924
   26.325528   48.639561
   26.327726   48.637559
   26.330418   48.632967
   26.330879   48.630645
   26.330486   48.628591
   26.328546   48.625250
   26.327272   48.624101
   26.321781   48.621047
   26.318423   48.620150
   26.320026   48.619800
   26.324477   48.618005
   26.327379   48.615697
   26.330405   48.614678
   26.332877   48.612999
   26.333917   48.610916
   26.334098   48.608591
   26.332756   48.604675
   26.332556   48.602210
   26.335963   48.601108
   26.337789   48.601866
   26.340336   48.602230
   26.342895   48.602058
   26.344816   48.601469
   26.346645   48.600347
   26.348352   48.598536
   26.350469   48.594978
   26.350758   48.592951
   26.354039   48.592913
   26.358225   48.593483
   26.361995   48.592797
   26.363803   48.592015
   26.365461   48.590663
   26.367775   48.587257
   26.368191   48.584296
   26.367762   48.582435
   26.365012   48.578228
   26.363567   48.577198
   26.361370   48.576325
   26.358607   48.574328
   26.348796   48.571993
   26.345093   48.570586
   26.343916   48.568940
   26.345654   48.567371
   26.347474   48.566527
   26.353896   48.564868
   26.360946   48.565585
   26.363537   48.565374
   26.366300   48.564442
   26.368185   48.563203
   26.370666   48.566233
   26.376189   48.568789
   26.379956   48.569252
   26.384425   48.568812
   26.387055   48.568150
   26.390354   48.566821
   26.392433   48.565620
   26.395548   48.563417
   26.398506   48.560656
   26.400861   48.559298
   26.403025   48.557164
   26.404578   48.553800
   26.406206   48.552547
   26.410584   48.547340
   26.412899   48.545705
   26.414692   48.545251
   26.417022   48.545297
   26.417863   48.545688
   26.421282   48.549130
   26.423082   48.550367
   26.425810   48.551451
   26.428770   48.552013
   26.434409   48.552093
   26.436928   48.551777
   26.439957   48.550883
   26.443181   48.549480
   26.446998   48.547049
   26.449375   48.543484
   26.450532   48.538502
   26.449997   48.536733
   26.448921   48.535574
   26.442015   48.532448
   26.439107   48.531529
   26.434067   48.530721
   26.431273   48.530543
   26.424095   48.530945
   26.413316   48.532588
   26.404988   48.532736
   26.395258   48.530868
   26.390360   48.528503
   26.383445   48.520073
   26.373617   48.510316
   26.371683   48.508826
   26.367544   48.506591
   26.361642   48.504381
   26.359071   48.503570
   26.355296   48.502969
   26.350256   48.503188
   26.339348   48.505772
   26.335957   48.506967
   26.325151   48.512200
   26.324438   48.512263
   26.313430   48.505906
   26.309769   48.504617
   26.306400   48.504161
   26.303155   48.504203
   26.299208   48.504918
   26.296361   48.505871
   26.291181   48.508688
   26.288114   48.511928
   26.281933   48.521940
   26.273828   48.533815
   26.272335   48.534654
   26.267143   48.535426
   26.263677   48.535152
   26.254798   48.533432
   26.233258   48.527223
   26.215666   48.523493
   26.206723   48.522762
   26.200872   48.521348
   26.192124   48.521027
   26.185880   48.521318
   26.180299   48.522223
   26.177025   48.523077
   26.169105   48.523536
   26.166433   48.524039
   26.158792   48.527058
   26.154087   48.529596
   26.148368   48.533547
   26.144182   48.538064
   26.141332   48.542570
   26.139105   48.549123
   26.138939   48.551743
   26.137671   48.556067
   26.137281   48.561554
   26.135588   48.571068
   26.137295   48.585848
   26.138498   48.592660
   26.137921   48.596878
   26.119218   48.614459
   26.117193   48.615475
   26.115799   48.615440
   26.110752   48.614308
   26.108304   48.613163
   26.106007   48.611339
   26.104397   48.609322
   26.103746   48.607486
   26.102842   48.600097
   26.102997   48.599668
   26.107995   48.596092
   26.110298   48.593164
   26.111241   48.589330
   26.111241   48.584787
   26.112360   48.582480
   26.114436   48.580999
   26.117429   48.579749
   26.125496   48.575191
   26.127117   48.574011
   26.129671   48.571139
   26.131551   48.567934
   26.133880   48.561923
   26.134478   48.556109
   26.133819   48.553500
   26.129212   48.546202
   26.127413   48.544443
   26.123456   48.542046
   26.111769   48.536273
   26.107528   48.534679
   26.101421   48.533784
   26.095035   48.533605
   26.089406   48.534509
   26.086122   48.535864
   26.083454   48.538200
   26.082040   48.540849
   26.079580   48.547427
   26.076683   48.551572
   26.074670   48.553753
   26.070298   48.557209
   26.064383   48.561156
   26.053732   48.566554
   26.051818   48.567933
   26.039965   48.580727
   26.037652   48.584091
   26.037459   48.588162
   26.038955   48.591476
   26.041538   48.593352
   26.048966   48.596295
   26.051233   48.601108
   26.057687   48.605484
   26.058931   48.607624
   26.058151   48.610056
   26.054127   48.615154
   26.052472   48.618432
   26.051526   48.621709
   26.052050   48.625906
   26.054447   48.630407
   26.055502   48.633383
   26.055331   48.635940
   26.053175   48.640248
   26.051308   48.642533
   26.048654   48.643680
   26.044826   48.644558
   26.042412   48.644529
   26.040363   48.643994
   26.036125   48.637631
   26.035723   48.633941
   26.036831   48.622606
   26.036218   48.619314
   26.035093   48.616923
   26.031428   48.612220
   26.027422   48.608040
   26.022479   48.605749
   26.017259   48.605068
   26.013331   48.605091
   26.009594   48.605596
   26.005036   48.606963
   25.994329   48.612212
   25.987590   48.614738
   25.983733   48.615821
   25.977454   48.616501
   25.976485   48.616363
   25.973451   48.615082
   25.959832   48.605157
   25.958097   48.604248
   25.947513   48.593832
   25.940285   48.588770
   25.937684   48.587290
   25.931383   48.584749
   25.925053   48.583264
   25.920231   48.582596
   25.914261   48.582289
   25.908268   48.582399
   25.902803   48.583118
   25.898680   48.584118
   25.895093   48.585385
   25.873983   48.595221
   25.867335   48.593512
   25.861653   48.592644
   25.852406   48.591813
   25.847554   48.592389
   25.845733   48.593035
   25.843612   48.594342
   25.841632   48.596477
   25.840652   48.599300
   25.840544   48.602452
   25.841089   48.605067
   25.842614   48.607617
   25.849188   48.614359
   25.849454   48.615376
   25.848666   48.617862
   25.845660   48.620659
   25.840045   48.624510
   25.837208   48.625923
   25.834197   48.628228
   25.829634   48.634021
   25.820963   48.641525
   25.813798   48.650999
   25.808292   48.656910
   25.801601   48.663505
   25.797759   48.665941
   25.796316   48.666508
   25.789319   48.668203
   25.780809   48.671120
   25.775655   48.669270
   25.771354   48.666808
   25.764092   48.661822
   25.757169   48.653216
   25.755672   48.650756
   25.753741   48.646175
   25.753507   48.637897
   25.751490   48.634117
   25.749244   48.631959
   25.745452   48.629961
   25.741578   48.629008
   25.736657   48.628751
   25.730881   48.629480
   25.727502   48.630692
   25.723396   48.633278
   25.719943   48.636396
   25.718272   48.639777
   25.716573   48.649997
   25.714856   48.653378
   25.711799   48.656760
   25.707917   48.659335
   25.706014   48.659854
   25.702410   48.660141
   25.694942   48.660219
   25.681325   48.659832
   25.663082   48.662168
   25.658123   48.662188
   25.652249   48.662801
   25.647976   48.663635
   25.642531   48.665198
   25.635953   48.665899
   25.629975   48.667274
   25.623713   48.669311
   25.618129   48.672365
   25.615522   48.674765
   25.614222   48.677250
   25.613950   48.679114
   25.614260   48.680923
   25.615552   48.683305
   25.617778   48.685703
   25.621282   48.688319
   25.624844   48.690176
   25.632452   48.692871
   25.638743   48.695638
   25.643992   48.699743
   25.645419   48.701676
   25.646160   48.704218
   25.644261   48.706605
   25.640950   48.707992
   25.635708   48.709147
   25.625568   48.710809
   25.615006   48.711925
   25.610930   48.713162
   25.606826   48.715892
   25.604743   48.718243
   25.603090   48.722132
   25.603108   48.726143
   25.605079   48.729652
   25.608714   48.732569
   25.613300   48.734964
   25.622483   48.738899
   25.631151   48.741798
   25.633841   48.744630
   25.634251   48.746008
   25.631511   48.747932
   25.615662   48.755033
   25.599897   48.760518
   25.594868   48.762813
   25.591279   48.765121
   25.585355   48.770040
   25.580902   48.773062
   25.572945   48.779700
   25.568786   48.782486
   25.559484   48.790286
   25.556622   48.791962
   25.548199   48.795955
   25.540439   48.798738
   25.531927   48.798245
   25.525558   48.798417
   25.520991   48.798995
   25.513586   48.800601
   25.508227   48.801138
   25.501384   48.802995
   25.498092   48.804238
   25.491938   48.807930
   25.486259   48.813885
   25.479300   48.818343
   25.477203   48.819194
   25.472012   48.820425
   25.466969   48.822454
   25.460468   48.823944
   25.450411   48.827778
   25.447545   48.829902
   25.443763   48.834907
   25.442861   48.837699
   25.443426   48.840325
   25.445904   48.843295
   25.453747   48.848455
   25.462162   48.855919
   25.460044   48.857447
   25.455024   48.859238
   25.446712   48.864094
   25.441142   48.865371
   25.436211   48.867515
   25.434045   48.866845
   25.434508   48.865081
   25.435922   48.863154
   25.441159   48.857626
   25.443847   48.854082
   25.445545   48.850502
   25.445805   48.848197
   25.444716   48.844795
   25.442786   48.842861
   25.438546   48.840373
   25.433608   48.839074
   25.425773   48.838555
   25.413926   48.840528
   25.399849   48.843845
   25.390852   48.846866
   25.385402   48.848035
   25.370867   48.852112
   25.365057   48.854191
   25.361538   48.854257
   25.354308   48.855053
   25.352008   48.854772
   25.348227   48.853746
   25.346139   48.851281
   25.344505   48.850492
   25.342682   48.850064
   25.343010   48.846604
   25.344619   48.844676
   25.347357   48.839537
   25.347031   48.837388
   25.345278   48.835444
   25.343157   48.834389
   25.337839   48.833069
   25.324218   48.833314
   25.321202   48.834189
   25.319151   48.835882
   25.318529   48.837569
   25.318845   48.841906
   25.318376   48.842764
   25.314652   48.842313
   25.306446   48.840114
   25.300477   48.839235
   25.294217   48.839722
   25.290741   48.840458
   25.288010   48.841401
   25.284843   48.843358
   25.282390   48.846501
   25.281754   48.848756
   25.281544   48.853192
   25.279211   48.856694
   25.278439   48.858958
   25.269547   48.861229
   25.260375   48.862138
   25.248120   48.861937
   25.243186   48.862301
   25.241430   48.861912
   25.236530   48.849000
   25.233575   48.845616
   25.229164   48.842930
   25.225758   48.841783
   25.217991   48.840726
   25.213162   48.840992
   25.208029   48.842135
   25.205058   48.843747
   25.202844   48.846148
   25.202004   48.848364
   25.202148   48.850583
   25.203213   48.853680
   25.206804   48.860047
   25.212812   48.867228
   25.218488   48.876245
   25.222160   48.883311
   25.223605   48.888995
   25.223440   48.892266
   25.224228   48.897075
   25.222558   48.908274
   25.222674   48.909990
   25.224078   48.912999
   25.225696   48.915261
   25.231009   48.920893
   25.231379   48.923043
   25.230399   48.927685
   25.229023   48.927196
   25.223870   48.923986
   25.220475   48.920979
   25.215978   48.918522
   25.210040   48.917385
   25.208161   48.917525
   25.204015   48.918537
   25.205067   48.916254
   25.204957   48.914000
   25.204247   48.912613
   25.201885   48.909820
   25.197184   48.906341
   25.183161   48.897879
   25.179318   48.896769
   25.177231   48.895570
   25.176092   48.893220
   25.174010   48.891503
   25.177417   48.889720
   25.179016   48.887783
   25.180009   48.885180
   25.180400   48.882713
   25.180200   48.875776
   25.178618   48.871144
   25.176819   48.868460
   25.173926   48.865588
   25.170635   48.863390
   25.165728   48.861365
   25.162810   48.860861
   25.160842   48.860837
   25.156632   48.861344
   25.148611   48.863876
   25.143005   48.863353
   25.140896   48.863491
   25.135255   48.865415
   25.131073   48.868471
   25.129029   48.871327
   25.129068   48.874593
   25.131022   48.878229
   25.129707   48.883267
   25.128992   48.889122
   25.126169   48.894497
   25.119493   48.904986
   25.116959   48.910965
   25.112873   48.916539
   25.111530   48.920989
   25.111351   48.923816
   25.112834   48.927979
   25.114036   48.929487
   25.116349   48.931193
   25.119247   48.932490
   25.129985   48.936161
   25.134645   48.938630
   25.140113   48.943034
   25.138171   48.944316
   25.132436   48.946917
   25.131355   48.948021
   25.130769   48.949539
   25.128213   48.950472
   25.123369   48.953123
   25.116998   48.954511
   25.109007   48.958037
   25.104806   48.960629
   25.103641   48.961686
   25.102984   48.962916
   25.102890   48.964218
   25.103367   48.965484
   25.104805   48.967078
   25.101863   48.972286
   25.099886   48.978407
   25.099742   48.980659
   25.101589   48.986559
   25.104782   48.990462
   25.094032   48.989365
   25.093924   48.982801
   25.092730   48.981246
   25.090728   48.980101
   25.087548   48.979498
   25.080790   48.979343
   25.076735   48.979738
   25.073458   48.980518
   25.071751   48.981283
   25.070466   48.982345
   25.069605   48.984042
   25.064139   48.985601
   25.057666   48.986148
   25.049759   48.988165
   25.044551   48.990935
   25.042876   48.992556
   25.040940   48.992679
   25.039001   48.993208
   25.034898   48.996067
   25.030548   48.997283
   25.029189   48.998256
   25.027369   49.000688
   25.024571   49.002026
   25.019390   49.005374
   25.017921   49.005939
   25.014749   49.004401
   25.012180   49.002597
   24.999327   48.997472
   24.994484   48.995872
   24.989189   48.994506
   24.970568   48.988654
   24.965206   48.988280
   24.962633   48.988681
   24.960479   48.989686
   24.959060   48.991148
   24.957982   48.994546
   24.957874   48.996224
   24.958468   48.998139
   24.959880   49.000067
   24.965435   49.004159
   24.965350   49.006583
   24.964098   49.008505
   24.959300   49.010789
   24.957046   49.012471
   24.956072   49.013507
   24.954190   49.017083
   24.945584   49.020688
   24.940389   49.024171
   24.933921   49.027424
   24.931521   49.029115
   24.926854   49.033335
   24.924526   49.034388
   24.920745   49.035329
   24.919098   49.036060
   24.915713   49.038774
   24.910607   49.042126
   24.907746   49.045463
   24.903855   49.045232
   24.901969   49.045627
   24.900331   49.046355
   24.899076   49.047359
   24.896445   49.050997
   24.895919   49.053048
   24.896370   49.056311
   24.897649   49.057982
   24.897956   49.061286
   24.897625   49.063613
   24.899427   49.067160
   24.900035   49.074248
   24.902574   49.080549
   24.903373   49.081758
   24.904669   49.082764
   24.906976   49.083648
   24.909291   49.083893
   24.911069   49.086039
   24.913782   49.087300
   24.916410   49.087610
   24.919289   49.087159
   24.922186   49.087415
   24.931124   49.085656
   24.934600   49.085761
   24.936575   49.085423
   24.939175   49.085787
   24.941301   49.085652
   24.945460   49.084145
   24.954499   49.082584
   24.959152   49.080352
   24.962980   49.080466
   24.965523   49.079988
   24.967147   49.079235
   24.970373   49.076723
   24.981245   49.075938
   24.980992   49.078176
   24.983336   49.083561
   24.977330   49.085240
   24.975333   49.086253
   24.972193   49.089163
   24.971569   49.091379
   24.969445   49.091892
   24.967303   49.093068
   24.965680   49.094850
   24.965226   49.096122
   24.965347   49.097427
   24.966869   49.100367
   24.968001   49.101607
   24.969588   49.102559
   24.971295   49.107479
   24.973700   49.110082
   24.974597   49.111967
   24.976089   49.113379
   24.975645   49.114352
   24.968077   49.116543
   24.957121   49.121737
   24.954800   49.121119
   24.950806   49.120788
   24.944595   49.121771
   24.936944   49.122088
   24.927498   49.122921
   24.918015   49.123090
   24.901786   49.124227
   24.896578   49.125055
   24.894908   49.125863
   24.893681   49.126960
   24.892908   49.129253
   24.887626   49.136139
   24.880889   49.139630
   24.878376   49.141344
   24.864288   49.155589
   24.861039   49.155214
   24.857917   49.155862
   24.851480   49.160303
   24.850146   49.161695
   24.849499   49.163629
   24.850436   49.166019
   24.849731   49.170665
   24.850364   49.174934
   24.849505   49.177856
   24.849805   49.179131
   24.850640   49.180298
   24.881432   49.200974
   24.892457   49.216541
   24.893924   49.217891
   24.909711   49.226181
   24.916124   49.228537
   24.920269   49.230559
   24.926923   49.232550
   24.926932   49.232995
   24.924556   49.233998
   24.917500   49.234013
   24.909351   49.235239
   24.902896   49.237070
   24.895907   49.239824
   24.889061   49.244360
   24.881478   49.247600
   24.878923   49.249082
   24.873668   49.250867
   24.868915   49.253094
   24.864909   49.252365
   24.861250   49.252455
   24.858492   49.252976
   24.855134   49.254397
   24.849436   49.256237
   24.840202   49.258516
   24.838572   49.259269
   24.837338   49.260295
   24.836423   49.262374
   24.837084   49.269755
   24.834416   49.279511
   24.824347   49.281568
   24.822450   49.282761
   24.821251   49.284760
   24.821125   49.286979
   24.821980   49.294685
   24.823980   49.305381
   24.821713   49.310920
   24.821437   49.318665
   24.822047   49.322783
   24.824263   49.326511
   24.826166   49.336203
   24.829841   49.342889
   24.830984   49.343936
   24.833114   49.344925
   24.837908   49.345393
   24.839342   49.346941
   24.841412   49.348069
   24.843314   49.348525
   24.845588   49.348575
   24.846221   49.348900
   24.840604   49.350057
   24.838938   49.350722
   24.837623   49.351667
   24.836759   49.352825
   24.835064   49.353531
   24.833097   49.354917
   24.829762   49.358039
   24.828544   49.359892
   24.826911   49.361427
   24.825298   49.365520
   24.823867   49.371108
   24.824268   49.373077
   24.823095   49.374953
   24.821723   49.378511
   24.821740   49.380873
   24.818820   49.381070
   24.816842   49.381537
   24.813047   49.383974
   24.810024   49.382482
   24.807607   49.380473
   24.800969   49.377912
   24.798875   49.377541
   24.794236   49.377371
   24.791867   49.376640
   24.787817   49.376117
   24.786188   49.375091
   24.780745   49.373133
   24.774095   49.373109
   24.771625   49.373820
   24.769760   49.375097
   24.768934   49.376311
   24.768683   49.377631
   24.770096   49.381065
   24.769114   49.382281
   24.768740   49.383597
   24.769568   49.385900
   24.765783   49.393751
   24.767646   49.401593
   24.766031   49.407789
   24.767027   49.412076
   24.763796   49.419140
   24.760835   49.422428
   24.760026   49.424772
   24.761067   49.427805
   24.763753   49.430177
   24.760446   49.432720
   24.756153   49.439117
   24.750877   49.442433
   24.744315   49.447583
   24.743622   49.449308
   24.743902   49.450857
   24.742043   49.452698
   24.741248   49.455483
   24.738308   49.458969
   24.737723   49.461113
   24.738480   49.463824
   24.734237   49.466343
   24.732270   49.468914
   24.727824   49.472731
   24.726187   49.475396
   24.724519   49.476663
   24.719953   49.477883
   24.717766   49.479594
   24.717093   49.481331
   24.717299   49.482672
   24.719370   49.485643
   24.722064   49.487472
   24.722071   49.489705
   24.718479   49.489169
   24.715812   49.489273
   24.713405   49.490033
   24.711303   49.491724
   24.709478   49.495076
   24.709461   49.497236
   24.710974   49.499154
   24.712485   49.500002
END
END
