vinnytsia
1
   27.364852   48.629365
   27.370900   48.640367
   27.371801   48.643050
   27.372774   48.650137
   27.373823   48.652653
   27.374882   48.654362
   27.376205   48.655629
   27.379705   48.657638
   27.380464   48.660070
   27.382163   48.663093
   27.382004   48.666171
   27.380942   48.668214
   27.381161   48.670803
   27.380853   48.672222
   27.381387   48.673886
   27.382790   48.675657
   27.382397   48.677032
   27.382561   48.678923
   27.383625   48.682009
   27.384943   48.684007
   27.386937   48.685452
   27.388062   48.687909
   27.389311   48.689345
   27.394478   48.692419
   27.398094   48.693241
   27.397982   48.695356
   27.399388   48.697313
   27.401414   48.698422
   27.406983   48.700136
   27.407159   48.700918
   27.405555   48.702950
   27.397274   48.716613
   27.393921   48.724067
   27.392749   48.725549
   27.392456   48.726867
   27.392974   48.730234
   27.394227   48.732322
   27.402611   48.738130
   27.403814   48.739763
   27.405993   48.741118
   27.404099   48.742174
   27.402500   48.743567
   27.399304   48.745167
   27.395170   48.749085
   27.392452   48.749240
   27.390130   48.750042
   27.384955   48.753981
   27.383783   48.756067
   27.383867   48.757410
   27.384593   48.758738
   27.383905   48.760153
   27.383906   48.761758
   27.382950   48.763171
   27.382731   48.764865
   27.383480   48.766930
   27.385668   48.768704
   27.389354   48.770283
   27.394102   48.771265
   27.397229   48.771584
   27.396668   48.774012
   27.397832   48.776025
   27.399706   48.777233
   27.404208   48.778820
   27.407593   48.780705
   27.411312   48.786504
   27.409861   48.788661
   27.409811   48.789990
   27.410347   48.791271
   27.411886   48.792716
   27.414907   48.793821
   27.416706   48.795332
   27.414435   48.796776
   27.413408   48.797857
   27.412510   48.800975
   27.410167   48.804515
   27.408225   48.805620
   27.405626   48.807801
   27.404185   48.811398
   27.404441   48.815009
   27.405310   48.817820
   27.407611   48.819935
   27.410946   48.820937
   27.411120   48.823200
   27.406247   48.835960
   27.406828   48.838136
   27.408384   48.839581
   27.410078   48.840351
   27.410147   48.841576
   27.409202   48.842698
   27.408772   48.843956
   27.407321   48.845496
   27.406132   48.848873
   27.406935   48.851724
   27.409120   48.853762
   27.409562   48.856985
   27.408342   48.879935
   27.404166   48.883152
   27.395902   48.888694
   27.387388   48.898213
   27.386606   48.900494
   27.389936   48.922968
   27.387926   48.924880
   27.387538   48.928134
   27.386138   48.929409
   27.385521   48.930700
   27.385640   48.932497
   27.387201   48.934595
   27.386123   48.935605
   27.385467   48.936903
   27.385677   48.939276
   27.389212   48.944020
   27.390487   48.944993
   27.394217   48.946751
   27.396204   48.949344
   27.395411   48.950644
   27.395344   48.952464
   27.397571   48.955581
   27.400157   48.956926
   27.402784   48.957446
   27.405393   48.957342
   27.405881   48.957887
   27.404563   48.959659
   27.404536   48.961908
   27.409282   48.968726
   27.406168   48.969548
   27.404156   48.970560
   27.400477   48.974415
   27.395735   48.977985
   27.394549   48.980550
   27.393246   48.982146
   27.392522   48.985059
   27.390529   48.986609
   27.388566   48.989825
   27.388003   48.995442
   27.388371   48.997021
   27.384347   48.998396
   27.381223   49.000156
   27.378416   49.000944
   27.376843   49.001766
   27.375221   49.003682
   27.374724   49.007493
   27.375058   49.008773
   27.375928   49.009937
   27.378155   49.011931
   27.380317   49.012879
   27.389528   49.021163
   27.399450   49.031367
   27.399696   49.033747
   27.401587   49.036381
   27.403538   49.041844
   27.409189   49.054590
   27.410847   49.057000
   27.412632   49.058296
   27.414390   49.058917
   27.416345   49.059175
   27.419871   49.059089
   27.421080   49.064933
   27.422493   49.067216
   27.425342   49.068901
   27.428543   49.069366
   27.428785   49.071325
   27.429594   49.072578
   27.430931   49.073615
   27.433318   49.074502
   27.438478   49.074733
   27.444997   49.076066
   27.450099   49.076050
   27.453240   49.075078
   27.457481   49.075472
   27.464130   49.075158
   27.466150   49.075878
   27.469199   49.076191
   27.473413   49.075786
   27.476094   49.075206
   27.482019   49.075020
   27.490771   49.073659
   27.481257   49.078778
   27.476532   49.081856
   27.474072   49.084558
   27.473183   49.087399
   27.473547   49.089660
   27.474322   49.090993
   27.475533   49.092085
   27.486498   49.097079
   27.489238   49.099629
   27.497257   49.109630
   27.490524   49.115458
   27.488842   49.116511
   27.486473   49.119120
   27.485853   49.121796
   27.486326   49.123098
   27.487356   49.124252
   27.494773   49.128293
   27.499284   49.130149
   27.499405   49.131733
   27.500448   49.133287
   27.503319   49.135054
   27.505572   49.135853
   27.508748   49.135997
   27.514681   49.134972
   27.521232   49.132874
   27.523246   49.133471
   27.525243   49.133615
   27.528802   49.132838
   27.529423   49.133596
   27.528135   49.138088
   27.528647   49.140232
   27.529672   49.141352
   27.531140   49.142232
   27.532927   49.142796
   27.534884   49.142997
   27.538425   49.142644
   27.542597   49.141262
   27.546450   49.139383
   27.548694   49.137081
   27.553095   49.134222
   27.574355   49.126093
   27.589343   49.135833
   27.586395   49.137813
   27.585375   49.140225
   27.585760   49.142693
   27.588439   49.147043
   27.588380   49.149037
   27.587405   49.152332
   27.587491   49.155791
   27.588621   49.157621
   27.591815   49.159615
   27.595480   49.163715
   27.599165   49.166010
   27.600866   49.166635
   27.604065   49.166902
   27.608121   49.165836
   27.611891   49.166211
   27.615899   49.165792
   27.618156   49.166987
   27.621521   49.167877
   27.627025   49.167645
   27.629179   49.169226
   27.632485   49.170129
   27.634977   49.171594
   27.638534   49.172450
   27.641289   49.172426
   27.646492   49.170692
   27.653589   49.168847
   27.655383   49.167571
   27.657287   49.164507
   27.662355   49.161107
   27.665153   49.160240
   27.677384   49.154728
   27.688133   49.147784
   27.692843   49.149371
   27.694836   49.149455
   27.696781   49.149154
   27.698511   49.148494
   27.699879   49.147531
   27.701712   49.144259
   27.703641   49.144923
   27.705215   49.146673
   27.707378   49.147759
   27.710442   49.148203
   27.713283   49.149030
   27.716028   49.150286
   27.719958   49.150625
   27.722490   49.150243
   27.724955   49.149328
   27.727541   49.147346
   27.729862   49.147269
   27.735958   49.146006
   27.739585   49.147207
   27.744193   49.150053
   27.745162   49.151856
   27.747754   49.154019
   27.745696   49.155747
   27.744975   49.157679
   27.745556   49.161762
   27.747170   49.163660
   27.749319   49.164677
   27.753387   49.165521
   27.756602   49.166947
   27.758560   49.167243
   27.760521   49.167155
   27.761931   49.168519
   27.764193   49.169510
   27.767541   49.169834
   27.768361   49.171422
   27.769532   49.172597
   27.774707   49.174785
   27.773097   49.178507
   27.769637   49.183499
   27.768789   49.187687
   27.769070   49.190288
   27.769818   49.191762
   27.770970   49.192922
   27.773223   49.194008
   27.781858   49.195355
   27.785193   49.195068
   27.786950   49.194393
   27.788328   49.193405
   27.789207   49.192193
   27.789672   49.190009
   27.790750   49.189337
   27.793563   49.189055
   27.797352   49.187809
   27.798824   49.189015
   27.800480   49.189719
   27.804183   49.190811
   27.806909   49.190967
   27.808267   49.192335
   27.810403   49.193331
   27.814616   49.193979
   27.817207   49.193707
   27.822182   49.191506
   27.824712   49.189269
   27.825765   49.187753
   27.826586   49.184285
   27.836380   49.184715
   27.843779   49.183851
   27.848936   49.182687
   27.852592   49.181524
   27.854579   49.180293
   27.855503   49.179084
   27.855822   49.177334
   27.856778   49.176032
   27.861377   49.177280
   27.864279   49.179312
   27.866589   49.180267
   27.868593   49.180546
   27.873557   49.180538
   27.877192   49.181276
   27.879572   49.184671
   27.883276   49.187315
   27.884903   49.188050
   27.890975   49.189637
   27.887912   49.206444
   27.885104   49.207628
   27.883088   49.209701
   27.879862   49.208930
   27.873697   49.208965
   27.871552   49.209292
   27.866407   49.208696
   27.863737   49.209090
   27.861514   49.210146
   27.859896   49.212129
   27.859438   49.217208
   27.858894   49.218588
   27.856706   49.220323
   27.855561   49.222031
   27.855320   49.224333
   27.855852   49.226009
   27.853534   49.231428
   27.850744   49.232757
   27.849309   49.234750
   27.849306   49.236522
   27.850126   49.238130
   27.855438   49.243143
   27.857488   49.244145
   27.863514   49.245642
   27.854054   49.250377
   27.851068   49.252260
   27.849731   49.253527
   27.849104   49.254734
   27.849069   49.259056
   27.846379   49.259713
   27.844272   49.260729
   27.843158   49.261796
   27.842464   49.263459
   27.846251   49.275996
   27.851777   49.281801
   27.855692   49.292957
   27.854284   49.298267
   27.848580   49.305559
   27.846388   49.307195
   27.844924   49.311669
   27.845398   49.313713
   27.849373   49.318608
   27.847333   49.320357
   27.846770   49.322811
   27.847173   49.324061
   27.849539   49.326842
   27.849981   49.328069
   27.844623   49.333085
   27.843421   49.335092
   27.840655   49.337231
   27.838443   49.339857
   27.835965   49.344998
   27.834282   49.346023
   27.826206   49.346594
   27.821424   49.348935
   27.812639   49.351513
   27.810426   49.352704
   27.806832   49.356752
   27.804750   49.365447
   27.804906   49.367917
   27.806220   49.369865
   27.808737   49.371198
   27.811416   49.371622
   27.810395   49.373003
   27.810055   49.374583
   27.808314   49.374971
   27.806654   49.375742
   27.805409   49.376801
   27.804688   49.378055
   27.804468   49.382844
   27.805626   49.390018
   27.807151   49.391540
   27.809461   49.392538
   27.817898   49.393142
   27.819605   49.394390
   27.821362   49.395023
   27.826282   49.395408
   27.825520   49.402568
   27.826672   49.404614
   27.829337   49.406151
   27.828257   49.407935
   27.828549   49.410173
   27.830748   49.412633
   27.835272   49.415451
   27.843584   49.422775
   27.843917   49.424255
   27.831085   49.417629
   27.829231   49.417086
   27.826541   49.416963
   27.823988   49.417538
   27.822405   49.418377
   27.813480   49.426155
   27.808334   49.429671
   27.807041   49.431682
   27.805429   49.432202
   27.803761   49.433236
   27.793095   49.430441
   27.790406   49.430125
   27.788384   49.430363
   27.786025   49.431274
   27.784716   49.432322
   27.782496   49.435394
   27.779832   49.436163
   27.778070   49.437348
   27.768812   49.435476
   27.766775   49.435528
   27.764852   49.435975
   27.762245   49.437597
   27.751916   49.435442
   27.749905   49.435359
   27.747946   49.435668
   27.745704   49.436638
   27.744197   49.438103
   27.738678   49.449839
   27.738697   49.451687
   27.739451   49.452985
   27.750279   49.465463
   27.752157   49.466849
   27.754758   49.474679
   27.756553   49.476924
   27.757141   49.479595
   27.758262   49.481195
   27.760812   49.482603
   27.764064   49.483049
   27.768542   49.482222
   27.773070   49.480766
   27.776612   49.486436
   27.766208   49.485486
   27.764207   49.485753
   27.762415   49.486400
   27.760233   49.488267
   27.755556   49.487393
   27.750383   49.488226
   27.738466   49.488272
   27.733321   49.489666
   27.730553   49.491698
   27.728199   49.496007
   27.728638   49.498220
   27.730605   49.500013
   27.730077   49.502114
   27.730369   49.503409
   27.729489   49.505299
   27.729681   49.507018
   27.728648   49.508531
   27.728318   49.510234
   27.729645   49.515480
   27.729614   49.517890
   27.730604   49.519537
   27.732595   49.521066
   27.733881   49.523068
   27.733925   49.528873
   27.735852   49.532581
   27.738258   49.534940
   27.741925   49.536198
   27.744721   49.536231
   27.748017   49.535313
   27.751253   49.536293
   27.753840   49.536706
   27.758654   49.536486
   27.766221   49.534479
   27.768565   49.533363
   27.775273   49.526496
   27.777151   49.528300
   27.780347   49.529714
   27.784326   49.532836
   27.787069   49.534038
   27.785272   49.536709
   27.781665   49.539173
   27.779381   49.541816
   27.778461   49.544823
   27.778646   49.546454
   27.779824   49.548751
   27.785631   49.552794
   27.784185   49.555086
   27.782714   49.556744
   27.772745   49.561361
   27.769401   49.563778
   27.760848   49.567608
   27.755585   49.568806
   27.752994   49.570122
   27.751996   49.571247
   27.751525   49.572514
   27.751535   49.576799
   27.752156   49.579115
   27.754006   49.581976
   27.754102   49.583967
   27.755191   49.585682
   27.760958   49.589405
   27.763553   49.590228
   27.765596   49.591508
   27.766692   49.597733
   27.768212   49.599744
   27.770376   49.600844
   27.774859   49.601705
   27.781793   49.601996
   27.785064   49.604954
   27.784284   49.606607
   27.784544   49.608419
   27.794642   49.624131
   27.796512   49.625364
   27.798948   49.626036
   27.800930   49.626109
   27.805402   49.625473
   27.805528   49.627132
   27.805275   49.640535
   27.803991   49.642597
   27.789804   49.649781
   27.762081   49.662731
   27.759879   49.664443
   27.759196   49.666191
   27.759795   49.674859
   27.755765   49.697165
   27.756259   49.698943
   27.757303   49.700113
   27.758827   49.701025
   27.760690   49.701596
   27.783957   49.704461
   27.791932   49.704554
   27.802020   49.705563
   27.800256   49.708897
   27.800439   49.710494
   27.801444   49.712022
   27.823840   49.727291
   27.816900   49.729031
   27.812308   49.731301
   27.810726   49.732719
   27.810084   49.734873
   27.810657   49.736460
   27.810567   49.742876
   27.811094   49.744660
   27.812638   49.746162
   27.814951   49.747141
   27.828825   49.748663
   27.829277   49.757198
   27.831029   49.759092
   27.833291   49.760061
   27.835265   49.760364
   27.837287   49.760270
   27.845698   49.757901
   27.847175   49.757757
   27.851330   49.757968
   27.865842   49.759557
   27.875847   49.759533
   27.884976   49.760841
   27.886755   49.761171
   27.886930   49.763748
   27.889635   49.767248
   27.894865   49.770576
   27.897181   49.771512
   27.901486   49.771951
   27.906051   49.771576
   27.916506   49.771770
   27.918849   49.771570
   27.924501   49.772353
   27.930347   49.772786
   27.933660   49.774119
   27.938068   49.774887
   27.948428   49.780082
   27.953063   49.781728
   27.959188   49.782954
   27.969732   49.783337
   27.979678   49.784621
   27.990971   49.783785
   28.006450   49.780822
   28.011352   49.780465
   28.013085   49.779863
   28.016136   49.777825
   28.020505   49.775708
   28.030363   49.775586
   28.034610   49.775105
   28.044265   49.775065
   28.059853   49.776550
   28.088862   49.776330
   28.090685   49.777255
   28.093223   49.777750
   28.095854   49.777571
   28.098599   49.776694
   28.107664   49.777975
   28.112236   49.779752
   28.118809   49.783299
   28.123730   49.784546
   28.132759   49.786002
   28.139730   49.788309
   28.140776   49.789572
   28.142794   49.790773
   28.148921   49.792671
   28.152651   49.793504
   28.154664   49.793606
   28.156634   49.793315
   28.158909   49.792445
   28.160327   49.791341
   28.165156   49.791843
   28.174399   49.792263
   28.182360   49.793005
   28.188892   49.793958
   28.202062   49.794348
   28.212346   49.796280
   28.214821   49.796188
   28.220993   49.794811
   28.222580   49.797502
   28.225008   49.798948
   28.229250   49.799886
   28.237806   49.801167
   28.237325   49.806507
   28.236513   49.809888
   28.236536   49.814140
   28.236936   49.815457
   28.237903   49.816637
   28.239919   49.817823
   28.241804   49.818320
   28.244946   49.818474
   28.248359   49.819516
   28.250395   49.819519
   28.252342   49.819124
   28.266883   49.813079
   28.267981   49.811996
   28.268565   49.810750
   28.269268   49.803597
   28.276842   49.803036
   28.281555   49.802360
   28.287136   49.802409
   28.291842   49.803952
   28.294602   49.805509
   28.297209   49.805926
   28.299214   49.805782
   28.307777   49.804298
   28.309940   49.803632
   28.312475   49.803501
   28.351089   49.796778
   28.379880   49.785772
   28.391685   49.790424
   28.400643   49.794703
   28.402339   49.799681
   28.402422   49.801833
   28.403970   49.803795
   28.404010   49.805738
   28.405357   49.808635
   28.404840   49.810552
   28.405435   49.812310
   28.407021   49.813775
   28.409574   49.814770
   28.412683   49.821168
   28.412991   49.823659
   28.415991   49.827214
   28.418373   49.828791
   28.421605   49.829423
   28.425292   49.828861
   28.428354   49.827119
   28.432957   49.825599
   28.438924   49.826671
   28.441349   49.826538
   28.444948   49.825685
   28.449407   49.825998
   28.452332   49.825606
   28.454475   49.826059
   28.459644   49.826408
   28.463046   49.825926
   28.468333   49.827212
   28.471669   49.827040
   28.473997   49.826152
   28.475895   49.824453
   28.476505   49.823171
   28.476582   49.820352
   28.478484   49.817463
   28.479030   49.815747
   28.482046   49.814758
   28.484956   49.813101
   28.498044   49.817082
   28.513439   49.820400
   28.525862   49.824650
   28.529176   49.824989
   28.531754   49.824474
   28.533832   49.823340
   28.535086   49.821763
   28.535323   49.819988
   28.534633   49.817559
   28.535370   49.816517
   28.548277   49.808760
   28.549498   49.807435
   28.550046   49.805541
   28.554468   49.799074
   28.557910   49.797794
   28.560149   49.795986
   28.561614   49.791586
   28.564093   49.791601
   28.565960   49.791192
   28.567574   49.790448
   28.568801   49.789431
   28.574196   49.779481
   28.594710   49.784838
   28.595381   49.810232
   28.595925   49.811923
   28.597388   49.813355
   28.599556   49.814320
   28.604659   49.815377
   28.610621   49.815243
   28.616679   49.817889
   28.622678   49.818892
   28.625390   49.819784
   28.630131   49.819770
   28.632101   49.820994
   28.634651   49.821691
   28.637210   49.821808
   28.639074   49.821478
   28.641451   49.820463
   28.670770   49.812120
   28.681989   49.807586
   28.683148   49.808416
   28.685710   49.809512
   28.705285   49.814015
   28.707868   49.813944
   28.709678   49.813474
   28.711643   49.812363
   28.712779   49.811007
   28.716304   49.811674
   28.720473   49.811541
   28.722512   49.810822
   28.724356   49.809537
   28.727001   49.804800
   28.728128   49.803510
   28.740015   49.819614
   28.741730   49.821057
   28.743592   49.821794
   28.743540   49.827259
   28.742908   49.829310
   28.743649   49.831903
   28.743887   49.844701
   28.744557   49.846402
   28.746155   49.847805
   28.747822   49.848532
   28.750400   49.848951
   28.770316   49.848283
   28.777225   49.847752
   28.777076   49.851672
   28.777416   49.852988
   28.779203   49.854855
   28.781472   49.855801
   28.783441   49.856088
   28.807304   49.857172
   28.807416   49.859235
   28.808289   49.860942
   28.810101   49.862289
   28.812564   49.863060
   28.818171   49.863043
   28.838930   49.864207
   28.847936   49.884438
   28.851725   49.891210
   28.853664   49.892413
   28.856150   49.893036
   28.863300   49.892983
   28.866750   49.893536
   28.871344   49.893519
   28.883412   49.892497
   28.886043   49.891214
   28.887540   49.889002
   28.889094   49.888718
   28.891084   49.887885
   28.899516   49.886431
   28.903325   49.885120
   28.904927   49.883685
   28.905566   49.881952
   28.903602   49.876226
   28.908098   49.875245
   28.911091   49.873810
   28.912415   49.872801
   28.913423   49.870929
   28.915834   49.868964
   28.916799   49.867354
   28.916618   49.865200
   28.915242   49.863563
   28.941032   49.857209
   28.942823   49.856550
   28.944911   49.854780
   28.945440   49.853470
   28.945348   49.852086
   28.947792   49.849819
   28.951031   49.847577
   28.953333   49.846512
   28.955356   49.844797
   28.958430   49.843209
   28.959701   49.842136
   28.960541   49.840412
   28.960456   49.839050
   28.957740   49.834488
   28.954207   49.825689
   28.956528   49.825773
   28.962989   49.825166
   28.964825   49.824544
   28.966683   49.823209
   28.967659   49.821044
   28.968207   49.811351
   28.975920   49.806131
   28.976945   49.804447
   28.977005   49.803083
   28.975755   49.800979
   28.967803   49.795043
   28.966665   49.793827
   28.959609   49.788933
   28.958263   49.787651
   28.955446   49.785838
   28.953242   49.784958
   28.959043   49.782978
   28.969279   49.780391
   28.970889   49.779518
   28.972028   49.778365
   28.972589   49.777038
   28.972378   49.774252
   28.972761   49.772751
   28.972222   49.771013
   28.971141   49.757441
   29.003076   49.744793
   29.006655   49.742934
   29.008511   49.740422
   29.009009   49.737155
   29.011205   49.732845
   29.012069   49.729618
   29.011589   49.726086
   29.010796   49.724431
   29.009121   49.723096
   29.006809   49.722276
   29.004201   49.722093
   29.001371   49.722420
   29.000067   49.719541
   29.001154   49.718366
   29.001639   49.717117
   29.001570   49.715827
   29.000954   49.714603
   28.991706   49.706505
   28.981303   49.695275
   28.979159   49.694144
   28.976515   49.693661
   28.974106   49.693643
   28.969651   49.694427
   28.964191   49.683019
   28.962985   49.681479
   28.961550   49.680585
   28.959789   49.680000
   28.952934   49.679330
   28.953514   49.678131
   28.956882   49.678127
   28.965356   49.676960
   28.967201   49.676456
   28.968748   49.675620
   28.981508   49.662092
   28.990304   49.653730
   28.992051   49.651485
   28.992344   49.649627
   29.014783   49.635854
   29.016601   49.633952
   29.016905   49.632157
   29.016122   49.630425
   29.009560   49.625735
   29.007031   49.622623
   29.002403   49.615115
   28.995923   49.608227
   28.994196   49.606871
   28.993212   49.605301
   28.992802   49.604452
   28.994776   49.602738
   28.997352   49.601142
   29.013682   49.597315
   29.026969   49.595022
   29.031630   49.596080
   29.039048   49.596909
   29.042867   49.598246
   29.047655   49.598782
   29.053692   49.598836
   29.058762   49.598264
   29.061616   49.597336
   29.068099   49.598517
   29.070022   49.598566
   29.076116   49.597301
   29.083056   49.596860
   29.084402   49.596924
   29.088647   49.598863
   29.091908   49.599092
   29.097906   49.597581
   29.105291   49.597858
   29.108354   49.597302
   29.110320   49.596229
   29.117446   49.590400
   29.132438   49.594876
   29.144168   49.596860
   29.150782   49.597543
   29.153499   49.597511
   29.155529   49.597151
   29.158496   49.595573
   29.161091   49.595873
   29.166158   49.595742
   29.177682   49.593698
   29.183149   49.592268
   29.188094   49.591795
   29.189550   49.592203
   29.195103   49.595116
   29.197438   49.596887
   29.200899   49.598233
   29.202860   49.598607
   29.204900   49.598582
   29.207430   49.597936
   29.211802   49.594631
   29.214425   49.593235
   29.217209   49.594361
   29.218017   49.595777
   29.219373   49.596867
   29.237167   49.606976
   29.238920   49.607677
   29.241593   49.608021
   29.244871   49.607447
   29.246936   49.606272
   29.255981   49.596765
   29.257436   49.594636
   29.268901   49.594622
   29.268973   49.627523
   29.270027   49.629562
   29.271833   49.630812
   29.273584   49.631403
   29.275517   49.631640
   29.292250   49.631021
   29.301091   49.631144
   29.329186   49.632473
   29.331615   49.631785
   29.333076   49.630892
   29.340928   49.623040
   29.350170   49.631376
   29.353299   49.632262
   29.356830   49.631999
   29.359108   49.632137
   29.361084   49.631832
   29.363345   49.630859
   29.366558   49.628593
   29.368231   49.626655
   29.371690   49.624426
   29.375581   49.625050
   29.386791   49.644598
   29.389257   49.646808
   29.389314   49.648294
   29.390162   49.649905
   29.404979   49.662332
   29.407836   49.663515
   29.409845   49.663730
   29.411862   49.663545
   29.418926   49.660679
   29.420568   49.659709
   29.422526   49.659308
   29.425648   49.664791
   29.427653   49.666011
   29.430220   49.666616
   29.433592   49.666371
   29.478557   49.655404
   29.480115   49.657269
   29.482297   49.658332
   29.484932   49.658751
   29.487605   49.658459
   29.523625   49.649149
   29.525610   49.648130
   29.527026   49.646712
   29.527892   49.643457
   29.538377   49.640683
   29.540022   49.639896
   29.541246   49.638825
   29.542042   49.637120
   29.541779   49.635343
   29.537009   49.628229
   29.535528   49.627343
   29.533722   49.626777
   29.531747   49.626581
   29.529781   49.626770
   29.524157   49.620912
   29.516352   49.617529
   29.518126   49.613455
   29.517863   49.611151
   29.511899   49.605531
   29.507766   49.602260
   29.511600   49.598674
   29.512423   49.596962
   29.512337   49.595612
   29.511652   49.594339
   29.510429   49.593257
   29.508773   49.592432
   29.534432   49.567005
   29.537041   49.563766
   29.538729   49.558079
   29.540141   49.550794
   29.543346   49.542386
   29.546646   49.541919
   29.548284   49.541190
   29.549538   49.540182
   29.552945   49.532169
   29.552953   49.530813
   29.552352   49.529516
   29.550706   49.528079
   29.548098   49.527137
   29.547122   49.524016
   29.553211   49.522703
   29.555037   49.521918
   29.570044   49.510828
   29.571804   49.511503
   29.573717   49.511800
   29.583046   49.511160
   29.586097   49.511264
   29.589157   49.510346
   29.591187   49.508575
   29.592101   49.504650
   29.592325   49.500999
   29.592128   49.499736
   29.591173   49.498317
   29.592323   49.496801
   29.592578   49.495482
   29.592003   49.493755
   29.589863   49.491730
   29.588230   49.490963
   29.585441   49.490219
   29.582790   49.489910
   29.579754   49.490126
   29.573935   49.491805
   29.571458   49.491845
   29.568697   49.492700
   29.561180   49.492157
   29.560448   49.491712
   29.560002   49.488838
   29.559361   49.487617
   29.556453   49.484895
   29.553949   49.483621
   29.558191   49.478488
   29.558701   49.477262
   29.558587   49.475700
   29.565519   49.467666
   29.569470   49.465219
   29.571144   49.464696
   29.575563   49.462456
   29.577756   49.462096
   29.589460   49.458713
   29.592623   49.458245
   29.595196   49.456914
   29.596392   49.455370
   29.599952   49.447194
   29.601707   49.444639
   29.602089   49.442944
   29.601490   49.441276
   29.599506   49.439592
   29.581206   49.431721
   29.582314   49.430031
   29.582550   49.428763
   29.581411   49.426348
   29.567962   49.417145
   29.569166   49.415639
   29.569462   49.414333
   29.569176   49.413027
   29.568332   49.411830
   29.551269   49.402173
   29.546598   49.398060
   29.543058   49.396901
   29.541002   49.396834
   29.539067   49.397161
   29.512791   49.392407
   29.514463   49.383523
   29.513913   49.382282
   29.512854   49.381195
   29.511374   49.380351
   29.508968   49.379720
   29.508299   49.377221
   29.508963   49.373453
   29.512253   49.372642
   29.520096   49.368716
   29.526057   49.362597
   29.527534   49.359472
   29.527083   49.355589
   29.529157   49.352852
   29.530066   49.350373
   29.529524   49.347262
   29.530592   49.342122
   29.529505   49.338758
   29.532957   49.335942
   29.534362   49.332437
   29.537734   49.329817
   29.539517   49.327848
   29.551677   49.326328
   29.555876   49.327087
   29.557919   49.327082
   29.562803   49.326503
   29.565207   49.325919
   29.567013   49.327407
   29.569354   49.328222
   29.573210   49.328530
   29.575694   49.328223
   29.583884   49.326100
   29.597012   49.321934
   29.616477   49.312717
   29.624457   49.308483
   29.625697   49.306415
   29.625657   49.305072
   29.625023   49.303795
   29.623355   49.302390
   29.621510   49.301609
   29.620988   49.300278
   29.619904   49.299126
   29.615677   49.297118
   29.616838   49.293345
   29.619951   49.291648
   29.623263   49.287956
   29.623700   49.286420
   29.623538   49.285231
   29.624852   49.283814
   29.625715   49.281965
   29.625427   49.278068
   29.627731   49.276526
   29.628624   49.274847
   29.628608   49.273508
   29.627876   49.271843
   29.622020   49.266154
   29.625604   49.263873
   29.631040   49.261159
   29.633407   49.258366
   29.639100   49.254733
   29.643534   49.250771
   29.646839   49.250407
   29.659771   49.254299
   29.662037   49.254561
   29.664102   49.254436
   29.666014   49.253907
   29.685611   49.244836
   29.686636   49.252229
   29.688883   49.256994
   29.690594   49.259187
   29.693950   49.262371
   29.697146   49.264283
   29.700209   49.265116
   29.703504   49.264898
   29.705267   49.264274
   29.706682   49.263339
   29.709806   49.259945
   29.721826   49.250057
   29.726518   49.245623
   29.727076   49.244353
   29.727056   49.243030
   29.726139   49.241380
   29.724336   49.240084
   29.724073   49.237542
   29.727218   49.235658
   29.734634   49.234538
   29.736974   49.233802
   29.738549   49.232718
   29.740435   49.232084
   29.741905   49.231175
   29.742911   49.230021
   29.743367   49.228724
   29.743055   49.226966
   29.741747   49.225421
   29.738585   49.223125
   29.736239   49.222339
   29.734695   49.220414
   29.730308   49.217700
   29.726335   49.216792
   29.718363   49.216502
   29.716479   49.216723
   29.713652   49.217660
   29.716374   49.210560
   29.729271   49.206855
   29.731621   49.205408
   29.732611   49.203834
   29.732883   49.197442
   29.733347   49.195910
   29.733629   49.181182
   29.732202   49.178501
   29.730441   49.177155
   29.727371   49.176269
   29.724204   49.176421
   29.723683   49.173274
   29.724928   49.171835
   29.725298   49.170508
   29.723194   49.161256
   29.724352   49.156696
   29.724222   49.155413
   29.723216   49.153837
   29.721916   49.152881
   29.720262   49.152206
   29.717377   49.151695
   29.718690   49.143509
   29.723742   49.136292
   29.732828   49.136371
   29.735711   49.135366
   29.737299   49.133991
   29.740294   49.123632
   29.740342   49.122304
   29.739806   49.121025
   29.738731   49.119903
   29.737210   49.119037
   29.735375   49.118500
   29.731477   49.118033
   29.729586   49.116685
   29.727292   49.115982
   29.688968   49.111942
   29.685803   49.109110
   29.687063   49.104189
   29.691744   49.094863
   29.693848   49.089727
   29.693883   49.087988
   29.692923   49.086369
   29.691631   49.085379
   29.689965   49.084675
   29.688064   49.084316
   29.686087   49.084332
   29.677928   49.085718
   29.661317   49.089211
   29.658173   49.088828
   29.654408   49.089530
   29.642210   49.062342
   29.646789   49.059688
   29.648176   49.057711
   29.648005   49.055535
   29.646508   49.053785
   29.645674   49.051914
   29.644473   49.050829
   29.641411   49.049237
   29.637220   49.048536
   29.637350   49.046575
   29.636352   49.044791
   29.634608   49.043494
   29.631906   49.042545
   29.629267   49.042260
   29.627289   49.042501
   29.624877   49.043309
   29.621254   49.045188
   29.621282   49.044720
   29.624986   49.042686
   29.626556   49.041196
   29.628998   49.037225
   29.630708   49.033367
   29.632237   49.031644
   29.633395   49.027936
   29.633378   49.025989
   29.641411   49.017965
   29.648842   49.020780
   29.652091   49.020833
   29.654545   49.020120
   29.659629   49.022995
   29.662377   49.024088
   29.664934   49.026975
   29.668403   49.028535
   29.671712   49.028837
   29.675687   49.027966
   29.681221   49.030847
   29.683693   49.031446
   29.686323   49.031382
   29.689243   49.030394
   29.691131   49.028620
   29.692252   49.024446
   29.691641   49.022681
   29.690516   49.021540
   29.689048   49.020726
   29.688764   49.019488
   29.689034   49.019179
   29.692328   49.018667
   29.694356   49.017604
   29.695757   49.016113
   29.697477   49.012637
   29.697379   49.011339
   29.696727   49.010113
   29.693416   49.007239
   29.700322   49.003950
   29.701622   49.002941
   29.702424   49.001725
   29.702487   48.999529
   29.701395   48.997921
   29.659948   48.959382
   29.664903   48.952388
   29.667026   48.950186
   29.667582   48.948481
   29.667122   48.946764
   29.661060   48.938750
   29.667509   48.935961
   29.669803   48.935584
   29.672731   48.934297
   29.674487   48.932259
   29.675530   48.928478
   29.679871   48.927140
   29.685146   48.924561
   29.690056   48.918276
   29.697577   48.921126
   29.701375   48.921320
   29.703737   48.920672
   29.714801   48.915729
   29.737842   48.912480
   29.740193   48.911569
   29.741820   48.910123
   29.742464   48.908371
   29.742023   48.906592
   29.741016   48.905411
   29.738873   48.904083
   29.737589   48.902762
   29.732648   48.900343
   29.721668   48.895726
   29.723592   48.895459
   29.725396   48.894807
   29.730403   48.891674
   29.731658   48.890474
   29.733948   48.887046
   29.735021   48.881503
   29.738048   48.858300
   29.745330   48.857169
   29.758389   48.852103
   29.764584   48.851171
   29.766647   48.850113
   29.767960   48.848621
   29.768333   48.847346
   29.772531   48.788665
   29.773809   48.788077
   29.785133   48.788813
   29.787976   48.788567
   29.790877   48.787501
   29.795397   48.785136
   29.803591   48.783737
   29.809123   48.781913
   29.810554   48.780945
   29.811487   48.779740
   29.811840   48.778406
   29.811532   48.776969
   29.868200   48.767656
   29.871197   48.766585
   29.873041   48.764689
   29.873365   48.762892
   29.872039   48.758159
   29.870072   48.756074
   29.875017   48.750892
   29.880236   48.749963
   29.882800   48.748603
   29.883967   48.747036
   29.884157   48.745354
   29.889897   48.740303
   29.891238   48.737293
   29.890875   48.735648
   29.887626   48.729435
   29.886521   48.728312
   29.884966   48.727453
   29.882436   48.726844
   29.880410   48.726842
   29.871688   48.728822
   29.864844   48.716520
   29.867204   48.715732
   29.868965   48.714418
   29.869713   48.713193
   29.869854   48.711628
   29.872037   48.709612
   29.872317   48.707290
   29.875418   48.706921
   29.877643   48.705885
   29.920448   48.675901
   29.947638   48.674412
   29.949584   48.674066
   29.951294   48.673360
   29.953227   48.671560
   29.953643   48.669369
   29.953106   48.668084
   29.949846   48.664237
   29.949848   48.662760
   29.957400   48.663086
   29.959860   48.662481
   29.961377   48.661645
   29.962723   48.660154
   29.964754   48.654946
   29.968397   48.654884
   29.970205   48.654351
   29.971706   48.653498
   29.973202   48.651567
   29.974183   48.646933
   29.977909   48.646771
   29.980714   48.645531
   29.982282   48.643554
   29.982963   48.640388
   29.990575   48.641089
   29.993681   48.640306
   29.995529   48.639033
   29.999186   48.633585
   29.999649   48.630701
   29.999427   48.629360
   29.998373   48.627744
   29.995644   48.625457
   29.995781   48.621067
   29.995435   48.619897
   29.997713   48.617639
   29.998194   48.615864
   29.997549   48.613954
   29.995634   48.611279
   29.990409   48.607812
   29.988556   48.607151
   29.985312   48.606529
   29.982042   48.606530
   29.979294   48.607457
   29.957603   48.605004
   29.957300   48.604698
   29.958430   48.601916
   29.958458   48.600525
   29.954724   48.594914
   29.961169   48.587533
   29.969540   48.588358
   29.972031   48.588299
   29.995045   48.583400
   29.997445   48.582475
   30.005370   48.577759
   30.009050   48.577211
   30.011528   48.575781
   30.012595   48.574183
   30.013161   48.571175
   30.012664   48.569375
   30.010723   48.567281
   30.010253   48.561397
   30.012236   48.558800
   30.012719   48.557088
   30.011288   48.553381
   30.013713   48.550922
   30.014298   48.547968
   30.015935   48.546025
   30.023906   48.543256
   30.025378   48.542377
   30.026636   48.540843
   30.026923   48.539109
   30.026192   48.537426
   30.027114   48.536269
   30.027498   48.534554
   30.025258   48.524039
   30.026528   48.522415
   30.027607   48.519127
   30.027019   48.517396
   30.025937   48.516271
   30.020294   48.513721
   30.018384   48.513310
   30.016375   48.513284
   30.013229   48.514114
   30.013239   48.512819
   30.011945   48.510121
   30.007364   48.491442
   30.006760   48.490183
   30.005155   48.488784
   30.002866   48.487895
   30.000238   48.487650
   29.984971   48.489187
   29.979926   48.486249
   29.978135   48.485633
   29.975476   48.485397
   29.972009   48.485920
   29.969275   48.475950
   29.971531   48.475308
   29.973454   48.474047
   29.974487   48.472392
   29.974469   48.470602
   29.971177   48.460182
   29.969948   48.458147
   29.968105   48.456866
   29.966309   48.456269
   29.964328   48.456043
   29.961818   48.456304
   29.963988   48.451007
   29.963535   48.449239
   29.962078   48.447726
   29.954970   48.444924
   29.953017   48.444584
   29.950644   48.444693
   29.941828   48.441429
   29.940614   48.439884
   29.939116   48.438966
   29.931023   48.436060
   29.929152   48.435731
   29.926584   48.435853
   29.924266   48.436594
   29.922714   48.437579
   29.913702   48.435571
   29.912810   48.434198
   29.911245   48.433045
   29.888367   48.423204
   29.886454   48.422892
   29.883846   48.423057
   29.882058   48.423604
   29.880524   48.424513
   29.874397   48.423129
   29.877444   48.420636
   29.879502   48.418153
   29.879620   48.415985
   29.878939   48.414755
   29.877753   48.413706
   29.874247   48.412245
   29.840615   48.393875
   29.795712   48.368771
   29.800290   48.368390
   29.803859   48.367417
   29.806107   48.365900
   29.807279   48.364438
   29.810714   48.362597
   29.811698   48.361381
   29.812323   48.359737
   29.812280   48.357363
   29.811488   48.354970
   29.815260   48.352846
   29.817774   48.349859
   29.817752   48.347611
   29.816096   48.345648
   29.813859   48.344614
   29.809683   48.343718
   29.810041   48.341746
   29.811209   48.340355
   29.811569   48.339000
   29.810488   48.330886
   29.808877   48.329004
   29.807329   48.328193
   29.805448   48.327704
   29.803821   48.325937
   29.801613   48.324949
   29.799001   48.324596
   29.790369   48.325104
   29.788302   48.313167
   29.787303   48.312044
   29.785302   48.310926
   29.782813   48.310387
   29.780185   48.310425
   29.779558   48.308369
   29.778365   48.307023
   29.779437   48.305219
   29.779325   48.303440
   29.776553   48.299973
   29.774552   48.298560
   29.770763   48.297179
   29.769724   48.294880
   29.766970   48.292665
   29.763949   48.291873
   29.759981   48.291828
   29.761714   48.289666
   29.761382   48.286521
   29.762967   48.285694
   29.764125   48.284586
   29.765724   48.280577
   29.770861   48.279043
   29.772260   48.278047
   29.773238   48.276740
   29.776488   48.275670
   29.778474   48.273978
   29.779061   48.271872
   29.777780   48.268955
   29.782201   48.260430
   29.782569   48.259077
   29.781789   48.256860
   29.780031   48.255443
   29.785210   48.249777
   29.789032   48.243354
   29.788864   48.240925
   29.784990   48.234369
   29.785874   48.232487
   29.785494   48.230594
   29.784270   48.229097
   29.781867   48.227797
   29.781465   48.225500
   29.779332   48.223429
   29.780616   48.221156
   29.780546   48.218763
   29.785468   48.214175
   29.787352   48.209648
   29.787493   48.207917
   29.786070   48.203987
   29.784363   48.202204
   29.777919   48.198649
   29.775346   48.198131
   29.770744   48.198350
   29.767228   48.196582
   29.764588   48.195949
   29.749706   48.196909
   29.744189   48.197798
   29.733225   48.198129
   29.724753   48.197745
   29.719352   48.196884
   29.710488   48.194431
   29.708162   48.192999
   29.705423   48.191824
   29.703546   48.191398
   29.700621   48.191205
   29.693920   48.189201
   29.686863   48.184597
   29.685147   48.183890
   29.683193   48.183547
   29.680516   48.183701
   29.678681   48.184262
   29.671062   48.188313
   29.666312   48.190291
   29.664124   48.191655
   29.667606   48.185687
   29.680176   48.170459
   29.681819   48.167055
   29.681667   48.164805
   29.682443   48.163742
   29.682778   48.162377
   29.682844   48.153993
   29.680718   48.148156
   29.678377   48.136089
   29.681947   48.133674
   29.682705   48.132388
   29.682746   48.130554
   29.681315   48.126101
   29.679794   48.124602
   29.677429   48.123599
   29.676320   48.120657
   29.674289   48.118533
   29.674982   48.117261
   29.674982   48.115511
   29.671615   48.108072
   29.669099   48.104823
   29.666468   48.103441
   29.663839   48.103045
   29.661183   48.103352
   29.657309   48.105127
   29.654864   48.106730
   29.646907   48.107444
   29.637602   48.107112
   29.634441   48.107720
   29.631467   48.109506
   29.630425   48.111518
   29.630526   48.113054
   29.632547   48.119813
   29.606951   48.126727
   29.605069   48.122064
   29.605089   48.119218
   29.604123   48.117495
   29.596974   48.112546
   29.594577   48.111837
   29.592113   48.111767
   29.591138   48.110873
   29.594276   48.102589
   29.594128   48.100780
   29.592920   48.099155
   29.590845   48.097974
   29.588236   48.097426
   29.581194   48.097018
   29.579260   48.097262
   29.576987   48.097971
   29.576024   48.096448
   29.574775   48.095434
   29.573139   48.094698
   29.570931   48.094234
   29.565641   48.094585
   29.563169   48.095377
   29.560970   48.094498
   29.557860   48.093804
   29.555907   48.093677
   29.553372   48.094084
   29.551274   48.094976
   29.547801   48.095309
   29.545540   48.096246
   29.542242   48.095688
   29.537964   48.096251
   29.536027   48.094665
   29.534390   48.093941
   29.529809   48.093448
   29.523669   48.094162
   29.521519   48.094886
   29.518879   48.094742
   29.509843   48.095533
   29.506825   48.096355
   29.493054   48.098254
   29.490824   48.099024
   29.486942   48.101190
   29.484360   48.101067
   29.482484   48.101382
   29.474645   48.103717
   29.472550   48.104836
   29.471270   48.106403
   29.469202   48.113105
   29.466866   48.118353
   29.466399   48.118429
   29.444485   48.117349
   29.398102   48.109657
   29.395891   48.108329
   29.390070   48.102251
   29.393883   48.096295
   29.393937   48.094523
   29.392607   48.092512
   29.391313   48.091528
   29.389648   48.090829
   29.373139   48.086041
   29.370436   48.086001
   29.368509   48.086432
   29.366859   48.087218
   29.365468   48.088518
   29.354596   48.085150
   29.351356   48.084927
   29.349467   48.085288
   29.347812   48.085990
   29.345559   48.087559
   29.344601   48.088679
   29.342002   48.088653
   29.336506   48.089861
   29.334787   48.089182
   29.331989   48.088661
   29.314168   48.081801
   29.311501   48.081394
   29.309459   48.081566
   29.307587   48.082132
   29.306054   48.083042
   29.303287   48.085744
   29.301019   48.086337
   29.293534   48.085910
   29.290117   48.086224
   29.286744   48.087146
   29.284666   48.088261
   29.279673   48.086299
   29.276270   48.086134
   29.272163   48.087323
   29.266115   48.088562
   29.262991   48.089833
   29.259990   48.091692
   29.258860   48.093873
   29.259330   48.102484
   29.254405   48.102907
   29.252625   48.103580
   29.251373   48.104443
   29.248226   48.105069
   29.243294   48.102999
   29.241323   48.102725
   29.239402   48.102833
   29.237295   48.100483
   29.234649   48.099250
   29.230714   48.098675
   29.225583   48.098976
   29.220984   48.100101
   29.216332   48.102030
   29.215029   48.103109
   29.213142   48.105876
   29.210174   48.107607
   29.206591   48.111311
   29.200524   48.113529
   29.197786   48.115744
   29.197275   48.117054
   29.197379   48.120428
   29.199511   48.124399
   29.201820   48.126100
   29.204309   48.126830
   29.213962   48.128417
   29.216100   48.129072
   29.221156   48.129736
   29.227470   48.128400
   29.230467   48.126819
   29.232080   48.125420
   29.234429   48.130059
   29.235697   48.131196
   29.239078   48.133092
   29.241494   48.133669
   29.244157   48.133629
   29.247674   48.134100
   29.249983   48.134016
   29.253109   48.133221
   29.251577   48.135006
   29.247832   48.137080
   29.246529   48.138317
   29.243735   48.136549
   29.240532   48.136031
   29.234964   48.136870
   29.231826   48.136236
   29.229924   48.136179
   29.225845   48.136899
   29.224069   48.137593
   29.217980   48.137713
   29.216195   48.135569
   29.215896   48.133207
   29.214819   48.131600
   29.212315   48.130167
   29.209089   48.129680
   29.193347   48.129894
   29.191309   48.130128
   29.186718   48.131673
   29.183759   48.134604
   29.181137   48.136342
   29.180103   48.136691
   29.173223   48.137073
   29.170501   48.135801
   29.167816   48.135501
   29.141087   48.136093
   29.138456   48.136505
   29.136272   48.137561
   29.134877   48.139095
   29.134491   48.140866
   29.135174   48.142598
   29.136818   48.144019
   29.139173   48.145137
   29.142944   48.146131
   29.145078   48.146328
   29.146637   48.147406
   29.142906   48.150078
   29.135126   48.148050
   29.132555   48.148162
   29.130230   48.148896
   29.115168   48.157815
   29.106616   48.165799
   29.082662   48.183203
   29.079555   48.183265
   29.076599   48.184365
   29.075046   48.185846
   29.073396   48.188987
   29.069751   48.189004
   29.067606   48.189310
   29.066751   48.188667
   29.067613   48.187244
   29.068077   48.183420
   29.065737   48.177538
   29.064057   48.176201
   29.061739   48.175383
   29.059126   48.175203
   29.056198   48.175828
   29.052240   48.171973
   29.051231   48.168820
   29.051825   48.166559
   29.052016   48.161781
   29.051095   48.158241
   29.054100   48.155062
   29.056119   48.152111
   29.056673   48.150812
   29.056623   48.149462
   29.050088   48.140583
   29.049848   48.139171
   29.049056   48.137904
   29.042577   48.132572
   29.043676   48.130538
   29.043431   48.128797
   29.037437   48.122545
   29.034084   48.121230
   29.032028   48.121052
   29.029986   48.121291
   29.021509   48.123855
   29.014438   48.127999
   29.011981   48.130426
   29.011299   48.134320
   29.009034   48.137923
   29.006682   48.140652
   29.005220   48.143396
   29.003503   48.143903
   29.000696   48.143790
   28.998682   48.144044
   28.996872   48.144682
   28.995202   48.145854
   28.992364   48.143251
   28.988240   48.141264
   28.985780   48.140570
   28.983105   48.140553
   28.981205   48.140991
   28.979580   48.141776
   28.972249   48.148075
   28.966951   48.149132
   28.964593   48.150201
   28.950463   48.151795
   28.939742   48.124884
   28.938711   48.117265
   28.935175   48.098401
   28.936539   48.097392
   28.937528   48.095782
   28.937527   48.094046
   28.936537   48.092437
   28.934411   48.091002
   28.932058   48.090145
   28.929185   48.089972
   28.889063   48.081815
   28.877322   48.078825
   28.877473   48.077373
   28.876752   48.073709
   28.878033   48.071755
   28.877801   48.069596
   28.875699   48.067063
   28.873971   48.065726
   28.871678   48.064773
   28.869686   48.064489
   28.867004   48.064733
   28.859033   48.067263
   28.857094   48.068734
   28.852870   48.070457
   28.851328   48.071435
   28.850304   48.072501
   28.849503   48.074183
   28.846250   48.074318
   28.844399   48.074783
   28.842388   48.075908
   28.841387   48.077039
   28.840919   48.078312
   28.841021   48.079620
   28.850321   48.100796
   28.850607   48.102488
   28.848981   48.106315
   28.841230   48.113325
   28.837683   48.119343
   28.835209   48.119542
   28.832849   48.120408
   28.831515   48.121421
   28.830088   48.123238
   28.815555   48.119908
   28.812306   48.119909
   28.809937   48.120633
   28.808527   48.121535
   28.804477   48.126676
   28.801412   48.125561
   28.800514   48.123919
   28.798645   48.122581
   28.794130   48.121380
   28.770923   48.120344
   28.768943   48.120735
   28.767231   48.121500
   28.760828   48.125436
   28.752977   48.131237
   28.738421   48.129134
   28.726057   48.122580
   28.723665   48.121774
   28.721663   48.121607
   28.719674   48.121834
   28.708763   48.125018
   28.707760   48.125035
   28.705124   48.123524
   28.698598   48.121827
   28.688859   48.120158
   28.686212   48.120224
   28.683801   48.120951
   28.681990   48.122230
   28.674176   48.132604
   28.671194   48.141113
   28.648534   48.138820
   28.646549   48.138812
   28.644644   48.139182
   28.642075   48.140540
   28.640761   48.142535
   28.641627   48.148706
   28.637233   48.149652
   28.632629   48.148709
   28.628503   48.148984
   28.626225   48.149872
   28.624729   48.151144
   28.616645   48.154196
   28.615093   48.153285
   28.613266   48.152735
   28.611277   48.152561
   28.608669   48.152932
   28.606031   48.154270
   28.590841   48.166920
   28.582507   48.162614
   28.579923   48.162123
   28.577906   48.162212
   28.576016   48.162688
   28.574419   48.163509
   28.566452   48.170226
   28.562945   48.168903
   28.561473   48.167854
   28.559797   48.167221
   28.556075   48.166809
   28.553223   48.165917
   28.550755   48.165750
   28.549433   48.163379
   28.548304   48.162254
   28.543976   48.160324
   28.541435   48.158547
   28.540444   48.155700
   28.539301   48.154650
   28.536554   48.153124
   28.535683   48.151052
   28.533519   48.149504
   28.527608   48.147846
   28.522230   48.147873
   28.517334   48.147314
   28.526875   48.140713
   28.527865   48.139052
   28.527807   48.137267
   28.527075   48.136015
   28.525302   48.134669
   28.520976   48.133357
   28.516435   48.130826
   28.508857   48.127228
   28.506095   48.125515
   28.506984   48.120615
   28.505839   48.118631
   28.503690   48.117307
   28.504699   48.115922
   28.504913   48.114182
   28.502852   48.110864
   28.502530   48.108314
   28.502989   48.103988
   28.501067   48.099547
   28.501181   48.098446
   28.504048   48.091263
   28.504105   48.087887
   28.502130   48.083613
   28.498301   48.077473
   28.498492   48.076207
   28.499089   48.075379
   28.503967   48.073445
   28.505898   48.072175
   28.507513   48.069840
   28.507806   48.066988
   28.507142   48.065331
   28.505713   48.063734
   28.502842   48.062080
   28.498761   48.061014
   28.494434   48.060942
   28.490561   48.061246
   28.487106   48.062024
   28.484283   48.063269
   28.479698   48.066132
   28.476803   48.067193
   28.462568   48.069522
   28.458117   48.070808
   28.452998   48.073246
   28.446121   48.077924
   28.443623   48.080928
   28.439843   48.087037
   28.438157   48.089069
   28.437539   48.089760
   28.435860   48.090479
   28.433805   48.091921
   28.430641   48.095948
   28.429511   48.098661
   28.428154   48.109428
   28.422908   48.112790
   28.416882   48.117798
   28.414844   48.121100
   28.414306   48.123603
   28.415440   48.128962
   28.417414   48.133496
   28.421685   48.137472
   28.431508   48.142961
   28.432934   48.144069
   28.431331   48.147607
   28.430902   48.150384
   28.429427   48.153382
   28.428611   48.163927
   28.427402   48.166173
   28.424028   48.168791
   28.415804   48.171639
   28.410683   48.172928
   28.401352   48.172197
   28.391948   48.172028
   28.387222   48.171158
   28.382478   48.166658
   28.377492   48.162660
   28.374968   48.158291
   28.375099   48.156538
   28.373417   48.152163
   28.370320   48.147830
   28.366455   48.141245
   28.361198   48.135986
   28.355560   48.132833
   28.351892   48.131515
   28.337845   48.128698
   28.326696   48.128129
   28.320532   48.128365
   28.314894   48.129748
   28.305560   48.133864
   28.301267   48.136694
   28.299742   48.138297
   28.298182   48.142469
   28.298334   48.144651
   28.300230   48.149611
   28.298995   48.155102
   28.298933   48.158611
   28.299561   48.160155
   28.301927   48.163270
   28.305302   48.166150
   28.311009   48.169036
   28.317117   48.171130
   28.322382   48.173679
   28.339627   48.179992
   28.344136   48.182323
   28.355053   48.192124
   28.355889   48.196801
   28.358321   48.201713
   28.361719   48.206946
   28.363365   48.214847
   28.363471   48.218798
   28.361782   48.226338
   28.357221   48.235208
   28.354806   48.239172
   28.350485   48.241997
   28.347731   48.242857
   28.346124   48.242742
   28.339683   48.239894
   28.336942   48.237818
   28.334860   48.234163
   28.332986   48.232387
   28.328322   48.229995
   28.323015   48.228603
   28.318577   48.228684
   28.315154   48.229359
   28.312049   48.230503
   28.308758   48.232477
   28.307090   48.234330
   28.305902   48.236768
   28.305413   48.237040
   28.298869   48.233731
   28.296090   48.231693
   28.288386   48.227549
   28.285343   48.226514
   28.279189   48.225304
   28.275557   48.224248
   28.257078   48.215332
   28.245277   48.211090
   28.235170   48.206063
   28.221659   48.201912
   28.215133   48.200719
   28.209087   48.200261
   28.206952   48.200327
   28.200495   48.201282
   28.188809   48.206333
   28.182937   48.210334
   28.179727   48.214554
   28.177539   48.225974
   28.175457   48.232556
   28.175178   48.239894
   28.176750   48.245452
   28.179887   48.250098
   28.177942   48.251790
   28.174896   48.252887
   28.156455   48.257321
   28.148202   48.258285
   28.147410   48.257554
   28.146656   48.251436
   28.145569   48.247385
   28.141750   48.243138
   28.133129   48.237623
   28.113839   48.228733
   28.110183   48.227340
   28.106645   48.226560
   28.102004   48.226365
   28.097602   48.227027
   28.092182   48.228928
   28.087886   48.229934
   28.083240   48.231492
   28.079524   48.233320
   28.077052   48.235212
   28.075429   48.237156
   28.073732   48.240720
   28.072491   48.246426
   28.072990   48.251291
   28.074424   48.257283
   28.078164   48.266266
   28.081758   48.272993
   28.082093   48.277419
   28.085291   48.286616
   28.086498   48.293387
   28.085871   48.295045
   28.079424   48.305117
   28.075176   48.309366
   28.069774   48.313608
   28.066634   48.315505
   28.056459   48.318900
   28.040861   48.321517
   28.015078   48.321863
   27.995001   48.320437
   27.982645   48.320873
   27.971242   48.319916
   27.961993   48.320696
   27.950677   48.324348
   27.935263   48.333721
   27.911442   48.344771
   27.907659   48.347700
   27.900226   48.351482
   27.889299   48.358507
   27.885834   48.362108
   27.882465   48.364553
   27.876123   48.370826
   27.872266   48.378118
   27.871476   48.382260
   27.871445   48.387970
   27.872131   48.389959
   27.873760   48.392490
   27.869564   48.399742
   27.866890   48.402249
   27.865104   48.403259
   27.846379   48.409733
   27.843805   48.410393
   27.834685   48.410987
   27.824493   48.412875
   27.819128   48.414484
   27.815937   48.415776
   27.812976   48.417955
   27.809235   48.424593
   27.804290   48.429203
   27.792817   48.435162
   27.782345   48.442860
   27.778056   48.444312
   27.769444   48.446576
   27.763440   48.449265
   27.759058   48.452114
   27.747201   48.453515
   27.738482   48.452562
   27.732640   48.450976
   27.725124   48.449655
   27.712793   48.446482
   27.702205   48.443269
   27.688934   48.437560
   27.684495   48.436317
   27.676452   48.435459
   27.664340   48.435431
   27.656537   48.436266
   27.647809   48.436758
   27.640969   48.437644
   27.635325   48.439225
   27.624067   48.443275
   27.607048   48.450566
   27.589127   48.456338
   27.587536   48.457108
   27.585340   48.458915
   27.582501   48.464463
   27.582472   48.466756
   27.583291   48.468031
   27.587258   48.471660
   27.590021   48.475981
   27.590516   48.477549
   27.592717   48.481314
   27.595344   48.484458
   27.597405   48.486044
   27.595181   48.487010
   27.588474   48.487518
   27.583924   48.486840
   27.574623   48.482659
   27.565298   48.479398
   27.556672   48.474165
   27.549060   48.470568
   27.534553   48.465254
   27.529401   48.464743
   27.518138   48.466107
   27.516211   48.466596
   27.509740   48.469634
   27.492196   48.481433
   27.485843   48.487848
   27.481037   48.495103
   27.472139   48.505411
   27.471761   48.509313
   27.474671   48.518714
   27.476208   48.526281
   27.475578   48.536172
   27.472787   48.544751
   27.467385   48.558047
   27.464727   48.562221
   27.458544   48.576091
   27.455353   48.581689
   27.452065   48.585351
   27.450986   48.587564
   27.446553   48.591271
   27.445467   48.593106
   27.440450   48.598332
   27.434135   48.603113
   27.431138   48.604878
   27.422360   48.607833
   27.417171   48.611713
   27.411770   48.613744
   27.388854   48.621177
   27.384260   48.622305
   27.368417   48.624970
   27.366375   48.626083
   27.365124   48.627625
   27.364852   48.629365
END
END
