volyn
1
   23.598224   51.617186
   23.598839   51.621640
   23.599475   51.622855
   23.600623   51.623909
   23.605453   51.626615
   23.607214   51.627311
   23.615373   51.629023
   23.620321   51.631619
   23.625705   51.632745
   23.630549   51.636937
   23.641442   51.643303
   23.643574   51.643756
   23.650187   51.644039
   23.658360   51.643544
   23.661387   51.644740
   23.665295   51.648549
   23.669022   51.651050
   23.669726   51.652954
   23.670831   51.654262
   23.673163   51.656147
   23.675372   51.657161
   23.677339   51.657536
   23.680068   51.657463
   23.699899   51.653198
   23.702101   51.653041
   23.714620   51.655425
   23.718516   51.657178
   23.726898   51.659145
   23.733253   51.661980
   23.747668   51.664524
   23.749846   51.664548
   23.754075   51.663929
   23.767973   51.668775
   23.780783   51.671872
   23.783502   51.672011
   23.787860   51.670904
   23.792097   51.668912
   23.795281   51.665365
   23.796656   51.662944
   23.797827   51.656291
   23.797270   51.654553
   23.795490   51.652297
   23.796036   51.650218
   23.794928   51.647530
   23.795922   51.644753
   23.803118   51.644928
   23.808439   51.646440
   23.827359   51.649974
   23.837992   51.648310
   23.846983   51.645278
   23.856042   51.646978
   23.868162   51.647263
   23.872340   51.646740
   23.877213   51.645149
   23.913387   51.636449
   23.918205   51.634398
   23.919334   51.633266
   23.919888   51.631974
   23.919658   51.630201
   23.918778   51.628984
   23.894712   51.610328
   23.886857   51.605994
   23.884710   51.598881
   23.885541   51.597956
   23.902874   51.602314
   23.929554   51.602069
   23.946111   51.599851
   23.947960   51.599126
   23.959980   51.592623
   23.975994   51.591109
   23.992173   51.585757
   23.994797   51.585130
   24.006487   51.591436
   24.009306   51.592211
   24.010305   51.592948
   24.010237   51.596905
   24.011677   51.598956
   24.025339   51.606375
   24.070754   51.622549
   24.086362   51.635317
   24.094244   51.642256
   24.096840   51.645204
   24.099407   51.649552
   24.113942   51.668493
   24.115679   51.669928
   24.119399   51.671528
   24.263990   51.719842
   24.268989   51.723270
   24.273174   51.725416
   24.311256   51.751980
   24.300528   51.767717
   24.298664   51.778748
   24.287591   51.798515
   24.287826   51.804910
   24.290238   51.810667
   24.292248   51.812739
   24.291913   51.814051
   24.292407   51.815753
   24.293429   51.816884
   24.294898   51.817775
   24.306069   51.828732
   24.319251   51.837408
   24.325410   51.844211
   24.328770   51.847359
   24.330353   51.848375
   24.332286   51.849036
   24.327570   51.854489
   24.327140   51.856651
   24.333239   51.865979
   24.334368   51.867117
   24.335976   51.867996
   24.337923   51.868539
   24.343745   51.868622
   24.346712   51.869265
   24.368774   51.882372
   24.371497   51.883005
   24.374152   51.882935
   24.376213   51.883253
   24.380679   51.885105
   24.385776   51.886278
   24.450072   51.887120
   24.476996   51.886840
   24.515676   51.893114
   24.536951   51.891845
   24.563829   51.893938
   24.569077   51.897900
   24.576077   51.900079
   24.603124   51.905733
   24.625169   51.907257
   24.642065   51.905601
   24.664710   51.903940
   24.666602   51.903436
   24.668189   51.902615
   24.674634   51.897514
   24.682929   51.898341
   24.707387   51.900026
   24.709163   51.900797
   24.711176   51.901194
   24.715754   51.900848
   24.717766   51.900324
   24.722048   51.898320
   24.735107   51.890952
   24.738169   51.890023
   24.740037   51.888527
   24.750097   51.885856
   24.763541   51.888393
   24.779334   51.896928
   24.782010   51.898680
   24.785875   51.900353
   24.788245   51.900847
   24.790401   51.903790
   24.796035   51.907652
   24.797073   51.910493
   24.798360   51.911999
   24.806146   51.915586
   24.808029   51.916166
   24.818194   51.916972
   24.834281   51.917691
   24.836310   51.917599
   24.838216   51.917150
   24.840304   51.916064
   24.841366   51.914969
   24.847586   51.902312
   24.877552   51.911099
   24.893706   51.914304
   24.900798   51.915277
   24.905958   51.918374
   24.910146   51.920450
   24.911961   51.921095
   24.913992   51.921383
   24.916069   51.921291
   24.918017   51.920826
   24.920539   51.919341
   24.935985   51.900666
   24.938304   51.897316
   24.961815   51.902505
   24.974214   51.907117
   24.986611   51.914650
   24.987164   51.916049
   24.988772   51.917666
   24.991617   51.919176
   24.995256   51.919964
   25.017047   51.923041
   25.053398   51.942468
   25.064296   51.944988
   25.076344   51.951114
   25.097017   51.957555
   25.100966   51.957993
   25.117255   51.955884
   25.139944   51.957836
   25.151963   51.960547
   25.159860   51.966126
   25.162156   51.967207
   25.177608   51.969670
   25.188581   51.973428
   25.191316   51.973788
   25.216208   51.970834
   25.218425   51.969972
   25.224852   51.966307
   25.227972   51.965378
   25.231283   51.965567
   25.240565   51.970392
   25.242884   51.971198
   25.257467   51.973297
   25.266151   51.972754
   25.268439   51.971858
   25.275275   51.967082
   25.276856   51.966548
   25.286560   51.965417
   25.293921   51.962773
   25.295670   51.961386
   25.296516   51.959834
   25.299524   51.959512
   25.306680   51.957639
   25.314008   51.952543
   25.324332   51.948174
   25.326369   51.946633
   25.327244   51.944767
   25.338485   51.943606
   25.340949   51.942860
   25.342406   51.941946
   25.347778   51.936647
   25.348436   51.936532
   25.353517   51.938168
   25.358070   51.939024
   25.367607   51.938420
   25.369466   51.937969
   25.371504   51.936902
   25.376626   51.932161
   25.381057   51.931809
   25.382891   51.931379
   25.397762   51.931110
   25.407434   51.929649
   25.410508   51.928632
   25.413419   51.926345
   25.433715   51.926858
   25.436385   51.926431
   25.447901   51.926361
   25.459463   51.925553
   25.461509   51.925207
   25.463170   51.924564
   25.465776   51.924909
   25.469223   51.924659
   25.479260   51.926140
   25.479470   51.930341
   25.480874   51.932323
   25.482164   51.933240
   25.484279   51.934105
   25.487862   51.934720
   25.493898   51.934004
   25.498085   51.932260
   25.501215   51.932008
   25.503774   51.931345
   25.509604   51.927929
   25.512167   51.929123
   25.521668   51.943287
   25.523195   51.944185
   25.525067   51.944767
   25.527126   51.944983
   25.529196   51.944817
   25.596560   51.928392
   25.598156   51.927558
   25.599308   51.926472
   25.603512   51.919190
   25.623379   51.910132
   25.630140   51.909251
   25.632060   51.908670
   25.633491   51.907854
   25.678593   51.906346
   25.688661   51.904839
   25.712628   51.898440
   25.714586   51.897211
   25.715662   51.895607
   25.715539   51.893438
   25.714285   51.891885
   25.693036   51.877840
   25.685559   51.875402
   25.678474   51.872146
   25.672266   51.870504
   25.668088   51.866911
   25.661208   51.857184
   25.656517   51.853689
   25.656178   51.851230
   25.655208   51.849626
   25.653893   51.848638
   25.652189   51.847925
   25.647787   51.847400
   25.647166   51.843877
   25.647931   51.841306
   25.646625   51.838222
   25.647266   51.836523
   25.649523   51.834194
   25.650520   51.833465
   25.653886   51.832369
   25.655771   51.830568
   25.656739   51.827218
   25.655822   51.821961
   25.657097   51.820400
   25.657330   51.818631
   25.655223   51.814691
   25.652839   51.812684
   25.649675   51.811565
   25.646055   51.811386
   25.643536   51.810314
   25.643833   51.807369
   25.642086   51.804584
   25.649803   51.800486
   25.652765   51.795113
   25.656324   51.794600
   25.659124   51.793115
   25.666178   51.785049
   25.666522   51.783332
   25.666091   51.782060
   25.664664   51.780583
   25.661575   51.778794
   25.658540   51.770671
   25.662427   51.773782
   25.663877   51.775986
   25.666010   51.777145
   25.667987   51.777621
   25.670099   51.777712
   25.672161   51.777410
   25.673993   51.776741
   25.675806   51.775383
   25.682508   51.765541
   25.686303   51.761782
   25.689353   51.757870
   25.690004   51.756568
   25.690010   51.755203
   25.689022   51.753498
   25.687229   51.752264
   25.682523   51.744037
   25.682503   51.742309
   25.681946   51.740948
   25.670383   51.729901
   25.672789   51.726115
   25.673288   51.724662
   25.672844   51.719666
   25.672125   51.717952
   25.657086   51.707515
   25.658303   51.704301
   25.657026   51.699968
   25.658001   51.697343
   25.657353   51.695491
   25.656466   51.694446
   25.655824   51.692144
   25.654668   51.691020
   25.652547   51.689813
   25.650799   51.688055
   25.645477   51.686144
   25.645867   51.685199
   25.647376   51.683926
   25.648094   51.682719
   25.648244   51.681433
   25.647813   51.680173
   25.643340   51.675966
   25.640570   51.671381
   25.637493   51.669787
   25.633998   51.669152
   25.634064   51.665124
   25.633544   51.663785
   25.628419   51.657799
   25.626374   51.656528
   25.625407   51.652337
   25.623157   51.649425
   25.620580   51.647744
   25.619201   51.646359
   25.614838   51.638792
   25.613485   51.637751
   25.611707   51.637007
   25.608235   51.636592
   25.593279   51.639025
   25.584110   51.622733
   25.582942   51.621624
   25.580691   51.620566
   25.578672   51.620179
   25.576562   51.620180
   25.563564   51.622341
   25.568541   51.610076
   25.575774   51.612930
   25.578444   51.613398
   25.580523   51.613307
   25.582472   51.612842
   25.584997   51.611356
   25.589110   51.606183
   25.591380   51.596199
   25.592106   51.594618
   25.600418   51.589781
   25.605264   51.582734
   25.605828   51.581074
   25.604198   51.574983
   25.600109   51.570699
   25.602195   51.569220
   25.603233   51.567546
   25.603147   51.562200
   25.602491   51.560429
   25.601297   51.559288
   25.598974   51.558212
   25.585891   51.555365
   25.580482   51.552076
   25.573084   51.540075
   25.575114   51.537621
   25.585456   51.536648
   25.600048   51.530304
   25.601268   51.529245
   25.601956   51.528009
   25.602467   51.524644
   25.601903   51.522900
   25.600317   51.521429
   25.597283   51.520312
   25.558325   51.515781
   25.561174   51.505971
   25.586559   51.508840
   25.589673   51.510799
   25.592955   51.511601
   25.596447   51.511319
   25.599210   51.510087
   25.608582   51.511485
   25.611373   51.511549
   25.613989   51.510934
   25.616036   51.509735
   25.617201   51.508134
   25.617308   51.506373
   25.613253   51.499191
   25.618332   51.499751
   25.625779   51.499630
   25.627713   51.499069
   25.629302   51.498174
   25.630944   51.496071
   25.630969   51.494319
   25.626999   51.482396
   25.631337   51.482683
   25.633253   51.483180
   25.637918   51.483734
   25.640619   51.483710
   25.645501   51.482578
   25.647469   51.481327
   25.648361   51.480127
   25.649556   51.444394
   25.648693   51.442660
   25.644011   51.438374
   25.651356   51.422490
   25.655501   51.423189
   25.658247   51.423023
   25.661210   51.421925
   25.663071   51.419987
   25.671832   51.421248
   25.674487   51.420872
   25.676728   51.419899
   25.682622   51.416011
   25.684950   51.412141
   25.692180   51.408827
   25.693577   51.407761
   25.694529   51.406022
   25.696007   51.398764
   25.698981   51.399164
   25.701060   51.399051
   25.703584   51.398326
   25.705483   51.397050
   25.708370   51.391058
   25.708181   51.387990
   25.709774   51.386512
   25.711168   51.386603
   25.710060   51.388885
   25.710815   51.391036
   25.718610   51.397507
   25.717726   51.400153
   25.718588   51.402249
   25.719826   51.403297
   25.721487   51.404078
   25.724808   51.404621
   25.759590   51.404876
   25.761721   51.404688
   25.763667   51.404109
   25.766039   51.402431
   25.766838   51.400240
   25.763194   51.383929
   25.779787   51.379525
   25.785257   51.382541
   25.788570   51.383181
   25.791324   51.382932
   25.805778   51.379730
   25.827669   51.391072
   25.829655   51.391526
   25.832464   51.391529
   25.834454   51.391081
   25.836150   51.390285
   25.842838   51.384090
   25.844979   51.381407
   25.850088   51.378301
   25.851067   51.377095
   25.851436   51.375759
   25.851161   51.374415
   25.850267   51.373182
   25.847864   51.371752
   25.845788   51.369805
   25.843251   51.368826
   25.840170   51.368458
   25.836981   51.367644
   25.839616   51.366518
   25.841388   51.365206
   25.842489   51.363312
   25.842631   51.361922
   25.840379   51.357421
   25.840578   51.355846
   25.839232   51.351953
   25.837855   51.350578
   25.832482   51.347251
   25.834516   51.346207
   25.835840   51.344803
   25.836577   51.341807
   25.836779   51.337061
   25.838550   51.336340
   25.839945   51.335288
   25.840776   51.334022
   25.841014   51.332497
   25.844094   51.331199
   25.851093   51.325081
   25.853122   51.325337
   25.859268   51.325082
   25.861742   51.324411
   25.864704   51.322536
   25.870260   51.322766
   25.874120   51.321638
   25.876119   51.320078
   25.881283   51.317946
   25.883375   51.316073
   25.884491   51.313939
   25.883979   51.311944
   25.885136   51.310065
   25.888343   51.310145
   25.891114   51.309489
   25.893936   51.307854
   25.895282   51.305472
   25.901180   51.304713
   25.903049   51.304068
   25.904535   51.303105
   25.905826   51.301034
   25.906087   51.295388
   25.911126   51.293196
   25.912274   51.292973
   25.916597   51.293297
   25.918587   51.292919
   25.920321   51.292196
   25.921852   51.290962
   25.924925   51.289755
   25.926983   51.288164
   25.927857   51.286855
   25.927866   51.284541
   25.928588   51.283555
   25.931891   51.283117
   25.933861   51.282387
   25.936977   51.282739
   25.939094   51.282557
   25.941996   51.281670
   25.943956   51.280464
   25.945211   51.278808
   25.945556   51.277449
   25.945238   51.276087
   25.944069   51.274503
   25.944974   51.273189
   25.945185   51.271875
   25.944786   51.270578
   25.943520   51.269183
   25.943078   51.267180
   25.944341   51.265183
   25.944574   51.263937
   25.944172   51.262397
   25.943262   51.261255
   25.945292   51.259374
   25.946791   51.255716
   25.949530   51.255270
   25.951359   51.254487
   25.953308   51.252869
   25.954071   51.251598
   25.954834   51.249020
   25.954798   51.247698
   25.953899   51.245743
   25.954603   51.243681
   25.953764   51.241410
   25.953985   51.239030
   25.952639   51.236906
   25.952922   51.236258
   25.996866   51.232181
   26.000069   51.231361
   26.056199   51.193239
   26.064608   51.187243
   26.065850   51.185389
   26.068451   51.184243
   26.071302   51.181953
   26.074489   51.178504
   26.074927   51.177239
   26.074779   51.175949
   26.073699   51.174368
   26.070871   51.172483
   26.066788   51.170989
   26.067018   51.169237
   26.068627   51.166767
   26.073492   51.162936
   26.076480   51.160064
   26.077193   51.158768
   26.077970   51.155114
   26.075218   51.150304
   26.074224   51.146722
   26.073428   51.145547
   26.071623   51.144286
   26.069717   51.143603
   26.063676   51.139281
   26.061953   51.138526
   26.059959   51.138118
   26.050137   51.137670
   26.047402   51.135718
   26.042296   51.134031
   26.034639   51.132679
   26.032994   51.131561
   26.027576   51.129449
   26.016380   51.127030
   26.011358   51.122071
   26.009814   51.121149
   26.007910   51.120554
   25.989805   51.118099
   25.979956   51.118162
   25.977015   51.118590
   25.971079   51.120832
   25.961321   51.121112
   25.947093   51.115711
   25.945971   51.114497
   25.951713   51.109554
   25.955227   51.107419
   25.956242   51.106155
   25.957008   51.103978
   25.956419   51.096629
   25.955250   51.093641
   25.953664   51.092162
   25.954068   51.090813
   25.953561   51.089002
   25.953857   51.086920
   25.962644   51.085193
   25.969352   51.084238
   25.978537   51.082322
   25.981670   51.082143
   25.988319   51.083249
   25.998404   51.083083
   26.014687   51.087674
   26.016854   51.087903
   26.019719   51.087549
   26.036750   51.080424
   26.091720   51.056181
   26.096099   51.053995
   26.097405   51.052924
   26.098151   51.051657
   26.114390   51.005664
   26.114289   51.004322
   26.113566   51.003058
   26.112288   51.001984
   26.110566   51.001194
   26.107846   51.000699
   26.093052   50.999934
   26.090990   50.998604
   26.087295   50.991627
   26.088725   50.990253
   26.089802   50.988031
   26.089772   50.985840
   26.088504   50.984070
   26.091921   50.973341
   26.091056   50.971160
   26.088634   50.969512
   26.085968   50.968857
   26.083539   50.968793
   26.080280   50.967257
   26.077701   50.966763
   26.070814   50.967363
   26.067837   50.966584
   26.062481   50.966238
   26.055747   50.967655
   26.048586   50.967224
   26.047498   50.967080
   26.044353   50.965724
   26.041571   50.965382
   26.030344   50.962236
   26.023746   50.959683
   26.020986   50.959504
   26.017166   50.960128
   26.012645   50.960079
   26.010226   50.959331
   26.007330   50.959086
   26.001152   50.959892
   25.999341   50.959487
   25.998086   50.958274
   25.996544   50.957474
   25.992095   50.956326
   25.989277   50.956036
   25.984531   50.956674
   25.979514   50.955362
   26.002421   50.940994
   26.006635   50.937772
   26.007834   50.935733
   25.999075   50.867905
   25.999679   50.867614
   26.001324   50.868760
   26.003158   50.869410
   26.011135   50.870785
   26.013912   50.870739
   26.017004   50.869761
   26.022528   50.866158
   26.031844   50.860777
   26.040636   50.855032
   26.042353   50.854414
   26.043832   50.853432
   26.044785   50.852218
   26.045125   50.850880
   26.044104   50.846886
   26.044901   50.844795
   26.046541   50.842847
   26.046547   50.840702
   26.044841   50.838519
   26.042698   50.837284
   26.038981   50.836258
   26.034936   50.835850
   26.032502   50.829009
   26.032065   50.825194
   26.031128   50.822697
   26.027302   50.817892
   26.025029   50.816821
   26.022986   50.816433
   26.020853   50.816441
   26.018817   50.816845
   26.015567   50.818680
   26.013003   50.819166
   26.001078   50.818179
   25.994935   50.818231
   25.991426   50.819078
   25.984720   50.818320
   25.979302   50.816599
   25.976454   50.816565
   25.974427   50.817004
   25.972138   50.817955
   25.967354   50.821294
   25.964749   50.821014
   25.961046   50.819741
   25.958229   50.819654
   25.954340   50.820436
   25.950914   50.822251
   25.947974   50.821674
   25.944455   50.822054
   25.938971   50.823744
   25.936749   50.825426
   25.933911   50.825525
   25.929455   50.825156
   25.924271   50.826216
   25.920256   50.824968
   25.916260   50.824591
   25.911607   50.825437
   25.909532   50.826302
   25.908672   50.826065
   25.908533   50.820547
   25.907422   50.812738
   25.904790   50.808443
   25.899448   50.802210
   25.898998   50.800500
   25.897602   50.798207
   25.897343   50.789859
   25.895219   50.785646
   25.894919   50.777588
   25.894529   50.776219
   25.894726   50.768533
   25.894007   50.763598
   25.888367   50.754645
   25.885962   50.751844
   25.883273   50.750039
   25.882518   50.748814
   25.879831   50.741959
   25.879053   50.738442
   25.884797   50.718932
   25.884725   50.710871
   25.885687   50.709091
   25.885472   50.707348
   25.882870   50.703333
   25.882956   50.701763
   25.882172   50.700135
   25.879797   50.698322
   25.877566   50.695090
   25.877623   50.690163
   25.877098   50.687885
   25.875614   50.685176
   25.870796   50.681277
   25.866701   50.678684
   25.864151   50.677491
   25.860033   50.674276
   25.857596   50.670548
   25.857718   50.668188
   25.856663   50.666369
   25.831305   50.645860
   25.832212   50.644009
   25.850236   50.633703
   25.851225   50.632505
   25.851609   50.631176
   25.851354   50.629834
   25.850484   50.628600
   25.846880   50.626455
   25.834575   50.616685
   25.832875   50.615823
   25.830844   50.615324
   25.827946   50.615297
   25.823483   50.616135
   25.821282   50.617015
   25.817960   50.619746
   25.817026   50.621221
   25.814487   50.622851
   25.811537   50.626391
   25.811006   50.628109
   25.811417   50.632053
   25.786982   50.663658
   25.771120   50.671333
   25.768789   50.670990
   25.763021   50.668948
   25.755843   50.668217
   25.752324   50.667364
   25.749090   50.667168
   25.745686   50.665634
   25.742904   50.665183
   25.736200   50.665420
   25.724413   50.666844
   25.707891   50.666917
   25.705898   50.667274
   25.704152   50.667977
   25.702167   50.669742
   25.700026   50.675277
   25.700573   50.680084
   25.701669   50.681720
   25.703677   50.682963
   25.705600   50.683519
   25.710161   50.684103
   25.704049   50.687846
   25.700750   50.690574
   25.699007   50.693081
   25.698807   50.695294
   25.698236   50.696385
   25.694402   50.697347
   25.692511   50.698130
   25.687863   50.702383
   25.687481   50.704097
   25.687886   50.705373
   25.689282   50.706862
   25.690992   50.707747
   25.688105   50.719037
   25.656193   50.713366
   25.628074   50.709644
   25.621827   50.710269
   25.618196   50.711403
   25.611149   50.711776
   25.607448   50.712551
   25.605383   50.712088
   25.605514   50.710920
   25.606793   50.708859
   25.606834   50.702108
   25.608842   50.696065
   25.607867   50.694007
   25.605500   50.692466
   25.601816   50.691503
   25.597856   50.691562
   25.593884   50.692689
   25.588701   50.695839
   25.582217   50.695710
   25.577121   50.692121
   25.569797   50.688829
   25.563668   50.687819
   25.561633   50.687992
   25.559206   50.688767
   25.531799   50.680754
   25.514899   50.679981
   25.510488   50.678404
   25.509118   50.676806
   25.506975   50.675717
   25.477404   50.668087
   25.475311   50.667899
   25.473221   50.668104
   25.471318   50.668686
   25.469764   50.669595
   25.468351   50.667873
   25.466650   50.660682
   25.465261   50.659170
   25.462430   50.657927
   25.459007   50.657662
   25.452346   50.658781
   25.444537   50.659004
   25.437795   50.660597
   25.434810   50.660244
   25.432775   50.660381
   25.429390   50.661008
   25.425596   50.662184
   25.422098   50.662239
   25.418647   50.661642
   25.414131   50.661772
   25.410361   50.662631
   25.408183   50.663889
   25.405345   50.664005
   25.401158   50.664995
   25.399447   50.665818
   25.398066   50.667024
   25.395580   50.667624
   25.395889   50.665153
   25.394315   50.662331
   25.393925   50.660113
   25.394518   50.658659
   25.394378   50.657029
   25.392431   50.654684
   25.391636   50.652693
   25.390432   50.651633
   25.387008   50.650387
   25.386050   50.649140
   25.383775   50.647595
   25.381172   50.646807
   25.378369   50.646557
   25.371077   50.646830
   25.366911   50.647989
   25.366255   50.647465
   25.368556   50.646317
   25.370082   50.644486
   25.370438   50.642737
   25.369591   50.640611
   25.370802   50.639977
   25.373413   50.639822
   25.382627   50.637906
   25.384467   50.637162
   25.386458   50.635562
   25.388700   50.634595
   25.391887   50.632557
   25.393189   50.631087
   25.393846   50.628993
   25.393569   50.627507
   25.394419   50.626300
   25.394997   50.624295
   25.397388   50.623689
   25.399934   50.622293
   25.404256   50.620705
   25.405777   50.619528
   25.407541   50.616979
   25.410169   50.615902
   25.412391   50.614190
   25.413307   50.611716
   25.412161   50.609116
   25.410336   50.607830
   25.406323   50.606346
   25.404520   50.604533
   25.402202   50.603389
   25.397562   50.602762
   25.393249   50.601156
   25.390462   50.600975
   25.387173   50.601709
   25.385205   50.602853
   25.384192   50.603892
   25.382454   50.604259
   25.374944   50.605047
   25.362551   50.604950
   25.347489   50.605856
   25.344399   50.607035
   25.342324   50.609423
   25.337127   50.608126
   25.333093   50.608157
   25.327571   50.607521
   25.325474   50.607708
   25.322985   50.608539
   25.321560   50.609527
   25.316225   50.617433
   25.312791   50.619496
   25.307287   50.625147
   25.304859   50.625788
   25.299258   50.626018
   25.299555   50.614097
   25.302973   50.613294
   25.305274   50.611596
   25.306000   50.609861
   25.305677   50.606800
   25.306944   50.604350
   25.306357   50.602420
   25.308254   50.601997
   25.309998   50.601187
   25.311279   50.600084
   25.311979   50.598790
   25.311960   50.596301
   25.309333   50.586222
   25.317029   50.587931
   25.319168   50.588064
   25.321934   50.587612
   25.324645   50.586158
   25.325913   50.584060
   25.328657   50.568676
   25.328340   50.567297
   25.322339   50.555594
   25.322518   50.553653
   25.320970   50.551274
   25.320626   50.549129
   25.318691   50.547283
   25.317074   50.543988
   25.315184   50.542673
   25.310580   50.541212
   25.308469   50.540822
   25.306311   50.540852
   25.301954   50.536740
   25.299844   50.535531
   25.297859   50.535021
   25.295239   50.534914
   25.293546   50.534272
   25.287449   50.533032
   25.279831   50.532110
   25.274831   50.529292
   25.272435   50.528471
   25.255870   50.528106
   25.239771   50.529763
   25.237527   50.530803
   25.236352   50.531897
   25.235654   50.533598
   25.235928   50.535106
   25.228812   50.536574
   25.206461   50.536959
   25.196813   50.537426
   25.189034   50.538526
   25.184958   50.540482
   25.182983   50.542196
   25.181646   50.544514
   25.181526   50.546094
   25.177570   50.545569
   25.169161   50.545245
   25.154766   50.543004
   25.150603   50.542877
   25.139620   50.543645
   25.137508   50.543322
   25.135438   50.543399
   25.133490   50.543848
   25.128410   50.545791
   25.128302   50.544777
   25.130139   50.540739
   25.130564   50.536870
   25.129029   50.530870
   25.130717   50.530053
   25.141714   50.526581
   25.145822   50.525909
   25.149689   50.524018
   25.157420   50.517828
   25.159871   50.514605
   25.160278   50.513451
   25.162189   50.512559
   25.163626   50.511450
   25.166981   50.506735
   25.167218   50.504257
   25.167821   50.502954
   25.166954   50.498658
   25.166824   50.494884
   25.165895   50.491122
   25.165406   50.483944
   25.163824   50.479852
   25.159067   50.470858
   25.158186   50.464854
   25.156235   50.463046
   25.154486   50.462319
   25.152479   50.461943
   25.149030   50.462166
   25.143988   50.463656
   25.145301   50.461821
   25.146115   50.456911
   25.150545   50.456616
   25.152495   50.456182
   25.154638   50.455096
   25.155730   50.453988
   25.158596   50.448961
   25.160529   50.444346
   25.160561   50.442151
   25.159392   50.440550
   25.157922   50.439604
   25.156081   50.438966
   25.153335   50.438688
   25.150398   50.435912
   25.146659   50.434846
   25.145432   50.434190
   25.146105   50.433478
   25.148438   50.433761
   25.151266   50.433429
   25.156531   50.433791
   25.159782   50.433506
   25.162211   50.432820
   25.164272   50.431665
   25.165781   50.429383
   25.165525   50.425558
   25.165932   50.424288
   25.166837   50.423473
   25.169436   50.423139
   25.171820   50.422128
   25.173144   50.421116
   25.174982   50.418679
   25.175775   50.414855
   25.175545   50.413451
   25.177975   50.409045
   25.177907   50.404840
   25.179389   50.402742
   25.179720   50.400690
   25.187502   50.400428
   25.192990   50.399710
   25.200550   50.397540
   25.205454   50.395508
   25.208190   50.393843
   25.209480   50.392389
   25.210144   50.390629
   25.212384   50.389369
   25.213448   50.388328
   25.214114   50.386796
   25.214046   50.385124
   25.216070   50.383599
   25.217131   50.380960
   25.216754   50.379634
   25.215822   50.378484
   25.216564   50.375971
   25.215849   50.373734
   25.215819   50.372009
   25.214690   50.370280
   25.212806   50.369054
   25.212869   50.367376
   25.212078   50.365846
   25.209290   50.363744
   25.206307   50.362616
   25.203760   50.359916
   25.201366   50.358934
   25.195248   50.358031
   25.192419   50.358273
   25.190525   50.358798
   25.187778   50.358436
   25.185111   50.357475
   25.182374   50.357173
   25.176700   50.357953
   25.174348   50.358991
   25.172995   50.360036
   25.171808   50.361810
   25.171862   50.364031
   25.170793   50.365924
   25.166861   50.368076
   25.165375   50.370025
   25.159988   50.367813
   25.157261   50.367221
   25.155108   50.366149
   25.153340   50.365695
   25.153543   50.363945
   25.152426   50.362007
   25.158493   50.353810
   25.159107   50.352109
   25.158654   50.350388
   25.155184   50.345867
   25.160307   50.343629
   25.171894   50.333657
   25.173201   50.331633
   25.173057   50.329882
   25.171868   50.328296
   25.169812   50.327115
   25.159498   50.323192
   25.138167   50.316137
   25.139075   50.313922
   25.138971   50.309650
   25.137883   50.308007
   25.135875   50.306756
   25.133948   50.306195
   25.131845   50.306015
   25.117225   50.307040
   25.117528   50.305312
   25.117252   50.303961
   25.115924   50.302355
   25.113830   50.301255
   25.113534   50.298548
   25.116251   50.297568
   25.118203   50.295667
   25.119883   50.286903
   25.118773   50.284812
   25.117387   50.283809
   25.115598   50.283104
   25.112858   50.282728
   25.107931   50.283206
   25.094861   50.286421
   25.082741   50.288120
   25.078361   50.288200
   25.074956   50.288682
   25.067305   50.290867
   25.061283   50.294451
   25.052820   50.296374
   25.049445   50.297607
   25.048125   50.298602
   25.046868   50.300518
   25.045202   50.305666
   25.045378   50.307034
   25.047473   50.310996
   25.046118   50.313211
   25.046036   50.316423
   25.046559   50.317762
   25.048038   50.319194
   25.049181   50.321731
   25.049081   50.324345
   25.049716   50.325892
   25.052880   50.328424
   25.052405   50.329398
   25.048609   50.332386
   25.047343   50.334027
   25.047113   50.336311
   25.048087   50.338119
   25.044067   50.337994
   25.042070   50.338222
   25.037323   50.340245
   25.032929   50.341142
   25.028101   50.340469
   25.018507   50.337232
   25.015719   50.337172
   25.013106   50.337788
   25.000613   50.346422
   24.983843   50.356307
   24.978128   50.360724
   24.962773   50.369182
   24.944770   50.382111
   24.943006   50.380042
   24.939012   50.377639
   24.942311   50.374647
   24.946808   50.364697
   24.945789   50.353120
   24.944655   50.347360
   24.943449   50.343977
   24.941870   50.342497
   24.938834   50.341371
   24.936017   50.341220
   24.922431   50.342202
   24.917351   50.342975
   24.914561   50.341500
   24.911811   50.340939
   24.904341   50.340876
   24.891170   50.341423
   24.887500   50.340132
   24.885406   50.339948
   24.883318   50.340157
   24.881417   50.340742
   24.879870   50.341651
   24.878422   50.343664
   24.879807   50.355199
   24.870981   50.356096
   24.869360   50.354046
   24.867430   50.352523
   24.865839   50.347651
   24.864117   50.346245
   24.861671   50.345365
   24.858174   50.345205
   24.856165   50.345628
   24.853468   50.346861
   24.849751   50.346931
   24.839363   50.345400
   24.828403   50.344356
   24.813687   50.343568
   24.811603   50.342541
   24.809635   50.342116
   24.792685   50.341379
   24.790099   50.339436
   24.783128   50.335939
   24.779710   50.335016
   24.766447   50.333980
   24.723157   50.337293
   24.713589   50.338408
   24.710899   50.339100
   24.707757   50.341385
   24.707075   50.342634
   24.706995   50.343955
   24.708948   50.355288
   24.708598   50.358191
   24.709016   50.360638
   24.709835   50.362934
   24.713576   50.368464
   24.714551   50.371941
   24.710264   50.375472
   24.706431   50.377848
   24.702455   50.380239
   24.676441   50.390994
   24.671303   50.394419
   24.660399   50.395825
   24.651914   50.397466
   24.645524   50.400745
   24.644357   50.402338
   24.644242   50.404104
   24.640598   50.403755
   24.634630   50.404155
   24.631824   50.403790
   24.626046   50.403886
   24.617356   50.404893
   24.614665   50.405601
   24.610605   50.405863
   24.606128   50.406938
   24.601686   50.407605
   24.593287   50.409874
   24.591635   50.410653
   24.590403   50.411696
   24.589582   50.413348
   24.589498   50.415460
   24.591347   50.435710
   24.590644   50.450513
   24.591059   50.452431
   24.578095   50.453899
   24.575395   50.455339
   24.574427   50.456540
   24.574063   50.457868
   24.574564   50.459632
   24.576111   50.461134
   24.586313   50.466538
   24.590716   50.468530
   24.591208   50.470196
   24.590339   50.471778
   24.590050   50.475051
   24.588224   50.476165
   24.585790   50.478956
   24.585422   50.481189
   24.584051   50.484283
   24.584082   50.486902
   24.580035   50.486178
   24.575961   50.485949
   24.573675   50.484895
   24.571547   50.484499
   24.561933   50.484688
   24.559353   50.485329
   24.557351   50.486541
   24.556229   50.488142
   24.556032   50.489572
   24.553236   50.489654
   24.551308   50.490075
   24.549646   50.490822
   24.548385   50.491835
   24.547498   50.493454
   24.546131   50.506342
   24.546555   50.507605
   24.547528   50.508741
   24.550528   50.510230
   24.548849   50.512096
   24.548119   50.515399
   24.544167   50.518647
   24.543349   50.519957
   24.541245   50.525991
   24.541416   50.531123
   24.540838   50.532266
   24.533958   50.538716
   24.530896   50.542361
   24.530213   50.543861
   24.527728   50.545312
   24.525567   50.547889
   24.513000   50.551413
   24.508723   50.551400
   24.500570   50.550008
   24.494991   50.550226
   24.493723   50.548514
   24.488967   50.545301
   24.487292   50.544602
   24.484126   50.543870
   24.482258   50.542360
   24.473397   50.538910
   24.472212   50.537802
   24.469982   50.536767
   24.458723   50.535540
   24.455357   50.535963
   24.453303   50.535061
   24.451265   50.534681
   24.448445   50.534788
   24.446493   50.535318
   24.443875   50.537137
   24.434585   50.540741
   24.429757   50.542287
   24.424903   50.545864
   24.418803   50.549414
   24.413646   50.551647
   24.410181   50.554809
   24.403504   50.556114
   24.401753   50.556819
   24.400396   50.557812
   24.397773   50.562442
   24.393876   50.567551
   24.393436   50.569294
   24.393918   50.570747
   24.392196   50.572221
   24.391551   50.574372
   24.391974   50.575666
   24.393573   50.577962
   24.402929   50.583861
   24.403405   50.584673
   24.397288   50.586440
   24.392795   50.589450
   24.390852   50.591573
   24.389088   50.595205
   24.381610   50.601840
   24.376012   50.598343
   24.370471   50.596454
   24.368435   50.594404
   24.367005   50.593505
   24.363134   50.592512
   24.359476   50.592495
   24.353043   50.593884
   24.350551   50.593636
   24.336821   50.593846
   24.333288   50.594312
   24.333661   50.592832
   24.333339   50.591520
   24.326472   50.581347
   24.326621   50.578548
   24.325532   50.576561
   24.325808   50.574594
   24.324737   50.571990
   24.322421   50.570216
   24.318389   50.569157
   24.315556   50.567841
   24.313625   50.567413
   24.311581   50.567348
   24.309591   50.567649
   24.307300   50.568576
   24.305921   50.569656
   24.301811   50.570253
   24.299636   50.570371
   24.293702   50.569545
   24.291095   50.569732
   24.284926   50.571641
   24.281631   50.571886
   24.274081   50.573659
   24.269357   50.574140
   24.267150   50.574777
   24.264194   50.576197
   24.257312   50.575808
   24.243787   50.576807
   24.234034   50.579251
   24.230700   50.579001
   24.228495   50.579252
   24.225173   50.580614
   24.222106   50.583939
   24.217858   50.585228
   24.215264   50.586763
   24.213116   50.586859
   24.209244   50.587630
   24.205355   50.589507
   24.203672   50.592120
   24.203934   50.594634
   24.202318   50.595907
   24.201489   50.598288
   24.198170   50.601143
   24.196465   50.603751
   24.194942   50.604462
   24.193267   50.605837
   24.192545   50.607114
   24.192562   50.608893
   24.189952   50.610102
   24.187722   50.609922
   24.185119   50.610291
   24.182414   50.611316
   24.180884   50.612488
   24.179138   50.612866
   24.176754   50.612104
   24.173362   50.611814
   24.170178   50.612437
   24.167927   50.613578
   24.166812   50.614755
   24.166275   50.616074
   24.166312   50.619392
   24.164330   50.620461
   24.163061   50.621962
   24.162943   50.624613
   24.162127   50.626359
   24.158878   50.627727
   24.156560   50.629893
   24.156124   50.632361
   24.157889   50.634815
   24.154839   50.635457
   24.152908   50.636231
   24.151329   50.637209
   24.150041   50.638592
   24.149015   50.639005
   24.145498   50.638328
   24.143199   50.638362
   24.140628   50.638900
   24.136703   50.638567
   24.133443   50.639298
   24.130892   50.640732
   24.128028   50.641224
   24.125917   50.639884
   24.123335   50.639145
   24.121211   50.637517
   24.118465   50.636578
   24.117396   50.634620
   24.114790   50.632821
   24.109264   50.630578
   24.103159   50.630089
   24.097490   50.631351
   24.094901   50.630774
   24.091487   50.630924
   24.087726   50.632176
   24.085589   50.632375
   24.083694   50.632945
   24.081724   50.634194
   24.080829   50.635393
   24.079795   50.639910
   24.076858   50.640757
   24.073870   50.642610
   24.072899   50.644811
   24.073537   50.647004
   24.076888   50.650574
   24.079582   50.652834
   24.078733   50.654173
   24.078533   50.655422
   24.079944   50.658481
   24.078719   50.659795
   24.078134   50.661180
   24.077858   50.664894
   24.078378   50.666556
   24.077965   50.667780
   24.076620   50.668615
   24.074989   50.669100
   24.071653   50.669287
   24.069185   50.669924
   24.067055   50.671126
   24.065408   50.672915
   24.062512   50.672768
   24.059155   50.673610
   24.056437   50.675271
   24.055123   50.677668
   24.056172   50.682186
   24.055722   50.684122
   24.056168   50.685730
   24.060581   50.691889
   24.062351   50.696549
   24.063987   50.698553
   24.062622   50.700814
   24.062832   50.702924
   24.060578   50.705072
   24.059946   50.707419
   24.060289   50.708757
   24.061245   50.709970
   24.064352   50.711606
   24.064555   50.713792
   24.062070   50.713931
   24.059042   50.714742
   24.054821   50.713418
   24.051364   50.713355
   24.049895   50.712134
   24.046791   50.710927
   24.044770   50.710651
   24.042707   50.710750
   24.038924   50.711965
   24.037574   50.712919
   24.036642   50.714217
   24.034402   50.714741
   24.027667   50.717510
   24.026101   50.717929
   24.023576   50.717317
   24.020242   50.717382
   24.017095   50.718443
   24.013470   50.718923
   24.011332   50.719960
   24.009958   50.721245
   24.009279   50.722876
   24.009691   50.724840
   24.010908   50.726334
   24.009142   50.728068
   24.008577   50.729929
   24.009440   50.732200
   24.011111   50.733709
   24.009521   50.735364
   24.008986   50.737123
   24.009267   50.738500
   24.011024   50.741300
   24.011212   50.743169
   24.009390   50.744404
   24.008292   50.746119
   24.008264   50.747963
   24.009041   50.749608
   24.006964   50.750434
   24.005567   50.751532
   24.004360   50.753030
   24.003991   50.754748
   24.005123   50.757024
   24.005400   50.759115
   24.006847   50.760741
   24.006783   50.762575
   24.007673   50.764166
   24.009888   50.765788
   24.012536   50.766563
   24.010558   50.767512
   24.005576   50.766571
   24.001054   50.765085
   23.998308   50.764698
   23.987659   50.765272
   23.985042   50.763935
   23.981354   50.763369
   23.976171   50.764084
   23.973830   50.764825
   23.970838   50.766852
   23.969816   50.768550
   23.969727   50.769994
   23.965432   50.770988
   23.962951   50.772379
   23.961273   50.774731
   23.959242   50.776497
   23.958542   50.777921
   23.957050   50.779191
   23.956112   50.781110
   23.956377   50.782872
   23.957377   50.784316
   23.959943   50.785861
   23.959917   50.786187
   23.955607   50.787821
   23.951950   50.791084
   23.950447   50.793291
   23.950420   50.795401
   23.951660   50.797524
   23.953396   50.798929
   23.956830   50.800748
   23.958146   50.802839
   23.958584   50.806419
   23.959643   50.808371
   23.959548   50.809886
   23.957569   50.811116
   23.956459   50.812706
   23.956373   50.814683
   23.957061   50.816332
   23.958191   50.817397
   23.960849   50.818850
   23.961346   50.820649
   23.963182   50.822478
   23.965469   50.823511
   23.967811   50.823954
   23.967881   50.825799
   23.969144   50.828159
   23.971445   50.830186
   23.974166   50.831242
   23.976041   50.834319
   23.979490   50.837454
   23.986273   50.841442
   23.990177   50.842062
   23.994624   50.843806
   24.005278   50.845595
   24.009235   50.845479
   24.011710   50.844850
   24.013393   50.843983
   24.016618   50.845617
   24.020106   50.846197
   24.024466   50.845558
   24.026813   50.846009
   24.029495   50.845958
   24.032819   50.845275
   24.035501   50.844029
   24.041226   50.844028
   24.047382   50.843127
   24.051436   50.841811
   24.053172   50.840736
   24.055684   50.840427
   24.057648   50.839819
   24.060162   50.839921
   24.062637   50.840591
   24.065346   50.840752
   24.067864   50.840341
   24.070812   50.839040
   24.072032   50.838855
   24.077676   50.840825
   24.079754   50.841177
   24.084470   50.840812
   24.087077   50.840139
   24.091735   50.840272
   24.094849   50.840855
   24.096370   50.841814
   24.098312   50.842453
   24.102644   50.842718
   24.105613   50.844336
   24.110205   50.845227
   24.111855   50.847307
   24.113949   50.848543
   24.115936   50.849072
   24.117921   50.849204
   24.119233   50.850396
   24.121547   50.851400
   24.126364   50.852131
   24.126997   50.853282
   24.129005   50.855282
   24.135745   50.859587
   24.136228   50.862182
   24.132403   50.862756
   24.130802   50.863297
   24.125531   50.863581
   24.122612   50.864291
   24.120156   50.865522
   24.115877   50.865392
   24.112500   50.866111
   24.109410   50.868187
   24.108689   50.869460
   24.108584   50.870668
   24.103810   50.871785
   24.099086   50.871937
   24.095366   50.873076
   24.092631   50.874946
   24.089239   50.879022
   24.085912   50.880709
   24.083699   50.882547
   24.081186   50.882623
   24.078206   50.883317
   24.076151   50.884412
   24.074471   50.885978
   24.071206   50.886636
   24.066178   50.886781
   24.061665   50.887762
   24.057959   50.886409
   24.054564   50.886155
   24.051911   50.886540
   24.047681   50.887980
   24.044782   50.890172
   24.043239   50.892447
   24.042771   50.894213
   24.043166   50.896292
   24.041990   50.897583
   24.038040   50.898643
   24.034209   50.900374
   24.029177   50.904527
   24.028020   50.906687
   24.022083   50.910357
   24.020324   50.911905
   24.016789   50.912465
   24.013104   50.914461
   24.006725   50.916193
   24.003491   50.918434
   24.001112   50.921839
   23.994468   50.923867
   23.991738   50.925494
   23.988787   50.929391
   23.988140   50.931991
   23.988248   50.933396
   23.987048   50.935993
   23.983477   50.941315
   23.979963   50.941937
   23.976261   50.941541
   23.972483   50.942215
   23.970293   50.943397
   23.968313   50.945730
   23.964426   50.947782
   23.962652   50.950402
   23.961044   50.955969
   23.961355   50.958948
   23.962719   50.960665
   23.960289   50.966968
   23.959966   50.977053
   23.958501   50.978146
   23.954107   50.983198
   23.950645   50.988367
   23.948402   50.990214
   23.944605   50.990757
   23.942355   50.991827
   23.936657   50.996505
   23.934282   50.999045
   23.931443   50.999531
   23.927782   51.001246
   23.925846   51.000921
   23.922542   51.000965
   23.914151   51.001838
   23.910402   51.003362
   23.908297   51.005590
   23.907861   51.007269
   23.908111   51.008521
   23.907427   51.010496
   23.908177   51.013325
   23.909474   51.014763
   23.911686   51.016137
   23.913512   51.016686
   23.915914   51.016896
   23.916619   51.019772
   23.914906   51.021401
   23.912291   51.022919
   23.911192   51.024665
   23.909651   51.025965
   23.908806   51.027757
   23.908906   51.029756
   23.910226   51.032258
   23.911692   51.033581
   23.914367   51.034866
   23.914065   51.035284
   23.912043   51.035899
   23.908551   51.037740
   23.906005   51.040826
   23.905976   51.043209
   23.907164   51.044968
   23.906596   51.046235
   23.906624   51.047518
   23.907819   51.049649
   23.907763   51.050481
   23.907060   51.052348
   23.907259   51.054897
   23.905888   51.057588
   23.906147   51.059677
   23.903455   51.061060
   23.901711   51.063433
   23.901886   51.067330
   23.903270   51.069492
   23.900636   51.069767
   23.897345   51.069605
   23.894576   51.070199
   23.892155   51.069970
   23.889474   51.070348
   23.886248   51.071931
   23.884677   51.074289
   23.882512   51.073329
   23.878144   51.072491
   23.873873   51.072735
   23.871390   51.073566
   23.869063   51.075622
   23.868552   51.076886
   23.868654   51.078242
   23.866182   51.080864
   23.865882   51.083081
   23.864763   51.084932
   23.864615   51.086981
   23.863492   51.089853
   23.861474   51.091123
   23.860457   51.092382
   23.858241   51.092815
   23.855246   51.094080
   23.851402   51.096862
   23.850164   51.098337
   23.849715   51.099591
   23.849945   51.101455
   23.850639   51.102664
   23.852312   51.104001
   23.850711   51.105945
   23.849909   51.111349
   23.848642   51.112660
   23.847886   51.114556
   23.846302   51.115539
   23.845085   51.116947
   23.844676   51.118171
   23.844929   51.120293
   23.843089   51.122008
   23.842477   51.124401
   23.843211   51.126007
   23.845197   51.128042
   23.846738   51.131840
   23.849120   51.133989
   23.852555   51.135189
   23.856807   51.135151
   23.858864   51.135631
   23.861523   51.135737
   23.862265   51.139130
   23.860773   51.141460
   23.861109   51.143538
   23.859071   51.145307
   23.858281   51.147832
   23.856370   51.149140
   23.854940   51.151095
   23.850700   51.150525
   23.847606   51.150938
   23.845766   51.151540
   23.842938   51.153754
   23.841905   51.155588
   23.839903   51.155053
   23.837844   51.154922
   23.835021   51.155291
   23.832646   51.156186
   23.830206   51.155600
   23.826526   51.155604
   23.824089   51.156260
   23.821938   51.157468
   23.819917   51.158136
   23.817403   51.159764
   23.815799   51.161359
   23.814553   51.163735
   23.814400   51.165286
   23.810284   51.166798
   23.808492   51.167990
   23.807064   51.169520
   23.804954   51.175054
   23.805148   51.176654
   23.806018   51.178166
   23.804056   51.180651
   23.802249   51.180566
   23.799199   51.180941
   23.795936   51.182004
   23.793511   51.183597
   23.784870   51.184733
   23.780975   51.185861
   23.779284   51.186798
   23.776142   51.189427
   23.775056   51.191406
   23.775179   51.193050
   23.773299   51.195605
   23.772105   51.195749
   23.769206   51.195364
   23.765958   51.195744
   23.763643   51.196666
   23.762032   51.197939
   23.758738   51.198398
   23.755928   51.199369
   23.753706   51.201401
   23.752365   51.205307
   23.750757   51.206316
   23.743134   51.207330
   23.740634   51.207053
   23.737356   51.207417
   23.735404   51.208033
   23.733502   51.209214
   23.731859   51.211335
   23.731873   51.213717
   23.729176   51.217524
   23.728707   51.219109
   23.729074   51.220939
   23.730059   51.222294
   23.731430   51.223428
   23.733822   51.224468
   23.732391   51.226009
   23.732023   51.228253
   23.729150   51.229199
   23.726553   51.231072
   23.723050   51.232169
   23.720624   51.233894
   23.719731   51.235015
   23.719083   51.237485
   23.719529   51.239712
   23.718897   51.241267
   23.719003   51.243376
   23.717667   51.244603
   23.716996   51.246303
   23.718138   51.250864
   23.717353   51.254857
   23.716027   51.257424
   23.716193   51.259234
   23.715838   51.259715
   23.713222   51.260528
   23.711344   51.261786
   23.710351   51.263397
   23.710386   51.265304
   23.707247   51.267195
   23.706187   51.269209
   23.704503   51.270118
   23.701386   51.271059
   23.699365   51.272433
   23.698091   51.274596
   23.698459   51.277186
   23.696751   51.277685
   23.692431   51.279881
   23.690240   51.281979
   23.687393   51.281884
   23.684841   51.282361
   23.678372   51.285919
   23.675577   51.286020
   23.671504   51.285480
   23.669440   51.285486
   23.667516   51.285717
   23.664858   51.286529
   23.664022   51.285258
   23.661644   51.283537
   23.659210   51.282796
   23.656022   51.282521
   23.652456   51.283183
   23.649575   51.282697
   23.646934   51.282865
   23.643999   51.283859
   23.641874   51.285568
   23.641218   51.288347
   23.639661   51.289660
   23.638821   51.291413
   23.638955   51.293570
   23.640515   51.295721
   23.639713   51.297912
   23.640398   51.300207
   23.637694   51.301565
   23.634426   51.304905
   23.632365   51.309797
   23.632561   51.311584
   23.633498   51.313154
   23.632820   51.314464
   23.629833   51.316502
   23.628486   51.318682
   23.628639   51.320503
   23.629832   51.322404
   23.630344   51.324288
   23.629290   51.325257
   23.628446   51.326990
   23.628890   51.329776
   23.630041   51.331534
   23.631573   51.332895
   23.635016   51.335311
   23.639777   51.337749
   23.640131   51.340682
   23.642631   51.343109
   23.643242   51.345779
   23.644787   51.347336
   23.646833   51.348332
   23.647108   51.348757
   23.646928   51.350179
   23.647982   51.354002
   23.649329   51.355953
   23.649331   51.359553
   23.650835   51.361696
   23.654108   51.363548
   23.655800   51.365374
   23.657842   51.366350
   23.659078   51.369049
   23.662246   51.371258
   23.664183   51.371970
   23.666374   51.372270
   23.668977   51.372295
   23.672411   51.371719
   23.674151   51.372677
   23.671598   51.374939
   23.670809   51.376661
   23.671129   51.378778
   23.672887   51.380948
   23.671643   51.382794
   23.671613   51.384857
   23.672208   51.386134
   23.673960   51.387763
   23.671671   51.389247
   23.670239   51.391069
   23.669703   51.393082
   23.670049   51.395382
   23.671656   51.397321
   23.674925   51.399125
   23.676057   51.400725
   23.678022   51.402067
   23.683972   51.404048
   23.689506   51.404316
   23.689996   51.404808
   23.689223   51.407294
   23.689454   51.409152
   23.687939   51.410094
   23.686385   51.411706
   23.685664   51.415033
   23.683575   51.415971
   23.681644   51.417623
   23.680624   51.420323
   23.678837   51.423360
   23.676536   51.423665
   23.674224   51.424581
   23.671712   51.426390
   23.670356   51.427959
   23.669587   51.430567
   23.670358   51.433516
   23.671712   51.435461
   23.673815   51.436854
   23.669842   51.438074
   23.666346   51.440477
   23.663293   51.439728
   23.660058   51.439577
   23.653690   51.441007
   23.649951   51.441074
   23.647315   51.441644
   23.645389   51.442364
   23.643827   51.443448
   23.642274   51.445719
   23.642410   51.448707
   23.641559   51.451120
   23.642296   51.453067
   23.640212   51.455028
   23.639120   51.457489
   23.639280   51.459160
   23.640173   51.460964
   23.641718   51.462352
   23.645081   51.463825
   23.647848   51.464145
   23.650865   51.463851
   23.652316   51.464767
   23.653091   51.466276
   23.654453   51.467585
   23.658502   51.469458
   23.658826   51.471173
   23.659825   51.472681
   23.662194   51.474326
   23.664070   51.475149
   23.663807   51.476735
   23.664366   51.478838
   23.663862   51.480096
   23.660753   51.481051
   23.657596   51.483015
   23.655005   51.481930
   23.652746   51.481395
   23.648135   51.481297
   23.644030   51.480391
   23.641194   51.480438
   23.636125   51.481267
   23.634234   51.481837
   23.632527   51.482667
   23.630699   51.484248
   23.629381   51.486704
   23.625496   51.487984
   23.622376   51.490858
   23.618834   51.491529
   23.615663   51.492829
   23.614292   51.493743
   23.612605   51.495936
   23.612331   51.497302
   23.612683   51.498886
   23.610261   51.500832
   23.609399   51.502360
   23.609247   51.504668
   23.611294   51.510030
   23.612424   51.511148
   23.614019   51.512011
   23.617326   51.512694
   23.619421   51.512593
   23.621380   51.512113
   23.627443   51.508639
   23.629458   51.508898
   23.631752   51.508759
   23.635530   51.509995
   23.637464   51.510310
   23.640728   51.510063
   23.647273   51.510942
   23.650026   51.510809
   23.653333   51.509621
   23.655442   51.509337
   23.657422   51.508644
   23.659750   51.507365
   23.662375   51.505034
   23.666787   51.504120
   23.669085   51.506791
   23.667330   51.509646
   23.664737   51.517402
   23.660751   51.521646
   23.650355   51.529776
   23.648804   51.533205
   23.630540   51.546179
   23.629188   51.548315
   23.629038   51.553172
   23.629631   51.554609
   23.633080   51.559264
   23.634585   51.560239
   23.637536   51.561231
   23.640094   51.563436
   23.640685   51.567150
   23.641669   51.568748
   23.643524   51.570001
   23.646160   51.570750
   23.648683   51.572382
   23.650661   51.572898
   23.653540   51.572995
   23.655895   51.574381
   23.657192   51.577112
   23.654654   51.581892
   23.653006   51.583225
   23.647871   51.584516
   23.641182   51.587443
   23.637958   51.588506
   23.635636   51.587746
   23.632895   51.587555
   23.628855   51.587858
   23.625832   51.588971
   23.624005   51.590856
   23.623741   51.592835
   23.619231   51.597790
   23.618479   51.602232
   23.618705   51.603808
   23.615879   51.604971
   23.610263   51.608765
   23.609040   51.610191
   23.600035   51.613790
   23.598574   51.615370
   23.598224   51.617186
END
END
