zakarpattia
1
   22.130419   48.417929
   22.131180   48.425626
   22.132818   48.428519
   22.131537   48.430557
   22.130927   48.432796
   22.133851   48.448242
   22.147647   48.509435
   22.146535   48.511890
   22.146488   48.513588
   22.147382   48.515179
   22.149145   48.516786
   22.151542   48.527478
   22.154269   48.567892
   22.165203   48.589384
   22.178261   48.604967
   22.179591   48.605918
   22.181842   48.606711
   22.181371   48.608381
   22.181831   48.610518
   22.182702   48.611801
   22.184723   48.613354
   22.186409   48.614035
   22.189651   48.614553
   22.195763   48.613751
   22.198695   48.614987
   22.203772   48.620667
   22.211994   48.625057
   22.215581   48.625796
   22.225973   48.625288
   22.235107   48.630572
   22.242900   48.640573
   22.242919   48.645671
   22.243657   48.648277
   22.244349   48.649558
   22.246092   48.650944
   22.247861   48.651620
   22.252403   48.652474
   22.258268   48.655397
   22.259362   48.657392
   22.261238   48.658641
   22.263611   48.659362
   22.266670   48.659543
   22.277889   48.665041
   22.282335   48.668027
   22.283207   48.670219
   22.285675   48.672272
   22.287573   48.673297
   22.291888   48.674458
   22.295778   48.676297
   22.296665   48.678612
   22.299017   48.680235
   22.300900   48.680763
   22.303639   48.681054
   22.306763   48.682911
   22.312031   48.683684
   22.314942   48.685428
   22.319097   48.686499
   22.325014   48.687503
   22.330432   48.687145
   22.334352   48.688145
   22.338937   48.699217
   22.338998   48.706964
   22.345809   48.717164
   22.344060   48.719424
   22.344194   48.721580
   22.345379   48.723121
   22.351661   48.728447
   22.354652   48.729891
   22.354963   48.730649
   22.354784   48.732309
   22.353747   48.734851
   22.353691   48.738504
   22.349468   48.739815
   22.348182   48.740819
   22.346220   48.743776
   22.345062   48.744862
   22.342752   48.745167
   22.339170   48.746301
   22.337789   48.747281
   22.336245   48.749256
   22.336096   48.751757
   22.338926   48.758070
   22.339431   48.763716
   22.338937   48.765971
   22.339150   48.767287
   22.343458   48.772405
   22.344357   48.773948
   22.345637   48.775004
   22.349358   48.776515
   22.353515   48.777005
   22.356689   48.780782
   22.359366   48.782689
   22.362963   48.784429
   22.367662   48.785678
   22.368277   48.787121
   22.369400   48.788405
   22.369827   48.791771
   22.371967   48.794026
   22.373025   48.796677
   22.375886   48.799569
   22.379991   48.801413
   22.378240   48.806408
   22.378884   48.810971
   22.377220   48.822322
   22.375958   48.823332
   22.373039   48.827276
   22.369505   48.832576
   22.369149   48.833942
   22.369116   48.836021
   22.369744   48.837930
   22.370624   48.839067
   22.372500   48.840376
   22.375154   48.855522
   22.374518   48.857795
   22.374553   48.860508
   22.376333   48.863514
   22.377158   48.866549
   22.381603   48.872613
   22.383548   48.873654
   22.386738   48.874569
   22.387687   48.875233
   22.388138   48.878649
   22.389038   48.879827
   22.390410   48.880781
   22.414567   48.887154
   22.415673   48.900002
   22.414129   48.902521
   22.414067   48.904230
   22.414959   48.905833
   22.417007   48.907250
   22.416946   48.908822
   22.417999   48.910641
   22.417830   48.912111
   22.418566   48.914319
   22.420482   48.916858
   22.423859   48.919554
   22.420537   48.921994
   22.418951   48.924580
   22.418175   48.928981
   22.418459   48.930669
   22.419655   48.932169
   22.421677   48.933299
   22.422628   48.934214
   22.460827   48.975668
   22.462188   48.976572
   22.465904   48.978106
   22.468958   48.978800
   22.469061   48.980308
   22.470469   48.984338
   22.470571   48.991593
   22.471023   48.992855
   22.471993   48.993980
   22.475099   48.996159
   22.477261   48.997059
   22.485124   48.997681
   22.486708   48.998051
   22.490449   49.001735
   22.494374   49.003156
   22.499691   49.004008
   22.506069   49.004422
   22.508129   49.004073
   22.516347   49.001194
   22.518070   49.001224
   22.522421   49.004367
   22.527886   49.006857
   22.537207   49.008947
   22.532519   49.016878
   22.531258   49.021774
   22.532007   49.023433
   22.533634   49.024782
   22.540345   49.026939
   22.542351   49.028092
   22.544319   49.030918
   22.544551   49.063234
   22.544949   49.068700
   22.546761   49.080792
   22.548045   49.082383
   22.550160   49.083511
   22.552090   49.083941
   22.554193   49.083959
   22.558788   49.085000
   22.558922   49.088390
   22.560125   49.090548
   22.562952   49.092134
   22.565657   49.094478
   22.569289   49.095665
   22.572959   49.097601
   22.574996   49.099559
   22.580348   49.101617
   22.582397   49.101847
   22.585889   49.101736
   22.588753   49.101121
   22.593537   49.099404
   22.597618   49.098877
   22.603922   49.097091
   22.605232   49.096206
   22.607165   49.094097
   22.609994   49.088657
   22.613874   49.088644
   22.615863   49.088305
   22.617608   49.087582
   22.620649   49.085517
   22.627330   49.084707
   22.630224   49.083667
   22.633334   49.081366
   22.634468   49.079852
   22.637254   49.077721
   22.639126   49.073838
   22.639136   49.072032
   22.640314   49.070387
   22.640715   49.069108
   22.642479   49.067008
   22.644498   49.063098
   22.646589   49.062291
   22.649031   49.061810
   22.650696   49.061015
   22.652224   49.059510
   22.653419   49.057031
   22.655834   49.055447
   22.657272   49.053986
   22.660694   49.052301
   22.662877   49.052560
   22.669846   49.052138
   22.671845   49.051799
   22.673598   49.051073
   22.675740   49.049287
   22.676388   49.046949
   22.677418   49.045816
   22.683028   49.044441
   22.685447   49.046261
   22.689603   49.048636
   22.693002   49.052158
   22.695567   49.053554
   22.697854   49.054145
   22.712251   49.055796
   22.714929   49.056854
   22.717423   49.057291
   22.719981   49.057072
   22.727404   49.055266
   22.728967   49.054519
   22.730698   49.053030
   22.734660   49.053527
   22.737183   49.053391
   22.741850   49.052207
   22.745896   49.050239
   22.750964   49.049518
   22.753065   49.048705
   22.753944   49.049420
   22.755440   49.053711
   22.757332   49.055525
   22.761689   49.057476
   22.764877   49.058034
   22.767392   49.057871
   22.771117   49.056689
   22.773632   49.056497
   22.776019   49.055878
   22.781580   49.053298
   22.790026   49.050192
   22.791475   49.049303
   22.792676   49.047971
   22.796221   49.046017
   22.800025   49.042526
   22.803175   49.040818
   22.811810   49.038897
   22.814081   49.037977
   22.815897   49.036130
   22.816403   49.032470
   22.817668   49.030988
   22.818436   49.029288
   22.821635   49.028957
   22.823638   49.028264
   22.825930   49.029135
   22.833481   49.030596
   22.836043   49.030332
   22.838268   49.029443
   22.839830   49.028060
   22.841283   49.025382
   22.843739   49.024094
   22.845850   49.021510
   22.848835   49.015393
   22.850916   49.012754
   22.851624   49.009395
   22.851258   49.007629
   22.853522   49.007619
   22.859316   49.006665
   22.862798   49.007254
   22.868797   49.007345
   22.878941   49.005086
   22.882085   49.005304
   22.891349   49.008424
   22.895773   49.009534
   22.899390   49.009477
   22.902467   49.008456
   22.904133   49.006985
   22.906288   49.003550
   22.910341   48.999892
   22.911447   48.998400
   22.917856   48.993536
   22.919634   48.991808
   22.920989   48.989486
   22.921457   48.986789
   22.925021   48.983360
   22.925494   48.982029
   22.925455   48.980288
   22.923466   48.976384
   22.925685   48.971336
   22.925705   48.969456
   22.924517   48.967453
   22.921970   48.965561
   22.920656   48.964087
   22.915204   48.961584
   22.912506   48.961057
   22.910332   48.961096
   22.907277   48.961690
   22.903708   48.961889
   22.900681   48.963104
   22.897414   48.961355
   22.893076   48.960295
   22.891066   48.959424
   22.887992   48.957439
   22.883307   48.956321
   22.879661   48.954501
   22.880493   48.952805
   22.881038   48.947742
   22.880227   48.945450
   22.879193   48.944019
   22.879661   48.942518
   22.880952   48.941511
   22.882556   48.939361
   22.884255   48.934316
   22.888372   48.930493
   22.891049   48.928980
   22.892471   48.927571
   22.892989   48.925347
   22.896040   48.919557
   22.896971   48.915162
   22.897967   48.912624
   22.900002   48.910626
   22.903209   48.908869
   22.904882   48.906842
   22.906887   48.905463
   22.908911   48.904968
   22.913384   48.903014
   22.918393   48.899932
   22.923655   48.898283
   22.926485   48.896331
   22.932498   48.893541
   22.934973   48.891080
   22.939207   48.889593
   22.942722   48.889756
   22.949973   48.887827
   22.952876   48.886000
   22.953963   48.884186
   22.959066   48.882091
   22.964511   48.881606
   22.966282   48.881190
   22.972235   48.879007
   22.975399   48.877327
   22.976955   48.875509
   22.977439   48.874061
   22.977276   48.872498
   22.976576   48.871135
   22.977838   48.868476
   22.977382   48.864551
   22.977552   48.862306
   22.979010   48.859379
   22.978645   48.854317
   22.979302   48.852373
   22.979083   48.850190
   22.981150   48.847016
   22.982446   48.846214
   22.985971   48.842921
   22.987934   48.842019
   22.989957   48.840361
   22.994137   48.839368
   22.998534   48.836967
   23.001307   48.838355
   23.004433   48.838687
   23.004666   48.840319
   23.006665   48.843816
   23.012583   48.848790
   23.015903   48.850956
   23.018347   48.851987
   23.020267   48.852322
   23.022248   48.852270
   23.027295   48.851076
   23.030122   48.852330
   23.037111   48.854701
   23.044515   48.855780
   23.050735   48.855343
   23.054550   48.854330
   23.056469   48.853372
   23.059343   48.855645
   23.061790   48.857020
   23.067504   48.859087
   23.070900   48.859274
   23.073460   48.858957
   23.075568   48.858298
   23.079293   48.858910
   23.079929   48.861261
   23.081866   48.863253
   23.083380   48.864295
   23.086457   48.865502
   23.095828   48.867313
   23.100606   48.867138
   23.104970   48.865428
   23.108542   48.862190
   23.113194   48.862003
   23.117000   48.861429
   23.118779   48.860743
   23.120499   48.859360
   23.124836   48.858582
   23.127249   48.857304
   23.130095   48.858032
   23.133368   48.857790
   23.135619   48.856862
   23.138026   48.854825
   23.138925   48.853682
   23.140010   48.850869
   23.142621   48.847502
   23.143035   48.846219
   23.142038   48.842816
   23.138405   48.839666
   23.139319   48.838262
   23.147203   48.837717
   23.151346   48.836394
   23.154054   48.836002
   23.156242   48.835002
   23.159158   48.832862
   23.160092   48.831288
   23.164413   48.828406
   23.168511   48.824032
   23.170141   48.821474
   23.173894   48.819041
   23.176133   48.815716
   23.176735   48.813404
   23.176702   48.811724
   23.180966   48.810257
   23.183504   48.808361
   23.184353   48.806574
   23.184369   48.804192
   23.185736   48.800969
   23.185404   48.798627
   23.185610   48.793625
   23.187044   48.792569
   23.189911   48.789206
   23.193572   48.786341
   23.195475   48.784105
   23.196505   48.781571
   23.199229   48.777654
   23.199610   48.775621
   23.199298   48.774166
   23.201297   48.771135
   23.204116   48.767946
   23.205146   48.765021
   23.210389   48.765637
   23.214578   48.765190
   23.222158   48.767699
   23.224111   48.767986
   23.226104   48.767879
   23.229087   48.767206
   23.234179   48.764983
   23.240593   48.763371
   23.242826   48.764073
   23.245121   48.764359
   23.247798   48.766124
   23.251515   48.767172
   23.253613   48.767221
   23.257476   48.766627
   23.260311   48.765460
   23.264003   48.766049
   23.268723   48.769726
   23.270476   48.770283
   23.273077   48.770489
   23.274349   48.776149
   23.276624   48.778613
   23.280265   48.779946
   23.286398   48.780391
   23.289385   48.779749
   23.295020   48.776947
   23.300772   48.771185
   23.305999   48.769256
   23.310676   48.765651
   23.313509   48.765101
   23.317289   48.763364
   23.321181   48.760391
   23.323137   48.757797
   23.324214   48.757853
   23.336021   48.760400
   23.337049   48.761735
   23.339076   48.763141
   23.348469   48.766796
   23.349661   48.769143
   23.352269   48.771673
   23.354646   48.773304
   23.358816   48.774949
   23.361953   48.775148
   23.364001   48.774945
   23.365862   48.774337
   23.369075   48.772502
   23.374559   48.768272
   23.380324   48.761180
   23.381436   48.758243
   23.382674   48.752872
   23.382319   48.748747
   23.383517   48.746465
   23.387327   48.746183
   23.395007   48.743362
   23.397164   48.741740
   23.399916   48.737590
   23.401502   48.737816
   23.406537   48.739715
   23.409509   48.740196
   23.411533   48.740102
   23.413995   48.739365
   23.419553   48.736036
   23.421812   48.735514
   23.424136   48.734338
   23.426940   48.734070
   23.429285   48.733376
   23.433038   48.730747
   23.435242   48.730600
   23.437025   48.730129
   23.448735   48.730415
   23.452104   48.730084
   23.455563   48.730303
   23.457497   48.729880
   23.460097   48.728722
   23.469342   48.727957
   23.472290   48.726553
   23.473891   48.724858
   23.477786   48.725927
   23.482687   48.725897
   23.485239   48.726671
   23.488200   48.726995
   23.491716   48.729735
   23.495106   48.730987
   23.498581   48.733925
   23.504920   48.737329
   23.509904   48.739053
   23.513245   48.739150
   23.516437   48.738475
   23.518658   48.737648
   23.520859   48.736047
   23.522043   48.734295
   23.525800   48.733258
   23.528910   48.731308
   23.535476   48.729725
   23.540708   48.728634
   23.542704   48.729265
   23.547213   48.729913
   23.550094   48.729729
   23.553307   48.728745
   23.558820   48.729666
   23.565229   48.728926
   23.571461   48.729209
   23.579340   48.727032
   23.587603   48.723105
   23.590587   48.723061
   23.594874   48.722034
   23.597345   48.720831
   23.599605   48.718512
   23.600572   48.715416
   23.600516   48.713993
   23.602898   48.711766
   23.603471   48.710027
   23.605874   48.710518
   23.608114   48.710535
   23.612367   48.709566
   23.615173   48.710660
   23.617763   48.710968
   23.621561   48.710422
   23.623795   48.710988
   23.625895   48.711069
   23.629160   48.710518
   23.634916   48.707608
   23.643097   48.701980
   23.644121   48.700916
   23.644821   48.699691
   23.644994   48.698365
   23.643763   48.695022
   23.645678   48.692771
   23.646485   48.690503
   23.646210   48.688124
   23.645559   48.686907
   23.647930   48.686040
   23.650466   48.684098
   23.655034   48.682523
   23.658930   48.680025
   23.661287   48.677482
   23.664281   48.676820
   23.665906   48.676037
   23.667805   48.674213
   23.669078   48.671499
   23.671002   48.671547
   23.672921   48.671214
   23.678764   48.668567
   23.681210   48.666281
   23.682538   48.662395
   23.685962   48.660041
   23.688117   48.657525
   23.689269   48.655323
   23.689438   48.653775
   23.690092   48.652497
   23.692218   48.650415
   23.701918   48.647329
   23.709011   48.642989
   23.714947   48.642554
   23.719176   48.643100
   23.722629   48.642648
   23.730333   48.642632
   23.732075   48.644218
   23.735081   48.645873
   23.736093   48.648111
   23.737696   48.649418
   23.739906   48.650240
   23.744673   48.651114
   23.747216   48.651024
   23.749683   48.650422
   23.753052   48.650086
   23.756707   48.648921
   23.764280   48.650388
   23.766890   48.650348
   23.769769   48.649483
   23.773544   48.646783
   23.777042   48.647952
   23.780378   48.647992
   23.783557   48.647022
   23.786159   48.645486
   23.789497   48.645256
   23.792739   48.644405
   23.799189   48.639391
   23.801254   48.636393
   23.803461   48.634732
   23.804200   48.632979
   23.803972   48.629886
   23.802195   48.627719
   23.802547   48.625950
   23.801699   48.623601
   23.803138   48.621382
   23.802982   48.619200
   23.800593   48.616713
   23.800717   48.614459
   23.799429   48.612478
   23.797177   48.611070
   23.793472   48.610244
   23.794045   48.607477
   23.795906   48.605700
   23.800563   48.604210
   23.802708   48.602527
   23.803439   48.600619
   23.803045   48.598803
   23.801716   48.596464
   23.798380   48.593672
   23.800468   48.592022
   23.803084   48.591277
   23.807196   48.588542
   23.808648   48.587015
   23.809161   48.585499
   23.812419   48.584885
   23.818399   48.582422
   23.819875   48.583277
   23.821612   48.583806
   23.824421   48.584091
   23.826500   48.583847
   23.830373   48.582145
   23.836009   48.580264
   23.838754   48.578481
   23.841283   48.574964
   23.841851   48.572443
   23.840729   48.569473
   23.845081   48.567250
   23.850112   48.562967
   23.853312   48.561982
   23.855948   48.560726
   23.862345   48.558780
   23.864849   48.560111
   23.867044   48.560775
   23.869107   48.561027
   23.872002   48.560787
   23.881551   48.558499
   23.886192   48.559288
   23.890033   48.559036
   23.892681   48.560808
   23.898710   48.563497
   23.902993   48.566716
   23.904775   48.567289
   23.907390   48.567476
   23.909914   48.566981
   23.911966   48.565881
   23.913509   48.563763
   23.916706   48.561141
   23.918419   48.558567
   23.928495   48.557333
   23.932718   48.556043
   23.934870   48.554450
   23.935536   48.553234
   23.935577   48.551511
   23.933094   48.545548
   23.931215   48.543762
   23.925592   48.540914
   23.924749   48.538466
   23.924814   48.536060
   23.922997   48.533615
   23.925399   48.531756
   23.926618   48.529818
   23.926760   48.528484
   23.926017   48.526450
   23.927641   48.524695
   23.928343   48.523098
   23.927630   48.520320
   23.930547   48.517107
   23.931517   48.513495
   23.931467   48.512257
   23.930551   48.510407
   23.929500   48.509342
   23.923869   48.506237
   23.924917   48.504266
   23.924474   48.499488
   23.926031   48.494044
   23.925550   48.491832
   23.924601   48.490594
   23.921645   48.488126
   23.921600   48.486289
   23.920499   48.484649
   23.918530   48.483426
   23.915130   48.482306
   23.915119   48.481516
   23.916474   48.478693
   23.916653   48.477078
   23.917933   48.475305
   23.919273   48.474106
   23.924056   48.472339
   23.927982   48.469444
   23.933821   48.468885
   23.938945   48.468012
   23.942130   48.466994
   23.945061   48.467235
   23.947171   48.467053
   23.951378   48.465621
   23.953811   48.464131
   23.959880   48.463588
   23.963064   48.462637
   23.968057   48.465612
   23.972908   48.467372
   23.970508   48.469193
   23.967398   48.473474
   23.966471   48.476388
   23.967169   48.478935
   23.970595   48.481856
   23.975751   48.483700
   23.977009   48.486254
   23.981760   48.491450
   23.982030   48.492574
   23.983027   48.493927
   23.983049   48.495594
   23.983818   48.497518
   23.985229   48.499212
   23.986754   48.500345
   23.987062   48.502271
   23.988263   48.504055
   23.990090   48.505522
   23.994755   48.507704
   23.997802   48.509633
   24.000890   48.510577
   24.002873   48.510739
   24.006747   48.510037
   24.009379   48.508448
   24.015297   48.509554
   24.024731   48.509201
   24.027805   48.508341
   24.029216   48.507382
   24.030181   48.506096
   24.030836   48.505914
   24.033535   48.507308
   24.035600   48.509722
   24.036908   48.511979
   24.039488   48.513399
   24.041936   48.515503
   24.043513   48.516211
   24.045953   48.516650
   24.047901   48.516559
   24.052399   48.518198
   24.057413   48.518751
   24.058947   48.519825
   24.062480   48.521279
   24.065712   48.522050
   24.069471   48.521825
   24.075009   48.519902
   24.081337   48.522137
   24.081427   48.525268
   24.082182   48.528593
   24.083522   48.530147
   24.085660   48.531230
   24.087587   48.531628
   24.090267   48.531539
   24.094113   48.530859
   24.097426   48.529528
   24.100282   48.531451
   24.101168   48.532897
   24.105407   48.536673
   24.107486   48.537666
   24.112151   48.538956
   24.114523   48.539170
   24.117685   48.538616
   24.124643   48.538655
   24.126621   48.538362
   24.128380   48.537690
   24.131936   48.534838
   24.135525   48.533761
   24.137688   48.532113
   24.138415   48.530421
   24.138231   48.528547
   24.139605   48.526091
   24.139610   48.523590
   24.134771   48.515541
   24.132299   48.512934
   24.129377   48.511071
   24.128338   48.505758
   24.126499   48.503108
   24.124934   48.499747
   24.122858   48.497976
   24.129894   48.495162
   24.133461   48.491727
   24.140462   48.487759
   24.145488   48.483598
   24.146617   48.481991
   24.146733   48.480217
   24.145413   48.477868
   24.143599   48.476010
   24.140470   48.474019
   24.136746   48.470913
   24.136303   48.469743
   24.134949   48.468191
   24.132376   48.466646
   24.133141   48.462213
   24.134743   48.460918
   24.135457   48.459657
   24.135330   48.457419
   24.136378   48.455151
   24.135617   48.452909
   24.136959   48.451260
   24.138442   48.446673
   24.138190   48.444960
   24.137194   48.443615
   24.137216   48.442228
   24.138466   48.441441
   24.142847   48.440657
   24.145386   48.439889
   24.149782   48.437990
   24.151449   48.436605
   24.152533   48.434245
   24.152429   48.431616
   24.151258   48.429195
   24.150779   48.425901
   24.151107   48.423953
   24.150662   48.422729
   24.152214   48.420674
   24.152519   48.418947
   24.151507   48.416890
   24.149569   48.415544
   24.148337   48.410556
   24.153177   48.407836
   24.157738   48.404359
   24.158688   48.403081
   24.159282   48.401557
   24.159230   48.399390
   24.158300   48.397456
   24.156443   48.395311
   24.157444   48.393884
   24.158235   48.391421
   24.160882   48.389468
   24.165185   48.388681
   24.167678   48.387776
   24.169883   48.386564
   24.171097   48.385451
   24.174737   48.380025
   24.177138   48.379733
   24.180864   48.379762
   24.184300   48.379066
   24.186542   48.378050
   24.187730   48.376944
   24.188453   48.375200
   24.187687   48.370667
   24.191113   48.370996
   24.194135   48.370868
   24.195966   48.370394
   24.199890   48.368579
   24.202144   48.368033
   24.208267   48.369601
   24.211628   48.369400
   24.215125   48.368069
   24.222266   48.362975
   24.224779   48.361737
   24.227331   48.361081
   24.230018   48.361333
   24.239826   48.363292
   24.250114   48.361370
   24.251992   48.360749
   24.253497   48.359774
   24.256556   48.355962
   24.258465   48.357388
   24.261043   48.358211
   24.260522   48.359990
   24.260845   48.361678
   24.263800   48.365356
   24.266129   48.366779
   24.265653   48.368487
   24.265975   48.369818
   24.267970   48.372083
   24.268962   48.373874
   24.271243   48.375468
   24.275415   48.376884
   24.276692   48.380054
   24.278504   48.381628
   24.280228   48.382520
   24.276176   48.386873
   24.274544   48.390803
   24.274539   48.392606
   24.275828   48.394607
   24.278226   48.396644
   24.278933   48.397910
   24.281464   48.400380
   24.284729   48.402147
   24.289228   48.402932
   24.294847   48.402417
   24.297972   48.402515
   24.307059   48.400890
   24.314159   48.398122
   24.315969   48.397939
   24.319596   48.396911
   24.321875   48.395403
   24.323258   48.393503
   24.327042   48.393288
   24.330955   48.393766
   24.333574   48.393328
   24.337838   48.391594
   24.339614   48.390464
   24.341930   48.390154
   24.343601   48.389582
   24.348059   48.387274
   24.349530   48.386168
   24.352407   48.385665
   24.355266   48.384360
   24.361722   48.379247
   24.363122   48.377588
   24.365000   48.374009
   24.365040   48.372724
   24.364538   48.371483
   24.360297   48.367871
   24.358867   48.365347
   24.359050   48.363088
   24.357886   48.360900
   24.360483   48.358145
   24.361442   48.356119
   24.365292   48.354116
   24.367534   48.354037
   24.371131   48.354504
   24.374112   48.354272
   24.376304   48.353464
   24.378765   48.351853
   24.382535   48.350037
   24.385177   48.350054
   24.387748   48.349439
   24.389746   48.348194
   24.391417   48.346150
   24.393628   48.345462
   24.395446   48.344318
   24.397957   48.341195
   24.398633   48.339395
   24.401350   48.340001
   24.403942   48.339893
   24.407694   48.338493
   24.409481   48.336759
   24.411310   48.336531
   24.416285   48.336829
   24.419397   48.336211
   24.421052   48.335567
   24.423604   48.333478
   24.424701   48.331815
   24.424567   48.329554
   24.423044   48.327685
   24.426475   48.326810
   24.428491   48.325742
   24.429528   48.324651
   24.430116   48.323342
   24.432359   48.322398
   24.433760   48.321340
   24.435159   48.318933
   24.438979   48.319426
   24.442050   48.319037
   24.443936   48.318386
   24.446548   48.316601
   24.448367   48.312811
   24.448176   48.311509
   24.446940   48.309480
   24.451560   48.304932
   24.454470   48.303429
   24.459068   48.302726
   24.463556   48.301056
   24.465252   48.300027
   24.466671   48.298549
   24.467231   48.297272
   24.467123   48.295659
   24.468489   48.294958
   24.471864   48.294302
   24.473440   48.293520
   24.476596   48.289917
   24.479522   48.288144
   24.483139   48.288128
   24.486813   48.287060
   24.488484   48.286211
   24.490979   48.283960
   24.493776   48.282392
   24.494730   48.281018
   24.495361   48.278287
   24.496639   48.275914
   24.497092   48.271876
   24.496359   48.270175
   24.494553   48.268524
   24.495428   48.262261
   24.493871   48.258399
   24.494570   48.256820
   24.494478   48.254521
   24.493287   48.251028
   24.491261   48.249260
   24.490642   48.247698
   24.502289   48.246067
   24.506618   48.244805
   24.508835   48.243799
   24.513255   48.243065
   24.524125   48.240388
   24.532362   48.235857
   24.536772   48.232284
   24.541061   48.230202
   24.543162   48.228799
   24.544439   48.227458
   24.551919   48.217590
   24.552328   48.215815
   24.551933   48.214490
   24.549822   48.212439
   24.546856   48.211021
   24.540725   48.209414
   24.536114   48.209047
   24.535042   48.208667
   24.531357   48.201219
   24.529940   48.199625
   24.531169   48.198454
   24.532208   48.196441
   24.532246   48.195126
   24.531604   48.193629
   24.530616   48.192560
   24.528399   48.191230
   24.526866   48.189339
   24.522648   48.185805
   24.520062   48.184326
   24.524252   48.179765
   24.524371   48.176976
   24.525374   48.174901
   24.525090   48.173191
   24.523457   48.170591
   24.521837   48.169261
   24.518971   48.168317
   24.515990   48.168248
   24.512032   48.165775
   24.510082   48.162241
   24.507644   48.159932
   24.509458   48.155734
   24.516929   48.153129
   24.523828   48.149037
   24.527266   48.147970
   24.529125   48.146705
   24.529959   48.145493
   24.530120   48.143326
   24.531232   48.140978
   24.536179   48.138520
   24.537913   48.136631
   24.538392   48.132381
   24.539587   48.130713
   24.540006   48.129379
   24.539367   48.126454
   24.542657   48.125101
   24.545835   48.124247
   24.551672   48.123787
   24.554801   48.122468
   24.556838   48.122172
   24.558621   48.121487
   24.560367   48.120081
   24.565003   48.114086
   24.565598   48.110738
   24.565166   48.109233
   24.571231   48.108580
   24.580428   48.105541
   24.582285   48.104227
   24.583415   48.102129
   24.586313   48.100426
   24.588814   48.097469
   24.590181   48.096390
   24.591453   48.095738
   24.597411   48.095086
   24.599178   48.094584
   24.600663   48.093770
   24.603769   48.091223
   24.605085   48.088525
   24.607060   48.086671
   24.607477   48.084706
   24.609140   48.083868
   24.610537   48.082454
   24.611197   48.080826
   24.611142   48.079131
   24.613523   48.078323
   24.615245   48.077188
   24.616438   48.075644
   24.617041   48.072992
   24.619305   48.071638
   24.620908   48.069648
   24.624457   48.067830
   24.626147   48.066095
   24.628282   48.062361
   24.628435   48.059526
   24.632284   48.054177
   24.634130   48.047930
   24.634103   48.046258
   24.633287   48.044754
   24.631582   48.043355
   24.629269   48.042460
   24.627511   48.042157
   24.625691   48.040794
   24.620752   48.038368
   24.618339   48.034780
   24.616470   48.033425
   24.612511   48.031999
   24.610457   48.031683
   24.608015   48.031651
   24.604324   48.032429
   24.603137   48.032426
   24.600307   48.030924
   24.594028   48.022265
   24.590566   48.020252
   24.588704   48.019669
   24.585233   48.017281
   24.580344   48.011770
   24.580496   48.009327
   24.580075   48.007669
   24.577582   48.003695
   24.579941   48.001262
   24.580395   47.999958
   24.580267   47.998488
   24.579149   47.996482
   24.577847   47.995527
   24.575255   47.994493
   24.574392   47.992835
   24.574373   47.990693
   24.572866   47.987315
   24.573120   47.980669
   24.571042   47.976348
   24.571427   47.971317
   24.571132   47.970084
   24.568688   47.966273
   24.564585   47.963368
   24.563026   47.961766
   24.562492   47.959778
   24.561588   47.958607
   24.557192   47.955255
   24.555612   47.954513
   24.553142   47.954041
   24.548949   47.954271
   24.546614   47.954903
   24.544712   47.956140
   24.537442   47.957081
   24.531639   47.956106
   24.528180   47.956367
   24.515897   47.948702
   24.508458   47.947362
   24.503668   47.947553
   24.498648   47.948360
   24.492444   47.951243
   24.486981   47.951370
   24.484334   47.951856
   24.482659   47.952663
   24.480506   47.954370
   24.475265   47.956759
   24.472903   47.957107
   24.471035   47.957904
   24.463850   47.957437
   24.457239   47.958526
   24.449574   47.958746
   24.445140   47.959753
   24.443179   47.960522
   24.434983   47.965123
   24.432738   47.964182
   24.428285   47.961435
   24.423626   47.957571
   24.421994   47.956618
   24.416782   47.955157
   24.411929   47.955532
   24.410315   47.955088
   24.404287   47.951729
   24.402290   47.951307
   24.400020   47.951333
   24.399126   47.950960
   24.399155   47.947722
   24.397377   47.944665
   24.394145   47.941878
   24.392092   47.938681
   24.389516   47.937124
   24.388617   47.935009
   24.387416   47.933531
   24.388447   47.926382
   24.387857   47.924655
   24.386320   47.923213
   24.384685   47.922453
   24.361686   47.915004
   24.359001   47.913651
   24.352380   47.911219
   24.346337   47.910036
   24.342614   47.910327
   24.338638   47.911743
   24.336407   47.913180
   24.333831   47.913222
   24.330489   47.914148
   24.326953   47.916982
   24.322968   47.919121
   24.321219   47.918570
   24.319059   47.918380
   24.312451   47.914235
   24.308665   47.913266
   24.303232   47.908527
   24.301233   47.907403
   24.298746   47.906869
   24.295793   47.906810
   24.291635   47.905819
   24.288671   47.904282
   24.280953   47.901951
   24.272782   47.901533
   24.264369   47.902768
   24.260636   47.902613
   24.257484   47.902014
   24.242339   47.895945
   24.229755   47.893064
   24.224556   47.892904
   24.221050   47.892373
   24.215664   47.893463
   24.213545   47.894524
   24.212007   47.896473
   24.211655   47.899957
   24.208213   47.903144
   24.202498   47.906332
   24.200108   47.906694
   24.197926   47.907613
   24.193508   47.911564
   24.180491   47.910310
   24.175638   47.911561
   24.173619   47.912708
   24.168731   47.913868
   24.166269   47.911755
   24.163526   47.910616
   24.160570   47.910311
   24.158577   47.910480
   24.153694   47.912427
   24.152672   47.912546
   24.150579   47.911371
   24.148766   47.909461
   24.146545   47.908409
   24.143383   47.907750
   24.138914   47.907556
   24.137100   47.907652
   24.134902   47.908213
   24.129607   47.911015
   24.127565   47.910913
   24.123500   47.911311
   24.119652   47.910477
   24.113094   47.910118
   24.109703   47.910665
   24.106710   47.912150
   24.102536   47.915510
   24.101813   47.917452
   24.094067   47.926625
   24.092532   47.930107
   24.092353   47.933258
   24.087488   47.935142
   24.084962   47.936715
   24.076402   47.940762
   24.071433   47.942628
   24.066555   47.943851
   24.062718   47.946109
   24.060196   47.949132
   24.056213   47.948045
   24.053558   47.947983
   24.050500   47.948572
   24.044718   47.947545
   24.043392   47.947248
   24.038734   47.945166
   24.035112   47.944493
   24.031582   47.944586
   24.029148   47.945084
   24.026513   47.946316
   24.025084   47.947553
   24.022487   47.952088
   24.019753   47.954603
   24.017567   47.956212
   24.007119   47.962459
   24.002366   47.958981
   23.998921   47.957554
   23.994409   47.956895
   23.990977   47.957106
   23.986944   47.956908
   23.980791   47.955549
   23.977673   47.955770
   23.975158   47.956579
   23.973395   47.957909
   23.972183   47.959696
   23.969893   47.958540
   23.966281   47.957772
   23.962766   47.957857
   23.958583   47.958683
   23.955625   47.958835
   23.955394   47.955976
   23.953985   47.952908
   23.951784   47.949899
   23.949393   47.947776
   23.942582   47.943488
   23.940599   47.943042
   23.937605   47.942895
   23.932408   47.944041
   23.931002   47.943465
   23.922041   47.941248
   23.917127   47.941196
   23.911197   47.942076
   23.900990   47.940977
   23.896686   47.939158
   23.893453   47.938402
   23.890840   47.938138
   23.887736   47.938227
   23.884305   47.938965
   23.882285   47.936817
   23.877411   47.932736
   23.873485   47.930489
   23.870719   47.928381
   23.869029   47.927779
   23.865783   47.927218
   23.862641   47.927379
   23.857695   47.928795
   23.854620   47.930164
   23.850151   47.932846
   23.848425   47.935108
   23.845473   47.935634
   23.843786   47.936314
   23.839397   47.939795
   23.838066   47.941546
   23.833797   47.949426
   23.833818   47.951802
   23.834922   47.954480
   23.834286   47.957592
   23.830968   47.958560
   23.828399   47.960348
   23.827428   47.962085
   23.827464   47.964681
   23.823478   47.967987
   23.820666   47.971729
   23.818160   47.973062
   23.815650   47.975286
   23.814475   47.977273
   23.814404   47.978826
   23.808787   47.979532
   23.797325   47.982083
   23.792585   47.981625
   23.787354   47.982125
   23.782404   47.984365
   23.776269   47.988981
   23.773922   47.989727
   23.767682   47.990834
   23.767065   47.990788
   23.762003   47.988131
   23.758009   47.987281
   23.754982   47.987614
   23.752589   47.988591
   23.750245   47.990713
   23.749021   47.992446
   23.744250   47.991251
   23.739583   47.990594
   23.735852   47.988818
   23.732105   47.987957
   23.726798   47.988280
   23.721291   47.989977
   23.718639   47.987785
   23.714941   47.986529
   23.711574   47.986545
   23.708316   47.987367
   23.706606   47.988194
   23.695359   47.985287
   23.688664   47.982996
   23.681217   47.981972
   23.674956   47.981773
   23.672507   47.980311
   23.669581   47.979406
   23.667433   47.979063
   23.664660   47.979040
   23.661022   47.979863
   23.659052   47.980651
   23.657355   47.981741
   23.655591   47.983894
   23.648916   47.986125
   23.643255   47.987431
   23.641090   47.988454
   23.638718   47.990902
   23.637335   47.996024
   23.636523   47.997716
   23.635658   47.998092
   23.631329   47.997510
   23.626678   47.997788
   23.622694   47.999163
   23.619058   47.998678
   23.616186   47.998858
   23.612266   48.000441
   23.610498   48.002063
   23.609867   48.003351
   23.603249   48.001711
   23.601124   48.001483
   23.597430   48.001827
   23.593621   48.003358
   23.590488   48.000565
   23.587107   47.999245
   23.584541   47.999120
   23.577169   48.000115
   23.569598   47.998378
   23.566074   47.998379
   23.559948   48.000199
   23.557521   48.001768
   23.551563   48.004806
   23.548028   48.005484
   23.542249   48.005585
   23.538238   48.006211
   23.535967   48.007087
   23.532197   48.009704
   23.529757   48.000694
   23.528833   47.999108
   23.528038   47.995055
   23.525356   47.991489
   23.519837   47.987287
   23.515956   47.981431
   23.509464   47.975207
   23.509393   47.974544
   23.510821   47.972451
   23.510759   47.970298
   23.509629   47.968743
   23.505685   47.965365
   23.502925   47.964349
   23.492693   47.963342
   23.485556   47.965238
   23.483990   47.966086
   23.482711   47.967457
   23.478474   47.968848
   23.476083   47.968792
   23.473642   47.969344
   23.471164   47.969238
   23.467784   47.969682
   23.461646   47.969285
   23.459667   47.969479
   23.452776   47.971846
   23.448580   47.972144
   23.446675   47.972606
   23.444612   47.973765
   23.441199   47.977470
   23.434113   47.978792
   23.432362   47.979457
   23.430981   47.980437
   23.430093   47.981645
   23.429993   47.984463
   23.425990   47.984233
   23.418196   47.982154
   23.416272   47.982190
   23.413877   47.982795
   23.409133   47.985245
   23.406439   47.985843
   23.403622   47.987392
   23.401257   47.988054
   23.399785   47.988921
   23.395463   47.993195
   23.394891   47.994865
   23.395153   47.996263
   23.391837   47.996742
   23.386010   47.999709
   23.378783   47.998661
   23.374805   47.999011
   23.372856   47.999579
   23.370244   48.001197
   23.369180   48.002403
   23.368719   48.003769
   23.368833   48.006482
   23.347259   48.015363
   23.343575   48.013982
   23.340316   48.013887
   23.338463   48.014334
   23.333450   48.016550
   23.330803   48.016853
   23.329033   48.017533
   23.323601   48.021079
   23.322562   48.022208
   23.322056   48.023489
   23.322647   48.026693
   23.325492   48.032522
   23.323474   48.032845
   23.321208   48.033864
   23.317078   48.037980
   23.310945   48.039559
   23.307608   48.038876
   23.303200   48.038857
   23.293273   48.040062
   23.283331   48.043497
   23.282101   48.044539
   23.280992   48.046394
   23.278325   48.048086
   23.277324   48.049752
   23.275315   48.051430
   23.273406   48.053737
   23.270851   48.055502
   23.270191   48.056709
   23.269772   48.059697
   23.270066   48.061057
   23.270962   48.062477
   23.275799   48.066379
   23.276946   48.069325
   23.279674   48.072791
   23.281089   48.073838
   23.275837   48.078274
   23.267133   48.080475
   23.265768   48.081322
   23.263395   48.083685
   23.262716   48.084961
   23.262269   48.087963
   23.262470   48.091528
   23.261799   48.095782
   23.257162   48.096221
   23.254829   48.092290
   23.251588   48.088879
   23.249589   48.087727
   23.246422   48.087141
   23.243822   48.087442
   23.241014   48.088659
   23.237613   48.087406
   23.234437   48.087296
   23.228572   48.088538
   23.222005   48.088794
   23.217880   48.089711
   23.213323   48.089990
   23.207567   48.091074
   23.204904   48.091006
   23.200072   48.091953
   23.196669   48.091988
   23.193887   48.092982
   23.187845   48.093323
   23.185531   48.094061
   23.184159   48.094967
   23.183025   48.096504
   23.182796   48.097893
   23.180770   48.099296
   23.178896   48.101847
   23.178539   48.104053
   23.179109   48.105337
   23.180480   48.106630
   23.180204   48.107683
   23.177451   48.108713
   23.175866   48.110045
   23.175225   48.111251
   23.174838   48.113804
   23.171683   48.113332
   23.170309   48.112039
   23.168038   48.111061
   23.160513   48.109665
   23.158488   48.108795
   23.156652   48.108488
   23.152635   48.097823
   23.151074   48.096397
   23.146072   48.093965
   23.144813   48.092085
   23.143482   48.091082
   23.141770   48.090383
   23.139827   48.090051
   23.136087   48.090225
   23.134028   48.090744
   23.132397   48.089224
   23.130754   48.088305
   23.124851   48.086865
   23.128550   48.084984
   23.130141   48.083085
   23.130332   48.081342
   23.129391   48.079429
   23.130103   48.077822
   23.129841   48.076052
   23.128981   48.074845
   23.127630   48.073859
   23.124057   48.072035
   23.122182   48.071526
   23.119371   48.067008
   23.118050   48.066005
   23.116513   48.065358
   23.118414   48.063808
   23.119102   48.062136
   23.118798   48.060413
   23.116985   48.058118
   23.118859   48.055359
   23.118762   48.053173
   23.115702   48.049288
   23.107830   48.044337
   23.113538   48.041912
   23.115150   48.040611
   23.116275   48.038021
   23.115659   48.034224
   23.110799   48.027637
   23.108196   48.025832
   23.106824   48.023446
   23.100443   48.019578
   23.102191   48.018573
   23.103213   48.017428
   23.103691   48.016133
   23.103583   48.014801
   23.102899   48.013549
   23.100525   48.011281
   23.098695   48.008649
   23.098227   48.006169
   23.096509   48.003607
   23.095284   48.002563
   23.091788   48.001265
   23.083336   48.000320
   23.081470   48.000530
   23.079059   48.001307
   23.073887   48.003960
   23.068415   48.003478
   23.059229   47.999137
   23.034999   47.996254
   23.033921   47.994810
   23.031460   47.992732
   23.029914   47.989467
   23.028118   47.988148
   23.025699   47.987397
   23.022517   47.987227
   23.019320   47.986111
   23.013014   47.986042
   23.011031   47.986352
   23.009277   47.987043
   23.007641   47.988203
   23.005877   47.990619
   23.004143   47.991155
   22.995941   47.991480
   22.992916   47.992239
   22.991482   47.993123
   22.990265   47.994655
   22.990173   47.997659
   22.989732   47.998873
   22.983867   47.999870
   22.982169   48.000609
   22.980874   48.001640
   22.973669   48.002967
   22.971649   48.004184
   22.970328   48.006171
   22.968248   48.006396
   22.965859   48.004347
   22.963530   48.003414
   22.961259   48.003117
   22.959241   48.003272
   22.956829   48.004084
   22.950137   48.007609
   22.947992   48.007772
   22.946151   48.008325
   22.939609   48.011863
   22.938281   48.012914
   22.930505   48.014042
   22.928639   48.012796
   22.928786   48.009522
   22.927687   48.007258
   22.929052   48.005332
   22.931377   48.003883
   22.936725   48.003480
   22.939623   48.002457
   22.940889   48.001440
   22.943903   47.997268
   22.946917   47.988891
   22.946835   47.983599
   22.950031   47.975958
   22.949658   47.972959
   22.949883   47.972431
   22.951918   47.971283
   22.954000   47.968996
   22.954445   47.967664
   22.954083   47.965866
   22.952208   47.963986
   22.948354   47.962539
   22.946111   47.960595
   22.943789   47.959803
   22.940277   47.959363
   22.933684   47.955674
   22.931899   47.954968
   22.927645   47.954424
   22.925453   47.954546
   22.922505   47.952995
   22.919420   47.952313
   22.917496   47.952355
   22.915567   47.952791
   22.910453   47.952620
   22.908464   47.952848
   22.907330   47.952586
   22.905607   47.951161
   22.903450   47.950341
   22.898734   47.949575
   22.894486   47.949718
   22.890655   47.950902
   22.888894   47.952320
   22.885664   47.954034
   22.884310   47.956041
   22.884178   47.958797
   22.883547   47.959591
   22.880243   47.959004
   22.877102   47.959269
   22.874936   47.960158
   22.873202   47.961523
   22.870912   47.962009
   22.868811   47.962975
   22.865126   47.966793
   22.864521   47.968347
   22.864580   47.969595
   22.861200   47.969244
   22.858005   47.970011
   22.856504   47.970946
   22.855207   47.972654
   22.853520   47.973644
   22.852268   47.975112
   22.847733   47.977280
   22.846022   47.977774
   22.843926   47.976852
   22.841955   47.976513
   22.839204   47.976630
   22.837308   47.977093
   22.834861   47.978615
   22.833644   47.980515
   22.833443   47.982284
   22.834792   47.985209
   22.831475   47.987142
   22.830007   47.988657
   22.829495   47.990801
   22.829977   47.992399
   22.836585   47.998886
   22.838760   48.000494
   22.842428   48.005493
   22.843950   48.006359
   22.846432   48.006983
   22.853479   48.012533
   22.855710   48.013616
   22.858479   48.014467
   22.858356   48.021029
   22.859170   48.023567
   22.860074   48.024639
   22.861857   48.025857
   22.864828   48.026709
   22.866308   48.027495
   22.867151   48.028848
   22.868832   48.030213
   22.871778   48.034905
   22.873825   48.037417
   22.874848   48.047229
   22.869375   48.046863
   22.866319   48.047437
   22.862299   48.049715
   22.855308   48.055197
   22.854531   48.056427
   22.854228   48.058131
   22.854636   48.060804
   22.855221   48.062018
   22.853487   48.063811
   22.852998   48.066166
   22.852007   48.067820
   22.852125   48.070052
   22.852955   48.071434
   22.852836   48.072367
   22.851424   48.074639
   22.848914   48.075251
   22.846361   48.076695
   22.841548   48.074943
   22.837356   48.075067
   22.833210   48.076310
   22.830439   48.078303
   22.829510   48.080484
   22.829617   48.084030
   22.828457   48.085293
   22.827135   48.087757
   22.826830   48.089859
   22.824181   48.091764
   22.821948   48.094170
   22.821229   48.095707
   22.821294   48.102163
   22.822438   48.104296
   22.825025   48.107579
   22.824122   48.109818
   22.822091   48.112430
   22.819870   48.114001
   22.819210   48.113994
   22.817390   48.111254
   22.816839   48.107079
   22.814981   48.104574
   22.812661   48.103187
   22.810054   48.102253
   22.807623   48.101747
   22.805102   48.101651
   22.800236   48.102580
   22.798218   48.103475
   22.795919   48.105323
   22.794761   48.108293
   22.794750   48.110798
   22.795367   48.112939
   22.792540   48.112244
   22.790161   48.112106
   22.786769   48.112490
   22.784410   48.113186
   22.784508   48.111381
   22.783747   48.109564
   22.780641   48.107099
   22.774346   48.104865
   22.770943   48.104402
   22.768237   48.104406
   22.766452   48.104585
   22.761640   48.105839
   22.758454   48.107438
   22.753977   48.111868
   22.753148   48.113438
   22.752704   48.115550
   22.748918   48.113947
   22.745027   48.113066
   22.740274   48.113452
   22.737464   48.114317
   22.736618   48.113190
   22.734662   48.111673
   22.731735   48.110505
   22.727916   48.109987
   22.723317   48.110636
   22.720346   48.108409
   22.717654   48.107118
   22.714797   48.106355
   22.709133   48.105883
   22.707207   48.103582
   22.704094   48.101433
   22.697271   48.098000
   22.689949   48.095008
   22.687103   48.093140
   22.684108   48.090520
   22.681776   48.089113
   22.677468   48.087663
   22.673227   48.087277
   22.666735   48.087440
   22.663243   48.088046
   22.659129   48.089322
   22.655673   48.091064
   22.650480   48.090435
   22.643031   48.091246
   22.636560   48.091211
   22.632373   48.091739
   22.630668   48.092267
   22.626828   48.094315
   22.620462   48.099445
   22.616928   48.099895
   22.615185   48.099484
   22.610222   48.099113
   22.601973   48.099584
   22.597506   48.100946
   22.594113   48.103293
   22.589455   48.103123
   22.586416   48.103921
   22.584993   48.104833
   22.584023   48.105980
   22.583618   48.108146
   22.586002   48.115119
   22.587416   48.116522
   22.589627   48.117783
   22.586556   48.121292
   22.585764   48.123259
   22.585360   48.128109
   22.585780   48.129322
   22.585658   48.130993
   22.586793   48.134277
   22.584134   48.136002
   22.582687   48.137481
   22.581806   48.139531
   22.581472   48.141872
   22.581750   48.143164
   22.582569   48.144349
   22.586552   48.146931
   22.583940   48.148382
   22.580400   48.151710
   22.579195   48.153739
   22.576350   48.153772
   22.573814   48.154442
   22.570821   48.155740
   22.569502   48.156725
   22.568665   48.157923
   22.566200   48.164994
   22.563664   48.168932
   22.561018   48.171143
   22.560114   48.173691
   22.558103   48.175786
   22.557897   48.177733
   22.555575   48.179450
   22.554724   48.181120
   22.555462   48.185345
   22.556367   48.186974
   22.557617   48.187979
   22.559244   48.188703
   22.561114   48.189086
   22.563716   48.189099
   22.564775   48.191011
   22.564623   48.192467
   22.554549   48.194094
   22.552217   48.194804
   22.550448   48.196043
   22.549589   48.197373
   22.540314   48.204185
   22.535606   48.205563
   22.532619   48.204936
   22.529918   48.204912
   22.528001   48.205363
   22.525918   48.206513
   22.523642   48.209820
   22.517890   48.213682
   22.516633   48.216561
   22.515112   48.218219
   22.512432   48.219653
   22.507105   48.223731
   22.505724   48.228082
   22.506176   48.231002
   22.507229   48.232661
   22.506774   48.234325
   22.495353   48.235239
   22.493024   48.236031
   22.491319   48.237355
   22.490490   48.239012
   22.490525   48.240326
   22.491439   48.241962
   22.494230   48.244429
   22.493396   48.246425
   22.488769   48.248028
   22.487957   48.247891
   22.483513   48.245417
   22.479847   48.244810
   22.476814   48.243866
   22.473853   48.240479
   22.470610   48.238838
   22.467794   48.238243
   22.464582   48.238480
   22.463257   48.238295
   22.459421   48.237111
   22.457484   48.236851
   22.454272   48.237269
   22.451596   48.238764
   22.447961   48.239354
   22.445563   48.239400
   22.443120   48.240089
   22.441260   48.241353
   22.440199   48.243347
   22.438529   48.244689
   22.436230   48.243049
   22.434407   48.242508
   22.432428   48.242345
   22.417711   48.244512
   22.415033   48.245653
   22.404063   48.244778
   22.402312   48.243219
   22.401615   48.241185
   22.399662   48.238538
   22.397778   48.237366
   22.391997   48.235539
   22.390897   48.232633
   22.389095   48.230816
   22.387465   48.230077
   22.384932   48.229636
   22.382338   48.229870
   22.380587   48.230472
   22.363198   48.242970
   22.362471   48.245059
   22.363035   48.246810
   22.360737   48.249824
   22.359553   48.252162
   22.359153   48.255160
   22.354075   48.262862
   22.348786   48.266741
   22.346401   48.267171
   22.344343   48.268193
   22.333686   48.275974
   22.332338   48.277446
   22.331927   48.278715
   22.332072   48.280009
   22.333705   48.282727
   22.330397   48.290186
   22.330906   48.293756
   22.331606   48.294951
   22.333002   48.296187
   22.331031   48.300367
   22.330996   48.302554
   22.330032   48.304641
   22.324360   48.306671
   22.315519   48.311769
   22.311859   48.316235
   22.311510   48.317726
   22.311761   48.319571
   22.309563   48.320726
   22.307635   48.322392
   22.306003   48.325594
   22.306274   48.328674
   22.307540   48.330358
   22.310109   48.331843
   22.313130   48.338708
   22.310497   48.344665
   22.310758   48.346380
   22.312414   48.349357
   22.309115   48.349511
   22.304492   48.349151
   22.297972   48.349181
   22.294039   48.350440
   22.291249   48.351992
   22.263951   48.357096
   22.262066   48.358237
   22.252805   48.367803
   22.247140   48.377035
   22.244809   48.378596
   22.236893   48.381788
   22.233996   48.384212
   22.233124   48.387288
   22.233749   48.389213
   22.235040   48.391000
   22.237220   48.392578
   22.240313   48.393808
   22.247920   48.394837
   22.250485   48.395499
   22.255867   48.402320
   22.257823   48.406565
   22.253127   48.406488
   22.240700   48.405141
   22.235663   48.405626
   22.231476   48.406647
   22.225159   48.409173
   22.222353   48.410841
   22.219300   48.413055
   22.210516   48.421039
   22.208422   48.421206
   22.203549   48.419849
   22.198087   48.416917
   22.192624   48.412986
   22.185705   48.410373
   22.179095   48.409246
   22.169826   48.408894
   22.165403   48.408058
   22.162083   48.406906
   22.161795   48.402227
   22.160597   48.400612
   22.158551   48.399438
   22.155305   48.398865
   22.151687   48.399384
   22.146663   48.399143
   22.142644   48.399409
   22.140716   48.399879
   22.139088   48.400714
   22.135997   48.403657
   22.135367   48.407290
   22.135614   48.409252
   22.131818   48.413261
   22.130419   48.417929
END
END
