zaporizhzhia
1
   34.137943   47.481652
   34.205665   47.492626
   34.217062   47.494996
   34.231458   47.498541
   34.248468   47.504795
   34.265052   47.512860
   34.273417   47.515850
   34.298353   47.523525
   34.344879   47.526380
   34.423526   47.534677
   34.452590   47.535647
   34.467572   47.536569
   34.475333   47.538344
   34.482038   47.540900
   34.495064   47.547455
   34.510220   47.552410
   34.525640   47.557885
   34.555932   47.563759
   34.558344   47.563909
   34.571936   47.566129
   34.587910   47.566865
   34.602006   47.566678
   34.629470   47.565555
   34.645751   47.564251
   34.672049   47.559875
   34.709940   47.549944
   34.720360   47.547647
   34.737134   47.543324
   34.741279   47.542936
   34.786130   47.542346
   34.790454   47.541632
   34.797634   47.541453
   34.806202   47.539199
   34.819866   47.534891
   34.843574   47.525030
   34.860618   47.520020
   34.863112   47.519591
   34.875626   47.519532
   34.897955   47.522609
   34.927000   47.528986
   34.935320   47.531180
   34.938113   47.532416
   34.948415   47.537338
   34.952620   47.540889
   34.956013   47.544715
   34.958792   47.548970
   34.958756   47.550238
   34.957256   47.553641
   34.942037   47.552912
   34.936859   47.552127
   34.929716   47.552198
   34.923711   47.551616
   34.920860   47.552180
   34.919153   47.552838
   34.917802   47.553809
   34.916927   47.555008
   34.916624   47.556779
   34.917072   47.558084
   34.918668   47.559875
   34.920842   47.561065
   34.925591   47.562194
   34.950052   47.564303
   34.951260   47.564870
   34.951264   47.566028
   34.948675   47.567572
   34.937480   47.563976
   34.934883   47.563876
   34.932430   47.564469
   34.930917   47.565318
   34.928908   47.567359
   34.928163   47.569423
   34.928332   47.570809
   34.929238   47.572240
   34.930927   47.573512
   34.934379   47.574416
   34.936639   47.575452
   34.936171   47.575916
   34.925807   47.575946
   34.923051   47.576996
   34.921321   47.578801
   34.920707   47.581634
   34.921302   47.583316
   34.923260   47.585004
   34.925978   47.585856
   34.923656   47.587259
   34.920129   47.591615
   34.919475   47.594084
   34.919976   47.595853
   34.921447   47.597348
   34.924280   47.598477
   34.927607   47.598723
   34.930603   47.597970
   34.931387   47.600118
   34.934860   47.603012
   34.927730   47.630436
   34.915429   47.629203
   34.913521   47.629584
   34.911865   47.630335
   34.909880   47.632440
   34.907295   47.640298
   34.906242   47.646595
   34.903559   47.655016
   34.899110   47.674038
   34.899462   47.675349
   34.900357   47.676533
   34.901717   47.677487
   34.903424   47.678128
   34.930496   47.681142
   34.923361   47.710879
   34.923343   47.712221
   34.923900   47.713508
   34.924985   47.714626
   34.926500   47.715477
   34.928314   47.715986
   34.948087   47.716638
   34.945249   47.727050
   34.945523   47.728338
   34.946694   47.729873
   34.948082   47.730762
   34.949807   47.731349
   34.947981   47.738278
   34.948035   47.740067
   34.949099   47.741702
   34.951005   47.742926
   34.952812   47.743457
   34.957167   47.743949
   34.952087   47.764169
   34.894344   47.755728
   34.892354   47.755784
   34.890479   47.756244
   34.888061   47.757778
   34.887104   47.759468
   34.872278   47.818337
   34.872954   47.820395
   34.874920   47.822020
   34.881918   47.825596
   34.896085   47.831775
   34.891900   47.847589
   34.873706   47.845700
   34.868210   47.846466
   34.865617   47.847825
   34.864291   47.849868
   34.858202   47.875078
   34.853949   47.873313
   34.848674   47.869810
   34.840433   47.865794
   34.830924   47.864448
   34.826947   47.862673
   34.818861   47.859967
   34.815564   47.859932
   34.813720   47.860448
   34.812185   47.861317
   34.810672   47.863323
   34.807040   47.874216
   34.795395   47.915222
   34.795511   47.916578
   34.796564   47.918234
   34.797934   47.919217
   34.800301   47.920014
   34.844602   47.924789
   34.842605   47.938045
   34.843012   47.939358
   34.843963   47.940531
   34.845375   47.941461
   34.847123   47.942067
   34.874978   47.946364
   34.877528   47.946410
   34.880441   47.945541
   34.882424   47.943842
   34.885993   47.934094
   34.909163   47.936865
   34.907226   47.939896
   34.902778   47.956588
   34.902990   47.958789
   34.904952   47.960811
   34.899545   47.980651
   34.869810   47.977874
   34.867932   47.978006
   34.865658   47.978733
   34.864305   47.979633
   34.863179   47.981169
   34.858035   48.000550
   34.853807   48.009892
   34.847011   48.009109
   34.844492   48.009315
   34.841803   48.010452
   34.840678   48.011507
   34.840039   48.012738
   34.836454   48.034602
   34.833679   48.046218
   34.832799   48.047929
   34.832617   48.050758
   34.832998   48.052045
   34.834761   48.053854
   34.837553   48.054891
   34.867619   48.058171
   34.862395   48.075303
   34.848593   48.132319
   34.848566   48.133658
   34.849113   48.134943
   34.850186   48.136063
   34.852267   48.137131
   34.854789   48.137567
   34.877977   48.138346
   34.879972   48.138205
   34.882362   48.137396
   34.883738   48.136397
   34.885967   48.132158
   34.915479   48.135121
   34.917978   48.134877
   34.920161   48.134009
   34.921709   48.132644
   34.922313   48.131412
   34.926669   48.114495
   34.926098   48.112743
   34.924074   48.110990
   34.921717   48.110205
   34.918047   48.109795
   34.917439   48.103009
   34.919937   48.096096
   34.930280   48.097155
   34.932744   48.096770
   34.935065   48.095585
   34.985791   48.101128
   34.989169   48.100613
   34.991207   48.099670
   34.992325   48.098662
   34.993951   48.096069
   35.004292   48.098502
   35.007429   48.098678
   35.009800   48.099284
   35.012512   48.099320
   35.015902   48.100823
   35.019025   48.101504
   35.021319   48.101483
   35.024414   48.102422
   35.034128   48.102567
   35.035238   48.105896
   35.038967   48.110389
   35.044626   48.115657
   35.050263   48.121562
   35.054021   48.124125
   35.058479   48.125910
   35.063204   48.126874
   35.073633   48.127245
   35.079311   48.127158
   35.082503   48.127648
   35.084316   48.128243
   35.087229   48.130757
   35.091754   48.133379
   35.096468   48.135131
   35.101237   48.136180
   35.115705   48.135734
   35.154770   48.133105
   35.162658   48.133267
   35.169495   48.134583
   35.176139   48.135359
   35.188885   48.142716
   35.190460   48.143922
   35.193401   48.144823
   35.208422   48.144677
   35.212032   48.146150
   35.216194   48.147020
   35.221036   48.147156
   35.225083   48.146384
   35.228960   48.144559
   35.230541   48.143426
   35.235762   48.141908
   35.240456   48.139595
   35.242070   48.139230
   35.247501   48.139550
   35.251216   48.140257
   35.259100   48.144610
   35.262197   48.145987
   35.266948   48.147475
   35.272076   48.148473
   35.277808   48.149159
   35.284604   48.149448
   35.296412   48.148772
   35.302156   48.147206
   35.306508   48.145622
   35.324794   48.135990
   35.336294   48.131866
   35.340480   48.128611
   35.342944   48.129058
   35.344926   48.128939
   35.349229   48.127687
   35.350999   48.127510
   35.355853   48.126262
   35.358846   48.126390
   35.362802   48.125622
   35.367263   48.125408
   35.370963   48.124503
   35.373483   48.123429
   35.376093   48.123871
   35.378617   48.123592
   35.382219   48.124532
   35.384739   48.124406
   35.390871   48.121933
   35.396804   48.118683
   35.397796   48.118500
   35.401647   48.119206
   35.404154   48.118886
   35.407302   48.117560
   35.408975   48.115799
   35.414335   48.114972
   35.419090   48.113775
   35.420656   48.113067
   35.423535   48.110246
   35.426590   48.106360
   35.427047   48.105227
   35.438488   48.106181
   35.439616   48.107263
   35.441151   48.108072
   35.442963   48.108542
   35.444896   48.108631
   35.458238   48.106425
   35.460676   48.106494
   35.464027   48.106066
   35.477051   48.102667
   35.481487   48.102357
   35.484451   48.101107
   35.486234   48.099992
   35.490869   48.100961
   35.494205   48.100897
   35.499805   48.101409
   35.503217   48.101122
   35.505513   48.101946
   35.508052   48.102252
   35.510050   48.102022
   35.512360   48.101214
   35.517145   48.100288
   35.522450   48.098657
   35.524496   48.097380
   35.525545   48.096179
   35.526007   48.094815
   35.525964   48.093080
   35.529118   48.081159
   35.550602   48.087954
   35.579196   48.098360
   35.677369   48.134512
   35.692155   48.140184
   35.699218   48.143977
   35.702796   48.144718
   35.706084   48.144352
   35.708693   48.142933
   35.746319   48.100579
   35.750394   48.100736
   35.751887   48.101892
   35.753598   48.102567
   35.758304   48.103132
   35.762944   48.102300
   35.777645   48.101129
   35.783463   48.098958
   35.788375   48.099643
   35.792106   48.100502
   35.804016   48.104760
   35.807300   48.104847
   35.810239   48.103840
   35.811845   48.102406
   35.813632   48.099014
   35.822053   48.071536
   35.918588   48.086379
   35.957200   48.096736
   35.964362   48.099051
   35.966956   48.099311
   35.970850   48.098695
   35.974350   48.097295
   35.977576   48.096657
   35.979912   48.095590
   35.981832   48.093541
   35.982479   48.091277
   35.986221   48.090909
   35.988501   48.089974
   35.990405   48.088485
   35.991935   48.085471
   35.992074   48.084196
   35.991229   48.082244
   35.990899   48.078184
   35.989226   48.075425
   35.987280   48.074163
   35.985530   48.073553
   35.982264   48.073129
   35.979869   48.073363
   35.977512   48.071872
   35.979764   48.069304
   35.980481   48.067918
   35.984154   48.067347
   35.987452   48.065682
   35.990043   48.063701
   35.993290   48.061865
   35.994364   48.060667
   35.994999   48.059224
   35.995004   48.056706
   35.993724   48.054774
   35.991096   48.053079
   35.989190   48.052612
   35.987190   48.052538
   35.984313   48.049567
   36.051194   48.063508
   36.053118   48.063574
   36.054989   48.063257
   36.056647   48.062584
   36.057950   48.061613
   36.064525   48.047892
   36.064800   48.046127
   36.063819   48.044146
   36.070024   48.030870
   36.072028   48.026021
   36.072099   48.024707
   36.071615   48.023435
   36.070618   48.022312
   36.068060   48.021020
   36.042849   48.015742
   36.046729   48.007783
   36.063957   48.005352
   36.066179   48.004534
   36.068069   48.002815
   36.072662   47.983094
   36.077226   47.972394
   36.077225   47.970635
   36.076473   47.969273
   36.078560   47.968177
   36.080010   47.966223
   36.089110   47.937929
   36.105621   47.945770
   36.108060   47.946271
   36.110596   47.946103
   36.112850   47.945291
   36.114814   47.943667
   36.126054   47.929170
   36.126200   47.926949
   36.125179   47.925306
   36.123310   47.924061
   36.119248   47.922612
   36.133818   47.903646
   36.134293   47.902321
   36.133996   47.900518
   36.133101   47.899299
   36.131510   47.898222
   36.136276   47.892087
   36.136790   47.890444
   36.136155   47.888395
   36.127589   47.875333
   36.125331   47.873420
   36.123763   47.870547
   36.124969   47.868867
   36.125759   47.865441
   36.125763   47.864102
   36.125195   47.862821
   36.123639   47.861395
   36.120772   47.860364
   36.088298   47.856767
   36.085157   47.856926
   36.082481   47.858063
   36.080877   47.859919
   36.075516   47.878196
   36.061861   47.876414
   36.063035   47.872441
   36.070509   47.871811
   36.072741   47.870992
   36.074359   47.869659
   36.076481   47.863776
   36.079359   47.853326
   36.088183   47.854251
   36.096878   47.854553
   36.101390   47.853485
   36.104766   47.851794
   36.106325   47.850239
   36.107224   47.847781
   36.115669   47.848695
   36.119098   47.848725
   36.131389   47.850270
   36.171165   47.854435
   36.170602   47.856889
   36.170916   47.858605
   36.172147   47.860115
   36.174116   47.861198
   36.191979   47.863819
   36.197078   47.863889
   36.201432   47.862541
   36.203104   47.861106
   36.203730   47.859793
   36.203863   47.855970
   36.200781   47.847821
   36.198260   47.843549
   36.196783   47.841886
   36.199364   47.840054
   36.200579   47.837753
   36.201514   47.837207
   36.266082   47.837726
   36.268037   47.837545
   36.270358   47.836710
   36.271684   47.835711
   36.279651   47.825479
   36.280253   47.824374
   36.281044   47.820632
   36.297960   47.822260
   36.300477   47.821985
   36.302614   47.821100
   36.323099   47.823941
   36.323541   47.825328
   36.322658   47.827786
   36.322745   47.829549
   36.321728   47.830649
   36.317758   47.832955
   36.316844   47.834186
   36.316515   47.835549
   36.317074   47.839772
   36.317642   47.840944
   36.320185   47.843094
   36.323109   47.843935
   36.367461   47.842855
   36.375552   47.842435
   36.378545   47.841512
   36.380234   47.840126
   36.382121   47.834589
   36.398605   47.835363
   36.406618   47.834105
   36.412919   47.832203
   36.415812   47.832277
   36.420250   47.833301
   36.422858   47.833382
   36.433819   47.831465
   36.438777   47.831103
   36.446551   47.829031
   36.449713   47.828608
   36.475307   47.828706
   36.515175   47.832656
   36.514327   47.836125
   36.514660   47.837904
   36.516437   47.839777
   36.518677   47.840708
   36.603110   47.855228
   36.605034   47.855355
   36.607526   47.854927
   36.609592   47.853879
   36.610917   47.852371
   36.614801   47.841958
   36.614901   47.839205
   36.605215   47.815792
   36.603983   47.814637
   36.600978   47.813176
   36.594968   47.812495
   36.594258   47.795598
   36.594374   47.788743
   36.621912   47.791858
   36.670113   47.798031
   36.672700   47.798003
   36.675073   47.797298
   36.676868   47.796023
   36.677811   47.794373
   36.686681   47.760192
   36.686634   47.758446
   36.685617   47.756835
   36.690990   47.736076
   36.698891   47.736962
   36.701445   47.736906
   36.704282   47.735918
   36.706116   47.734138
   36.712104   47.711613
   36.718754   47.683825
   36.791464   47.689443
   36.793380   47.689286
   36.795148   47.688757
   36.796617   47.687900
   36.797661   47.686790
   36.798193   47.685520
   36.797931   47.683548
   36.798581   47.680842
   36.797752   47.678807
   36.796626   47.677791
   36.794434   47.676653
   36.792576   47.676207
   36.790022   47.676145
   36.791123   47.673530
   36.790377   47.671387
   36.789236   47.670310
   36.787645   47.669493
   36.785908   47.667775
   36.784567   47.665514
   36.781840   47.663998
   36.780412   47.662449
   36.778471   47.661412
   36.775621   47.660656
   36.772220   47.660725
   36.766457   47.662088
   36.764281   47.663044
   36.761323   47.662837
   36.761286   47.661110
   36.760277   47.659459
   36.758944   47.658469
   36.756623   47.657646
   36.746261   47.656352
   36.726064   47.654870
   36.730678   47.636088
   36.759368   47.638393
   36.766146   47.638632
   36.769251   47.637991
   36.770762   47.637137
   36.771842   47.636018
   36.772517   47.633089
   36.771726   47.629401
   36.771828   47.627884
   36.772686   47.625901
   36.772816   47.623568
   36.772092   47.621382
   36.770451   47.619975
   36.768139   47.619117
   36.752670   47.617744
   36.753817   47.611637
   36.764391   47.612279
   36.766930   47.612078
   36.768656   47.611500
   36.770066   47.610605
   36.771467   47.608329
   36.827263   47.628240
   36.830364   47.628752
   36.832873   47.628400
   36.834998   47.627421
   36.836144   47.626361
   36.895232   47.552084
   36.939916   47.579492
   36.942822   47.580534
   36.946101   47.580491
   36.947910   47.579937
   36.949798   47.578679
   36.968274   47.560039
   36.977654   47.564925
   36.980932   47.565197
   36.982846   47.564815
   36.984507   47.564058
   36.986117   47.562875
   37.002511   47.546071
   37.017247   47.556507
   37.019010   47.557105
   37.020953   47.557321
   37.023523   47.556986
   37.025214   47.556297
   37.032440   47.550314
   37.078033   47.498141
   37.080591   47.499832
   37.083040   47.500542
   37.085700   47.500533
   37.088139   47.499807
   37.133229   47.473078
   37.134715   47.471837
   37.135408   47.470667
   37.155221   47.461361
   37.163584   47.471789
   37.164443   47.473344
   37.174280   47.486144
   37.176118   47.487413
   37.178530   47.488096
   37.180491   47.488155
   37.182392   47.487817
   37.198564   47.483092
   37.200729   47.482070
   37.202140   47.480550
   37.202517   47.478322
   37.199327   47.473339
   37.208920   47.472983
   37.211774   47.473842
   37.213688   47.474020
   37.221923   47.473935
   37.224921   47.473180
   37.235977   47.473060
   37.239122   47.473793
   37.245341   47.473703
   37.248386   47.473131
   37.250696   47.471657
   37.251651   47.470049
   37.251651   47.468313
   37.248172   47.462233
   37.252210   47.461035
   37.254025   47.459843
   37.255174   47.457849
   37.254852   47.455716
   37.252720   47.453219
   37.242688   47.434854
   37.241592   47.433761
   37.239799   47.432796
   37.236335   47.432196
   37.235801   47.430880
   37.234738   47.429751
   37.224476   47.411598
   37.201629   47.373221
   37.209844   47.356812
   37.209833   47.354669
   37.208383   47.352770
   37.206396   47.351717
   37.164956   47.337400
   37.162469   47.336927
   37.159907   47.337143
   37.157191   47.338322
   37.155813   47.339816
   37.141286   47.375881
   37.114976   47.372451
   37.128500   47.341683
   37.128644   47.339449
   37.127610   47.337799
   37.125145   47.336332
   37.101029   47.328028
   37.101669   47.326676
   37.101693   47.325370
   37.101171   47.324114
   37.100146   47.323013
   37.098151   47.321940
   37.090708   47.319335
   37.089425   47.316971
   37.090273   47.315184
   37.090021   47.313401
   37.089174   47.312185
   37.087309   47.310930
   37.065445   47.304883
   37.037229   47.295524
   37.035305   47.295496
   37.033450   47.295849
   37.030002   47.297786
   37.028727   47.299320
   37.028206   47.300590
   37.028839   47.304064
   37.028012   47.305249
   37.023825   47.307933
   37.021777   47.310018
   36.945814   47.306504
   36.942798   47.307296
   36.940691   47.308973
   36.938736   47.315723
   36.933645   47.315382
   36.935226   47.309030
   36.941384   47.294073
   36.942949   47.287597
   36.944389   47.278284
   36.948415   47.257950
   36.954576   47.233485
   36.956615   47.233506
   36.959023   47.232936
   36.960936   47.231784
   36.962071   47.230222
   36.969092   47.202429
   36.968839   47.200210
   36.967940   47.199016
   36.966568   47.198054
   36.963573   47.197189
   36.931021   47.196046
   36.927947   47.196680
   36.926033   47.197863
   36.924926   47.199457
   36.924592   47.202223
   36.899178   47.201463
   36.897342   47.197582
   36.895508   47.196278
   36.893720   47.195684
   36.865764   47.194849
   36.866562   47.193391
   36.866767   47.191647
   36.868670   47.190366
   36.869627   47.189288
   36.873218   47.188463
   36.876046   47.187197
   36.877932   47.185553
   36.880857   47.184234
   36.883277   47.181511
   36.886922   47.181553
   36.890519   47.180230
   36.892254   47.178817
   36.893400   47.176855
   36.895925   47.177889
   36.897731   47.178251
   36.899924   47.178382
   36.902365   47.177972
   36.905680   47.176007
   36.908133   47.173799
   36.908986   47.172514
   36.910723   47.171856
   36.914368   47.174631
   36.917408   47.175614
   36.921243   47.175618
   36.923684   47.174966
   36.926080   47.174736
   36.928270   47.173884
   36.929806   47.172729
   36.930597   47.171525
   36.931254   47.168971
   36.935559   47.169991
   36.937446   47.170023
   36.939270   47.169689
   36.941347   47.168724
   36.943142   47.167225
   36.943795   47.166003
   36.943866   47.164459
   36.948042   47.164445
   36.953883   47.162084
   36.955949   47.160369
   36.956899   47.158184
   36.960233   47.155993
   36.961307   47.153599
   36.964000   47.153198
   36.966053   47.152297
   36.967505   47.151113
   36.970180   47.147662
   36.974652   47.146015
   36.979255   47.142412
   36.980358   47.140298
   36.979677   47.137652
   36.981607   47.136205
   36.982593   47.134960
   36.985284   47.133435
   36.986484   47.131560
   36.986834   47.130214
   36.990054   47.130124
   36.990974   47.131729
   36.992699   47.132979
   36.995558   47.133858
   36.998037   47.134119
   36.999971   47.133965
   37.001755   47.133431
   37.006954   47.130419
   37.008203   47.129060
   37.009479   47.126511
   37.009498   47.124670
   37.008690   47.123123
   37.009354   47.121079
   37.008848   47.118752
   37.011884   47.118338
   37.014572   47.117015
   37.016163   47.115397
   37.017217   47.112375
   37.017379   47.110264
   37.016183   47.106015
   37.015117   47.104309
   37.013522   47.102931
   37.016362   47.101064
   37.017975   47.098776
   37.018244   47.096552
   37.016674   47.094106
   37.018783   47.091888
   37.019393   47.089276
   37.018593   47.087208
   37.016392   47.085267
   37.015114   47.082839
   37.013547   47.081490
   37.010501   47.080227
   37.006645   47.079938
   37.002617   47.078921
   37.025629   47.071437
   37.078825   47.053342
   37.082364   47.055967
   37.095026   47.063011
   37.097960   47.063744
   37.101057   47.063473
   37.103627   47.062259
   37.130902   47.041023
   37.131517   47.038896
   37.131152   47.037610
   37.130264   47.036450
   37.098722   47.008416
   37.145482   46.985399
   37.146712   46.984417
   37.147630   46.982815
   37.147608   46.981095
   37.146650   46.979505
   37.126306   46.967372
   37.105227   46.955800
   37.102082   46.955471
   37.099077   46.956188
   37.091523   46.962023
   37.086092   46.959286
   37.066839   46.947930
   37.054587   46.941296
   37.030660   46.927457
   37.036142   46.923060
   37.039114   46.919983
   37.068557   46.885704
   37.174815   46.712127
   37.175328   46.710395
   37.174833   46.708660
   37.172924   46.706889
   37.164823   46.703140
   37.151845   46.698776
   37.136127   46.693867
   37.119575   46.689560
   37.101839   46.685863
   37.092332   46.676661
   37.081401   46.667486
   37.069334   46.658598
   37.056123   46.650073
   37.042793   46.642534
   37.030664   46.636553
   37.030312   46.629027
   37.028652   46.617220
   37.025815   46.605219
   37.021842   46.593367
   37.016749   46.581718
   37.010559   46.570320
   37.003298   46.559222
   36.994995   46.548473
   36.985689   46.538118
   36.975417   46.528201
   36.963942   46.518543
   36.951855   46.509644
   36.938948   46.501306
   36.925276   46.493565
   36.910898   46.486456
   36.895874   46.480008
   36.880270   46.474249
   36.864552   46.469320
   36.847999   46.464995
   36.831070   46.461423
   36.813839   46.458622
   36.795947   46.456564
   36.778328   46.455355
   36.760632   46.454943
   36.742935   46.455329
   36.725313   46.456511
   36.708268   46.458427
   36.690594   46.461241
   36.673646   46.464768
   36.657471   46.468937
   36.640936   46.474071
   36.625314   46.479806
   36.610630   46.486066
   36.595870   46.493319
   36.582174   46.501039
   36.569546   46.509148
   36.557126   46.518238
   36.546145   46.527410
   36.543088   46.530350
   36.523526   46.526779
   36.503975   46.524047
   36.497557   46.512207
   36.490458   46.501371
   36.482157   46.490610
   36.472613   46.479999
   36.462579   46.470318
   36.451387   46.460874
   36.439322   46.451952
   36.426434   46.443591
   36.412439   46.435646
   36.398419   46.428695
   36.383411   46.422223
   36.363592   46.414699
   36.355955   46.403624
   36.346262   46.391730
   36.335672   46.380569
   36.323745   46.369679
   36.310462   46.359147
   36.296802   46.349700
   36.281911   46.340706
   36.266165   46.332433
   36.249252   46.324757
   36.232004   46.318057
   36.214134   46.312184
   36.196151   46.307272
   36.177298   46.303113
   36.158077   46.299852
   36.138579   46.297505
   36.118894   46.296083
   36.099114   46.295592
   36.079331   46.296035
   36.059639   46.297409
   36.040128   46.299709
   36.020890   46.302922
   36.002015   46.307035
   35.983176   46.312152
   35.965302   46.318020
   35.948051   46.324715
   35.931502   46.332206
   35.915733   46.340458
   35.900817   46.349432
   35.886823   46.359086
   35.873817   46.369375
   35.861859   46.380249
   35.851238   46.391395
   35.842919   46.401553
   35.838338   46.397705
   35.826555   46.388996
   35.813668   46.380626
   35.800015   46.372853
   35.785653   46.365712
   35.770645   46.359234
   35.755054   46.353446
   35.738948   46.348373
   35.725038   46.344728
   35.720979   46.339482
   35.711649   46.329098
   35.701616   46.319391
   35.690424   46.309920
   35.678056   46.300764
   35.665473   46.292591
   35.651819   46.284806
   35.637458   46.277654
   35.622075   46.271014
   35.606470   46.265234
   35.586621   46.259194
   35.579675   46.250188
   35.570582   46.240033
   35.560312   46.230064
   35.549121   46.220579
   35.536461   46.211302
   35.533250   46.205392
   35.526152   46.194494
   35.517851   46.183675
   35.508547   46.173253
   35.498277   46.163272
   35.486804   46.153552
   35.472593   46.143209
   35.469717   46.142111
   35.467740   46.141968
   35.465789   46.142233
   35.464042   46.142884
   35.371347   46.191117
   35.274441   46.260628
   35.264722   46.262793
   35.250477   46.267029
   35.244675   46.269052
   35.237167   46.272321
   35.224751   46.277050
   35.182580   46.286901
   35.167710   46.290045
   35.142761   46.294168
   35.127079   46.297562
   35.106481   46.297524
   35.094605   46.296888
   35.072323   46.295054
   35.069773   46.295322
   35.067112   46.296555
   35.066044   46.297664
   35.065493   46.298937
   35.061043   46.322555
   35.059220   46.328101
   35.059589   46.330259
   35.057830   46.335120
   35.055700   46.349104
   35.050154   46.375008
   35.050760   46.377114
   35.051794   46.378199
   35.053235   46.379039
   35.055581   46.379662
   35.062661   46.380450
   35.060107   46.394535
   35.056192   46.422979
   35.055662   46.424325
   35.053097   46.440907
   35.048666   46.476840
   35.022333   46.474474
   35.019009   46.474734
   34.953771   46.497509
   34.951440   46.498611
   34.948199   46.498339
   34.945049   46.498982
   34.943104   46.500204
   34.942193   46.501412
   34.940990   46.507249
   34.891016   46.502477
   34.888415   46.502583
   34.886077   46.503370
   34.884365   46.504715
   34.883545   46.506408
   34.878262   46.536208
   34.878966   46.538348
   34.881058   46.540010
   34.883409   46.540726
   34.887573   46.541105
   34.884852   46.558187
   34.873892   46.556798
   34.758070   46.544901
   34.755457   46.544931
   34.753622   46.545412
   34.752074   46.546241
   34.750489   46.548186
   34.747691   46.559882
   34.746897   46.561430
   34.742938   46.579027
   34.723064   46.576946
   34.720021   46.577539
   34.717730   46.579033
   34.716801   46.580652
   34.706225   46.619426
   34.706232   46.620751
   34.707467   46.622777
   34.708838   46.623712
   34.710547   46.624335
   34.749044   46.630486
   34.740460   46.678149
   34.702636   46.674788
   34.699562   46.673896
   34.684835   46.672510
   34.680232   46.673365
   34.678674   46.674231
   34.677568   46.675377
   34.677015   46.676697
   34.675066   46.687165
   34.633153   46.683139
   34.631256   46.683145
   34.628877   46.683723
   34.626989   46.684870
   34.625727   46.686841
   34.618673   46.723393
   34.618710   46.724721
   34.619308   46.725983
   34.620416   46.727073
   34.621937   46.727895
   34.623742   46.728380
   34.653751   46.731053
   34.652103   46.740656
   34.653093   46.742732
   34.654343   46.743736
   34.655962   46.744451
   34.657814   46.744815
   34.728141   46.751277
   34.728689   46.757934
   34.729353   46.759205
   34.730535   46.760285
   34.732130   46.761078
   34.733996   46.761514
   34.743815   46.762070
   34.743537   46.780467
   34.744263   46.782575
   34.746337   46.784211
   34.748657   46.784921
   34.759686   46.785258
   34.756445   46.798599
   34.751591   46.822073
   34.751603   46.823398
   34.752485   46.825054
   34.754225   46.826354
   34.757193   46.827184
   34.806842   46.832065
   34.803560   46.847826
   34.798804   46.877706
   34.752541   46.875014
   34.749512   46.875527
   34.747984   46.876280
   34.746828   46.877298
   34.746024   46.878922
   34.738448   46.920911
   34.735559   46.932943
   34.730856   46.956234
   34.697811   46.952865
   34.686038   46.951357
   34.682834   46.951711
   34.680693   46.952728
   34.679087   46.954659
   34.675423   46.974054
   34.655707   46.972199
   34.643325   46.969618
   34.639764   46.969873
   34.623690   46.968875
   34.620547   46.969477
   34.618580   46.970663
   34.617441   46.972279
   34.614361   46.986084
   34.612170   46.988298
   34.598554   46.987309
   34.595664   46.988151
   34.593669   46.989811
   34.591149   46.999297
   34.586750   47.021809
   34.567020   47.019971
   34.563875   47.020611
   34.562347   47.021475
   34.561261   47.022611
   34.560717   47.023915
   34.546406   47.101185
   34.518536   47.100274
   34.516656   47.100667
   34.515028   47.101421
   34.513796   47.102469
   34.513069   47.103720
   34.502977   47.155360
   34.501959   47.156407
   34.501384   47.157699
   34.497319   47.176678
   34.497555   47.178676
   34.496177   47.188160
   34.490788   47.211977
   34.489592   47.214022
   34.484451   47.239992
   34.484486   47.241365
   34.485013   47.242502
   34.484384   47.247648
   34.485362   47.249325
   34.487789   47.250840
   34.490319   47.251351
   34.507850   47.252673
   34.523065   47.254795
   34.521459   47.262907
   34.519011   47.263945
   34.517562   47.265401
   34.512951   47.278338
   34.487602   47.275428
   34.485097   47.275811
   34.483464   47.276515
   34.481877   47.277896
   34.481261   47.279149
   34.473953   47.306986
   34.473886   47.308264
   34.474345   47.309505
   34.472861   47.314671
   34.473104   47.316420
   34.474733   47.318303
   34.477462   47.319442
   34.502615   47.322010
   34.501034   47.323661
   34.500463   47.325005
   34.500667   47.328220
   34.501193   47.329646
   34.493423   47.327846
   34.476039   47.325593
   34.421415   47.319716
   34.425748   47.301381
   34.425480   47.299201
   34.424198   47.297680
   34.421576   47.296431
   34.406328   47.294569
   34.407944   47.286480
   34.406762   47.284444
   34.405418   47.283495
   34.403730   47.282852
   34.370641   47.279077
   34.367195   47.279637
   34.364850   47.280803
   34.355135   47.288674
   34.333039   47.286164
   34.310313   47.266158
   34.308287   47.265090
   34.305821   47.264629
   34.303284   47.264844
   34.295772   47.268202
   34.289947   47.269841
   34.287706   47.271309
   34.286257   47.273501
   34.286329   47.276010
   34.274613   47.323285
   34.274590   47.324691
   34.275498   47.326680
   34.267206   47.355915
   34.261292   47.355228
   34.258769   47.355431
   34.256074   47.356567
   34.254946   47.357623
   34.254307   47.358856
   34.244981   47.391111
   34.245095   47.392478
   34.245802   47.393760
   34.249309   47.396661
   34.244087   47.414173
   34.243073   47.416467
   34.242818   47.418551
   34.236736   47.431852
   34.230906   47.438248
   34.225218   47.442975
   34.222671   47.444793
   34.214867   47.448925
   34.209502   47.451101
   34.197601   47.455167
   34.167239   47.464960
   34.135441   47.473662
   34.134095   47.474614
   34.133210   47.475793
   34.132945   47.477980
   34.133534   47.479243
   34.134632   47.480334
   34.136145   47.481161
   34.137943   47.481652
END
END
