zhytomyr
1
   27.179358   50.625727
   27.179835   50.627135
   27.180852   50.628276
   27.185297   50.630757
   27.189561   50.631811
   27.193382   50.631938
   27.193525   50.633522
   27.194624   50.635220
   27.196205   50.636417
   27.199446   50.637972
   27.202450   50.640305
   27.200848   50.642088
   27.200429   50.643868
   27.201471   50.646008
   27.204994   50.648451
   27.204839   50.650244
   27.203960   50.652074
   27.204528   50.654330
   27.201002   50.655328
   27.198553   50.656541
   27.195081   50.660472
   27.194233   50.662635
   27.194328   50.663903
   27.197687   50.668476
   27.201521   50.671248
   27.204492   50.671978
   27.206778   50.673171
   27.212098   50.675206
   27.216567   50.675500
   27.218433   50.676603
   27.220996   50.677234
   27.223743   50.677195
   27.225796   50.676681
   27.228005   50.677668
   27.230037   50.678024
   27.235543   50.677588
   27.237343   50.678539
   27.240066   50.679111
   27.243282   50.687045
   27.243286   50.688943
   27.244032   50.690268
   27.243133   50.692387
   27.243507   50.694129
   27.245927   50.696597
   27.249112   50.698184
   27.251434   50.700212
   27.251083   50.702322
   27.252077   50.704987
   27.257624   50.711194
   27.261951   50.714361
   27.266219   50.716033
   27.265713   50.720468
   27.266681   50.724217
   27.263397   50.727567
   27.262977   50.729835
   27.263241   50.732477
   27.261067   50.734256
   27.259576   50.738006
   27.257489   50.740068
   27.257072   50.741412
   27.257255   50.742627
   27.256067   50.743821
   27.255495   50.745456
   27.255959   50.747390
   27.257406   50.748854
   27.258323   50.750650
   27.263633   50.755032
   27.264156   50.757439
   27.260047   50.757414
   27.256626   50.758622
   27.254979   50.759958
   27.252484   50.763455
   27.246010   50.764138
   27.238675   50.766222
   27.236569   50.767518
   27.235090   50.769611
   27.235164   50.771672
   27.232742   50.773911
   27.232188   50.775672
   27.233096   50.781406
   27.234279   50.783149
   27.235834   50.790004
   27.230398   50.791456
   27.228772   50.792211
   27.227240   50.793609
   27.226628   50.795271
   27.226340   50.801496
   27.228580   50.806383
   27.227628   50.812233
   27.228797   50.814217
   27.231363   50.815682
   27.231219   50.817882
   27.232350   50.822988
   27.234260   50.826255
   27.233792   50.827275
   27.231341   50.829922
   27.230609   50.832364
   27.225435   50.836807
   27.224928   50.838050
   27.225068   50.839977
   27.226021   50.841578
   27.228370   50.843170
   27.230064   50.848581
   27.231307   50.850332
   27.233212   50.851953
   27.235760   50.855251
   27.241130   50.858974
   27.236917   50.868549
   27.236699   50.870289
   27.237228   50.871558
   27.243708   50.879782
   27.241919   50.880589
   27.240350   50.882052
   27.239781   50.883787
   27.240070   50.885108
   27.244271   50.891728
   27.245874   50.893039
   27.247618   50.893762
   27.248832   50.894921
   27.246999   50.896139
   27.241929   50.896987
   27.235563   50.899051
   27.230461   50.901908
   27.228196   50.903586
   27.227098   50.904717
   27.226521   50.906430
   27.223010   50.906377
   27.219948   50.907378
   27.215297   50.910630
   27.214471   50.911824
   27.214071   50.914001
   27.212361   50.915207
   27.209962   50.918678
   27.208214   50.925510
   27.208313   50.926856
   27.209028   50.928124
   27.210296   50.929201
   27.212371   50.930098
   27.214060   50.932867
   27.215758   50.934265
   27.218838   50.935260
   27.222102   50.935233
   27.224520   50.936698
   27.226966   50.937389
   27.227117   50.939281
   27.229136   50.942756
   27.226499   50.944134
   27.225125   50.946438
   27.218718   50.948607
   27.216618   50.950318
   27.216000   50.952019
   27.216440   50.956505
   27.218224   50.959128
   27.218625   50.960789
   27.216902   50.962662
   27.216713   50.965075
   27.213319   50.970514
   27.210034   50.972793
   27.205893   50.978018
   27.204830   50.980308
   27.197321   50.987351
   27.193004   50.999092
   27.193067   51.001329
   27.194334   51.002932
   27.195877   51.003857
   27.206177   51.007506
   27.210288   51.011446
   27.211827   51.012346
   27.215075   51.013096
   27.220012   51.012880
   27.221279   51.020297
   27.214511   51.024869
   27.213101   51.027024
   27.213152   51.031273
   27.214320   51.032825
   27.216312   51.033985
   27.219511   51.034636
   27.270185   51.036882
   27.271415   51.042068
   27.273019   51.043535
   27.275389   51.044490
   27.277448   51.044776
   27.314381   51.046310
   27.310921   51.050742
   27.310377   51.052843
   27.313360   51.063938
   27.317300   51.070007
   27.315224   51.076270
   27.316688   51.081341
   27.317434   51.082629
   27.318752   51.083715
   27.320519   51.084497
   27.327423   51.086144
   27.329898   51.090605
   27.331236   51.091659
   27.333004   51.092412
   27.336461   51.092829
   27.345629   51.091333
   27.347068   51.091476
   27.346841   51.096039
   27.347411   51.097280
   27.348507   51.098368
   27.350040   51.099213
   27.351884   51.099746
   27.359076   51.100398
   27.357458   51.109628
   27.358541   51.111711
   27.361525   51.113836
   27.357352   51.139090
   27.357073   51.143928
   27.358611   51.145895
   27.360784   51.146985
   27.363445   51.147461
   27.368325   51.147416
   27.371127   51.148846
   27.367044   51.153798
   27.366991   51.155604
   27.367687   51.156889
   27.368949   51.157983
   27.387990   51.170138
   27.387292   51.171923
   27.387977   51.174042
   27.397303   51.183979
   27.397965   51.185677
   27.396574   51.186678
   27.395568   51.188264
   27.393639   51.200335
   27.393735   51.201656
   27.394426   51.202903
   27.396163   51.204268
   27.398584   51.205106
   27.412281   51.206120
   27.438486   51.226264
   27.441539   51.227198
   27.452403   51.227975
   27.457694   51.238666
   27.460674   51.240337
   27.464891   51.240935
   27.463290   51.243387
   27.454294   51.243554
   27.450830   51.243946
   27.448386   51.244711
   27.446952   51.245643
   27.445994   51.246798
   27.445667   51.249594
   27.443091   51.250714
   27.441070   51.252397
   27.440226   51.253677
   27.440031   51.255060
   27.440501   51.256415
   27.442455   51.259545
   27.444188   51.260923
   27.445183   51.262924
   27.448271   51.265181
   27.451633   51.266757
   27.441396   51.280897
   27.433782   51.309840
   27.433745   51.311177
   27.434322   51.312462
   27.435461   51.313583
   27.437064   51.314443
   27.438990   51.314965
   27.486426   51.319713
   27.494096   51.324990
   27.505553   51.337960
   27.507070   51.338822
   27.509283   51.339435
   27.514774   51.343267
   27.514501   51.344975
   27.515333   51.348148
   27.519865   51.353754
   27.517044   51.359653
   27.517910   51.363620
   27.491251   51.370652
   27.488732   51.372083
   27.487534   51.374095
   27.485034   51.408259
   27.485714   51.409986
   27.492284   51.418803
   27.492159   51.423630
   27.498050   51.436456
   27.496547   51.452050
   27.497434   51.454171
   27.499217   51.455516
   27.502344   51.456426
   27.516781   51.457227
   27.527296   51.457142
   27.534665   51.457503
   27.536755   51.457275
   27.538647   51.456661
   27.540909   51.454946
   27.541534   51.453651
   27.541531   51.452297
   27.540900   51.451003
   27.534653   51.443063
   27.539890   51.436486
   27.540496   51.434850
   27.540267   51.433295
   27.541468   51.432425
   27.543895   51.431511
   27.547878   51.428751
   27.550563   51.427445
   27.553767   51.425067
   27.556909   51.423790
   27.570809   51.419915
   27.572694   51.419142
   27.578546   51.414787
   27.588761   51.410563
   27.590325   51.409034
   27.590940   51.406431
   27.606582   51.407182
   27.606646   51.407484
   27.603187   51.408836
   27.598338   51.411648
   27.596665   51.413129
   27.596046   51.414913
   27.596782   51.417872
   27.594124   51.419132
   27.592709   51.420679
   27.592165   51.425504
   27.580893   51.425458
   27.579010   51.425969
   27.577435   51.426803
   27.575834   51.428711
   27.572909   51.459851
   27.571761   51.478351
   27.571997   51.479702
   27.572851   51.480946
   27.574810   51.482250
   27.577411   51.482960
   27.590423   51.483364
   27.620145   51.487058
   27.640174   51.500256
   27.642326   51.504096
   27.644712   51.505684
   27.647298   51.506313
   27.649379   51.506339
   27.659675   51.504212
   27.656133   51.516423
   27.656355   51.518655
   27.657736   51.520220
   27.659961   51.521318
   27.669074   51.522364
   27.671111   51.522122
   27.672951   51.521513
   27.677077   51.518382
   27.681834   51.516730
   27.689161   51.512520
   27.699487   51.502979
   27.704422   51.503341
   27.711930   51.502137
   27.714182   51.501485
   27.727208   51.495745
   27.735800   51.489670
   27.746194   51.481327
   27.760137   51.478735
   27.761714   51.479827
   27.762656   51.483575
   27.762670   51.492841
   27.763274   51.494528
   27.765973   51.497549
   27.769403   51.500469
   27.774259   51.503538
   27.780933   51.511370
   27.789639   51.524159
   27.801266   51.535912
   27.803407   51.537077
   27.805390   51.537548
   27.830108   51.539249
   27.839050   51.543172
   27.840917   51.544809
   27.840896   51.545072
   27.837133   51.545780
   27.835035   51.546922
   27.832917   51.549129
   27.832156   51.551555
   27.829539   51.553504
   27.828633   51.556269
   27.828962   51.557497
   27.830146   51.559049
   27.827787   51.561018
   27.826552   51.564438
   27.825222   51.566016
   27.824797   51.567441
   27.822966   51.568459
   27.821136   51.570284
   27.820516   51.571571
   27.820520   51.573227
   27.818496   51.574760
   27.817732   51.576502
   27.818098   51.578295
   27.821710   51.583361
   27.822207   51.597809
   27.825480   51.601681
   27.828492   51.603722
   27.828827   51.604837
   27.829895   51.606129
   27.826200   51.607735
   27.823407   51.609408
   27.822028   51.611455
   27.822146   51.613243
   27.823788   51.615210
   27.832614   51.620241
   27.861877   51.632622
   27.863736   51.633180
   27.866454   51.633354
   27.869073   51.632858
   27.871502   51.631721
   27.877029   51.630118
   27.880950   51.627867
   27.883876   51.627069
   27.886278   51.625069
   27.888801   51.623814
   27.890615   51.621788
   27.893404   51.620380
   27.894512   51.619079
   27.896786   51.619658
   27.898906   51.619728
   27.900964   51.619394
   27.905462   51.617909
   27.911350   51.618197
   27.915553   51.617193
   27.917603   51.616005
   27.918863   51.614148
   27.923350   51.610945
   27.925850   51.610344
   27.927468   51.609469
   27.929051   51.607469
   27.931502   51.594250
   27.928640   51.582170
   27.938157   51.582586
   27.940961   51.583221
   27.942076   51.583957
   27.945018   51.588688
   27.952136   51.595530
   27.954261   51.596656
   27.956898   51.597178
   27.959109   51.597100
   27.963460   51.599485
   27.966605   51.600124
   27.969236   51.599929
   27.978901   51.597794
   27.980426   51.596897
   27.981479   51.595757
   27.981963   51.593586
   27.974593   51.581866
   27.975173   51.580027
   27.974748   51.578258
   27.972777   51.576418
   27.968679   51.574514
   27.967493   51.570767
   27.966554   51.569521
   27.957583   51.563904
   27.967642   51.564328
   28.015219   51.568157
   28.046959   51.571088
   28.058073   51.575219
   28.060440   51.577774
   28.067412   51.583023
   28.070265   51.584311
   28.073031   51.584608
   28.076387   51.583988
   28.083628   51.579228
   28.099668   51.582802
   28.100904   51.584412
   28.102434   51.585350
   28.106460   51.586802
   28.111109   51.587779
   28.111552   51.590542
   28.113235   51.595673
   28.113791   51.599585
   28.116804   51.602574
   28.122083   51.606674
   28.122401   51.609566
   28.124066   51.611552
   28.127024   51.612779
   28.129835   51.613001
   28.145165   51.610284
   28.160893   51.625792
   28.160209   51.628499
   28.163759   51.645196
   28.164622   51.646820
   28.165861   51.647838
   28.167499   51.648591
   28.173071   51.650058
   28.181645   51.653441
   28.205450   51.663655
   28.221347   51.669629
   28.224095   51.670221
   28.226493   51.670183
   28.228302   51.671011
   28.230716   51.674453
   28.231969   51.675488
   28.241424   51.680311
   28.243765   51.681096
   28.252588   51.682813
   28.255567   51.684946
   28.257479   51.685492
   28.259558   51.685658
   28.261622   51.685428
   28.263490   51.684822
   28.273527   51.679138
   28.276147   51.675107
   28.276727   51.671085
   28.276121   51.669343
   28.271406   51.662550
   28.271655   51.660100
   28.269717   51.652450
   28.267301   51.646740
   28.265526   51.637061
   28.260577   51.628065
   28.260321   51.627151
   28.260971   51.625169
   28.280507   51.628070
   28.283227   51.627937
   28.285667   51.627157
   28.288607   51.625290
   28.289834   51.623208
   28.316862   51.603605
   28.317831   51.602389
   28.318372   51.600239
   28.325245   51.594927
   28.327427   51.594594
   28.329734   51.593599
   28.331262   51.592113
   28.331815   51.590709
   28.336625   51.586955
   28.348067   51.579710
   28.349339   51.578284
   28.353049   51.571725
   28.354760   51.569784
   28.355438   51.567415
   28.356784   51.566138
   28.357632   51.564112
   28.361472   51.558094
   28.360699   51.549913
   28.357935   51.544772
   28.360270   51.545846
   28.370621   51.548818
   28.387357   51.554187
   28.404976   51.563663
   28.415251   51.568676
   28.429254   51.576368
   28.435344   51.580037
   28.437096   51.582453
   28.442493   51.585485
   28.446396   51.588390
   28.463223   51.596752
   28.466455   51.597598
   28.481191   51.597129
   28.495474   51.595802
   28.507451   51.595036
   28.514192   51.595065
   28.521561   51.592466
   28.523180   51.591612
   28.527241   51.586494
   28.554372   51.586525
   28.556435   51.586331
   28.559397   51.585197
   28.561167   51.583304
   28.561439   51.576776
   28.647839   51.577217
   28.650486   51.576904
   28.652246   51.576263
   28.653649   51.575331
   28.654731   51.573863
   28.662687   51.570432
   28.664182   51.569513
   28.665410   51.567935
   28.665503   51.565826
   28.667073   51.563171
   28.667053   51.557462
   28.666102   51.555681
   28.662074   51.552794
   28.655174   51.550135
   28.654371   51.549416
   28.656296   51.546605
   28.662173   51.526998
   28.661714   51.524855
   28.658978   51.522331
   28.686969   51.453349
   28.689542   51.447834
   28.696405   51.446414
   28.703073   51.449242
   28.711938   51.452359
   28.713545   51.453165
   28.715275   51.458978
   28.719836   51.464228
   28.733674   51.470537
   28.737096   51.470923
   28.739785   51.470445
   28.741495   51.469667
   28.742773   51.468604
   28.743507   51.467348
   28.743817   51.465461
   28.743045   51.461323
   28.743054   51.457110
   28.741429   51.452545
   28.742726   51.444582
   28.740955   51.435704
   28.741713   51.434964
   28.747449   51.431684
   28.748878   51.429479
   28.751157   51.428929
   28.753199   51.427755
   28.754183   51.426594
   28.754841   51.424456
   28.759245   51.428798
   28.759381   51.432060
   28.764916   51.447439
   28.765922   51.448670
   28.767465   51.449648
   28.772101   51.450851
   28.774160   51.457995
   28.770878   51.461246
   28.769684   51.464932
   28.766879   51.470425
   28.766596   51.473085
   28.764771   51.474441
   28.755730   51.479516
   28.754292   51.480959
   28.753794   51.482639
   28.754815   51.488631
   28.760382   51.495716
   28.770386   51.506778
   28.774874   51.512621
   28.782196   51.525941
   28.790442   51.535437
   28.793308   51.537662
   28.797976   51.540397
   28.800172   51.549208
   28.800895   51.550442
   28.807395   51.555511
   28.810673   51.559024
   28.815179   51.562337
   28.819029   51.563493
   28.828232   51.564360
   28.830286   51.564233
   28.834327   51.563342
   28.836906   51.565640
   28.838523   51.566568
   28.846679   51.568233
   28.855721   51.572230
   28.861173   51.573385
   28.862466   51.576226
   28.866026   51.578574
   28.869378   51.579496
   28.873922   51.579959
   28.874741   51.583895
   28.875540   51.585135
   28.876873   51.586170
   28.880459   51.587760
   28.911491   51.594675
   28.914087   51.594618
   28.927292   51.592740
   28.942011   51.594429
   28.957156   51.594693
   28.968932   51.596129
   28.971690   51.595927
   28.974115   51.595064
   28.976119   51.593265
   28.978330   51.589586
   28.980688   51.584203
   28.981675   51.580305
   28.983593   51.578863
   28.985428   51.577718
   28.996328   51.577805
   29.011227   51.585916
   29.018951   51.590589
   29.024388   51.593134
   29.026308   51.596601
   29.033303   51.604643
   29.041335   51.609337
   29.041429   51.610745
   29.042545   51.612418
   29.058077   51.624045
   29.071864   51.630724
   29.085708   51.631960
   29.087551   51.634859
   29.086730   51.643181
   29.087610   51.645313
   29.089966   51.646927
   29.096264   51.649023
   29.099105   51.651270
   29.099528   51.652738
   29.100555   51.653933
   29.109469   51.659416
   29.110946   51.663295
   29.111983   51.664445
   29.113498   51.665354
   29.116033   51.666058
   29.118796   51.666089
   29.124215   51.665104
   29.127069   51.663775
   29.128398   51.662175
   29.128684   51.660824
   29.126209   51.655055
   29.129078   51.655995
   29.131813   51.656312
   29.134528   51.655932
   29.137447   51.654610
   29.138114   51.654572
   29.143716   51.656194
   29.147574   51.656745
   29.156882   51.655763
   29.161138   51.657388
   29.165393   51.657961
   29.170517   51.657167
   29.173931   51.655562
   29.177071   51.655579
   29.179644   51.654848
   29.181567   51.653535
   29.182959   51.650405
   29.185373   51.648468
   29.185928   51.646728
   29.185392   51.644986
   29.183848   51.643510
   29.181533   51.642527
   29.178805   51.642189
   29.175874   51.642566
   29.171145   51.636960
   29.169132   51.635852
   29.166316   51.635266
   29.166484   51.632988
   29.165842   51.631167
   29.188884   51.632372
   29.192197   51.631789
   29.194689   51.630279
   29.195535   51.629069
   29.195747   51.627312
   29.192773   51.618652
   29.186828   51.612056
   29.205805   51.611839
   29.208354   51.611141
   29.210639   51.609485
   29.211425   51.607337
   29.211168   51.597580
   29.212694   51.591473
   29.212281   51.584040
   29.211299   51.582087
   29.213904   51.580322
   29.215079   51.579083
   29.215691   51.577803
   29.215762   51.576294
   29.220001   51.573764
   29.221385   51.572108
   29.242794   51.573684
   29.254889   51.571343
   29.257209   51.570328
   29.258729   51.568817
   29.261211   51.558270
   29.262704   51.556447
   29.263160   51.553026
   29.264970   51.551067
   29.265437   51.549748
   29.265078   51.547964
   29.263777   51.546088
   29.265288   51.544190
   29.265637   51.542899
   29.265027   51.540957
   29.265225   51.538481
   29.264123   51.534939
   29.266209   51.532961
   29.268310   51.527643
   29.267984   51.526347
   29.267090   51.525165
   29.262372   51.522061
   29.262595   51.518272
   29.258090   51.503021
   29.258090   51.496779
   29.261886   51.492343
   29.264907   51.486464
   29.267776   51.484170
   29.275987   51.480402
   29.277913   51.478682
   29.278430   51.477017
   29.277786   51.472066
   29.278732   51.466796
   29.280590   51.463173
   29.288693   51.464686
   29.296939   51.463817
   29.307702   51.460184
   29.312955   51.458036
   29.314557   51.457131
   29.315663   51.455963
   29.316200   51.454181
   29.314383   51.447704
   29.314729   51.446326
   29.319192   51.440791
   29.322589   51.434846
   29.323553   51.423230
   29.328519   51.419295
   29.330255   51.412872
   29.331740   51.410635
   29.331541   51.406226
   29.329919   51.398501
   29.327678   51.394349
   29.328748   51.387384
   29.330123   51.385500
   29.335654   51.389170
   29.338702   51.390154
   29.342116   51.390112
   29.346228   51.388711
   29.354445   51.389010
   29.357523   51.389847
   29.360343   51.389927
   29.363570   51.389038
   29.365731   51.387267
   29.366278   51.385957
   29.366388   51.381218
   29.393675   51.383930
   29.396323   51.383539
   29.398049   51.382840
   29.399391   51.381855
   29.400395   51.380242
   29.400042   51.340827
   29.403416   51.328278
   29.403359   51.326559
   29.402653   51.325347
   29.401440   51.324312
   29.399818   51.323538
   29.397919   51.323089
   29.374959   51.321369
   29.366667   51.321836
   29.358192   51.320942
   29.357452   51.318062
   29.369915   51.311357
   29.373933   51.307327
   29.374242   51.305645
   29.373562   51.304009
   29.365369   51.295279
   29.372838   51.292752
   29.374488   51.291307
   29.375132   51.289566
   29.374669   51.287802
   29.371427   51.283623
   29.360420   51.271971
   29.358928   51.270907
   29.356991   51.270193
   29.336116   51.265196
   29.332656   51.265375
   29.329807   51.266543
   29.327285   51.266672
   29.325407   51.267174
   29.323014   51.268689
   29.321779   51.270916
   29.317496   51.270700
   29.314810   51.270946
   29.313053   51.268566
   29.311544   51.267647
   29.309682   51.267049
   29.306930   51.266834
   29.302785   51.267285
   29.299267   51.268415
   29.275457   51.262500
   29.302542   51.187395
   29.308609   51.168935
   29.318246   51.143900
   29.322425   51.134172
   29.323523   51.157707
   29.323874   51.158975
   29.324770   51.160128
   29.326682   51.161328
   29.329154   51.161989
   29.348102   51.164495
   29.350074   51.164461
   29.352535   51.163882
   29.412173   51.136974
   29.432220   51.127276
   29.433553   51.126229
   29.435342   51.123809
   29.457004   51.099623
   29.460403   51.095976
   29.464090   51.092712
   29.465647   51.091873
   29.472197   51.089762
   29.481637   51.083006
   29.484728   51.081809
   29.487023   51.080344
   29.492452   51.078483
   29.496340   51.077811
   29.498577   51.076967
   29.512916   51.067369
   29.518080   51.062632
   29.518813   51.060419
   29.517776   51.058255
   29.483246   51.029955
   29.482681   51.028143
   29.472674   51.016069
   29.475407   51.010796
   29.475762   51.009043
   29.475393   51.007723
   29.472669   51.003668
   29.472241   50.997518
   29.472492   50.993759
   29.473811   50.989122
   29.475166   50.988254
   29.477095   50.986094
   29.481499   50.982445
   29.483025   50.980495
   29.483323   50.978635
   29.482367   50.976709
   29.481146   50.975680
   29.479519   50.974914
   29.477619   50.974472
   29.474931   50.974446
   29.446209   50.981411
   29.440555   50.983863
   29.427940   50.982164
   29.423553   50.979796
   29.420837   50.979061
   29.418881   50.952397
   29.431775   50.949930
   29.436465   50.949999
   29.439713   50.949124
   29.448345   50.943033
   29.472981   50.927591
   29.482059   50.915558
   29.482001   50.913848
   29.478982   50.904887
   29.493842   50.893827
   29.504431   50.890695
   29.518872   50.881577
   29.527917   50.870494
   29.528397   50.868698
   29.527729   50.866927
   29.506574   50.838851
   29.526897   50.830225
   29.530000   50.833210
   29.531678   50.833949
   29.533616   50.834352
   29.536983   50.834202
   29.544964   50.832545
   29.546667   50.831885
   29.548365   50.830586
   29.549079   50.829398
   29.554281   50.814914
   29.554441   50.813565
   29.553969   50.812246
   29.552907   50.811076
   29.550106   50.809728
   29.534650   50.808608
   29.531745   50.809028
   29.527025   50.810807
   29.515651   50.813031
   29.503012   50.814099
   29.499427   50.812232
   29.500896   50.810384
   29.500969   50.807698
   29.503933   50.805885
   29.505219   50.804007
   29.512041   50.800860
   29.515733   50.798502
   29.519139   50.798668
   29.522167   50.797880
   29.526677   50.795709
   29.528158   50.794147
   29.528561   50.792797
   29.528311   50.791432
   29.524698   50.786760
   29.521047   50.784550
   29.517409   50.783026
   29.517321   50.780117
   29.518491   50.778582
   29.518570   50.776460
   29.521753   50.776534
   29.525437   50.777288
   29.527321   50.778729
   29.529358   50.779656
   29.533458   50.780776
   29.536276   50.780897
   29.545842   50.780329
   29.550679   50.778500
   29.552869   50.776548
   29.556474   50.777322
   29.558509   50.777368
   29.561095   50.776856
   29.563936   50.775480
   29.571055   50.775998
   29.573089   50.775651
   29.574873   50.774937
   29.576596   50.773529
   29.578789   50.770020
   29.579037   50.766561
   29.577853   50.764677
   29.581032   50.760573
   29.582180   50.757793
   29.582435   50.755794
   29.583696   50.753829
   29.586449   50.752435
   29.588268   50.750228
   29.588672   50.747023
   29.587238   50.743480
   29.590585   50.742567
   29.592535   50.741400
   29.594024   50.739209
   29.594092   50.737264
   29.594800   50.736394
   29.598212   50.735850
   29.601949   50.734122
   29.603010   50.732894
   29.604640   50.729751
   29.604614   50.728361
   29.603175   50.724582
   29.601715   50.722698
   29.599865   50.721544
   29.597760   50.718820
   29.592644   50.707042
   29.587786   50.702204
   29.584969   50.700608
   29.581846   50.696205
   29.577019   50.693862
   29.574825   50.693182
   29.571334   50.690179
   29.569235   50.689047
   29.563373   50.688115
   29.557815   50.687847
   29.553972   50.687346
   29.551845   50.685016
   29.549469   50.683918
   29.548404   50.682171
   29.548012   50.680072
   29.546239   50.678111
   29.543523   50.676687
   29.537577   50.675595
   29.538148   50.674253
   29.538109   50.672952
   29.537422   50.671358
   29.537254   50.669099
   29.535772   50.666373
   29.533955   50.664585
   29.531155   50.662880
   29.528291   50.659232
   29.525860   50.657868
   29.523603   50.657179
   29.519517   50.656724
   29.512857   50.655442
   29.510005   50.655406
   29.507708   50.655873
   29.504974   50.655429
   29.501020   50.655617
   29.497215   50.655357
   29.494061   50.654794
   29.491611   50.654951
   29.489899   50.655400
   29.488890   50.654823
   29.486273   50.653083
   29.491520   50.648722
   29.492185   50.646971
   29.491726   50.645193
   29.483929   50.638419
   29.474188   50.633219
   29.477545   50.631249
   29.478985   50.629693
   29.479357   50.627901
   29.478600   50.626159
   29.477358   50.625055
   29.475659   50.624236
   29.467034   50.621916
   29.464237   50.621568
   29.461826   50.621861
   29.460472   50.620642
   29.458997   50.619927
   29.460462   50.618886
   29.461665   50.617212
   29.464876   50.615678
   29.468215   50.615022
   29.470770   50.614170
   29.475310   50.613390
   29.480001   50.611668
   29.486726   50.605470
   29.492003   50.601178
   29.497277   50.599021
   29.500491   50.596085
   29.502407   50.594870
   29.505347   50.590476
   29.505271   50.579202
   29.507324   50.578419
   29.508777   50.577396
   29.511299   50.574917
   29.512086   50.573265
   29.512003   50.571968
   29.511346   50.570739
   29.507952   50.567437
   29.506585   50.565524
   29.505644   50.560985
   29.506996   50.558050
   29.509377   50.555228
   29.509897   50.554033
   29.510343   50.549576
   29.509154   50.545975
   29.508221   50.544762
   29.505573   50.543296
   29.498018   50.541264
   29.494623   50.536137
   29.490492   50.533249
   29.488724   50.532508
   29.485986   50.532097
   29.483213   50.532398
   29.480843   50.533366
   29.479338   50.534730
   29.471977   50.535005
   29.468222   50.534245
   29.468282   50.533640
   29.470060   50.532840
   29.472308   50.531200
   29.474060   50.527918
   29.473241   50.523918
   29.470912   50.519441
   29.469386   50.517866
   29.470122   50.517283
   29.472728   50.516787
   29.477765   50.514781
   29.480417   50.514404
   29.484729   50.514312
   29.486733   50.513850
   29.488904   50.512687
   29.490775   50.510376
   29.496183   50.508054
   29.501859   50.506718
   29.505211   50.506552
   29.507633   50.505762
   29.512878   50.502469
   29.514109   50.500384
   29.514030   50.499039
   29.513335   50.497769
   29.510630   50.495976
   29.515653   50.489575
   29.516084   50.487411
   29.514879   50.485369
   29.511476   50.483135
   29.513412   50.480803
   29.517612   50.472080
   29.517879   50.470235
   29.517299   50.468891
   29.511099   50.463294
   29.509075   50.462101
   29.507170   50.461582
   29.505111   50.461438
   29.501267   50.462251
   29.494025   50.458688
   29.491299   50.458042
   29.487220   50.455444
   29.484709   50.454845
   29.481945   50.454899
   29.482611   50.454274
   29.497415   50.455132
   29.500758   50.454639
   29.502446   50.453872
   29.504024   50.452431
   29.506117   50.446682
   29.506405   50.443796
   29.505333   50.441835
   29.505454   50.439379
   29.503394   50.433174
   29.500789   50.430718
   29.495287   50.426987
   29.489200   50.418780
   29.558962   50.426950
   29.561749   50.426920
   29.564301   50.426207
   29.579446   50.416200
   29.589768   50.407517
   29.596784   50.402266
   29.597384   50.400997
   29.597382   50.399671
   29.593423   50.389510
   29.596361   50.381197
   29.596344   50.379167
   29.599595   50.379562
   29.601746   50.379485
   29.607414   50.378350
   29.612203   50.376932
   29.613757   50.376285
   29.617359   50.373933
   29.619958   50.371197
   29.626149   50.376108
   29.630694   50.378052
   29.632691   50.378533
   29.635920   50.378687
   29.638669   50.378143
   29.642770   50.375687
   29.644130   50.374372
   29.645450   50.371577
   29.645193   50.370274
   29.644357   50.369069
   29.646029   50.367944
   29.647072   50.366311
   29.648111   50.362577
   29.647987   50.360867
   29.648872   50.358670
   29.648724   50.357277
   29.647918   50.355979
   29.642889   50.351622
   29.640703   50.350574
   29.637843   50.350010
   29.637481   50.348060
   29.633979   50.343347
   29.631791   50.342179
   29.624980   50.340032
   29.628171   50.337368
   29.631188   50.333464
   29.641451   50.330119
   29.646767   50.328785
   29.654968   50.328997
   29.656949   50.328806
   29.659003   50.328170
   29.665424   50.328319
   29.669970   50.326627
   29.673331   50.326413
   29.678105   50.324757
   29.680034   50.324858
   29.690335   50.327566
   29.693729   50.327684
   29.695668   50.327255
   29.697334   50.326489
   29.698891   50.325057
   29.699434   50.323793
   29.697509   50.308052
   29.696089   50.306579
   29.693278   50.305389
   29.689924   50.305163
   29.686766   50.305868
   29.682752   50.297216
   29.684320   50.289006
   29.690648   50.288685
   29.692616   50.288271
   29.694790   50.287191
   29.696155   50.285663
   29.696504   50.283918
   29.695524   50.276063
   29.694325   50.274501
   29.692864   50.273585
   29.691053   50.272973
   29.688471   50.272700
   29.686343   50.270699
   29.684598   50.269849
   29.680266   50.269085
   29.680745   50.267743
   29.680577   50.266396
   29.678758   50.264279
   29.682482   50.262107
   29.683385   50.260913
   29.683689   50.259326
   29.686474   50.258280
   29.688086   50.256790
   29.691326   50.247665
   29.695053   50.242444
   29.698726   50.239792
   29.704984   50.236340
   29.707393   50.233836
   29.709228   50.232751
   29.710413   50.231183
   29.710460   50.229015
   29.708922   50.227082
   29.706778   50.226008
   29.703707   50.225520
   29.700876   50.224610
   29.697750   50.224384
   29.695339   50.223716
   29.691585   50.223371
   29.690812   50.222170
   29.689641   50.215103
   29.682001   50.204515
   29.674950   50.197792
   29.668166   50.192753
   29.665274   50.189117
   29.660611   50.184621
   29.658352   50.183456
   29.655062   50.182617
   29.653933   50.180675
   29.652742   50.179525
   29.653427   50.177836
   29.655317   50.175880
   29.659879   50.175263
   29.669716   50.171332
   29.677325   50.165013
   29.681096   50.162737
   29.683369   50.161778
   29.687494   50.160936
   29.690740   50.159800
   29.693711   50.159337
   29.696047   50.158330
   29.697810   50.156392
   29.699058   50.153154
   29.699166   50.151802
   29.694841   50.142548
   29.693640   50.141086
   29.665536   50.125217
   29.663961   50.120768
   29.673452   50.118183
   29.675619   50.117012
   29.676672   50.115826
   29.677123   50.114493
   29.676832   50.112677
   29.676036   50.111435
   29.671617   50.108489
   29.669887   50.107752
   29.661873   50.106442
   29.657653   50.105457
   29.687082   50.083399
   29.702386   50.071497
   29.703740   50.070012
   29.704128   50.068313
   29.703143   50.050396
   29.701965   50.042495
   29.700630   50.040961
   29.695797   50.037566
   29.683276   50.031937
   29.685619   50.026978
   29.687191   50.021496
   29.687061   50.019794
   29.688223   50.018047
   29.688450   50.016040
   29.689215   50.014942
   29.694407   50.010207
   29.697303   50.010649
   29.700672   50.010154
   29.703353   50.008798
   29.704701   50.007242
   29.705527   50.004426
   29.705002   50.002672
   29.702802   50.000670
   29.699732   49.999394
   29.701106   49.998064
   29.701969   49.995400
   29.703397   49.993522
   29.707242   49.991025
   29.711563   49.987581
   29.714972   49.986546
   29.719867   49.984086
   29.723572   49.981207
   29.724240   49.979334
   29.723643   49.977062
   29.720416   49.973155
   29.724830   49.972413
   29.728655   49.973010
   29.731913   49.972474
   29.734416   49.971037
   29.737573   49.967338
   29.738905   49.963913
   29.738601   49.961702
   29.736686   49.959849
   29.734942   49.959103
   29.732773   49.958667
   29.731759   49.958082
   29.735049   49.954460
   29.737120   49.953491
   29.738279   49.952436
   29.742015   49.945642
   29.742163   49.943455
   29.741100   49.941834
   29.739707   49.940857
   29.733477   49.939002
   29.735169   49.932475
   29.734260   49.930624
   29.732523   49.929291
   29.670765   49.907837
   29.661236   49.899122
   29.659093   49.898187
   29.650832   49.896228
   29.649612   49.895232
   29.647915   49.894464
   29.640007   49.883774
   29.637861   49.882100
   29.645988   49.882259
   29.648967   49.882745
   29.651743   49.882565
   29.653634   49.881984
   29.655519   49.880772
   29.669921   49.877984
   29.672501   49.876511
   29.673576   49.874875
   29.673583   49.873101
   29.672104   49.871103
   29.659607   49.863152
   29.657778   49.862463
   29.655711   49.862151
   29.652314   49.862513
   29.650027   49.862154
   29.645862   49.862050
   29.642749   49.862800
   29.640929   49.861419
   29.637504   49.859657
   29.634440   49.858917
   29.634321   49.856973
   29.632676   49.853923
   29.628228   49.851060
   29.626207   49.849262
   29.622990   49.847979
   29.621016   49.847760
   29.619024   49.847903
   29.606215   49.850449
   29.607323   49.847421
   29.606483   49.845260
   29.602508   49.841515
   29.597730   49.838121
   29.595968   49.837363
   29.593226   49.836932
   29.588859   49.837221
   29.581403   49.836663
   29.579672   49.834437
   29.578076   49.833606
   29.576172   49.833103
   29.569594   49.832494
   29.559546   49.832407
   29.554636   49.831578
   29.556242   49.830410
   29.557043   49.829194
   29.557261   49.827883
   29.556877   49.826586
   29.548011   49.816717
   29.546751   49.815706
   29.545095   49.814963
   29.541831   49.814475
   29.538581   49.815000
   29.535674   49.816293
   29.533734   49.818103
   29.529614   49.819044
   29.522893   49.821442
   29.520825   49.822606
   29.517814   49.825027
   29.510675   49.827031
   29.507473   49.828441
   29.499777   49.824325
   29.501363   49.822535
   29.502881   49.819009
   29.504242   49.817482
   29.504628   49.816174
   29.504401   49.814850
   29.501647   49.810850
   29.494493   49.807526
   29.494407   49.805032
   29.493543   49.803874
   29.492204   49.802917
   29.483468   49.799171
   29.480736   49.798687
   29.478610   49.798798
   29.476038   49.799561
   29.473930   49.800951
   29.468023   49.807391
   29.453397   49.799115
   29.451706   49.798409
   29.449778   49.798038
   29.451674   49.794228
   29.453751   49.791030
   29.456227   49.788448
   29.463653   49.775847
   29.468866   49.763132
   29.469096   49.761496
   29.450961   49.730069
   29.448735   49.728400
   29.444306   49.727026
   29.450232   49.717773
   29.482334   49.716540
   29.485732   49.717798
   29.491754   49.717810
   29.494492   49.718542
   29.496466   49.718685
   29.500698   49.717919
   29.503087   49.716724
   29.504301   49.715662
   29.505084   49.713986
   29.504582   49.711831
   29.502892   49.710270
   29.501603   49.708181
   29.498258   49.706460
   29.497355   49.686848
   29.498563   49.685510
   29.498976   49.683719
   29.498012   49.679770
   29.496534   49.677164
   29.496245   49.671946
   29.516460   49.666954
   29.518734   49.665885
   29.520172   49.664333
   29.520560   49.662999
   29.520311   49.661652
   29.511205   49.646769
   29.509839   49.645761
   29.508073   49.645052
   29.504666   49.644684
   29.489503   49.648283
   29.488476   49.646918
   29.486543   49.645727
   29.484055   49.645082
   29.481369   49.645074
   29.435596   49.656185
   29.434747   49.654535
   29.434795   49.652363
   29.433047   49.649755
   29.430692   49.648195
   29.428152   49.647568
   29.426105   49.647529
   29.423510   49.648058
   29.414696   49.650898
   29.411340   49.652892
   29.403390   49.646169
   29.403587   49.644830
   29.403203   49.643516
   29.401793   49.641982
   29.399347   49.640575
   29.386648   49.618324
   29.384764   49.616502
   29.383056   49.615760
   29.381086   49.615365
   29.376126   49.615764
   29.372788   49.614670
   29.369365   49.614759
   29.363446   49.617026
   29.356311   49.621596
   29.345390   49.611364
   29.343188   49.610241
   29.341179   49.609811
   29.337681   49.609983
   29.335799   49.610605
   29.334289   49.611555
   29.333062   49.612963
   29.332396   49.614684
   29.324083   49.623311
   29.301595   49.622102
   29.292277   49.621973
   29.282914   49.622316
   29.282751   49.589629
   29.282239   49.588344
   29.281166   49.587210
   29.279028   49.586096
   29.277072   49.585652
   29.252521   49.585596
   29.249831   49.585938
   29.247547   49.586908
   29.246310   49.587961
   29.243842   49.592324
   29.239812   49.596579
   29.230645   49.591293
   29.229411   49.589105
   29.227645   49.587852
   29.225354   49.586769
   29.214373   49.583190
   29.211528   49.583201
   29.209525   49.583684
   29.203104   49.587568
   29.196570   49.584341
   29.191671   49.582969
   29.188421   49.582717
   29.179495   49.583405
   29.176738   49.584238
   29.163739   49.586817
   29.159159   49.586405
   29.154268   49.586393
   29.151817   49.587078
   29.149574   49.588295
   29.143690   49.587470
   29.134573   49.585697
   29.125262   49.582847
   29.121665   49.580393
   29.119947   49.579611
   29.116539   49.579123
   29.113808   49.579528
   29.111536   49.580578
   29.101843   49.588675
   29.094244   49.588393
   29.091069   49.588966
   29.087436   49.588037
   29.081086   49.587462
   29.077590   49.588181
   29.073245   49.588372
   29.068663   49.589235
   29.067307   49.588984
   29.064819   49.587683
   29.061404   49.587230
   29.058685   49.587659
   29.054899   49.589351
   29.051622   49.589830
   29.048682   49.589755
   29.047250   49.589593
   29.045293   49.588698
   29.043476   49.588273
   29.034820   49.587235
   29.029482   49.586069
   29.026024   49.585934
   29.010726   49.588434
   28.990330   49.593250
   28.984612   49.596538
   28.979420   49.600556
   28.978239   49.602101
   28.978046   49.603816
   28.982056   49.611407
   28.984491   49.613421
   28.990227   49.619504
   28.994525   49.626602
   28.997936   49.630753
   29.000084   49.632481
   28.986843   49.640732
   28.983141   49.640254
   28.981028   49.640309
   28.979034   49.640761
   28.976866   49.641905
   28.972708   49.646807
   28.971932   49.648512
   28.972605   49.650918
   28.974713   49.652654
   28.970618   49.656358
   28.959286   49.668428
   28.955169   49.669059
   28.950383   49.669062
   28.944723   49.669985
   28.942874   49.670618
   28.941396   49.671569
   28.940419   49.672755
   28.940138   49.675587
   28.938864   49.677746
   28.938663   49.678988
   28.939955   49.684493
   28.941612   49.686438
   28.944516   49.687647
   28.952007   49.688375
   28.957101   49.698602
   28.957706   49.700861
   28.959027   49.702413
   28.961941   49.703774
   28.964611   49.704232
   28.968117   49.704094
   28.972262   49.703317
   28.980061   49.711463
   28.985298   49.716002
   28.983757   49.717854
   28.983612   49.719654
   28.984239   49.720950
   28.987745   49.724917
   28.989206   49.729408
   28.990773   49.730817
   28.992432   49.731569
   28.995033   49.732047
   28.997161   49.731962
   28.995453   49.734961
   28.994985   49.737389
   28.978839   49.743637
   28.960180   49.751191
   28.958667   49.752045
   28.957348   49.753539
   28.956987   49.754809
   28.958324   49.773396
   28.953831   49.774539
   28.939774   49.779120
   28.936745   49.780938
   28.935448   49.782438
   28.935196   49.784566
   28.936499   49.786532
   28.943540   49.791545
   28.947412   49.793510
   28.951917   49.797043
   28.953746   49.797923
   28.960636   49.803455
   28.955902   49.806615
   28.954825   49.807852
   28.954400   49.809240
   28.954037   49.815643
   28.945309   49.814860
   28.943094   49.815030
   28.939407   49.816337
   28.937612   49.818257
   28.937477   49.820492
   28.945085   49.838274
   28.941977   49.838508
   28.940051   49.839064
   28.935115   49.842235
   28.933882   49.844245
   28.934019   49.846560
   28.932377   49.847787
   28.931139   49.849971
   28.904160   49.856642
   28.897785   49.860325
   28.896069   49.862408
   28.895875   49.864124
   28.897052   49.866130
   28.899547   49.867568
   28.894821   49.868427
   28.891863   49.869302
   28.890288   49.870121
   28.889142   49.871192
   28.888519   49.872426
   28.888469   49.873723
   28.890232   49.878755
   28.885787   49.879392
   28.883588   49.880152
   28.879926   49.880679
   28.876305   49.882637
   28.874905   49.884209
   28.868677   49.884514
   28.865230   49.883973
   28.862356   49.883951
   28.853238   49.863416
   28.850364   49.858085
   28.849266   49.856987
   28.847724   49.856135
   28.844528   49.855440
   28.821110   49.854128
   28.820889   49.851770
   28.819809   49.850181
   28.817872   49.848968
   28.815364   49.848309
   28.791402   49.847381
   28.792168   49.843443
   28.791781   49.841454
   28.789699   49.839325
   28.786710   49.838244
   28.783959   49.838114
   28.769335   49.839258
   28.757611   49.839664
   28.757473   49.827763
   28.759743   49.827776
   28.761786   49.827402
   28.764069   49.826338
   28.765249   49.825209
   28.765851   49.823907
   28.766162   49.819066
   28.765461   49.816484
   28.763854   49.815022
   28.761487   49.814072
   28.759432   49.813787
   28.753410   49.813899
   28.750883   49.813467
   28.741719   49.801287
   28.741130   49.797739
   28.739825   49.795670
   28.738382   49.794685
   28.736549   49.794016
   28.727502   49.792186
   28.724087   49.792142
   28.722163   49.792618
   28.720536   49.793427
   28.714837   49.800094
   28.713954   49.801613
   28.710201   49.800774
   28.706778   49.800926
   28.703868   49.802087
   28.702247   49.803779
   28.695999   49.802320
   28.696965   49.800492
   28.697155   49.799172
   28.696738   49.797874
   28.695307   49.796368
   28.692443   49.795158
   28.689023   49.794950
   28.687040   49.795338
   28.677957   49.798510
   28.665708   49.803558
   28.646844   49.809117
   28.646093   49.807250
   28.644421   49.805881
   28.642065   49.805015
   28.638565   49.804763
   28.633905   49.805598
   28.629517   49.807848
   28.626976   49.808321
   28.624783   49.809335
   28.622540   49.809618
   28.618759   49.807597
   28.615118   49.806428
   28.612341   49.806096
   28.609195   49.806242
   28.608570   49.782573
   28.607931   49.780607
   28.606688   49.779073
   28.604185   49.777617
   28.601795   49.776825
   28.579547   49.771087
   28.571719   49.769671
   28.568885   49.769549
   28.565609   49.770402
   28.563716   49.771754
   28.558434   49.781456
   28.556173   49.781076
   28.553391   49.781220
   28.551481   49.781775
   28.549487   49.783021
   28.548401   49.784663
   28.548298   49.786037
   28.546864   49.788072
   28.547086   49.791343
   28.545126   49.792037
   28.543272   49.793356
   28.536124   49.803697
   28.524917   49.810514
   28.522426   49.813160
   28.511726   49.810333
   28.508027   49.809804
   28.502979   49.808622
   28.484658   49.802975
   28.481143   49.802668
   28.479076   49.803031
   28.477275   49.803773
   28.474613   49.805924
   28.473730   49.807362
   28.469182   49.808834
   28.467545   49.809748
   28.466178   49.811375
   28.465148   49.814776
   28.464076   49.816363
   28.461613   49.815745
   28.459541   49.815681
   28.456381   49.816392
   28.453313   49.816033
   28.448669   49.816860
   28.443599   49.816557
   28.439767   49.817286
   28.431382   49.816407
   28.429233   49.816710
   28.425715   49.817843
   28.425253   49.816738
   28.426764   49.815504
   28.427460   49.814232
   28.427225   49.810926
   28.426346   49.809717
   28.424954   49.808725
   28.422120   49.807504
   28.419199   49.806977
   28.413554   49.790926
   28.412084   49.789038
   28.410584   49.788052
   28.403185   49.784843
   28.400180   49.783077
   28.391473   49.779585
   28.381918   49.776208
   28.378503   49.775849
   28.375229   49.776567
   28.370481   49.778876
   28.345954   49.788324
   28.311086   49.794378
   28.308766   49.794051
   28.306653   49.794194
   28.301930   49.795949
   28.299487   49.796372
   28.294595   49.794573
   28.290301   49.793550
   28.284023   49.793249
   28.279653   49.793381
   28.274864   49.794077
   28.259761   49.795406
   28.257442   49.796470
   28.255765   49.798472
   28.254717   49.807555
   28.250770   49.809143
   28.251657   49.802170
   28.252350   49.800017
   28.251759   49.796737
   28.251097   49.795507
   28.249421   49.794149
   28.247070   49.793292
   28.233887   49.791297
   28.231914   49.787866
   28.233143   49.785817
   28.232777   49.783632
   28.230841   49.781815
   28.227793   49.780795
   28.222172   49.780805
   28.219134   49.780408
   28.215795   49.780558
   28.213824   49.780965
   28.212121   49.781719
   28.210516   49.783149
   28.209887   49.784862
   28.210158   49.786257
   28.200889   49.785148
   28.190604   49.784973
   28.184632   49.784078
   28.175614   49.783250
   28.166469   49.782834
   28.155821   49.781704
   28.153114   49.781918
   28.151106   49.782586
   28.148525   49.780959
   28.138313   49.777684
   28.125910   49.775436
   28.120137   49.772299
   28.114945   49.770157
   28.111197   49.769217
   28.098384   49.767431
   28.095409   49.767621
   28.092534   49.767253
   28.060791   49.767509
   28.044963   49.766030
   28.036015   49.765982
   28.028818   49.766563
   28.017445   49.766797
   28.013615   49.767789
   28.005772   49.771786
   28.003251   49.772002
   27.988680   49.774813
   27.986376   49.774870
   27.982258   49.775531
   27.980583   49.775551
   27.971278   49.774329
   27.961896   49.774054
   27.958458   49.773364
   27.956232   49.772585
   27.944229   49.766603
   27.939346   49.765827
   27.935182   49.764112
   27.927041   49.763455
   27.919590   49.762450
   27.916031   49.762711
   27.905908   49.762523
   27.902321   49.762772
   27.900671   49.761350
   27.900796   49.757438
   27.900335   49.756132
   27.898325   49.754324
   27.895889   49.753459
   27.888208   49.752033
   27.877329   49.750500
   27.866955   49.750523
   27.850091   49.748752
   27.846522   49.748693
   27.842768   49.749039
   27.842738   49.744136
   27.841283   49.742070
   27.839705   49.741144
   27.837765   49.740562
   27.824539   49.739036
   27.824946   49.734025
   27.823992   49.731924
   27.821189   49.729877
   27.818987   49.728847
   27.812478   49.724646
   27.809041   49.723200
   27.805563   49.722847
   27.801179   49.723950
   27.797973   49.723859
   27.793115   49.722485
   27.789905   49.722177
   27.787270   49.722568
   27.783771   49.723904
   27.780113   49.723912
   27.777443   49.724544
   27.774672   49.726127
   27.773144   49.728329
   27.771308   49.729845
   27.769340   49.730474
   27.767859   49.731389
   27.762704   49.736683
   27.760238   49.737779
   27.758418   49.739959
   27.756017   49.740816
   27.751318   49.743925
   27.749680   49.746329
   27.749932   49.748869
   27.747068   49.750511
   27.745576   49.752336
   27.744204   49.752946
   27.741588   49.753293
   27.737339   49.754720
   27.733802   49.756591
   27.729428   49.758119
   27.727950   49.758957
   27.700701   49.764886
   27.698509   49.765890
   27.697341   49.766949
   27.696692   49.768177
   27.696614   49.769471
   27.699888   49.779835
   27.700771   49.781322
   27.706005   49.785515
   27.707788   49.786326
   27.710652   49.787042
   27.711682   49.788081
   27.714956   49.789836
   27.716036   49.790812
   27.715584   49.792312
   27.715815   49.793577
   27.718889   49.798262
   27.712690   49.802270
   27.709019   49.802927
   27.700798   49.803488
   27.698092   49.799831
   27.696840   49.798786
   27.694545   49.797832
   27.691855   49.797505
   27.689172   49.797855
   27.680637   49.800544
   27.673263   49.802032
   27.669092   49.792283
   27.667793   49.791280
   27.666101   49.790555
   27.661986   49.789933
   27.658709   49.790539
   27.652814   49.793663
   27.651372   49.795173
   27.650800   49.797488
   27.648577   49.798580
   27.646995   49.800449
   27.645338   49.801350
   27.644242   49.802459
   27.641180   49.803441
   27.638679   49.805148
   27.637898   49.806403
   27.637594   49.808422
   27.635480   49.809894
   27.633641   49.812733
   27.633506   49.814506
   27.633958   49.815861
   27.633626   49.816774
   27.631582   49.818178
   27.630361   49.819814
   27.627245   49.821968
   27.626017   49.823450
   27.625502   49.825270
   27.626436   49.827452
   27.625950   49.828201
   27.623180   49.829953
   27.621680   49.832232
   27.620389   49.833081
   27.619339   49.834395
   27.616914   49.835758
   27.615962   49.836934
   27.614997   49.839923
   27.615956   49.842841
   27.615596   49.845553
   27.616364   49.847200
   27.617892   49.848457
   27.615456   49.850053
   27.610913   49.855494
   27.610963   49.857674
   27.612851   49.859742
   27.609489   49.861286
   27.608035   49.863186
   27.608542   49.871008
   27.606313   49.871708
   27.604754   49.872606
   27.603141   49.874515
   27.602921   49.875817
   27.603547   49.877512
   27.611775   49.886688
   27.608112   49.885967
   27.604812   49.886373
   27.601685   49.886385
   27.595943   49.885647
   27.592515   49.886157
   27.590798   49.886958
   27.589229   49.888460
   27.588379   49.892382
   27.583001   49.894505
   27.580922   49.896062
   27.579368   49.898009
   27.576355   49.899284
   27.573797   49.899953
   27.570798   49.901766
   27.569762   49.899419
   27.568456   49.898418
   27.566758   49.897695
   27.562463   49.896947
   27.549264   49.896020
   27.546098   49.896643
   27.543436   49.898102
   27.540476   49.901382
   27.539791   49.902690
   27.539890   49.904522
   27.542383   49.909063
   27.540640   49.934627
   27.541074   49.936394
   27.542091   49.937572
   27.544200   49.938750
   27.546165   49.939237
   27.549933   49.939553
   27.549788   49.945983
   27.550438   49.947248
   27.551636   49.948338
   27.553902   49.949358
   27.559691   49.950325
   27.563143   49.951617
   27.566158   49.951853
   27.563337   49.953457
   27.560525   49.956166
   27.559453   49.957984
   27.556504   49.967962
   27.554731   49.981358
   27.549301   49.984445
   27.548074   49.985487
   27.541922   49.995180
   27.540942   49.999733
   27.540006   50.001564
   27.539204   50.007252
   27.539414   50.011911
   27.540446   50.013953
   27.542270   50.015220
   27.544704   50.015961
   27.553255   50.015811
   27.555232   50.016721
   27.556561   50.020362
   27.558766   50.022163
   27.561357   50.022957
   27.571415   50.024183
   27.574278   50.023757
   27.577200   50.022662
   27.581169   50.022351
   27.586144   50.021178
   27.591635   50.019035
   27.596760   50.017537
   27.608753   50.012147
   27.635618   50.038937
   27.638556   50.040696
   27.641722   50.041482
   27.645630   50.041404
   27.652623   50.039660
   27.654893   50.038344
   27.659722   50.037503
   27.662704   50.036341
   27.664381   50.035018
   27.665667   50.033107
   27.665718   50.031049
   27.668442   50.032176
   27.669647   50.034612
   27.671743   50.036173
   27.670739   50.038227
   27.670608   50.042623
   27.671840   50.045469
   27.674235   50.048141
   27.671952   50.049991
   27.670962   50.051817
   27.668155   50.053621
   27.667351   50.054794
   27.667094   50.056063
   27.668886   50.059965
   27.670416   50.061338
   27.670730   50.063644
   27.669447   50.065364
   27.667213   50.066283
   27.664132   50.068310
   27.663253   50.069532
   27.663000   50.071099
   27.661589   50.072495
   27.661082   50.073989
   27.612982   50.081950
   27.611120   50.082609
   27.609649   50.083591
   27.608405   50.085696
   27.608493   50.087054
   27.609208   50.088334
   27.619608   50.100338
   27.617356   50.101908
   27.616524   50.103580
   27.616772   50.108715
   27.617847   50.114153
   27.619342   50.115619
   27.620979   50.116418
   27.622907   50.116883
   27.625531   50.117062
   27.622913   50.117661
   27.620810   50.118903
   27.619155   50.121049
   27.618753   50.123554
   27.619573   50.126443
   27.620807   50.135204
   27.622134   50.136812
   27.623797   50.137752
   27.625534   50.140883
   27.624060   50.143951
   27.624460   50.147058
   27.625110   50.148295
   27.626778   50.149665
   27.629131   50.150532
   27.632212   50.150939
   27.635835   50.150558
   27.639801   50.151506
   27.644268   50.151907
   27.645459   50.155134
   27.646622   50.156202
   27.648816   50.157215
   27.651446   50.157629
   27.661327   50.157352
   27.664188   50.157594
   27.667975   50.160514
   27.665805   50.162473
   27.658324   50.166656
   27.655894   50.168758
   27.654776   50.170629
   27.654778   50.172719
   27.656250   50.174817
   27.655521   50.176812
   27.656254   50.182825
   27.655891   50.187843
   27.644929   50.185372
   27.649110   50.172796
   27.648651   50.170646
   27.646676   50.168880
   27.643640   50.167904
   27.625340   50.165259
   27.620367   50.165134
   27.617165   50.165953
   27.615283   50.167250
   27.614248   50.169351
   27.615224   50.181161
   27.615397   50.187346
   27.614946   50.190475
   27.608682   50.191030
   27.603738   50.192590
   27.601446   50.194277
   27.600790   50.195559
   27.600499   50.198624
   27.601539   50.200276
   27.603101   50.201353
   27.601718   50.208700
   27.600143   50.211085
   27.592210   50.211160
   27.590230   50.211488
   27.587513   50.212781
   27.586047   50.214732
   27.587416   50.227382
   27.587192   50.228989
   27.587851   50.231576
   27.588491   50.232831
   27.589671   50.233915
   27.592905   50.235165
   27.594811   50.242466
   27.592240   50.247977
   27.591031   50.254144
   27.581297   50.254145
   27.578066   50.250519
   27.576478   50.249720
   27.573848   50.249001
   27.573403   50.246442
   27.571958   50.244884
   27.565124   50.241666
   27.559811   50.241203
   27.547495   50.241310
   27.532334   50.222227
   27.530106   50.221168
   27.527411   50.220739
   27.519944   50.220983
   27.517387   50.221561
   27.515425   50.222661
   27.488487   50.234106
   27.484078   50.236326
   27.480113   50.241045
   27.479280   50.242878
   27.474272   50.249940
   27.473706   50.251192
   27.473713   50.252748
   27.459340   50.253380
   27.456845   50.254157
   27.454898   50.255625
   27.441078   50.256753
   27.439158   50.257225
   27.437531   50.258030
   27.436052   50.259499
   27.435554   50.261217
   27.437085   50.271257
   27.430569   50.271558
   27.429727   50.269318
   27.428512   50.268243
   27.426861   50.267439
   27.423539   50.266877
   27.419472   50.267370
   27.417661   50.268063
   27.416068   50.269198
   27.412465   50.270518
   27.409118   50.272783
   27.403708   50.277471
   27.400083   50.278893
   27.397126   50.281082
   27.393279   50.283212
   27.390209   50.284482
   27.388786   50.286017
   27.388395   50.287335
   27.388627   50.288669
   27.389461   50.289900
   27.393185   50.293561
   27.396312   50.294803
   27.397046   50.296344
   27.398795   50.297736
   27.403491   50.299170
   27.407667   50.299249
   27.409380   50.299991
   27.409604   50.304818
   27.364747   50.325503
   27.361005   50.327537
   27.353678   50.326788
   27.349517   50.327317
   27.343518   50.328689
   27.341122   50.328107
   27.336528   50.327794
   27.327925   50.328830
   27.326336   50.328747
   27.321209   50.327567
   27.315564   50.327216
   27.312817   50.327574
   27.310502   50.328584
   27.308757   50.330516
   27.306038   50.338299
   27.305756   50.340140
   27.307039   50.343393
   27.308503   50.345107
   27.312012   50.348060
   27.312790   50.350518
   27.315606   50.354380
   27.315898   50.360571
   27.313735   50.363653
   27.313558   50.365472
   27.307097   50.368045
   27.305156   50.369504
   27.300110   50.371302
   27.297896   50.371388
   27.295700   50.371898
   27.271402   50.380205
   27.245109   50.388745
   27.242467   50.390261
   27.241565   50.391505
   27.241341   50.393321
   27.245080   50.402959
   27.245186   50.405201
   27.247015   50.408183
   27.247157   50.410072
   27.252249   50.425757
   27.283052   50.456671
   27.284361   50.459703
   27.282624   50.471740
   27.284228   50.477730
   27.290458   50.486193
   27.293395   50.489107
   27.290769   50.489261
   27.286690   50.488963
   27.281825   50.486881
   27.278573   50.486236
   27.272961   50.486267
   27.264000   50.487965
   27.262354   50.488889
   27.260468   50.490955
   27.256604   50.492931
   27.255351   50.494574
   27.254070   50.499708
   27.255780   50.508081
   27.254222   50.509513
   27.246569   50.511785
   27.232883   50.516968
   27.223633   50.519799
   27.219187   50.522734
   27.217809   50.524280
   27.204116   50.527815
   27.202395   50.528623
   27.201130   50.529721
   27.196923   50.542415
   27.195688   50.544127
   27.193279   50.546321
   27.192436   50.547920
   27.190171   50.550233
   27.189381   50.551775
   27.189513   50.562855
   27.191130   50.565251
   27.193947   50.566638
   27.197977   50.567442
   27.205792   50.568046
   27.207598   50.569154
   27.210080   50.569814
   27.220529   50.570556
   27.208788   50.586387
   27.208114   50.588158
   27.208611   50.590494
   27.209855   50.592419
   27.210523   50.594464
   27.216502   50.600432
   27.216728   50.603019
   27.215378   50.603887
   27.205970   50.606735
   27.203754   50.607938
   27.200061   50.608800
   27.198209   50.610088
   27.193637   50.614843
   27.186264   50.616587
   27.184125   50.617539
   27.182445   50.619188
   27.181922   50.620494
   27.182020   50.621820
   27.179931   50.623548
   27.179358   50.625727
END
END
